<?xml version="1.0" encoding="UTF-8" standalone="no"?>
<!-- Created with Inkscape (http://www.inkscape.org/) -->

<svg
   xmlns:dc="http://purl.org/dc/elements/1.1/"
   xmlns:cc="http://creativecommons.org/ns#"
   xmlns:rdf="http://www.w3.org/1999/02/22-rdf-syntax-ns#"
   xmlns:svg="http://www.w3.org/2000/svg"
   xmlns="http://www.w3.org/2000/svg"
   xmlns:sodipodi="http://sodipodi.sourceforge.net/DTD/sodipodi-0.dtd"
   xmlns:inkscape="http://www.inkscape.org/namespaces/inkscape"
   width="154.64639"
   height="139.64024"
   id="svg2"
   version="1.1"
   inkscape:version="0.92.4 (5da689c313, 2019-01-14)"
   sodipodi:docname="02-01.svg"
   inkscape:export-filename="/home/goldin/Documents/Математика/0-МЭ/Рабочий план/pictures/ptolemey.png"
   inkscape:export-xdpi="150"
   inkscape:export-ydpi="150">
  <defs
     id="defs4" />
  <sodipodi:namedview
     id="base"
     pagecolor="#ffffff"
     bordercolor="#666666"
     borderopacity="1.0"
     inkscape:pageopacity="0.0"
     inkscape:pageshadow="2"
     inkscape:zoom="5.2420418"
     inkscape:cx="77.323196"
     inkscape:cy="69.820122"
     inkscape:document-units="pt"
     inkscape:current-layer="layer1"
     showgrid="false"
     units="mm"
     inkscape:window-width="1920"
     inkscape:window-height="1009"
     inkscape:window-x="0"
     inkscape:window-y="0"
     inkscape:window-maximized="1"
     fit-margin-top="2"
     fit-margin-left="2"
     fit-margin-right="2"
     fit-margin-bottom="2" />
  <metadata
     id="metadata7">
    <rdf:RDF>
      <cc:Work
         rdf:about="">
        <dc:format>image/svg+xml</dc:format>
        <dc:type
           rdf:resource="http://purl.org/dc/dcmitype/StillImage" />
        <dc:title></dc:title>
      </cc:Work>
    </rdf:RDF>
  </metadata>
  <g
     inkscape:label="Layer 1"
     inkscape:groupmode="layer"
     id="layer1"
     transform="translate(-181.70857,-897.1439)">
    <path
       sodipodi:nodetypes="ccccc"
       inkscape:connector-curvature="0"
       id="path3056"
       d="m 333.88853,968.54935 -26.5748,-68.82192 -119.2648,27.15641 12.28419,86.63826 69.84403,20.7828"
       style="fill:none;stroke:#000000;stroke-width:1;stroke-linecap:butt;stroke-linejoin:miter;stroke-opacity:1" />
    <path
       sodipodi:nodetypes="cc"
       inkscape:connector-curvature="0"
       id="path3074"
       d="m 242.72137,900.06813 -58.7213,105.65737"
       style="fill:none;stroke:#000000;stroke-width:0.667;stroke-linecap:butt;stroke-linejoin:miter;stroke-miterlimit:4;stroke-dasharray:2.66799998, 1.33399999;stroke-dashoffset:0;stroke-opacity:1" />
    <g
       aria-label="1"
       style="font-style:normal;font-variant:normal;font-weight:normal;font-stretch:normal;font-size:21.33333397px;line-height:21.33333397px;font-family:'Comic Sans MS';-inkscape-font-specification:'Comic Sans MS';text-align:center;letter-spacing:0px;word-spacing:0px;text-anchor:middle;fill:#000000;fill-opacity:1;stroke:none"
       id="text860">
      <path
         d="m 199.75502,969.85095 q 0,0.25781 -0.15625,0.41406 -0.14844,0.13282 -0.39062,0.13282 -0.21875,0 -0.38282,-0.13282 -0.16406,-0.14062 -0.16406,-0.41406 v -8.53125 l -1.25781,1.25781 q -0.16406,0.16407 -0.375,0.16407 -0.19531,0 -0.38281,-0.16407 -0.17188,-0.17187 -0.17188,-0.39062 0,-0.1875 0.16406,-0.375 l 2.1875,-2.1875 q 0.10938,-0.10938 0.22657,-0.17188 0.11718,-0.0703 0.25781,-0.0703 0.13281,0 0.3125,0.16406 0.13281,0.17188 0.13281,0.46094 z"
         style="font-style:normal;font-variant:normal;font-weight:normal;font-stretch:normal;font-size:16px;font-family:'GOST type B';-inkscape-font-specification:'GOST type B'"
         id="path878" />
    </g>
    <g
       aria-label="2"
       style="font-style:normal;font-variant:normal;font-weight:normal;font-stretch:normal;font-size:21.33333397px;line-height:21.33333397px;font-family:'Comic Sans MS';-inkscape-font-specification:'Comic Sans MS';text-align:center;letter-spacing:0px;word-spacing:0px;text-anchor:middle;fill:#000000;fill-opacity:1;stroke:none"
       id="text864">
      <path
         d="m 218.94676,927.80743 -3.53125,5.63282 h 3.39063 q 0.22656,0 0.38281,0.17187 0.16406,0.16406 0.16406,0.375 0,0.1875 -0.14062,0.36719 -0.13282,0.17969 -0.40625,0.17969 h -4.375 q -0.59375,0 -0.59375,-0.4375 0,-0.17188 0.13281,-0.40625 l 4.03906,-6.4375 q 0.20313,-0.42969 0.20313,-0.82032 0,-0.70312 -0.54688,-1.21875 -0.25781,-0.24218 -0.60156,-0.38281 -0.34375,-0.14062 -0.74219,-0.14062 -0.41406,0 -0.79687,0.21875 -0.38282,0.24218 -0.63282,0.625 -0.0625,0.10156 -0.21093,0.19531 l -0.24219,0.0547 q -0.21094,0 -0.39063,-0.14844 -0.17187,-0.15625 -0.17187,-0.38281 0,-0.10938 0.0937,-0.3125 0.375,-0.58594 1.01562,-0.96094 0.3125,-0.17969 0.63282,-0.28125 0.32031,-0.10156 0.625,-0.10156 1.28125,0 2.16406,0.85156 0.89062,0.84375 0.89062,2.01562 0,0.67188 -0.35156,1.34375 z"
         style="font-style:normal;font-variant:normal;font-weight:normal;font-stretch:normal;font-size:16px;font-family:'GOST type B';-inkscape-font-specification:'GOST type B'"
         id="path881" />
    </g>
    <g
       aria-label="3"
       style="font-style:normal;font-variant:normal;font-weight:normal;font-stretch:normal;font-size:21.33333397px;line-height:21.33333397px;font-family:'Comic Sans MS';-inkscape-font-specification:'Comic Sans MS';text-align:center;letter-spacing:0px;word-spacing:0px;text-anchor:middle;fill:#000000;fill-opacity:1;stroke:none"
       id="text868">
      <path
         d="m 203.5919,982.69849 h -2.1875 q -0.25,0 -0.40625,-0.15625 -0.14062,-0.16407 -0.14062,-0.39063 0,-0.19531 0.14062,-0.36719 0.14844,-0.17968 0.40625,-0.17968 h 2.1875 q 1.28125,0 2.04688,0.83593 0.6875,0.78125 0.6875,1.88282 0,0.66406 -0.26563,1.21875 -0.25781,0.55468 -0.79687,1 0.45312,0.35937 0.75781,0.9375 0.30469,0.57031 0.30469,1.22656 v 1.09375 q 0,1.11719 -0.80469,1.92969 -0.80469,0.80468 -1.92969,0.80468 h -2.1875 q -0.25,0 -0.40625,-0.14843 -0.14062,-0.17969 -0.14062,-0.39844 0,-0.1875 0.13281,-0.36719 0.14063,-0.17969 0.41406,-0.17969 h 2.1875 q 0.67969,0 1.15625,-0.47656 0.48438,-0.48437 0.48438,-1.16406 v -1.09375 q 0,-0.67188 -0.47656,-1.15625 -0.46875,-0.48438 -1.16407,-0.48438 h -1.09375 q -0.25,0 -0.40625,-0.14843 -0.14062,-0.17969 -0.14062,-0.39844 0,-0.1875 0.13281,-0.36719 0.14063,-0.17969 0.41406,-0.17969 h 1.09375 q 0.72657,0 1.19532,-0.52343 0.39843,-0.46875 0.39843,-1.14844 0,-0.66406 -0.38281,-1.10156 -0.4375,-0.5 -1.21094,-0.5 z"
         style="font-style:normal;font-variant:normal;font-weight:normal;font-stretch:normal;font-size:16px;font-family:'GOST type B';-inkscape-font-specification:'GOST type B'"
         id="path884" />
    </g>
    <g
       aria-label="4"
       style="font-style:normal;font-variant:normal;font-weight:normal;font-stretch:normal;font-size:21.33333397px;line-height:21.33333397px;font-family:'Comic Sans MS';-inkscape-font-specification:'Comic Sans MS';text-align:center;letter-spacing:0px;word-spacing:0px;text-anchor:middle;fill:#000000;fill-opacity:1;stroke:none"
       id="text872">
      <path
         d="m 239.24345,928.39117 h 1.09375 q 0.22657,0 0.38282,0.17188 0.16406,0.16406 0.16406,0.375 0,0.1875 -0.14063,0.36719 -0.13281,0.17968 -0.40625,0.17968 h -1.09375 v 1.64063 q 0,0.25781 -0.15625,0.41406 -0.14843,0.13281 -0.39062,0.13281 -0.21875,0 -0.38281,-0.13281 -0.16407,-0.14062 -0.16407,-0.41406 v -1.64063 h -3.28125 q -0.57031,0 -0.57031,-0.44531 l 0.0156,-0.13281 0.0312,-0.125 2.1875,-7.64844 q 0.0469,-0.16406 0.1875,-0.29687 l 0.10156,-0.0547 q 0.0937,-0.0469 0.21094,-0.0469 0.24218,0 0.39843,0.15625 0.17188,0.14844 0.17188,0.38282 l -0.0234,0.16406 -1.99219,6.95312 h 2.5625 v -1.64062 q 0,-0.21875 0.16407,-0.40625 0.16406,-0.14063 0.38281,-0.14063 0.21094,0 0.375,0.14063 0.17187,0.13281 0.17187,0.40625 z"
         style="font-style:normal;font-variant:normal;font-weight:normal;font-stretch:normal;font-size:16px;font-family:'GOST type B';-inkscape-font-specification:'GOST type B'"
         id="path887" />
    </g>
    <g
       aria-label="α"
       style="font-style:normal;font-variant:normal;font-weight:normal;font-stretch:normal;font-size:21.33333397px;line-height:21.33333397px;font-family:'Comic Sans MS';-inkscape-font-specification:'Comic Sans MS';text-align:center;letter-spacing:0px;word-spacing:0px;text-anchor:middle;fill:#000000;fill-opacity:1;stroke:none"
       id="text876">
      <path
         d="m 198.87022,934.46973 -0.34375,-1.80469 q -0.35156,-1.85156 -1.74218,-1.85156 -1.04688,0 -1.52344,0.85937 -0.60156,1.07813 -0.60156,2.5 0,1.71875 0.58593,2.53906 0.59375,0.83594 1.53907,0.83594 1.04687,0 1.60937,-1.66406 z m 0.80469,-2.39063 0.77344,-2.28906 h 1.28125 l -1.60156,4.74219 0.3125,1.71093 q 0.0703,0.38282 0.34375,0.70313 0.32031,0.375 0.57031,0.375 h 0.6875 v 1.21875 h -0.85938 q -0.73437,0 -1.39062,-0.65625 -0.32031,-0.32813 -0.45313,-1.01563 -0.35937,0.86719 -1.09375,1.54688 -0.34375,0.32031 -1.46093,0.32031 -1.83594,0 -2.72657,-1.1875 -0.91406,-1.22656 -0.91406,-3.375 0,-2.29687 0.99219,-3.375 1.10156,-1.20312 2.64844,-1.20312 2.42968,0 2.89062,2.48437 z"
         style="font-style:normal;font-variant:normal;font-weight:normal;font-stretch:normal;font-size:16px;font-family:'GOST type B';-inkscape-font-specification:'GOST type B'"
         id="path890" />
    </g>
  </g>
</svg>
