<?xml version="1.0" encoding="UTF-8" standalone="no"?>
<!-- Created with Inkscape (http://www.inkscape.org/) -->

<svg
   xmlns:dc="http://purl.org/dc/elements/1.1/"
   xmlns:cc="http://creativecommons.org/ns#"
   xmlns:rdf="http://www.w3.org/1999/02/22-rdf-syntax-ns#"
   xmlns:svg="http://www.w3.org/2000/svg"
   xmlns="http://www.w3.org/2000/svg"
   xmlns:sodipodi="http://sodipodi.sourceforge.net/DTD/sodipodi-0.dtd"
   xmlns:inkscape="http://www.inkscape.org/namespaces/inkscape"
   width="354.33069"
   height="70.866142"
   id="svg2"
   version="1.1"
   inkscape:version="0.92.4 (5da689c313, 2019-01-14)"
   sodipodi:docname="05-01.svg"
   inkscape:export-filename="/home/goldin/Documents/Математика/0-МЭ/Рабочий план/svg/06-01.png"
   inkscape:export-xdpi="599.94806"
   inkscape:export-ydpi="599.94806">
  <defs
     id="defs4">
    <marker
       inkscape:stockid="Arrow1Lend"
       orient="auto"
       refY="0"
       refX="0"
       id="Arrow1Lend"
       style="overflow:visible">
      <path
         id="path3786"
         d="M 0,0 5,-5 -12.5,0 5,5 0,0 z"
         style="fill-rule:evenodd;stroke:#000000;stroke-width:1pt"
         transform="matrix(-0.8,0,0,-0.8,-10,0)"
         inkscape:connector-curvature="0" />
    </marker>
    <marker
       inkscape:stockid="Arrow1Mend"
       orient="auto"
       refY="0"
       refX="0"
       id="Arrow1Mend"
       style="overflow:visible">
      <path
         id="path3792"
         d="M 0,0 5,-5 -12.5,0 5,5 0,0 z"
         style="fill-rule:evenodd;stroke:#000000;stroke-width:1pt"
         transform="matrix(-0.4,0,0,-0.4,-4,0)"
         inkscape:connector-curvature="0" />
    </marker>
  </defs>
  <sodipodi:namedview
     id="base"
     pagecolor="#ffffff"
     bordercolor="#666666"
     borderopacity="1.0"
     inkscape:pageopacity="0.0"
     inkscape:pageshadow="2"
     inkscape:zoom="3.2568446"
     inkscape:cx="177.77943"
     inkscape:cy="35.433071"
     inkscape:document-units="pt"
     inkscape:current-layer="layer1"
     showgrid="false"
     units="mm"
     inkscape:window-width="1920"
     inkscape:window-height="1009"
     inkscape:window-x="0"
     inkscape:window-y="0"
     inkscape:window-maximized="1" />
  <metadata
     id="metadata7">
    <rdf:RDF>
      <cc:Work
         rdf:about="">
        <dc:format>image/svg+xml</dc:format>
        <dc:type
           rdf:resource="http://purl.org/dc/dcmitype/StillImage" />
        <dc:title />
      </cc:Work>
    </rdf:RDF>
  </metadata>
  <g
     inkscape:label="Layer 1"
     inkscape:groupmode="layer"
     id="layer1"
     transform="translate(0,-981.49601)">
    <path
       style="fill:none;stroke:#000000;stroke-width:0.62500000000000000;stroke-linecap:butt;stroke-linejoin:miter;stroke-opacity:1;marker-end:url(#Arrow1Mend)"
       d="m 9.5369046,1016.4756 79.6413794,0"
       id="path3009"
       inkscape:connector-curvature="0"
       sodipodi:nodetypes="cc" />
    <path
       style="fill:none;stroke:#000000;stroke-width:0.9375;stroke-linecap:butt;stroke-linejoin:miter;stroke-opacity:1"
       d="m 20.544568,989.34855 c 5.989095,16.20575 14.620438,54.25405 28.888576,54.25405 14.268138,0 27.303229,-41.5713 31.883127,-54.25405"
       id="path4595"
       inkscape:connector-curvature="0"
       sodipodi:nodetypes="csc" />
    <path
       transform="matrix(0.88927855,0,0,0.88927855,5.7803797,939.88768)"
       style="fill:#ffffff;fill-opacity:1;stroke:#000000;stroke-width:0.7028169"
       d="m 19.908916,86.003464 a 1.3971169,1.3971169 0 0 1 -1.397117,1.397117 1.3971169,1.3971169 0 0 1 -1.397117,-1.397117 1.3971169,1.3971169 0 0 1 1.397117,-1.397117 1.3971169,1.3971169 0 0 1 1.397117,1.397117 z"
       id="path4593" />
    <path
       transform="matrix(0.88927855,0,0,0.88927855,42.395016,939.99457)"
       style="fill:#ffffff;fill-opacity:1;stroke:#000000;stroke-width:0.7028169"
       d="m 19.908916,86.003464 a 1.3971169,1.3971169 0 0 1 -1.397117,1.397117 1.3971169,1.3971169 0 0 1 -1.397117,-1.397117 1.3971169,1.3971169 0 0 1 1.397117,-1.397117 1.3971169,1.3971169 0 0 1 1.397117,1.397117 z"
       id="path4597" />
    <path
       sodipodi:nodetypes="cc"
       inkscape:connector-curvature="0"
       id="path4623"
       d="m 97.160706,1017.0803 77.827394,0"
       style="fill:none;stroke:#000000;stroke-width:0.62500000000000000;stroke-linecap:butt;stroke-linejoin:miter;stroke-opacity:1;marker-end:url(#Arrow1Mend)" />
    <path
       sodipodi:nodetypes="csc"
       inkscape:connector-curvature="0"
       id="path4625"
       d="m 108.16837,989.95321 c 5.98909,16.20579 14.62043,54.25409 28.88857,54.25409 14.26814,0 27.30323,-41.5713 31.88313,-54.25409"
       style="fill:none;stroke:#000000;stroke-width:0.9375;stroke-linecap:butt;stroke-linejoin:miter;stroke-opacity:1" />
    <path
       transform="matrix(0.88927855,0,0,0.88927855,109.86521,940.59923)"
       style="fill:#ffffff;fill-opacity:1;stroke:#000000;stroke-width:0.7028169"
       d="m 19.908916,86.003464 a 1.3971169,1.3971169 0 0 1 -1.397117,1.397117 1.3971169,1.3971169 0 0 1 -1.397117,-1.397117 1.3971169,1.3971169 0 0 1 1.397117,-1.397117 1.3971169,1.3971169 0 0 1 1.397117,1.397117 z"
       id="path4627" />
    <path
       transform="matrix(0.88927855,0,0,0.88927855,148.61763,940.59923)"
       style="fill:#ffffff;fill-opacity:1;stroke:#000000;stroke-width:0.7028169"
       d="m 19.908916,86.003464 a 1.3971169,1.3971169 0 0 1 -1.397117,1.397117 1.3971169,1.3971169 0 0 1 -1.397117,-1.397117 1.3971169,1.3971169 0 0 1 1.397117,-1.397117 1.3971169,1.3971169 0 0 1 1.397117,1.397117 z"
       id="path4629" />
    <path
       style="fill:none;stroke:#000000;stroke-width:0.62500000000000000;stroke-linecap:butt;stroke-linejoin:miter;stroke-opacity:1;marker-end:url(#Arrow1Mend)"
       d="m 183.18763,1017.0803 77.22274,0"
       id="path4631"
       inkscape:connector-curvature="0"
       sodipodi:nodetypes="cc" />
    <path
       style="fill:none;stroke:#000000;stroke-width:0.9375;stroke-linecap:butt;stroke-linejoin:miter;stroke-opacity:1"
       d="m 184.42517,989.95321 c 5.98909,16.20579 14.62043,54.25409 28.88857,54.25409 14.26814,0 27.30323,-41.5713 31.88313,-54.25409"
       id="path4633"
       inkscape:connector-curvature="0"
       sodipodi:nodetypes="csc" />
    <path
       transform="matrix(0.88927855,0,0,0.88927855,177.03638,940.59923)"
       style="fill:#000000;fill-opacity:1;stroke:#000000;stroke-width:0.7028169"
       d="m 19.908916,86.003464 a 1.3971169,1.3971169 0 0 1 -1.397117,1.397117 1.3971169,1.3971169 0 0 1 -1.397117,-1.397117 1.3971169,1.3971169 0 0 1 1.397117,-1.397117 1.3971169,1.3971169 0 0 1 1.397117,1.397117 z"
       id="path4635" />
    <path
       transform="matrix(0.88927855,0,0,0.88927855,228.20413,940.59923)"
       style="fill:#ffffff;fill-opacity:1;stroke:#000000;stroke-width:0.7028169"
       d="m 19.908916,86.003464 a 1.3971169,1.3971169 0 0 1 -1.397117,1.397117 1.3971169,1.3971169 0 0 1 -1.397117,-1.397117 1.3971169,1.3971169 0 0 1 1.397117,-1.397117 1.3971169,1.3971169 0 0 1 1.397117,1.397117 z"
       id="path4637" />
    <path
       sodipodi:nodetypes="cc"
       inkscape:connector-curvature="0"
       id="path4639"
       d="m 268.17569,1017.3826 76.61808,0"
       style="fill:none;stroke:#000000;stroke-width:0.62500000000000000;stroke-linecap:butt;stroke-linejoin:miter;stroke-opacity:1;marker-end:url(#Arrow1Mend)" />
    <path
       sodipodi:nodetypes="csc"
       inkscape:connector-curvature="0"
       id="path4641"
       d="m 279.18336,990.25554 c 5.98909,16.20576 14.62043,54.25406 28.88857,54.25406 14.26814,0 27.30323,-41.5713 31.88313,-54.25406"
       style="fill:none;stroke:#000000;stroke-width:0.9375;stroke-linecap:butt;stroke-linejoin:miter;stroke-opacity:1" />
    <path
       transform="matrix(0.88927855,0,0,0.88927855,262.39215,940.90156)"
       style="fill:#ffffff;fill-opacity:1;stroke:#000000;stroke-width:0.7028169"
       d="m 19.908916,86.003464 a 1.3971169,1.3971169 0 0 1 -1.397117,1.397117 1.3971169,1.3971169 0 0 1 -1.397117,-1.397117 1.3971169,1.3971169 0 0 1 1.397117,-1.397117 1.3971169,1.3971169 0 0 1 1.397117,1.397117 z"
       id="path4643" />
    <path
       transform="matrix(0.88927855,0,0,0.88927855,313.43301,940.90156)"
       style="fill:#000000;fill-opacity:1;stroke:#000000;stroke-width:0.7028169"
       d="m 19.908916,86.003464 a 1.3971169,1.3971169 0 0 1 -1.397117,1.397117 1.3971169,1.3971169 0 0 1 -1.397117,-1.397117 1.3971169,1.3971169 0 0 1 1.397117,-1.397117 1.3971169,1.3971169 0 0 1 1.397117,1.397117 z"
       id="path4645" />
    <g
       aria-label="1"
       style="font-style:normal;font-variant:normal;font-weight:normal;font-stretch:normal;line-height:0%;font-family:'GOST type B';-inkscape-font-specification:'GOST type B';text-align:start;letter-spacing:0px;word-spacing:0px;text-anchor:start;fill:#000000;fill-opacity:1;stroke:none"
       id="text4671">
      <path
         d="m 23.172001,1029.7764 q 0,0.2256 -0.136719,0.3623 -0.129883,0.1162 -0.341797,0.1162 -0.191406,0 -0.334961,-0.1162 -0.143554,-0.1231 -0.143554,-0.3623 v -7.4649 l -1.100586,1.1006 q -0.143555,0.1436 -0.328125,0.1436 -0.170899,0 -0.334961,-0.1436 -0.150391,-0.1504 -0.150391,-0.3418 0,-0.1641 0.143555,-0.3281 l 1.914062,-1.9141 q 0.0957,-0.096 0.198243,-0.1504 0.102539,-0.061 0.225585,-0.061 0.116211,0 0.273438,0.1436 0.116211,0.1504 0.116211,0.4033 z"
         style="font-size:14px;line-height:1.25"
         id="path89" />
    </g>
    <g
       aria-label="3"
       style="font-style:normal;font-variant:normal;font-weight:normal;font-stretch:normal;line-height:0%;font-family:'GOST type B';-inkscape-font-specification:'GOST type B';text-align:start;letter-spacing:0px;word-spacing:0px;text-anchor:start;fill:#000000;fill-opacity:1;stroke:none"
       id="text4675">
      <path
         d="m 57.034748,1021.6108 h -1.914062 q -0.21875,0 -0.355469,-0.1367 -0.123047,-0.1435 -0.123047,-0.3418 0,-0.1709 0.123047,-0.3213 0.129883,-0.1572 0.355469,-0.1572 h 1.914062 q 1.121094,0 1.791016,0.7315 0.601562,0.6835 0.601562,1.6474 0,0.5811 -0.232422,1.0664 -0.225586,0.4854 -0.697265,0.875 0.396484,0.3145 0.663086,0.8203 0.266601,0.4991 0.266601,1.0733 v 0.957 q 0,0.9775 -0.704101,1.6885 -0.704102,0.7041 -1.688477,0.7041 h -1.914062 q -0.21875,0 -0.355469,-0.1299 -0.123047,-0.1572 -0.123047,-0.3486 0,-0.1641 0.116211,-0.3213 0.123047,-0.1572 0.362305,-0.1572 h 1.914062 q 0.594727,0 1.011719,-0.417 0.423828,-0.4239 0.423828,-1.0186 v -0.957 q 0,-0.5879 -0.416992,-1.0117 -0.410156,-0.4239 -1.018555,-0.4239 h -0.957031 q -0.21875,0 -0.355469,-0.1299 -0.123047,-0.1572 -0.123047,-0.3486 0,-0.164 0.116211,-0.3213 0.123047,-0.1572 0.362305,-0.1572 h 0.957031 q 0.635742,0 1.045899,-0.458 0.348632,-0.4102 0.348632,-1.0049 0,-0.581 -0.334961,-0.9639 -0.382812,-0.4375 -1.05957,-0.4375 z"
         style="font-size:14px;line-height:1.25"
         id="path92" />
    </g>
    <g
       aria-label="3"
       style="font-style:normal;font-variant:normal;font-weight:normal;font-stretch:normal;line-height:0%;font-family:'GOST type B';-inkscape-font-specification:'GOST type B';text-align:start;letter-spacing:0px;word-spacing:0px;text-anchor:start;fill:#000000;fill-opacity:1;stroke:none"
       id="text4679">
      <path
         d="m 165.42186,1021.6108 h -1.91406 q -0.21875,0 -0.35547,-0.1367 -0.12305,-0.1435 -0.12305,-0.3418 0,-0.1709 0.12305,-0.3213 0.12988,-0.1572 0.35547,-0.1572 h 1.91406 q 1.12109,0 1.79102,0.7315 0.60156,0.6835 0.60156,1.6474 0,0.5811 -0.23242,1.0664 -0.22559,0.4854 -0.69727,0.875 0.39648,0.3145 0.66309,0.8203 0.2666,0.4991 0.2666,1.0733 v 0.957 q 0,0.9775 -0.7041,1.6885 -0.70411,0.7041 -1.68848,0.7041 h -1.91406 q -0.21875,0 -0.35547,-0.1299 -0.12305,-0.1572 -0.12305,-0.3486 0,-0.1641 0.11621,-0.3213 0.12305,-0.1572 0.36231,-0.1572 h 1.91406 q 0.59473,0 1.01172,-0.417 0.42383,-0.4239 0.42383,-1.0186 v -0.957 q 0,-0.5879 -0.417,-1.0117 -0.41015,-0.4239 -1.01855,-0.4239 h -0.95703 q -0.21875,0 -0.35547,-0.1299 -0.12305,-0.1572 -0.12305,-0.3486 0,-0.164 0.11621,-0.3213 0.12305,-0.1572 0.36231,-0.1572 h 0.95703 q 0.63574,0 1.0459,-0.458 0.34863,-0.4102 0.34863,-1.0049 0,-0.581 -0.33496,-0.9639 -0.38281,-0.4375 -1.05957,-0.4375 z"
         style="font-size:14px;line-height:1.25"
         id="path95" />
    </g>
    <g
       aria-label="3"
       style="font-style:normal;font-variant:normal;font-weight:normal;font-stretch:normal;line-height:0%;font-family:'GOST type B';-inkscape-font-specification:'GOST type B';text-align:start;letter-spacing:0px;word-spacing:0px;text-anchor:start;fill:#000000;fill-opacity:1;stroke:none"
       id="text4683">
      <path
         d="m 244.91318,1021.6108 h -1.91407 q -0.21875,0 -0.35546,-0.1367 -0.12305,-0.1435 -0.12305,-0.3418 0,-0.1709 0.12305,-0.3213 0.12988,-0.1572 0.35546,-0.1572 h 1.91407 q 1.12109,0 1.79101,0.7315 0.60157,0.6835 0.60157,1.6474 0,0.5811 -0.23243,1.0664 -0.22558,0.4854 -0.69726,0.875 0.39648,0.3145 0.66308,0.8203 0.26661,0.4991 0.26661,1.0733 v 0.957 q 0,0.9775 -0.70411,1.6885 -0.7041,0.7041 -1.68847,0.7041 h -1.91407 q -0.21875,0 -0.35546,-0.1299 -0.12305,-0.1572 -0.12305,-0.3486 0,-0.1641 0.11621,-0.3213 0.12305,-0.1572 0.3623,-0.1572 h 1.91407 q 0.59472,0 1.01172,-0.417 0.42382,-0.4239 0.42382,-1.0186 v -0.957 q 0,-0.5879 -0.41699,-1.0117 -0.41015,-0.4239 -1.01855,-0.4239 h -0.95703 q -0.21875,0 -0.35547,-0.1299 -0.12305,-0.1572 -0.12305,-0.3486 0,-0.164 0.11621,-0.3213 0.12305,-0.1572 0.36231,-0.1572 h 0.95703 q 0.63574,0 1.0459,-0.458 0.34863,-0.4102 0.34863,-1.0049 0,-0.581 -0.33496,-0.9639 -0.38281,-0.4375 -1.05957,-0.4375 z"
         style="font-size:14px;line-height:1.25"
         id="path98" />
    </g>
    <g
       aria-label="3"
       style="font-style:normal;font-variant:normal;font-weight:normal;font-stretch:normal;line-height:0%;font-family:'GOST type B';-inkscape-font-specification:'GOST type B';text-align:start;letter-spacing:0px;word-spacing:0px;text-anchor:start;fill:#000000;fill-opacity:1;stroke:none"
       id="text4687">
      <path
         d="m 332.45471,1021.6108 h -1.91406 q -0.21875,0 -0.35547,-0.1367 -0.12305,-0.1435 -0.12305,-0.3418 0,-0.1709 0.12305,-0.3213 0.12988,-0.1572 0.35547,-0.1572 h 1.91406 q 1.1211,0 1.79102,0.7315 0.60156,0.6835 0.60156,1.6474 0,0.5811 -0.23242,1.0664 -0.22559,0.4854 -0.69727,0.875 0.39649,0.3145 0.66309,0.8203 0.2666,0.4991 0.2666,1.0733 v 0.957 q 0,0.9775 -0.7041,1.6885 -0.7041,0.7041 -1.68848,0.7041 h -1.91406 q -0.21875,0 -0.35547,-0.1299 -0.12305,-0.1572 -0.12305,-0.3486 0,-0.1641 0.11621,-0.3213 0.12305,-0.1572 0.36231,-0.1572 h 1.91406 q 0.59473,0 1.01172,-0.417 0.42383,-0.4239 0.42383,-1.0186 v -0.957 q 0,-0.5879 -0.41699,-1.0117 -0.41016,-0.4239 -1.01856,-0.4239 h -0.95703 q -0.21875,0 -0.35547,-0.1299 -0.12304,-0.1572 -0.12304,-0.3486 0,-0.164 0.11621,-0.3213 0.12304,-0.1572 0.3623,-0.1572 h 0.95703 q 0.63574,0 1.0459,-0.458 0.34863,-0.4102 0.34863,-1.0049 0,-0.581 -0.33496,-0.9639 -0.38281,-0.4375 -1.05957,-0.4375 z"
         style="font-size:14px;line-height:1.25"
         id="path101" />
    </g>
    <g
       aria-label="1"
       style="font-style:normal;font-variant:normal;font-weight:normal;font-stretch:normal;line-height:0%;font-family:'GOST type B';-inkscape-font-specification:'GOST type B';text-align:start;letter-spacing:0px;word-spacing:0px;text-anchor:start;fill:#000000;fill-opacity:1;stroke:none"
       id="text4691">
      <path
         d="m 127.87457,1029.7764 q 0,0.2256 -0.13672,0.3623 -0.12988,0.1162 -0.34179,0.1162 -0.19141,0 -0.33496,-0.1162 -0.14356,-0.1231 -0.14356,-0.3623 v -7.4649 l -1.10058,1.1006 q -0.14356,0.1436 -0.32813,0.1436 -0.1709,0 -0.33496,-0.1436 -0.15039,-0.1504 -0.15039,-0.3418 0,-0.1641 0.14355,-0.3281 l 1.91407,-1.9141 q 0.0957,-0.096 0.19824,-0.1504 0.10254,-0.061 0.22558,-0.061 0.11622,0 0.27344,0.1436 0.11621,0.1504 0.11621,0.4033 z"
         style="font-size:14px;line-height:1.25"
         id="path104" />
    </g>
    <g
       aria-label="1"
       style="font-style:normal;font-variant:normal;font-weight:normal;font-stretch:normal;line-height:0%;font-family:'GOST type B';-inkscape-font-specification:'GOST type B';text-align:start;letter-spacing:0px;word-spacing:0px;text-anchor:start;fill:#000000;fill-opacity:1;stroke:none"
       id="text4695">
      <path
         d="m 192.93364,1029.7764 q 0,0.2256 -0.13672,0.3623 -0.12988,0.1162 -0.3418,0.1162 -0.1914,0 -0.33496,-0.1162 -0.14355,-0.1231 -0.14355,-0.3623 v -7.4649 l -1.10059,1.1006 q -0.14355,0.1436 -0.32812,0.1436 -0.1709,0 -0.33496,-0.1436 -0.15039,-0.1504 -0.15039,-0.3418 0,-0.1641 0.14355,-0.3281 l 1.91406,-1.9141 q 0.0957,-0.096 0.19825,-0.1504 0.10253,-0.061 0.22558,-0.061 0.11621,0 0.27344,0.1436 0.11621,0.1504 0.11621,0.4033 z"
         style="font-size:14px;line-height:1.25"
         id="path107" />
    </g>
    <g
       aria-label="1"
       style="font-style:normal;font-variant:normal;font-weight:normal;font-stretch:normal;line-height:0%;font-family:'GOST type B';-inkscape-font-specification:'GOST type B';text-align:start;letter-spacing:0px;word-spacing:0px;text-anchor:start;fill:#000000;fill-opacity:1;stroke:none"
       id="text4699">
      <path
         d="m 279.42685,1029.7764 q 0,0.2256 -0.13672,0.3623 -0.12988,0.1162 -0.3418,0.1162 -0.1914,0 -0.33496,-0.1162 -0.14355,-0.1231 -0.14355,-0.3623 v -7.4649 l -1.10059,1.1006 q -0.14355,0.1436 -0.32812,0.1436 -0.1709,0 -0.33496,-0.1436 -0.15039,-0.1504 -0.15039,-0.3418 0,-0.1641 0.14355,-0.3281 l 1.91406,-1.9141 q 0.0957,-0.096 0.19824,-0.1504 0.10254,-0.061 0.22559,-0.061 0.11621,0 0.27344,0.1436 0.11621,0.1504 0.11621,0.4033 z"
         style="font-size:14px;line-height:1.25"
         id="path110" />
    </g>
    <g
       aria-label="x1"
       style="font-style:italic;font-variant:normal;font-weight:normal;font-stretch:normal;line-height:0%;font-family:'GOST type B';-inkscape-font-specification:'Sans Italic';text-align:start;letter-spacing:0px;word-spacing:0px;text-anchor:start;fill:#000000;fill-opacity:1;stroke:none"
       id="text4703">
      <path
         d="m 34.691061,1009.4037 1.216797,2.6045 0.04102,0.1435 -0.01367,0.1299 q -0.04102,0.1846 -0.21875,0.335 l -0.08887,0.062 -0.109375,0.048 -0.18457,0.027 q -0.198242,0 -0.341797,-0.2119 l -1.052734,-2.2695 -1.96875,2.2695 q -0.18457,0.2187 -0.4375,0.2187 -0.150391,0 -0.307617,-0.1435 -0.129883,-0.1436 -0.08887,-0.3418 0.02734,-0.1231 0.136718,-0.2666 l 2.25586,-2.6045 -1.216797,-2.6045 -0.04102,-0.1436 0.01367,-0.1298 q 0.04102,-0.1846 0.211914,-0.3282 0.170899,-0.1435 0.389649,-0.1435 0.198242,0 0.341796,0.2119 l 1.052735,2.2695 1.96875,-2.2695 q 0.18457,-0.2188 0.4375,-0.2188 0.143554,0 0.314453,0.1436 0.123047,0.1504 0.08203,0.3418 -0.02734,0.123 -0.136719,0.2666 z"
         style="font-size:14px;line-height:1.25"
         id="path113" />
      <path
         d="m 39.27801,1015.2423 q 0,0.1466 -0.08887,0.2355 -0.08442,0.076 -0.222171,0.076 -0.124416,0 -0.217728,-0.076 -0.09331,-0.08 -0.09331,-0.2355 v -4.8523 l -0.715391,0.7154 q -0.09331,0.093 -0.213284,0.093 -0.111086,0 -0.217728,-0.093 -0.09776,-0.098 -0.09776,-0.2221 0,-0.1067 0.09331,-0.2133 l 1.244158,-1.2442 q 0.06221,-0.062 0.128859,-0.098 0.06665,-0.04 0.146633,-0.04 0.07554,0 0.177737,0.093 0.07554,0.098 0.07554,0.2621 z"
         style="font-style:normal;font-size:65.00091553%;-inkscape-font-specification:'GOST type B';baseline-shift:sub"
         id="path115" />
    </g>
    <g
       aria-label="x2"
       style="font-style:italic;font-variant:normal;font-weight:normal;font-stretch:normal;line-height:0%;font-family:'GOST type B';-inkscape-font-specification:'Sans Italic';text-align:start;letter-spacing:0px;word-spacing:0px;text-anchor:start;fill:#000000;fill-opacity:1;stroke:none"
       id="text4709">
      <path
         d="m 75.52813,1022.6067 1.216796,2.6045 0.04102,0.1435 -0.01367,0.1299 q -0.04102,0.1846 -0.21875,0.335 l -0.08887,0.062 -0.109375,0.048 -0.18457,0.027 q -0.198242,0 -0.341797,-0.2119 l -1.052735,-2.2695 -1.96875,2.2695 q -0.18457,0.2187 -0.4375,0.2187 -0.15039,0 -0.307617,-0.1435 -0.129883,-0.1436 -0.08887,-0.3418 0.02734,-0.1231 0.136719,-0.2666 l 2.255859,-2.6045 -1.216797,-2.6045 -0.04102,-0.1436 0.01367,-0.1298 q 0.04102,-0.1846 0.211914,-0.3282 0.170898,-0.1435 0.389648,-0.1435 0.198242,0 0.341797,0.2119 l 1.052734,2.2695 1.96875,-2.2695 q 0.184571,-0.2188 0.4375,-0.2188 0.143555,0 0.314453,0.1436 0.123047,0.1504 0.08203,0.3418 -0.02734,0.123 -0.136719,0.2666 z"
         style="font-size:14px;line-height:1.25"
         id="path118" />
      <path
         d="m 81.128179,1024.9305 -2.008427,3.2037 h 1.928445 q 0.12886,0 0.217728,0.098 0.09331,0.093 0.09331,0.2133 0,0.1066 -0.07998,0.2088 -0.07554,0.1022 -0.231058,0.1022 h -2.488316 q -0.3377,0 -0.3377,-0.2488 0,-0.098 0.07554,-0.2311 l 2.297249,-3.6614 q 0.115529,-0.2444 0.115529,-0.4665 0,-0.3999 -0.311039,-0.6932 -0.146633,-0.1377 -0.342144,-0.2177 -0.19551,-0.08 -0.422125,-0.08 -0.235501,0 -0.453229,0.1244 -0.217728,0.1377 -0.359917,0.3555 -0.03555,0.058 -0.119972,0.1111 l -0.137747,0.031 q -0.119972,0 -0.222171,-0.085 -0.09775,-0.089 -0.09775,-0.2177 0,-0.062 0.05332,-0.1777 0.213284,-0.3333 0.577645,-0.5466 0.177737,-0.1022 0.359917,-0.1599 0.18218,-0.058 0.355474,-0.058 0.728721,0 1.230828,0.4843 0.50655,0.4799 0.50655,1.1464 0,0.3822 -0.199954,0.7643 z"
         style="font-style:normal;font-size:65.00091553%;-inkscape-font-specification:'GOST type B';baseline-shift:sub"
         id="path120" />
    </g>
    <path
       transform="matrix(0.88927855,0,0,0.88927855,13.053701,939.99624)"
       style="fill:#000000;fill-opacity:1;stroke:#000000;stroke-width:0.7028169"
       d="m 19.908916,86.003464 a 1.3971169,1.3971169 0 0 1 -1.397117,1.397117 1.3971169,1.3971169 0 0 1 -1.397117,-1.397117 1.3971169,1.3971169 0 0 1 1.397117,-1.397117 1.3971169,1.3971169 0 0 1 1.397117,1.397117 z"
       id="path4719" />
    <path
       transform="matrix(0.88927855,0,0,0.88927855,54.631045,939.99624)"
       style="fill:#000000;fill-opacity:1;stroke:#000000;stroke-width:0.7028169"
       d="m 19.908916,86.003464 a 1.3971169,1.3971169 0 0 1 -1.397117,1.397117 1.3971169,1.3971169 0 0 1 -1.397117,-1.397117 1.3971169,1.3971169 0 0 1 1.397117,-1.397117 1.3971169,1.3971169 0 0 1 1.397117,1.397117 z"
       id="path4721" />
    <path
       transform="matrix(0.88927855,0,0,0.88927855,100.76778,940.53903)"
       style="fill:#000000;fill-opacity:1;stroke:#000000;stroke-width:0.7028169"
       d="m 19.908916,86.003464 a 1.3971169,1.3971169 0 0 1 -1.397117,1.397117 1.3971169,1.3971169 0 0 1 -1.397117,-1.397117 1.3971169,1.3971169 0 0 1 1.397117,-1.397117 1.3971169,1.3971169 0 0 1 1.397117,1.397117 z"
       id="path4723" />
    <path
       transform="matrix(0.88927855,0,0,0.88927855,142.23657,940.53903)"
       style="fill:#000000;fill-opacity:1;stroke:#000000;stroke-width:0.7028169"
       d="m 19.908916,86.003464 a 1.3971169,1.3971169 0 0 1 -1.397117,1.397117 1.3971169,1.3971169 0 0 1 -1.397117,-1.397117 1.3971169,1.3971169 0 0 1 1.397117,-1.397117 1.3971169,1.3971169 0 0 1 1.397117,1.397117 z"
       id="path4725" />
    <path
       transform="matrix(0.88927855,0,0,0.88927855,218.55216,940.53903)"
       style="fill:#000000;fill-opacity:1;stroke:#000000;stroke-width:0.7028169"
       d="m 19.908916,86.003464 a 1.3971169,1.3971169 0 0 1 -1.397117,1.397117 1.3971169,1.3971169 0 0 1 -1.397117,-1.397117 1.3971169,1.3971169 0 0 1 1.397117,-1.397117 1.3971169,1.3971169 0 0 1 1.397117,1.397117 z"
       id="path4727" />
    <path
       transform="matrix(0.88927855,0,0,0.88927855,271.74511,940.97326)"
       style="fill:#000000;fill-opacity:1;stroke:#000000;stroke-width:0.7028169"
       d="m 19.908916,86.003464 a 1.3971169,1.3971169 0 0 1 -1.397117,1.397117 1.3971169,1.3971169 0 0 1 -1.397117,-1.397117 1.3971169,1.3971169 0 0 1 1.397117,-1.397117 1.3971169,1.3971169 0 0 1 1.397117,1.397117 z"
       id="path4733" />
    <g
       aria-label="x1"
       style="font-style:italic;font-variant:normal;font-weight:normal;font-stretch:normal;line-height:0%;font-family:'GOST type B';-inkscape-font-specification:'Sans Italic';text-align:start;letter-spacing:0px;word-spacing:0px;text-anchor:start;fill:#000000;fill-opacity:1;stroke:none"
       id="text4741">
      <path
         d="m 107.15384,1009.4037 1.2168,2.6045 0.041,0.1435 -0.0137,0.1299 q -0.041,0.1846 -0.21875,0.335 l -0.0889,0.062 -0.10937,0.048 -0.18457,0.027 q -0.19824,0 -0.3418,-0.2119 l -1.05273,-2.2695 -1.96875,2.2695 q -0.18457,0.2187 -0.4375,0.2187 -0.15039,0 -0.30762,-0.1435 -0.12988,-0.1436 -0.0889,-0.3418 0.0273,-0.1231 0.13672,-0.2666 l 2.25586,-2.6045 -1.2168,-2.6045 -0.041,-0.1436 0.0137,-0.1298 q 0.041,-0.1846 0.21191,-0.3282 0.1709,-0.1435 0.38965,-0.1435 0.19824,0 0.3418,0.2119 l 1.05273,2.2695 1.96875,-2.2695 q 0.18457,-0.2188 0.4375,-0.2188 0.14356,0 0.31446,0.1436 0.12304,0.1504 0.082,0.3418 -0.0273,0.123 -0.13672,0.2666 z"
         style="font-size:14px;line-height:1.25"
         id="path129" />
      <path
         d="m 111.74079,1015.2423 q 0,0.1466 -0.0889,0.2355 -0.0844,0.076 -0.22217,0.076 -0.12442,0 -0.21773,-0.076 -0.0933,-0.08 -0.0933,-0.2355 v -4.8523 l -0.71539,0.7154 q -0.0933,0.093 -0.21329,0.093 -0.11108,0 -0.21772,-0.093 -0.0978,-0.098 -0.0978,-0.2221 0,-0.1067 0.0933,-0.2133 l 1.24416,-1.2442 q 0.0622,-0.062 0.12886,-0.098 0.0666,-0.04 0.14663,-0.04 0.0755,0 0.17774,0.093 0.0755,0.098 0.0755,0.2621 z"
         style="font-style:normal;font-size:65.00091553%;-inkscape-font-specification:'GOST type B';baseline-shift:sub"
         id="path131" />
    </g>
    <g
       aria-label="x2"
       style="font-style:italic;font-variant:normal;font-weight:normal;font-stretch:normal;line-height:0%;font-family:'GOST type B';-inkscape-font-specification:'Sans Italic';text-align:start;letter-spacing:0px;word-spacing:0px;text-anchor:start;fill:#000000;fill-opacity:1;stroke:none"
       id="text4747">
      <path
         d="m 149.21909,1009.4037 1.21679,2.6045 0.041,0.1435 -0.0137,0.1299 q -0.041,0.1846 -0.21875,0.335 l -0.0889,0.062 -0.10938,0.048 -0.18457,0.027 q -0.19824,0 -0.34179,-0.2119 l -1.05274,-2.2695 -1.96875,2.2695 q -0.18457,0.2187 -0.4375,0.2187 -0.15039,0 -0.30761,-0.1435 -0.12989,-0.1436 -0.0889,-0.3418 0.0273,-0.1231 0.13672,-0.2666 l 2.25586,-2.6045 -1.2168,-2.6045 -0.041,-0.1436 0.0137,-0.1298 q 0.041,-0.1846 0.21191,-0.3282 0.1709,-0.1435 0.38965,-0.1435 0.19824,0 0.3418,0.2119 l 1.05273,2.2695 1.96875,-2.2695 q 0.18457,-0.2188 0.4375,-0.2188 0.14355,0 0.31445,0.1436 0.12305,0.1504 0.082,0.3418 -0.0273,0.123 -0.13671,0.2666 z"
         style="font-size:14px;line-height:1.25"
         id="path134" />
      <path
         d="m 154.81914,1011.7275 -2.00843,3.2037 h 1.92844 q 0.12886,0 0.21773,0.098 0.0933,0.093 0.0933,0.2133 0,0.1066 -0.08,0.2088 -0.0755,0.1022 -0.23106,0.1022 h -2.48831 q -0.3377,0 -0.3377,-0.2488 0,-0.098 0.0755,-0.2311 l 2.29724,-3.6614 q 0.11553,-0.2444 0.11553,-0.4665 0,-0.3999 -0.31104,-0.6932 -0.14663,-0.1378 -0.34214,-0.2177 -0.19551,-0.08 -0.42212,-0.08 -0.23551,0 -0.45323,0.1244 -0.21773,0.1377 -0.35992,0.3555 -0.0356,0.058 -0.11997,0.1111 l -0.13775,0.031 q -0.11997,0 -0.22217,-0.084 -0.0978,-0.089 -0.0978,-0.2177 0,-0.062 0.0533,-0.1777 0.21328,-0.3333 0.57764,-0.5466 0.17774,-0.1022 0.35992,-0.1599 0.18218,-0.058 0.35547,-0.058 0.72872,0 1.23083,0.4843 0.50655,0.4799 0.50655,1.1464 0,0.3822 -0.19995,0.7643 z"
         style="font-style:normal;font-size:65.00091553%;-inkscape-font-specification:'GOST type B';baseline-shift:sub"
         id="path136" />
    </g>
    <g
       aria-label="x1"
       style="font-style:italic;font-variant:normal;font-weight:normal;font-stretch:normal;line-height:0%;font-family:'GOST type B';-inkscape-font-specification:'Sans Italic';text-align:start;letter-spacing:0px;word-spacing:0px;text-anchor:start;fill:#000000;fill-opacity:1;stroke:none"
       id="text4753">
      <path
         d="m 199.32286,1009.6734 1.2168,2.6045 0.041,0.1435 -0.0137,0.1299 q -0.041,0.1846 -0.21875,0.335 l -0.0889,0.062 -0.10937,0.048 -0.18457,0.027 q -0.19824,0 -0.3418,-0.2119 l -1.05273,-2.2695 -1.96875,2.2695 q -0.18457,0.2187 -0.4375,0.2187 -0.15039,0 -0.30762,-0.1435 -0.12988,-0.1436 -0.0889,-0.3418 0.0274,-0.1231 0.13672,-0.2666 l 2.25586,-2.6045 -1.2168,-2.6045 -0.041,-0.1435 0.0137,-0.1299 q 0.041,-0.1846 0.21191,-0.3282 0.1709,-0.1435 0.38965,-0.1435 0.19825,0 0.3418,0.2119 l 1.05273,2.2695 1.96875,-2.2695 q 0.18457,-0.2187 0.4375,-0.2187 0.14356,0 0.31446,0.1435 0.12304,0.1504 0.082,0.3418 -0.0273,0.1231 -0.13672,0.2666 z"
         style="font-size:14px;line-height:1.25"
         id="path139" />
      <path
         d="m 203.90981,1015.512 q 0,0.1466 -0.0889,0.2355 -0.0844,0.076 -0.22217,0.076 -0.12442,0 -0.21773,-0.076 -0.0933,-0.08 -0.0933,-0.2355 v -4.8522 l -0.71539,0.7153 q -0.0933,0.093 -0.21328,0.093 -0.11109,0 -0.21773,-0.093 -0.0978,-0.098 -0.0978,-0.2221 0,-0.1067 0.0933,-0.2133 l 1.24416,-1.2442 q 0.0622,-0.062 0.12886,-0.098 0.0667,-0.04 0.14663,-0.04 0.0755,0 0.17774,0.093 0.0755,0.098 0.0755,0.2622 z"
         style="font-style:normal;font-size:65.00091553%;-inkscape-font-specification:'GOST type B';baseline-shift:sub"
         id="path141" />
    </g>
    <g
       aria-label="x2"
       style="font-style:italic;font-variant:normal;font-weight:normal;font-stretch:normal;line-height:0%;font-family:'GOST type B';-inkscape-font-specification:'Sans Italic';text-align:start;letter-spacing:0px;word-spacing:0px;text-anchor:start;fill:#000000;fill-opacity:1;stroke:none"
       id="text4759">
      <path
         d="m 226.12201,1009.5798 1.2168,2.6045 0.041,0.1435 -0.0137,0.1299 q -0.041,0.1846 -0.21875,0.335 l -0.0889,0.062 -0.10937,0.048 -0.18457,0.027 q -0.19824,0 -0.3418,-0.2119 l -1.05273,-2.2696 -1.96875,2.2696 q -0.18457,0.2187 -0.4375,0.2187 -0.15039,0 -0.30762,-0.1435 -0.12988,-0.1436 -0.0889,-0.3418 0.0274,-0.1231 0.13672,-0.2666 l 2.25586,-2.6045 -1.2168,-2.6045 -0.041,-0.1436 0.0137,-0.1299 q 0.041,-0.1845 0.21191,-0.3281 0.1709,-0.1435 0.38965,-0.1435 0.19824,0 0.3418,0.2119 l 1.05273,2.2695 1.96875,-2.2695 q 0.18457,-0.2188 0.4375,-0.2188 0.14356,0 0.31446,0.1436 0.12304,0.1504 0.082,0.3418 -0.0273,0.123 -0.13672,0.2666 z"
         style="font-size:14px;line-height:1.25"
         id="path144" />
      <path
         d="m 231.72206,1011.9036 -2.00843,3.2037 h 1.92845 q 0.12886,0 0.21772,0.098 0.0933,0.093 0.0933,0.2132 0,0.1067 -0.08,0.2089 -0.0755,0.1022 -0.23105,0.1022 h -2.48832 q -0.3377,0 -0.3377,-0.2488 0,-0.098 0.0755,-0.2311 l 2.29725,-3.6614 q 0.11553,-0.2444 0.11553,-0.4665 0,-0.4 -0.31104,-0.6932 -0.14664,-0.1378 -0.34215,-0.2177 -0.19551,-0.08 -0.42212,-0.08 -0.2355,0 -0.45323,0.1244 -0.21773,0.1377 -0.35992,0.3555 -0.0355,0.058 -0.11997,0.111 l -0.13775,0.031 q -0.11997,0 -0.22217,-0.084 -0.0977,-0.089 -0.0977,-0.2177 0,-0.062 0.0533,-0.1777 0.21328,-0.3333 0.57764,-0.5466 0.17774,-0.1022 0.35992,-0.1599 0.18218,-0.058 0.35547,-0.058 0.72873,0 1.23083,0.4843 0.50655,0.4799 0.50655,1.1464 0,0.3822 -0.19995,0.7643 z"
         style="font-style:normal;font-size:65.00091553%;-inkscape-font-specification:'GOST type B';baseline-shift:sub"
         id="path146" />
    </g>
    <g
       aria-label="x1"
       style="font-style:italic;font-variant:normal;font-weight:normal;font-stretch:normal;line-height:0%;font-family:'GOST type B';-inkscape-font-specification:'Sans Italic';text-align:start;letter-spacing:0px;word-spacing:0px;text-anchor:start;fill:#000000;fill-opacity:1;stroke:none"
       id="text4765">
      <path
         d="m 293.93127,1010.6654 1.2168,2.6045 0.041,0.1436 -0.0137,0.1298 q -0.041,0.1846 -0.21875,0.335 l -0.0889,0.062 -0.10938,0.048 -0.18457,0.027 q -0.19824,0 -0.34179,-0.2119 l -1.05274,-2.2695 -1.96875,2.2695 q -0.18457,0.2188 -0.4375,0.2188 -0.15039,0 -0.30762,-0.1436 -0.12988,-0.1436 -0.0889,-0.3418 0.0273,-0.123 0.13672,-0.2666 l 2.25586,-2.6045 -1.2168,-2.6045 -0.041,-0.1435 0.0137,-0.1299 q 0.041,-0.1846 0.21192,-0.3281 0.1709,-0.1436 0.38965,-0.1436 0.19824,0 0.34179,0.2119 l 1.05274,2.2695 1.96875,-2.2695 q 0.18457,-0.2187 0.4375,-0.2187 0.14355,0 0.31445,0.1435 0.12305,0.1504 0.082,0.3418 -0.0273,0.1231 -0.13672,0.2666 z"
         style="font-size:14px;line-height:1.25"
         id="path149" />
      <path
         d="m 298.51822,1016.504 q 0,0.1466 -0.0889,0.2355 -0.0844,0.076 -0.22218,0.076 -0.12441,0 -0.21772,-0.076 -0.0933,-0.08 -0.0933,-0.2355 v -4.8522 l -0.71539,0.7153 q -0.0933,0.093 -0.21328,0.093 -0.11109,0 -0.21773,-0.093 -0.0977,-0.098 -0.0977,-0.2221 0,-0.1067 0.0933,-0.2133 l 1.24416,-1.2442 q 0.0622,-0.062 0.12886,-0.098 0.0667,-0.04 0.14663,-0.04 0.0755,0 0.17774,0.093 0.0755,0.098 0.0755,0.2622 z"
         style="font-style:normal;font-size:65.00091553%;-inkscape-font-specification:'GOST type B';baseline-shift:sub"
         id="path151" />
    </g>
    <g
       aria-label="x2"
       style="font-style:italic;font-variant:normal;font-weight:normal;font-stretch:normal;line-height:0%;font-family:'GOST type B';-inkscape-font-specification:'Sans Italic';text-align:start;letter-spacing:0px;word-spacing:0px;text-anchor:start;fill:#000000;fill-opacity:1;stroke:none"
       id="text4771">
      <path
         d="m 320.8576,1009.4037 1.2168,2.6045 0.041,0.1435 -0.0137,0.1299 q -0.041,0.1846 -0.21875,0.335 l -0.0889,0.062 -0.10938,0.048 -0.18457,0.027 q -0.19824,0 -0.34179,-0.2119 l -1.05274,-2.2695 -1.96875,2.2695 q -0.18457,0.2187 -0.4375,0.2187 -0.15039,0 -0.30762,-0.1435 -0.12988,-0.1436 -0.0889,-0.3418 0.0273,-0.1231 0.13672,-0.2666 l 2.25586,-2.6045 -1.2168,-2.6045 -0.041,-0.1436 0.0137,-0.1298 q 0.041,-0.1846 0.21192,-0.3282 0.1709,-0.1435 0.38965,-0.1435 0.19824,0 0.34179,0.2119 l 1.05274,2.2695 1.96875,-2.2695 q 0.18457,-0.2188 0.4375,-0.2188 0.14355,0 0.31445,0.1436 0.12305,0.1504 0.082,0.3418 -0.0273,0.123 -0.13672,0.2666 z"
         style="font-size:14px;line-height:1.25"
         id="path154" />
      <path
         d="m 326.45765,1011.7275 -2.00842,3.2037 h 1.92844 q 0.12886,0 0.21773,0.098 0.0933,0.093 0.0933,0.2133 0,0.1066 -0.08,0.2088 -0.0755,0.1022 -0.23106,0.1022 h -2.48831 q -0.3377,0 -0.3377,-0.2488 0,-0.098 0.0755,-0.2311 l 2.29725,-3.6614 q 0.11553,-0.2444 0.11553,-0.4665 0,-0.3999 -0.31104,-0.6932 -0.14663,-0.1378 -0.34214,-0.2177 -0.19551,-0.08 -0.42213,-0.08 -0.2355,0 -0.45322,0.1244 -0.21773,0.1377 -0.35992,0.3555 -0.0356,0.058 -0.11997,0.1111 l -0.13775,0.031 q -0.11997,0 -0.22217,-0.084 -0.0978,-0.089 -0.0978,-0.2177 0,-0.062 0.0533,-0.1777 0.21329,-0.3333 0.57765,-0.5466 0.17774,-0.1022 0.35992,-0.1599 0.18218,-0.058 0.35547,-0.058 0.72872,0 1.23083,0.4843 0.50655,0.4799 0.50655,1.1464 0,0.3822 -0.19996,0.7643 z"
         style="font-style:normal;font-size:65.00091553%;-inkscape-font-specification:'GOST type B';baseline-shift:sub"
         id="path156" />
    </g>
    <g
       aria-label="а"
       transform="translate(0,981.49601)"
       style="font-style:italic;font-variant:normal;font-weight:normal;font-stretch:normal;line-height:0%;font-family:'GOST type B';-inkscape-font-specification:'Sans Italic';text-align:start;letter-spacing:0px;word-spacing:0px;text-anchor:start;fill:#000000;fill-opacity:1;stroke:none"
       id="text4777">
      <path
         d="m 54.602322,10.92045 0.765625,-3.8281248 h -1.914063 q -0.40332,0 -0.738281,0.2734375 -0.164063,0.1367188 -0.266602,0.3144531 -0.102539,0.1708985 -0.143554,0.3691407 L 51.731228,10.92045 q -0.08203,0.403321 0.136719,0.683594 0.116211,0.123047 0.266601,0.205078 0.191406,0.06836 0.362305,0.06836 h 0.957031 q 0.396484,0 0.731445,-0.266601 0.334961,-0.266602 0.416993,-0.69043 z m 0.211914,1.285156 q -0.280274,0.266602 -0.717774,0.451172 -0.4375,0.177735 -0.833984,0.177735 h -0.957031 q -0.772461,0 -1.237305,-0.553711 -0.458008,-0.553711 -0.293945,-1.360352 L 51.348415,8.0493565 Q 51.505642,7.2563877 52.175564,6.6958408 52.852322,6.135294 53.64529,6.135294 h 2.392578 q 0.478516,0 0.382813,0.4785156 l -0.861328,4.2998044 q -0.05469,0.28711 0.06836,0.587891 0.109375,0.266601 0.396485,0.416992 0.273437,0.123047 0.211914,0.430664 -0.04102,0.211914 -0.205078,0.348633 -0.150391,0.143555 -0.369141,0.143555 -0.102539,0 -0.191406,-0.04785 -0.430664,-0.18457 -0.65625,-0.587891 z"
         style="font-size:14px;line-height:1.25"
         id="path159" />
    </g>
    <g
       aria-label="б"
       style="font-style:italic;font-variant:normal;font-weight:normal;font-stretch:normal;line-height:0%;font-family:'GOST type B';-inkscape-font-specification:'Sans Italic';text-align:start;letter-spacing:0px;word-spacing:0px;text-anchor:start;fill:#000000;fill-opacity:1;stroke:none"
       id="text4781">
      <path
         d="m 143.95261,992.42328 0.57421,-2.87109 q 0.082,-0.40333 -0.13671,-0.67676 -0.21192,-0.28028 -0.62891,-0.28028 h -0.95703 q -0.40332,0 -0.73828,0.27344 -0.16407,0.13672 -0.2666,0.31445 -0.10254,0.1709 -0.14356,0.36915 l -0.57422,2.87109 q -0.082,0.40332 0.13672,0.68359 0.11621,0.12305 0.2666,0.20508 0.19141,0.0684 0.36231,0.0684 h 0.95703 q 0.39648,0 0.73144,-0.2666 0.33496,-0.2666 0.417,-0.69043 z m -0.58106,-4.78516 -1.73633,-2.04394 q -0.13672,-0.19141 -0.0889,-0.40332 0.0273,-0.14356 0.17773,-0.28028 0.15039,-0.14355 0.41016,-0.14355 h 3.82812 q 0.19824,0 0.30762,0.15039 0.10937,0.14355 0.0752,0.32812 -0.0342,0.16407 -0.18457,0.32129 -0.15039,0.15723 -0.38964,0.15723 h -2.63184 l 2.05078,2.41992 0.0889,0.15723 q 0.34863,0.54004 0.20508,1.25098 l -0.57422,2.87109 q -0.15723,0.78613 -0.83399,1.35351 -0.66992,0.56055 -1.46289,0.56055 h -0.95703 q -0.77246,0 -1.2373,-0.55371 -0.45801,-0.55371 -0.29395,-1.36035 l 0.57422,-2.87109 q 0.15723,-0.79297 0.82715,-1.35352 0.67676,-0.56055 1.46972,-0.56055 z"
         style="font-size:14px;line-height:1.25"
         id="path162" />
    </g>
    <g
       aria-label="в"
       style="font-style:italic;font-variant:normal;font-weight:normal;font-stretch:normal;line-height:0%;font-family:'GOST type B';-inkscape-font-specification:'Sans Italic';text-align:start;letter-spacing:0px;word-spacing:0px;text-anchor:start;fill:#000000;fill-opacity:1;stroke:none"
       id="text4785">
      <path
         d="m 220.06532,992.42328 0.57422,-2.87109 q 0.082,-0.40333 -0.13672,-0.67676 -0.21191,-0.28028 -0.6289,-0.28028 h -0.95703 q -0.40332,0 -0.73829,0.27344 -0.16406,0.13672 -0.2666,0.31445 -0.10254,0.1709 -0.14355,0.36915 l -0.57422,2.87109 q -0.082,0.40332 0.13672,0.68359 0.11621,0.12305 0.2666,0.20508 0.19141,0.0684 0.3623,0.0684 h 0.95704 q 0.39648,0 0.73144,-0.2666 0.33496,-0.2666 0.41699,-0.69043 z m -1.98242,-4.4502 0.44434,-0.25976 0.64258,-0.39649 q 0.32128,-0.21191 0.46484,-0.35547 0.22558,-0.22558 0.28027,-0.47167 0.0615,-0.32813 -0.12304,-0.55372 -0.19141,-0.19824 -0.49219,-0.19824 -0.31446,0 -0.58106,0.19824 -0.2666,0.18457 -0.33496,0.55372 z m 1.97559,-0.30761 q 0.91601,0 1.32617,0.54687 0.37598,0.51953 0.21191,1.33985 l -0.57422,2.87109 q -0.15722,0.78613 -0.83398,1.35351 -0.66992,0.56055 -1.46289,0.56055 h -0.95703 q -0.77246,0 -1.23731,-0.55371 -0.458,-0.55371 -0.29394,-1.36035 l 1.18945,-5.93359 q 0.15723,-0.79981 0.78613,-1.292 0.58789,-0.4375 1.28516,-0.4375 0.66309,0 1.10059,0.45117 0.4375,0.45118 0.27343,1.27149 -0.0957,0.46484 -0.28027,0.69726 -0.16406,0.23926 -0.5332,0.48536 z"
         style="font-size:14px;line-height:1.25"
         id="path165" />
    </g>
    <g
       aria-label="г"
       style="font-style:italic;font-variant:normal;font-weight:normal;font-stretch:normal;line-height:0%;font-family:'GOST type B';-inkscape-font-specification:'Sans Italic';text-align:start;letter-spacing:0px;word-spacing:0px;text-anchor:start;fill:#000000;fill-opacity:1;stroke:none"
       id="text4789">
      <path
         d="m 312.93765,993.89301 q -0.41015,0.19824 -1.02539,0.34179 l -0.52637,0.0752 -0.56738,0.0273 -0.66308,-0.0273 -0.56055,-0.082 q -0.51953,-0.082 -0.7793,-0.49219 -0.25293,-0.41699 -0.15039,-0.94336 0.0615,-0.30078 0.23926,-0.60156 0.18457,-0.30078 0.51269,-0.54004 l 3.4795,-2.09863 q 0.16406,-0.12305 0.19824,-0.29395 0.0615,-0.30078 -0.39649,-0.47168 -0.458,-0.1709 -1.04589,-0.1709 -0.47168,0 -0.8545,0.082 -0.37597,0.0752 -0.64941,0.27344 -0.14355,0.082 -0.31445,0.10254 -0.15039,0 -0.30762,-0.14356 -0.10938,-0.15039 -0.0684,-0.34863 0.0478,-0.22558 0.2666,-0.37597 0.3418,-0.22559 0.97071,-0.37598 0.30078,-0.0684 0.62207,-0.10938 0.32128,-0.041 0.62207,-0.041 0.1914,0 0.3623,0.007 0.1709,0.007 0.38281,0.0342 0.21875,0.0205 0.49903,0.11621 0.49218,0.14356 0.74511,0.53321 0.25293,0.38965 0.15723,0.86133 -0.11621,0.59472 -0.75879,1.07324 l -3.47949,2.10547 q -0.19824,0.15722 -0.24609,0.36914 -0.0342,0.1709 0.0547,0.33496 0.082,0.14355 0.28711,0.18457 l 0.50586,0.0547 0.56738,0.0273 q 0.53321,0 0.88184,-0.0684 0.15723,-0.0273 0.35547,-0.0957 0.19824,-0.0684 0.38965,-0.1709 l 0.10254,-0.041 q 0.0615,-0.0205 0.15722,-0.0205 0.18457,0 0.30762,0.15039 0.10254,0.15039 0.0615,0.35547 -0.0478,0.23242 -0.33496,0.40332 z"
         style="font-size:14px;line-height:1.25"
         id="path168" />
    </g>
  </g>
</svg>
