<?xml version="1.0" encoding="UTF-8" standalone="no"?>
<!-- Created with Inkscape (http://www.inkscape.org/) -->

<svg
   xmlns:dc="http://purl.org/dc/elements/1.1/"
   xmlns:cc="http://creativecommons.org/ns#"
   xmlns:rdf="http://www.w3.org/1999/02/22-rdf-syntax-ns#"
   xmlns:svg="http://www.w3.org/2000/svg"
   xmlns="http://www.w3.org/2000/svg"
   xmlns:sodipodi="http://sodipodi.sourceforge.net/DTD/sodipodi-0.dtd"
   xmlns:inkscape="http://www.inkscape.org/namespaces/inkscape"
   width="30mm"
   height="30mm"
   id="svg2"
   version="1.1"
   inkscape:version="0.92.4 (5da689c313, 2019-01-14)"
   sodipodi:docname="08-10.svg"
   inkscape:export-filename="/home/goldin/Documents/Математика/0-МЭ/Рабочий план/svg/06-01.png"
   inkscape:export-xdpi="599.94806"
   inkscape:export-ydpi="599.94806">
  <defs
     id="defs4">
    <marker
       inkscape:stockid="Arrow1Lend"
       orient="auto"
       refY="0"
       refX="0"
       id="Arrow1Lend"
       style="overflow:visible">
      <path
         id="path3786"
         d="M 0,0 5,-5 -12.5,0 5,5 Z"
         style="fill-rule:evenodd;stroke:#000000;stroke-width:1.00000003pt"
         transform="matrix(-0.8,0,0,-0.8,-10,0)"
         inkscape:connector-curvature="0" />
    </marker>
    <marker
       inkscape:stockid="Arrow1Mend"
       orient="auto"
       refY="0"
       refX="0"
       id="Arrow1Mend"
       style="overflow:visible">
      <path
         id="path3792"
         d="M 0,0 5,-5 -12.5,0 5,5 Z"
         style="fill-rule:evenodd;stroke:#000000;stroke-width:1.00000003pt"
         transform="matrix(-0.4,0,0,-0.4,-4,0)"
         inkscape:connector-curvature="0" />
    </marker>
  </defs>
  <sodipodi:namedview
     id="base"
     pagecolor="#ffffff"
     bordercolor="#666666"
     borderopacity="1.0"
     inkscape:pageopacity="0.0"
     inkscape:pageshadow="2"
     inkscape:zoom="9.129927"
     inkscape:cx="65.488951"
     inkscape:cy="68.395357"
     inkscape:document-units="pt"
     inkscape:current-layer="layer1"
     showgrid="false"
     units="mm"
     inkscape:window-width="1920"
     inkscape:window-height="1009"
     inkscape:window-x="0"
     inkscape:window-y="0"
     inkscape:window-maximized="1" />
  <metadata
     id="metadata7">
    <rdf:RDF>
      <cc:Work
         rdf:about="">
        <dc:format>image/svg+xml</dc:format>
        <dc:type
           rdf:resource="http://purl.org/dc/dcmitype/StillImage" />
        <dc:title></dc:title>
      </cc:Work>
    </rdf:RDF>
  </metadata>
  <g
     inkscape:label="Layer 1"
     inkscape:groupmode="layer"
     id="layer1"
     transform="translate(0,-938.97631)">
    <path
       style="fill:#ffe680;fill-opacity:1;stroke:#ffe680;stroke-width:0.25816447;stroke-linecap:round;stroke-linejoin:round;stroke-miterlimit:4;stroke-dasharray:none;stroke-dashoffset:0;stroke-opacity:1;paint-order:stroke markers fill"
       d="m 64.57955,1044.935 c -0.0613,-0.1775 -0.41428,-1.5425 -0.78431,-3.0334 -3.16159,-12.7386 -8.663752,-30.4903 -12.722872,-41.0482 -3.47301,-9.03334 -7.65191,-17.83675 -10.99873,-23.17025 l -2.094059,-2.85155 17.329259,-0.0228 H 72.34145 l 0.32023,0.93814 c 2.33252,3.29367 6.60666,11.46322 9.35332,17.87788 4.81675,11.24918 9.79334,26.29978 14.46217,43.73778 0.98532,3.6801 2.06531,7.9318 2.06531,7.9979 0,0.066 -4.36896,-1.1058 -9.37412,-1.154 -8.7376,-0.084 -9.18168,-0.065 -11.14236,0.4818 -1.82006,0.5075 -2.65593,0.5694 -7.68849,0.5694 -4.28555,0 -5.38287,0.8258 -5.46752,0.5809 z"
       id="path32"
       inkscape:connector-curvature="0"
       sodipodi:nodetypes="ccssccccscsccscc" />
    <path
       style="fill:#ffe680;fill-opacity:1;stroke:#ffe680;stroke-width:0.25816447;stroke-linecap:round;stroke-linejoin:round;stroke-miterlimit:4;stroke-dasharray:none;stroke-dashoffset:0;stroke-opacity:1;paint-order:stroke markers fill"
       d="m 37.884814,974.02388 c 0.608419,-1.05076 4.468174,-5.1975 6.057834,-6.5554 3.64564,-3.11416 6.77358,-4.58516 10.14687,-4.77185 3.53647,-0.19572 6.18521,0.67068 9.725992,3.18134 1.7013,1.20634 5.41973,5.00137 6.78106,6.92075 l 0.85508,1.20559 H 54.768758 c -13.273851,0 -17.032616,0.27634 -16.883944,0.0196 z"
       id="path34"
       inkscape:connector-curvature="0"
       sodipodi:nodetypes="ccssccsc" />
    <path
       style="fill:none;stroke:#000000;stroke-width:0.66666669;stroke-linecap:butt;stroke-linejoin:miter;stroke-opacity:1;marker-end:url(#Arrow1Mend)"
       d="m 11.217312,974.47052 90.102108,0"
       id="path3009"
       inkscape:connector-curvature="0"
       sodipodi:nodetypes="cc" />
    <path
       style="fill:none;stroke:#000000;stroke-width:0.333;stroke-linecap:butt;stroke-linejoin:miter;stroke-opacity:1;stroke-miterlimit:4;stroke-dasharray:1.33200002,0.333;stroke-dashoffset:0"
       d="M 54.679231,961.90131 H 35.936492"
       id="path87"
       inkscape:connector-curvature="0" />
    <path
       sodipodi:nodetypes="cc"
       inkscape:connector-curvature="0"
       id="path3056"
       d="M 37.12068,1046.2307 V 946.42155"
       style="fill:none;stroke:#000000;stroke-width:0.66666669;stroke-linecap:butt;stroke-linejoin:miter;stroke-opacity:1;marker-end:url(#Arrow1Mend)" />
    <text
       xml:space="preserve"
       style="font-style:italic;font-variant:normal;font-weight:normal;font-stretch:normal;line-height:0%;font-family:'GOST type B';-inkscape-font-specification:'Sans Italic';text-align:start;letter-spacing:0px;word-spacing:0px;text-anchor:start;fill:#000000;fill-opacity:1;stroke:none"
       x="90.641533"
       y="985.15417"
       id="text3846"><tspan
         sodipodi:role="line"
         id="tspan3848"
         x="90.641533"
         y="985.15417"
         style="font-size:14px;line-height:1.25">x</tspan></text>
    <text
       xml:space="preserve"
       style="font-style:italic;font-variant:normal;font-weight:normal;font-stretch:normal;line-height:0%;font-family:'GOST type B';-inkscape-font-specification:'Sans Italic';text-align:start;letter-spacing:0px;word-spacing:0px;text-anchor:start;fill:#000000;fill-opacity:1;stroke:none"
       x="40.240746"
       y="954.27026"
       id="text3850"><tspan
         sodipodi:role="line"
         id="tspan3852"
         x="40.240746"
         y="954.27026"
         style="font-size:14px;line-height:1.25">a</tspan></text>
    <text
       id="text864"
       y="972.05084"
       x="73.282753"
       style="font-style:italic;font-variant:normal;font-weight:normal;font-stretch:normal;line-height:0%;font-family:'GOST type B';-inkscape-font-specification:'Sans Italic';text-align:start;letter-spacing:0px;word-spacing:0px;text-anchor:start;fill:#000000;fill-opacity:1;stroke:none"
       xml:space="preserve"><tspan
         style="font-style:normal;font-variant:normal;font-weight:normal;font-stretch:normal;font-size:14px;line-height:1.25;font-family:'GOST type B';-inkscape-font-specification:'GOST type B'"
         y="972.05084"
         x="73.282753"
         id="tspan862"
         sodipodi:role="line">1</tspan></text>
    <path
       style="fill:none;stroke:#ff0000;stroke-width:1px;stroke-linecap:butt;stroke-linejoin:miter;stroke-opacity:1"
       d="m 37.1876,974.44331 c 9.266478,13.16915 18.268502,37.01789 26.94078,71.38589"
       id="path23"
       inkscape:connector-curvature="0"
       sodipodi:nodetypes="cc" />
    <path
       sodipodi:nodetypes="cc"
       inkscape:connector-curvature="0"
       id="path28"
       d="M 36.972575,974.31873 C 58.884343,944.45881 79.87962,968.76841 99.2327,1045.4642"
       style="fill:none;stroke:#0000ff;stroke-width:1px;stroke-linecap:butt;stroke-linejoin:miter;stroke-opacity:1" />
    <text
       id="text852"
       y="986.47778"
       x="26.270889"
       style="font-style:italic;font-variant:normal;font-weight:normal;font-stretch:normal;line-height:0%;font-family:'GOST type B';-inkscape-font-specification:'Sans Italic';text-align:start;letter-spacing:0px;word-spacing:0px;text-anchor:start;fill:#000000;fill-opacity:1;stroke:#ffffff;stroke-width:2;paint-order:stroke fill markers"
       xml:space="preserve"><tspan
         style="font-size:14px;line-height:1.25;stroke:#ffffff;stroke-width:2;paint-order:stroke fill markers"
         y="986.47778"
         x="26.270889"
         id="tspan850"
         sodipodi:role="line">O</tspan></text>
    <path
       inkscape:connector-curvature="0"
       id="path57"
       style="font-style:italic;font-variant:normal;font-weight:normal;font-stretch:normal;font-size:10.66666698px;line-height:13.33333302px;font-family:'GOST type B';-inkscape-font-specification:'GOST type B Italic';text-align:start;letter-spacing:0px;word-spacing:0px;text-anchor:start;fill:#ff0000;fill-opacity:1;stroke:none"
       d="m 43.968734,1013.7528 2.949166,-0.3868 -0.469539,-1.3807 q -0.09894,-0.2909 -0.378343,-0.4654 -0.138869,-0.085 -0.292221,-0.1152 -0.148422,-0.032 -0.30149,-0.013 l -2.211878,0.2901 q -0.31105,0.04 -0.459566,0.2663 -0.06022,0.114 -0.08253,0.2426 -0.0024,0.1549 0.03955,0.2782 l 0.234766,0.6903 q 0.09726,0.286 0.371743,0.4622 0.274473,0.1762 0.600321,0.1314 z m -0.875045,0.4681 q -0.261057,-0.1367 -0.50152,-0.407 -0.235534,-0.272 -0.332794,-0.558 l -0.234769,-0.6904 q -0.189491,-0.5572 0.09589,-1.0283 0.287055,-0.4662 0.909165,-0.5457 l 2.211878,-0.2901 q 0.610557,-0.081 1.17924,0.2646 0.570355,0.3507 0.764878,0.9227 l 0.586919,1.7258 q 0.117386,0.3452 -0.251258,0.3935 l -3.312884,0.4335 q -0.220528,0.031 -0.407294,0.1935 -0.165494,0.1443 -0.203529,0.3883 -0.02164,0.2274 -0.258666,0.2585 -0.162908,0.023 -0.301793,-0.062 -0.140437,-0.073 -0.1941,-0.231 -0.02515,-0.074 -0.0124,-0.1499 0.0275,-0.3559 0.263085,-0.6175 z" />
    <path
       inkscape:connector-curvature="0"
       id="path59"
       style="font-style:italic;font-variant:normal;font-weight:normal;font-stretch:normal;font-size:10.66666698px;line-height:13.33333302px;font-family:'GOST type B';-inkscape-font-specification:'GOST type B Italic';text-align:start;letter-spacing:0px;word-spacing:0px;text-anchor:start;fill:#ff0000;fill-opacity:1;stroke:none"
       d="m 47.572723,1018.6886 -0.939074,-2.7613 q -0.05366,-0.1578 0.01813,-0.2703 0.08008,-0.1042 0.233127,-0.1233 0.131647,-0.017 0.278711,0.059 0.151979,0.075 0.207316,0.2375 l 0.939074,2.7614 q 0.04863,0.143 -0.03302,0.2588 -0.07674,0.1141 -0.218239,0.1347 -0.126715,0.016 -0.277033,-0.054 -0.150312,-0.07 -0.209004,-0.2425 z m -1.843228,0.2418 -0.93907,-2.7614 q -0.05366,-0.1578 0.01812,-0.2702 0.08008,-0.1042 0.233127,-0.1233 0.131648,-0.017 0.278708,0.059 0.151979,0.075 0.207319,0.2376 l 0.939074,2.7613 q 0.04863,0.143 -0.03302,0.2588 -0.07673,0.1141 -0.218239,0.1348 -0.126715,0.016 -0.27703,-0.054 -0.150305,-0.07 -0.208997,-0.2425 z" />
    <path
       inkscape:connector-curvature="0"
       id="path61"
       style="font-style:italic;font-variant:normal;font-weight:normal;font-stretch:normal;font-size:10.66666698px;line-height:13.33333302px;font-family:'GOST type B';-inkscape-font-specification:'GOST type B Italic';text-align:start;letter-spacing:0px;word-spacing:0px;text-anchor:start;fill:#ff0000;fill-opacity:1;stroke:none"
       d="m 48.110159,1023.666 -0.93907,-2.7613 q -0.05366,-0.1578 0.01813,-0.2702 0.08008,-0.1043 0.233126,-0.1234 0.131648,-0.017 0.278708,0.059 0.15198,0.075 0.20732,0.2376 l 0.939074,2.7613 q 0.04863,0.143 -0.03302,0.2588 -0.07674,0.1141 -0.218239,0.1347 -0.126715,0.016 -0.27703,-0.054 -0.150315,-0.07 -0.209007,-0.2425 z" />
    <path
       inkscape:connector-curvature="0"
       id="path63"
       style="font-style:italic;font-variant:normal;font-weight:normal;font-stretch:normal;font-size:10.66666698px;line-height:13.33333302px;font-family:'GOST type B';-inkscape-font-specification:'GOST type B Italic';text-align:start;letter-spacing:0px;word-spacing:0px;text-anchor:start;fill:#ff0000;fill-opacity:1;stroke:none"
       d="m 49.795192,1027.4885 -1.58022,1.5166 -0.0935,0.065 -0.09708,0.022 q -0.143187,0.016 -0.295282,-0.076 l -0.0662,-0.049 -0.06138,-0.067 -0.06497,-0.1264 q -0.04863,-0.143 0.06902,-0.2986 l 1.378848,-1.3161 -2.120047,-0.8634 q -0.203061,-0.079 -0.265107,-0.2619 -0.03689,-0.1085 0.02809,-0.2571 0.07168,-0.129 0.224756,-0.1479 0.09541,-0.01 0.22584,0.033 l 2.432098,0.9883 1.580211,-1.5166 0.09351,-0.065 0.09708,-0.022 q 0.143177,-0.016 0.288672,0.072 0.145466,0.088 0.199129,0.2458 0.04863,0.143 -0.06902,0.2985 l -1.378839,1.3161 2.120035,0.8634 q 0.203073,0.08 0.26512,0.262 0.03521,0.1035 -0.02642,0.262 -0.07831,0.1256 -0.22642,0.143 -0.09541,0.011 -0.225853,-0.033 z" />
    <path
       inkscape:connector-curvature="0"
       id="path65"
       style="font-style:italic;font-variant:normal;font-weight:normal;font-stretch:normal;font-size:8px;line-height:13.33333302px;font-family:'GOST type B';-inkscape-font-specification:'GOST type B Italic';text-align:start;letter-spacing:0px;word-spacing:0px;baseline-shift:super;text-anchor:start;fill:#ff0000;fill-opacity:1;stroke:none"
       d="m 56.324852,1030.9177 -3.416008,-1.2973 0.545835,1.605 q 0.03647,0.1073 -0.02473,0.1941 -0.05751,0.086 -0.163671,0.1011 -0.09499,0.012 -0.207772,-0.041 -0.11277,-0.052 -0.156803,-0.1818 l -0.704304,-2.071 q -0.09558,-0.2811 0.125354,-0.3109 0.0876,-0.01 0.227527,0.038 l 3.903839,1.4822 q 0.249934,0.068 0.44742,0.042 0.355484,-0.047 0.529138,-0.3367 0.08069,-0.1388 0.09569,-0.3131 0.01625,-0.1706 -0.04789,-0.3592 -0.06666,-0.196 -0.239384,-0.3642 -0.183817,-0.1644 -0.417857,-0.2581 -0.06068,-0.021 -0.132649,-0.087 l -0.06619,-0.1095 q -0.03396,-0.1 0.01239,-0.194 0.05131,-0.092 0.166117,-0.1061 0.05436,-0.01 0.173076,0.024 0.356605,0.1386 0.648568,0.4148 0.141617,0.1375 0.243808,0.2802 0.103435,0.1463 0.152484,0.2906 0.206262,0.6065 -0.08114,1.0838 -0.283697,0.4761 -0.876167,0.5538 -0.340686,0.042 -0.736718,-0.08 z" />
    <path
       inkscape:connector-curvature="0"
       id="path67"
       style="font-style:italic;font-variant:normal;font-weight:normal;font-stretch:normal;font-size:10.66666698px;line-height:13.33333302px;font-family:'GOST type B';-inkscape-font-specification:'GOST type B Italic';text-align:start;letter-spacing:0px;word-spacing:0px;text-anchor:start;fill:#ff0000;fill-opacity:1;stroke:none"
       d="m 52.629449,1036.9551 -0.939071,-2.7614 q -0.05366,-0.1578 0.01813,-0.2702 0.08008,-0.1042 0.233127,-0.1233 0.131647,-0.017 0.278707,0.059 0.15198,0.075 0.20732,0.2376 l 0.939074,2.7613 q 0.04863,0.143 -0.03302,0.2588 -0.07674,0.1141 -0.218239,0.1348 -0.126715,0.016 -0.27703,-0.054 -0.150315,-0.07 -0.209007,-0.2425 z" />
    <path
       inkscape:connector-curvature="0"
       id="path69"
       style="font-style:italic;font-variant:normal;font-weight:normal;font-stretch:normal;font-size:10.66666698px;line-height:13.33333302px;font-family:'GOST type B';-inkscape-font-specification:'GOST type B Italic';text-align:start;letter-spacing:0px;word-spacing:0px;text-anchor:start;fill:#ff0000;fill-opacity:1;stroke:none"
       d="m 54.314487,1040.7776 -1.580216,1.5166 -0.09356,0.065 -0.09695,0.022 q -0.143123,0.016 -0.295293,-0.076 l -0.0663,-0.049 -0.06128,-0.067 -0.06496,-0.1264 q -0.04865,-0.1431 0.06899,-0.2986 l 1.378874,-1.316 -2.120044,-0.8634 q -0.203087,-0.08 -0.26513,-0.262 -0.0369,-0.1085 0.02811,-0.2571 0.07168,-0.1289 0.224659,-0.1482 0.09547,-0.01 0.225853,0.033 l 2.432112,0.9883 1.580207,-1.5166 0.09357,-0.065 0.09695,-0.022 q 0.143113,-0.016 0.288686,0.072 0.145466,0.088 0.199138,0.2459 0.04862,0.143 -0.06902,0.2985 l -1.378833,1.3162 2.120035,0.8633 q 0.203064,0.079 0.265107,0.2619 0.03522,0.1036 -0.02641,0.2621 -0.07821,0.1259 -0.226581,0.1425 -0.09547,0.01 -0.225863,-0.033 z" />
    <path
       inkscape:connector-curvature="0"
       id="path72"
       style="font-style:italic;font-variant:normal;font-weight:normal;font-stretch:normal;font-size:10.66666698px;line-height:13.33333302px;font-family:'GOST type B';-inkscape-font-specification:'GOST type B Italic';text-align:start;letter-spacing:0px;word-spacing:0px;text-anchor:start;fill:#0000ff;fill-opacity:1;stroke:none"
       d="m 92.452022,1007.402 2.949163,-0.3868 -0.469535,-1.3807 q -0.09894,-0.2909 -0.378344,-0.4655 -0.138869,-0.085 -0.292221,-0.1151 -0.148422,-0.032 -0.30149,-0.013 l -2.211878,0.2901 q -0.31105,0.04 -0.459566,0.2663 -0.06022,0.1139 -0.08253,0.2426 -0.0024,0.1548 0.03955,0.2781 l 0.234769,0.6903 q 0.09726,0.286 0.371743,0.4623 0.274473,0.1762 0.600321,0.1314 z m -0.875045,0.4681 q -0.261057,-0.1368 -0.501523,-0.4071 -0.235531,-0.272 -0.332791,-0.558 l -0.234769,-0.6903 q -0.189491,-0.5572 0.09589,-1.0283 0.287051,-0.4663 0.909161,-0.5458 l 2.211878,-0.2901 q 0.61056,-0.081 1.179244,0.2646 0.570354,0.3507 0.764874,0.9227 l 0.586922,1.7258 q 0.117383,0.3452 -0.251258,0.3936 l -3.312884,0.4334 q -0.220528,0.031 -0.407294,0.1936 -0.165494,0.1442 -0.203532,0.3883 -0.02163,0.2274 -0.258663,0.2585 -0.162908,0.022 -0.301793,-0.062 -0.140437,-0.073 -0.1941,-0.2311 -0.02514,-0.074 -0.0124,-0.1498 0.02749,-0.3559 0.263085,-0.6176 z" />
    <path
       inkscape:connector-curvature="0"
       id="path74"
       style="font-style:italic;font-variant:normal;font-weight:normal;font-stretch:normal;font-size:10.66666698px;line-height:13.33333302px;font-family:'GOST type B';-inkscape-font-specification:'GOST type B Italic';text-align:start;letter-spacing:0px;word-spacing:0px;text-anchor:start;fill:#0000ff;fill-opacity:1;stroke:none"
       d="m 96.056008,1012.3378 -0.939071,-2.7614 q -0.05366,-0.1578 0.01813,-0.2702 0.08008,-0.1042 0.233127,-0.1233 0.131647,-0.017 0.278707,0.059 0.151983,0.075 0.20732,0.2376 l 0.939074,2.7613 q 0.04863,0.143 -0.03302,0.2588 -0.07674,0.1141 -0.218239,0.1348 -0.126715,0.016 -0.27703,-0.054 -0.150312,-0.07 -0.209007,-0.2425 z m -1.843224,0.2417 -0.939074,-2.7613 q -0.05366,-0.1578 0.01812,-0.2703 0.08008,-0.1042 0.233127,-0.1233 0.131647,-0.017 0.278708,0.059 0.151979,0.075 0.207319,0.2375 l 0.939071,2.7614 q 0.04863,0.143 -0.03302,0.2588 -0.07673,0.114 -0.218239,0.1347 -0.126715,0.016 -0.27703,-0.054 -0.150306,-0.07 -0.208997,-0.2425 z" />
    <path
       inkscape:connector-curvature="0"
       id="path76"
       style="font-style:italic;font-variant:normal;font-weight:normal;font-stretch:normal;font-size:10.66666698px;line-height:13.33333302px;font-family:'GOST type B';-inkscape-font-specification:'GOST type B Italic';text-align:start;letter-spacing:0px;word-spacing:0px;text-anchor:start;fill:#0000ff;fill-opacity:1;stroke:none"
       d="m 96.593448,1017.3152 -0.939074,-2.7614 q -0.05366,-0.1578 0.01813,-0.2702 0.08008,-0.1042 0.233126,-0.1233 0.131648,-0.017 0.278708,0.059 0.15198,0.075 0.20732,0.2376 l 0.93907,2.7613 q 0.04863,0.1431 -0.03302,0.2588 -0.07674,0.1141 -0.218239,0.1348 -0.126715,0.016 -0.277031,-0.054 -0.150315,-0.07 -0.209006,-0.2425 z" />
    <path
       inkscape:connector-curvature="0"
       id="path78"
       style="font-style:italic;font-variant:normal;font-weight:normal;font-stretch:normal;font-size:10.66666698px;line-height:13.33333302px;font-family:'GOST type B';-inkscape-font-specification:'GOST type B Italic';text-align:start;letter-spacing:0px;word-spacing:0px;text-anchor:start;fill:#0000ff;fill-opacity:1;stroke:none"
       d="m 98.27848,1021.1377 -1.580223,1.5166 -0.0935,0.065 -0.09708,0.022 q -0.143187,0.016 -0.295282,-0.076 l -0.0662,-0.049 -0.06138,-0.067 -0.06497,-0.1264 q -0.04863,-0.143 0.06902,-0.2985 l 1.378846,-1.3162 -2.120045,-0.8633 q -0.20306,-0.079 -0.265107,-0.262 -0.03689,-0.1084 0.02808,-0.2571 0.07168,-0.1289 0.224755,-0.1479 0.09541,-0.011 0.22584,0.033 l 2.432096,0.9883 1.580213,-1.5166 0.09351,-0.065 0.09708,-0.022 q 0.143178,-0.016 0.288673,0.072 0.14547,0.088 0.19913,0.2458 0.0486,0.143 -0.069,0.2986 l -1.378836,1.3161 2.120036,0.8634 q 0.20307,0.079 0.26512,0.2619 0.0352,0.1035 -0.0264,0.262 -0.0783,0.1256 -0.22642,0.1431 -0.0954,0.01 -0.22585,-0.033 z" />
    <path
       inkscape:connector-curvature="0"
       id="path80"
       style="font-style:italic;font-variant:normal;font-weight:normal;font-stretch:normal;font-size:8px;line-height:13.33333302px;font-family:'GOST type B';-inkscape-font-specification:'GOST type B Italic';text-align:start;letter-spacing:0px;word-spacing:0px;baseline-shift:super;text-anchor:start;fill:#0000ff;fill-opacity:1;stroke:none"
       d="m 104.80814,1024.5669 -3.41601,-1.2974 0.54584,1.6051 q 0.0365,0.1072 -0.0247,0.194 -0.0575,0.086 -0.16367,0.1011 -0.095,0.012 -0.20778,-0.041 -0.11267,-0.052 -0.1567,-0.1819 l -0.70431,-2.071 q -0.0956,-0.2811 0.12535,-0.3108 0.0876,-0.01 0.22753,0.038 l 3.90384,1.4822 q 0.24994,0.068 0.44742,0.042 0.35549,-0.047 0.52914,-0.3367 0.0807,-0.1388 0.0957,-0.3131 0.0162,-0.1706 -0.0479,-0.3592 -0.0666,-0.196 -0.23938,-0.3642 -0.18382,-0.1644 -0.41786,-0.2581 -0.0607,-0.021 -0.13274,-0.087 l -0.0661,-0.1095 q -0.034,-0.1 0.0124,-0.194 0.0513,-0.092 0.16612,-0.1061 0.0544,-0.01 0.17307,0.024 0.35661,0.1386 0.64857,0.4148 0.14162,0.1375 0.24381,0.2802 0.10344,0.1463 0.15248,0.2906 0.20627,0.6065 -0.0811,1.0838 -0.28369,0.4761 -0.87616,0.5538 -0.34069,0.042 -0.73672,-0.08 z" />
    <path
       inkscape:connector-curvature="0"
       id="path82"
       style="font-style:italic;font-variant:normal;font-weight:normal;font-stretch:normal;font-size:10.66666698px;line-height:13.33333302px;font-family:'GOST type B';-inkscape-font-specification:'GOST type B Italic';text-align:start;letter-spacing:0px;word-spacing:0px;text-anchor:start;fill:#0000ff;fill-opacity:1;stroke:none"
       d="m 100.76563,1029.5835 -1.105959,0.145 q -0.174309,0.021 -0.313306,-0.064 -0.120685,-0.08 -0.172683,-0.2329 -0.04694,-0.138 0.0066,-0.2553 0.06006,-0.1145 0.244599,-0.1381 l 1.105955,-0.145 -0.35217,-1.0356 q -0.0536,-0.1577 0.0181,-0.2702 0.08,-0.1044 0.23303,-0.1236 0.13165,-0.017 0.2787,0.059 0.15198,0.075 0.20733,0.2376 l 0.35214,1.0354 1.10595,-0.145 q 0.14805,-0.018 0.30837,0.066 0.13064,0.093 0.17761,0.2313 0.0436,0.1282 -0.007,0.2553 -0.0604,0.1135 -0.2446,0.1381 l -1.10592,0.1451 0.35213,1.0355 q 0.0554,0.1627 -0.0297,0.2686 -0.085,0.106 -0.22155,0.125 -0.12672,0.016 -0.27703,-0.054 -0.15032,-0.07 -0.20901,-0.2425 z" />
    <path
       inkscape:connector-curvature="0"
       id="path84"
       style="font-style:italic;font-variant:normal;font-weight:normal;font-stretch:normal;font-size:10.66666698px;line-height:13.33333302px;font-family:'GOST type B';-inkscape-font-specification:'GOST type B Italic';text-align:start;letter-spacing:0px;word-spacing:0px;text-anchor:start;fill:#0000ff;fill-opacity:1;stroke:none"
       d="m 102.79775,1034.4266 -1.58021,1.5167 -0.0936,0.065 -0.097,0.022 q -0.14312,0.016 -0.29529,-0.076 l -0.0663,-0.049 -0.0613,-0.067 -0.065,-0.1265 q -0.0486,-0.143 0.069,-0.2985 l 1.37885,-1.3162 -2.120049,-0.8633 q -0.203054,-0.079 -0.265097,-0.2619 -0.0369,-0.1085 0.02808,-0.2572 0.07168,-0.1289 0.224659,-0.1482 0.09547,-0.01 0.22585,0.033 l 2.43208,0.9882 1.58021,-1.5166 0.0936,-0.065 0.097,-0.022 q 0.14311,-0.016 0.28869,0.072 0.14546,0.088 0.1991,0.2458 0.0487,0.1431 -0.069,0.2986 l -1.37886,1.316 2.12003,0.8634 q 0.2031,0.08 0.26514,0.262 0.0352,0.1036 -0.0264,0.2621 -0.0782,0.1259 -0.22658,0.1425 -0.0955,0.01 -0.22586,-0.033 z" />
    <path
       style="fill:none;stroke:#000000;stroke-width:0.66666669;stroke-linecap:butt;stroke-linejoin:miter;stroke-opacity:1"
       d="m 34.567368,961.84655 h 4.956758"
       id="path909"
       inkscape:connector-curvature="0" />
    <g
       id="g942"
       transform="translate(44.907259,1.3143588)">
      <path
         d="m -21.801098,960.60406 q 0,0.19336 -0.117187,0.31055 -0.111328,0.0996 -0.292969,0.0996 -0.164063,0 -0.287109,-0.0996 -0.123047,-0.10547 -0.123047,-0.31055 v -6.39843 l -0.94336,0.94336 q -0.123047,0.12304 -0.28125,0.12304 -0.146484,0 -0.287109,-0.12304 -0.128906,-0.12891 -0.128906,-0.29297 0,-0.14063 0.123047,-0.28125 l 1.640625,-1.64063 q 0.08203,-0.082 0.169921,-0.1289 0.08789,-0.0527 0.19336,-0.0527 0.09961,0 0.234375,0.12305 0.09961,0.12891 0.09961,0.3457 z"
         style="font-style:normal;font-variant:normal;font-weight:normal;font-stretch:normal;font-size:12px;line-height:13.33333302px;font-family:'GOST type B';-inkscape-font-specification:'GOST type B';text-align:start;letter-spacing:0px;word-spacing:0px;text-anchor:start;fill:#000000;fill-opacity:1;stroke:none"
         id="path915"
         inkscape:connector-curvature="0" />
      <path
         d="m -16.166238,954.74035 -4.511719,11.48437 q -0.04102,0.0937 -0.146484,0.1875 l -0.111328,0.0527 -0.111328,0.0234 q -0.175782,0 -0.304688,-0.11133 -0.128906,-0.11133 -0.128906,-0.29297 0,-0.0937 0.0293,-0.15234 l 4.511718,-11.48438 q 0.0293,-0.0879 0.140625,-0.1875 l 0.07617,-0.041 q 0.07031,-0.0352 0.152344,-0.0352 0.175781,0 0.304688,0.11133 0.128906,0.11132 0.128906,0.29297 0,0.0937 -0.0293,0.15234 z"
         style="font-style:normal;font-variant:normal;font-weight:normal;font-stretch:normal;font-size:12px;line-height:13.33333302px;font-family:'GOST type B';-inkscape-font-specification:'GOST type B';text-align:start;letter-spacing:0px;word-spacing:0px;text-anchor:start;fill:#000000;fill-opacity:1;stroke:none"
         id="path917"
         inkscape:connector-curvature="0" />
      <path
         d="m -13.13886,965.01554 h 0.820312 q 0.169922,0 0.287109,0.12891 0.123047,0.12305 0.123047,0.28125 0,0.14062 -0.105468,0.27539 -0.09961,0.13477 -0.304688,0.13477 h -0.820312 v 1.23046 q 0,0.19336 -0.117188,0.31055 -0.111328,0.0996 -0.292969,0.0996 -0.164062,0 -0.287109,-0.0996 -0.123047,-0.10547 -0.123047,-0.31055 v -1.23046 h -2.460937 q -0.427734,0 -0.427734,-0.33399 l 0.01172,-0.0996 0.02344,-0.0937 1.640625,-5.73633 q 0.03516,-0.12304 0.140625,-0.22265 l 0.07617,-0.041 q 0.07031,-0.0352 0.158203,-0.0352 0.18164,0 0.298828,0.11718 0.128906,0.11133 0.128906,0.28711 l -0.01758,0.12305 -1.494141,5.21484 h 1.921875 v -1.23047 q 0,-0.16406 0.123047,-0.30468 0.123047,-0.10547 0.287109,-0.10547 0.158203,0 0.28125,0.10547 0.128907,0.0996 0.128907,0.30468 z"
         style="font-style:normal;font-variant:normal;font-weight:normal;font-stretch:normal;font-size:12px;line-height:13.33333302px;font-family:'GOST type B';-inkscape-font-specification:'GOST type B';text-align:start;letter-spacing:0px;word-spacing:0px;text-anchor:start;fill:#000000;fill-opacity:1;stroke:none"
         id="path919"
         inkscape:connector-curvature="0" />
    </g>
  </g>
</svg>
