<?xml version="1.0" encoding="UTF-8" standalone="no"?>
<!-- Created with Inkscape (http://www.inkscape.org/) -->

<svg
   xmlns:dc="http://purl.org/dc/elements/1.1/"
   xmlns:cc="http://creativecommons.org/ns#"
   xmlns:rdf="http://www.w3.org/1999/02/22-rdf-syntax-ns#"
   xmlns:svg="http://www.w3.org/2000/svg"
   xmlns="http://www.w3.org/2000/svg"
   xmlns:sodipodi="http://sodipodi.sourceforge.net/DTD/sodipodi-0.dtd"
   xmlns:inkscape="http://www.inkscape.org/namespaces/inkscape"
   width="50mm"
   height="50mm"
   id="svg2"
   version="1.1"
   inkscape:version="0.92.4 (5da689c313, 2019-01-14)"
   sodipodi:docname="08-14.svg"
   inkscape:export-filename="/home/goldin/Documents/Математика/0-МЭ/Рабочий план/svg/06-01.png"
   inkscape:export-xdpi="599.94806"
   inkscape:export-ydpi="599.94806">
  <defs
     id="defs4">
    <marker
       inkscape:stockid="Arrow1Lend"
       orient="auto"
       refY="0"
       refX="0"
       id="Arrow1Lend"
       style="overflow:visible">
      <path
         id="path3786"
         d="M 0,0 5,-5 -12.5,0 5,5 Z"
         style="fill-rule:evenodd;stroke:#000000;stroke-width:1.00000003pt"
         transform="matrix(-0.8,0,0,-0.8,-10,0)"
         inkscape:connector-curvature="0" />
    </marker>
    <marker
       inkscape:stockid="Arrow1Mend"
       orient="auto"
       refY="0"
       refX="0"
       id="Arrow1Mend"
       style="overflow:visible">
      <path
         id="path3792"
         d="M 0,0 5,-5 -12.5,0 5,5 Z"
         style="fill-rule:evenodd;stroke:#000000;stroke-width:1.00000003pt"
         transform="matrix(-0.4,0,0,-0.4,-4,0)"
         inkscape:connector-curvature="0" />
    </marker>
  </defs>
  <sodipodi:namedview
     id="base"
     pagecolor="#ffffff"
     bordercolor="#666666"
     borderopacity="1.0"
     inkscape:pageopacity="0.0"
     inkscape:pageshadow="2"
     inkscape:zoom="3.8735"
     inkscape:cx="95.004518"
     inkscape:cy="94.488189"
     inkscape:document-units="pt"
     inkscape:current-layer="layer1"
     showgrid="false"
     units="mm"
     inkscape:window-width="1920"
     inkscape:window-height="1009"
     inkscape:window-x="0"
     inkscape:window-y="0"
     inkscape:window-maximized="1"
     inkscape:snap-global="false" />
  <metadata
     id="metadata7">
    <rdf:RDF>
      <cc:Work
         rdf:about="">
        <dc:format>image/svg+xml</dc:format>
        <dc:type
           rdf:resource="http://purl.org/dc/dcmitype/StillImage" />
        <dc:title />
      </cc:Work>
    </rdf:RDF>
  </metadata>
  <g
     inkscape:label="Layer 1"
     inkscape:groupmode="layer"
     id="layer1"
     transform="translate(0,-863.38576)">
    <text
       xml:space="preserve"
       style="font-style:italic;font-variant:normal;font-weight:normal;font-stretch:normal;line-height:0%;font-family:'GOST type B';-inkscape-font-specification:'Sans Italic';text-align:start;letter-spacing:0px;word-spacing:0px;text-anchor:start;fill:#000000;fill-opacity:1;stroke:none"
       x="175.8358"
       y="968.47675"
       id="text3846"><tspan
         sodipodi:role="line"
         id="tspan3848"
         x="175.8358"
         y="968.47675"
         style="font-size:14px;line-height:1.25">x</tspan></text>
    <text
       xml:space="preserve"
       style="font-style:italic;font-variant:normal;font-weight:normal;font-stretch:normal;line-height:0%;font-family:'GOST type B';-inkscape-font-specification:'Sans Italic';text-align:start;letter-spacing:0px;word-spacing:0px;text-anchor:start;fill:#000000;fill-opacity:1;stroke:none"
       x="97.088554"
       y="875.27191"
       id="text3850"><tspan
         sodipodi:role="line"
         id="tspan3852"
         x="97.088554"
         y="875.27191"
         style="font-size:14px;line-height:1.25">a</tspan></text>
    <text
       id="text852"
       y="909.04114"
       x="88.733955"
       style="font-style:italic;font-variant:normal;font-weight:normal;font-stretch:normal;font-size:9.66814899px;line-height:0%;font-family:'GOST type B';-inkscape-font-specification:'Sans Italic';text-align:start;letter-spacing:0px;word-spacing:0px;text-anchor:start;fill:#000000;fill-opacity:1;stroke:#ffffff;stroke-width:1.61135817;paint-order:stroke fill markers"
       xml:space="preserve"
       transform="scale(0.95190591,1.050524)"><tspan
         style="font-size:11.27950668px;line-height:1.25;stroke:#ffffff;stroke-width:1.61135817;paint-order:stroke fill markers"
         y="909.04114"
         x="88.733955"
         id="tspan850"
         sodipodi:role="line">O</tspan></text>
    <path
       sodipodi:nodetypes="cc"
       inkscape:connector-curvature="0"
       id="path865"
       d="M 94.488189,1049.9486 V 867.11374"
       style="fill:none;stroke:#000000;stroke-width:0.667;stroke-linecap:butt;stroke-linejoin:miter;stroke-miterlimit:4;stroke-dasharray:2.66799998, 2.66799998;stroke-dashoffset:0;stroke-opacity:1;marker-end:url(#Arrow1Mend)" />
    <path
       style="fill:none;stroke:#000000;stroke-width:0.667;stroke-linecap:butt;stroke-linejoin:miter;stroke-miterlimit:4;stroke-dasharray:2.66799998, 2.66799998;stroke-dashoffset:0;stroke-opacity:1;marker-end:url(#Arrow1Mend)"
       d="M 3.0589408,957.87395 H 184.60299"
       id="path61"
       inkscape:connector-curvature="0"
       sodipodi:nodetypes="cc" />
    <path
       style="fill:none;stroke:#ff0000;stroke-width:1.33333337;stroke-linecap:butt;stroke-linejoin:miter;stroke-opacity:1"
       d="M 173.48651,879.13379 6.5831935,1046.0371"
       id="path63"
       inkscape:connector-curvature="0"
       sodipodi:nodetypes="cc" />
    <path
       inkscape:connector-curvature="0"
       id="path65"
       d="M 174.05158,926.45603 7.4914842,992.5659"
       style="fill:none;stroke:#0000ff;stroke-width:1.33333337;stroke-linecap:butt;stroke-linejoin:miter;stroke-opacity:1"
       sodipodi:nodetypes="cc" />
    <g
       transform="translate(-6.0410452,-112.74037)"
       id="g909">
      <circle
         r="5.796339"
         cy="1001.2455"
         cx="33.148308"
         id="circle903"
         style="fill:#ffe6d5;fill-opacity:1;stroke:#000000;stroke-width:0.53649032;stroke-linecap:round;stroke-linejoin:round;stroke-miterlimit:4;stroke-dasharray:none;stroke-dashoffset:0;stroke-opacity:1;paint-order:stroke fill markers" />
      <text
         id="text907"
         y="1005.0789"
         x="29.961006"
         style="font-style:normal;font-variant:normal;font-weight:normal;font-stretch:normal;font-size:10.66666698px;line-height:13.33333302px;font-family:Arial;-inkscape-font-specification:Arial;text-align:start;letter-spacing:0px;word-spacing:0px;text-anchor:start;fill:#000000;fill-opacity:1;stroke:none"
         xml:space="preserve"><tspan
           y="1005.0789"
           x="29.961006"
           id="tspan905"
           sodipodi:role="line">1</tspan></text>
    </g>
    <g
       transform="translate(93.92023,-89.557201)"
       id="g95">
      <circle
         r="5.796339"
         cy="1000.626"
         cx="67.69072"
         id="circle89"
         style="fill:#ffe6d5;fill-opacity:1;stroke:#000000;stroke-width:0.53649032;stroke-linecap:round;stroke-linejoin:round;stroke-miterlimit:4;stroke-dasharray:none;stroke-dashoffset:0;stroke-opacity:1;paint-order:stroke fill markers" />
      <text
         id="text93"
         y="1004.4592"
         x="64.84478"
         style="font-style:normal;font-variant:normal;font-weight:normal;font-stretch:normal;font-size:10.66666698px;line-height:13.33333302px;font-family:Arial;-inkscape-font-specification:Arial;text-align:start;letter-spacing:0px;word-spacing:0px;text-anchor:start;fill:#000000;fill-opacity:1;stroke:none"
         xml:space="preserve"><tspan
           y="1004.4592"
           x="64.84478"
           id="tspan91"
           sodipodi:role="line">3</tspan></text>
    </g>
    <g
       transform="translate(86.433457,32.812749)"
       id="g111">
      <circle
         r="5.796339"
         cy="1000.626"
         cx="67.69072"
         id="circle105"
         style="fill:#ffe6d5;fill-opacity:1;stroke:#000000;stroke-width:0.53649032;stroke-linecap:round;stroke-linejoin:round;stroke-miterlimit:4;stroke-dasharray:none;stroke-dashoffset:0;stroke-opacity:1;paint-order:stroke fill markers" />
      <text
         id="text109"
         y="1004.4592"
         x="64.84478"
         style="font-style:normal;font-variant:normal;font-weight:normal;font-stretch:normal;font-size:10.66666698px;line-height:13.33333302px;font-family:Arial;-inkscape-font-specification:Arial;text-align:start;letter-spacing:0px;word-spacing:0px;text-anchor:start;fill:#000000;fill-opacity:1;stroke:none"
         xml:space="preserve"><tspan
           y="1004.4592"
           x="64.84478"
           id="tspan107"
           sodipodi:role="line">5</tspan></text>
    </g>
    <g
       transform="translate(-49.10288,8.0289614)"
       id="g127">
      <circle
         r="5.796339"
         cy="1000.626"
         cx="67.69072"
         id="circle121"
         style="fill:#ffe6d5;fill-opacity:1;stroke:#000000;stroke-width:0.53649032;stroke-linecap:round;stroke-linejoin:round;stroke-miterlimit:4;stroke-dasharray:none;stroke-dashoffset:0;stroke-opacity:1;paint-order:stroke fill markers" />
      <text
         id="text125"
         y="1004.4592"
         x="64.84478"
         style="font-style:normal;font-variant:normal;font-weight:normal;font-stretch:normal;font-size:10.66666698px;line-height:13.33333302px;font-family:Arial;-inkscape-font-specification:Arial;text-align:start;letter-spacing:0px;word-spacing:0px;text-anchor:start;fill:#000000;fill-opacity:1;stroke:none"
         xml:space="preserve"><tspan
           y="1004.4592"
           x="64.84478"
           id="tspan123"
           sodipodi:role="line">7</tspan></text>
    </g>
    <g
       aria-label="a=const"
       style="font-style:italic;font-variant:normal;font-weight:normal;font-stretch:normal;font-size:16px;line-height:13.33333302px;font-family:Arial;-inkscape-font-specification:'Arial Italic';text-align:start;letter-spacing:0px;word-spacing:0px;text-anchor:start;fill:#000000;fill-opacity:1;stroke:none"
       id="text169"
       transform="translate(112.81786,4.1306312)">
      <path
         d="m -99.376564,927.91109 0.729167,-3.64583 h -1.822913 q -0.38412,0 -0.70313,0.26042 -0.15625,0.1302 -0.25391,0.29947 -0.0977,0.16277 -0.13671,0.35157 l -0.54688,2.73437 q -0.0781,0.38412 0.13021,0.65104 0.11068,0.11719 0.25391,0.19532 0.18229,0.0651 0.34505,0.0651 h 0.91146 q 0.3776,0 0.69661,-0.25391 0.319011,-0.2539 0.397136,-0.65755 z m 0.201823,1.22396 q -0.266927,0.25391 -0.683594,0.42969 -0.416665,0.16927 -0.794275,0.16927 h -0.91145 q -0.73568,0 -1.17839,-0.52734 -0.4362,-0.52735 -0.27995,-1.29558 l 0.54688,-2.73437 q 0.14974,-0.75521 0.78776,-1.28907 0.64453,-0.53385 1.39974,-0.53385 h 2.278643 q 0.455729,0 0.364584,0.45573 l -0.820313,4.09505 q -0.05208,0.27344 0.0651,0.5599 0.104167,0.2539 0.377604,0.39713 0.260417,0.11719 0.201823,0.41016 -0.03906,0.20182 -0.195312,0.33203 -0.143229,0.13672 -0.351563,0.13672 -0.09766,0 -0.182291,-0.0456 -0.410156,-0.17578 -0.625,-0.5599 z"
         style="font-style:italic;font-variant:normal;font-weight:normal;font-stretch:normal;font-size:13.33333302px;font-family:'GOST type B';-inkscape-font-specification:'GOST type B Italic';fill:#008000"
         id="path171"
         inkscape:connector-curvature="0" />
      <path
         d="m -92.084898,925.63245 h -3.645833 q -0.208333,0 -0.3125,-0.13021 -0.09115,-0.13672 -0.05208,-0.32552 0.03255,-0.16276 0.182291,-0.30599 0.14974,-0.14974 0.364584,-0.14974 h 3.645833 q 0.188802,0 0.292969,0.14323 0.104166,0.13672 0.07161,0.3125 -0.03255,0.15625 -0.175781,0.30599 -0.143229,0.14974 -0.371093,0.14974 z m -0.455729,2.27864 h -3.645833 q -0.208334,0 -0.3125,-0.13021 -0.09115,-0.13671 -0.05208,-0.32552 0.03255,-0.16276 0.182292,-0.30599 0.14974,-0.14974 0.364583,-0.14974 h 3.645834 q 0.188802,0 0.292968,0.14323 0.104167,0.13672 0.07161,0.3125 -0.03255,0.15625 -0.175781,0.30599 -0.143229,0.14974 -0.371093,0.14974 z"
         style="font-style:italic;font-variant:normal;font-weight:normal;font-stretch:normal;font-size:13.33333302px;font-family:'GOST type B';-inkscape-font-specification:'GOST type B Italic';fill:#008000"
         id="path173"
         inkscape:connector-curvature="0" />
      <path
         d="m -87.436461,929.73401 h -1.367187 q -0.735677,0 -1.178385,-0.52734 -0.436198,-0.52735 -0.279948,-1.29558 l 0.546875,-2.73437 q 0.149739,-0.75521 0.78776,-1.28907 0.644531,-0.53385 1.39974,-0.53385 h 1.367187 q 0.188802,0 0.292969,0.14323 0.104166,0.13672 0.07161,0.3125 -0.03255,0.15625 -0.175781,0.30599 -0.143229,0.14974 -0.371094,0.14974 h -1.367187 q -0.384115,0 -0.703125,0.26042 -0.15625,0.1302 -0.253906,0.29947 -0.09766,0.16277 -0.136719,0.35157 l -0.546875,2.73437 q -0.07813,0.38412 0.130208,0.65104 0.110677,0.11719 0.253907,0.19532 0.182291,0.0651 0.345052,0.0651 h 1.367187 q 0.188802,0 0.292969,0.14323 0.104166,0.13672 0.07161,0.3125 -0.03255,0.15625 -0.175781,0.30599 -0.143229,0.14974 -0.371094,0.14974 z"
         style="font-style:italic;font-variant:normal;font-weight:normal;font-stretch:normal;font-size:13.33333302px;font-family:'GOST type B';-inkscape-font-specification:'GOST type B Italic';fill:#008000"
         id="path175"
         inkscape:connector-curvature="0" />
      <path
         d="m -80.196877,927.7288 q -0.162761,0.8138 -0.865886,1.41276 -0.703125,0.59245 -1.542968,0.59245 h -0.546875 q -0.813802,0 -1.295573,-0.57943 -0.475261,-0.57943 -0.30599,-1.42578 l 0.46875,-2.36979 q 0.162761,-0.80078 0.865886,-1.39974 0.709635,-0.60547 1.542968,-0.60547 h 0.546875 q 0.813802,0 1.289063,0.58594 0.481771,0.57943 0.3125,1.41927 z m -0.911459,0 0.46875,-2.36979 q 0.09115,-0.44922 -0.16276,-0.76823 -0.247396,-0.32552 -0.709635,-0.32552 h -0.546875 q -0.449219,0 -0.839844,0.31901 -0.384115,0.31901 -0.475261,0.77474 l -0.46875,2.36979 q -0.09115,0.44922 0.162761,0.77474 0.253906,0.31901 0.709635,0.31901 h 0.546875 q 0.442709,0 0.826823,-0.3125 0.390625,-0.3125 0.488281,-0.78125 z"
         style="font-style:italic;font-variant:normal;font-weight:normal;font-stretch:normal;font-size:13.33333302px;font-family:'GOST type B';-inkscape-font-specification:'GOST type B Italic';fill:#008000"
         id="path177"
         inkscape:connector-curvature="0" />
      <path
         d="m -74.129168,929.27828 q -0.04557,0.21484 -0.201823,0.34505 -0.143229,0.11068 -0.345052,0.11068 -0.182292,0 -0.299479,-0.11068 -0.110678,-0.11719 -0.06511,-0.34505 l 0.820313,-4.10156 q 0.07813,-0.38412 -0.130208,-0.64453 -0.201823,-0.26693 -0.598959,-0.26693 h -1.822916 l -1.002605,5.01302 q -0.04557,0.21484 -0.201822,0.34505 -0.14323,0.11068 -0.345053,0.11068 -0.182291,0 -0.299479,-0.11068 -0.110677,-0.11719 -0.0651,-0.34505 l 1.09375,-5.46875 q 0.09115,-0.45573 0.546875,-0.45573 h 2.278646 q 0.742187,0 1.171875,0.53385 0.436198,0.52735 0.286458,1.28907 z"
         style="font-style:italic;font-variant:normal;font-weight:normal;font-stretch:normal;font-size:13.33333302px;font-family:'GOST type B';-inkscape-font-specification:'GOST type B Italic';fill:#008000"
         id="path179"
         inkscape:connector-curvature="0" />
      <path
         d="m -66.94167,923.8551 q -0.403645,-0.20182 -0.904948,-0.33854 -0.501302,-0.14323 -0.95052,-0.14323 -1.028646,0 -1.894532,0.52084 -0.208333,0.11067 -0.449218,0.43619 -0.188802,0.27995 -0.240886,0.56641 -0.03906,0.1888 -0.03906,0.30599 0,0.11719 0.05208,0.27344 0.05859,0.27343 0.273438,0.43619 l 2.539062,1.91407 q 0.130208,0.0977 0.08464,0.3125 -0.03906,0.20833 -0.208334,0.29948 -0.677083,0.3776 -1.354166,0.3776 -0.748698,0 -1.367188,-0.39714 l -0.09766,-0.0391 -0.123698,-0.0195 q -0.175781,0 -0.345052,0.14323 l -0.07162,0.0716 -0.0651,0.0977 -0.0651,0.16927 q -0.04557,0.23438 0.175781,0.38412 0.800781,0.5013 1.783854,0.5013 1.002604,0 1.881511,-0.52083 0.286458,-0.15625 0.488281,-0.45573 0.208333,-0.29948 0.273437,-0.60547 0.05208,-0.27344 -0.02604,-0.5599 -0.07813,-0.29297 -0.3125,-0.51432 l -2.526042,-1.91406 q -0.117187,-0.0781 -0.08464,-0.25391 0.03255,-0.15625 0.188802,-0.26693 0.585937,-0.35156 1.341146,-0.35156 0.735677,0 1.471354,0.39063 l 0.214843,0.0521 q 0.14323,0 0.3125,-0.13672 0.175782,-0.14323 0.214844,-0.33203 0.04557,-0.23438 -0.169271,-0.40365 z"
         style="font-style:italic;font-variant:normal;font-weight:normal;font-stretch:normal;font-size:13.33333302px;font-family:'GOST type B';-inkscape-font-specification:'GOST type B Italic';fill:#008000"
         id="path181"
         inkscape:connector-curvature="0" />
      <path
         d="m -62.918233,923.3538 h 1.367187 q 0.188802,0 0.292969,0.14323 0.104167,0.13672 0.07161,0.3125 -0.03255,0.15625 -0.175781,0.30599 -0.143229,0.14974 -0.371094,0.14974 h -1.367187 l -1.002604,5.01302 q -0.04557,0.21484 -0.201823,0.34505 -0.143229,0.11068 -0.345052,0.11068 -0.182292,0 -0.299479,-0.11068 -0.110677,-0.11719 -0.0651,-0.34505 l 1.002604,-5.01302 h -0.455729 q -0.208334,0 -0.3125,-0.13021 -0.09115,-0.13672 -0.05208,-0.32552 0.03255,-0.16276 0.182292,-0.30599 0.149739,-0.14974 0.364583,-0.14974 h 0.455729 l 0.45573,-2.27865 q 0.03906,-0.18229 0.201822,-0.33854 0.162761,-0.11718 0.345052,-0.11718 0.175782,0 0.292969,0.11718 0.117188,0.11068 0.07161,0.33854 z"
         style="font-style:italic;font-variant:normal;font-weight:normal;font-stretch:normal;font-size:13.33333302px;font-family:'GOST type B';-inkscape-font-specification:'GOST type B Italic';fill:#008000"
         id="path183"
         inkscape:connector-curvature="0" />
    </g>
    <path
       style="fill:#ffeeaa;fill-opacity:1;stroke:#ffeeaa;stroke-width:0.17219569;stroke-linecap:round;stroke-linejoin:round;stroke-miterlimit:4;stroke-dasharray:none;stroke-dashoffset:0;stroke-opacity:1;paint-order:normal"
       d="m 95.176628,92.354029 c -0.09466,-0.09466 -0.17211,-17.38885 -0.17211,-38.431535 V 15.66307 l 4.453337,0.02341 c 2.449335,0.01287 8.577515,-0.0742 13.618175,-0.193491 9.02202,-0.213517 10.45423,-0.160421 16.78069,0.622102 6.27553,0.776223 12.46429,1.640262 14.06996,1.964364 2.14725,0.43342 4.203,0.762975 7.87402,1.262273 7.77971,1.058125 10.82123,1.813883 12.09652,3.005753 0.44644,0.417227 0.8117,0.84 0.8117,0.939495 0,0.216539 -68.9935,69.239167 -69.209947,69.239167 -0.08263,0 -0.227685,-0.07745 -0.322345,-0.17211 z"
       id="path1011"
       inkscape:connector-curvature="0"
       transform="translate(0,863.38576)" />
    <path
       style="fill:#ffeeaa;fill-opacity:1;stroke:#ffeeaa;stroke-width:0.17219569;stroke-linecap:round;stroke-linejoin:round;stroke-miterlimit:4;stroke-dasharray:none;stroke-dashoffset:0;stroke-opacity:1;paint-order:normal"
       d="M 98.489738,93.922401 C 99.70137,93.396933 169.4957,65.736816 169.53,65.768511 c 0.0248,0.02289 -0.0575,4.126828 -0.18292,9.119858 -0.13743,5.4731 -0.1329,10.700919 0.0114,13.16438 0.13165,2.247379 0.24301,4.521796 0.24746,5.05426 l 0.008,0.968117 -35.69123,-0.02038 c -19.63018,-0.01121 -35.575062,-0.07076 -35.433072,-0.132343 z"
       id="path1013"
       inkscape:connector-curvature="0"
       transform="translate(0,863.38576)" />
    <path
       style="fill:#ffeeaa;fill-opacity:1;stroke:#ffeeaa;stroke-width:0.17219569;stroke-linecap:round;stroke-linejoin:round;stroke-miterlimit:4;stroke-dasharray:none;stroke-dashoffset:0;stroke-opacity:1;paint-order:normal"
       d="m 74.867691,182.19225 c -1.64251,-0.2667 -4.109542,-0.97026 -8.142489,-2.32211 l -4.378487,-1.46767 -5.815149,-0.10959 c -3.555405,-0.067 -6.715537,0.006 -8.13218,0.18785 -8.311016,1.06685 -16.463755,1.32889 -20.77579,0.66775 -4.026387,-0.61734 -7.273881,-1.15406 -8.703402,-1.43842 -1.406549,-0.2798 -4.057852,-1.35015 -4.295052,-1.73394 -0.209398,-0.33882 78.719355,-79.160281 79.058276,-78.950815 0.21052,0.130109 0.288442,11.256825 0.288442,41.187855 v 41.00958 l -1.871692,0.29565 c -2.287737,0.36137 -4.211682,0.78496 -7.422228,1.63414 -1.348909,0.35678 -3.721609,0.77607 -5.272668,0.93177 -2.847402,0.28581 -3.366243,0.29815 -4.537581,0.10795 z"
       id="path1015"
       inkscape:connector-curvature="0"
       transform="translate(0,863.38576)" />
    <path
       style="fill:#ffeeaa;fill-opacity:1;stroke:#ffeeaa;stroke-width:0.17219569;stroke-linecap:round;stroke-linejoin:round;stroke-miterlimit:4;stroke-dasharray:none;stroke-dashoffset:0;stroke-opacity:1;paint-order:normal"
       d="m 12.296056,125.41245 c 0.371066,-1.87203 0.198903,-11.66339 -0.248499,-14.13282 -0.344884,-1.90357 -0.387088,-3.47224 -0.251782,-9.35846 l 0.162553,-7.071551 39.909567,0.01636 c 24.593009,0.01008 39.682235,0.107599 39.317222,0.25409 -8.004949,3.21263 -78.287523,31.073501 -78.617842,31.165071 -0.419002,0.11616 -0.448446,0.0214 -0.271219,-0.87269 z"
       id="path1017"
       inkscape:connector-curvature="0"
       transform="translate(0,863.38576)" />
    <path
       style="fill:none;stroke:#008000;stroke-width:1px;stroke-linecap:butt;stroke-linejoin:miter;stroke-opacity:1"
       d="m 7.7449376,937.22079 161.3527824,0"
       id="path137"
       inkscape:connector-curvature="0"
       sodipodi:nodetypes="cc" />
    <path
       inkscape:connector-curvature="0"
       id="path139"
       d="M 12.391898,987.04653 H 169.09772"
       style="fill:none;stroke:#008000;stroke-width:1px;stroke-linecap:butt;stroke-linejoin:miter;stroke-opacity:1" />
    <g
       aria-label="a=x"
       style="font-style:italic;font-variant:normal;font-weight:normal;font-stretch:normal;font-size:13.33333302px;line-height:13.33333302px;font-family:Arial;-inkscape-font-specification:'Arial Italic';text-align:start;letter-spacing:0px;word-spacing:0px;text-anchor:start;fill:#ff0000;fill-opacity:1;stroke:none"
       id="text143"
       transform="rotate(-45.44002,-37.150696,657.91932)">
      <path
         d="m -96.536759,958.63265 0.729167,-3.64583 h -1.822917 q -0.384114,0 -0.703124,0.26041 -0.15625,0.13021 -0.253907,0.29948 -0.09766,0.16276 -0.136718,0.35156 l -0.546875,2.73438 q -0.07813,0.38411 0.130208,0.65104 0.110677,0.11719 0.253906,0.19531 0.182292,0.0651 0.345052,0.0651 h 0.911458 q 0.377605,0 0.696615,-0.25391 0.31901,-0.2539 0.397135,-0.65755 z m 0.201823,1.22396 q -0.266927,0.2539 -0.683593,0.42969 -0.416667,0.16927 -0.794271,0.16927 h -0.911458 q -0.735678,0 -1.178386,-0.52735 -0.436196,-0.52734 -0.279946,-1.29557 l 0.546873,-2.73438 q 0.14974,-0.7552 0.787761,-1.28906 0.644531,-0.53385 1.399739,-0.53385 h 2.278646 q 0.455729,0 0.364583,0.45573 l -0.820312,4.09505 q -0.05208,0.27344 0.0651,0.5599 0.104167,0.2539 0.377604,0.39713 0.260417,0.11719 0.201823,0.41016 -0.03906,0.20182 -0.195312,0.33203 -0.14323,0.13672 -0.351563,0.13672 -0.09766,0 -0.182292,-0.0456 -0.410156,-0.17578 -0.625,-0.55989 z"
         style="font-style:italic;font-variant:normal;font-weight:normal;font-stretch:normal;font-size:13.33333302px;font-family:'GOST type B';-inkscape-font-specification:'GOST type B Italic';fill:#ff0000"
         id="path145"
         inkscape:connector-curvature="0" />
      <path
         d="m -89.245092,956.354 h -3.645833 q -0.208334,0 -0.3125,-0.1302 -0.09115,-0.13672 -0.05208,-0.32553 0.03255,-0.16276 0.182292,-0.30598 0.149739,-0.14974 0.364583,-0.14974 h 3.645833 q 0.188803,0 0.292969,0.14322 0.104167,0.13672 0.07161,0.3125 -0.03255,0.15625 -0.175781,0.30599 -0.14323,0.14974 -0.371093,0.14974 z m -0.455729,2.27865 h -3.645834 q -0.208333,0 -0.3125,-0.13021 -0.09114,-0.13672 -0.05208,-0.32552 0.03255,-0.16276 0.182292,-0.30599 0.149739,-0.14974 0.364583,-0.14974 h 3.645833 q 0.188802,0 0.292969,0.14323 0.104167,0.13672 0.07161,0.3125 -0.03255,0.15625 -0.175782,0.30599 -0.143229,0.14974 -0.371093,0.14974 z"
         style="font-style:italic;font-variant:normal;font-weight:normal;font-stretch:normal;font-size:13.33333302px;font-family:'GOST type B';-inkscape-font-specification:'GOST type B Italic';fill:#ff0000"
         id="path147"
         inkscape:connector-curvature="0" />
      <path
         d="m -84.316707,957.26546 1.158854,2.48047 0.03906,0.13672 -0.01302,0.1237 q -0.03906,0.17578 -0.208334,0.31901 l -0.08463,0.0586 -0.104167,0.0456 -0.175781,0.026 q -0.188802,0 -0.325521,-0.20183 l -1.002604,-2.16145 -1.875,2.16145 q -0.175781,0.20834 -0.416667,0.20834 -0.143229,0 -0.292968,-0.13672 -0.123698,-0.13672 -0.08464,-0.32552 0.02604,-0.11719 0.130209,-0.25391 l 2.148437,-2.48047 -1.158854,-2.48047 -0.03906,-0.13672 0.01302,-0.12369 q 0.03906,-0.17578 0.201823,-0.3125 0.162761,-0.13672 0.371094,-0.13672 0.188802,0 0.325521,0.20182 l 1.002604,2.16146 1.875,-2.16146 q 0.175781,-0.20833 0.416667,-0.20833 0.136718,0 0.299479,0.13672 0.117187,0.14323 0.07813,0.32552 -0.02604,0.11718 -0.130209,0.2539 z"
         style="font-style:italic;font-variant:normal;font-weight:normal;font-stretch:normal;font-size:13.33333302px;font-family:'GOST type B';-inkscape-font-specification:'GOST type B Italic';fill:#ff0000"
         id="path149"
         inkscape:connector-curvature="0" />
    </g>
    <g
       aria-label="a=x/4"
       style="font-style:italic;font-variant:normal;font-weight:normal;font-stretch:normal;font-size:16px;line-height:13.33333302px;font-family:Arial;-inkscape-font-specification:'Arial Italic';text-align:start;letter-spacing:0px;word-spacing:0px;text-anchor:start;fill:#000000;fill-opacity:1;stroke:none"
       id="text154"
       transform="rotate(-22.749994,22.393839,645.39745)">
      <path
         d="m -97.311249,955.53469 0.729167,-3.64583 h -1.822917 q -0.384114,0 -0.703125,0.26041 -0.15625,0.13021 -0.253906,0.29948 -0.09766,0.16276 -0.136719,0.35156 l -0.546871,2.73438 q -0.0781,0.38411 0.130204,0.65104 0.110678,0.11719 0.253907,0.19531 0.182291,0.0651 0.345052,0.0651 h 0.911458 q 0.377604,0 0.696615,-0.25391 0.31901,-0.25391 0.397135,-0.65755 z m 0.201823,1.22396 q -0.266927,0.2539 -0.683594,0.42968 -0.416666,0.16927 -0.794271,0.16927 h -0.911458 q -0.735681,0 -1.178381,-0.52734 -0.4362,-0.52734 -0.27995,-1.29557 l 0.54687,-2.73438 q 0.14974,-0.7552 0.787763,-1.28906 0.644531,-0.53385 1.39974,-0.53385 h 2.278646 q 0.455729,0 0.364583,0.45573 l -0.820313,4.09505 q -0.05208,0.27344 0.0651,0.55989 0.104166,0.25391 0.377604,0.39714 0.260416,0.11719 0.201823,0.41016 -0.03906,0.20182 -0.195313,0.33203 -0.143229,0.13672 -0.351562,0.13672 -0.09766,0 -0.182292,-0.0456 -0.410156,-0.17578 -0.625,-0.55989 z"
         style="font-style:italic;font-variant:normal;font-weight:normal;font-stretch:normal;font-size:13.33333302px;font-family:'GOST type B';-inkscape-font-specification:'GOST type B Italic';fill:#0000ff"
         id="path156"
         inkscape:connector-curvature="0" />
      <path
         d="m -90.019583,953.25604 h -3.645833 q -0.208333,0 -0.3125,-0.13021 -0.09115,-0.13671 -0.05208,-0.32552 0.03255,-0.16276 0.182292,-0.30599 0.149739,-0.14974 0.364583,-0.14974 h 3.645833 q 0.188802,0 0.292969,0.14323 0.104166,0.13672 0.07161,0.3125 -0.03255,0.15625 -0.175781,0.30599 -0.143229,0.14974 -0.371093,0.14974 z m -0.455729,2.27865 h -3.645833 q -0.208333,0 -0.3125,-0.13021 -0.09115,-0.13672 -0.05208,-0.32552 0.03255,-0.16276 0.182291,-0.30599 0.14974,-0.14974 0.364584,-0.14974 h 3.645833 q 0.188802,0 0.292969,0.14323 0.104166,0.13672 0.07161,0.3125 -0.03255,0.15625 -0.175781,0.30599 -0.143229,0.14974 -0.371093,0.14974 z"
         style="font-style:italic;font-variant:normal;font-weight:normal;font-stretch:normal;font-size:13.33333302px;font-family:'GOST type B';-inkscape-font-specification:'GOST type B Italic';fill:#0000ff"
         id="path158"
         inkscape:connector-curvature="0" />
      <path
         d="m -85.091197,954.1675 1.158854,2.48047 0.03906,0.13672 -0.01302,0.1237 q -0.03906,0.17578 -0.208333,0.31901 l -0.08463,0.0586 -0.104167,0.0456 -0.175781,0.026 q -0.188802,0 -0.325521,-0.20182 l -1.002604,-2.16146 -1.875,2.16146 q -0.175781,0.20834 -0.416667,0.20834 -0.143229,0 -0.292969,-0.13672 -0.123698,-0.13672 -0.08463,-0.32552 0.02604,-0.11719 0.130208,-0.25391 l 2.148438,-2.48047 -1.158854,-2.48047 -0.03906,-0.13672 0.01302,-0.12369 q 0.03906,-0.17579 0.201823,-0.3125 0.16276,-0.13672 0.371094,-0.13672 0.188802,0 0.32552,0.20182 l 1.002605,2.16146 1.875,-2.16146 q 0.175781,-0.20833 0.416666,-0.20833 0.136719,0 0.299479,0.13672 0.117188,0.14322 0.07813,0.32552 -0.02604,0.11718 -0.130208,0.2539 z"
         style="font-style:italic;font-variant:normal;font-weight:normal;font-stretch:normal;font-size:13.33333302px;font-family:'GOST type B';-inkscape-font-specification:'GOST type B Italic';fill:#0000ff"
         id="path160"
         inkscape:connector-curvature="0" />
      <path
         d="m -74.036509,946.12714 -7.565104,12.76041 q -0.06511,0.10417 -0.201823,0.20834 l -0.136719,0.0586 -0.130208,0.026 q -0.195313,0 -0.3125,-0.1237 -0.117188,-0.12369 -0.07813,-0.32552 0.01953,-0.10416 0.0651,-0.16927 l 7.565104,-12.76041 q 0.05208,-0.0977 0.195312,-0.20834 l 0.09766,-0.0456 q 0.08464,-0.0391 0.175781,-0.0391 0.195312,0 0.3125,0.12369 0.117187,0.1237 0.07813,0.32553 -0.01953,0.10416 -0.0651,0.16927 z"
         style="font-style:italic;font-variant:normal;font-weight:normal;font-stretch:normal;font-size:13.33333302px;font-family:'GOST type B';-inkscape-font-specification:'GOST type B Italic';fill:#0000ff"
         id="path162"
         inkscape:connector-curvature="0" />
      <path
         d="m -69.329478,954.62323 h 0.911458 q 0.188802,0 0.292969,0.14323 0.104167,0.13672 0.07161,0.3125 -0.03255,0.15625 -0.175782,0.30599 -0.143229,0.14974 -0.371093,0.14974 h -0.911459 l -0.273437,1.36719 q -0.04557,0.21484 -0.201823,0.34505 -0.143229,0.11067 -0.345052,0.11067 -0.182292,0 -0.299479,-0.11067 -0.110677,-0.11719 -0.0651,-0.34505 l 0.273438,-1.36719 h -2.734375 q -0.47526,0 -0.403646,-0.3711 l 0.03906,-0.11067 0.04557,-0.10417 3.098958,-6.3737 q 0.0651,-0.13672 0.201823,-0.24739 l 0.09766,-0.0456 q 0.08464,-0.0391 0.182292,-0.0391 0.201823,0 0.305989,0.13021 0.117188,0.1237 0.07813,0.31901 l -0.04557,0.13672 -2.81901,5.79427 h 2.135417 l 0.273437,-1.36719 q 0.03906,-0.18229 0.201823,-0.33854 0.16276,-0.11719 0.345052,-0.11719 0.175781,0 0.292969,0.11719 0.117187,0.11068 0.07161,0.33854 z"
         style="font-style:italic;font-variant:normal;font-weight:normal;font-stretch:normal;font-size:13.33333302px;font-family:'GOST type B';-inkscape-font-specification:'GOST type B Italic';fill:#0000ff"
         id="path164"
         inkscape:connector-curvature="0" />
    </g>
    <g
       id="g888"
       transform="translate(50.548598,-113.05017)">
      <circle
         style="fill:#ffe6d5;fill-opacity:1;stroke:#000000;stroke-width:0.53649032;stroke-linecap:round;stroke-linejoin:round;stroke-miterlimit:4;stroke-dasharray:none;stroke-dashoffset:0;stroke-opacity:1;paint-order:stroke fill markers"
         id="circle855"
         cx="67.69072"
         cy="1000.626"
         r="5.796339" />
      <text
         xml:space="preserve"
         style="font-style:normal;font-variant:normal;font-weight:normal;font-stretch:normal;font-size:10.66666698px;line-height:13.33333302px;font-family:Arial;-inkscape-font-specification:Arial;text-align:start;letter-spacing:0px;word-spacing:0px;text-anchor:start;fill:#000000;fill-opacity:1;stroke:none"
         x="64.84478"
         y="1004.4592"
         id="text853"><tspan
           sodipodi:role="line"
           id="tspan851"
           x="64.84478"
           y="1004.4592">2</tspan></text>
    </g>
    <g
       id="g103"
       transform="translate(92.6294,-52.639685)">
      <circle
         style="fill:#ffe6d5;fill-opacity:1;stroke:#000000;stroke-width:0.53649032;stroke-linecap:round;stroke-linejoin:round;stroke-miterlimit:4;stroke-dasharray:none;stroke-dashoffset:0;stroke-opacity:1;paint-order:stroke fill markers"
         id="circle97"
         cx="67.69072"
         cy="1000.626"
         r="5.796339" />
      <text
         xml:space="preserve"
         style="font-style:normal;font-variant:normal;font-weight:normal;font-stretch:normal;font-size:10.66666698px;line-height:13.33333302px;font-family:Arial;-inkscape-font-specification:Arial;text-align:start;letter-spacing:0px;word-spacing:0px;text-anchor:start;fill:#000000;fill-opacity:1;stroke:none"
         x="64.84478"
         y="1004.4592"
         id="text101"><tspan
           sodipodi:role="line"
           id="tspan99"
           x="64.84478"
           y="1004.4592">4</tspan></text>
    </g>
    <g
       id="g119"
       transform="translate(-2.633274,30.489269)">
      <circle
         style="fill:#ffe6d5;fill-opacity:1;stroke:#000000;stroke-width:0.53649032;stroke-linecap:round;stroke-linejoin:round;stroke-miterlimit:4;stroke-dasharray:none;stroke-dashoffset:0;stroke-opacity:1;paint-order:stroke fill markers"
         id="circle113"
         cx="67.69072"
         cy="1000.626"
         r="5.796339" />
      <text
         xml:space="preserve"
         style="font-style:normal;font-variant:normal;font-weight:normal;font-stretch:normal;font-size:10.66666698px;line-height:13.33333302px;font-family:Arial;-inkscape-font-specification:Arial;text-align:start;letter-spacing:0px;word-spacing:0px;text-anchor:start;fill:#000000;fill-opacity:1;stroke:none"
         x="64.84478"
         y="1004.4592"
         id="text117"><tspan
           sodipodi:role="line"
           id="tspan115"
           x="64.84478"
           y="1004.4592">6</tspan></text>
    </g>
    <g
       id="g135"
       transform="translate(-57.880471,-28.372227)">
      <circle
         style="fill:#ffe6d5;fill-opacity:1;stroke:#000000;stroke-width:0.53649032;stroke-linecap:round;stroke-linejoin:round;stroke-miterlimit:4;stroke-dasharray:none;stroke-dashoffset:0;stroke-opacity:1;paint-order:stroke fill markers"
         id="circle129"
         cx="67.69072"
         cy="1000.626"
         r="5.796339" />
      <text
         xml:space="preserve"
         style="font-style:normal;font-variant:normal;font-weight:normal;font-stretch:normal;font-size:10.66666698px;line-height:13.33333302px;font-family:Arial;-inkscape-font-specification:Arial;text-align:start;letter-spacing:0px;word-spacing:0px;text-anchor:start;fill:#000000;fill-opacity:1;stroke:none"
         x="64.84478"
         y="1004.4592"
         id="text133"><tspan
           sodipodi:role="line"
           id="tspan131"
           x="64.84478"
           y="1004.4592">8</tspan></text>
    </g>
    <circle
       style="fill:#ffffff;fill-opacity:1;stroke:#000000;stroke-width:0.66666667;stroke-linecap:round;stroke-linejoin:round;stroke-miterlimit:4;stroke-dasharray:none;stroke-dashoffset:0;stroke-opacity:1;paint-order:normal"
       id="path67"
       cx="94.423645"
       cy="958.06763"
       r="2.0100374" />
    <path
       style="fill:none;stroke:#000000;stroke-width:0.4;stroke-linecap:butt;stroke-linejoin:miter;stroke-opacity:1;stroke-miterlimit:4;stroke-dasharray:1.6,1.6;stroke-dashoffset:0"
       d="m 115.39951,936.96263 v 20.91132"
       id="path1031"
       inkscape:connector-curvature="0" />
    <path
       inkscape:connector-curvature="0"
       id="path1033"
       d="m 147.4119,936.96263 v 20.91132"
       style="fill:none;stroke:#000000;stroke-width:0.40000001;stroke-linecap:butt;stroke-linejoin:miter;stroke-miterlimit:4;stroke-dasharray:1.6, 1.6;stroke-dashoffset:0;stroke-opacity:1" />
    <circle
       style="fill:#000000;fill-opacity:1;stroke:none;stroke-width:0.66666669;stroke-linecap:round;stroke-linejoin:round;stroke-miterlimit:4;stroke-dasharray:none;stroke-dashoffset:0;stroke-opacity:1;paint-order:normal"
       id="circle1035"
       cx="19.896023"
       cy="957.72754"
       r="2.0100374" />
    <circle
       r="2.0100374"
       cy="957.72754"
       cx="147.3631"
       id="circle1037"
       style="fill:#000000;fill-opacity:1;stroke:none;stroke-width:0.66666669;stroke-linecap:round;stroke-linejoin:round;stroke-miterlimit:4;stroke-dasharray:none;stroke-dashoffset:0;stroke-opacity:1;paint-order:normal" />
    <g
       aria-label="a"
       style="font-style:italic;font-variant:normal;font-weight:normal;font-stretch:normal;font-size:16px;line-height:13.33333302px;font-family:Arial;-inkscape-font-specification:'Arial Italic';text-align:start;letter-spacing:0px;word-spacing:0px;text-anchor:start;fill:#000000;fill-opacity:1;stroke:none"
       id="text1041"
       transform="translate(0,1.291446)">
      <path
         d="m 116.47306,967.07623 0.65625,-3.28125 h -1.64062 q -0.34571,0 -0.63282,0.23438 -0.14062,0.11719 -0.22851,0.26953 -0.0879,0.14648 -0.12305,0.31641 l -0.49219,2.46093 q -0.0703,0.34571 0.11719,0.58594 0.0996,0.10547 0.22852,0.17578 0.16406,0.0586 0.31054,0.0586 h 0.82032 q 0.33984,0 0.62695,-0.22852 0.28711,-0.22852 0.35742,-0.5918 z m 0.18164,1.10157 q -0.24023,0.22851 -0.61523,0.38671 -0.375,0.15235 -0.71485,0.15235 h -0.82031 q -0.66211,0 -1.06055,-0.47461 -0.39257,-0.47461 -0.25195,-1.16602 l 0.49219,-2.46093 q 0.13476,-0.67969 0.70898,-1.16016 0.58008,-0.48047 1.25977,-0.48047 h 2.05078 q 0.41016,0 0.32812,0.41016 l -0.73828,3.68554 q -0.0469,0.2461 0.0586,0.50391 0.0937,0.22852 0.33984,0.35742 0.23438,0.10547 0.18164,0.36914 -0.0352,0.18164 -0.17578,0.29883 -0.12891,0.12305 -0.31641,0.12305 -0.0879,0 -0.16406,-0.041 -0.36914,-0.1582 -0.5625,-0.5039 z"
         style="font-style:italic;font-variant:normal;font-weight:normal;font-stretch:normal;font-size:12px;font-family:'GOST type B';-inkscape-font-specification:'GOST type B Italic'"
         id="path1054"
         inkscape:connector-curvature="0" />
    </g>
    <g
       aria-label="4a"
       style="font-style:italic;font-variant:normal;font-weight:normal;font-stretch:normal;font-size:16px;line-height:13.33333302px;font-family:Arial;-inkscape-font-specification:'Arial Italic';text-align:start;letter-spacing:0px;word-spacing:0px;text-anchor:start;fill:#000000;fill-opacity:1;stroke:none"
       id="text1045"
       transform="translate(238.80211,18.329676)">
      <path
         d="m -94.866076,948.9436 h 0.911458 q 0.188802,0 0.292969,0.14323 0.104166,0.13672 0.07161,0.3125 -0.03255,0.15625 -0.175781,0.30599 -0.143229,0.14974 -0.371094,0.14974 h -0.911458 l -0.273437,1.36719 q -0.04557,0.21484 -0.201823,0.34505 -0.14323,0.11068 -0.345052,0.11068 -0.182292,0 -0.29948,-0.11068 -0.110677,-0.11719 -0.0651,-0.34505 l 0.273438,-1.36719 h -2.734375 q -0.475261,0 -0.403646,-0.37109 l 0.03906,-0.11068 0.04557,-0.10417 3.098959,-6.37369 q 0.0651,-0.13672 0.201823,-0.2474 l 0.09766,-0.0456 q 0.08463,-0.0391 0.182291,-0.0391 0.201823,0 0.30599,0.1302 0.117188,0.1237 0.07813,0.31901 l -0.04557,0.13672 -2.81901,5.79427 h 2.135416 l 0.273438,-1.36718 q 0.03906,-0.1823 0.201823,-0.33855 0.16276,-0.11718 0.345052,-0.11718 0.175781,0 0.292969,0.11718 0.117187,0.11068 0.07161,0.33855 z"
         style="font-style:italic;font-variant:normal;font-weight:normal;font-stretch:normal;font-size:13.33333302px;font-family:'GOST type B';-inkscape-font-specification:'GOST type B Italic'"
         id="path1049"
         inkscape:connector-curvature="0" />
      <path
         d="m -88.212431,949.85506 0.729167,-3.64583 h -1.822917 q -0.384114,0 -0.703125,0.26042 -0.15625,0.1302 -0.253906,0.29947 -0.09766,0.16276 -0.136719,0.35157 l -0.546875,2.73437 q -0.07813,0.38412 0.130209,0.65104 0.110677,0.11719 0.253906,0.19532 0.182292,0.0651 0.345052,0.0651 h 0.911458 q 0.377605,0 0.696615,-0.25391 0.31901,-0.2539 0.397135,-0.65755 z m 0.201823,1.22396 q -0.266927,0.25391 -0.683593,0.42969 -0.416667,0.16927 -0.794271,0.16927 h -0.911459 q -0.735677,0 -1.178385,-0.52735 -0.436198,-0.52734 -0.279948,-1.29557 l 0.546875,-2.73437 q 0.14974,-0.75521 0.787761,-1.28907 0.644531,-0.53385 1.399739,-0.53385 h 2.278646 q 0.455729,0 0.364583,0.45573 l -0.820312,4.09505 q -0.05208,0.27344 0.0651,0.5599 0.104167,0.2539 0.377604,0.39713 0.260417,0.11719 0.201823,0.41016 -0.03906,0.20182 -0.195313,0.33203 -0.143229,0.13672 -0.351562,0.13672 -0.09766,0 -0.182292,-0.0456 -0.410156,-0.17579 -0.625,-0.5599 z"
         style="font-style:italic;font-variant:normal;font-weight:normal;font-stretch:normal;font-size:13.33333302px;font-family:'GOST type B';-inkscape-font-specification:'GOST type B Italic'"
         id="path1051"
         inkscape:connector-curvature="0" />
    </g>
    <path
       sodipodi:nodetypes="cc"
       inkscape:connector-curvature="0"
       id="path1059"
       d="m 147.41191,937.22079 33.04505,0"
       style="fill:none;stroke:#008000;stroke-width:2;stroke-linecap:butt;stroke-linejoin:miter;stroke-opacity:1" />
    <circle
       style="fill:#0000ff;fill-opacity:1;stroke:#0000ff;stroke-width:0.66666669;stroke-linecap:round;stroke-linejoin:round;stroke-miterlimit:4;stroke-dasharray:none;stroke-dashoffset:0;stroke-opacity:1;paint-order:normal"
       id="circle1021"
       cx="147.3631"
       cy="937.0744"
       r="2.0100374" />
    <path
       sodipodi:nodetypes="cc"
       inkscape:connector-curvature="0"
       id="path1057"
       d="M 95.004522,937.22079 H 115.65768"
       style="fill:none;stroke:#008000;stroke-width:2;stroke-linecap:butt;stroke-linejoin:miter;stroke-opacity:1" />
    <circle
       r="2.0100374"
       cy="937.0744"
       cx="115.41687"
       id="circle1019"
       style="fill:#ff0000;fill-opacity:1;stroke:#ff0000;stroke-width:0.66666669;stroke-linecap:round;stroke-linejoin:round;stroke-miterlimit:4;stroke-dasharray:none;stroke-dashoffset:0;stroke-opacity:1;paint-order:normal" />
    <circle
       r="2.0100374"
       cy="937.25696"
       cx="94.423645"
       id="circle1027"
       style="fill:#ffffff;fill-opacity:1;stroke:#000000;stroke-width:0.66666669;stroke-linecap:round;stroke-linejoin:round;stroke-miterlimit:4;stroke-dasharray:none;stroke-dashoffset:0;stroke-opacity:1;paint-order:normal" />
    <path
       style="fill:none;stroke:#008000;stroke-width:2;stroke-linecap:butt;stroke-linejoin:miter;stroke-opacity:1"
       d="m 6.7122801,987.04653 13.6827159,0"
       id="path1061"
       inkscape:connector-curvature="0"
       sodipodi:nodetypes="cc" />
    <path
       style="fill:none;stroke:#008000;stroke-width:2;stroke-linecap:butt;stroke-linejoin:miter;stroke-opacity:1"
       d="M 64.799282,987.04653 H 93.971865"
       id="path1063"
       inkscape:connector-curvature="0"
       sodipodi:nodetypes="cc" />
    <circle
       style="fill:#ffffff;fill-opacity:1;stroke:#000000;stroke-width:0.66666669;stroke-linecap:round;stroke-linejoin:round;stroke-miterlimit:4;stroke-dasharray:none;stroke-dashoffset:0;stroke-opacity:1;paint-order:normal"
       id="circle1029"
       cx="94.423645"
       cy="986.91052"
       r="2.0100374" />
    <path
       inkscape:connector-curvature="0"
       id="path97"
       d="m 65.315607,958.13212 v 28.13992"
       style="fill:none;stroke:#000000;stroke-width:0.40000001;stroke-linecap:butt;stroke-linejoin:miter;stroke-miterlimit:4;stroke-dasharray:1.6, 1.6;stroke-dashoffset:0;stroke-opacity:1"
       sodipodi:nodetypes="cc" />
    <path
       sodipodi:nodetypes="cc"
       style="fill:none;stroke:#000000;stroke-width:0.40000001;stroke-linecap:butt;stroke-linejoin:miter;stroke-miterlimit:4;stroke-dasharray:1.6, 1.6;stroke-dashoffset:0;stroke-opacity:1"
       d="m 20.136828,958.13212 v 28.13992"
       id="path99"
       inkscape:connector-curvature="0" />
    <circle
       r="2.0100374"
       cy="987.27563"
       cx="20.490963"
       id="circle1023"
       style="fill:#0000ff;fill-opacity:1;stroke:#0000ff;stroke-width:0.66666669;stroke-linecap:round;stroke-linejoin:round;stroke-miterlimit:4;stroke-dasharray:none;stroke-dashoffset:0;stroke-opacity:1;paint-order:normal" />
    <circle
       style="fill:#ff0000;fill-opacity:1;stroke:#ff0000;stroke-width:0.66666669;stroke-linecap:round;stroke-linejoin:round;stroke-miterlimit:4;stroke-dasharray:none;stroke-dashoffset:0;stroke-opacity:1;paint-order:normal"
       id="circle1025"
       cx="65.215675"
       cy="987.27563"
       r="2.0100374" />
    <circle
       r="2.0100374"
       cy="957.72754"
       cx="65.074799"
       id="circle101"
       style="fill:#000000;fill-opacity:1;stroke:none;stroke-width:0.66666669;stroke-linecap:round;stroke-linejoin:round;stroke-miterlimit:4;stroke-dasharray:none;stroke-dashoffset:0;stroke-opacity:1;paint-order:normal" />
    <g
       transform="translate(-50.600233,-16.005572)"
       id="g105"
       style="font-style:italic;font-variant:normal;font-weight:normal;font-stretch:normal;font-size:16px;line-height:13.33333302px;font-family:Arial;-inkscape-font-specification:'Arial Italic';text-align:start;letter-spacing:0px;word-spacing:0px;text-anchor:start;fill:#000000;fill-opacity:1;stroke:none"
       aria-label="a">
      <path
         inkscape:connector-curvature="0"
         id="path103"
         style="font-style:italic;font-variant:normal;font-weight:normal;font-stretch:normal;font-size:12px;font-family:'GOST type B';-inkscape-font-specification:'GOST type B Italic'"
         d="m 116.47306,967.07623 0.65625,-3.28125 h -1.64062 q -0.34571,0 -0.63282,0.23438 -0.14062,0.11719 -0.22851,0.26953 -0.0879,0.14648 -0.12305,0.31641 l -0.49219,2.46093 q -0.0703,0.34571 0.11719,0.58594 0.0996,0.10547 0.22852,0.17578 0.16406,0.0586 0.31054,0.0586 h 0.82032 q 0.33984,0 0.62695,-0.22852 0.28711,-0.22852 0.35742,-0.5918 z m 0.18164,1.10157 q -0.24023,0.22851 -0.61523,0.38671 -0.375,0.15235 -0.71485,0.15235 h -0.82031 q -0.66211,0 -1.06055,-0.47461 -0.39257,-0.47461 -0.25195,-1.16602 l 0.49219,-2.46093 q 0.13476,-0.67969 0.70898,-1.16016 0.58008,-0.48047 1.25977,-0.48047 h 2.05078 q 0.41016,0 0.32812,0.41016 l -0.73828,3.68554 q -0.0469,0.2461 0.0586,0.50391 0.0937,0.22852 0.33984,0.35742 0.23438,0.10547 0.18164,0.36914 -0.0352,0.18164 -0.17578,0.29883 -0.12891,0.12305 -0.31641,0.12305 -0.0879,0 -0.16406,-0.041 -0.36914,-0.1582 -0.5625,-0.5039 z" />
    </g>
    <g
       transform="translate(113.85052,1.0326578)"
       id="g112"
       style="font-style:italic;font-variant:normal;font-weight:normal;font-stretch:normal;font-size:16px;line-height:13.33333302px;font-family:Arial;-inkscape-font-specification:'Arial Italic';text-align:start;letter-spacing:0px;word-spacing:0px;text-anchor:start;fill:#000000;fill-opacity:1;stroke:none"
       aria-label="4a">
      <path
         inkscape:connector-curvature="0"
         id="path107"
         style="font-style:italic;font-variant:normal;font-weight:normal;font-stretch:normal;font-size:13.33333302px;font-family:'GOST type B';-inkscape-font-specification:'GOST type B Italic'"
         d="m -94.866076,948.9436 h 0.911458 q 0.188802,0 0.292969,0.14323 0.104166,0.13672 0.07161,0.3125 -0.03255,0.15625 -0.175781,0.30599 -0.143229,0.14974 -0.371094,0.14974 h -0.911458 l -0.273437,1.36719 q -0.04557,0.21484 -0.201823,0.34505 -0.14323,0.11068 -0.345052,0.11068 -0.182292,0 -0.29948,-0.11068 -0.110677,-0.11719 -0.0651,-0.34505 l 0.273438,-1.36719 h -2.734375 q -0.475261,0 -0.403646,-0.37109 l 0.03906,-0.11068 0.04557,-0.10417 3.098959,-6.37369 q 0.0651,-0.13672 0.201823,-0.2474 l 0.09766,-0.0456 q 0.08463,-0.0391 0.182291,-0.0391 0.201823,0 0.30599,0.1302 0.117188,0.1237 0.07813,0.31901 l -0.04557,0.13672 -2.81901,5.79427 h 2.135416 l 0.273438,-1.36718 q 0.03906,-0.1823 0.201823,-0.33855 0.16276,-0.11718 0.345052,-0.11718 0.175781,0 0.292969,0.11718 0.117187,0.11068 0.07161,0.33855 z" />
      <path
         inkscape:connector-curvature="0"
         id="path109"
         style="font-style:italic;font-variant:normal;font-weight:normal;font-stretch:normal;font-size:13.33333302px;font-family:'GOST type B';-inkscape-font-specification:'GOST type B Italic'"
         d="m -88.212431,949.85506 0.729167,-3.64583 h -1.822917 q -0.384114,0 -0.703125,0.26042 -0.15625,0.1302 -0.253906,0.29947 -0.09766,0.16276 -0.136719,0.35157 l -0.546875,2.73437 q -0.07813,0.38412 0.130209,0.65104 0.110677,0.11719 0.253906,0.19532 0.182292,0.0651 0.345052,0.0651 h 0.911458 q 0.377605,0 0.696615,-0.25391 0.31901,-0.2539 0.397135,-0.65755 z m 0.201823,1.22396 q -0.266927,0.25391 -0.683593,0.42969 -0.416667,0.16927 -0.794271,0.16927 h -0.911459 q -0.735677,0 -1.178385,-0.52735 -0.436198,-0.52734 -0.279948,-1.29557 l 0.546875,-2.73437 q 0.14974,-0.75521 0.787761,-1.28907 0.644531,-0.53385 1.399739,-0.53385 h 2.278646 q 0.455729,0 0.364583,0.45573 l -0.820312,4.09505 q -0.05208,0.27344 0.0651,0.5599 0.104167,0.2539 0.377604,0.39713 0.260417,0.11719 0.201823,0.41016 -0.03906,0.20182 -0.195313,0.33203 -0.143229,0.13672 -0.351562,0.13672 -0.09766,0 -0.182292,-0.0456 -0.410156,-0.17579 -0.625,-0.5599 z" />
    </g>
  </g>
</svg>
