<?xml version="1.0" encoding="UTF-8" standalone="no"?>
<!-- Created with Inkscape (http://www.inkscape.org/) -->

<svg
   xmlns:dc="http://purl.org/dc/elements/1.1/"
   xmlns:cc="http://creativecommons.org/ns#"
   xmlns:rdf="http://www.w3.org/1999/02/22-rdf-syntax-ns#"
   xmlns:svg="http://www.w3.org/2000/svg"
   xmlns="http://www.w3.org/2000/svg"
   xmlns:sodipodi="http://sodipodi.sourceforge.net/DTD/sodipodi-0.dtd"
   xmlns:inkscape="http://www.inkscape.org/namespaces/inkscape"
   width="50mm"
   height="30mm"
   id="svg2"
   version="1.1"
   inkscape:version="0.92.4 (5da689c313, 2019-01-14)"
   sodipodi:docname="08-11.svg"
   inkscape:export-filename="/home/goldin/Documents/Математика/0-МЭ/Рабочий план/svg/06-01.png"
   inkscape:export-xdpi="599.94806"
   inkscape:export-ydpi="599.94806">
  <defs
     id="defs4">
    <marker
       inkscape:stockid="Arrow1Lend"
       orient="auto"
       refY="0"
       refX="0"
       id="Arrow1Lend"
       style="overflow:visible">
      <path
         id="path3786"
         d="M 0,0 5,-5 -12.5,0 5,5 Z"
         style="fill-rule:evenodd;stroke:#000000;stroke-width:1.00000003pt"
         transform="matrix(-0.8,0,0,-0.8,-10,0)"
         inkscape:connector-curvature="0" />
    </marker>
    <marker
       inkscape:stockid="Arrow1Mend"
       orient="auto"
       refY="0"
       refX="0"
       id="Arrow1Mend"
       style="overflow:visible">
      <path
         id="path3792"
         d="M 0,0 5,-5 -12.5,0 5,5 Z"
         style="fill-rule:evenodd;stroke:#000000;stroke-width:1.00000003pt"
         transform="matrix(-0.4,0,0,-0.4,-4,0)"
         inkscape:connector-curvature="0" />
    </marker>
  </defs>
  <sodipodi:namedview
     id="base"
     pagecolor="#ffffff"
     bordercolor="#666666"
     borderopacity="1.0"
     inkscape:pageopacity="0.0"
     inkscape:pageshadow="2"
     inkscape:zoom="5.6568542"
     inkscape:cx="72.802215"
     inkscape:cy="54.771463"
     inkscape:document-units="pt"
     inkscape:current-layer="layer1"
     showgrid="false"
     units="mm"
     inkscape:window-width="1920"
     inkscape:window-height="1009"
     inkscape:window-x="0"
     inkscape:window-y="0"
     inkscape:window-maximized="1"
     inkscape:snap-global="false" />
  <metadata
     id="metadata7">
    <rdf:RDF>
      <cc:Work
         rdf:about="">
        <dc:format>image/svg+xml</dc:format>
        <dc:type
           rdf:resource="http://purl.org/dc/dcmitype/StillImage" />
        <dc:title></dc:title>
      </cc:Work>
    </rdf:RDF>
  </metadata>
  <g
     inkscape:label="Layer 1"
     inkscape:groupmode="layer"
     id="layer1"
     transform="translate(0,-938.97631)">
    <path
       style="fill:none;stroke:#000000;stroke-width:0.66666669;stroke-linecap:butt;stroke-linejoin:miter;stroke-opacity:1;marker-end:url(#Arrow1Mend)"
       d="m 11.217312,974.47052 172.198408,0"
       id="path3009"
       inkscape:connector-curvature="0"
       sodipodi:nodetypes="cc" />
    <path
       style="fill:none;stroke:#000000;stroke-width:0.333;stroke-linecap:butt;stroke-linejoin:miter;stroke-miterlimit:4;stroke-dasharray:1.33200002, 0.333;stroke-dashoffset:0;stroke-opacity:1"
       d="M 80.237511,952.91719 H 35.936492"
       id="path87"
       inkscape:connector-curvature="0"
       sodipodi:nodetypes="cc" />
    <path
       sodipodi:nodetypes="cc"
       inkscape:connector-curvature="0"
       id="path3056"
       d="m 37.12068,1046.2307 0,-104.14631"
       style="fill:none;stroke:#000000;stroke-width:0.66666669;stroke-linecap:butt;stroke-linejoin:miter;stroke-opacity:1;marker-end:url(#Arrow1Mend)" />
    <text
       xml:space="preserve"
       style="font-style:italic;font-variant:normal;font-weight:normal;font-stretch:normal;line-height:0%;font-family:'GOST type B';-inkscape-font-specification:'Sans Italic';text-align:start;letter-spacing:0px;word-spacing:0px;text-anchor:start;fill:#000000;fill-opacity:1;stroke:none"
       x="172.58293"
       y="985.15417"
       id="text3846"><tspan
         sodipodi:role="line"
         id="tspan3848"
         x="172.58293"
         y="985.15417"
         style="font-size:14px;line-height:1.25">x</tspan></text>
    <text
       xml:space="preserve"
       style="font-style:italic;font-variant:normal;font-weight:normal;font-stretch:normal;line-height:0%;font-family:'GOST type B';-inkscape-font-specification:'Sans Italic';text-align:start;letter-spacing:0px;word-spacing:0px;text-anchor:start;fill:#000000;fill-opacity:1;stroke:none"
       x="39.776051"
       y="948.07434"
       id="text3850"><tspan
         sodipodi:role="line"
         id="tspan3852"
         x="39.776051"
         y="948.07434"
         style="font-size:14px;line-height:1.25">a</tspan></text>
    <text
       id="text864"
       y="973.28998"
       x="123.46992"
       style="font-style:italic;font-variant:normal;font-weight:normal;font-stretch:normal;line-height:0%;font-family:'GOST type B';-inkscape-font-specification:'Sans Italic';text-align:start;letter-spacing:0px;word-spacing:0px;text-anchor:start;fill:#000000;fill-opacity:1;stroke:none"
       xml:space="preserve"><tspan
         style="font-style:normal;font-variant:normal;font-weight:normal;font-stretch:normal;font-size:12px;line-height:1.25;font-family:'GOST type B';-inkscape-font-specification:'GOST type B'"
         y="973.28998"
         x="123.46992"
         id="tspan862"
         sodipodi:role="line">1</tspan></text>
    <path
       style="fill:none;stroke:#ffeeaa;stroke-width:1px;stroke-linecap:butt;stroke-linejoin:miter;stroke-opacity:1"
       d="m 96.646845,1045.8292 c 0.09571,-0.086 0.191411,-0.1719 0.287117,-0.2579 0.03651,0 0.07687,0.016 0.10953,0 0.04618,-0.023 0.06055,-0.093 0.10953,-0.1095 0.128947,-0.043 0.511847,0.036 0.657179,0 0.158402,-0.04 0.278013,-0.1871 0.43812,-0.2191 0.1063,-0.021 0.746271,0 0.876239,0 0.328589,0 0.657179,0 0.98577,0 0.10953,0 0.21906,0 0.32859,0 0.10953,0 0.22055,-0.018 0.32859,0 0.11388,0.019 0.2147,0.091 0.32859,0.1095 0.10804,0.018 0.21906,0 0.32859,0 0.25557,0 0.51114,0 0.76671,0 0.7302,0 1.4604,0 2.19059,0 0.21906,0 0.43812,0 0.65718,0 0.10953,0 0.22233,-0.027 0.32859,0 0.0792,0.02 0.13986,0.09 0.21906,0.1096 0.16397,0.041 0.48378,-0.035 0.65718,0 0.11322,0.023 0.21471,0.091 0.32859,0.1095 0.21608,0.036 0.44238,-0.043 0.65718,0 0.0801,0.016 0.13901,0.093 0.21906,0.1095 0.25643,0.051 0.29123,-0.051 0.54765,0 0.90056,0.3002 -0.23091,-0.039 0.65718,0.1095 0.11388,0.019 0.21403,0.095 0.32859,0.1096 0.18114,0.023 0.36622,-0.02 0.54765,0 0.14961,0.017 0.28851,0.093 0.43812,0.1095 0.29029,0.032 0.58416,0 0.87624,0 0.65718,0 1.31436,0 1.97154,0 0.7302,0 1.4604,0 2.1906,0 0.21906,0 0.43811,0 0.65717,0 0.14604,0 0.29492,0.029 0.43812,0 0.11322,-0.023 0.21471,-0.091 0.32859,-0.1095 0.18007,-0.03 0.36865,0.036 0.54765,0 0.11322,-0.023 0.21538,-0.087 0.32859,-0.1096 0.0716,-0.014 0.14822,0.018 0.21906,0 0.0792,-0.02 0.13986,-0.09 0.21906,-0.1095 0.0708,-0.018 0.14604,0 0.21906,0 0.073,0 0.14604,0 0.21906,0 0.3651,0 0.7302,0 1.0953,0 0.62067,0 1.24134,0 1.86201,0 0.18255,0 0.3651,0 0.54765,0 0.073,0 0.14746,-0.014 0.21906,0 0.11321,0.023 0.21538,0.087 0.32859,0.1095 0.12337,0.025 0.30631,0 0.43812,0 0.25557,0 0.51114,0 0.76671,0 0.073,0 0.14604,0 0.21906,0 0.073,0 0.14978,-0.023 0.21906,0 0.049,0.016 0.0594,0.097 0.10953,0.1096 0.0654,0.016 0.69305,0 0.76671,0 0.3651,0 0.7302,0 1.0953,0 0.073,0 0.14604,0 0.21906,0 0.073,0 0.14822,-0.018 0.21906,0 0.0792,0.02 0.13985,0.09 0.21905,0.1095 0.0862,0.022 0.54328,0 0.65718,0 0.51114,0 1.02228,0 1.53342,0 0.29208,0 0.58416,0 0.87624,0 0.10953,0 0.21906,0 0.32859,0 0.073,0 0.14822,0.018 0.21906,0 0.19824,0.066 0.20371,-0.1774 0.32859,-0.2191 0.0693,-0.023 0.14604,0 0.21906,0 0.21906,0 0.43812,0 0.65718,0 0.0365,0 0.073,0 0.10953,0 0.0365,0 0.0769,0.016 0.10953,0 0.0462,-0.023 0.0606,-0.093 0.10953,-0.1095 0.47422,-0.1581 -0.0403,0.2094 0.43812,-0.1095 0.20041,-0.1336 0.0109,-0.1397 0.32859,-0.2191 0.14168,-0.035 0.29644,0.035 0.43812,0 0.0792,-0.02 0.13986,-0.09 0.21906,-0.1095 0.14168,-0.035 0.29491,0.029 0.43812,0 0.11321,-0.023 0.21538,-0.087 0.32859,-0.1095 0.0716,-0.014 0.14822,0.018 0.21906,0 0.0792,-0.02 0.13986,-0.09 0.21906,-0.1096 0.0708,-0.018 0.14978,0.023 0.21906,0 0.049,-0.016 0.0633,-0.086 0.10953,-0.1095 0.0327,-0.016 0.073,0 0.10953,0 0.0895,0 0.71119,0.019 0.76671,0 0.049,-0.016 0.0605,-0.093 0.10953,-0.1095 0.0499,-0.017 0.69253,0 0.76671,0 0.25557,0 0.51114,0 0.76671,0 0.073,0 0.14604,0 0.21905,0 0.073,0 0.14823,0.018 0.21906,0 0.0792,-0.02 0.13986,-0.09 0.21906,-0.1096 0.0741,-0.018 0.69623,0 0.76671,0 0.32859,0 0.65718,0 0.98577,0 0.10953,0 0.22119,-0.021 0.32859,0 0.0801,0.016 0.14161,0.084 0.21906,0.1096 0.10538,0.035 0.32351,-0.029 0.43812,0 0.11201,0.028 0.21538,0.087 0.32859,0.1095 0.17901,0.036 0.36759,-0.03 0.54765,0 0.11389,0.019 0.21538,0.087 0.32859,0.1095 0.0716,0.014 0.14604,0 0.21906,0 0.21906,0 0.43812,0 0.65718,0 0.10953,0 0.22055,-0.018 0.32859,0 0.11388,0.019 0.21471,0.091 0.32859,0.1096 0.10804,0.018 0.21906,0 0.32859,0 0.10953,0 0.21906,0 0.32859,0 0.32859,0 0.65718,0 0.98577,0 0.21906,0 0.43812,0 0.65718,0 0.10953,0 0.22055,0.018 0.32859,0 0.11388,-0.019 0.21429,-0.093 0.32859,-0.1096 0.14457,-0.021 0.29208,0 0.43812,0 0.29208,0 0.58416,0 0.87624,0 0.10953,0 0.22055,0.018 0.32859,0 0.11388,-0.019 0.2147,-0.091 0.32859,-0.1095 0.10803,-0.018 0.21905,0 0.32858,0 0.16612,0 0.72919,0.024 0.87624,0 0.11389,-0.019 0.21471,-0.091 0.32859,-0.1095 0.10804,-0.018 0.21906,0 0.32859,0 0.10953,-0.036 0.21538,-0.087 0.32859,-0.1096 0.17901,-0.036 0.36759,0.03 0.54765,0 0.11389,-0.019 0.21471,-0.091 0.32859,-0.1095 0.21608,-0.036 0.4411,0.036 0.65718,0 0.11389,-0.019 0.21538,-0.087 0.32859,-0.1095 0.0716,-0.014 0.14604,0 0.21906,0 0.29208,0 0.58416,0 0.87624,0 0.10953,0 0.21906,0 0.32859,0 0.10953,0 0.22055,0.018 0.32859,0 0.11388,-0.019 0.21471,-0.091 0.32859,-0.1095 0.10804,-0.018 0.22055,0.018 0.32859,0 0.11388,-0.019 0.21471,-0.091 0.32859,-0.1096 0.83556,0 -0.0864,0.049 0.54765,-0.1095 0.0708,-0.018 0.14604,0 0.21906,0 0.0365,0 0.0769,0.016 0.10953,0 0.0462,-0.023 0.0633,-0.086 0.10953,-0.1095 0.0468,-0.023 0.50435,0 0.54765,0 0.3651,0 0.7302,0 1.0953,0 0.0966,0 0.23526,-0.023 0.32859,0 0.112,0.028 0.21537,0.087 0.32859,0.1095 0.1432,0.029 0.29208,0 0.43812,0 0.0365,0 0.0749,-0.012 0.10953,0 0.0774,0.026 0.13985,0.09 0.21906,0.1095 0.14167,0.035 0.29644,-0.035 0.43811,0 0.0792,0.02 0.13986,0.09 0.21906,0.1096 0.10746,0.027 0.59392,-0.032 0.65718,0 0.0462,0.023 0.0634,0.086 0.10953,0.1095 0.0646,0.032 0.25326,-0.025 0.32859,0 0.073,0.036 0.14604,0.073 0.21906,0.1095 0.0365,0 0.0749,-0.011 0.10953,0 0.0774,0.026 0.13901,0.094 0.21906,0.1095 0.10741,0.022 0.22119,-0.021 0.32859,0 0.0801,0.016 0.13986,0.09 0.21906,0.1096 0.0708,0.018 0.14746,-0.014 0.21906,0 0.11322,0.023 0.21658,0.082 0.32859,0.1095 0.0354,0.01 0.073,0 0.10953,0 0.073,0 0.14604,0 0.21906,0 0.32859,0 0.65718,0 0.98577,0 0.0573,0 0.40932,-0.014 0.43812,0 0.0462,0.023 0.0606,0.093 0.10953,0.1095 0.0693,0.023 0.14822,-0.018 0.21906,0 0.0792,0.02 0.14161,0.084 0.21906,0.1096 0.10391,0.035 0.22233,-0.027 0.32859,0 0.0792,0.02 0.14161,0.084 0.21906,0.1095 0.0346,0.012 0.073,0 0.10953,0 0.073,0.036 0.14161,0.084 0.21906,0.1095 0.0618,0.021 0.25662,0 0.32859,0 0.21906,0 0.43812,0 0.65718,0 0.0493,0 0.29525,-0.017 0.32859,0 0.0462,0.023 0.0633,0.086 0.10953,0.1096 0.0653,0.033 0.15375,-0.033 0.21906,0 0.0462,0.023 0.0633,0.086 0.10953,0.1095 0.0333,0.017 0.27926,0 0.32859,0 0.21906,0 0.43812,0 0.65718,0 0.0493,0 0.29525,-0.017 0.32859,0 0.0462,0.023 0.0633,0.086 0.10953,0.1095 0.0326,0.016 0.073,0 0.10953,0 0.0365,0 0.073,0 0.10953,0 0.18255,0 0.3651,0 0.54765,0 0.0365,0 0.073,0 0.10953,0 0.0365,0 0.0769,-0.016 0.10953,0 0.0462,0.023 0.0633,0.086 0.10953,0.1095 0.0288,0.014 0.38084,0 0.43811,0 0.29208,0 0.58416,0 0.87624,0 0.47463,0 0.94926,0 1.42389,0 0.0762,0 0.50804,0.02 0.54765,0 0.0462,-0.023 0.073,-0.073 0.10953,-0.1095 0.1705,-0.072 0.341,-0.1444 0.5115,-0.2166"
       id="path88"
       inkscape:connector-curvature="0" />
    <path
       style="fill:none;stroke:#ff0000;stroke-width:1;stroke-linecap:butt;stroke-linejoin:miter;stroke-opacity:1"
       d="m 37.445088,974.44331 c 20.362876,13.16915 40.144622,37.01789 59.201757,71.38589"
       id="path23"
       inkscape:connector-curvature="0"
       sodipodi:nodetypes="cc" />
    <path
       sodipodi:nodetypes="cc"
       inkscape:connector-curvature="0"
       id="path28"
       d="M 36.972575,974.31873 C 89.925051,924.16708 131.25984,968.76841 173.7878,1045.4642"
       style="fill:none;stroke:#0000ff;stroke-width:1;stroke-linecap:butt;stroke-linejoin:miter;stroke-opacity:1" />
    <text
       id="text852"
       y="986.47778"
       x="26.270889"
       style="font-style:italic;font-variant:normal;font-weight:normal;font-stretch:normal;line-height:0%;font-family:'GOST type B';-inkscape-font-specification:'Sans Italic';text-align:start;letter-spacing:0px;word-spacing:0px;text-anchor:start;fill:#000000;fill-opacity:1;stroke:#ffffff;stroke-width:2;paint-order:stroke fill markers"
       xml:space="preserve"><tspan
         style="font-size:14px;line-height:1.25;stroke:#ffffff;stroke-width:2;paint-order:stroke fill markers"
         y="986.47778"
         x="26.270889"
         id="tspan850"
         sodipodi:role="line">O</tspan></text>
    <g
       id="g61"
       transform="rotate(-21.293766,12.528109,983.22924)">
      <path
         d="m 43.968734,1013.7528 2.949166,-0.3868 -0.469539,-1.3807 q -0.09894,-0.2909 -0.378343,-0.4654 -0.138869,-0.085 -0.292221,-0.1152 -0.148422,-0.032 -0.30149,-0.013 l -2.211878,0.2901 q -0.31105,0.04 -0.459566,0.2663 -0.06022,0.114 -0.08253,0.2426 -0.0024,0.1549 0.03955,0.2782 l 0.234766,0.6903 q 0.09726,0.286 0.371743,0.4622 0.274473,0.1762 0.600321,0.1314 z m -0.875045,0.4681 q -0.261057,-0.1367 -0.50152,-0.407 -0.235534,-0.272 -0.332794,-0.558 l -0.234769,-0.6904 q -0.189491,-0.5572 0.09589,-1.0283 0.287055,-0.4662 0.909165,-0.5457 l 2.211878,-0.2901 q 0.610557,-0.081 1.17924,0.2646 0.570355,0.3507 0.764878,0.9227 l 0.586919,1.7258 q 0.117386,0.3452 -0.251258,0.3935 l -3.312884,0.4335 q -0.220528,0.031 -0.407294,0.1935 -0.165494,0.1443 -0.203529,0.3883 -0.02164,0.2274 -0.258666,0.2585 -0.162908,0.023 -0.301793,-0.062 -0.140437,-0.073 -0.1941,-0.231 -0.02515,-0.074 -0.0124,-0.1499 0.0275,-0.3559 0.263085,-0.6175 z"
         style="font-style:italic;font-variant:normal;font-weight:normal;font-stretch:normal;font-size:10.66666698px;line-height:13.33333302px;font-family:'GOST type B';-inkscape-font-specification:'GOST type B Italic';text-align:start;letter-spacing:0px;word-spacing:0px;text-anchor:start;fill:#ff0000;fill-opacity:1;stroke:none"
         id="path57"
         inkscape:connector-curvature="0" />
      <path
         d="m 47.572723,1018.6886 -0.939074,-2.7613 q -0.05366,-0.1578 0.01813,-0.2703 0.08008,-0.1042 0.233127,-0.1233 0.131647,-0.017 0.278711,0.059 0.151979,0.075 0.207316,0.2375 l 0.939074,2.7614 q 0.04863,0.143 -0.03302,0.2588 -0.07674,0.1141 -0.218239,0.1347 -0.126715,0.016 -0.277033,-0.054 -0.150312,-0.07 -0.209004,-0.2425 z m -1.843228,0.2418 -0.93907,-2.7614 q -0.05366,-0.1578 0.01812,-0.2702 0.08008,-0.1042 0.233127,-0.1233 0.131648,-0.017 0.278708,0.059 0.151979,0.075 0.207319,0.2376 l 0.939074,2.7613 q 0.04863,0.143 -0.03302,0.2588 -0.07673,0.1141 -0.218239,0.1348 -0.126715,0.016 -0.27703,-0.054 -0.150305,-0.07 -0.208997,-0.2425 z"
         style="font-style:italic;font-variant:normal;font-weight:normal;font-stretch:normal;font-size:10.66666698px;line-height:13.33333302px;font-family:'GOST type B';-inkscape-font-specification:'GOST type B Italic';text-align:start;letter-spacing:0px;word-spacing:0px;text-anchor:start;fill:#ff0000;fill-opacity:1;stroke:none"
         id="path59"
         inkscape:connector-curvature="0" />
      <path
         d="m 48.110159,1023.666 -0.93907,-2.7613 q -0.05366,-0.1578 0.01813,-0.2702 0.08008,-0.1043 0.233126,-0.1234 0.131648,-0.017 0.278708,0.059 0.15198,0.075 0.20732,0.2376 l 0.939074,2.7613 q 0.04863,0.143 -0.03302,0.2588 -0.07674,0.1141 -0.218239,0.1347 -0.126715,0.016 -0.27703,-0.054 -0.150315,-0.07 -0.209007,-0.2425 z"
         style="font-style:italic;font-variant:normal;font-weight:normal;font-stretch:normal;font-size:10.66666698px;line-height:13.33333302px;font-family:'GOST type B';-inkscape-font-specification:'GOST type B Italic';text-align:start;letter-spacing:0px;word-spacing:0px;text-anchor:start;fill:#ff0000;fill-opacity:1;stroke:none"
         id="path61"
         inkscape:connector-curvature="0" />
      <path
         d="m 49.795192,1027.4885 -1.58022,1.5166 -0.0935,0.065 -0.09708,0.022 q -0.143187,0.016 -0.295282,-0.076 l -0.0662,-0.049 -0.06138,-0.067 -0.06497,-0.1264 q -0.04863,-0.143 0.06902,-0.2986 l 1.378848,-1.3161 -2.120047,-0.8634 q -0.203061,-0.079 -0.265107,-0.2619 -0.03689,-0.1085 0.02809,-0.2571 0.07168,-0.129 0.224756,-0.1479 0.09541,-0.01 0.22584,0.033 l 2.432098,0.9883 1.580211,-1.5166 0.09351,-0.065 0.09708,-0.022 q 0.143177,-0.016 0.288672,0.072 0.145466,0.088 0.199129,0.2458 0.04863,0.143 -0.06902,0.2985 l -1.378839,1.3161 2.120035,0.8634 q 0.203073,0.08 0.26512,0.262 0.03521,0.1035 -0.02642,0.262 -0.07831,0.1256 -0.22642,0.143 -0.09541,0.011 -0.225853,-0.033 z"
         style="font-style:italic;font-variant:normal;font-weight:normal;font-stretch:normal;font-size:10.66666698px;line-height:13.33333302px;font-family:'GOST type B';-inkscape-font-specification:'GOST type B Italic';text-align:start;letter-spacing:0px;word-spacing:0px;text-anchor:start;fill:#ff0000;fill-opacity:1;stroke:none"
         id="path63"
         inkscape:connector-curvature="0" />
      <path
         d="m 56.324852,1030.9177 -3.416008,-1.2973 0.545835,1.605 q 0.03647,0.1073 -0.02473,0.1941 -0.05751,0.086 -0.163671,0.1011 -0.09499,0.012 -0.207772,-0.041 -0.11277,-0.052 -0.156803,-0.1818 l -0.704304,-2.071 q -0.09558,-0.2811 0.125354,-0.3109 0.0876,-0.01 0.227527,0.038 l 3.903839,1.4822 q 0.249934,0.068 0.44742,0.042 0.355484,-0.047 0.529138,-0.3367 0.08069,-0.1388 0.09569,-0.3131 0.01625,-0.1706 -0.04789,-0.3592 -0.06666,-0.196 -0.239384,-0.3642 -0.183817,-0.1644 -0.417857,-0.2581 -0.06068,-0.021 -0.132649,-0.087 l -0.06619,-0.1095 q -0.03396,-0.1 0.01239,-0.194 0.05131,-0.092 0.166117,-0.1061 0.05436,-0.01 0.173076,0.024 0.356605,0.1386 0.648568,0.4148 0.141617,0.1375 0.243808,0.2802 0.103435,0.1463 0.152484,0.2906 0.206262,0.6065 -0.08114,1.0838 -0.283697,0.4761 -0.876167,0.5538 -0.340686,0.042 -0.736718,-0.08 z"
         style="font-style:italic;font-variant:normal;font-weight:normal;font-stretch:normal;font-size:8px;line-height:13.33333302px;font-family:'GOST type B';-inkscape-font-specification:'GOST type B Italic';text-align:start;letter-spacing:0px;word-spacing:0px;baseline-shift:super;text-anchor:start;fill:#ff0000;fill-opacity:1;stroke:none"
         id="path65"
         inkscape:connector-curvature="0" />
      <path
         d="m 52.629449,1036.9551 -0.939071,-2.7614 q -0.05366,-0.1578 0.01813,-0.2702 0.08008,-0.1042 0.233127,-0.1233 0.131647,-0.017 0.278707,0.059 0.15198,0.075 0.20732,0.2376 l 0.939074,2.7613 q 0.04863,0.143 -0.03302,0.2588 -0.07674,0.1141 -0.218239,0.1348 -0.126715,0.016 -0.27703,-0.054 -0.150315,-0.07 -0.209007,-0.2425 z"
         style="font-style:italic;font-variant:normal;font-weight:normal;font-stretch:normal;font-size:10.66666698px;line-height:13.33333302px;font-family:'GOST type B';-inkscape-font-specification:'GOST type B Italic';text-align:start;letter-spacing:0px;word-spacing:0px;text-anchor:start;fill:#ff0000;fill-opacity:1;stroke:none"
         id="path67"
         inkscape:connector-curvature="0" />
      <path
         d="m 54.314487,1040.7776 -1.580216,1.5166 -0.09356,0.065 -0.09695,0.022 q -0.143123,0.016 -0.295293,-0.076 l -0.0663,-0.049 -0.06128,-0.067 -0.06496,-0.1264 q -0.04865,-0.1431 0.06899,-0.2986 l 1.378874,-1.316 -2.120044,-0.8634 q -0.203087,-0.08 -0.26513,-0.262 -0.0369,-0.1085 0.02811,-0.2571 0.07168,-0.1289 0.224659,-0.1482 0.09547,-0.01 0.225853,0.033 l 2.432112,0.9883 1.580207,-1.5166 0.09357,-0.065 0.09695,-0.022 q 0.143113,-0.016 0.288686,0.072 0.145466,0.088 0.199138,0.2459 0.04862,0.143 -0.06902,0.2985 l -1.378833,1.3162 2.120035,0.8633 q 0.203064,0.079 0.265107,0.2619 0.03522,0.1036 -0.02641,0.2621 -0.07821,0.1259 -0.226581,0.1425 -0.09547,0.01 -0.225863,-0.033 z"
         style="font-style:italic;font-variant:normal;font-weight:normal;font-stretch:normal;font-size:10.66666698px;line-height:13.33333302px;font-family:'GOST type B';-inkscape-font-specification:'GOST type B Italic';text-align:start;letter-spacing:0px;word-spacing:0px;text-anchor:start;fill:#ff0000;fill-opacity:1;stroke:none"
         id="path69"
         inkscape:connector-curvature="0" />
    </g>
    <g
       id="g52"
       transform="rotate(-16.669667,49.620552,830.50383)">
      <path
         d="m 92.452022,1007.402 2.949163,-0.3868 -0.469535,-1.3807 q -0.09894,-0.2909 -0.378344,-0.4655 -0.138869,-0.085 -0.292221,-0.1151 -0.148422,-0.032 -0.30149,-0.013 l -2.211878,0.2901 q -0.31105,0.04 -0.459566,0.2663 -0.06022,0.1139 -0.08253,0.2426 -0.0024,0.1548 0.03955,0.2781 l 0.234769,0.6903 q 0.09726,0.286 0.371743,0.4623 0.274473,0.1762 0.600321,0.1314 z m -0.875045,0.4681 q -0.261057,-0.1368 -0.501523,-0.4071 -0.235531,-0.272 -0.332791,-0.558 l -0.234769,-0.6903 q -0.189491,-0.5572 0.09589,-1.0283 0.287051,-0.4663 0.909161,-0.5458 l 2.211878,-0.2901 q 0.61056,-0.081 1.179244,0.2646 0.570354,0.3507 0.764874,0.9227 l 0.586922,1.7258 q 0.117383,0.3452 -0.251258,0.3936 l -3.312884,0.4334 q -0.220528,0.031 -0.407294,0.1936 -0.165494,0.1442 -0.203532,0.3883 -0.02163,0.2274 -0.258663,0.2585 -0.162908,0.022 -0.301793,-0.062 -0.140437,-0.073 -0.1941,-0.2311 -0.02514,-0.074 -0.0124,-0.1498 0.02749,-0.3559 0.263085,-0.6176 z"
         style="font-style:italic;font-variant:normal;font-weight:normal;font-stretch:normal;font-size:10.66666698px;line-height:13.33333302px;font-family:'GOST type B';-inkscape-font-specification:'GOST type B Italic';text-align:start;letter-spacing:0px;word-spacing:0px;text-anchor:start;fill:#0000ff;fill-opacity:1;stroke:none"
         id="path72"
         inkscape:connector-curvature="0" />
      <path
         d="m 96.056008,1012.3378 -0.939071,-2.7614 q -0.05366,-0.1578 0.01813,-0.2702 0.08008,-0.1042 0.233127,-0.1233 0.131647,-0.017 0.278707,0.059 0.151983,0.075 0.20732,0.2376 l 0.939074,2.7613 q 0.04863,0.143 -0.03302,0.2588 -0.07674,0.1141 -0.218239,0.1348 -0.126715,0.016 -0.27703,-0.054 -0.150312,-0.07 -0.209007,-0.2425 z m -1.843224,0.2417 -0.939074,-2.7613 q -0.05366,-0.1578 0.01812,-0.2703 0.08008,-0.1042 0.233127,-0.1233 0.131647,-0.017 0.278708,0.059 0.151979,0.075 0.207319,0.2375 l 0.939071,2.7614 q 0.04863,0.143 -0.03302,0.2588 -0.07673,0.114 -0.218239,0.1347 -0.126715,0.016 -0.27703,-0.054 -0.150306,-0.07 -0.208997,-0.2425 z"
         style="font-style:italic;font-variant:normal;font-weight:normal;font-stretch:normal;font-size:10.66666698px;line-height:13.33333302px;font-family:'GOST type B';-inkscape-font-specification:'GOST type B Italic';text-align:start;letter-spacing:0px;word-spacing:0px;text-anchor:start;fill:#0000ff;fill-opacity:1;stroke:none"
         id="path74"
         inkscape:connector-curvature="0" />
      <path
         d="m 96.593448,1017.3152 -0.939074,-2.7614 q -0.05366,-0.1578 0.01813,-0.2702 0.08008,-0.1042 0.233126,-0.1233 0.131648,-0.017 0.278708,0.059 0.15198,0.075 0.20732,0.2376 l 0.93907,2.7613 q 0.04863,0.1431 -0.03302,0.2588 -0.07674,0.1141 -0.218239,0.1348 -0.126715,0.016 -0.277031,-0.054 -0.150315,-0.07 -0.209006,-0.2425 z"
         style="font-style:italic;font-variant:normal;font-weight:normal;font-stretch:normal;font-size:10.66666698px;line-height:13.33333302px;font-family:'GOST type B';-inkscape-font-specification:'GOST type B Italic';text-align:start;letter-spacing:0px;word-spacing:0px;text-anchor:start;fill:#0000ff;fill-opacity:1;stroke:none"
         id="path76"
         inkscape:connector-curvature="0" />
      <path
         d="m 98.27848,1021.1377 -1.580223,1.5166 -0.0935,0.065 -0.09708,0.022 q -0.143187,0.016 -0.295282,-0.076 l -0.0662,-0.049 -0.06138,-0.067 -0.06497,-0.1264 q -0.04863,-0.143 0.06902,-0.2985 l 1.378846,-1.3162 -2.120045,-0.8633 q -0.20306,-0.079 -0.265107,-0.262 -0.03689,-0.1084 0.02808,-0.2571 0.07168,-0.1289 0.224755,-0.1479 0.09541,-0.011 0.22584,0.033 l 2.432096,0.9883 1.580213,-1.5166 0.09351,-0.065 0.09708,-0.022 q 0.143178,-0.016 0.288677,0.072 0.14547,0.088 0.19913,0.2458 0.0486,0.143 -0.069,0.2986 l -1.37884,1.3161 2.12004,0.8634 q 0.20307,0.079 0.26512,0.2619 0.0352,0.1035 -0.0264,0.262 -0.0783,0.1256 -0.22642,0.1431 -0.0954,0.01 -0.22585,-0.033 z"
         style="font-style:italic;font-variant:normal;font-weight:normal;font-stretch:normal;font-size:10.66666698px;line-height:13.33333302px;font-family:'GOST type B';-inkscape-font-specification:'GOST type B Italic';text-align:start;letter-spacing:0px;word-spacing:0px;text-anchor:start;fill:#0000ff;fill-opacity:1;stroke:none"
         id="path78"
         inkscape:connector-curvature="0" />
      <path
         d="m 104.80814,1024.5669 -3.41601,-1.2974 0.54584,1.6051 q 0.0365,0.1072 -0.0247,0.194 -0.0575,0.086 -0.16367,0.1011 -0.095,0.012 -0.20778,-0.041 -0.11267,-0.052 -0.1567,-0.1819 l -0.70431,-2.071 q -0.0956,-0.2811 0.12535,-0.3108 0.0876,-0.01 0.22753,0.038 l 3.90384,1.4822 q 0.24994,0.068 0.44742,0.042 0.35549,-0.047 0.52914,-0.3367 0.0807,-0.1388 0.0957,-0.3131 0.0162,-0.1706 -0.0479,-0.3592 -0.0666,-0.196 -0.23938,-0.3642 -0.18382,-0.1644 -0.41786,-0.2581 -0.0607,-0.021 -0.13274,-0.087 l -0.0661,-0.1095 q -0.034,-0.1 0.0124,-0.194 0.0513,-0.092 0.16612,-0.1061 0.0544,-0.01 0.17307,0.024 0.35661,0.1386 0.64857,0.4148 0.14162,0.1375 0.24381,0.2802 0.10344,0.1463 0.15248,0.2906 0.20627,0.6065 -0.0811,1.0838 -0.28369,0.4761 -0.87616,0.5538 -0.34069,0.042 -0.73672,-0.08 z"
         style="font-style:italic;font-variant:normal;font-weight:normal;font-stretch:normal;font-size:8px;line-height:13.33333302px;font-family:'GOST type B';-inkscape-font-specification:'GOST type B Italic';text-align:start;letter-spacing:0px;word-spacing:0px;baseline-shift:super;text-anchor:start;fill:#0000ff;fill-opacity:1;stroke:none"
         id="path80"
         inkscape:connector-curvature="0" />
      <path
         d="m 100.76563,1029.5835 -1.105959,0.145 q -0.174309,0.021 -0.313306,-0.064 -0.120685,-0.08 -0.172683,-0.2329 -0.04694,-0.138 0.0066,-0.2553 0.06006,-0.1145 0.244599,-0.1381 l 1.105959,-0.145 -0.35217,-1.0356 q -0.0536,-0.1577 0.0181,-0.2702 0.08,-0.1044 0.23303,-0.1236 0.13165,-0.017 0.2787,0.059 0.15198,0.075 0.20733,0.2376 l 0.35214,1.0354 1.10595,-0.145 q 0.14805,-0.018 0.30837,0.066 0.13064,0.093 0.17761,0.2313 0.0436,0.1282 -0.007,0.2553 -0.0604,0.1135 -0.2446,0.1381 l -1.10592,0.1451 0.35213,1.0355 q 0.0554,0.1627 -0.0297,0.2686 -0.085,0.106 -0.22155,0.125 -0.12672,0.016 -0.27703,-0.054 -0.15032,-0.07 -0.20901,-0.2425 z"
         style="font-style:italic;font-variant:normal;font-weight:normal;font-stretch:normal;font-size:10.66666698px;line-height:13.33333302px;font-family:'GOST type B';-inkscape-font-specification:'GOST type B Italic';text-align:start;letter-spacing:0px;word-spacing:0px;text-anchor:start;fill:#0000ff;fill-opacity:1;stroke:none"
         id="path82"
         inkscape:connector-curvature="0" />
      <path
         d="m 102.79775,1034.4266 -1.58021,1.5167 -0.0936,0.065 -0.097,0.022 q -0.14312,0.016 -0.29529,-0.076 l -0.0663,-0.049 -0.0613,-0.067 -0.065,-0.1265 q -0.0486,-0.143 0.069,-0.2985 l 1.37885,-1.3162 -2.120049,-0.8633 q -0.203054,-0.079 -0.265097,-0.2619 -0.0369,-0.1085 0.02808,-0.2572 0.07168,-0.1289 0.224659,-0.1482 0.09547,-0.01 0.225847,0.033 l 2.43208,0.9882 1.58021,-1.5166 0.0936,-0.065 0.097,-0.022 q 0.14311,-0.016 0.28869,0.072 0.14546,0.088 0.1991,0.2458 0.0487,0.1431 -0.069,0.2986 l -1.37886,1.316 2.12003,0.8634 q 0.2031,0.08 0.26514,0.262 0.0352,0.1036 -0.0264,0.2621 -0.0782,0.1259 -0.22658,0.1425 -0.0955,0.01 -0.22586,-0.033 z"
         style="font-style:italic;font-variant:normal;font-weight:normal;font-stretch:normal;font-size:10.66666698px;line-height:13.33333302px;font-family:'GOST type B';-inkscape-font-specification:'GOST type B Italic';text-align:start;letter-spacing:0px;word-spacing:0px;text-anchor:start;fill:#0000ff;fill-opacity:1;stroke:none"
         id="path84"
         inkscape:connector-curvature="0" />
    </g>
    <path
       style="fill:none;stroke:#000000;stroke-width:0.66666669;stroke-linecap:butt;stroke-linejoin:miter;stroke-opacity:1"
       d="m 34.567368,952.86243 h 4.956758"
       id="path909"
       inkscape:connector-curvature="0"
       sodipodi:nodetypes="cc" />
    <g
       id="g942"
       transform="translate(45.217056,-6.8952706)">
      <path
         d="m -21.801098,960.60406 q 0,0.19336 -0.117187,0.31055 -0.111328,0.0996 -0.292969,0.0996 -0.164063,0 -0.287109,-0.0996 -0.123047,-0.10547 -0.123047,-0.31055 v -6.39843 l -0.94336,0.94336 q -0.123047,0.12304 -0.28125,0.12304 -0.146484,0 -0.287109,-0.12304 -0.128906,-0.12891 -0.128906,-0.29297 0,-0.14063 0.123047,-0.28125 l 1.640625,-1.64063 q 0.08203,-0.082 0.169921,-0.1289 0.08789,-0.0527 0.19336,-0.0527 0.09961,0 0.234375,0.12305 0.09961,0.12891 0.09961,0.3457 z"
         style="font-style:normal;font-variant:normal;font-weight:normal;font-stretch:normal;font-size:12px;line-height:13.33333302px;font-family:'GOST type B';-inkscape-font-specification:'GOST type B';text-align:start;letter-spacing:0px;word-spacing:0px;text-anchor:start;fill:#000000;fill-opacity:1;stroke:none"
         id="path915"
         inkscape:connector-curvature="0" />
      <path
         d="m -16.166238,954.74035 -4.511719,11.48437 q -0.04102,0.0937 -0.146484,0.1875 l -0.111328,0.0527 -0.111328,0.0234 q -0.175782,0 -0.304688,-0.11133 -0.128906,-0.11133 -0.128906,-0.29297 0,-0.0937 0.0293,-0.15234 l 4.511718,-11.48438 q 0.0293,-0.0879 0.140625,-0.1875 l 0.07617,-0.041 q 0.07031,-0.0352 0.152344,-0.0352 0.175781,0 0.304688,0.11133 0.128906,0.11132 0.128906,0.29297 0,0.0937 -0.0293,0.15234 z"
         style="font-style:normal;font-variant:normal;font-weight:normal;font-stretch:normal;font-size:12px;line-height:13.33333302px;font-family:'GOST type B';-inkscape-font-specification:'GOST type B';text-align:start;letter-spacing:0px;word-spacing:0px;text-anchor:start;fill:#000000;fill-opacity:1;stroke:none"
         id="path917"
         inkscape:connector-curvature="0" />
      <path
         d="m -13.13886,965.01554 h 0.820312 q 0.169922,0 0.287109,0.12891 0.123047,0.12305 0.123047,0.28125 0,0.14062 -0.105468,0.27539 -0.09961,0.13477 -0.304688,0.13477 h -0.820312 v 1.23046 q 0,0.19336 -0.117188,0.31055 -0.111328,0.0996 -0.292969,0.0996 -0.164062,0 -0.287109,-0.0996 -0.123047,-0.10547 -0.123047,-0.31055 v -1.23046 h -2.460937 q -0.427734,0 -0.427734,-0.33399 l 0.01172,-0.0996 0.02344,-0.0937 1.640625,-5.73633 q 0.03516,-0.12304 0.140625,-0.22265 l 0.07617,-0.041 q 0.07031,-0.0352 0.158203,-0.0352 0.18164,0 0.298828,0.11718 0.128906,0.11133 0.128906,0.28711 l -0.01758,0.12305 -1.494141,5.21484 h 1.921875 v -1.23047 q 0,-0.16406 0.123047,-0.30468 0.123047,-0.10547 0.287109,-0.10547 0.158203,0 0.28125,0.10547 0.128907,0.0996 0.128907,0.30468 z"
         style="font-style:normal;font-variant:normal;font-weight:normal;font-stretch:normal;font-size:12px;line-height:13.33333302px;font-family:'GOST type B';-inkscape-font-specification:'GOST type B';text-align:start;letter-spacing:0px;word-spacing:0px;text-anchor:start;fill:#000000;fill-opacity:1;stroke:none"
         id="path919"
         inkscape:connector-curvature="0" />
    </g>
    <path
       style="fill:none;stroke:#008000;stroke-width:0.5;stroke-linecap:butt;stroke-linejoin:miter;stroke-opacity:1"
       d="M 32.838518,963.1405 H 165.74158"
       id="path64"
       inkscape:connector-curvature="0" />
    <path
       inkscape:connector-curvature="0"
       id="path70"
       d="m 50.144242,963.1405 60.832388,0"
       style="fill:none;stroke:#008000;stroke-width:1.5;stroke-linecap:butt;stroke-linejoin:miter;stroke-opacity:1"
       sodipodi:nodetypes="cc" />
    <path
       inkscape:connector-curvature="0"
       id="path73"
       d="M 32.838518,1027.4345 H 177.57081"
       style="fill:none;stroke:#008000;stroke-width:0.5;stroke-linecap:butt;stroke-linejoin:miter;stroke-opacity:1"
       sodipodi:nodetypes="cc" />
    <path
       sodipodi:nodetypes="cc"
       style="fill:none;stroke:#008000;stroke-width:1.5;stroke-linecap:butt;stroke-linejoin:miter;stroke-opacity:1"
       d="m 85.63193,1027.4345 h 78.24764"
       id="path79"
       inkscape:connector-curvature="0" />
    <path
       style="fill:#ffeeaa;fill-opacity:1;stroke:#008000;stroke-width:0.16429485;stroke-linecap:round;stroke-linejoin:round;stroke-miterlimit:4;stroke-dasharray:0.14589383, 0.03647346000000000;stroke-dashoffset:0;stroke-opacity:1;paint-order:stroke fill markers"
       d="m 53.718439,22.978092 c 7.199127,-4.351688 14.567514,-7.082574 21.522626,-7.976758 9.043205,-1.162641 18.125984,0.514924 27.108645,5.006893 1.9998,1.00004 5.85985,3.191049 5.85985,3.326115 0,0.02286 -12.408364,0.04143 -27.574148,0.04128 l -27.574152,-2.85e-4 0.657179,-0.397248 z"
       id="path81"
       inkscape:connector-curvature="0"
       transform="translate(0,938.97631)" />
    <path
       style="fill:#ffeeaa;fill-opacity:1;stroke:#008000;stroke-width:0.16429485;stroke-linecap:round;stroke-linejoin:round;stroke-miterlimit:4;stroke-dasharray:0.14589383, 0.03647346;stroke-dashoffset:0;stroke-opacity:1;paint-order:stroke fill markers"
       d="m 38.110428,35.053069 c 0,-0.05919 2.673281,-2.454215 3.997842,-3.58172 2.134594,-1.817029 4.93511,-4.006097 6.736089,-5.265369 0.651046,-0.455222 0.743961,-0.489135 1.086244,-0.396465 0.510361,0.138175 1.254815,-0.147852 1.510237,-0.580248 l 0.188998,-0.319945 h 28.892278 c 23.920544,0 28.892274,0.02499 28.892274,0.145202 0,0.229472 0.48013,0.62052 0.90637,0.738212 0.28771,0.07944 0.50755,0.06697 0.84023,-0.04764 l 0.45056,-0.155232 1.00987,0.731928 c 2.93002,2.123598 8.27088,6.628511 9.93067,8.376332 l 0.37745,0.397479 H 80.519986 c -23.325256,0 -42.409558,-0.01914 -42.409558,-0.04253 z"
       id="path83"
       inkscape:connector-curvature="0"
       transform="translate(0,938.97631)" />
    <path
       style="fill:#ffeeaa;fill-opacity:1;stroke:#008000;stroke-width:0.16429485;stroke-linecap:round;stroke-linejoin:round;stroke-miterlimit:4;stroke-dasharray:0.14589383, 0.03647346;stroke-dashoffset:0;stroke-opacity:1;paint-order:stroke fill markers"
       d="m 86.851234,87.558815 c 0,-0.184825 -0.689628,-0.545193 -1.044159,-0.54563 -0.309913,-3.29e-4 -0.419987,-0.134598 -1.639706,-1.99933 C 69.960011,63.293336 55.277329,47.112057 40.422464,36.804099 l -1.357217,-0.941787 h 42.389715 42.389718 l 1.73892,1.785911 c 7.64779,7.854417 14.40712,16.193075 22.15815,27.335415 4.39803,6.322302 10.47034,15.762651 14.53965,22.604169 0.0269,0.04518 -16.93392,0.08215 -37.69065,0.08215 -25.451109,0 -37.739516,-0.03619 -37.739516,-0.11114 z"
       id="path85"
       inkscape:connector-curvature="0"
       transform="translate(0,938.97631)" />
    <path
       style="fill:#ffeeaa;fill-opacity:1;stroke:#ffeeaa;stroke-width:0.16429485;stroke-linecap:round;stroke-linejoin:round;stroke-miterlimit:4;stroke-dasharray:0.14589383, 0.03647346;stroke-dashoffset:0;stroke-opacity:1;paint-order:stroke fill markers"
       d="m 109.30486,106.39551 c -3.31375,-0.46685 -4.18981,-0.53001 -7.72185,-0.55671 -2.081294,-0.0157 -3.856322,0.0191 -4.184605,0.0822 l -0.570113,0.10948 -1.777303,-3.12871 c -1.97035,-3.468557 -4.833339,-8.299956 -6.751392,-11.393226 -0.689345,-1.111715 -1.27786,-2.085162 -1.307812,-2.163215 -0.04452,-0.116031 6.817793,-0.141916 37.623965,-0.141916 h 37.67842 l 0.33834,0.316056 c 0.18608,0.173831 0.50223,0.346802 0.70254,0.384381 0.34282,0.06431 0.46153,0.234151 2.02218,2.893117 1.63724,2.789471 5.23884,9.087193 6.83961,11.959693 l 0.82401,1.47865 -0.94318,0.0375 c -1.08284,0.0431 -4.29329,-0.17345 -4.76569,-0.32141 -0.17465,-0.0547 -0.5936,-0.10089 -0.931,-0.10264 -0.3374,-0.002 -0.95847,-0.0989 -1.38016,-0.21587 -0.45193,-0.12536 -1.12646,-0.21468 -1.64295,-0.21755 -0.51111,-0.003 -1.24137,-0.0987 -1.75248,-0.23001 -2.25127,-0.57843 -5.08685,-0.79119 -6.35273,-0.47665 -0.36145,0.0898 -1.3747,0.20898 -2.25166,0.26482 -0.87697,0.0558 -2.10918,0.17576 -2.73825,0.26649 -1.69782,0.24488 -5.33432,0.42911 -6.89409,0.34926 -0.75302,-0.0386 -1.95426,-0.15091 -2.66943,-0.2497 -1.13453,-0.15671 -1.60933,-0.1636 -3.72402,-0.054 -1.37076,0.071 -2.63783,0.19112 -2.91659,0.27643 -0.27109,0.083 -0.78861,0.18612 -1.15006,0.22924 -0.36145,0.0431 -0.77435,0.1536 -0.91755,0.24551 -0.1432,0.0919 -0.56215,0.19022 -0.931,0.21846 -0.36885,0.0282 -0.78073,0.10482 -0.91528,0.17019 -0.27305,0.13265 -3.85196,0.0614 -7.20654,-0.14348 -2.12822,-0.12997 -5.32035,-0.0791 -6.29482,0.10033 -0.6982,0.12855 -6.44648,0.13899 -7.33851,0.0133 z"
       id="path90"
       inkscape:connector-curvature="0"
       transform="translate(0,938.97631)" />
    <path
       sodipodi:nodetypes="cc"
       inkscape:connector-curvature="0"
       id="path92"
       d="m 50.144242,963.1405 0,11.11344"
       style="fill:none;stroke:#000000;stroke-width:0.333;stroke-linecap:butt;stroke-linejoin:miter;stroke-miterlimit:4;stroke-dasharray:1.33200002, 0.333;stroke-dashoffset:0;stroke-opacity:1" />
    <path
       style="fill:none;stroke:#000000;stroke-width:0.333;stroke-linecap:butt;stroke-linejoin:miter;stroke-miterlimit:4;stroke-dasharray:1.33200002, 0.333;stroke-dashoffset:0;stroke-opacity:1"
       d="m 110.97663,963.1405 v 11.11344"
       id="path94"
       inkscape:connector-curvature="0"
       sodipodi:nodetypes="cc" />
    <circle
       style="fill:#008000;fill-opacity:1;stroke:#008000;stroke-width:0.5;stroke-linecap:round;stroke-linejoin:round;stroke-miterlimit:4;stroke-dasharray:1.33200002, 0.333;stroke-dashoffset:0;stroke-opacity:1;paint-order:stroke fill markers"
       id="path66"
       cx="50.264618"
       cy="963.37286"
       r="1.1617401" />
    <circle
       r="1.1617401"
       cy="963.37286"
       cx="110.6751"
       id="circle68"
       style="fill:#008000;fill-opacity:1;stroke:#008000;stroke-width:0.5;stroke-linecap:round;stroke-linejoin:round;stroke-miterlimit:4;stroke-dasharray:1.33200002, 0.333;stroke-dashoffset:0;stroke-opacity:1;paint-order:stroke fill markers" />
    <path
       style="fill:none;stroke:#000000;stroke-width:0.333;stroke-linecap:butt;stroke-linejoin:miter;stroke-miterlimit:4;stroke-dasharray:1.33200002, 0.333;stroke-dashoffset:0;stroke-opacity:1"
       d="m 85.63193,974.48068 0,52.95382"
       id="path96"
       inkscape:connector-curvature="0"
       sodipodi:nodetypes="cc" />
    <path
       sodipodi:nodetypes="cc"
       inkscape:connector-curvature="0"
       id="path98"
       d="m 163.87957,974.48068 v 52.95382"
       style="fill:none;stroke:#000000;stroke-width:0.333;stroke-linecap:butt;stroke-linejoin:miter;stroke-miterlimit:4;stroke-dasharray:1.33200002, 0.333;stroke-dashoffset:0;stroke-opacity:1" />
    <circle
       r="1.1617401"
       cy="1027.4479"
       cx="85.752304"
       id="circle75"
       style="fill:#008000;fill-opacity:1;stroke:#008000;stroke-width:0.5;stroke-linecap:round;stroke-linejoin:round;stroke-miterlimit:4;stroke-dasharray:1.33200002, 0.333;stroke-dashoffset:0;stroke-opacity:1;paint-order:stroke fill markers" />
    <circle
       style="fill:#008000;fill-opacity:1;stroke:#008000;stroke-width:0.5;stroke-linecap:round;stroke-linejoin:round;stroke-miterlimit:4;stroke-dasharray:1.33200002, 0.333;stroke-dashoffset:0;stroke-opacity:1;paint-order:stroke fill markers"
       id="circle77"
       cx="163.62807"
       cy="1027.4479"
       r="1.1617401" />
    <circle
       style="fill:#000000;fill-opacity:1;stroke:#000000;stroke-width:1.5;stroke-linecap:round;stroke-linejoin:round;stroke-miterlimit:4;stroke-dasharray:1.33200002, 0.333;stroke-dashoffset:0;stroke-opacity:1;paint-order:stroke fill markers"
       id="path100"
       cx="50.055164"
       cy="974.26727"
       r="0.5476495" />
    <circle
       r="0.5476495"
       cy="974.26727"
       cx="85.433319"
       id="circle102"
       style="fill:#000000;fill-opacity:1;stroke:#000000;stroke-width:1.5;stroke-linecap:round;stroke-linejoin:round;stroke-miterlimit:4;stroke-dasharray:1.33200002, 0.333;stroke-dashoffset:0;stroke-opacity:1;paint-order:stroke fill markers" />
    <circle
       style="fill:#000000;fill-opacity:1;stroke:#000000;stroke-width:1.5;stroke-linecap:round;stroke-linejoin:round;stroke-miterlimit:4;stroke-dasharray:1.33200002, 0.333;stroke-dashoffset:0;stroke-opacity:1;paint-order:stroke fill markers"
       id="circle104"
       cx="163.85674"
       cy="974.26727"
       r="0.5476495" />
    <g
       aria-label="x1"
       style="font-style:italic;font-variant:normal;font-weight:normal;font-stretch:normal;font-size:10.66666698px;line-height:0%;font-family:'GOST type B';-inkscape-font-specification:'Sans Italic';text-align:start;letter-spacing:0px;word-spacing:0px;text-anchor:start;fill:#000000;fill-opacity:1;stroke:none"
       id="text117"
       transform="translate(74.599766,-13.258252)">
      <path
         d="m -21.252766,993.29008 0.927083,1.98437 0.03125,0.10938 -0.01042,0.099 q -0.03125,0.14062 -0.166667,0.25521 l -0.06771,0.0469 -0.08333,0.0365 -0.140625,0.0208 q -0.151042,0 -0.260417,-0.16146 l -0.802083,-1.72916 -1.5,1.72916 q -0.140625,0.16667 -0.333333,0.16667 -0.114584,0 -0.234375,-0.10937 -0.09896,-0.10938 -0.06771,-0.26042 0.02083,-0.0937 0.104167,-0.20313 l 1.71875,-1.98437 -0.927083,-1.98438 -0.03125,-0.10937 0.01042,-0.099 q 0.03125,-0.14062 0.161459,-0.25 0.130208,-0.10937 0.296875,-0.10937 0.151041,0 0.260416,0.16145 l 0.802084,1.72917 1.5,-1.72917 q 0.140625,-0.16666 0.333333,-0.16666 0.109375,0 0.239584,0.10937 0.09375,0.11459 0.0625,0.26042 -0.02083,0.0937 -0.104167,0.20312 z"
         style="font-size:10.66666698px;line-height:1.25"
         id="path154"
         inkscape:connector-curvature="0" />
      <path
         d="m -17.710578,997.73852 q -0.0237,0.11172 -0.104948,0.17942 -0.07448,0.0576 -0.179427,0.0576 -0.09479,0 -0.15573,-0.0576 -0.05755,-0.0609 -0.03385,-0.17942 l 0.738021,-3.69688 -0.653385,0.54505 q -0.08464,0.0711 -0.176042,0.0711 -0.08463,0 -0.152344,-0.0711 -0.05755,-0.0745 -0.04062,-0.16927 0.01693,-0.0812 0.104948,-0.1625 l 1.1375,-0.94791 q 0.05755,-0.0474 0.111719,-0.0745 0.05755,-0.0305 0.118489,-0.0305 0.05755,0 0.121875,0.0711 0.04062,0.0745 0.01693,0.19974 z"
         style="font-size:64.99999762%;baseline-shift:sub"
         id="path156"
         inkscape:connector-curvature="0" />
    </g>
    <g
       aria-label="x2"
       style="font-style:italic;font-variant:normal;font-weight:normal;font-stretch:normal;font-size:10.66666698px;line-height:0%;font-family:'GOST type B';-inkscape-font-specification:'Sans Italic';text-align:start;letter-spacing:0px;word-spacing:0px;text-anchor:start;fill:#000000;fill-opacity:1;stroke:none"
       id="text125"
       transform="translate(112.42998,-25.986174)">
      <path
         d="m -21.60632,1005.3109 0.927083,1.9844 0.03125,0.1093 -0.01042,0.099 q -0.03125,0.1406 -0.166667,0.2552 l -0.06771,0.047 -0.08333,0.036 -0.140625,0.021 q -0.151041,0 -0.260416,-0.1615 l -0.802084,-1.7291 -1.5,1.7291 q -0.140625,0.1667 -0.333333,0.1667 -0.114583,0 -0.234375,-0.1094 -0.09896,-0.1094 -0.06771,-0.2604 0.02083,-0.094 0.104166,-0.2031 l 1.71875,-1.9844 -0.927083,-1.9844 -0.03125,-0.1094 0.01042,-0.099 q 0.03125,-0.1406 0.161458,-0.25 0.130208,-0.1094 0.296875,-0.1094 0.151042,0 0.260417,0.1615 l 0.802083,1.7291 1.5,-1.7291 q 0.140625,-0.1667 0.333333,-0.1667 0.109375,0 0.239584,0.1094 0.09375,0.1146 0.0625,0.2604 -0.02083,0.094 -0.104167,0.2031 z"
         style="font-size:10.66666698px;line-height:1.25"
         id="path149"
         inkscape:connector-curvature="0" />
      <path
         d="m -16.757361,1007.0815 -2.017709,2.4409 h 1.469271 q 0.09818,0 0.152344,0.074 0.05417,0.071 0.03724,0.1625 -0.01693,0.081 -0.09141,0.1591 -0.07448,0.078 -0.192969,0.078 h -1.895833 q -0.257292,0 -0.220052,-0.1896 0.01693,-0.074 0.09479,-0.176 l 2.305468,-2.7896 q 0.125261,-0.1862 0.159115,-0.3555 0.06094,-0.3047 -0.128646,-0.5281 -0.09141,-0.1049 -0.230208,-0.1659 -0.135417,-0.061 -0.308073,-0.061 -0.179427,0 -0.365625,0.095 -0.186198,0.1049 -0.328385,0.2708 -0.03385,0.044 -0.108334,0.085 l -0.108333,0.024 q -0.09141,0 -0.155729,-0.064 -0.06094,-0.068 -0.04062,-0.1659 0.0068,-0.047 0.06771,-0.1354 0.213281,-0.2539 0.521354,-0.4164 0.152344,-0.078 0.297917,-0.1219 0.148958,-0.044 0.280989,-0.044 0.555209,0 0.866667,0.369 0.311458,0.3657 0.209896,0.8735 -0.06094,0.2911 -0.270833,0.5823 z"
         style="font-size:64.99999762%;baseline-shift:sub"
         id="path151"
         inkscape:connector-curvature="0" />
    </g>
    <g
       aria-label="x3"
       style="font-style:italic;font-variant:normal;font-weight:normal;font-stretch:normal;font-size:10.66666698px;line-height:0%;font-family:'GOST type B';-inkscape-font-specification:'Sans Italic';text-align:start;letter-spacing:0px;word-spacing:0px;text-anchor:start;fill:#000000;fill-opacity:1;stroke:none"
       id="text131"
       transform="translate(135.28852,-36.798986)">
      <path
         d="m -23.19731,1015.9175 0.927083,1.9844 0.03125,0.1094 -0.01042,0.099 q -0.03125,0.1407 -0.166667,0.2552 l -0.06771,0.047 -0.08333,0.037 -0.140625,0.021 q -0.151041,0 -0.260416,-0.1615 l -0.802084,-1.7291 -1.5,1.7291 q -0.140625,0.1667 -0.333333,0.1667 -0.114583,0 -0.234375,-0.1094 -0.09896,-0.1093 -0.06771,-0.2604 0.02083,-0.094 0.104166,-0.2031 l 1.71875,-1.9844 -0.927083,-1.9844 -0.03125,-0.1093 0.01042,-0.099 q 0.03125,-0.1406 0.161458,-0.25 0.130208,-0.1094 0.296875,-0.1094 0.151042,0 0.260417,0.1615 l 0.802083,1.7292 1.5,-1.7292 q 0.140625,-0.1667 0.333333,-0.1667 0.109375,0 0.239584,0.1094 0.09375,0.1146 0.0625,0.2604 -0.02083,0.094 -0.104167,0.2031 z"
         style="font-size:10.66666698px;line-height:1.25"
         id="path144"
         inkscape:connector-curvature="0" />
      <path
         d="m -19.11007,1016.3441 h -0.947917 q -0.108333,0 -0.1625,-0.068 -0.0474,-0.071 -0.02708,-0.1693 0.01693,-0.085 0.09479,-0.1591 0.07786,-0.078 0.189584,-0.078 h 0.947916 q 0.555209,0 0.8125,0.3623 0.230209,0.3385 0.135417,0.8159 -0.05755,0.2877 -0.220052,0.5281 -0.159115,0.2403 -0.433333,0.4333 0.165885,0.1557 0.247135,0.4063 0.08464,0.2471 0.02708,0.5315 l -0.09479,0.4739 q -0.09818,0.4841 -0.517969,0.8362 -0.416406,0.3487 -0.903906,0.3487 h -0.947917 q -0.108333,0 -0.1625,-0.064 -0.0474,-0.078 -0.02708,-0.1727 0.01693,-0.081 0.09141,-0.1591 0.07448,-0.078 0.192969,-0.078 h 0.947916 q 0.294532,0 0.541667,-0.2065 0.250521,-0.2099 0.311458,-0.5045 l 0.09479,-0.4739 q 0.05755,-0.2912 -0.104948,-0.5011 -0.1625,-0.2099 -0.463802,-0.2099 h -0.473958 q -0.108334,0 -0.1625,-0.064 -0.0474,-0.078 -0.02708,-0.1726 0.01693,-0.081 0.09141,-0.1592 0.07448,-0.078 0.192968,-0.078 h 0.473959 q 0.314844,0 0.561979,-0.2268 0.213281,-0.2032 0.274219,-0.4977 0.05755,-0.2878 -0.07109,-0.4773 -0.145573,-0.2167 -0.480729,-0.2167 z"
         style="font-size:64.99999762%;baseline-shift:sub"
         id="path146"
         inkscape:connector-curvature="0" />
    </g>
    <g
       aria-label="x4"
       style="font-style:italic;font-variant:normal;font-weight:normal;font-stretch:normal;font-size:10.66666698px;line-height:0%;font-family:'GOST type B';-inkscape-font-specification:'Sans Italic';text-align:start;letter-spacing:0px;word-spacing:0px;text-anchor:start;fill:#000000;fill-opacity:1;stroke:none"
       id="text137"
       transform="translate(187.3833,-59.573746)">
      <path
         d="m -21.959874,1027.9384 0.927084,1.9844 0.03125,0.1093 -0.01042,0.099 q -0.03125,0.1406 -0.166667,0.2552 l -0.06771,0.047 -0.08333,0.036 -0.140625,0.021 q -0.151042,0 -0.260417,-0.1615 l -0.802083,-1.7291 -1.5,1.7291 q -0.140625,0.1667 -0.333334,0.1667 -0.114583,0 -0.234375,-0.1094 -0.09896,-0.1094 -0.06771,-0.2604 0.02083,-0.094 0.104167,-0.2031 l 1.71875,-1.9844 -0.927084,-1.9844 -0.03125,-0.1094 0.01042,-0.099 q 0.03125,-0.1406 0.161458,-0.25 0.130209,-0.1094 0.296875,-0.1094 0.151042,0 0.260417,0.1615 l 0.802083,1.7291 1.5,-1.7291 q 0.140625,-0.1667 0.333334,-0.1667 0.109375,0 0.239583,0.1094 0.09375,0.1146 0.0625,0.2604 -0.02083,0.094 -0.104167,0.2031 z"
         style="font-size:10.66666698px;line-height:1.25"
         id="path139"
         inkscape:connector-curvature="0" />
      <path
         d="m -17.469769,1031.2019 h 0.473958 q 0.09818,0 0.152344,0.074 0.05417,0.071 0.03724,0.1625 -0.01693,0.081 -0.09141,0.1591 -0.07448,0.078 -0.192969,0.078 h -0.473958 l -0.142187,0.7109 q -0.0237,0.1118 -0.104948,0.1795 -0.07448,0.058 -0.179427,0.058 -0.09479,0 -0.15573,-0.058 -0.05755,-0.061 -0.03385,-0.1795 l 0.142188,-0.7109 h -1.421875 q -0.247136,0 -0.209896,-0.193 l 0.02031,-0.057 0.0237,-0.054 1.611459,-3.3143 q 0.03385,-0.071 0.104948,-0.1287 l 0.05078,-0.024 q 0.04401,-0.02 0.09479,-0.02 0.104948,0 0.159115,0.068 0.06094,0.064 0.04062,0.1659 l -0.0237,0.071 -1.465885,3.013 h 1.110416 l 0.142188,-0.7109 q 0.02031,-0.095 0.104948,-0.176 0.08463,-0.061 0.179427,-0.061 0.09141,0 0.152344,0.061 0.06094,0.057 0.03724,0.176 z"
         style="font-size:64.99999762%;baseline-shift:sub"
         id="path141"
         inkscape:connector-curvature="0" />
    </g>
    <circle
       style="fill:#000000;fill-opacity:1;stroke:#000000;stroke-width:1.5;stroke-linecap:round;stroke-linejoin:round;stroke-miterlimit:4;stroke-dasharray:1.33200002, 0.333;stroke-dashoffset:0;stroke-opacity:1;paint-order:stroke fill markers"
       id="circle159"
       cx="111.06594"
       cy="974.26727"
       r="0.5476495" />
    <text
       id="text163"
       y="1025.149"
       x="29.346226"
       style="font-style:italic;font-variant:normal;font-weight:normal;font-stretch:normal;line-height:0%;font-family:'GOST type B';-inkscape-font-specification:'Sans Italic';text-align:start;letter-spacing:0px;word-spacing:0px;text-anchor:start;fill:#008000;fill-opacity:1;stroke:none;"
       xml:space="preserve"><tspan
         style="font-size:12px;line-height:1.25;fill:#008000;"
         y="1025.149"
         x="29.346226"
         id="tspan161"
         sodipodi:role="line">a</tspan></text>
    <text
       xml:space="preserve"
       style="font-style:italic;font-variant:normal;font-weight:normal;font-stretch:normal;line-height:0%;font-family:'GOST type B';-inkscape-font-specification:'Sans Italic';text-align:start;letter-spacing:0px;word-spacing:0px;text-anchor:start;fill:#008000;fill-opacity:1;stroke:none"
       x="29.346226"
       y="970.17151"
       id="text167"><tspan
         sodipodi:role="line"
         id="tspan165"
         x="29.346226"
         y="970.17151"
         style="font-size:12px;line-height:1.25;fill:#008000">a</tspan></text>
  </g>
</svg>
