<?xml version="1.0" encoding="UTF-8" standalone="no"?>
<!-- Created with Inkscape (http://www.inkscape.org/) -->

<svg
   xmlns:dc="http://purl.org/dc/elements/1.1/"
   xmlns:cc="http://creativecommons.org/ns#"
   xmlns:rdf="http://www.w3.org/1999/02/22-rdf-syntax-ns#"
   xmlns:svg="http://www.w3.org/2000/svg"
   xmlns="http://www.w3.org/2000/svg"
   xmlns:sodipodi="http://sodipodi.sourceforge.net/DTD/sodipodi-0.dtd"
   xmlns:inkscape="http://www.inkscape.org/namespaces/inkscape"
   width="30mm"
   height="30mm"
   viewBox="0 0 30 30"
   version="1.1"
   id="svg8"
   inkscape:version="0.92.4 (5da689c313, 2019-01-14)"
   sodipodi:docname="11-01.svg">
  <defs
     id="defs2" />
  <sodipodi:namedview
     id="base"
     pagecolor="#ffffff"
     bordercolor="#666666"
     borderopacity="1.0"
     inkscape:pageopacity="0.0"
     inkscape:pageshadow="2"
     inkscape:zoom="6.4558333"
     inkscape:cx="56.692913"
     inkscape:cy="56.692913"
     inkscape:document-units="mm"
     inkscape:current-layer="layer1"
     showgrid="false"
     inkscape:window-width="1920"
     inkscape:window-height="1009"
     inkscape:window-x="0"
     inkscape:window-y="0"
     inkscape:window-maximized="1"
     inkscape:snap-global="false" />
  <metadata
     id="metadata5">
    <rdf:RDF>
      <cc:Work
         rdf:about="">
        <dc:format>image/svg+xml</dc:format>
        <dc:type
           rdf:resource="http://purl.org/dc/dcmitype/StillImage" />
        <dc:title />
      </cc:Work>
    </rdf:RDF>
  </metadata>
  <g
     inkscape:label="Layer 1"
     inkscape:groupmode="layer"
     id="layer1"
     transform="translate(0,-267)">
    <path
       style="fill:none;fill-opacity:1;stroke:#000000;stroke-width:0.17638889;stroke-linecap:round;stroke-linejoin:round;stroke-miterlimit:4;stroke-dasharray:none;stroke-dashoffset:0;stroke-opacity:0.8;paint-order:stroke markers fill"
       d="M 28.599675,282 A 13.734925,13.734925 0 0 1 14.86475,295.73493 13.734925,13.734925 0 0 1 1.1298246,282 13.734925,13.734925 0 0 1 14.86475,268.26507 13.734925,13.734925 0 0 1 28.599675,282 Z"
       id="path10" />
    <path
       style="fill:none;fill-opacity:1;stroke:#ff0000;stroke-width:0.35277778;stroke-linecap:round;stroke-linejoin:round;stroke-miterlimit:4;stroke-dasharray:none;stroke-dashoffset:0;stroke-opacity:0.8;paint-order:stroke markers fill"
       d="M 22.28491,270.44191 A 13.734925,13.734925 0 0 1 28.599675,282"
       id="circle37" />
    <path
       style="fill:none;stroke:#000000;stroke-width:0.08819444;stroke-linecap:butt;stroke-linejoin:miter;stroke-opacity:1"
       d="M 22.168991,270.3115 14.822404,282"
       id="path41"
       inkscape:connector-curvature="0"
       sodipodi:nodetypes="cc" />
    <path
       style="fill:#ff0000;fill-opacity:1;stroke:none;stroke-width:0.19088081;stroke-linecap:round;stroke-linejoin:round;stroke-miterlimit:4;stroke-dasharray:none;stroke-dashoffset:0;stroke-opacity:0.8;paint-order:stroke markers fill"
       d="m 22.529422,270.31967 a 0.36958981,0.36958981 0 0 1 -0.36959,0.36959 0.36958981,0.36958981 0 0 1 -0.36959,-0.36959 0.36958981,0.36958981 0 0 1 0.36959,-0.36959 0.36958981,0.36958981 0 0 1 0.36959,0.36959 z"
       id="circle39" />
    <path
       style="fill:#0000ff;fill-opacity:1;stroke:none;stroke-width:0.19088081;stroke-linecap:round;stroke-linejoin:round;stroke-miterlimit:4;stroke-dasharray:none;stroke-dashoffset:0;stroke-opacity:0.8;paint-order:stroke markers fill"
       d="m 28.933803,282 a 0.36958981,0.36958981 0 0 1 -0.36959,0.36959 A 0.36958981,0.36958981 0 0 1 28.194623,282 0.36958981,0.36958981 0 0 1 28.564213,281.63041 0.36958981,0.36958981 0 0 1 28.933803,282 Z"
       id="circle14" />
    <path
       style="fill:#ffd5d5;fill-opacity:1;stroke:none;stroke-width:0.20653157;stroke-linecap:round;stroke-linejoin:round;stroke-miterlimit:4;stroke-dasharray:none;stroke-dashoffset:0;stroke-opacity:0.8;paint-order:stroke markers fill"
       d="m 56.916831,55.660424 c -0.167333,-0.201622 0.235031,-0.248213 0.476917,-0.658319 0.16001,-0.271295 6.028842,-9.621818 13.041848,-20.778941 l 12.750921,-20.285679 0.655355,0.04708 c 0.718996,0.05165 1.516492,0.559402 4.131028,2.630166 5.934783,4.700465 10.54249,10.384419 13.97052,17.233695 2.97085,5.935806 4.73263,12.300456 5.25947,19.000438 l 0.18616,2.367385 -0.35894,0.382067 -0.35893,0.382067 H 82.088261 c -22.120168,0 -25.029055,0.401681 -25.210154,0.183464 z"
       id="path43"
       inkscape:connector-curvature="0"
       transform="matrix(0.26458333,0,0,0.26458333,0,267)"
       sodipodi:nodetypes="ccsccssccccscc" />
    <path
       style="fill:none;stroke:#000000;stroke-width:0.176;stroke-linecap:butt;stroke-linejoin:miter;stroke-miterlimit:4;stroke-dasharray:none;stroke-opacity:1"
       d="m 15.934241,280.27392 c 0,0 0.507171,0.17013 0.802625,0.70181 0.295455,0.53168 0.168872,0.98329 0.168872,0.98329"
       id="path45"
       inkscape:connector-curvature="0"
       sodipodi:nodetypes="czc" />
    <g
       id="g68"
       transform="matrix(0.8266487,0,0,0.8266487,3.073376,48.790456)">
      <path
         d="m 18.276655,280.44137 q -0.01447,0.0682 -0.06408,0.10955 -0.04547,0.0351 -0.109554,0.0351 -0.05788,0 -0.09508,-0.0351 -0.03514,-0.0372 -0.02067,-0.10955 l 0.450618,-2.25723 -0.398942,0.3328 q -0.05168,0.0434 -0.107487,0.0434 -0.05168,0 -0.09302,-0.0434 -0.03514,-0.0455 -0.02481,-0.10336 0.01034,-0.0496 0.06408,-0.0992 l 0.694531,-0.57877 q 0.03514,-0.0289 0.06821,-0.0455 0.03514,-0.0186 0.07235,-0.0186 0.03514,0 0.07441,0.0434 0.02481,0.0455 0.01034,0.12195 z"
         style="font-style:italic;font-variant:normal;font-weight:normal;font-stretch:normal;font-size:4.23333311px;line-height:4.93888855px;font-family:'GOST type B';-inkscape-font-specification:'GOST type B Italic';text-align:start;letter-spacing:0px;word-spacing:0px;text-anchor:start;fill:#000000;fill-opacity:1;stroke:none;stroke-width:0.26458332"
         id="path51"
         inkscape:connector-curvature="0" />
      <path
         d="m 20.377299,280.29667 h 0.578776 q 0.119889,0 0.221175,-0.0806 0.101286,-0.0806 0.12609,-0.20878 l 0.173633,-0.86816 q 0.02481,-0.12196 -0.04134,-0.20464 -0.06408,-0.0847 -0.190169,-0.0847 h -0.578776 z m -0.05788,0.28939 -0.144694,0.72347 q -0.0124,0.0599 -0.06615,0.10129 -0.05168,0.0434 -0.107487,0.0434 -0.04961,0 -0.09095,-0.0372 -0.03927,-0.0351 -0.02481,-0.10749 l 0.520899,-2.60449 q 0.02894,-0.1447 0.173632,-0.1447 h 0.72347 q 0.235645,0 0.372071,0.1695 0.138493,0.16743 0.09095,0.40928 l -0.173633,0.86816 q -0.04754,0.23772 -0.25218,0.40928 -0.202572,0.1695 -0.442351,0.1695 z"
         style="font-style:italic;font-variant:normal;font-weight:normal;font-stretch:normal;font-size:4.23333311px;line-height:4.93888855px;font-family:'GOST type B';-inkscape-font-specification:'GOST type B Italic';text-align:start;letter-spacing:0px;word-spacing:0px;text-anchor:start;fill:#000000;fill-opacity:1;stroke:none;stroke-width:0.26458332"
         id="path53"
         inkscape:connector-curvature="0" />
      <path
         d="m 23.329057,280.00728 0.23151,-1.15755 h -0.578776 q -0.121956,0 -0.223242,0.0827 -0.04961,0.0413 -0.08062,0.0951 -0.03101,0.0517 -0.04341,0.11162 l -0.173633,0.86816 q -0.02481,0.12196 0.04134,0.20671 0.03514,0.0372 0.08061,0.062 0.05788,0.0207 0.109554,0.0207 h 0.289388 q 0.119889,0 0.221175,-0.0806 0.101286,-0.0806 0.126091,-0.20878 z m 0.06408,0.38861 q -0.08475,0.0806 -0.217041,0.13643 -0.132292,0.0537 -0.252181,0.0537 h -0.289388 q -0.233578,0 -0.374138,-0.16743 -0.138493,-0.16743 -0.08888,-0.41135 l 0.173633,-0.86816 q 0.04754,-0.23978 0.250113,-0.40928 0.204639,-0.1695 0.444418,-0.1695 h 0.72347 q 0.144694,0 0.115755,0.1447 l -0.260449,1.30018 q -0.01654,0.0868 0.02067,0.17776 0.03307,0.0806 0.11989,0.12609 0.08268,0.0372 0.06408,0.13023 -0.0124,0.0641 -0.06201,0.10542 -0.04548,0.0434 -0.111621,0.0434 -0.03101,0 -0.05788,-0.0145 -0.130225,-0.0558 -0.198437,-0.17777 z"
         style="font-style:italic;font-variant:normal;font-weight:normal;font-stretch:normal;font-size:4.23333311px;line-height:4.93888855px;font-family:'GOST type B';-inkscape-font-specification:'GOST type B Italic';text-align:start;letter-spacing:0px;word-spacing:0px;text-anchor:start;fill:#000000;fill-opacity:1;stroke:none;stroke-width:0.26458332"
         id="path55"
         inkscape:connector-curvature="0" />
      <path
         d="m 25.586283,278.84973 h -0.578776 q -0.121956,0 -0.223242,0.0827 -0.04961,0.0413 -0.08062,0.0951 -0.03101,0.0517 -0.04341,0.11162 l -0.173632,0.86816 q -0.02481,0.12196 0.04134,0.20671 0.03514,0.0372 0.08062,0.062 0.05788,0.0207 0.109554,0.0207 h 0.289388 q 0.119889,0 0.221175,-0.0806 0.101286,-0.0806 0.126091,-0.20878 z m 0.05788,-0.28939 0.05788,-0.28938 q 0.02481,-0.12196 -0.04134,-0.20464 -0.06408,-0.0848 -0.190169,-0.0848 h -0.578776 q -0.06615,0 -0.09922,-0.0393 -0.02894,-0.0475 -0.01654,-0.10542 0.01034,-0.0496 0.05581,-0.0971 0.04547,-0.0475 0.117822,-0.0475 h 0.578776 q 0.241846,0 0.376205,0.1695 0.134359,0.1695 0.08682,0.40928 l -0.347265,1.73632 q -0.04754,0.23772 -0.252181,0.40928 -0.202572,0.1695 -0.442351,0.1695 h -0.289388 q -0.233577,0 -0.374137,-0.16743 -0.138493,-0.16743 -0.08888,-0.41135 l 0.173632,-0.86816 q 0.04754,-0.23978 0.250114,-0.40928 0.204639,-0.1695 0.444418,-0.1695 z"
         style="font-style:italic;font-variant:normal;font-weight:normal;font-stretch:normal;font-size:4.23333311px;line-height:4.93888855px;font-family:'GOST type B';-inkscape-font-specification:'GOST type B Italic';text-align:start;letter-spacing:0px;word-spacing:0px;text-anchor:start;fill:#000000;fill-opacity:1;stroke:none;stroke-width:0.26458332"
         id="path57"
         inkscape:connector-curvature="0" />
    </g>
    <path
       style="fill:none;stroke:#0000ff;stroke-width:0.35277778;stroke-linecap:butt;stroke-linejoin:miter;stroke-opacity:1"
       d="m 14.822404,282 h 13.86612"
       id="path35"
       inkscape:connector-curvature="0" />
    <path
       style="fill:#0000ff;fill-opacity:1;stroke:none;stroke-width:0.19088081;stroke-linecap:round;stroke-linejoin:round;stroke-miterlimit:4;stroke-dasharray:none;stroke-dashoffset:0;stroke-opacity:0.8;paint-order:stroke markers fill"
       d="M 15.23434,282 A 0.36958981,0.36958981 0 0 1 14.86475,282.36959 0.36958981,0.36958981 0 0 1 14.49516,282 0.36958981,0.36958981 0 0 1 14.86475,281.63041 0.36958981,0.36958981 0 0 1 15.23434,282 Z"
       id="path12" />
  </g>
</svg>
