<?xml version="1.0" encoding="UTF-8" standalone="no"?>
<!-- Created with Inkscape (http://www.inkscape.org/) -->

<svg
   xmlns:dc="http://purl.org/dc/elements/1.1/"
   xmlns:cc="http://creativecommons.org/ns#"
   xmlns:rdf="http://www.w3.org/1999/02/22-rdf-syntax-ns#"
   xmlns:svg="http://www.w3.org/2000/svg"
   xmlns="http://www.w3.org/2000/svg"
   xmlns:sodipodi="http://sodipodi.sourceforge.net/DTD/sodipodi-0.dtd"
   xmlns:inkscape="http://www.inkscape.org/namespaces/inkscape"
   width="30mm"
   height="30mm"
   viewBox="0 0 30 30"
   version="1.1"
   id="svg8"
   inkscape:version="0.92.4 (5da689c313, 2019-01-14)"
   sodipodi:docname="11-02.svg">
  <defs
     id="defs2">
    <marker
       inkscape:stockid="Arrow2Mstart"
       orient="auto"
       refY="0.0"
       refX="0.0"
       id="Arrow2Mstart"
       style="overflow:visible"
       inkscape:isstock="true">
      <path
         id="path855"
         style="fill-rule:evenodd;stroke-width:0.625;stroke-linejoin:round;stroke:#ff0000;stroke-opacity:0.8;fill:#ff0000;fill-opacity:0.8"
         d="M 8.7185878,4.0337352 L -2.2072895,0.016013256 L 8.7185884,-4.0017078 C 6.9730900,-1.6296469 6.9831476,1.6157441 8.7185878,4.0337352 z "
         transform="scale(0.6) translate(0,0)" />
    </marker>
    <marker
       inkscape:stockid="Arrow1Mend"
       orient="auto"
       refY="0.0"
       refX="0.0"
       id="Arrow1Mend"
       style="overflow:visible;"
       inkscape:isstock="true">
      <path
         id="path840"
         d="M 0.0,0.0 L 5.0,-5.0 L -12.5,0.0 L 5.0,5.0 L 0.0,0.0 z "
         style="fill-rule:evenodd;stroke:#000000;stroke-width:1pt;stroke-opacity:1;fill:#000000;fill-opacity:1"
         transform="scale(0.4) rotate(180) translate(10,0)" />
    </marker>
    <marker
       inkscape:isstock="true"
       style="overflow:visible;"
       id="marker1161"
       refX="0.0"
       refY="0.0"
       orient="auto"
       inkscape:stockid="Arrow2Mend">
      <path
         transform="scale(0.6) rotate(180) translate(0,0)"
         d="M 8.7185878,4.0337352 L -2.2072895,0.016013256 L 8.7185884,-4.0017078 C 6.9730900,-1.6296469 6.9831476,1.6157441 8.7185878,4.0337352 z "
         style="fill-rule:evenodd;stroke-width:0.625;stroke-linejoin:round;stroke:#000000;stroke-opacity:1;fill:#000000;fill-opacity:1"
         id="path1159" />
    </marker>
    <marker
       inkscape:stockid="Arrow2Mend"
       orient="auto"
       refY="0.0"
       refX="0.0"
       id="Arrow2Mend"
       style="overflow:visible;"
       inkscape:isstock="true"
       inkscape:collect="always">
      <path
         id="path858"
         style="fill-rule:evenodd;stroke-width:0.625;stroke-linejoin:round;stroke:#000000;stroke-opacity:1;fill:#000000;fill-opacity:1"
         d="M 8.7185878,4.0337352 L -2.2072895,0.016013256 L 8.7185884,-4.0017078 C 6.9730900,-1.6296469 6.9831476,1.6157441 8.7185878,4.0337352 z "
         transform="scale(0.6) rotate(180) translate(0,0)" />
    </marker>
    <marker
       inkscape:stockid="Arrow2Lend"
       orient="auto"
       refY="0.0"
       refX="0.0"
       id="Arrow2Lend"
       style="overflow:visible;"
       inkscape:isstock="true">
      <path
         id="path852"
         style="fill-rule:evenodd;stroke-width:0.625;stroke-linejoin:round;stroke:#ff0000;stroke-opacity:0.8;fill:#ff0000;fill-opacity:0.8"
         d="M 8.7185878,4.0337352 L -2.2072895,0.016013256 L 8.7185884,-4.0017078 C 6.9730900,-1.6296469 6.9831476,1.6157441 8.7185878,4.0337352 z "
         transform="scale(1.1) rotate(180) translate(1,0)" />
    </marker>
  </defs>
  <sodipodi:namedview
     id="base"
     pagecolor="#ffffff"
     bordercolor="#666666"
     borderopacity="1.0"
     inkscape:pageopacity="0.0"
     inkscape:pageshadow="2"
     inkscape:zoom="6.4558333"
     inkscape:cx="56.692913"
     inkscape:cy="56.692913"
     inkscape:document-units="mm"
     inkscape:current-layer="layer1"
     showgrid="false"
     inkscape:window-width="1920"
     inkscape:window-height="1009"
     inkscape:window-x="0"
     inkscape:window-y="0"
     inkscape:window-maximized="1"
     inkscape:snap-global="false" />
  <metadata
     id="metadata5">
    <rdf:RDF>
      <cc:Work
         rdf:about="">
        <dc:format>image/svg+xml</dc:format>
        <dc:type
           rdf:resource="http://purl.org/dc/dcmitype/StillImage" />
        <dc:title />
      </cc:Work>
    </rdf:RDF>
  </metadata>
  <g
     inkscape:label="Layer 1"
     inkscape:groupmode="layer"
     id="layer1"
     transform="translate(0,-267)">
    <path
       style="fill:none;fill-opacity:1;stroke:#000000;stroke-width:0.26458332;stroke-linecap:round;stroke-linejoin:round;stroke-miterlimit:4;stroke-dasharray:none;stroke-dashoffset:0;stroke-opacity:0.8;paint-order:stroke markers fill"
       d="M 24.952763,283.2619 A 11.212234,11.212234 0 0 1 13.740529,294.47414 11.212234,11.212234 0 0 1 2.5282955,283.2619 11.212234,11.212234 0 0 1 13.740529,272.04967 11.212234,11.212234 0 0 1 24.952763,283.2619 Z"
       id="path10" />
    <path
       inkscape:connector-curvature="0"
       id="circle37"
       d="m 20.378906,274.07031 a 0.17651764,0.17651764 0 0 0 -0.07617,0.31836 c 2.813791,2.08106 4.472657,5.3733 4.472657,8.87305 a 0.1767575,0.1767575 0 1 0 0.353515,0 c 1e-6,-3.61137 -1.713654,-7.00882 -4.617187,-9.15625 a 0.17651764,0.17651764 0 0 0 -0.132813,-0.0352 z"
       style="color:#000000;font-style:normal;font-variant:normal;font-weight:normal;font-stretch:normal;font-size:medium;line-height:normal;font-family:sans-serif;font-variant-ligatures:normal;font-variant-position:normal;font-variant-caps:normal;font-variant-numeric:normal;font-variant-alternates:normal;font-feature-settings:normal;text-indent:0;text-align:start;text-decoration:none;text-decoration-line:none;text-decoration-style:solid;text-decoration-color:#000000;letter-spacing:normal;word-spacing:normal;text-transform:none;writing-mode:lr-tb;direction:ltr;text-orientation:mixed;dominant-baseline:auto;baseline-shift:baseline;text-anchor:start;white-space:normal;shape-padding:0;clip-rule:nonzero;display:inline;overflow:visible;visibility:visible;opacity:1;isolation:auto;mix-blend-mode:normal;color-interpolation:sRGB;color-interpolation-filters:linearRGB;solid-color:#000000;solid-opacity:1;vector-effect:none;fill:#0000ff;fill-opacity:1;fill-rule:nonzero;stroke:none;stroke-width:0.35299999;stroke-linecap:round;stroke-linejoin:round;stroke-miterlimit:4;stroke-dasharray:none;stroke-dashoffset:0;stroke-opacity:1;paint-order:stroke markers fill;color-rendering:auto;image-rendering:auto;shape-rendering:auto;text-rendering:auto;enable-background:accumulate" />
    <path
       sodipodi:nodetypes="cccc"
       inkscape:connector-curvature="0"
       id="path3234"
       style="fill:#0000ff;fill-opacity:1;fill-rule:evenodd;stroke:none;stroke-width:0.132375;stroke-linejoin:round;stroke-opacity:1"
       d="m 21.244654,275.97564 -1.446488,-2.18316 2.491646,0.83999 c -0.600303,0.16946 -1.020744,0.71326 -1.045158,1.34317 z"
       inkscape:transform-center-x="-0.06551854"
       inkscape:transform-center-y="-0.1679285" />
    <path
       style="fill:none;stroke:#000000;stroke-width:0.176;stroke-linecap:butt;stroke-linejoin:miter;stroke-miterlimit:4;stroke-dasharray:none;stroke-opacity:1;marker-end:url(#Arrow2Mend)"
       d="M 13.74222,295.39095 V 270.268"
       id="path21"
       inkscape:connector-curvature="0" />
    <path
       inkscape:connector-curvature="0"
       id="path1157"
       d="M 1.91845,283.26359 H 27.0414"
       style="fill:none;stroke:#000000;stroke-width:0.176;stroke-linecap:butt;stroke-linejoin:miter;stroke-miterlimit:4;stroke-dasharray:none;stroke-opacity:1;marker-end:url(#marker1161)" />
    <path
       style="fill:#ff0000;fill-opacity:1;stroke:none;stroke-width:0.26165509;stroke-linecap:round;stroke-linejoin:round;stroke-miterlimit:4;stroke-dasharray:none;stroke-dashoffset:0;stroke-opacity:0.8;paint-order:stroke markers fill"
       d="m 25.430438,283.32339 a 0.50662535,0.50662535 0 0 1 -0.506625,0.50663 0.50662535,0.50662535 0 0 1 -0.506625,-0.50663 0.50662535,0.50662535 0 0 1 0.506625,-0.50662 0.50662535,0.50662535 0 0 1 0.506625,0.50662 z"
       id="circle14" />
    <g
       aria-label="O"
       style="font-style:italic;font-variant:normal;font-weight:normal;font-stretch:normal;font-size:4.23333311px;line-height:4.93888855px;font-family:Academy;-inkscape-font-specification:'Academy Italic';text-align:start;letter-spacing:0px;word-spacing:0px;text-anchor:start;fill:#000000;fill-opacity:1;stroke:none;stroke-width:0.26458332"
       id="text1329">
      <path
         d="m 12.859419,286.08266 q -0.04754,0.23771 -0.252181,0.40928 -0.202571,0.1695 -0.44235,0.1695 h -0.578776 q -0.235645,0 -0.374137,-0.16743 -0.136426,-0.1695 -0.08888,-0.41135 l 0.347266,-1.73633 q 0.04754,-0.24184 0.250114,-0.40927 0.202571,-0.1695 0.444417,-0.1695 h 0.578776 q 0.241846,0 0.376204,0.1695 0.134359,0.1695 0.08682,0.40927 z m -0.289388,0 0.347266,-1.73633 q 0.0248,-0.12195 -0.04134,-0.20463 -0.06408,-0.0848 -0.19017,-0.0848 H 12.10701 q -0.121956,0 -0.223242,0.0827 -0.04961,0.0413 -0.08061,0.0951 -0.03101,0.0517 -0.04341,0.11162 l -0.347266,1.73633 q -0.0248,0.12196 0.04134,0.20671 0.03514,0.0372 0.08062,0.062 0.05788,0.0207 0.109554,0.0207 h 0.578776 q 0.119889,0 0.221175,-0.0806 0.101286,-0.0806 0.12609,-0.20877 z"
         style="font-style:italic;font-variant:normal;font-weight:normal;font-stretch:normal;font-family:'GOST type B';-inkscape-font-specification:'GOST type B Italic';stroke-width:0.26458332"
         id="path3240" />
    </g>
    <g
       aria-label="1"
       style="font-style:italic;font-variant:normal;font-weight:normal;font-stretch:normal;font-size:4.23333311px;line-height:4.93888855px;font-family:Academy;-inkscape-font-specification:'Academy Italic';text-align:start;letter-spacing:0px;word-spacing:0px;text-anchor:start;fill:#000000;fill-opacity:1;stroke:none;stroke-width:0.26458332"
       id="text1333">
      <path
         d="m 23.543783,286.51674 q -0.01447,0.0682 -0.06408,0.10956 -0.04548,0.0351 -0.109554,0.0351 -0.05788,0 -0.09508,-0.0351 -0.03514,-0.0372 -0.02067,-0.10956 l 0.450618,-2.25722 -0.398942,0.33279 q -0.05168,0.0434 -0.107487,0.0434 -0.05168,0 -0.09302,-0.0434 -0.03514,-0.0455 -0.02481,-0.10335 0.01034,-0.0496 0.06408,-0.0992 l 0.694531,-0.57877 q 0.03514,-0.0289 0.06821,-0.0455 0.03514,-0.0186 0.07235,-0.0186 0.03514,0 0.07441,0.0434 0.02481,0.0455 0.01034,0.12195 z"
         style="font-style:italic;font-variant:normal;font-weight:normal;font-stretch:normal;font-family:'GOST type B';-inkscape-font-specification:'GOST type B Italic';stroke-width:0.26458332"
         id="path3243" />
    </g>
    <g
       id="g1356"
       transform="translate(33.258931,-8.658228)"
       style="fill:#ff0000">
      <g
         aria-label="P"
         style="font-style:italic;font-variant:normal;font-weight:normal;font-stretch:normal;font-size:4.23333311px;line-height:4.93888855px;font-family:Academy;-inkscape-font-specification:'Academy Italic';text-align:start;letter-spacing:0px;word-spacing:0px;text-anchor:start;fill:#ff0000;fill-opacity:1;stroke:none;stroke-width:0.26458332"
         id="text1337">
        <path
           d="m -11.959704,279.36452 h 0.868164 q 0.119889,0 0.221175,-0.0806 0.101285,-0.0806 0.12609,-0.20878 l 0.115755,-0.57877 q 0.02481,-0.12196 -0.04134,-0.20464 -0.06408,-0.0847 -0.190169,-0.0847 h -0.868164 z m -0.05788,0.28939 -0.202572,1.01286 q -0.01447,0.0682 -0.06408,0.10955 -0.04548,0.0351 -0.109554,0.0351 -0.05788,0 -0.09508,-0.0351 -0.03514,-0.0372 -0.02067,-0.10955 l 0.520899,-2.60449 q 0.02894,-0.1447 0.173633,-0.1447 h 1.012858 q 0.241845,0 0.376204,0.1695 0.134359,0.1695 0.08682,0.40928 l -0.115755,0.57877 q -0.04754,0.23772 -0.252181,0.40928 -0.202571,0.1695 -0.44235,0.1695 z"
           style="font-style:italic;font-variant:normal;font-weight:normal;font-stretch:normal;font-family:'GOST type B';-inkscape-font-specification:'GOST type B Italic';fill:#ff0000;stroke-width:0.26458332"
           id="path3246" />
      </g>
      <g
         aria-label="60"
         style="font-style:italic;font-variant:normal;font-weight:normal;font-stretch:normal;font-size:4.23333311px;line-height:4.93888855px;font-family:Academy;-inkscape-font-specification:'Academy Italic';text-align:start;letter-spacing:0px;word-spacing:0px;text-anchor:start;fill:#ff0000;fill-opacity:1;stroke:none;stroke-width:0.26458332"
         id="text1341">
        <path
           d="m -11.302335,281.32227 -0.02343,0.0965 -0.09646,0.48232 q -0.01654,0.0813 0.02756,0.1378 0.02343,0.0248 0.05374,0.0413 0.03859,0.0138 0.07304,0.0138 h 0.192925 q 0.07993,0 0.14745,-0.0537 0.06752,-0.0538 0.08406,-0.13918 l 0.07717,-0.38586 q 0.01654,-0.0813 -0.02756,-0.13642 -0.04272,-0.0565 -0.12678,-0.0565 z m 0.07166,-0.19293 h 0.348643 q 0.157097,0 0.248047,0.113 0.09233,0.11162 0.06063,0.27285 l -0.07717,0.38586 q -0.0317,0.15847 -0.168121,0.27285 -0.135048,0.113 -0.2949,0.113 h -0.192925 q -0.155719,0 -0.249425,-0.11163 -0.09233,-0.11162 -0.05926,-0.27422 l 0.09646,-0.48232 q 0.05512,-0.27423 0.209462,-0.5209 0.104731,-0.17087 0.271473,-0.31143 0.168121,-0.14056 0.367936,-0.22049 l 0.04272,-0.01 q 0.03721,0 0.06201,0.0303 0.01792,0.0317 0.01103,0.0703 -0.0055,0.0276 -0.02205,0.0469 -0.01654,0.0193 -0.05512,0.04 -0.04134,0.0152 -0.07579,0.0317 -0.03445,0.0152 -0.07441,0.04 -0.06752,0.04 -0.141938,0.0992 -0.135047,0.113 -0.22462,0.25908 l -0.04547,0.0772 z"
           style="font-style:italic;font-variant:normal;font-weight:normal;font-stretch:normal;font-size:2.82222223px;font-family:'GOST type B';-inkscape-font-specification:'GOST type B Italic';fill:#ff0000;stroke-width:0.26458332"
           id="path3249" />
        <path
           d="m -9.2917774,281.86246 q -0.034451,0.17225 -0.1832791,0.29903 -0.1488281,0.12541 -0.326595,0.12541 h -0.1157553 q -0.1722552,0 -0.2742292,-0.12265 -0.100597,-0.12265 -0.06477,-0.30179 l 0.214974,-1.08038 q 0.03445,-0.1695 0.1832789,-0.29628 0.1502062,-0.12816 0.326595,-0.12816 h 0.1157553 q 0.1722547,0 0.2728515,0.12403 0.1019748,0.12264 0.066146,0.30041 z m -0.1929254,0 0.214974,-1.08038 q 0.019292,-0.0951 -0.034451,-0.16261 -0.052365,-0.0689 -0.1502061,-0.0689 h -0.1157552 q -0.095085,0 -0.177767,0.0675 -0.081304,0.0675 -0.1005967,0.16399 l -0.2149742,1.08038 q -0.01929,0.0951 0.03445,0.16399 0.053744,0.0675 0.1502063,0.0675 h 0.1157552 q 0.093707,0 0.1750109,-0.0661 0.082682,-0.0661 0.1033528,-0.16536 z"
           style="font-style:italic;font-variant:normal;font-weight:normal;font-stretch:normal;font-size:2.82222223px;font-family:'GOST type B';-inkscape-font-specification:'GOST type B Italic';fill:#ff0000;stroke-width:0.26458332"
           id="path3251" />
      </g>
      <g
         transform="matrix(1.2603681,0,0,1,2.7944392,-6.352459)"
         id="text1345"
         style="font-style:italic;font-variant:normal;font-weight:normal;font-stretch:normal;font-size:4.23333311px;line-height:4.93888855px;font-family:Academy;-inkscape-font-specification:'Academy Italic';text-align:start;letter-spacing:0px;word-spacing:0px;text-anchor:start;fill:#ff0000;fill-opacity:1;stroke:none;stroke-width:0.26458332"
         aria-label="o">
        <path
           inkscape:connector-curvature="0"
           id="path1347"
           style="font-style:normal;font-variant:normal;font-weight:normal;font-stretch:normal;font-size:2.11666656px;font-family:'GOST type B';-inkscape-font-specification:'GOST type B';fill:#ff0000;stroke-width:0.26458332"
           d="m -8.435114,286.8866 q 0,0.12919 -0.093018,0.22427 -0.091984,0.0941 -0.2253093,0.0941 h -0.086816 q -0.129191,0 -0.2242757,-0.092 -0.094051,-0.092 -0.094051,-0.22634 v -0.37621 q 0,-0.12712 0.093018,-0.2222 0.093018,-0.0961 0.2253092,-0.0961 h 0.086816 q 0.1291911,0 0.2232422,0.093 0.095085,0.092 0.095085,0.2253 z m -0.144694,0 v -0.37621 q 0,-0.0713 -0.050643,-0.12195 -0.049609,-0.0517 -0.1229899,-0.0517 h -0.086816 q -0.071313,0 -0.1229899,0.0506 -0.050643,0.0506 -0.050643,0.12299 v 0.37621 q 0,0.0713 0.050643,0.12299 0.050643,0.0506 0.1229899,0.0506 h 0.086816 q 0.07028,0 0.1219564,-0.0496 0.051676,-0.0496 0.051676,-0.12402 z" />
      </g>
    </g>
    <g
       id="g1382"
       transform="translate(40.676963,6.9565261)">
      <g
         aria-label="P"
         style="font-style:italic;font-variant:normal;font-weight:normal;font-stretch:normal;font-size:4.23333311px;line-height:4.93888855px;font-family:Academy;-inkscape-font-specification:'Academy Italic';text-align:start;letter-spacing:0px;word-spacing:0px;text-anchor:start;fill:#ff0000;fill-opacity:1;stroke:none;stroke-width:0.26458332"
         id="text1360">
        <path
           d="m -14.787573,278.66781 h 0.868164 q 0.119889,0 0.221175,-0.0806 0.101286,-0.0806 0.126091,-0.20877 l 0.115755,-0.57878 q 0.02481,-0.12195 -0.04134,-0.20464 -0.06408,-0.0848 -0.190169,-0.0848 h -0.868165 z m -0.05788,0.28938 -0.202571,1.01286 q -0.01447,0.0682 -0.06408,0.10956 -0.04548,0.0351 -0.109554,0.0351 -0.05788,0 -0.09508,-0.0351 -0.03514,-0.0372 -0.02067,-0.10956 l 0.520898,-2.60449 q 0.02894,-0.14469 0.173633,-0.14469 h 1.012858 q 0.241846,0 0.376205,0.16949 0.134358,0.1695 0.08682,0.40928 l -0.115755,0.57878 q -0.04754,0.23771 -0.252181,0.40928 -0.202572,0.16949 -0.44235,0.16949 z"
           style="font-style:italic;font-variant:normal;font-weight:normal;font-stretch:normal;font-family:'GOST type B';-inkscape-font-specification:'GOST type B Italic';fill:#ff0000;stroke-width:0.26458332"
           id="path3254" />
      </g>
      <g
         aria-label="0"
         style="font-style:italic;font-variant:normal;font-weight:normal;font-stretch:normal;font-size:4.23333311px;line-height:4.93888855px;font-family:Academy;-inkscape-font-specification:'Academy Italic';text-align:start;letter-spacing:0px;word-spacing:0px;text-anchor:start;fill:#ff0000;fill-opacity:1;stroke:none;stroke-width:0.26458332"
         id="text1364">
        <path
           d="m -13.470123,281.16574 q -0.03445,0.17226 -0.183279,0.29904 -0.148829,0.1254 -0.326595,0.1254 h -0.115756 q -0.172254,0 -0.274229,-0.12265 -0.100597,-0.12264 -0.06477,-0.30179 l 0.214974,-1.08038 q 0.03445,-0.1695 0.183279,-0.29628 0.150206,-0.12815 0.326595,-0.12815 h 0.115755 q 0.172255,0 0.272852,0.12402 0.101975,0.12264 0.06615,0.30041 z m -0.192926,0 0.214974,-1.08038 q 0.01929,-0.0951 -0.03445,-0.16261 -0.05236,-0.0689 -0.150206,-0.0689 h -0.115755 q -0.09508,0 -0.177767,0.0675 -0.0813,0.0675 -0.100597,0.16398 l -0.214974,1.08038 q -0.01929,0.0951 0.03445,0.16399 0.05374,0.0675 0.150206,0.0675 h 0.115756 q 0.09371,0 0.17501,-0.0661 0.08268,-0.0662 0.103353,-0.16537 z"
           style="font-style:italic;font-variant:normal;font-weight:normal;font-stretch:normal;font-size:2.82222223px;font-family:'GOST type B';-inkscape-font-specification:'GOST type B Italic';fill:#ff0000;stroke-width:0.26458332"
           id="path3257" />
      </g>
    </g>
    <path
       style="fill:none;stroke:#000000;stroke-width:0.17638889;stroke-linecap:butt;stroke-linejoin:miter;stroke-opacity:1"
       d="m 13.72424,283.26478 5.92869,-9.56851"
       id="path1384"
       inkscape:connector-curvature="0"
       sodipodi:nodetypes="cc" />
    <path
       style="fill:none;stroke:#000000;stroke-width:0.176;stroke-linecap:butt;stroke-linejoin:miter;stroke-opacity:1;stroke-miterlimit:4;stroke-dasharray:none;marker-end:"
       d="m 14.740044,281.58855 c 0,0 0.602405,0.4049 0.797505,0.69992 0.187076,0.28289 0.318217,0.96641 0.318217,0.96641"
       id="path1386"
       inkscape:connector-curvature="0"
       sodipodi:nodetypes="cac" />
    <g
       id="g1412"
       style="fill:#000000"
       transform="translate(27.808111,0.35816539)">
      <g
         aria-label="60"
         style="font-style:italic;font-variant:normal;font-weight:normal;font-stretch:normal;font-size:4.23333311px;line-height:4.93888855px;font-family:Academy;-inkscape-font-specification:'Academy Italic';text-align:start;letter-spacing:0px;word-spacing:0px;text-anchor:start;fill:#000000;fill-opacity:1;stroke:none;stroke-width:0.26458332"
         id="text1394">
        <path
           d="m -11.302335,281.03537 -0.02343,0.0965 -0.09646,0.48231 q -0.01654,0.0813 0.02756,0.1378 0.02343,0.0248 0.05374,0.0413 0.03859,0.0138 0.07304,0.0138 h 0.192925 q 0.07993,0 0.14745,-0.0537 0.06752,-0.0537 0.08406,-0.13918 l 0.07717,-0.38585 q 0.01654,-0.0813 -0.02756,-0.13643 -0.04272,-0.0565 -0.12678,-0.0565 z m 0.07166,-0.19292 h 0.348643 q 0.157097,0 0.248047,0.113 0.09233,0.11162 0.06063,0.27285 l -0.07717,0.38585 q -0.0317,0.15847 -0.168121,0.27285 -0.135048,0.113 -0.2949,0.113 h -0.192925 q -0.155719,0 -0.249425,-0.11162 -0.09233,-0.11162 -0.05926,-0.27423 l 0.09646,-0.48231 q 0.05512,-0.27423 0.209462,-0.5209 0.104731,-0.17088 0.271473,-0.31144 0.168121,-0.14056 0.367936,-0.22049 l 0.04272,-0.01 q 0.03721,0 0.06201,0.0303 0.01792,0.0317 0.01103,0.0703 -0.0055,0.0276 -0.02205,0.0469 -0.01654,0.0193 -0.05512,0.04 -0.04134,0.0152 -0.07579,0.0317 -0.03445,0.0152 -0.07441,0.04 -0.06752,0.04 -0.141938,0.0992 -0.135047,0.113 -0.22462,0.25907 l -0.04547,0.0772 z"
           style="font-style:italic;font-variant:normal;font-weight:normal;font-stretch:normal;font-size:2.82222223px;font-family:'GOST type B';-inkscape-font-specification:'GOST type B Italic';fill:#000000;stroke-width:0.26458332"
           id="path3260" />
        <path
           d="m -9.2917774,281.57556 q -0.034451,0.17226 -0.1832791,0.29904 Q -9.6238846,282 -9.8016515,282 h -0.1157553 q -0.1722552,0 -0.2742292,-0.12265 -0.100597,-0.12264 -0.06477,-0.30179 l 0.214974,-1.08038 q 0.03445,-0.1695 0.1832789,-0.29628 0.1502062,-0.12815 0.326595,-0.12815 h 0.1157553 q 0.1722547,0 0.2728515,0.12402 0.1019748,0.12265 0.066146,0.30041 z m -0.1929254,0 0.214974,-1.08038 q 0.019292,-0.0951 -0.034451,-0.16261 -0.052365,-0.0689 -0.1502061,-0.0689 h -0.1157552 q -0.095085,0 -0.177767,0.0675 -0.081304,0.0675 -0.1005967,0.16398 l -0.2149742,1.08038 q -0.01929,0.0951 0.03445,0.16399 0.053744,0.0675 0.1502063,0.0675 h 0.1157552 q 0.093707,0 0.1750109,-0.0661 0.082682,-0.0661 0.1033528,-0.16537 z"
           style="font-style:italic;font-variant:normal;font-weight:normal;font-stretch:normal;font-size:2.82222223px;font-family:'GOST type B';-inkscape-font-specification:'GOST type B Italic';fill:#000000;stroke-width:0.26458332"
           id="path3262" />
      </g>
      <g
         aria-label="o"
         style="font-style:italic;font-variant:normal;font-weight:normal;font-stretch:normal;font-size:4.23333311px;line-height:4.93888855px;font-family:Academy;-inkscape-font-specification:'Academy Italic';text-align:start;letter-spacing:0px;word-spacing:0px;text-anchor:start;fill:#000000;fill-opacity:1;stroke:none;stroke-width:0.26458332"
         id="g1398"
         transform="matrix(1.2603681,0,0,1,2.7944391,-6.6393442)">
        <path
           d="m -8.435114,286.8866 q 0,0.12919 -0.093018,0.22427 -0.091984,0.0941 -0.2253093,0.0941 h -0.086816 q -0.129191,0 -0.2242757,-0.092 -0.094051,-0.092 -0.094051,-0.22634 v -0.37621 q 0,-0.12712 0.093018,-0.2222 0.093018,-0.0961 0.2253092,-0.0961 h 0.086816 q 0.1291911,0 0.2232422,0.093 0.095085,0.092 0.095085,0.2253 z m -0.144694,0 v -0.37621 q 0,-0.0713 -0.050643,-0.12195 -0.049609,-0.0517 -0.1229899,-0.0517 h -0.086816 q -0.071313,0 -0.1229899,0.0506 -0.050643,0.0506 -0.050643,0.12299 v 0.37621 q 0,0.0713 0.050643,0.12299 0.050643,0.0506 0.1229899,0.0506 h 0.086816 q 0.07028,0 0.1219564,-0.0496 0.051676,-0.0496 0.051676,-0.12402 z"
           style="font-style:normal;font-variant:normal;font-weight:normal;font-stretch:normal;font-size:2.11666656px;font-family:'GOST type B';-inkscape-font-specification:'GOST type B';fill:#000000;stroke-width:0.26458332"
           id="path1396"
           inkscape:connector-curvature="0" />
      </g>
    </g>
    <path
       style="fill:#ff0000;fill-opacity:1;stroke:none;stroke-width:0.26165509;stroke-linecap:round;stroke-linejoin:round;stroke-miterlimit:4;stroke-dasharray:none;stroke-dashoffset:0;stroke-opacity:0.8;paint-order:stroke markers fill"
       d="m 20.184537,273.69226 a 0.50662535,0.50662535 0 0 1 -0.506625,0.50663 0.50662535,0.50662535 0 0 1 -0.506626,-0.50663 0.50662535,0.50662535 0 0 1 0.506626,-0.50662 0.50662535,0.50662535 0 0 1 0.506625,0.50662 z"
       id="circle1325" />
    <g
       aria-label="x"
       style="font-style:italic;font-variant:normal;font-weight:normal;font-stretch:normal;font-size:4.23333311px;line-height:4.93888855px;font-family:Academy;-inkscape-font-specification:'Academy Italic';text-align:start;letter-spacing:0px;word-spacing:0px;text-anchor:start;fill:#000000;fill-opacity:1;stroke:none;stroke-width:0.26458332"
       id="text1416">
      <path
         d="m 27.35498,281.42727 0.367936,0.78755 0.0124,0.0434 -0.0041,0.0393 q -0.0124,0.0558 -0.06615,0.10128 l -0.02687,0.0186 -0.03307,0.0145 -0.05581,0.008 q -0.05994,0 -0.103353,-0.0641 l -0.318327,-0.68627 -0.595312,0.68627 q -0.05581,0.0661 -0.132292,0.0661 -0.04547,0 -0.09302,-0.0434 -0.03927,-0.0434 -0.02687,-0.10335 0.0083,-0.0372 0.04134,-0.0806 l 0.682129,-0.78755 -0.367936,-0.78755 -0.0124,-0.0434 0.0041,-0.0393 q 0.0124,-0.0558 0.06408,-0.0992 0.05168,-0.0434 0.117822,-0.0434 0.05994,0 0.103353,0.0641 l 0.318327,0.68626 0.595313,-0.68626 q 0.05581,-0.0662 0.132291,-0.0662 0.04341,0 0.09509,0.0434 0.03721,0.0455 0.02481,0.10335 -0.0083,0.0372 -0.04134,0.0806 z"
         style="font-style:italic;font-variant:normal;font-weight:normal;font-stretch:normal;font-family:'GOST type B';-inkscape-font-specification:'GOST type B Italic';stroke-width:0.26458332"
         id="path3266" />
    </g>
    <g
       aria-label="y"
       style="font-style:italic;font-variant:normal;font-weight:normal;font-stretch:normal;font-size:4.23333311px;line-height:4.93888855px;font-family:Academy;-inkscape-font-specification:'Academy Italic';text-align:start;letter-spacing:0px;word-spacing:0px;text-anchor:start;fill:#000000;fill-opacity:1;stroke:none;stroke-width:0.26458332"
       id="text1420">
      <path
         d="m 15.645198,270.62237 -0.194303,-1.82314 0.0021,-0.0496 q 0.01034,-0.0558 0.06408,-0.10129 0.05374,-0.0393 0.111621,-0.0393 0.09715,0 0.115756,0.10335 l 0.150895,1.42007 0.729671,-1.42007 q 0.05581,-0.10335 0.157096,-0.10335 0.06408,0 0.09922,0.0393 0.03514,0.0372 0.02274,0.10129 l -0.0186,0.0496 -1.231966,2.39985 q -0.05788,0.12816 -0.188102,0.21704 -0.128158,0.0889 -0.272852,0.0889 h -0.144694 q -0.05374,0 -0.09922,-0.0434 -0.02894,-0.0434 -0.01654,-0.10129 0.0124,-0.0579 0.05581,-0.10128 0.04547,-0.0434 0.117822,-0.0434 h 0.142627 q 0.04548,0 0.08062,-0.0289 0.03514,-0.0227 0.06408,-0.0703 z"
         style="font-style:italic;font-variant:normal;font-weight:normal;font-stretch:normal;font-family:'GOST type B';-inkscape-font-specification:'GOST type B Italic';stroke-width:0.26458332"
         id="path3269" />
    </g>
  </g>
</svg>
