<?xml version="1.0" encoding="UTF-8" standalone="no"?>
<!-- Created with Inkscape (http://www.inkscape.org/) -->

<svg
   xmlns:dc="http://purl.org/dc/elements/1.1/"
   xmlns:cc="http://creativecommons.org/ns#"
   xmlns:rdf="http://www.w3.org/1999/02/22-rdf-syntax-ns#"
   xmlns:svg="http://www.w3.org/2000/svg"
   xmlns="http://www.w3.org/2000/svg"
   xmlns:sodipodi="http://sodipodi.sourceforge.net/DTD/sodipodi-0.dtd"
   xmlns:inkscape="http://www.inkscape.org/namespaces/inkscape"
   width="50mm"
   height="50mm"
   viewBox="0 0 50 50"
   version="1.1"
   id="svg8"
   inkscape:version="0.92.4 (5da689c313, 2019-01-14)"
   sodipodi:docname="11-04.svg">
  <defs
     id="defs2">
    <marker
       inkscape:stockid="Arrow2Mend"
       orient="auto"
       refY="0"
       refX="0"
       id="marker964"
       style="overflow:visible"
       inkscape:isstock="true">
      <path
         inkscape:connector-curvature="0"
         id="path962"
         style="fill:#000000;fill-opacity:1;fill-rule:evenodd;stroke:#000000;stroke-width:0.625;stroke-linejoin:round;stroke-opacity:1"
         d="M 8.7185878,4.0337352 -2.2072895,0.01601326 8.7185884,-4.0017078 c -1.7454984,2.3720609 -1.7354408,5.6174519 -6e-7,8.035443 z"
         transform="scale(-0.6)" />
    </marker>
    <marker
       inkscape:isstock="true"
       style="overflow:visible"
       id="marker892"
       refX="0"
       refY="0"
       orient="auto"
       inkscape:stockid="Arrow2Mend">
      <path
         inkscape:connector-curvature="0"
         transform="scale(-0.6)"
         d="M 8.7185878,4.0337352 -2.2072895,0.01601326 8.7185884,-4.0017078 c -1.7454984,2.3720609 -1.7354408,5.6174519 -6e-7,8.035443 z"
         style="fill:#000000;fill-opacity:1;fill-rule:evenodd;stroke:#000000;stroke-width:0.625;stroke-linejoin:round;stroke-opacity:1"
         id="path890" />
    </marker>
    <marker
       inkscape:stockid="Arrow2Mstart"
       orient="auto"
       refY="0"
       refX="0"
       id="Arrow2Mstart"
       style="overflow:visible"
       inkscape:isstock="true">
      <path
         id="path855"
         style="fill:#ff0000;fill-opacity:0.8;fill-rule:evenodd;stroke:#ff0000;stroke-width:0.625;stroke-linejoin:round;stroke-opacity:0.8"
         d="M 8.7185878,4.0337352 -2.2072895,0.01601326 8.7185884,-4.0017078 c -1.7454984,2.3720609 -1.7354408,5.6174519 -6e-7,8.035443 z"
         transform="scale(0.6)"
         inkscape:connector-curvature="0" />
    </marker>
    <marker
       inkscape:stockid="Arrow1Mend"
       orient="auto"
       refY="0"
       refX="0"
       id="Arrow1Mend"
       style="overflow:visible"
       inkscape:isstock="true">
      <path
         id="path840"
         d="M 0,0 5,-5 -12.5,0 5,5 Z"
         style="fill:#000000;fill-opacity:1;fill-rule:evenodd;stroke:#000000;stroke-width:1.00000003pt;stroke-opacity:1"
         transform="matrix(-0.4,0,0,-0.4,-4,0)"
         inkscape:connector-curvature="0" />
    </marker>
    <marker
       inkscape:isstock="true"
       style="overflow:visible"
       id="marker1161"
       refX="0"
       refY="0"
       orient="auto"
       inkscape:stockid="Arrow2Mend"
       inkscape:collect="always">
      <path
         transform="scale(-0.6)"
         d="M 8.7185878,4.0337352 -2.2072895,0.01601326 8.7185884,-4.0017078 c -1.7454984,2.3720609 -1.7354408,5.6174519 -6e-7,8.035443 z"
         style="fill:#000000;fill-opacity:1;fill-rule:evenodd;stroke:#000000;stroke-width:0.625;stroke-linejoin:round;stroke-opacity:1"
         id="path1159"
         inkscape:connector-curvature="0" />
    </marker>
    <marker
       inkscape:stockid="Arrow2Mend"
       orient="auto"
       refY="0"
       refX="0"
       id="Arrow2Mend"
       style="overflow:visible"
       inkscape:isstock="true"
       inkscape:collect="always">
      <path
         id="path858"
         style="fill:#000000;fill-opacity:1;fill-rule:evenodd;stroke:#000000;stroke-width:0.625;stroke-linejoin:round;stroke-opacity:1"
         d="M 8.7185878,4.0337352 -2.2072895,0.01601326 8.7185884,-4.0017078 c -1.7454984,2.3720609 -1.7354408,5.6174519 -6e-7,8.035443 z"
         transform="scale(-0.6)"
         inkscape:connector-curvature="0" />
    </marker>
    <marker
       inkscape:stockid="Arrow2Lend"
       orient="auto"
       refY="0"
       refX="0"
       id="Arrow2Lend"
       style="overflow:visible"
       inkscape:isstock="true">
      <path
         id="path852"
         style="fill:#ff0000;fill-opacity:0.8;fill-rule:evenodd;stroke:#ff0000;stroke-width:0.625;stroke-linejoin:round;stroke-opacity:0.8"
         d="M 8.7185878,4.0337352 -2.2072895,0.01601326 8.7185884,-4.0017078 c -1.7454984,2.3720609 -1.7354408,5.6174519 -6e-7,8.035443 z"
         transform="matrix(-1.1,0,0,-1.1,-1.1,0)"
         inkscape:connector-curvature="0" />
    </marker>
  </defs>
  <sodipodi:namedview
     id="base"
     pagecolor="#ffffff"
     bordercolor="#666666"
     borderopacity="1.0"
     inkscape:pageopacity="0.0"
     inkscape:pageshadow="2"
     inkscape:zoom="3.8735"
     inkscape:cx="94.488189"
     inkscape:cy="94.488189"
     inkscape:document-units="mm"
     inkscape:current-layer="layer1"
     showgrid="false"
     inkscape:window-width="1920"
     inkscape:window-height="1009"
     inkscape:window-x="0"
     inkscape:window-y="0"
     inkscape:window-maximized="1"
     inkscape:snap-global="false" />
  <metadata
     id="metadata5">
    <rdf:RDF>
      <cc:Work
         rdf:about="">
        <dc:format>image/svg+xml</dc:format>
        <dc:type
           rdf:resource="http://purl.org/dc/dcmitype/StillImage" />
        <dc:title></dc:title>
      </cc:Work>
    </rdf:RDF>
  </metadata>
  <g
     inkscape:label="Layer 1"
     inkscape:groupmode="layer"
     id="layer1"
     transform="translate(0,-247)">
    <path
       inkscape:connector-curvature="0"
       id="path1664"
       d="M 21.627606,260.69084 H 32.956571"
       style="fill:none;stroke:#ff6600;stroke-width:0.26499999;stroke-linecap:butt;stroke-linejoin:miter;stroke-miterlimit:4;stroke-dasharray:0.79499996, 0.79499996;stroke-dashoffset:0;stroke-opacity:1"
       sodipodi:nodetypes="cc" />
    <path
       style="fill:none;stroke:#ff6600;stroke-width:0.26499999;stroke-linecap:butt;stroke-linejoin:miter;stroke-opacity:1;stroke-miterlimit:4;stroke-dasharray:0.79499996,0.79499996;stroke-dashoffset:0"
       d="m 33.19672,260.5929 v 14.68579"
       id="path1662"
       inkscape:connector-curvature="0" />
    <path
       style="fill:none;fill-opacity:1;stroke:#000000;stroke-width:0.17638889;stroke-linecap:round;stroke-linejoin:round;stroke-miterlimit:4;stroke-dasharray:none;stroke-dashoffset:0;stroke-opacity:0.8;paint-order:stroke markers fill"
       d="M 40.259583,275.20187 A 18.663016,18.663016 0 0 1 21.596567,293.8649 18.663016,18.663016 0 0 1 2.9335516,275.20187 18.663016,18.663016 0 0 1 21.596567,256.53886 18.663016,18.663016 0 0 1 40.259583,275.20187 Z"
       id="path10"
       inkscape:connector-curvature="0" />
    <path
       style="fill:none;stroke:#ff0000;stroke-width:0.17638889;stroke-linecap:butt;stroke-linejoin:miter;stroke-opacity:1"
       d="M 21.569453,275.20667 40.385978,251.76601"
       id="path1384"
       inkscape:connector-curvature="0"
       sodipodi:nodetypes="cc" />
    <path
       style="fill:none;stroke:#ff0000;stroke-width:0.17638889;stroke-linecap:butt;stroke-linejoin:miter;stroke-miterlimit:4;stroke-dasharray:none;stroke-opacity:1"
       d="m 23.601812,272.62146 c 0,0 0.742894,0.57106 0.985935,0.96012 0.299092,0.47878 0.529679,1.60861 0.529679,1.60861"
       id="path1386"
       inkscape:connector-curvature="0"
       sodipodi:nodetypes="cac" />
    <path
       style="fill:#ff0000;fill-opacity:1;stroke:none;stroke-width:0.26165509;stroke-linecap:round;stroke-linejoin:round;stroke-miterlimit:4;stroke-dasharray:none;stroke-dashoffset:0;stroke-opacity:0.8;paint-order:stroke markers fill"
       d="m 33.777433,260.64582 a 0.50662535,0.50662535 0 0 1 -0.506625,0.50663 0.50662535,0.50662535 0 0 1 -0.506626,-0.50663 0.50662535,0.50662535 0 0 1 0.506626,-0.50662 0.50662535,0.50662535 0 0 1 0.506625,0.50662 z"
       id="circle1325"
       inkscape:connector-curvature="0" />
    <g
       aria-label="x"
       style="font-style:italic;font-variant:normal;font-weight:normal;font-stretch:normal;font-size:4.23333311px;line-height:4.93888855px;font-family:Academy;-inkscape-font-specification:'Academy Italic';text-align:start;letter-spacing:0px;word-spacing:0px;text-anchor:start;fill:#000000;fill-opacity:1;stroke:none;stroke-width:0.26458332"
       id="text1416"
       transform="translate(20.081967,-8.4699452)">
      <path
         d="m 27.35498,281.42727 0.367936,0.78755 0.0124,0.0434 -0.0041,0.0393 q -0.0124,0.0558 -0.06615,0.10128 l -0.02687,0.0186 -0.03307,0.0145 -0.05581,0.008 q -0.05994,0 -0.103353,-0.0641 l -0.318327,-0.68627 -0.595312,0.68627 q -0.05581,0.0661 -0.132292,0.0661 -0.04547,0 -0.09302,-0.0434 -0.03927,-0.0434 -0.02687,-0.10335 0.0083,-0.0372 0.04134,-0.0806 l 0.682129,-0.78755 -0.367936,-0.78755 -0.0124,-0.0434 0.0041,-0.0393 q 0.0124,-0.0558 0.06408,-0.0992 0.05168,-0.0434 0.117822,-0.0434 0.05994,0 0.103353,0.0641 l 0.318327,0.68626 0.595313,-0.68626 q 0.05581,-0.0662 0.132291,-0.0662 0.04341,0 0.09509,0.0434 0.03721,0.0455 0.02481,0.10335 -0.0083,0.0372 -0.04134,0.0806 z"
         style="font-style:italic;font-variant:normal;font-weight:normal;font-stretch:normal;font-family:'GOST type B';-inkscape-font-specification:'GOST type B Italic';stroke-width:0.26458332"
         id="path3266"
         inkscape:connector-curvature="0" />
    </g>
    <g
       aria-label="y"
       style="font-style:italic;font-variant:normal;font-weight:normal;font-stretch:normal;font-size:4.23333311px;line-height:4.93888855px;font-family:Academy;-inkscape-font-specification:'Academy Italic';text-align:start;letter-spacing:0px;word-spacing:0px;text-anchor:start;fill:#000000;fill-opacity:1;stroke:none;stroke-width:0.26458332"
       id="text1420"
       transform="translate(3.4153007,-20.218579)">
      <path
         d="m 15.645198,270.62237 -0.194303,-1.82314 0.0021,-0.0496 q 0.01034,-0.0558 0.06408,-0.10129 0.05374,-0.0393 0.111621,-0.0393 0.09715,0 0.115756,0.10335 l 0.150895,1.42007 0.729671,-1.42007 q 0.05581,-0.10335 0.157096,-0.10335 0.06408,0 0.09922,0.0393 0.03514,0.0372 0.02274,0.10129 l -0.0186,0.0496 -1.231966,2.39985 q -0.05788,0.12816 -0.188102,0.21704 -0.128158,0.0889 -0.272852,0.0889 H 15.04786 q -0.05374,0 -0.09922,-0.0434 -0.02894,-0.0434 -0.01654,-0.10129 0.0124,-0.0579 0.05581,-0.10128 0.04547,-0.0434 0.117822,-0.0434 h 0.142627 q 0.04548,0 0.08062,-0.0289 0.03514,-0.0227 0.06408,-0.0703 z"
         style="font-style:italic;font-variant:normal;font-weight:normal;font-stretch:normal;font-family:'GOST type B';-inkscape-font-specification:'GOST type B Italic';stroke-width:0.26458332"
         id="path3269"
         inkscape:connector-curvature="0" />
    </g>
    <path
       sodipodi:nodetypes="cc"
       inkscape:connector-curvature="0"
       id="path53"
       d="m 40.383535,296.55215 0,-47.41881"
       style="fill:none;stroke:#0000ff;stroke-width:0.176;stroke-linecap:butt;stroke-linejoin:miter;stroke-miterlimit:4;stroke-dasharray:none;stroke-opacity:1" />
    <path
       sodipodi:nodetypes="cc"
       style="fill:none;stroke:#008000;stroke-width:0.17638889;stroke-linecap:butt;stroke-linejoin:miter;stroke-miterlimit:4;stroke-dasharray:none;stroke-opacity:1"
       d="M 0.75724781,256.42054 H 48.449281"
       id="path960"
       inkscape:connector-curvature="0" />
    <path
       inkscape:connector-curvature="0"
       id="path1632"
       d="m 40.881258,251.9368 a 0.50662535,0.50662535 0 0 1 -0.506625,0.50663 0.50662535,0.50662535 0 0 1 -0.506626,-0.50663 0.50662535,0.50662535 0 0 1 0.506626,-0.50662 0.50662535,0.50662535 0 0 1 0.506625,0.50662 z"
       style="fill:#0000ff;fill-opacity:1;stroke:none;stroke-width:0.26165509;stroke-linecap:round;stroke-linejoin:round;stroke-miterlimit:4;stroke-dasharray:none;stroke-dashoffset:0;stroke-opacity:0.8;paint-order:stroke markers fill" />
    <path
       inkscape:connector-curvature="0"
       id="path1634"
       d="m 37.056122,256.47915 a 0.50662535,0.50662535 0 0 1 -0.506625,0.50663 0.50662535,0.50662535 0 0 1 -0.506626,-0.50663 0.50662535,0.50662535 0 0 1 0.506626,-0.50662 0.50662535,0.50662535 0 0 1 0.506625,0.50662 z"
       style="fill:#008000;fill-opacity:1;stroke:none;stroke-width:0.26165509;stroke-linecap:round;stroke-linejoin:round;stroke-miterlimit:4;stroke-dasharray:none;stroke-dashoffset:0;stroke-opacity:0.8;paint-order:stroke markers fill" />
    <path
       style="fill:none;stroke:#000000;stroke-width:0.17638889;stroke-linecap:butt;stroke-linejoin:miter;stroke-miterlimit:4;stroke-dasharray:none;stroke-opacity:1;marker-end:url(#Arrow2Mend)"
       d="m 21.599382,295.39095 0,-46.25761"
       id="path21"
       inkscape:connector-curvature="0"
       sodipodi:nodetypes="cc" />
    <path
       inkscape:connector-curvature="0"
       id="path1157"
       d="M 1.91845,275.20469 H 48.449281"
       style="fill:none;stroke:#000000;stroke-width:0.17638889;stroke-linecap:butt;stroke-linejoin:miter;stroke-miterlimit:4;stroke-dasharray:none;stroke-opacity:1;marker-end:url(#marker1161)"
       sodipodi:nodetypes="cc" />
    <path
       style="fill:#008000;fill-opacity:1;stroke:none;stroke-width:0.26165509;stroke-linecap:round;stroke-linejoin:round;stroke-miterlimit:4;stroke-dasharray:none;stroke-dashoffset:0;stroke-opacity:0.8;paint-order:stroke markers fill"
       d="m 22.062953,256.47915 a 0.50662535,0.50662535 0 0 1 -0.506625,0.50663 0.50662535,0.50662535 0 0 1 -0.506626,-0.50663 0.50662535,0.50662535 0 0 1 0.506626,-0.50662 0.50662535,0.50662535 0 0 1 0.506625,0.50662 z"
       id="path1654"
       inkscape:connector-curvature="0" />
    <path
       style="fill:#0000ff;fill-opacity:1;stroke:none;stroke-width:0.26165509;stroke-linecap:round;stroke-linejoin:round;stroke-miterlimit:4;stroke-dasharray:none;stroke-dashoffset:0;stroke-opacity:0.8;paint-order:stroke markers fill"
       d="m 40.881258,275.195 a 0.50662535,0.50662535 0 0 1 -0.506625,0.50663 0.50662535,0.50662535 0 0 1 -0.506626,-0.50663 0.50662535,0.50662535 0 0 1 0.506626,-0.50662 0.50662535,0.50662535 0 0 1 0.506625,0.50662 z"
       id="path1656"
       inkscape:connector-curvature="0" />
    <path
       style="fill:none;stroke:#008000;stroke-width:0.70599997;stroke-linecap:round;stroke-linejoin:miter;stroke-miterlimit:4;stroke-dasharray:none;stroke-opacity:1"
       d="M 21.823882,256.47915 H 36.338907"
       id="path1658"
       inkscape:connector-curvature="0"
       sodipodi:nodetypes="cc" />
    <path
       sodipodi:nodetypes="cc"
       inkscape:connector-curvature="0"
       id="path1660"
       d="m 40.383511,252.25244 v 22.70181"
       style="fill:none;stroke:#0000ff;stroke-width:0.70599997;stroke-linecap:round;stroke-linejoin:miter;stroke-miterlimit:4;stroke-dasharray:none;stroke-opacity:1" />
    <path
       sodipodi:nodetypes="cc"
       inkscape:connector-curvature="0"
       id="path1666"
       d="m 21.848033,275.24355 h 11.0616"
       style="fill:none;stroke:#ff6600;stroke-width:0.70599997;stroke-linecap:round;stroke-linejoin:miter;stroke-miterlimit:4;stroke-dasharray:none;stroke-opacity:1" />
    <path
       inkscape:connector-curvature="0"
       id="path1668"
       d="m 33.757061,275.195 a 0.50662535,0.50662535 0 0 1 -0.506625,0.50663 0.50662535,0.50662535 0 0 1 -0.506626,-0.50663 0.50662535,0.50662535 0 0 1 0.506626,-0.50662 0.50662535,0.50662535 0 0 1 0.506625,0.50662 z"
       style="fill:#ff6600;fill-opacity:1;stroke:none;stroke-width:0.26165509;stroke-linecap:round;stroke-linejoin:round;stroke-miterlimit:4;stroke-dasharray:none;stroke-dashoffset:0;stroke-opacity:0.8;paint-order:stroke markers fill" />
    <path
       style="fill:#ff6600;fill-opacity:1;stroke:none;stroke-width:0.26165509;stroke-linecap:round;stroke-linejoin:round;stroke-miterlimit:4;stroke-dasharray:none;stroke-dashoffset:0;stroke-opacity:0.8;paint-order:stroke markers fill"
       d="m 22.092697,275.195 a 0.50662535,0.50662535 0 0 1 -0.506625,0.50663 0.50662535,0.50662535 0 0 1 -0.506626,-0.50663 0.50662535,0.50662535 0 0 1 0.506626,-0.50662 0.50662535,0.50662535 0 0 1 0.506625,0.50662 z"
       id="path1670"
       inkscape:connector-curvature="0" />
    <path
       inkscape:connector-curvature="0"
       id="path1672"
       d="m 22.092697,260.68096 a 0.50662535,0.50662535 0 0 1 -0.506625,0.50663 0.50662535,0.50662535 0 0 1 -0.506626,-0.50663 0.50662535,0.50662535 0 0 1 0.506626,-0.50662 0.50662535,0.50662535 0 0 1 0.506625,0.50662 z"
       style="fill:#ff6600;fill-opacity:1;stroke:none;stroke-width:0.26165509;stroke-linecap:round;stroke-linejoin:round;stroke-miterlimit:4;stroke-dasharray:none;stroke-dashoffset:0;stroke-opacity:0.8;paint-order:stroke markers fill" />
    <path
       style="fill:none;stroke:#ff6600;stroke-width:0.70599997;stroke-linecap:round;stroke-linejoin:miter;stroke-miterlimit:4;stroke-dasharray:none;stroke-opacity:1"
       d="m 21.607026,275.00254 0,-14.00788"
       id="path1674"
       inkscape:connector-curvature="0"
       sodipodi:nodetypes="cc" />
    <g
       aria-label="P"
       transform="skewX(-13.280795)"
       style="font-style:normal;font-variant:normal;font-weight:normal;font-stretch:normal;font-size:4.23333311px;line-height:4.93888855px;font-family:'GOST type B';-inkscape-font-specification:'GOST type B';text-align:start;letter-spacing:0px;word-spacing:0px;text-anchor:start;fill:#ff0000;fill-opacity:1;stroke:none;stroke-width:0.26458332"
       id="text1678">
      <path
         d="m 96.812174,259.82903 h 0.868164 q 0.11989,0 0.204639,-0.0806 0.08475,-0.0806 0.08475,-0.20878 v -0.57877 q 0,-0.12196 -0.08268,-0.20464 -0.08062,-0.0848 -0.206706,-0.0848 h -0.868164 z m 0,0.28939 v 1.01286 q 0,0.0682 -0.04134,0.10955 -0.03927,0.0351 -0.103353,0.0351 -0.05788,0 -0.101285,-0.0351 -0.04341,-0.0372 -0.04341,-0.10955 v -2.6045 q 0,-0.14469 0.144694,-0.14469 h 1.012858 q 0.241846,0 0.409278,0.1695 0.169498,0.1695 0.169498,0.40928 v 0.57877 q 0,0.23771 -0.169498,0.40928 -0.169499,0.1695 -0.409278,0.1695 z"
         style="fill:#ff0000;stroke-width:0.26458332"
         id="path1822" />
    </g>
    <g
       aria-label="A"
       transform="skewX(-13.280795)"
       style="font-style:normal;font-variant:normal;font-weight:normal;font-stretch:normal;font-size:4.23333311px;line-height:4.93888855px;font-family:'GOST type B';-inkscape-font-specification:'GOST type B';text-align:start;letter-spacing:0px;word-spacing:0px;text-anchor:start;fill:#0000ff;fill-opacity:1;stroke:none;stroke-width:0.26458332"
       id="text1686">
      <path
         d="m 101.57508,251.73896 -0.20878,0.62425 q -0.0165,0.0455 -0.0537,0.0744 -0.0289,0.0186 -0.0786,0.0248 -0.0579,0 -0.10128,-0.0414 -0.0476,-0.0372 -0.0476,-0.0992 l 0.0103,-0.0517 0.87023,-2.60449 q 0.0434,-0.12403 0.13643,-0.12403 0.093,0 0.13642,0.12403 l 0.8661,2.60449 0.0103,0.0517 q 0,0.0558 -0.0475,0.10128 -0.0455,0.0393 -0.10128,0.0393 -0.0289,0 -0.0662,-0.0145 -0.0351,-0.0145 -0.0661,-0.0847 l -0.20877,-0.62425 z m 0.95291,-0.29559 -0.42581,-1.27538 -0.42789,1.27538 z"
         style="fill:#0000ff;stroke-width:0.26458332"
         id="path1825" />
    </g>
    <g
       aria-label="Q"
       transform="skewX(-13.280795)"
       style="font-style:normal;font-variant:normal;font-weight:normal;font-stretch:normal;font-size:4.23333311px;line-height:4.93888855px;font-family:'GOST type B';-inkscape-font-specification:'GOST type B';text-align:start;letter-spacing:0px;word-spacing:0px;text-anchor:start;fill:#ff6600;fill-opacity:1;stroke:none;stroke-width:0.26458332"
       id="text1690">
      <path
         d="m 99.068838,279.10431 -0.398942,-0.26872 q -0.06615,-0.0434 -0.06615,-0.11575 0,-0.0413 0.04341,-0.10129 0.04341,-0.0475 0.101286,-0.0475 0.03101,0 0.08268,0.0269 l 0.353467,0.23771 v -1.70532 q 0,-0.12196 -0.08268,-0.20464 -0.08061,-0.0847 -0.206706,-0.0847 h -0.578776 q -0.121956,0 -0.206706,0.0827 -0.04134,0.0413 -0.06201,0.0951 -0.02067,0.0517 -0.02067,0.11162 v 1.73633 q 0,0.12195 0.08268,0.2067 0.04341,0.0372 0.09302,0.062 0.06201,0.0207 0.113688,0.0207 h 0.578776 q 0.04547,0 0.08682,-0.0124 0.04134,-0.0124 0.08682,-0.0393 z m 0.388607,-0.0868 0.241845,0.16537 q 0.06615,0.0434 0.06615,0.11575 0,0.0537 -0.03927,0.10129 -0.04547,0.0455 -0.10542,0.0455 -0.03721,0 -0.08268,-0.0269 l -0.221175,-0.14676 q -0.161231,0.17363 -0.42168,0.17363 h -0.578776 q -0.235644,0 -0.40721,-0.16743 -0.171566,-0.1695 -0.171566,-0.41134 v -1.73633 q 0,-0.24185 0.167432,-0.40928 0.169498,-0.1695 0.411344,-0.1695 h 0.578776 q 0.241846,0 0.409277,0.1695 0.169499,0.1695 0.169499,0.40928 v 1.73633 0.0393 q 0,0.0289 -0.0041,0.0434 z"
         style="fill:#ff6600;stroke-width:0.26458332"
         id="path1828" />
    </g>
    <g
       aria-label="O"
       transform="skewX(-13.280795)"
       style="font-style:normal;font-variant:normal;font-weight:normal;font-stretch:normal;font-size:4.23333311px;line-height:4.93888855px;font-family:'GOST type B';-inkscape-font-specification:'GOST type B';text-align:start;letter-spacing:0px;word-spacing:0px;text-anchor:start;fill:#ff0000;fill-opacity:1;stroke:none;stroke-width:0.26458332"
       id="text1694">
      <path
         d="m 85.872586,278.25185 q 0,0.23771 -0.169498,0.40928 -0.169499,0.1695 -0.409278,0.1695 h -0.578776 q -0.235644,0 -0.40721,-0.16743 -0.171566,-0.1695 -0.171566,-0.41135 v -1.73633 q 0,-0.24184 0.167432,-0.40927 0.169499,-0.1695 0.411344,-0.1695 h 0.578776 q 0.241846,0 0.409278,0.1695 0.169498,0.16949 0.169498,0.40927 z m -0.289388,0 v -1.73633 q 0,-0.12195 -0.08268,-0.20464 -0.08062,-0.0847 -0.206706,-0.0847 h -0.578776 q -0.121956,0 -0.206705,0.0827 -0.04134,0.0413 -0.06201,0.0951 -0.02067,0.0517 -0.02067,0.11162 v 1.73633 q 0,0.12196 0.08268,0.20671 0.04341,0.0372 0.09302,0.062 0.06201,0.0207 0.113688,0.0207 h 0.578776 q 0.11989,0 0.204639,-0.0806 0.08475,-0.0806 0.08475,-0.20877 z"
         style="fill:#ff0000;stroke-width:0.26458332"
         id="path1831" />
    </g>
    <g
       aria-label="α"
       style="font-style:normal;font-variant:normal;font-weight:normal;font-stretch:normal;font-size:4.23333311px;line-height:4.93888855px;font-family:'GOST type B';-inkscape-font-specification:'GOST type B';text-align:start;letter-spacing:0px;word-spacing:0px;text-anchor:start;fill:#ff0000;fill-opacity:1;stroke:none;stroke-width:0.26458332"
       id="text1708">
      <path
         d="m 27.158566,272.97223 -0.09095,-0.47749 q -0.09302,-0.4899 -0.460954,-0.4899 -0.276986,0 -0.403076,0.22738 -0.159164,0.28525 -0.159164,0.66146 0,0.45475 0.15503,0.67179 0.157096,0.22118 0.40721,0.22118 0.276986,0 0.425814,-0.44029 z m 0.212907,-0.63252 0.204639,-0.60565 h 0.338997 l -0.423747,1.2547 0.08268,0.45269 q 0.0186,0.10128 0.09095,0.18603 0.08475,0.0992 0.150895,0.0992 h 0.181901 v 0.32246 h -0.227376 q -0.194303,0 -0.367936,-0.17363 -0.08475,-0.0868 -0.119889,-0.26872 -0.09508,0.22945 -0.289388,0.40928 -0.09095,0.0847 -0.38654,0.0847 -0.485759,0 -0.721403,-0.31419 -0.241846,-0.32453 -0.241846,-0.89297 0,-0.60772 0.262517,-0.89297 0.291455,-0.31833 0.700732,-0.31833 0.642855,0 0.764811,0.65733 z"
         style="fill:#ff0000;stroke-width:0.26458332"
         id="path1834" />
    </g>
    <g
       id="g1774"
       style="fill:#ff6600"
       transform="translate(33.811475,-0.13661202)">
      <g
         aria-label="α"
         style="font-style:normal;font-variant:normal;font-weight:normal;font-stretch:normal;font-size:4.23333311px;line-height:4.93888855px;font-family:'GOST type B';-inkscape-font-specification:'GOST type B';text-align:start;letter-spacing:0px;word-spacing:0px;text-anchor:start;fill:#ff6600;fill-opacity:1;stroke:none;stroke-width:0.26458332"
         id="text1704">
        <path
           d="m -14.380603,267.96731 -0.08337,-0.4377 q -0.08527,-0.44907 -0.422541,-0.44907 -0.253903,0 -0.369486,0.20843 -0.1459,0.26148 -0.1459,0.60633 0,0.41686 0.14211,0.61581 0.144005,0.20275 0.373276,0.20275 0.253904,0 0.39033,-0.40359 z m 0.195164,-0.57981 0.187586,-0.55518 h 0.310747 l -0.388434,1.15014 0.07579,0.41497 q 0.01705,0.0928 0.08337,0.17053 0.07769,0.0909 0.138321,0.0909 h 0.166742 v 0.29559 h -0.208428 q -0.178111,0 -0.337275,-0.15917 -0.07769,-0.0796 -0.109898,-0.24632 -0.08716,0.21032 -0.265273,0.37517 -0.08337,0.0777 -0.354328,0.0777 -0.445278,0 -0.661286,-0.28801 -0.221692,-0.29749 -0.221692,-0.81856 0,-0.55707 0.24064,-0.81855 0.267167,-0.2918 0.642338,-0.2918 0.589284,0 0.701077,0.60255 z"
           style="font-size:3.88055563px;fill:#ff6600;stroke-width:0.26458332"
           id="path1837" />
      </g>
      <g
         aria-label="sin"
         style="font-style:normal;font-variant:normal;font-weight:normal;font-stretch:normal;font-size:4.23333311px;line-height:4.93888855px;font-family:'GOST type B';-inkscape-font-specification:'GOST type B';text-align:start;letter-spacing:0px;word-spacing:0px;text-anchor:start;fill:#ff6600;fill-opacity:1;stroke:none;stroke-width:0.26458332"
         id="text1716">
        <path
           d="m -19.664031,267.05969 q -0.14056,-0.0641 -0.307992,-0.10749 -0.167431,-0.0455 -0.310058,-0.0455 -0.326595,0 -0.568441,0.16537 -0.05994,0.0351 -0.115755,0.13849 -0.04134,0.0889 -0.04134,0.17984 0,0.0599 0.0062,0.0971 0.0083,0.0372 0.03514,0.0868 0.03721,0.0868 0.115755,0.1385 l 0.926042,0.60771 q 0.04754,0.031 0.04754,0.0992 0,0.0661 -0.04754,0.0951 -0.19017,0.11989 -0.405144,0.11989 -0.237711,0 -0.458886,-0.12609 l -0.03514,-0.0124 -0.03927,-0.006 q -0.05581,0 -0.101286,0.0455 l -0.0186,0.0227 -0.01447,0.031 -0.0083,0.0537 q 0,0.0744 0.07855,0.12196 0.287321,0.15916 0.599446,0.15916 0.318327,0 0.564307,-0.16536 0.08061,-0.0496 0.126091,-0.1447 0.04754,-0.0951 0.04754,-0.19223 0,-0.0868 -0.04341,-0.17777 -0.04341,-0.093 -0.132292,-0.1633 l -0.923975,-0.60771 q -0.04134,-0.0248 -0.04134,-0.0806 0,-0.0496 0.04134,-0.0847 0.165365,-0.11162 0.405144,-0.11162 0.233577,0 0.491959,0.12403 l 0.07028,0.0165 q 0.04547,0 0.09095,-0.0434 0.04754,-0.0455 0.04754,-0.10542 0,-0.0744 -0.08062,-0.12815 z"
           style="fill:#ff6600;stroke-width:0.26458332"
           id="path1840" />
        <path
           d="m -18.706984,268.78155 q 0,0.0682 -0.04134,0.10955 -0.03927,0.0351 -0.103353,0.0351 -0.05788,0 -0.101285,-0.0351 -0.04341,-0.0372 -0.04341,-0.10955 v -1.73633 q 0,-0.0579 0.04341,-0.10749 0.04341,-0.0372 0.101285,-0.0372 0.05581,0 0.09922,0.0372 0.04548,0.0351 0.04548,0.10749 z m -0.289388,-2.6045 q 0,-0.0599 0.04134,-0.10128 0.04341,-0.0434 0.103353,-0.0434 0.04754,0 0.09509,0.0434 0.04961,0.0413 0.04961,0.10128 0,0.0558 -0.04341,0.10129 -0.04134,0.0434 -0.101286,0.0434 -0.06201,0 -0.10542,-0.0434 -0.03927,-0.0455 -0.03927,-0.10129 z"
           style="fill:#ff6600;stroke-width:0.26458332"
           id="path1842" />
        <path
           d="m -16.681268,268.78155 q 0,0.0682 -0.04134,0.10955 -0.03927,0.0351 -0.103353,0.0351 -0.05788,0 -0.101285,-0.0351 -0.04341,-0.0372 -0.04341,-0.10955 v -1.30225 q 0,-0.12196 -0.08268,-0.20464 -0.08062,-0.0847 -0.206706,-0.0847 h -0.578776 v 1.59164 q 0,0.0682 -0.04134,0.10955 -0.03927,0.0351 -0.103353,0.0351 -0.05788,0 -0.101285,-0.0351 -0.04341,-0.0372 -0.04341,-0.10955 v -1.73633 q 0,-0.1447 0.144694,-0.1447 h 0.72347 q 0.235645,0 0.407211,0.1695 0.171565,0.16743 0.171565,0.40928 z"
           style="fill:#ff6600;stroke-width:0.26458332"
           id="path1844" />
      </g>
    </g>
    <g
       id="g1780"
       style="fill:#ff6600"
       transform="translate(43.989071,4.9180328)">
      <g
         aria-label="α"
         style="font-style:normal;font-variant:normal;font-weight:normal;font-stretch:normal;font-size:4.23333311px;line-height:4.93888855px;font-family:'GOST type B';-inkscape-font-specification:'GOST type B';text-align:start;letter-spacing:0px;word-spacing:0px;text-anchor:start;fill:#ff6600;fill-opacity:1;stroke:none;stroke-width:0.26458332"
         id="text1726">
        <path
           d="m -13.849308,272.66042 -0.08337,-0.4377 q -0.08527,-0.44907 -0.422541,-0.44907 -0.253903,0 -0.369486,0.20843 -0.1459,0.26148 -0.1459,0.60634 0,0.41686 0.14211,0.61581 0.144005,0.20274 0.373276,0.20274 0.253904,0 0.390329,-0.40359 z m 0.195165,-0.57981 0.187586,-0.55518 h 0.310747 l -0.388434,1.15015 0.07579,0.41496 q 0.01705,0.0928 0.08337,0.17053 0.07769,0.0909 0.138321,0.0909 h 0.166742 v 0.29559 h -0.208428 q -0.178111,0 -0.337275,-0.15916 -0.07769,-0.0796 -0.109898,-0.24632 -0.08716,0.21032 -0.265273,0.37517 -0.08337,0.0777 -0.354328,0.0777 -0.445278,0 -0.661286,-0.28801 -0.221692,-0.29748 -0.221692,-0.81855 0,-0.55707 0.24064,-0.81856 0.267167,-0.2918 0.642338,-0.2918 0.589284,0 0.701077,0.60255 z"
           style="font-size:3.88055563px;fill:#ff6600;stroke-width:0.26458332"
           id="path1847" />
      </g>
      <g
         aria-label="cos"
         style="font-style:normal;font-variant:normal;font-weight:normal;font-stretch:normal;font-size:4.23333311px;line-height:4.93888855px;font-family:'GOST type B';-inkscape-font-specification:'GOST type B';text-align:start;letter-spacing:0px;word-spacing:0px;text-anchor:start;fill:#ff6600;fill-opacity:1;stroke:none;stroke-width:0.26458332"
         id="text1730">
        <path
           d="m -20.214148,273.57104 h -0.434082 q -0.233577,0 -0.40721,-0.16743 -0.171566,-0.16743 -0.171566,-0.41134 v -0.86817 q 0,-0.23977 0.169499,-0.40927 0.169499,-0.1695 0.409277,-0.1695 h 0.434082 q 0.05995,0 0.101286,0.0455 0.04341,0.0434 0.04341,0.0992 0,0.0496 -0.03721,0.0971 -0.03514,0.0476 -0.107487,0.0476 h -0.434082 q -0.121956,0 -0.206705,0.0827 -0.04134,0.0413 -0.06201,0.0951 -0.02067,0.0517 -0.02067,0.11162 v 0.86817 q 0,0.12196 0.08268,0.2067 0.04341,0.0372 0.09302,0.062 0.06201,0.0207 0.113688,0.0207 h 0.434082 q 0.05995,0 0.101286,0.0455 0.04341,0.0434 0.04341,0.0992 0,0.0496 -0.03721,0.0971 -0.03514,0.0475 -0.107487,0.0475 z"
           style="fill:#ff6600;stroke-width:0.26458332"
           id="path1850" />
        <path
           d="m -18.043738,272.93439 q 0,0.25838 -0.186035,0.44855 -0.183968,0.1881 -0.450618,0.1881 h -0.173633 q -0.258382,0 -0.448551,-0.18396 -0.188103,-0.18397 -0.188103,-0.45269 v -0.75241 q 0,-0.25425 0.186035,-0.44441 0.186036,-0.19224 0.450619,-0.19224 h 0.173633 q 0.258382,0 0.446484,0.18603 0.190169,0.18397 0.190169,0.45062 z m -0.289388,0 v -0.75241 q 0,-0.14262 -0.101285,-0.24391 -0.09922,-0.10335 -0.24598,-0.10335 h -0.173633 q -0.142627,0 -0.24598,0.10128 -0.101286,0.10129 -0.101286,0.24598 v 0.75241 q 0,0.14263 0.101286,0.24598 0.101286,0.10129 0.24598,0.10129 h 0.173633 q 0.14056,0 0.243913,-0.0992 0.103352,-0.0992 0.103352,-0.24805 z"
           style="fill:#ff6600;stroke-width:0.26458332"
           id="path1852" />
        <path
           d="m -16.106905,271.70449 q -0.14056,-0.0641 -0.307992,-0.10748 -0.167431,-0.0455 -0.310058,-0.0455 -0.326595,0 -0.568441,0.16536 -0.05994,0.0351 -0.115755,0.1385 -0.04134,0.0889 -0.04134,0.17983 0,0.06 0.0062,0.0971 0.0083,0.0372 0.03514,0.0868 0.03721,0.0868 0.115755,0.13849 l 0.926042,0.60772 q 0.04754,0.031 0.04754,0.0992 0,0.0661 -0.04754,0.0951 -0.19017,0.11989 -0.405144,0.11989 -0.237711,0 -0.458886,-0.12609 l -0.03514,-0.0124 -0.03927,-0.006 q -0.05581,0 -0.101286,0.0455 l -0.0186,0.0227 -0.01447,0.031 -0.0083,0.0538 q 0,0.0744 0.07855,0.12195 0.287321,0.15917 0.599447,0.15917 0.318326,0 0.564306,-0.16537 0.08061,-0.0496 0.126091,-0.14469 0.04754,-0.0951 0.04754,-0.19224 0,-0.0868 -0.04341,-0.17776 -0.04341,-0.093 -0.132292,-0.1633 l -0.923974,-0.60772 q -0.04134,-0.0248 -0.04134,-0.0806 0,-0.0496 0.04134,-0.0847 0.165364,-0.11162 0.405143,-0.11162 0.233577,0 0.491959,0.12402 l 0.07028,0.0165 q 0.04548,0 0.09095,-0.0434 0.04754,-0.0455 0.04754,-0.10542 0,-0.0744 -0.08062,-0.12816 z"
           style="fill:#ff6600;stroke-width:0.26458332"
           id="path1854" />
      </g>
    </g>
    <g
       id="g1786"
       style="fill:#0000ff"
       transform="translate(62.84153,-13.387978)">
      <g
         aria-label="α"
         style="font-style:normal;font-variant:normal;font-weight:normal;font-stretch:normal;font-size:4.23333311px;line-height:4.93888855px;font-family:'GOST type B';-inkscape-font-specification:'GOST type B';text-align:start;letter-spacing:0px;word-spacing:0px;text-anchor:start;fill:#0000ff;fill-opacity:1;stroke:none;stroke-width:0.26458332"
         id="text1736">
        <path
           d="m -15.294153,277.75924 -0.08337,-0.4377 q -0.08527,-0.44907 -0.422541,-0.44907 -0.253904,0 -0.369487,0.20843 -0.145899,0.26148 -0.145899,0.60633 0,0.41686 0.14211,0.61582 0.144005,0.20274 0.373276,0.20274 0.253903,0 0.390329,-0.40359 z m 0.195165,-0.57981 0.187585,-0.55518 h 0.310748 l -0.388435,1.15015 0.07579,0.41496 q 0.01705,0.0928 0.08337,0.17053 0.07769,0.091 0.13832,0.091 h 0.166743 v 0.29559 h -0.208428 q -0.178112,0 -0.337275,-0.15916 -0.07769,-0.0796 -0.109899,-0.24633 -0.08716,0.21032 -0.265272,0.37517 -0.08337,0.0777 -0.354328,0.0777 -0.445279,0 -0.661286,-0.28801 -0.221692,-0.29748 -0.221692,-0.81856 0,-0.55707 0.24064,-0.81855 0.267167,-0.2918 0.642338,-0.2918 0.589284,0 0.701077,0.60255 z"
           style="font-size:3.88055563px;fill:#0000ff;stroke-width:0.26458332"
           id="path1857" />
      </g>
      <g
         aria-label="tg"
         style="font-style:normal;font-variant:normal;font-weight:normal;font-stretch:normal;font-size:4.23333311px;line-height:4.93888855px;font-family:'GOST type B';-inkscape-font-specification:'GOST type B';text-align:start;letter-spacing:0px;word-spacing:0px;text-anchor:start;fill:#0000ff;fill-opacity:1;stroke:none;stroke-width:0.26458332"
         id="text1740">
        <path
           d="m -20.511618,276.66828 h 0.434082 q 0.05994,0 0.101286,0.0455 0.04341,0.0434 0.04341,0.0992 0,0.0496 -0.03721,0.0971 -0.03514,0.0475 -0.107487,0.0475 h -0.434082 v 1.59164 q 0,0.0682 -0.04134,0.10955 -0.03927,0.0351 -0.103353,0.0351 -0.05788,0 -0.101286,-0.0351 -0.04341,-0.0372 -0.04341,-0.10955 v -1.59164 H -20.9457 q -0.06615,0 -0.107487,-0.0413 -0.03721,-0.0434 -0.03721,-0.10335 0,-0.0517 0.03721,-0.0971 0.03927,-0.0476 0.107487,-0.0476 h 0.144694 v -0.72347 q 0,-0.0579 0.04341,-0.10748 0.04341,-0.0372 0.101286,-0.0372 0.05581,0 0.09922,0.0372 0.04547,0.0351 0.04547,0.10748 z"
           style="fill:#0000ff;stroke-width:0.26458332"
           id="path1860" />
        <path
           d="m -18.196514,278.40461 v -1.44694 h -0.578776 q -0.121956,0 -0.206705,0.0827 -0.04134,0.0414 -0.06201,0.0951 -0.02067,0.0517 -0.02067,0.11162 v 0.86816 q 0,0.12196 0.08268,0.20671 0.04341,0.0372 0.09302,0.062 0.06201,0.0207 0.113688,0.0207 z m 0,0.28939 h -0.578776 q -0.233577,0 -0.40721,-0.16743 -0.171566,-0.16743 -0.171566,-0.41135 v -0.86816 q 0,-0.23978 0.169499,-0.40928 0.169499,-0.1695 0.409277,-0.1695 h 0.72347 q 0.144694,0 0.144694,0.1447 v 2.17041 q 0,0.23564 -0.169498,0.40721 -0.167432,0.17156 -0.409278,0.17156 h -0.578776 q -0.05374,0 -0.107487,-0.0434 -0.03721,-0.0434 -0.03721,-0.10129 0,-0.0579 0.03514,-0.10129 0.03721,-0.0434 0.109554,-0.0434 h 0.578776 q 0.121957,0 0.204639,-0.0827 0.08475,-0.0806 0.08475,-0.2067 z"
           style="fill:#0000ff;stroke-width:0.26458332"
           id="path1862" />
      </g>
    </g>
    <g
       id="g1792"
       style="fill:#008000"
       transform="translate(46.857923,-28.142077)">
      <g
         aria-label="α"
         style="font-style:normal;font-variant:normal;font-weight:normal;font-stretch:normal;font-size:4.23333311px;line-height:4.93888855px;font-family:'GOST type B';-inkscape-font-specification:'GOST type B';text-align:start;letter-spacing:0px;word-spacing:0px;text-anchor:start;fill:#008000;fill-opacity:1;stroke:none;stroke-width:0.26458332"
         id="text1746">
        <path
           d="m -14.395755,282.03835 -0.08337,-0.4377 q -0.08527,-0.44907 -0.422541,-0.44907 -0.253903,0 -0.369486,0.20843 -0.1459,0.26148 -0.1459,0.60634 0,0.41686 0.14211,0.61581 0.144005,0.20274 0.373276,0.20274 0.253904,0 0.39033,-0.40359 z m 0.195164,-0.57981 0.187586,-0.55518 h 0.310747 l -0.388434,1.15015 0.07579,0.41496 q 0.01705,0.0928 0.08337,0.17053 0.07769,0.0909 0.138321,0.0909 h 0.166742 v 0.29559 h -0.208428 q -0.178111,0 -0.337275,-0.15916 -0.07769,-0.0796 -0.109898,-0.24632 -0.08716,0.21032 -0.265273,0.37517 -0.08337,0.0777 -0.354328,0.0777 -0.445278,0 -0.661286,-0.28801 -0.221692,-0.29748 -0.221692,-0.81855 0,-0.55707 0.24064,-0.81856 0.267167,-0.2918 0.642338,-0.2918 0.589284,0 0.701077,0.60255 z"
           style="font-size:3.88055563px;fill:#008000;stroke-width:0.26458332"
           id="path1865" />
      </g>
      <g
         aria-label="ctg"
         style="font-style:normal;font-variant:normal;font-weight:normal;font-stretch:normal;font-size:4.23333311px;line-height:4.93888855px;font-family:'GOST type B';-inkscape-font-specification:'GOST type B';text-align:start;letter-spacing:0px;word-spacing:0px;text-anchor:start;fill:#008000;fill-opacity:1;stroke:none;stroke-width:0.26458332"
         id="text1750">
        <path
           d="m -20.555677,282.99728 h -0.434082 q -0.233578,0 -0.407211,-0.16743 -0.171566,-0.16743 -0.171566,-0.41134 v -0.86817 q 0,-0.23977 0.169499,-0.40927 0.169499,-0.1695 0.409278,-0.1695 h 0.434082 q 0.05994,0 0.101285,0.0455 0.04341,0.0434 0.04341,0.0992 0,0.0496 -0.03721,0.0971 -0.03514,0.0476 -0.107486,0.0476 h -0.434082 q -0.121957,0 -0.206706,0.0827 -0.04134,0.0413 -0.06201,0.0951 -0.02067,0.0517 -0.02067,0.11162 v 0.86817 q 0,0.12195 0.08268,0.2067 0.04341,0.0372 0.09302,0.062 0.06201,0.0207 0.113689,0.0207 h 0.434082 q 0.05994,0 0.101285,0.0455 0.04341,0.0434 0.04341,0.0992 0,0.0496 -0.03721,0.0971 -0.03514,0.0475 -0.107486,0.0475 z"
           style="fill:#008000;stroke-width:0.26458332"
           id="path1868" />
        <path
           d="m -19.253431,280.97157 h 0.434082 q 0.05994,0 0.101285,0.0455 0.04341,0.0434 0.04341,0.0992 0,0.0496 -0.03721,0.0971 -0.03514,0.0476 -0.107486,0.0476 h -0.434082 v 1.59163 q 0,0.0682 -0.04134,0.10955 -0.03927,0.0351 -0.103352,0.0351 -0.05788,0 -0.101286,-0.0351 -0.04341,-0.0372 -0.04341,-0.10955 v -1.59163 h -0.144694 q -0.06615,0 -0.107487,-0.0414 -0.03721,-0.0434 -0.03721,-0.10335 0,-0.0517 0.03721,-0.0971 0.03927,-0.0475 0.107487,-0.0475 h 0.144694 v -0.72347 q 0,-0.0579 0.04341,-0.10749 0.04341,-0.0372 0.101286,-0.0372 0.05581,0 0.09922,0.0372 0.04548,0.0351 0.04548,0.10749 z"
           style="fill:#008000;stroke-width:0.26458332"
           id="path1870" />
        <path
           d="m -16.938327,282.7079 v -1.44694 h -0.578776 q -0.121957,0 -0.206706,0.0827 -0.04134,0.0413 -0.06201,0.0951 -0.02067,0.0517 -0.02067,0.11162 v 0.86817 q 0,0.12195 0.08268,0.2067 0.04341,0.0372 0.09302,0.062 0.06201,0.0207 0.113689,0.0207 z m 0,0.28938 h -0.578776 q -0.233578,0 -0.407211,-0.16743 -0.171565,-0.16743 -0.171565,-0.41134 v -0.86817 q 0,-0.23977 0.169498,-0.40927 0.169499,-0.1695 0.409278,-0.1695 h 0.72347 q 0.144694,0 0.144694,0.14469 v 2.17041 q 0,0.23565 -0.169499,0.40721 -0.167432,0.17157 -0.409277,0.17157 h -0.578776 q -0.05374,0 -0.107487,-0.0434 -0.03721,-0.0434 -0.03721,-0.10129 0,-0.0579 0.03514,-0.10128 0.03721,-0.0434 0.109555,-0.0434 h 0.578776 q 0.121956,0 0.204638,-0.0827 0.08475,-0.0806 0.08475,-0.20671 z"
           style="fill:#008000;stroke-width:0.26458332"
           id="path1872" />
      </g>
    </g>
    <g
       aria-label="ось
котангенсов"
       transform="skewX(-13.280795)"
       style="font-style:normal;font-variant:normal;font-weight:normal;font-stretch:normal;font-size:4.23333311px;line-height:2.46944451px;font-family:'GOST type B';-inkscape-font-specification:'GOST type B';text-align:center;letter-spacing:0px;word-spacing:0px;text-anchor:middle;fill:#008000;fill-opacity:1;stroke:none;stroke-width:0.26458332"
       id="text1796">
      <path
         d="m 69.281093,252.4121 q 0,0.21532 -0.155029,0.37379 -0.153307,0.15675 -0.375515,0.15675 h -0.144694 q -0.215319,0 -0.373793,-0.1533 -0.156752,-0.15331 -0.156752,-0.37724 v -0.62701 q 0,-0.21187 0.155029,-0.37035 0.155029,-0.16019 0.375516,-0.16019 h 0.144694 q 0.215318,0 0.37207,0.15502 0.158474,0.15331 0.158474,0.37552 z m -0.241156,0 v -0.62701 q 0,-0.11886 -0.0844,-0.20326 -0.08268,-0.0861 -0.204983,-0.0861 h -0.144694 q -0.118856,0 -0.204984,0.0844 -0.0844,0.0844 -0.0844,0.20498 v 0.62701 q 0,0.11885 0.0844,0.20498 0.08441,0.0844 0.204984,0.0844 h 0.144694 q 0.117133,0 0.20326,-0.0827 0.08613,-0.0827 0.08613,-0.2067 z"
         style="font-size:3.52777767px;line-height:2.46944451px;text-align:center;text-anchor:middle;fill:#008000;stroke-width:0.26458332"
         id="path1875" />
      <path
         d="M 70.607455,252.94264 H 70.24572 q -0.194648,0 -0.339342,-0.13952 -0.142971,-0.13953 -0.142971,-0.34279 v -0.72347 q 0,-0.19982 0.141248,-0.34107 0.141249,-0.14124 0.341065,-0.14124 h 0.361735 q 0.04995,0 0.08441,0.0379 0.03617,0.0362 0.03617,0.0827 0,0.0413 -0.03101,0.081 -0.02928,0.0396 -0.08957,0.0396 H 70.24572 q -0.10163,0 -0.172255,0.0689 -0.03445,0.0345 -0.05168,0.0792 -0.01723,0.0431 -0.01723,0.093 v 0.72347 q 0,0.10163 0.0689,0.17225 0.03617,0.031 0.07752,0.0517 0.05168,0.0172 0.09474,0.0172 h 0.361735 q 0.04995,0 0.08441,0.0379 0.03617,0.0362 0.03617,0.0827 0,0.0413 -0.03101,0.081 -0.02928,0.0396 -0.08957,0.0396 z"
         style="font-size:3.52777767px;line-height:2.46944451px;text-align:center;text-anchor:middle;fill:#008000;stroke-width:0.26458332"
         id="path1877" />
      <path
         d="m 71.451503,252.21917 v 0.48232 h 0.482314 q 0.110243,0 0.1757,-0.0724 0.06546,-0.0741 0.06546,-0.16881 0,-0.10163 -0.05857,-0.16709 -0.02928,-0.0327 -0.07579,-0.0534 -0.04651,-0.0207 -0.106798,-0.0207 z m 0,-0.24115 h 0.482314 q 0.227376,0 0.361735,0.14986 0.120578,0.13608 0.120578,0.33245 0,0.1912 -0.118856,0.33073 -0.136081,0.15158 -0.363457,0.15158 h -0.602892 q -0.120578,0 -0.120578,-0.12058 v -1.44694 q 0,-0.0482 0.03617,-0.0896 0.03617,-0.031 0.0844,-0.031 0.04651,0 0.08268,0.031 0.0379,0.0293 0.0379,0.0896 z"
         style="font-size:3.52777767px;line-height:2.46944451px;text-align:center;text-anchor:middle;fill:#008000;stroke-width:0.26458332"
         id="path1879" />
      <path
         d="m 61.569247,254.81436 -0.27044,0.2825 v 0.38585 q 0,0.0568 -0.03445,0.0913 -0.03273,0.0293 -0.08613,0.0293 -0.04823,0 -0.08441,-0.0293 -0.03617,-0.031 -0.03617,-0.0913 v -1.44694 q 0,-0.0482 0.03617,-0.0896 0.03617,-0.031 0.08441,-0.031 0.04651,0 0.08268,0.031 0.0379,0.0293 0.0379,0.0896 v 0.71141 l 0.764811,-0.80271 q 0.03101,-0.0362 0.07752,-0.0362 0.0379,0 0.0844,0.0362 0.03617,0.0362 0.03617,0.0913 0,0.0499 -0.03962,0.0913 l -0.484036,0.50988 0.496094,0.76825 q 0.02756,0.05 0.02756,0.0827 0,0.05 -0.03962,0.0844 -0.03617,0.0362 -0.08441,0.0362 -0.04823,0 -0.08613,-0.0482 z"
         style="font-size:3.52777767px;line-height:2.46944451px;text-align:center;text-anchor:middle;fill:#008000;stroke-width:0.26458332"
         id="path1881" />
      <path
         d="m 63.975646,255.07274 q 0,0.21532 -0.155029,0.3738 -0.153307,0.15675 -0.375515,0.15675 h -0.144694 q -0.215319,0 -0.373793,-0.15331 -0.156752,-0.15331 -0.156752,-0.37724 v -0.62701 q 0,-0.21187 0.155029,-0.37034 0.15503,-0.1602 0.375516,-0.1602 h 0.144694 q 0.215318,0 0.37207,0.15503 0.158474,0.15331 0.158474,0.37551 z m -0.241156,0 v -0.62701 q 0,-0.11885 -0.08441,-0.20326 -0.08268,-0.0861 -0.204983,-0.0861 h -0.144694 q -0.118856,0 -0.204984,0.0844 -0.0844,0.0844 -0.0844,0.20498 v 0.62701 q 0,0.11886 0.0844,0.20499 0.0844,0.0844 0.204984,0.0844 h 0.144694 q 0.117133,0 0.20326,-0.0827 0.08613,-0.0827 0.08613,-0.20671 z"
         style="font-size:3.52777767px;line-height:2.46944451px;text-align:center;text-anchor:middle;fill:#008000;stroke-width:0.26458332"
         id="path1883" />
      <path
         d="m 65.18143,254.15635 h -0.482314 v 1.32636 q 0,0.0568 -0.03445,0.0913 -0.03273,0.0293 -0.08613,0.0293 -0.04823,0 -0.0844,-0.0293 -0.03617,-0.031 -0.03617,-0.0913 v -1.44694 q 0,-0.12058 0.120578,-0.12058 h 1.085205 q 0.196371,0 0.339342,0.14125 0.142971,0.13953 0.142971,0.34106 v 1.08521 q 0,0.0568 -0.03445,0.0913 -0.03273,0.0293 -0.08613,0.0293 -0.04823,0 -0.08441,-0.0293 -0.03617,-0.031 -0.03617,-0.0913 v -1.08521 q 0,-0.10163 -0.0689,-0.17053 -0.06718,-0.0706 -0.172255,-0.0706 h -0.241157 v 1.32636 q 0,0.0568 -0.03445,0.0913 -0.03273,0.0293 -0.08613,0.0293 -0.04823,0 -0.08441,-0.0293 -0.03617,-0.031 -0.03617,-0.0913 z"
         style="font-size:3.52777767px;line-height:2.46944451px;text-align:center;text-anchor:middle;fill:#008000;stroke-width:0.26458332"
         id="path1885" />
      <path
         d="m 67.592997,255.12097 v -0.96462 h -0.482314 q -0.10163,0 -0.172255,0.0689 -0.03445,0.0345 -0.05168,0.0792 -0.01722,0.0431 -0.01722,0.093 v 0.72347 q 0,0.10163 0.0689,0.17226 0.03617,0.031 0.07751,0.0517 0.05168,0.0172 0.09474,0.0172 h 0.241157 q 0.09991,0 0.170532,-0.0672 0.07062,-0.0672 0.07062,-0.17398 z m 0.118855,0.32384 q -0.05857,0.0672 -0.160197,0.11369 -0.09991,0.0448 -0.199815,0.0448 h -0.241157 q -0.194648,0 -0.339342,-0.13953 -0.142971,-0.13953 -0.142971,-0.34279 v -0.72347 q 0,-0.19981 0.141249,-0.34106 0.141249,-0.14125 0.341064,-0.14125 h 0.602892 q 0.120578,0 0.120578,0.12058 v 1.08348 q 0,0.0724 0.04651,0.14814 0.04134,0.0672 0.120578,0.10508 0.07579,0.031 0.07579,0.10852 0,0.0534 -0.03445,0.0879 -0.03101,0.0362 -0.08613,0.0362 -0.02584,0 -0.04995,-0.0121 -0.118856,-0.0465 -0.194648,-0.14814 z"
         style="font-size:3.52777767px;line-height:2.46944451px;text-align:center;text-anchor:middle;fill:#008000;stroke-width:0.26458332"
         id="path1887" />
      <path
         d="m 69.281093,254.63866 v -0.60289 q 0,-0.0482 0.03617,-0.0896 0.03617,-0.031 0.0844,-0.031 0.04651,0 0.08268,0.031 0.0379,0.0293 0.0379,0.0896 v 1.44694 q 0,0.0568 -0.03445,0.0913 -0.03273,0.0293 -0.08613,0.0293 -0.04823,0 -0.0844,-0.0293 -0.03617,-0.031 -0.03617,-0.0913 v -0.60289 h -0.72347 v 0.60289 q 0,0.0568 -0.03445,0.0913 -0.03273,0.0293 -0.08613,0.0293 -0.04823,0 -0.08441,-0.0293 -0.03617,-0.031 -0.03617,-0.0913 v -1.44694 q 0,-0.0482 0.03617,-0.0896 0.03617,-0.031 0.08441,-0.031 0.04651,0 0.08268,0.031 0.0379,0.0293 0.0379,0.0896 v 0.60289 z"
         style="font-size:3.52777767px;line-height:2.46944451px;text-align:center;text-anchor:middle;fill:#008000;stroke-width:0.26458332"
         id="path1889" />
      <path
         d="m 71.148335,255.49304 q -0.09302,0.05 -0.241157,0.0861 l -0.129191,0.0189 -0.141249,0.007 -0.168809,-0.007 -0.144694,-0.0207 q -0.134359,-0.0207 -0.220486,-0.12402 -0.08613,-0.10508 -0.08613,-0.23772 0,-0.0758 0.03101,-0.15158 0.03101,-0.0758 0.10163,-0.13608 l 0.769979,-0.52882 q 0.03617,-0.031 0.03617,-0.0741 0,-0.0758 -0.124024,-0.11886 -0.124023,-0.0431 -0.272162,-0.0431 -0.118856,0 -0.211874,0.0207 -0.0913,0.0189 -0.149861,0.0689 -0.03101,0.0207 -0.07407,0.0258 -0.0379,0 -0.08441,-0.0362 -0.03445,-0.0379 -0.03445,-0.0879 0,-0.0568 0.04823,-0.0947 0.07407,-0.0568 0.225653,-0.0947 0.07235,-0.0172 0.149862,-0.0276 0.07924,-0.0103 0.155029,-0.0103 0.04823,0 0.0913,0.002 0.04479,0.002 0.09991,0.009 0.05512,0.005 0.130914,0.0293 0.130913,0.0362 0.213596,0.13436 0.08441,0.0982 0.08441,0.21704 0,0.14986 -0.137804,0.27044 l -0.769979,0.53054 q -0.04306,0.0396 -0.04306,0.093 0,0.0431 0.02928,0.0844 0.02928,0.0362 0.08268,0.0465 l 0.129191,0.0138 0.144694,0.007 q 0.134359,0 0.218764,-0.0172 0.0379,-0.007 0.0844,-0.0241 0.04651,-0.0172 0.08957,-0.0431 l 0.02412,-0.0103 q 0.0155,-0.005 0.03962,-0.005 0.04651,0 0.0844,0.0379 0.03273,0.0379 0.03273,0.0896 0,0.0586 -0.06373,0.10163 z"
         style="font-size:3.52777767px;line-height:2.46944451px;text-align:center;text-anchor:middle;fill:#008000;stroke-width:0.26458332"
         id="path1891" />
      <path
         d="m 71.933817,254.63866 h 0.72347 v -0.24116 q 0,-0.10163 -0.0689,-0.17053 -0.06718,-0.0706 -0.172255,-0.0706 h -0.241156 q -0.101631,0 -0.172255,0.0689 -0.03445,0.0345 -0.05168,0.0792 -0.01723,0.0431 -0.01723,0.093 z m 0,0.24116 v 0.24115 q 0,0.10163 0.0689,0.17226 0.03617,0.031 0.07752,0.0517 0.05168,0.0172 0.09474,0.0172 h 0.602891 q 0.04995,0 0.0844,0.0379 0.03617,0.0362 0.03617,0.0827 0,0.0413 -0.03101,0.081 -0.02928,0.0396 -0.08957,0.0396 h -0.602891 q -0.196371,0 -0.339342,-0.13953 -0.142972,-0.14125 -0.142972,-0.34279 v -0.72347 q 0,-0.19464 0.139527,-0.33762 0.139526,-0.14469 0.342787,-0.14469 h 0.241156 q 0.196371,0 0.339342,0.14125 0.142972,0.13953 0.142972,0.34106 v 0.36174 q 0,0.12058 -0.120579,0.12058 z"
         style="font-size:3.52777767px;line-height:2.46944451px;text-align:center;text-anchor:middle;fill:#008000;stroke-width:0.26458332"
         id="path1893" />
      <path
         d="m 74.345383,254.63866 v -0.60289 q 0,-0.0482 0.03617,-0.0896 0.03617,-0.031 0.0844,-0.031 0.04651,0 0.08268,0.031 0.0379,0.0293 0.0379,0.0896 v 1.44694 q 0,0.0568 -0.03445,0.0913 -0.03273,0.0293 -0.08613,0.0293 -0.04823,0 -0.0844,-0.0293 -0.03617,-0.031 -0.03617,-0.0913 v -0.60289 h -0.72347 v 0.60289 q 0,0.0568 -0.03445,0.0913 -0.03273,0.0293 -0.08613,0.0293 -0.04823,0 -0.08441,-0.0293 -0.03617,-0.031 -0.03617,-0.0913 v -1.44694 q 0,-0.0482 0.03617,-0.0896 0.03617,-0.031 0.08441,-0.031 0.04651,0 0.08268,0.031 0.0379,0.0293 0.0379,0.0896 v 0.60289 z"
         style="font-size:3.52777767px;line-height:2.46944451px;text-align:center;text-anchor:middle;fill:#008000;stroke-width:0.26458332"
         id="path1895" />
      <path
         d="m 75.912902,255.60329 h -0.361735 q -0.194648,0 -0.339342,-0.13953 -0.142972,-0.13953 -0.142972,-0.34279 v -0.72347 q 0,-0.19981 0.141249,-0.34106 0.141249,-0.14125 0.341065,-0.14125 h 0.361735 q 0.04995,0 0.08441,0.0379 0.03617,0.0362 0.03617,0.0827 0,0.0413 -0.03101,0.081 -0.02928,0.0396 -0.08957,0.0396 h -0.361735 q -0.101631,0 -0.172255,0.0689 -0.03445,0.0345 -0.05168,0.0792 -0.01723,0.0431 -0.01723,0.093 v 0.72347 q 0,0.10163 0.0689,0.17226 0.03617,0.031 0.07752,0.0517 0.05168,0.0172 0.09474,0.0172 h 0.361735 q 0.04995,0 0.08441,0.0379 0.03617,0.0362 0.03617,0.0827 0,0.0413 -0.03101,0.081 -0.02928,0.0396 -0.08957,0.0396 z"
         style="font-size:3.52777767px;line-height:2.46944451px;text-align:center;text-anchor:middle;fill:#008000;stroke-width:0.26458332"
         id="path1897" />
      <path
         d="m 77.721577,255.07274 q 0,0.21532 -0.155029,0.3738 -0.153307,0.15675 -0.375515,0.15675 h -0.144694 q -0.215319,0 -0.373793,-0.15331 -0.156752,-0.15331 -0.156752,-0.37724 v -0.62701 q 0,-0.21187 0.155029,-0.37034 0.155029,-0.1602 0.375516,-0.1602 h 0.144694 q 0.215318,0 0.37207,0.15503 0.158474,0.15331 0.158474,0.37551 z m -0.241156,0 v -0.62701 q 0,-0.11885 -0.08441,-0.20326 -0.08268,-0.0861 -0.204983,-0.0861 h -0.144694 q -0.118856,0 -0.204984,0.0844 -0.0844,0.0844 -0.0844,0.20498 v 0.62701 q 0,0.11886 0.0844,0.20499 0.08441,0.0844 0.204984,0.0844 h 0.144694 q 0.117133,0 0.20326,-0.0827 0.08613,-0.0827 0.08613,-0.20671 z"
         style="font-size:3.52777767px;line-height:2.46944451px;text-align:center;text-anchor:middle;fill:#008000;stroke-width:0.26458332"
         id="path1899" />
      <path
         d="m 79.168517,255.12097 v -0.72347 q 0,-0.10163 -0.0689,-0.17053 -0.06718,-0.0706 -0.172255,-0.0706 h -0.241157 q -0.10163,0 -0.172255,0.0689 -0.03445,0.0345 -0.05168,0.0792 -0.01722,0.0431 -0.01722,0.093 v 0.72347 q 0,0.10163 0.0689,0.17226 0.03617,0.031 0.07752,0.0517 0.05168,0.0172 0.09474,0.0172 h 0.241157 q 0.09991,0 0.170532,-0.0672 0.07062,-0.0672 0.07062,-0.17398 z m -0.72347,-1.12138 0.09819,-0.0654 0.142971,-0.0999 q 0.0689,-0.0534 0.09819,-0.0896 0.04651,-0.0568 0.04651,-0.11886 0,-0.0827 -0.05857,-0.13952 -0.05857,-0.05 -0.134359,-0.05 -0.07924,0 -0.136081,0.05 -0.05684,0.0465 -0.05684,0.13952 z m 0.482313,-0.0775 q 0.230821,0 0.361735,0.1378 0.120578,0.13092 0.120578,0.33762 v 0.72347 q 0,0.1981 -0.141249,0.34107 -0.141249,0.14125 -0.341064,0.14125 h -0.241157 q -0.194648,0 -0.339342,-0.13953 -0.142971,-0.13953 -0.142971,-0.34279 v -1.49517 q 0,-0.20154 0.134359,-0.32556 0.125746,-0.11024 0.301445,-0.11024 0.167088,0 0.299724,0.11369 0.132636,0.11368 0.132636,0.32039 0,0.11713 -0.03445,0.1757 -0.02928,0.0603 -0.110243,0.1223 z"
         style="font-size:3.52777767px;line-height:2.46944451px;text-align:center;text-anchor:middle;fill:#008000;stroke-width:0.26458332"
         id="path1901" />
    </g>
    <g
       aria-label="ось
тангенсов"
       transform="matrix(0,-1,1,0.23603609,0,0)"
       style="font-style:normal;font-variant:normal;font-weight:normal;font-stretch:normal;font-size:4.23333311px;line-height:2.46944451px;font-family:'GOST type B';-inkscape-font-specification:'GOST type B';text-align:center;letter-spacing:0px;word-spacing:0px;text-anchor:middle;fill:#0000ff;fill-opacity:1;stroke:none;stroke-width:0.26458332"
       id="text1804">
      <path
         d="m -279.42242,42.173053 q 0,0.215319 -0.15503,0.373793 -0.15331,0.156752 -0.37552,0.156752 h -0.14469 q -0.21532,0 -0.37379,-0.153307 -0.15675,-0.153306 -0.15675,-0.377238 v -0.627007 q 0,-0.211873 0.15503,-0.370348 0.15502,-0.160197 0.37551,-0.160197 h 0.14469 q 0.21532,0 0.37207,0.15503 0.15848,0.153306 0.15848,0.375515 z m -0.24116,0 v -0.627007 q 0,-0.118856 -0.0844,-0.203261 -0.0827,-0.08613 -0.20499,-0.08613 h -0.14469 q -0.11886,0 -0.20498,0.0844 -0.0844,0.08441 -0.0844,0.204983 v 0.627007 q 0,0.118856 0.0844,0.204984 0.0844,0.0844 0.20498,0.0844 h 0.14469 q 0.11714,0 0.20327,-0.08268 0.0861,-0.08268 0.0861,-0.206706 z"
         style="font-size:3.52777767px;line-height:2.46944451px;text-align:center;text-anchor:middle;fill:#0000ff;stroke-width:0.26458332"
         id="path1904" />
      <path
         d="m -278.09606,42.703598 h -0.36173 q -0.19465,0 -0.33935,-0.139526 -0.14297,-0.139527 -0.14297,-0.342787 v -0.72347 q 0,-0.199816 0.14125,-0.341065 0.14125,-0.141249 0.34107,-0.141249 h 0.36173 q 0.05,0 0.0844,0.0379 0.0362,0.03617 0.0362,0.08268 0,0.04134 -0.031,0.08096 -0.0293,0.03962 -0.0896,0.03962 h -0.36173 q -0.10163,0 -0.17226,0.0689 -0.0344,0.03445 -0.0517,0.07924 -0.0172,0.04306 -0.0172,0.09302 v 0.72347 q 0,0.10163 0.0689,0.172254 0.0362,0.03101 0.0775,0.05168 0.0517,0.01722 0.0947,0.01722 h 0.36173 q 0.05,0 0.0844,0.0379 0.0362,0.03617 0.0362,0.08268 0,0.04134 -0.031,0.08096 -0.0293,0.03962 -0.0896,0.03962 z"
         style="font-size:3.52777767px;line-height:2.46944451px;text-align:center;text-anchor:middle;fill:#0000ff;stroke-width:0.26458332"
         id="path1906" />
      <path
         d="m -277.25201,41.980128 v 0.482313 h 0.48231 q 0.11025,0 0.1757,-0.07235 0.0655,-0.07407 0.0655,-0.168809 0,-0.101631 -0.0586,-0.167087 -0.0293,-0.03273 -0.0758,-0.0534 -0.0465,-0.02067 -0.1068,-0.02067 z m 0,-0.241157 h 0.48231 q 0.22738,0 0.36174,0.149862 0.12058,0.136081 0.12058,0.332452 0,0.191202 -0.11886,0.330729 -0.13608,0.151584 -0.36346,0.151584 h -0.60289 q -0.12058,0 -0.12058,-0.120578 v -1.44694 q 0,-0.04823 0.0362,-0.08957 0.0362,-0.03101 0.0844,-0.03101 0.0465,0 0.0827,0.03101 0.0379,0.02928 0.0379,0.08957 z"
         style="font-size:3.52777767px;line-height:2.46944451px;text-align:center;text-anchor:middle;fill:#0000ff;stroke-width:0.26458332"
         id="path1908" />
      <path
         d="m -285.21018,43.917303 h -0.48231 v 1.326361 q 0,0.05684 -0.0345,0.09129 -0.0327,0.02928 -0.0861,0.02928 -0.0482,0 -0.0844,-0.02928 -0.0362,-0.03101 -0.0362,-0.09129 v -1.44694 q 0,-0.120578 0.12058,-0.120578 h 1.0852 q 0.19637,0 0.33934,0.141249 0.14298,0.139526 0.14298,0.341064 v 1.085205 q 0,0.05684 -0.0345,0.09129 -0.0327,0.02928 -0.0861,0.02928 -0.0482,0 -0.0844,-0.02928 -0.0362,-0.03101 -0.0362,-0.09129 v -1.085205 q 0,-0.10163 -0.0689,-0.170532 -0.0672,-0.07062 -0.17226,-0.07062 h -0.24115 v 1.326361 q 0,0.05684 -0.0345,0.09129 -0.0327,0.02928 -0.0861,0.02928 -0.0482,0 -0.0844,-0.02928 -0.0362,-0.03101 -0.0362,-0.09129 z"
         style="font-size:3.52777767px;line-height:2.46944451px;text-align:center;text-anchor:middle;fill:#0000ff;stroke-width:0.26458332"
         id="path1910" />
      <path
         d="m -282.79861,44.881929 v -0.964626 h -0.48232 q -0.10163,0 -0.17225,0.0689 -0.0345,0.03445 -0.0517,0.07924 -0.0172,0.04306 -0.0172,0.09302 v 0.72347 q 0,0.101631 0.0689,0.172255 0.0362,0.03101 0.0775,0.05168 0.0517,0.01723 0.0947,0.01723 h 0.24116 q 0.0999,0 0.17053,-0.06718 0.0706,-0.06718 0.0706,-0.173978 z m 0.11885,0.323839 q -0.0586,0.06718 -0.1602,0.113688 -0.0999,0.04479 -0.19981,0.04479 h -0.24116 q -0.19465,0 -0.33934,-0.139527 -0.14297,-0.139526 -0.14297,-0.342787 v -0.72347 q 0,-0.199815 0.14125,-0.341064 0.14125,-0.141249 0.34106,-0.141249 h 0.60289 q 0.12058,0 0.12058,0.120578 v 1.083483 q 0,0.07235 0.0465,0.148139 0.0413,0.06718 0.12058,0.105075 0.0758,0.03101 0.0758,0.108521 0,0.0534 -0.0345,0.08785 -0.031,0.03617 -0.0861,0.03617 -0.0258,0 -0.05,-0.01206 -0.11886,-0.04651 -0.19465,-0.148139 z"
         style="font-size:3.52777767px;line-height:2.46944451px;text-align:center;text-anchor:middle;fill:#0000ff;stroke-width:0.26458332"
         id="path1912" />
      <path
         d="m -281.11052,44.399616 v -0.602892 q 0,-0.04823 0.0362,-0.08957 0.0362,-0.03101 0.0844,-0.03101 0.0465,0 0.0827,0.03101 0.0379,0.02928 0.0379,0.08957 v 1.44694 q 0,0.05684 -0.0345,0.09129 -0.0327,0.02928 -0.0861,0.02928 -0.0482,0 -0.0844,-0.02928 -0.0362,-0.03101 -0.0362,-0.09129 v -0.602891 h -0.72347 v 0.602891 q 0,0.05684 -0.0345,0.09129 -0.0327,0.02928 -0.0861,0.02928 -0.0482,0 -0.0844,-0.02928 -0.0362,-0.03101 -0.0362,-0.09129 v -1.44694 q 0,-0.04823 0.0362,-0.08957 0.0362,-0.03101 0.0844,-0.03101 0.0465,0 0.0827,0.03101 0.0379,0.02928 0.0379,0.08957 v 0.602892 z"
         style="font-size:3.52777767px;line-height:2.46944451px;text-align:center;text-anchor:middle;fill:#0000ff;stroke-width:0.26458332"
         id="path1914" />
      <path
         d="m -279.24328,45.254 q -0.093,0.04995 -0.24115,0.08613 l -0.12919,0.01895 -0.14125,0.0069 -0.16881,-0.0069 -0.1447,-0.02067 q -0.13435,-0.02067 -0.22048,-0.124023 -0.0861,-0.105075 -0.0861,-0.237712 0,-0.07579 0.031,-0.151584 0.031,-0.07579 0.10163,-0.136081 l 0.76998,-0.528822 q 0.0362,-0.03101 0.0362,-0.07407 0,-0.07579 -0.12402,-0.118856 -0.12403,-0.04306 -0.27217,-0.04306 -0.11885,0 -0.21187,0.02067 -0.0913,0.01895 -0.14986,0.0689 -0.031,0.02067 -0.0741,0.02584 -0.0379,0 -0.0844,-0.03617 -0.0344,-0.0379 -0.0344,-0.08785 0,-0.05684 0.0482,-0.09474 0.0741,-0.05684 0.22566,-0.09474 0.0723,-0.01723 0.14986,-0.02756 0.0792,-0.01033 0.15503,-0.01033 0.0482,0 0.0913,0.0017 0.0448,0.0017 0.0999,0.0086 0.0551,0.0052 0.13091,0.02928 0.13092,0.03617 0.2136,0.134359 0.0844,0.09819 0.0844,0.217041 0,0.149862 -0.13781,0.27044 l -0.76998,0.530545 q -0.0431,0.03962 -0.0431,0.09302 0,0.04306 0.0293,0.0844 0.0293,0.03617 0.0827,0.04651 l 0.1292,0.01378 0.14469,0.0069 q 0.13436,0 0.21876,-0.01723 0.0379,-0.0069 0.0844,-0.02412 0.0465,-0.01722 0.0896,-0.04306 l 0.0241,-0.01034 q 0.0155,-0.0052 0.0396,-0.0052 0.0465,0 0.0844,0.0379 0.0327,0.0379 0.0327,0.08957 0,0.05857 -0.0637,0.101631 z"
         style="font-size:3.52777767px;line-height:2.46944451px;text-align:center;text-anchor:middle;fill:#0000ff;stroke-width:0.26458332"
         id="path1916" />
      <path
         d="m -278.45779,44.399616 h 0.72347 v -0.241157 q 0,-0.10163 -0.0689,-0.170532 -0.0672,-0.07062 -0.17225,-0.07062 h -0.24116 q -0.10163,0 -0.17225,0.0689 -0.0344,0.03445 -0.0517,0.07924 -0.0172,0.04306 -0.0172,0.09302 z m 0,0.241157 v 0.241156 q 0,0.101631 0.0689,0.172255 0.0362,0.03101 0.0775,0.05168 0.0517,0.01723 0.0947,0.01723 h 0.60289 q 0.05,0 0.0844,0.0379 0.0362,0.03617 0.0362,0.08268 0,0.04134 -0.031,0.08096 -0.0293,0.03962 -0.0896,0.03962 h -0.60289 q -0.19637,0 -0.33934,-0.139527 -0.14297,-0.141249 -0.14297,-0.342787 v -0.72347 q 0,-0.194648 0.13953,-0.337619 0.13952,-0.144694 0.34278,-0.144694 h 0.24116 q 0.19637,0 0.33934,0.141249 0.14297,0.139526 0.14297,0.341064 v 0.361735 q 0,0.120579 -0.12058,0.120579 z"
         style="font-size:3.52777767px;line-height:2.46944451px;text-align:center;text-anchor:middle;fill:#0000ff;stroke-width:0.26458332"
         id="path1918" />
      <path
         d="m -276.04623,44.399616 v -0.602892 q 0,-0.04823 0.0362,-0.08957 0.0362,-0.03101 0.0844,-0.03101 0.0465,0 0.0827,0.03101 0.0379,0.02928 0.0379,0.08957 v 1.44694 q 0,0.05684 -0.0344,0.09129 -0.0327,0.02928 -0.0861,0.02928 -0.0482,0 -0.0844,-0.02928 -0.0362,-0.03101 -0.0362,-0.09129 v -0.602891 h -0.72347 v 0.602891 q 0,0.05684 -0.0344,0.09129 -0.0327,0.02928 -0.0861,0.02928 -0.0482,0 -0.0844,-0.02928 -0.0362,-0.03101 -0.0362,-0.09129 v -1.44694 q 0,-0.04823 0.0362,-0.08957 0.0362,-0.03101 0.0844,-0.03101 0.0465,0 0.0827,0.03101 0.0379,0.02928 0.0379,0.08957 v 0.602892 z"
         style="font-size:3.52777767px;line-height:2.46944451px;text-align:center;text-anchor:middle;fill:#0000ff;stroke-width:0.26458332"
         id="path1920" />
      <path
         d="m -274.47871,45.364243 h -0.36173 q -0.19465,0 -0.33935,-0.139527 -0.14297,-0.139526 -0.14297,-0.342787 v -0.72347 q 0,-0.199815 0.14125,-0.341064 0.14125,-0.141249 0.34107,-0.141249 h 0.36173 q 0.05,0 0.0844,0.0379 0.0362,0.03617 0.0362,0.08268 0,0.04134 -0.031,0.08096 -0.0293,0.03962 -0.0896,0.03962 h -0.36173 q -0.10163,0 -0.17226,0.0689 -0.0344,0.03445 -0.0517,0.07924 -0.0172,0.04306 -0.0172,0.09302 v 0.72347 q 0,0.101631 0.0689,0.172255 0.0362,0.03101 0.0775,0.05168 0.0517,0.01723 0.0947,0.01723 h 0.36173 q 0.05,0 0.0844,0.0379 0.0362,0.03617 0.0362,0.08268 0,0.04134 -0.031,0.08096 -0.0293,0.03962 -0.0896,0.03962 z"
         style="font-size:3.52777767px;line-height:2.46944451px;text-align:center;text-anchor:middle;fill:#0000ff;stroke-width:0.26458332"
         id="path1922" />
      <path
         d="m -272.67003,44.833698 q 0,0.215318 -0.15503,0.373793 -0.15331,0.156752 -0.37552,0.156752 h -0.14469 q -0.21532,0 -0.3738,-0.153307 -0.15675,-0.153307 -0.15675,-0.377238 v -0.627007 q 0,-0.211874 0.15503,-0.370348 0.15503,-0.160197 0.37552,-0.160197 h 0.14469 q 0.21532,0 0.37207,0.155029 0.15848,0.153307 0.15848,0.375516 z m -0.24116,0 v -0.627007 q 0,-0.118856 -0.0844,-0.203261 -0.0827,-0.08613 -0.20498,-0.08613 h -0.14469 q -0.11886,0 -0.20499,0.0844 -0.0844,0.0844 -0.0844,0.204984 v 0.627007 q 0,0.118856 0.0844,0.204983 0.0844,0.08441 0.20499,0.08441 h 0.14469 q 0.11713,0 0.20326,-0.08268 0.0861,-0.08268 0.0861,-0.206706 z"
         style="font-size:3.52777767px;line-height:2.46944451px;text-align:center;text-anchor:middle;fill:#0000ff;stroke-width:0.26458332"
         id="path1924" />
      <path
         d="m -271.22309,44.881929 v -0.72347 q 0,-0.10163 -0.0689,-0.170532 -0.0672,-0.07062 -0.17225,-0.07062 h -0.24116 q -0.10163,0 -0.17225,0.0689 -0.0344,0.03445 -0.0517,0.07924 -0.0172,0.04306 -0.0172,0.09302 v 0.72347 q 0,0.101631 0.0689,0.172255 0.0362,0.03101 0.0775,0.05168 0.0517,0.01723 0.0947,0.01723 h 0.24116 q 0.0999,0 0.17053,-0.06718 0.0706,-0.06718 0.0706,-0.173978 z m -0.72347,-1.121378 0.0982,-0.06546 0.14297,-0.09991 q 0.0689,-0.0534 0.0982,-0.08957 0.0465,-0.05684 0.0465,-0.118856 0,-0.08268 -0.0586,-0.139526 -0.0586,-0.04995 -0.13436,-0.04995 -0.0792,0 -0.13608,0.04995 -0.0568,0.04651 -0.0568,0.139526 z m 0.48231,-0.07751 q 0.23082,0 0.36173,0.137804 0.12058,0.130914 0.12058,0.337619 v 0.72347 q 0,0.198093 -0.14125,0.341065 -0.14124,0.141249 -0.34106,0.141249 h -0.24116 q -0.19465,0 -0.33934,-0.139527 -0.14297,-0.139526 -0.14297,-0.342787 v -1.495171 q 0,-0.201538 0.13436,-0.325562 0.12574,-0.110243 0.30144,-0.110243 0.16709,0 0.29973,0.113689 0.13263,0.113688 0.13263,0.320393 0,0.117134 -0.0344,0.1757 -0.0293,0.06029 -0.11024,0.122301 z"
         style="font-size:3.52777767px;line-height:2.46944451px;text-align:center;text-anchor:middle;fill:#0000ff;stroke-width:0.26458332"
         id="path1926" />
    </g>
    <g
       aria-label="α"
       style="font-style:normal;font-variant:normal;font-weight:normal;font-stretch:normal;font-size:2.73614645px;line-height:3.1921711px;font-family:'GOST type B';-inkscape-font-specification:'GOST type B';text-align:start;letter-spacing:0px;word-spacing:0px;text-anchor:start;fill:#ff0000;fill-opacity:1;stroke:none;stroke-width:0.17100915"
       id="text1808">
      <path
         d="m 36.736144,261.69197 -0.05878,-0.30862 q -0.06012,-0.31663 -0.29793,-0.31663 -0.179025,0 -0.260522,0.14696 -0.102872,0.18437 -0.102872,0.42752 0,0.29392 0.1002,0.4342 0.101537,0.14296 0.263194,0.14296 0.179025,0 0.275218,-0.28457 z m 0.137609,-0.40882 0.132265,-0.39145 h 0.219106 l -0.273882,0.81096 0.05344,0.29258 q 0.01202,0.0655 0.05879,0.12025 0.05478,0.0641 0.09753,0.0641 h 0.117569 v 0.20842 h -0.146961 q -0.125585,0 -0.23781,-0.11222 -0.05478,-0.0561 -0.07749,-0.17368 -0.06146,0.14829 -0.187041,0.26452 -0.05879,0.0548 -0.249834,0.0548 -0.313962,0 -0.466267,-0.20307 -0.156313,-0.20976 -0.156313,-0.57716 0,-0.39278 0.169673,-0.57715 0.188377,-0.20575 0.452907,-0.20575 0.415499,0 0.494323,0.42485 z"
         style="fill:#ff0000;stroke-width:0.17100915"
         id="path1929" />
    </g>
    <g
       aria-label="P"
       transform="skewX(-13.280795)"
       style="font-style:normal;font-variant:normal;font-weight:normal;font-stretch:normal;font-size:4.23333311px;line-height:4.93888855px;font-family:'GOST type B';-inkscape-font-specification:'GOST type B';text-align:start;letter-spacing:0px;word-spacing:0px;text-anchor:start;fill:#0000ff;fill-opacity:1;stroke:none;stroke-width:0.26458332"
       id="text1816">
      <path
         d="m 107.24886,277.20611 h 0.86816 q 0.11989,0 0.20464,-0.0806 0.0847,-0.0806 0.0847,-0.20877 v -0.57878 q 0,-0.12195 -0.0827,-0.20464 -0.0806,-0.0848 -0.20671,-0.0848 h -0.86816 z m 0,0.28938 v 1.01286 q 0,0.0682 -0.0413,0.10956 -0.0393,0.0351 -0.10336,0.0351 -0.0579,0 -0.10128,-0.0351 -0.0434,-0.0372 -0.0434,-0.10956 v -2.60449 q 0,-0.14469 0.14469,-0.14469 h 1.01286 q 0.24185,0 0.40928,0.16949 0.1695,0.1695 0.1695,0.40928 v 0.57878 q 0,0.23771 -0.1695,0.40927 -0.1695,0.1695 -0.40928,0.1695 z"
         style="fill:#0000ff;stroke-width:0.26458332"
         id="path1932" />
    </g>
    <g
       aria-label="0"
       style="font-style:normal;font-variant:normal;font-weight:normal;font-stretch:normal;font-size:2.91805577px;line-height:3.40439868px;font-family:'GOST type B';-inkscape-font-specification:'GOST type B';text-align:start;letter-spacing:0px;word-spacing:0px;text-anchor:start;fill:#0000ff;fill-opacity:1;stroke:none;stroke-width:0.18237849"
       id="text1820">
      <path
         d="m 43.115919,279.53991 q 0,0.17811 -0.128235,0.30919 -0.12681,0.12966 -0.310614,0.12966 h -0.119686 q -0.178104,0 -0.309188,-0.12681 -0.12966,-0.12681 -0.12966,-0.31204 v -1.11707 q 0,-0.17525 0.128235,-0.30634 0.128235,-0.1325 0.310613,-0.1325 h 0.119686 q 0.178104,0 0.307764,0.12823 0.131085,0.12681 0.131085,0.31061 z m -0.199477,0 v -1.11707 q 0,-0.0983 -0.06982,-0.16813 -0.06839,-0.0712 -0.169555,-0.0712 h -0.119686 q -0.09831,0 -0.169555,0.0698 -0.06982,0.0698 -0.06982,0.16955 v 1.11707 q 0,0.0983 0.06982,0.16956 0.06982,0.0698 0.169555,0.0698 h 0.119686 q 0.09689,0 0.168131,-0.0684 0.07124,-0.0684 0.07124,-0.17098 z"
         style="fill:#0000ff;stroke-width:0.18237849"
         id="path1935" />
    </g>
  </g>
</svg>
