<?xml version="1.0" encoding="UTF-8" standalone="no"?>
<!-- Created with Inkscape (http://www.inkscape.org/) -->

<svg
   xmlns:dc="http://purl.org/dc/elements/1.1/"
   xmlns:cc="http://creativecommons.org/ns#"
   xmlns:rdf="http://www.w3.org/1999/02/22-rdf-syntax-ns#"
   xmlns:svg="http://www.w3.org/2000/svg"
   xmlns="http://www.w3.org/2000/svg"
   xmlns:sodipodi="http://sodipodi.sourceforge.net/DTD/sodipodi-0.dtd"
   xmlns:inkscape="http://www.inkscape.org/namespaces/inkscape"
   width="30mm"
   height="30mm"
   viewBox="0 0 30 30"
   version="1.1"
   id="svg8"
   inkscape:version="0.92.4 (5da689c313, 2019-01-14)"
   sodipodi:docname="11-05.svg">
  <defs
     id="defs2">
    <marker
       inkscape:stockid="Arrow2Mstart"
       orient="auto"
       refY="0.0"
       refX="0.0"
       id="Arrow2Mstart"
       style="overflow:visible"
       inkscape:isstock="true">
      <path
         id="path855"
         style="fill-rule:evenodd;stroke-width:0.625;stroke-linejoin:round;stroke:#ff0000;stroke-opacity:0.8;fill:#ff0000;fill-opacity:0.8"
         d="M 8.7185878,4.0337352 L -2.2072895,0.016013256 L 8.7185884,-4.0017078 C 6.9730900,-1.6296469 6.9831476,1.6157441 8.7185878,4.0337352 z "
         transform="scale(0.6) translate(0,0)" />
    </marker>
    <marker
       inkscape:stockid="Arrow1Mend"
       orient="auto"
       refY="0.0"
       refX="0.0"
       id="Arrow1Mend"
       style="overflow:visible;"
       inkscape:isstock="true">
      <path
         id="path840"
         d="M 0.0,0.0 L 5.0,-5.0 L -12.5,0.0 L 5.0,5.0 L 0.0,0.0 z "
         style="fill-rule:evenodd;stroke:#000000;stroke-width:1pt;stroke-opacity:1;fill:#000000;fill-opacity:1"
         transform="scale(0.4) rotate(180) translate(10,0)" />
    </marker>
    <marker
       inkscape:isstock="true"
       style="overflow:visible;"
       id="marker1161"
       refX="0.0"
       refY="0.0"
       orient="auto"
       inkscape:stockid="Arrow2Mend">
      <path
         transform="scale(0.6) rotate(180) translate(0,0)"
         d="M 8.7185878,4.0337352 L -2.2072895,0.016013256 L 8.7185884,-4.0017078 C 6.9730900,-1.6296469 6.9831476,1.6157441 8.7185878,4.0337352 z "
         style="fill-rule:evenodd;stroke-width:0.625;stroke-linejoin:round;stroke:#000000;stroke-opacity:1;fill:#000000;fill-opacity:1"
         id="path1159" />
    </marker>
    <marker
       inkscape:stockid="Arrow2Lend"
       orient="auto"
       refY="0.0"
       refX="0.0"
       id="Arrow2Lend"
       style="overflow:visible;"
       inkscape:isstock="true">
      <path
         id="path852"
         style="fill-rule:evenodd;stroke-width:0.625;stroke-linejoin:round;stroke:#ff0000;stroke-opacity:0.8;fill:#ff0000;fill-opacity:0.8"
         d="M 8.7185878,4.0337352 L -2.2072895,0.016013256 L 8.7185884,-4.0017078 C 6.9730900,-1.6296469 6.9831476,1.6157441 8.7185878,4.0337352 z "
         transform="scale(1.1) rotate(180) translate(1,0)" />
    </marker>
  </defs>
  <sodipodi:namedview
     id="base"
     pagecolor="#ffffff"
     bordercolor="#666666"
     borderopacity="1.0"
     inkscape:pageopacity="0.0"
     inkscape:pageshadow="2"
     inkscape:zoom="6.4558333"
     inkscape:cx="57.312507"
     inkscape:cy="56.692913"
     inkscape:document-units="mm"
     inkscape:current-layer="layer1"
     showgrid="false"
     inkscape:window-width="1920"
     inkscape:window-height="1009"
     inkscape:window-x="0"
     inkscape:window-y="0"
     inkscape:window-maximized="1"
     inkscape:snap-global="false" />
  <metadata
     id="metadata5">
    <rdf:RDF>
      <cc:Work
         rdf:about="">
        <dc:format>image/svg+xml</dc:format>
        <dc:type
           rdf:resource="http://purl.org/dc/dcmitype/StillImage" />
        <dc:title />
      </cc:Work>
    </rdf:RDF>
  </metadata>
  <g
     inkscape:label="Layer 1"
     inkscape:groupmode="layer"
     id="layer1"
     transform="translate(0,-267)">
    <path
       style="fill:none;fill-opacity:1;stroke:#000000;stroke-width:0.22105262;stroke-linecap:round;stroke-linejoin:round;stroke-miterlimit:4;stroke-dasharray:none;stroke-dashoffset:0;stroke-opacity:0.8;paint-order:stroke markers fill"
       d="m 24.546854,281.85645 a 9.3675356,9.3675356 0 0 1 -9.367535,9.36754 9.3675356,9.3675356 0 0 1 -9.3675351,-9.36754 9.3675356,9.3675356 0 0 1 9.3675351,-9.36754 9.3675356,9.3675356 0 0 1 9.367535,9.36754 z"
       id="path10"
       inkscape:connector-curvature="0" />
    <path
       style="fill:#008000;fill-opacity:1;stroke:none;stroke-width:0.22140074;stroke-linecap:round;stroke-linejoin:round;stroke-miterlimit:4;stroke-dasharray:0.66420219, 0.66420219;stroke-dashoffset:0;stroke-opacity:1;paint-order:stroke markers fill"
       d="m 15.54676,272.48166 a 0.37664834,0.37664834 0 0 1 -0.376648,0.37665 0.37664834,0.37664834 0 0 1 -0.376649,-0.37665 0.37664834,0.37664834 0 0 1 0.376649,-0.37665 0.37664834,0.37664834 0 0 1 0.376648,0.37665 z"
       id="path53" />
    <path
       style="fill:#008000;fill-opacity:1;stroke:none;stroke-width:0.22140074;stroke-linecap:round;stroke-linejoin:round;stroke-miterlimit:4;stroke-dasharray:0.66420219, 0.66420219;stroke-dashoffset:0;stroke-opacity:1;paint-order:stroke markers fill"
       d="m 15.54676,291.24561 a 0.37664834,0.37664834 0 0 1 -0.376648,0.37664 0.37664834,0.37664834 0 0 1 -0.376649,-0.37664 0.37664834,0.37664834 0 0 1 0.376649,-0.37665 0.37664834,0.37664834 0 0 1 0.376648,0.37665 z"
       id="circle55" />
    <path
       style="fill:#ff0000;fill-opacity:1;stroke:none;stroke-width:0.22140074;stroke-linecap:round;stroke-linejoin:round;stroke-miterlimit:4;stroke-dasharray:0.66420219, 0.66420219;stroke-dashoffset:0;stroke-opacity:1;paint-order:stroke markers fill"
       d="m 24.928728,281.86362 a 0.37664834,0.37664834 0 0 1 -0.376648,0.37665 0.37664834,0.37664834 0 0 1 -0.376648,-0.37665 0.37664834,0.37664834 0 0 1 0.376648,-0.37665 0.37664834,0.37664834 0 0 1 0.376648,0.37665 z"
       id="circle57" />
    <path
       style="fill:#ff0000;fill-opacity:1;stroke:none;stroke-width:0.22140074;stroke-linecap:round;stroke-linejoin:round;stroke-miterlimit:4;stroke-dasharray:0.66420219, 0.66420219;stroke-dashoffset:0;stroke-opacity:1;paint-order:stroke markers fill"
       d="m 6.1990332,281.86362 a 0.37664834,0.37664834 0 0 1 -0.3766484,0.37665 0.37664834,0.37664834 0 0 1 -0.3766483,-0.37665 0.37664834,0.37664834 0 0 1 0.3766483,-0.37665 0.37664834,0.37664834 0 0 1 0.3766484,0.37665 z"
       id="circle59" />
    <g
       transform="matrix(0.11200195,0,0,0.11200195,9.9553977,276.72587)"
       id="g20"
       style="fill:#a05a2c">
      <g
         id="g18"
         style="fill:#a05a2c">
        <path
           inkscape:connector-curvature="0"
           d="m 34.346,47.301 c -0.181,-0.699 -0.363,-0.984 -0.626,-0.984 -0.377,0 -0.437,0.52 -0.445,1.08 -0.046,3.151 0.858,6.276 2.847,9.836 0.717,1.283 1.525,2.539 2.306,3.756 0.919,1.431 1.87,2.91 2.671,4.432 0.726,1.378 1.244,2.905 1.746,4.383 l 0.043,0.129 c 0.253,0.746 0.373,1.299 0.399,1.578 -0.281,-0.156 -0.824,-0.547 -1.45,-1.111 l -1.998,-1.805 c -0.349,-0.314 -0.728,-0.481 -1.094,-0.481 -0.614,0 -1.092,0.452 -1.279,1.21 l -0.689,2.802 c -0.131,0.532 -0.297,0.642 -0.335,0.642 -0.05,0 -0.225,-0.104 -0.423,-0.586 l -0.06,-0.146 c -0.531,-1.29 -0.99,-2.404 -1.374,-3.534 -0.361,-1.064 -0.66,-2.145 -0.959,-3.248 -0.186,-0.686 -0.37,-0.964 -0.636,-0.964 -0.389,0 -0.446,0.555 -0.451,1.097 -0.052,6.117 1.353,11.406 4.292,15.865 0.462,0.698 1.316,1.832 1.81,1.832 0,0 0.001,0 0.002,0 0.567,0 0.337,-1.924 0.337,-2.592 v 0 -6.996 0 c 0,-0.905 0.268,-1.489 0.358,-1.703 0.219,0.177 0.753,0.764 1.125,1.586 2.629,5.831 2.073,12.146 1.5,18.252 l -0.089,1.155 c -0.066,0.72 0.043,0.932 0.138,1.034 0.065,0.072 0.158,0.111 0.251,0.111 0.25,0 0.458,-0.254 0.714,-0.878 2.968,-7.222 4.354,-13.405 4.358,-19.463 0.002,-3.503 -0.42,-7.976 -3.737,-11.5 C 39.711,57.958 35.9,53.307 34.346,47.301 Z m 4.07,21.121 c -0.217,0.086 -0.404,0.26 -0.542,0.516 0.138,-0.256 0.325,-0.43 0.542,-0.516 z m -1.397,3.76 c 0.236,-0.959 0.457,-1.852 0.69,-2.802 -0.234,0.95 -0.454,1.841 -0.69,2.802 -0.131,0.537 -0.334,0.814 -0.557,0.832 0.222,-0.018 0.425,-0.296 0.557,-0.832 z M 33.108,65.38 c 0.079,0.294 0.165,0.582 0.247,0.872 -0.085,-0.29 -0.174,-0.578 -0.254,-0.872 -0.028,-0.104 -0.121,-0.185 -0.121,-0.258 0,-0.013 0,-0.031 0,-0.043 0,0.08 0.095,0.179 0.128,0.301 z m 3.922,15.581 c -3.071,-4.656 -4.294,-9.908 -4.246,-15.577 0.005,-0.556 0.083,-0.839 0.197,-0.847 -0.111,0.015 -0.188,0.298 -0.192,0.847 -0.048,5.669 1.18,10.921 4.251,15.577 0.608,0.922 1.328,1.604 1.553,1.577 -0.225,0.026 -0.955,-0.655 -1.563,-1.577 z m 5.36,11.868 0.107,-1.153 c 0.579,-6.172 1.177,-12.553 -1.506,-18.504 -0.361,-0.801 -0.978,-1.928 -1.45,-1.928 0.473,0 1.141,1.127 1.502,1.928 2.683,5.951 2.058,12.332 1.479,18.504 l -0.12,1.153 c -0.013,0.14 -0.023,0.249 -0.024,0.338 -0.002,0.004 -0.005,0.013 -0.008,0.017 0.002,-0.091 0.006,-0.207 0.02,-0.355 z m 0.359,0.129 c -0.21,0.513 -0.388,0.749 -0.5,0.719 0.113,0.024 0.289,-0.212 0.498,-0.719 2.549,-6.202 4.334,-12.571 4.339,-19.369 0.002,-4.159 -0.664,-8.135 -3.668,-11.329 -3.151,-3.349 -6.042,-6.847 -7.908,-10.947 1.867,4.101 4.758,7.599 7.909,10.947 3.004,3.194 3.672,7.17 3.669,11.329 -0.006,6.798 -1.791,13.168 -4.339,19.369 z"
           id="path2"
           style="fill:#a05a2c" />
        <path
           inkscape:connector-curvature="0"
           d="m 26.84,23.84 c 1.235,-1.652 2.542,-3.296 3.806,-4.886 l 0.308,-0.387 c 0.328,-0.412 1.358,-1.789 0.863,-2.204 -0.046,-0.039 -0.127,-0.086 -0.247,-0.086 -0.533,0 -1.477,1.022 -1.754,1.336 -0.31,0.351 -0.622,0.701 -0.934,1.051 -1.696,1.901 -3.449,3.867 -4.868,6.013 -1.667,2.521 -3.57,4.992 -6.879,5.135 -0.523,0.023 -1.069,0.095 -1.146,0.459 -0.075,0.354 0.363,0.624 0.8,0.84 0.896,0.442 1.646,0.676 2.362,0.734 0.855,0.073 1.729,-0.083 2.528,-0.255 0.463,-0.1 0.842,-0.007 1.047,0.253 0.178,0.226 0.222,0.571 0.125,0.971 -1.97,8.114 -2.405,13.983 -1.369,18.47 0.151,0.655 0.37,0.974 0.667,0.974 0.483,0 0.569,-0.81 0.598,-1.076 0.517,-4.849 0.816,-6.542 1.679,-7.691 0.192,-0.255 0.417,-0.39 0.65,-0.39 0.375,0 0.71,0.35 0.836,0.872 1.666,6.895 3.018,14.349 1.644,22.145 -0.138,0.783 -0.066,0.854 0.02,0.955 l 0.11,0.01 h 0.117 c 0.194,0 0.359,-0.042 0.676,-0.771 3.732,-8.58 3.842,-17.836 0.355,-30.118 -0.207,-0.727 -0.688,-1.136 -1.287,-1.136 -0.385,0 -0.775,0.193 -1.129,0.536 l -1.284,1.252 c -0.722,0.701 -1.289,1.081 -1.487,1.183 -0.016,-0.235 0.055,-0.829 0.332,-1.689 l 2.463,-7.646 c 0.208,-0.645 0.195,-1.174 -0.037,-1.493 -0.211,-0.289 -0.585,-0.371 -1.009,-0.208 -0.125,0.049 -0.206,0.059 -0.302,0.051 -0.027,-0.033 -0.061,-0.295 0.292,-0.902 0.505,-0.867 0.941,-1.616 1.454,-2.302 z"
           id="path4"
           style="fill:#a05a2c" />
        <path
           inkscape:connector-curvature="0"
           d="m 33.745,23.986 2.143,-0.589 c 0.171,-0.047 0.325,-0.071 0.456,-0.071 0.13,0 0.298,0.023 0.362,0.135 0.083,0.145 0.016,0.431 -0.18,0.766 l -3.194,5.466 c -0.271,0.463 -0.55,1.091 -0.345,1.45 0.081,0.14 0.226,0.221 0.397,0.221 0.117,0 0.246,-0.035 0.393,-0.107 0.491,-0.24 0.835,-0.488 1.083,-0.78 l 0.475,-0.561 c 1.919,-2.265 3.904,-4.605 5.525,-7.133 0.532,-0.83 1.003,-1.716 1.458,-2.573 0.836,-1.574 1.701,-3.201 2.971,-4.526 0.307,-0.32 0.607,-0.437 0.773,-0.258 0.128,0.139 0.185,0.417 0.158,0.765 l -0.201,2.507 c -0.056,0.697 -0.115,1.905 0.117,2.156 l 0.109,0.1 0.117,-0.006 c 0.111,-0.005 0.407,-0.021 1.135,-2.062 l 0.593,-1.662 c 0.296,-0.831 0.988,-0.977 1.564,-0.336 0.349,0.39 0.779,0.604 1.209,0.604 0.574,0 1.079,-0.364 1.404,-1.037 0.979,-2.023 0.755,-2.134 0.575,-2.223 l -0.137,-0.031 c -0.311,0 -0.92,0.542 -1.168,0.775 -0.339,0.319 -1.163,-0.039 -1.727,-0.742 L 49.148,13.41 c -0.744,-0.927 -2.188,-1.096 -3.163,-0.314 -1.219,0.977 -2.479,1.987 -3.477,3.21 -1.028,1.262 -1.792,2.698 -2.601,4.218 l -0.136,0.256 c -0.253,0.476 -0.505,0.645 -0.644,0.645 -0.131,0 -0.259,-0.165 -0.342,-0.441 -0.305,-1.005 -1.159,-1.664 -1.896,-1.457 -0.138,0.038 -0.244,0.002 -0.331,-0.112 -0.138,-0.181 -0.239,-0.613 -0.069,-1.235 1.477,-5.397 5.925,-8.75 11.609,-8.75 0.378,0 0.766,0.015 1.15,0.044 1.332,0.103 2.27,-0.37 2.306,-1.135 0.011,-0.236 0.097,-0.489 0.306,-0.489 0.08,0 0.173,0.033 0.271,0.095 0.622,0.396 1.3,0.403 1.486,0.014 0.312,-0.646 -1.34,-1.524 -1.675,-1.694 L 50.538,5.554 c -0.771,-0.391 -1.5,-0.633 -1.9,-0.633 -0.208,0 -0.354,0.065 -0.432,0.196 -0.235,0.402 0.207,1.225 0.506,1.649 0.07,0.099 0.179,0.289 0.105,0.438 -0.067,0.137 -0.278,0.228 -0.605,0.243 -0.649,0 -1.499,-0.725 -1.893,-1.615 L 44.223,1.091 C 43.929,0.418 43.358,0 42.737,0 c -0.439,0 -0.855,0.213 -1.17,0.601 -1.69,2.077 -1.919,4.42 -2.01,6.642 -0.029,0.711 0.081,0.92 0.179,1.022 0.067,0.07 0.155,0.108 0.248,0.108 0.256,0 0.462,-0.257 0.713,-0.889 l 1.22,-3.07 c 0.152,-0.382 0.356,-0.62 0.532,-0.62 0.174,0 0.382,0.23 0.543,0.602 l 0.699,1.605 C 43.989,6.687 44.151,7.204 44.216,7.5 44.053,7.375 43.821,7.161 43.561,6.85 43.185,6.4 42.675,5.865 42.39,5.865 l -0.093,0.007 -0.06,0.037 c -0.083,0.051 -0.333,0.205 0.023,1.356 0.125,0.402 -0.253,1.402 -0.996,2.193 l -0.83,0.878 c -1.586,1.674 -3.084,3.255 -4.304,5.042 -1.256,1.841 -2.212,3.843 -3.224,5.962 l -0.495,1.033 c -0.324,0.671 -0.225,1.079 -0.084,1.302 0.236,0.375 0.757,0.492 1.418,0.311 z M 51.721,6.628 c 0.95,0.481 1.413,0.992 1.451,1.07 C 53.17,7.7 53.159,7.708 53.15,7.715 53.072,7.604 52.622,7.17 51.72,6.713 L 50.315,5.832 Z m -2.384,0.48 C 49.353,6.844 49.283,6.536 49.124,6.31 49.297,6.555 49.37,6.854 49.337,7.108 Z M 44.149,5.804 43.45,4.198 C 43.109,3.413 42.676,3.296 42.448,3.296 c -0.233,0 -0.673,0.122 -0.997,0.936 l -1.22,3.07 C 40.163,7.473 40.106,7.595 40.059,7.683 40.056,7.634 40.053,7.575 40.052,7.505 c 0,0.069 0.003,0.128 0.007,0.177 0.047,-0.087 0.104,-0.21 0.172,-0.381 l 1.22,-3.07 c 0.324,-0.814 0.763,-0.935 0.997,-0.935 0.228,0 0.661,0.117 1.002,0.902 l 0.699,1.606 c 0.223,0.511 0.369,0.906 0.46,1.211 -0.091,-0.305 -0.237,-0.7 -0.46,-1.211 z M 36.163,19.72 c 0.208,0.273 0.531,0.381 0.861,0.291 0.474,-0.129 1.064,0.395 1.284,1.119 0.218,0.719 0.646,0.796 0.821,0.796 0.097,0 0.193,-0.02 0.289,-0.06 -0.096,0.039 -0.192,0.06 -0.289,0.06 -0.174,0 -0.603,-0.078 -0.821,-0.796 -0.22,-0.725 -0.811,-1.249 -1.284,-1.119 -0.331,0.09 -0.653,-0.018 -0.861,-0.291 -0.141,-0.184 -0.226,-0.433 -0.252,-0.72 0.026,0.287 0.111,0.535 0.252,0.72 z"
           id="path6"
           style="fill:#a05a2c" />
        <path
           inkscape:connector-curvature="0"
           d="m 72.175,39.174 c -1.054,-1.216 -2.144,-2.473 -3.115,-3.772 -1.991,-2.66 -2.312,-5.928 -0.835,-8.529 1.669,-2.94 0.231,-4.318 -1.384,-5.479 -1.536,-1.104 -3.107,-2.097 -4.628,-3.058 l -0.096,-0.061 c -0.652,-0.412 -1.139,-0.426 -1.339,-0.093 -0.15,0.248 -0.093,0.632 0.172,1.141 l 0.26,0.498 c 0.938,1.788 1.905,3.636 2.144,5.567 0.742,6.022 2.914,11.229 6.641,15.919 0.999,1.256 1.801,2.415 2.454,3.543 0.521,0.9 1.009,1.858 1.06,2.774 0.098,1.765 0.076,3.569 0.057,5.313 -0.01,0.873 -0.021,1.744 -0.018,2.614 0.004,1.06 -0.175,1.778 -0.532,2.138 -0.4,0.402 -1.075,0.394 -2.031,-0.008 C 70.01,57.271 69.078,56.777 68.204,56.304 68.058,56.226 66.892,55.603 66.377,55.482 66.17,55.086 65.532,54.421 65.056,54 c -1.181,-1.048 -2.063,-1.494 -2.955,-1.494 -0.518,0 -1.051,0.158 -1.628,0.483 -0.879,0.491 -2.011,0.407 -2.713,-0.218 -2.549,-2.26 -5.734,-3.406 -8.815,-4.517 -1.491,-0.538 -3.033,-1.093 -4.484,-1.768 -1.425,-0.663 -2.779,-2.404 -4.139,-5.322 -0.54,-1.159 -0.653,-2.508 -0.785,-4.07 l -0.025,-0.292 c -0.066,-0.778 -0.187,-1.054 -0.459,-1.054 -0.275,0 -0.393,0.277 -0.449,1.06 -0.642,9.029 2.577,13.265 11.877,15.63 0.662,0.168 1.294,0.433 1.827,0.668 l 0.882,0.391 c 0.405,0.182 0.632,0.281 0.77,0.34 -0.016,0.006 -0.032,0.012 -0.031,0.016 0.054,0.229 0.222,0.889 0.405,1.858 l 0.601,3.088 c 0.117,0.63 0.044,1.001 -0.062,1.13 -0.076,0.094 -0.104,0.08 -0.258,-0.002 -0.137,-0.074 -0.276,-0.111 -0.418,-0.111 -0.619,0 -1.095,0.695 -1.185,1.729 l -0.885,10.233 c -0.058,0.669 -0.13,2.234 0.45,2.328 l 0.055,0.005 c 0.562,0 0.874,-1.479 0.982,-2.113 l 1.079,-6.315 c 0.146,-0.856 0.354,-1.433 0.485,-1.681 0.101,0.248 0.231,0.804 0.278,1.631 l 0.319,5.616 c 0.052,0.926 0.359,1.12 0.608,1.12 0.302,0 0.554,-0.306 0.75,-0.907 1.201,-3.671 0.756,-7.473 0.325,-11.148 l -0.047,-0.408 c -0.203,-1.738 -0.493,-3.561 -1.589,-5.038 -0.08,-0.108 -0.17,-0.21 -0.259,-0.313 -0.005,-0.002 -0.009,-0.004 -0.015,-0.007 -0.146,-0.169 -0.293,-0.33 -0.444,-0.474 -0.548,-0.247 -0.915,-0.41 -0.905,-0.403 -0.01,-0.007 0.36,0.156 0.909,0.403 0.153,0.146 0.307,0.309 0.455,0.48 0.104,0.049 0.214,0.098 0.327,0.149 1.083,0.496 2.146,0.976 3.26,1.381 l 0.124,0.044 c 1.897,0.688 3.537,1.282 4.618,3.393 0.88,1.718 2.163,2.588 3.813,2.588 0.386,0 0.795,-0.049 1.215,-0.147 0.412,-0.097 0.957,-0.271 0.942,-0.669 -0.011,-0.312 -0.368,-0.521 -1.09,-0.639 -2.015,-0.323 -3.483,-1.372 -4.489,-3.208 -0.239,-0.437 -0.285,-0.88 -0.121,-1.156 0.098,-0.164 0.248,-0.229 0.5,-0.25 0.213,0.009 0.419,0.015 0.607,0.015 0.335,0 0.56,-0.013 0.717,-0.031 0.078,0.182 0.22,0.373 0.361,0.535 0.151,0.176 0.303,0.354 0.443,0.539 1.283,1.68 3.067,2.645 4.896,2.645 0.815,0 1.614,-0.186 2.375,-0.553 2.535,-1.226 2.441,-4.246 2.079,-6.74 -0.077,-0.528 -0.025,-1.076 0.034,-1.542 0.069,-0.535 0.164,-0.935 0.242,-1.177 0.124,0.275 0.304,0.764 0.484,1.447 0.171,0.646 0.345,0.91 0.6,0.91 0.386,0 0.441,-0.566 0.446,-1.123 0.015,-1.791 -0.107,-4.076 -1.183,-5.852 -1.288,-2.135 -2.966,-4.069 -4.588,-5.939 z M 52.433,52.65 c -0.552,-0.243 -1.17,-0.518 -1.868,-0.693 -8.91,-2.268 -11.968,-6.092 -11.521,-14.504 0.004,0.051 0.01,0.1 0.015,0.151 -0.401,8.304 2.69,12.1 11.544,14.353 0.697,0.177 1.354,0.45 1.905,0.693 l 0.768,0.408 z m 1.778,1.051 c 0.011,0.029 0.031,0.12 0.064,0.275 0.075,0.352 0.199,0.976 0.335,1.689 -0.136,-0.715 -0.326,-1.339 -0.401,-1.689 -0.039,-0.182 -0.032,-0.295 -0.039,-0.3 -0.001,-0.001 0.022,0.013 0.041,0.025 z m 6.505,-0.275 c -0.396,0.223 -0.839,0.348 -1.279,0.374 0.44,-0.029 0.881,-0.152 1.279,-0.374 0.509,-0.285 0.948,-0.419 1.384,-0.419 v 0 c -0.436,0 -0.874,0.134 -1.384,0.419 z m 3.016,2.608 c -0.258,0.437 -0.215,1.053 0.113,1.651 1.085,1.979 2.671,3.111 4.849,3.461 0.318,0.052 0.503,0.115 0.601,0.162 -0.078,0.043 -0.224,0.104 -0.487,0.166 -0.493,0.115 -0.958,0.155 -1.395,0.121 0.434,0.032 0.896,-0.008 1.384,-0.121 0.265,-0.062 0.415,-0.123 0.493,-0.166 -0.097,-0.047 -0.28,-0.11 -0.598,-0.162 -2.177,-0.35 -3.762,-1.48 -4.847,-3.461 -0.328,-0.598 -0.37,-1.214 -0.113,-1.651 0.187,-0.315 0.513,-0.496 0.896,-0.496 v 0 c -0.382,0 -0.709,0.181 -0.896,0.496 z M 61.946,18.759 61.849,18.698 c -0.183,-0.115 -0.319,-0.179 -0.418,-0.214 0.099,0.035 0.235,0.098 0.418,0.213 l 0.097,0.062 c 1.514,0.956 3.079,1.945 4.604,3.041 1.173,0.842 1.889,1.593 1.933,2.615 C 68.439,23.393 67.723,22.641 66.55,21.8 65.024,20.705 63.459,19.716 61.946,18.759 Z M 66.15,55.836 65.98,55.79 v -0.026 c 1,0.112 1.186,0.396 1.868,0.764 0.92,0.496 1.961,0.982 2.92,1.386 -0.959,-0.403 -2.061,-0.89 -2.979,-1.386 -0.567,-0.307 -1.004,-0.553 -1.639,-0.692 z m 1.039,0.959 c -0.148,-0.193 -0.306,-0.382 -0.464,-0.564 -0.042,-0.049 -0.08,-0.096 -0.112,-0.14 v 0 c 0.032,0.044 0.069,0.089 0.111,0.138 0.159,0.185 0.315,0.371 0.464,0.564 1.188,1.557 2.827,2.447 4.499,2.447 0.739,0 1.466,-0.169 2.158,-0.503 1.668,-0.806 2.049,-2.505 1.984,-4.343 0.066,1.843 -0.312,3.543 -1.984,4.351 -0.691,0.334 -1.417,0.499 -2.158,0.499 -1.67,0 -3.311,-0.892 -4.498,-2.449 z m 8.741,-5.922 c -0.071,0.545 -0.111,1.086 -0.035,1.611 0.369,2.529 0.418,5.339 -1.94,6.478 -0.604,0.292 -1.229,0.459 -1.857,0.511 0.622,-0.054 1.243,-0.222 1.843,-0.511 2.357,-1.139 2.315,-3.948 1.946,-6.478 -0.075,-0.524 -0.032,-1.065 0.039,-1.611 0.114,-0.885 0.331,-1.602 0.473,-1.604 H 76.4 c -0.143,0.006 -0.358,0.721 -0.47,1.604 z m 1.519,0.088 c 0.013,-1.725 -0.101,-3.919 -1.11,-5.586 -1.271,-2.098 -2.933,-4.017 -4.541,-5.872 -1.06,-1.222 -2.155,-2.487 -3.139,-3.8 -1.32,-1.763 -1.945,-3.783 -1.844,-5.728 -0.102,1.945 0.523,3.964 1.844,5.727 0.983,1.313 2.079,2.577 3.139,3.799 1.607,1.855 3.271,3.772 4.541,5.87 1.011,1.669 1.123,3.863 1.11,5.59 0,-10e-4 0,-10e-4 0,0 z m 0.071,0.874 c 0.104,-0.028 0.175,-0.319 0.179,-0.872 0.017,-2.064 -0.18,-4.126 -1.146,-5.721 -2.118,-3.498 -5.219,-6.386 -7.692,-9.69 2.474,3.304 5.575,6.192 7.692,9.69 0.967,1.595 1.163,3.656 1.146,5.721 -0.005,0.553 -0.076,0.846 -0.179,0.872 z"
           id="path8"
           style="fill:#a05a2c" />
        <path
           inkscape:connector-curvature="0"
           d="m 47.246,24.95 c -0.465,0 -0.936,0.017 -1.406,0.035 -0.851,0.031 -1.729,0.052 -2.395,-0.003 -0.192,-0.016 -0.356,-0.024 -0.49,-0.024 -0.194,0 -0.598,0 -0.68,0.295 -0.079,0.283 0.201,0.515 0.744,0.845 l 0.214,0.129 c 1.203,0.728 2.339,1.415 2.907,2.409 0.936,1.637 2.003,2.399 3.36,2.399 0.561,0 1.172,-0.125 1.984,-0.406 0.618,-0.214 1.127,-0.708 1.363,-1.32 0.21,-0.546 0.179,-1.113 -0.088,-1.598 C 51.424,25.284 49.32,24.95 47.246,24.95 Z"
           id="path10-3"
           style="fill:#a05a2c" />
        <path
           inkscape:connector-curvature="0"
           d="m 55.626,11.538 2.607,1.873 c 0.715,0.514 1.619,1.125 1.862,1.125 l 0.105,-0.003 0.07,-0.061 c 0.167,-0.145 0.288,-0.25 -0.997,-1.829 -0.556,-0.682 -0.726,-1.771 -0.373,-2.379 0.255,-0.439 0.315,-0.798 0.177,-1.039 -0.054,-0.093 -0.187,-0.25 -0.475,-0.25 -0.123,0 -0.264,0.029 -0.417,0.087 -0.407,0.152 -0.868,0.251 -1.086,0.239 0.042,-0.236 0.252,-0.831 0.72,-1.666 l 2.146,-3.833 c 0.498,-0.889 0.931,-1.424 1.084,-1.584 0.1,0.215 0.251,0.797 0.316,1.702 l 0.198,2.749 c 0.069,0.973 0.434,1.118 0.645,1.118 0.22,0 0.525,-0.161 0.737,-0.927 0.616,-2.227 0.229,-4.323 -1.119,-6.063 -0.317,-0.41 -0.758,-0.635 -1.241,-0.635 -0.626,0 -1.232,0.382 -1.584,0.996 l -4.083,7.149 c -0.605,1.065 -0.289,2.515 0.708,3.231 z"
           id="path12"
           style="fill:#a05a2c" />
        <path
           inkscape:connector-curvature="0"
           d="m 68.263,50.044 c 0.627,0.261 1.188,1.087 1.223,1.806 0.037,0.73 0.431,0.787 0.551,0.787 0.355,0 0.666,-0.387 0.853,-1.062 0.437,-1.583 -0.055,-2.942 -1.641,-4.546 -0.337,-0.341 -0.732,-0.521 -1.144,-0.521 -0.628,0 -1.197,0.433 -1.491,1.143 -0.583,1.408 -1.134,2.738 -1.195,4.107 -0.029,0.676 0.536,1.334 1.153,1.943 1.328,1.314 1.585,1.314 1.669,1.314 l 0.171,-0.014 0.072,-0.125 c 0.047,-0.082 0.17,-0.298 -0.674,-2.249 l -0.503,-1.159 c -0.4,-0.922 -0.502,-1.566 -0.476,-1.759 0.021,-0.003 0.051,-0.006 0.093,-0.006 0.314,0.002 0.851,0.139 1.339,0.341 z"
           id="path14"
           style="fill:#a05a2c" />
        <path
           inkscape:connector-curvature="0"
           d="M 65.903,42.787 62.054,40.15 c -0.555,-0.379 -1.12,-0.615 -1.478,-0.615 -0.233,0 -0.347,0.1 -0.4,0.184 -0.042,0.066 -0.1,0.208 -0.006,0.412 0.155,0.339 0.405,0.544 0.629,0.7 2.11,1.471 3.896,3.28 2.691,6.524 -0.171,0.461 -0.138,0.978 -0.034,1.609 0.107,0.655 0.438,0.753 0.626,0.753 0.426,0 0.798,-0.512 1.036,-0.94 l 1.542,-2.783 c 0.596,-1.075 0.257,-2.514 -0.757,-3.207 z"
           id="path16"
           style="fill:#a05a2c" />
      </g>
    </g>
    <g
       transform="matrix(0.17463689,0,0,0.17463689,6.6603253,273.88993)"
       id="g22" />
    <g
       transform="matrix(0.17463689,0,0,0.17463689,6.6603253,273.88993)"
       id="g24" />
    <g
       transform="matrix(0.17463689,0,0,0.17463689,6.6603253,273.88993)"
       id="g26" />
    <g
       transform="matrix(0.17463689,0,0,0.17463689,6.6603253,273.88993)"
       id="g28" />
    <g
       transform="matrix(0.17463689,0,0,0.17463689,6.6603253,273.88993)"
       id="g30" />
    <g
       transform="matrix(0.17463689,0,0,0.17463689,6.6603253,273.88993)"
       id="g32" />
    <g
       transform="matrix(0.17463689,0,0,0.17463689,6.6603253,273.88993)"
       id="g34" />
    <g
       transform="matrix(0.17463689,0,0,0.17463689,6.6603253,273.88993)"
       id="g36" />
    <g
       transform="matrix(0.17463689,0,0,0.17463689,6.6603253,273.88993)"
       id="g38" />
    <g
       transform="matrix(0.17463689,0,0,0.17463689,6.6603253,273.88993)"
       id="g40" />
    <g
       transform="matrix(0.17463689,0,0,0.17463689,6.6603253,273.88993)"
       id="g42" />
    <g
       transform="matrix(0.17463689,0,0,0.17463689,6.6603253,273.88993)"
       id="g44" />
    <g
       transform="matrix(0.17463689,0,0,0.17463689,6.6603253,273.88993)"
       id="g46" />
    <g
       transform="matrix(0.17463689,0,0,0.17463689,6.6603253,273.88993)"
       id="g48" />
    <g
       transform="matrix(0.17463689,0,0,0.17463689,6.6603253,273.88993)"
       id="g50" />
    <g
       aria-label="0"
       style="font-style:normal;font-variant:normal;font-weight:normal;font-stretch:normal;font-size:2.59619236px;line-height:3.02889132px;font-family:'GOST type B';-inkscape-font-specification:'GOST type B';text-align:start;letter-spacing:0px;word-spacing:0px;text-anchor:start;fill:#000000;fill-opacity:1;stroke:none;stroke-width:0.16226202"
       id="text123">
      <path
         d="m 26.347681,282.27631 q 0,0.15845 -0.11409,0.27508 -0.112823,0.11536 -0.276353,0.11536 h -0.106484 q -0.158459,0 -0.275085,-0.11282 -0.115358,-0.11283 -0.115358,-0.27762 v -0.99386 q 0,-0.15592 0.11409,-0.27255 0.114091,-0.11789 0.276353,-0.11789 h 0.106484 q 0.158459,0 0.273818,0.11409 0.116625,0.11282 0.116625,0.27635 z m -0.177474,0 v -0.99386 q 0,-0.0875 -0.06212,-0.14959 -0.06085,-0.0634 -0.150853,-0.0634 h -0.106484 q -0.08747,0 -0.150853,0.0621 -0.06212,0.0621 -0.06212,0.15085 v 0.99386 q 0,0.0875 0.06212,0.15085 0.06212,0.0621 0.150853,0.0621 h 0.106484 q 0.0862,0 0.149586,-0.0608 0.06338,-0.0609 0.06338,-0.15212 z"
         style="stroke-width:0.16226202"
         id="path1858" />
    </g>
    <g
       aria-label="π"
       style="font-style:normal;font-variant:normal;font-weight:normal;font-stretch:normal;font-size:2.59619236px;line-height:3.02889132px;font-family:'GOST type B';-inkscape-font-specification:'GOST type B';text-align:start;letter-spacing:0px;word-spacing:0px;text-anchor:start;fill:#000000;fill-opacity:1;stroke:none;stroke-width:0.16226202"
       id="text127">
      <path
         d="m 3.6523185,281.05933 h 1.3602121 v 0.23325 H 4.8337889 v 0.87216 q 0,0.0913 0.030424,0.13184 0.031692,0.0393 0.1014138,0.0393 0.019015,0 0.046904,-0.003 0.027889,-0.004 0.036763,-0.005 v 0.1686 q -0.044369,0.0165 -0.091272,0.0241 -0.046904,0.008 -0.093808,0.008 -0.1521207,0 -0.2104336,-0.0824 -0.058313,-0.0837 -0.058313,-0.30678 v -0.84681 H 4.071918 v 1.18655 H 3.8335956 v -1.18655 H 3.6523185 Z"
         style="stroke-width:0.16226202"
         id="path1861" />
    </g>
    <g
       id="g173"
       transform="matrix(0.8354745,0,0,0.8354745,19.039316,34.823397)">
      <g
         aria-label="π"
         style="font-style:normal;font-variant:normal;font-weight:normal;font-stretch:normal;font-size:3.10744667px;line-height:3.62535453px;font-family:'GOST type B';-inkscape-font-specification:'GOST type B';text-align:start;letter-spacing:0px;word-spacing:0px;text-anchor:start;fill:#000000;fill-opacity:1;stroke:none;stroke-width:0.19421542"
         id="text147">
        <path
           d="m -5.5892082,278.49635 h 1.6280714 v 0.27919 h -0.2139404 v 1.04391 q 0,0.10924 0.036415,0.1578 0.037933,0.047 0.1213846,0.047 0.02276,0 0.05614,-0.003 0.033381,-0.005 0.044002,-0.006 v 0.2018 q -0.053106,0.0197 -0.1092462,0.0288 -0.05614,0.009 -0.1122808,0.009 -0.1820769,0 -0.2518731,-0.0986 -0.069796,-0.10014 -0.069796,-0.36719 v -1.01356 h -0.6266482 v 1.4202 h -0.2852538 v -1.4202 h -0.2169751 z"
           style="stroke-width:0.19421542"
           id="path1864" />
      </g>
      <path
         style="fill:none;stroke:#000000;stroke-width:0.19421542px;stroke-linecap:butt;stroke-linejoin:miter;stroke-opacity:1"
         d="m -6.1671064,280.70717 h 2.827869"
         id="path149"
         inkscape:connector-curvature="0" />
      <g
         aria-label="2"
         style="font-style:normal;font-variant:normal;font-weight:normal;font-stretch:normal;font-size:3.10744667px;line-height:3.62535453px;font-family:'GOST type B';-inkscape-font-specification:'GOST type B';text-align:start;letter-spacing:0px;word-spacing:0px;text-anchor:start;fill:#000000;fill-opacity:1;stroke:none;stroke-width:0.19421542"
         id="text153">
        <path
           d="m -4.1592059,282.22863 -0.6858232,1.09398 h 0.6585116 q 0.044002,0 0.074348,0.0334 0.031864,0.0319 0.031864,0.0728 0,0.0364 -0.027311,0.0713 -0.025794,0.0349 -0.0789,0.0349 h -0.8496924 q -0.1153154,0 -0.1153154,-0.085 0,-0.0334 0.025794,-0.0789 l 0.7844482,-1.25026 q 0.03945,-0.0835 0.03945,-0.15931 0,-0.13656 -0.1062115,-0.2367 -0.050071,-0.047 -0.1168327,-0.0744 -0.066762,-0.0273 -0.1441443,-0.0273 -0.080417,0 -0.1547654,0.0425 -0.074348,0.047 -0.1229019,0.12139 -0.012138,0.0197 -0.040967,0.0379 l -0.047037,0.0106 q -0.040967,0 -0.075865,-0.0288 -0.033381,-0.0303 -0.033381,-0.0744 0,-0.0212 0.018208,-0.0607 0.072831,-0.1138 0.1972501,-0.18663 0.060692,-0.0349 0.1229019,-0.0546 0.06221,-0.0197 0.1213846,-0.0197 0.2488385,0 0.4202943,0.16539 0.1729731,0.16387 0.1729731,0.39147 0,0.13048 -0.068279,0.26097 z"
           style="stroke-width:0.19421542"
           id="path1867" />
      </g>
    </g>
    <g
       id="g166"
       transform="matrix(0.8354745,0,0,0.8354745,22.086745,53.963981)">
      <g
         aria-label="π"
         style="font-style:normal;font-variant:normal;font-weight:normal;font-stretch:normal;font-size:3.10744667px;line-height:3.62535453px;font-family:'GOST type B';-inkscape-font-specification:'GOST type B';text-align:start;letter-spacing:0px;word-spacing:0px;text-anchor:start;fill:#000000;fill-opacity:1;stroke:none;stroke-width:0.19421542"
         id="text137">
        <path
           d="m -8.4170771,285.22063 h 1.6280714 v 0.27918 h -0.2139404 v 1.04391 q 0,0.10925 0.036415,0.1578 0.037933,0.047 0.1213846,0.047 0.02276,0 0.05614,-0.003 0.033381,-0.005 0.044002,-0.006 v 0.20181 q -0.053106,0.0197 -0.1092461,0.0288 -0.05614,0.009 -0.1122808,0.009 -0.182077,0 -0.2518731,-0.0986 -0.069796,-0.10014 -0.069796,-0.36719 v -1.01356 h -0.6266482 v 1.4202 h -0.2852539 v -1.4202 h -0.216975 z"
           style="stroke-width:0.19421542"
           id="path1870" />
      </g>
      <path
         sodipodi:nodetypes="cc"
         inkscape:connector-curvature="0"
         id="path139"
         d="m -10.142516,287.46947 h 3.9754097"
         style="fill:none;stroke:#000000;stroke-width:0.19421542px;stroke-linecap:butt;stroke-linejoin:miter;stroke-opacity:1" />
      <g
         aria-label="2"
         style="font-style:normal;font-variant:normal;font-weight:normal;font-stretch:normal;font-size:3.10744667px;line-height:3.62535453px;font-family:'GOST type B';-inkscape-font-specification:'GOST type B';text-align:start;letter-spacing:0px;word-spacing:0px;text-anchor:start;fill:#000000;fill-opacity:1;stroke:none;stroke-width:0.19421542"
         id="text143">
        <path
           d="m -7.698101,288.99093 -0.6858232,1.09398 h 0.6585116 q 0.044002,0 0.074348,0.0334 0.031864,0.0319 0.031864,0.0728 0,0.0364 -0.027312,0.0713 -0.025794,0.0349 -0.0789,0.0349 H -8.575105 q -0.1153154,0 -0.1153154,-0.085 0,-0.0334 0.025794,-0.0789 l 0.7844482,-1.25026 q 0.03945,-0.0834 0.03945,-0.15932 0,-0.13655 -0.1062115,-0.2367 -0.050071,-0.047 -0.1168328,-0.0743 -0.066762,-0.0273 -0.1441442,-0.0273 -0.080417,0 -0.1547654,0.0425 -0.074348,0.047 -0.122902,0.12138 -0.012138,0.0197 -0.040967,0.0379 l -0.047036,0.0106 q -0.040967,0 -0.075865,-0.0288 -0.033381,-0.0303 -0.033381,-0.0743 0,-0.0212 0.018208,-0.0607 0.072831,-0.1138 0.19725,-0.18663 0.060692,-0.0349 0.122902,-0.0546 0.06221,-0.0197 0.1213846,-0.0197 0.2488385,0 0.4202943,0.16539 0.1729731,0.16387 0.1729731,0.39146 0,0.13049 -0.068279,0.26098 z"
           style="stroke-width:0.19421542"
           id="path1873" />
      </g>
      <g
         aria-label="3"
         style="font-style:normal;font-variant:normal;font-weight:normal;font-stretch:normal;font-size:3.10744667px;line-height:3.62535453px;font-family:'GOST type B';-inkscape-font-specification:'GOST type B';text-align:start;letter-spacing:0px;word-spacing:0px;text-anchor:start;fill:#000000;fill-opacity:1;stroke:none;stroke-width:0.19421542"
         id="text157">
        <path
           d="m -9.4170674,285.06889 h -0.4248462 q -0.048554,0 -0.0789,-0.0303 -0.027312,-0.0319 -0.027312,-0.0759 0,-0.0379 0.027312,-0.0713 0.028829,-0.0349 0.0789,-0.0349 h 0.4248462 q 0.2488385,0 0.3975347,0.16236 0.1335231,0.15173 0.1335231,0.36567 0,0.12897 -0.051589,0.2367 -0.050071,0.10773 -0.1547654,0.19421 0.088004,0.0698 0.1471789,0.18208 0.059175,0.11076 0.059175,0.23822 v 0.21242 q 0,0.21698 -0.1562827,0.37478 -0.1562828,0.15628 -0.3747751,0.15628 h -0.4248462 q -0.048554,0 -0.0789,-0.0288 -0.027312,-0.0349 -0.027312,-0.0774 0,-0.0364 0.025794,-0.0713 0.027311,-0.0349 0.080417,-0.0349 h 0.4248462 q 0.1320058,0 0.2245616,-0.0926 0.094073,-0.0941 0.094073,-0.22608 v -0.21242 q 0,-0.13049 -0.092556,-0.22456 -0.091038,-0.0941 -0.2260789,-0.0941 h -0.2124231 q -0.048554,0 -0.0789,-0.0288 -0.027312,-0.0349 -0.027312,-0.0774 0,-0.0364 0.025794,-0.0713 0.027311,-0.0349 0.080417,-0.0349 h 0.2124231 q 0.1411096,0 0.2321481,-0.10166 0.077383,-0.091 0.077383,-0.22304 0,-0.12898 -0.074348,-0.21394 -0.084969,-0.0971 -0.2351827,-0.0971 z"
           style="stroke-width:0.19421542"
           id="path1876" />
      </g>
    </g>
    <g
       aria-label="да"
       transform="skewX(-15.803695)"
       style="font-style:normal;font-variant:normal;font-weight:normal;font-stretch:normal;font-size:3.53684187px;line-height:4.12631559px;font-family:'GOST type B';-inkscape-font-specification:'GOST type B';text-align:start;letter-spacing:0px;word-spacing:0px;text-anchor:start;fill:#008000;fill-opacity:1;stroke:none;stroke-width:0.22105262"
       id="text177">
      <path
         d="m 91.900196,274.07843 h -0.483552 q -0.101892,0 -0.172698,0.0691 -0.03454,0.0345 -0.05181,0.0795 -0.01727,0.0432 -0.01727,0.0933 v 0.72533 q 0,0.10189 0.06908,0.1727 0.03627,0.0311 0.07771,0.0518 0.05181,0.0173 0.09498,0.0173 h 0.241776 q 0.100164,0 0.17097,-0.0674 0.07081,-0.0673 0.07081,-0.17442 z m 0,-0.24178 v -0.24178 q 0,-0.10189 -0.06908,-0.17097 -0.06735,-0.0708 -0.172697,-0.0708 h -0.483553 q -0.05526,0 -0.0898,-0.0328 -0.03109,-0.0397 -0.03109,-0.0881 0,-0.0414 0.02936,-0.0812 0.03109,-0.0397 0.09153,-0.0397 h 0.483553 q 0.202056,0 0.341941,0.14161 0.141611,0.14161 0.141611,0.34194 v 1.45066 q 0,0.1986 -0.141611,0.34194 -0.141612,0.14161 -0.341941,0.14161 h -0.241776 q -0.195148,0 -0.340214,-0.13988 -0.143339,-0.13989 -0.143339,-0.34367 v -0.72533 q 0,-0.20033 0.141612,-0.34194 0.141612,-0.14161 0.341941,-0.14161 z"
         style="fill:#008000;stroke-width:0.22105262"
         id="path1879" />
      <path
         d="m 93.59263,275.04553 v -0.9671 h -0.483552 q -0.101892,0 -0.172698,0.0691 -0.03454,0.0345 -0.05181,0.0795 -0.01727,0.0432 -0.01727,0.0933 v 0.72533 q 0,0.10189 0.06908,0.1727 0.03627,0.0311 0.07771,0.0518 0.05181,0.0173 0.09498,0.0173 h 0.241776 q 0.100164,0 0.17097,-0.0674 0.07081,-0.0673 0.07081,-0.17442 z m 0.119161,0.32467 q -0.05872,0.0673 -0.160608,0.11398 -0.100165,0.0449 -0.200329,0.0449 h -0.241776 q -0.195148,0 -0.340214,-0.13988 -0.143339,-0.13989 -0.143339,-0.34367 v -0.72533 q 0,-0.20033 0.141612,-0.34194 0.141612,-0.14161 0.341941,-0.14161 h 0.60444 q 0.120889,0 0.120889,0.12089 v 1.08626 q 0,0.0725 0.04663,0.14852 0.04145,0.0674 0.120888,0.10535 0.07599,0.0311 0.07599,0.1088 0,0.0535 -0.03454,0.0881 -0.03108,0.0363 -0.08635,0.0363 -0.0259,0 -0.05008,-0.0121 -0.119161,-0.0466 -0.195148,-0.14852 z"
         style="fill:#008000;stroke-width:0.22105262"
         id="path1881" />
    </g>
    <g
       aria-label="да"
       transform="skewX(-15.803695)"
       style="font-style:normal;font-variant:normal;font-weight:normal;font-stretch:normal;font-size:3.53684187px;line-height:4.12631559px;font-family:'GOST type B';-inkscape-font-specification:'GOST type B';text-align:start;letter-spacing:0px;word-spacing:0px;text-anchor:start;fill:#008000;fill-opacity:1;stroke:none;stroke-width:0.22105262"
       id="text181">
      <path
         d="m 96.492672,288.97314 h -0.483553 q -0.101891,0 -0.172697,0.0691 -0.03454,0.0345 -0.05181,0.0794 -0.01727,0.0432 -0.01727,0.0933 v 0.72533 q 0,0.10189 0.06908,0.17269 0.03627,0.0311 0.07771,0.0518 0.05181,0.0173 0.09498,0.0173 h 0.241777 q 0.100164,0 0.17097,-0.0674 0.07081,-0.0673 0.07081,-0.17442 z m 0,-0.24178 v -0.24177 q 0,-0.10189 -0.06908,-0.17097 -0.06735,-0.0708 -0.172697,-0.0708 h -0.483553 q -0.05526,0 -0.0898,-0.0328 -0.03109,-0.0397 -0.03109,-0.0881 0,-0.0414 0.02936,-0.0812 0.03109,-0.0397 0.09153,-0.0397 h 0.483553 q 0.202056,0 0.341941,0.14162 0.141611,0.14161 0.141611,0.34194 v 1.45066 q 0,0.1986 -0.141611,0.34194 -0.141612,0.14161 -0.341941,0.14161 h -0.241777 q -0.195148,0 -0.340213,-0.13989 -0.143339,-0.13988 -0.143339,-0.34366 v -0.72533 q 0,-0.20033 0.141612,-0.34194 0.141612,-0.14162 0.34194,-0.14162 z"
         style="fill:#008000;stroke-width:0.22105262"
         id="path1884" />
      <path
         d="m 98.185106,289.94025 v -0.96711 h -0.483552 q -0.101892,0 -0.172698,0.0691 -0.03454,0.0345 -0.05181,0.0794 -0.01727,0.0432 -0.01727,0.0933 v 0.72533 q 0,0.10189 0.06908,0.17269 0.03627,0.0311 0.07771,0.0518 0.05181,0.0173 0.09498,0.0173 h 0.241776 q 0.100164,0 0.17097,-0.0674 0.07081,-0.0673 0.07081,-0.17442 z m 0.119161,0.32467 q -0.05872,0.0673 -0.160608,0.11398 -0.100165,0.0449 -0.200329,0.0449 h -0.241776 q -0.195148,0 -0.340214,-0.13989 -0.143339,-0.13988 -0.143339,-0.34366 v -0.72533 q 0,-0.20033 0.141612,-0.34194 0.141612,-0.14162 0.341941,-0.14162 h 0.60444 q 0.120888,0 0.120888,0.12089 v 1.08627 q 0,0.0725 0.04663,0.14852 0.04145,0.0673 0.120888,0.10534 0.07599,0.0311 0.07599,0.1088 0,0.0535 -0.03454,0.0881 -0.03109,0.0363 -0.08635,0.0363 -0.0259,0 -0.05008,-0.0121 -0.119161,-0.0466 -0.195148,-0.14852 z"
         style="fill:#008000;stroke-width:0.22105262"
         id="path1886" />
    </g>
    <g
       aria-label="нет"
       transform="matrix(0.88212857,0,-0.24967867,1.1336216,0,0)"
       style="font-style:normal;font-variant:normal;font-weight:normal;font-stretch:normal;font-size:3.11994934px;line-height:3.63994074px;font-family:'GOST type B';-inkscape-font-specification:'GOST type B';text-align:start;letter-spacing:0px;word-spacing:0px;text-anchor:start;fill:#ff0000;fill-opacity:1;stroke:none;stroke-width:0.19499683"
       id="text185">
      <path
         d="m 79.076406,248.48156 v -0.53319 q 0,-0.0427 0.03199,-0.0792 0.03199,-0.0274 0.07465,-0.0274 0.04113,0 0.07312,0.0274 0.03351,0.0259 0.03351,0.0792 v 1.27966 q 0,0.0503 -0.03047,0.0807 -0.02894,0.0259 -0.07617,0.0259 -0.04266,0 -0.07465,-0.0259 -0.03199,-0.0274 -0.03199,-0.0807 v -0.53319 h -0.639833 v 0.53319 q 0,0.0503 -0.03047,0.0807 -0.02894,0.0259 -0.07617,0.0259 -0.04265,0 -0.07465,-0.0259 -0.03199,-0.0274 -0.03199,-0.0807 v -1.27966 q 0,-0.0427 0.03199,-0.0792 0.03199,-0.0274 0.07465,-0.0274 0.04113,0 0.07312,0.0274 0.03351,0.0259 0.03351,0.0792 v 0.53319 z"
         style="fill:#ff0000;stroke-width:0.19499683"
         id="path1889" />
      <path
         d="m 79.929517,248.48156 h 0.639834 v -0.21328 q 0,-0.0899 -0.06094,-0.15082 -0.05941,-0.0625 -0.152341,-0.0625 h -0.213278 q -0.08988,0 -0.152341,0.0609 -0.03047,0.0305 -0.0457,0.0701 -0.01523,0.0381 -0.01523,0.0823 z m 0,0.21328 v 0.21328 q 0,0.0899 0.06094,0.15234 0.03199,0.0274 0.06855,0.0457 0.0457,0.0152 0.08379,0.0152 h 0.533195 q 0.04418,0 0.07465,0.0335 0.03199,0.032 0.03199,0.0731 0,0.0366 -0.02742,0.0716 -0.0259,0.035 -0.07922,0.035 h -0.533195 q -0.173669,0 -0.300112,-0.1234 -0.126443,-0.12492 -0.126443,-0.30315 v -0.63984 q 0,-0.17214 0.123396,-0.29859 0.123397,-0.12796 0.303159,-0.12796 h 0.213278 q 0.173669,0 0.300112,0.12492 0.126444,0.12339 0.126444,0.30163 v 0.31992 q 0,0.10664 -0.106639,0.10664 z"
         style="fill:#ff0000;stroke-width:0.19499683"
         id="path1891" />
      <path
         d="m 81.849018,248.055 h -0.426556 v 1.17303 q 0,0.0503 -0.03047,0.0807 -0.02894,0.0259 -0.07617,0.0259 -0.04266,0 -0.07465,-0.0259 -0.03199,-0.0274 -0.03199,-0.0807 v -1.27966 q 0,-0.10664 0.106639,-0.10664 h 0.95975 q 0.173669,0 0.300112,0.12492 0.126444,0.12339 0.126444,0.30163 v 0.95975 q 0,0.0503 -0.03047,0.0807 -0.02894,0.0259 -0.07617,0.0259 -0.04266,0 -0.07465,-0.0259 -0.03199,-0.0274 -0.03199,-0.0807 v -0.95975 q 0,-0.0899 -0.06094,-0.15082 -0.05941,-0.0625 -0.152341,-0.0625 h -0.213278 v 1.17303 q 0,0.0503 -0.03047,0.0807 -0.02895,0.0259 -0.07617,0.0259 -0.04266,0 -0.07465,-0.0259 -0.03199,-0.0274 -0.03199,-0.0807 z"
         style="fill:#ff0000;stroke-width:0.19499683"
         id="path1893" />
    </g>
    <g
       aria-label="нет"
       transform="matrix(0.88212857,0,-0.24967867,1.1336216,0,0)"
       style="font-style:normal;font-variant:normal;font-weight:normal;font-stretch:normal;font-size:3.11994934px;line-height:3.63994074px;font-family:'GOST type B';-inkscape-font-specification:'GOST type B';text-align:start;letter-spacing:0px;word-spacing:0px;text-anchor:start;fill:#ff0000;fill-opacity:1;stroke:none;stroke-width:0.19499683"
       id="text193">
      <path
         d="m 93.5548,248.48154 v -0.53319 q 0,-0.0427 0.03199,-0.0792 0.03199,-0.0274 0.07465,-0.0274 0.04113,0 0.07312,0.0274 0.03352,0.0259 0.03352,0.0792 v 1.27967 q 0,0.0503 -0.03047,0.0807 -0.02894,0.0259 -0.07617,0.0259 -0.04266,0 -0.07465,-0.0259 -0.03199,-0.0274 -0.03199,-0.0807 v -0.5332 h -0.639833 v 0.5332 q 0,0.0503 -0.03047,0.0807 -0.02894,0.0259 -0.07617,0.0259 -0.04266,0 -0.07465,-0.0259 -0.03199,-0.0274 -0.03199,-0.0807 v -1.27967 q 0,-0.0427 0.03199,-0.0792 0.03199,-0.0274 0.07465,-0.0274 0.04113,0 0.07312,0.0274 0.03352,0.0259 0.03352,0.0792 v 0.53319 z"
         style="fill:#ff0000;stroke-width:0.19499683"
         id="path1896" />
      <path
         d="m 94.407911,248.48154 h 0.639833 v -0.21327 q 0,-0.0899 -0.06094,-0.15082 -0.05941,-0.0625 -0.152341,-0.0625 h -0.213278 q -0.08988,0 -0.152341,0.0609 -0.03047,0.0305 -0.0457,0.0701 -0.01523,0.0381 -0.01523,0.0823 z m 0,0.21328 v 0.21328 q 0,0.0899 0.06094,0.15234 0.03199,0.0274 0.06855,0.0457 0.0457,0.0152 0.08379,0.0152 h 0.533194 q 0.04418,0 0.07465,0.0335 0.03199,0.032 0.03199,0.0731 0,0.0366 -0.02742,0.0716 -0.0259,0.035 -0.07922,0.035 h -0.533194 q -0.173669,0 -0.300113,-0.1234 -0.126443,-0.12492 -0.126443,-0.30316 v -0.63983 q 0,-0.17215 0.123397,-0.29859 0.123396,-0.12797 0.303159,-0.12797 h 0.213278 q 0.173669,0 0.300112,0.12492 0.126443,0.1234 0.126443,0.30164 v 0.31991 q 0,0.10664 -0.106639,0.10664 z"
         style="fill:#ff0000;stroke-width:0.19499683"
         id="path1898" />
      <path
         d="m 96.327411,248.05499 h -0.426556 v 1.17303 q 0,0.0503 -0.03047,0.0807 -0.02894,0.0259 -0.07617,0.0259 -0.04266,0 -0.07465,-0.0259 -0.03199,-0.0274 -0.03199,-0.0807 v -1.27967 q 0,-0.10664 0.106639,-0.10664 h 0.95975 q 0.173669,0 0.300112,0.12492 0.126443,0.1234 0.126443,0.30164 v 0.95975 q 0,0.0503 -0.03047,0.0807 -0.02894,0.0259 -0.07617,0.0259 -0.04265,0 -0.07465,-0.0259 -0.03199,-0.0274 -0.03199,-0.0807 v -0.95975 q 0,-0.0899 -0.06094,-0.15082 -0.05941,-0.0625 -0.152341,-0.0625 h -0.213278 v 1.17303 q 0,0.0503 -0.03047,0.0807 -0.02895,0.0259 -0.07617,0.0259 -0.04266,0 -0.07465,-0.0259 -0.03199,-0.0274 -0.03199,-0.0807 z"
         style="fill:#ff0000;stroke-width:0.19499683"
         id="path1900" />
    </g>
  </g>
</svg>
