<?xml version="1.0" encoding="UTF-8" standalone="no"?>
<!-- Created with Inkscape (http://www.inkscape.org/) -->

<svg
   xmlns:dc="http://purl.org/dc/elements/1.1/"
   xmlns:cc="http://creativecommons.org/ns#"
   xmlns:rdf="http://www.w3.org/1999/02/22-rdf-syntax-ns#"
   xmlns:svg="http://www.w3.org/2000/svg"
   xmlns="http://www.w3.org/2000/svg"
   xmlns:sodipodi="http://sodipodi.sourceforge.net/DTD/sodipodi-0.dtd"
   xmlns:inkscape="http://www.inkscape.org/namespaces/inkscape"
   width="50mm"
   height="50mm"
   viewBox="0 0 50 50"
   version="1.1"
   id="svg8"
   inkscape:version="0.92.4 (5da689c313, 2019-01-14)"
   sodipodi:docname="11-08.svg">
  <defs
     id="defs2">
    <marker
       inkscape:stockid="Arrow2Mend"
       orient="auto"
       refY="0"
       refX="0"
       id="marker964"
       style="overflow:visible"
       inkscape:isstock="true">
      <path
         inkscape:connector-curvature="0"
         id="path962"
         style="fill:#000000;fill-opacity:1;fill-rule:evenodd;stroke:#000000;stroke-width:0.625;stroke-linejoin:round;stroke-opacity:1"
         d="M 8.7185878,4.0337352 -2.2072895,0.01601326 8.7185884,-4.0017078 c -1.7454984,2.3720609 -1.7354408,5.6174519 -6e-7,8.035443 z"
         transform="scale(-0.6)" />
    </marker>
    <marker
       inkscape:isstock="true"
       style="overflow:visible"
       id="marker892"
       refX="0"
       refY="0"
       orient="auto"
       inkscape:stockid="Arrow2Mend">
      <path
         inkscape:connector-curvature="0"
         transform="scale(-0.6)"
         d="M 8.7185878,4.0337352 -2.2072895,0.01601326 8.7185884,-4.0017078 c -1.7454984,2.3720609 -1.7354408,5.6174519 -6e-7,8.035443 z"
         style="fill:#ff0000;fill-opacity:1;fill-rule:evenodd;stroke:#ff0000;stroke-width:0.625;stroke-linejoin:round;stroke-opacity:1"
         id="path890" />
    </marker>
    <marker
       inkscape:stockid="Arrow2Mstart"
       orient="auto"
       refY="0"
       refX="0"
       id="Arrow2Mstart"
       style="overflow:visible"
       inkscape:isstock="true">
      <path
         id="path855"
         style="fill:#ff0000;fill-opacity:0.8;fill-rule:evenodd;stroke:#ff0000;stroke-width:0.625;stroke-linejoin:round;stroke-opacity:0.8"
         d="M 8.7185878,4.0337352 -2.2072895,0.01601326 8.7185884,-4.0017078 c -1.7454984,2.3720609 -1.7354408,5.6174519 -6e-7,8.035443 z"
         transform="scale(0.6)"
         inkscape:connector-curvature="0" />
    </marker>
    <marker
       inkscape:stockid="Arrow1Mend"
       orient="auto"
       refY="0"
       refX="0"
       id="Arrow1Mend"
       style="overflow:visible"
       inkscape:isstock="true">
      <path
         id="path840"
         d="M 0,0 5,-5 -12.5,0 5,5 Z"
         style="fill:#000000;fill-opacity:1;fill-rule:evenodd;stroke:#000000;stroke-width:1.00000003pt;stroke-opacity:1"
         transform="matrix(-0.4,0,0,-0.4,-4,0)"
         inkscape:connector-curvature="0" />
    </marker>
    <marker
       inkscape:isstock="true"
       style="overflow:visible"
       id="marker1161"
       refX="0"
       refY="0"
       orient="auto"
       inkscape:stockid="Arrow2Mend"
       inkscape:collect="always">
      <path
         transform="scale(-0.6)"
         d="M 8.7185878,4.0337352 -2.2072895,0.01601326 8.7185884,-4.0017078 c -1.7454984,2.3720609 -1.7354408,5.6174519 -6e-7,8.035443 z"
         style="fill:#000000;fill-opacity:1;fill-rule:evenodd;stroke:#000000;stroke-width:0.625;stroke-linejoin:round;stroke-opacity:1"
         id="path1159"
         inkscape:connector-curvature="0" />
    </marker>
    <marker
       inkscape:stockid="Arrow2Mend"
       orient="auto"
       refY="0"
       refX="0"
       id="Arrow2Mend"
       style="overflow:visible"
       inkscape:isstock="true"
       inkscape:collect="always">
      <path
         id="path858"
         style="fill:#000000;fill-opacity:1;fill-rule:evenodd;stroke:#000000;stroke-width:0.625;stroke-linejoin:round;stroke-opacity:1"
         d="M 8.7185878,4.0337352 -2.2072895,0.01601326 8.7185884,-4.0017078 c -1.7454984,2.3720609 -1.7354408,5.6174519 -6e-7,8.035443 z"
         transform="scale(-0.6)"
         inkscape:connector-curvature="0" />
    </marker>
    <marker
       inkscape:stockid="Arrow2Lend"
       orient="auto"
       refY="0"
       refX="0"
       id="Arrow2Lend"
       style="overflow:visible"
       inkscape:isstock="true">
      <path
         id="path852"
         style="fill:#ff0000;fill-opacity:0.8;fill-rule:evenodd;stroke:#ff0000;stroke-width:0.625;stroke-linejoin:round;stroke-opacity:0.8"
         d="M 8.7185878,4.0337352 -2.2072895,0.01601326 8.7185884,-4.0017078 c -1.7454984,2.3720609 -1.7354408,5.6174519 -6e-7,8.035443 z"
         transform="matrix(-1.1,0,0,-1.1,-1.1,0)"
         inkscape:connector-curvature="0" />
    </marker>
  </defs>
  <sodipodi:namedview
     id="base"
     pagecolor="#ffffff"
     bordercolor="#666666"
     borderopacity="1.0"
     inkscape:pageopacity="0.0"
     inkscape:pageshadow="2"
     inkscape:zoom="3.8735"
     inkscape:cx="94.488189"
     inkscape:cy="94.488189"
     inkscape:document-units="mm"
     inkscape:current-layer="layer1"
     showgrid="false"
     inkscape:window-width="1920"
     inkscape:window-height="1009"
     inkscape:window-x="0"
     inkscape:window-y="0"
     inkscape:window-maximized="1"
     inkscape:snap-global="false" />
  <metadata
     id="metadata5">
    <rdf:RDF>
      <cc:Work
         rdf:about="">
        <dc:format>image/svg+xml</dc:format>
        <dc:type
           rdf:resource="http://purl.org/dc/dcmitype/StillImage" />
        <dc:title></dc:title>
      </cc:Work>
    </rdf:RDF>
  </metadata>
  <g
     inkscape:label="Layer 1"
     inkscape:groupmode="layer"
     id="layer1"
     transform="translate(0,-247)">
    <path
       style="fill:none;stroke:#ff0000;stroke-width:0.17638889;stroke-linecap:butt;stroke-linejoin:miter;stroke-opacity:1"
       d="m 24.484666,272.83857 c 0,0 -0.433216,1.15914 -0.867266,1.57052 -0.441999,0.41891 -1.644316,0.79616 -1.644316,0.79616"
       id="path159"
       inkscape:connector-curvature="0"
       sodipodi:nodetypes="csc" />
    <path
       style="fill:none;stroke:#ff0000;stroke-width:0.17638889;stroke-linecap:butt;stroke-linejoin:miter;stroke-opacity:1"
       d="m 24.484666,271.02733 c 0,0 0.49353,0.4476 0.603746,0.74865 0.119036,0.32513 0.02415,1.03844 0.02415,1.03844"
       id="path157"
       inkscape:connector-curvature="0"
       sodipodi:nodetypes="csc" />
    <path
       style="fill:none;fill-opacity:1;stroke:#000000;stroke-width:0.17638889;stroke-linecap:round;stroke-linejoin:round;stroke-miterlimit:4;stroke-dasharray:none;stroke-dashoffset:0;stroke-opacity:0.8;paint-order:stroke markers fill"
       d="M 39.942382,272.79943 A 18.663016,18.663016 0 0 1 21.279366,291.46246 18.663016,18.663016 0 0 1 2.6163504,272.79943 18.663016,18.663016 0 0 1 21.279366,254.13642 18.663016,18.663016 0 0 1 39.942382,272.79943 Z"
       id="path10"
       inkscape:connector-curvature="0" />
    <g
       aria-label="x"
       style="font-style:italic;font-variant:normal;font-weight:normal;font-stretch:normal;font-size:4.23333311px;line-height:4.93888855px;font-family:Academy;-inkscape-font-specification:'Academy Italic';text-align:start;letter-spacing:0px;word-spacing:0px;text-anchor:start;fill:#000000;fill-opacity:1;stroke:none;stroke-width:0.26458332"
       id="text1416"
       transform="translate(19.764766,-10.872386)">
      <path
         d="m 27.35498,281.42727 0.367936,0.78755 0.0124,0.0434 -0.0041,0.0393 q -0.0124,0.0558 -0.06615,0.10128 l -0.02687,0.0186 -0.03307,0.0145 -0.05581,0.008 q -0.05994,0 -0.103353,-0.0641 l -0.318327,-0.68627 -0.595312,0.68627 q -0.05581,0.0661 -0.132292,0.0661 -0.04547,0 -0.09302,-0.0434 -0.03927,-0.0434 -0.02687,-0.10335 0.0083,-0.0372 0.04134,-0.0806 l 0.682129,-0.78755 -0.367936,-0.78755 -0.0124,-0.0434 0.0041,-0.0393 q 0.0124,-0.0558 0.06408,-0.0992 0.05168,-0.0434 0.117822,-0.0434 0.05994,0 0.103353,0.0641 l 0.318327,0.68626 0.595313,-0.68626 q 0.05581,-0.0662 0.132291,-0.0662 0.04341,0 0.09509,0.0434 0.03721,0.0455 0.02481,0.10335 -0.0083,0.0372 -0.04134,0.0806 z"
         style="font-style:italic;font-variant:normal;font-weight:normal;font-stretch:normal;font-family:'GOST type B';-inkscape-font-specification:'GOST type B Italic';stroke-width:0.26458332"
         id="path3266"
         inkscape:connector-curvature="0" />
    </g>
    <g
       aria-label="y"
       style="font-style:italic;font-variant:normal;font-weight:normal;font-stretch:normal;font-size:4.23333311px;line-height:4.93888855px;font-family:Academy;-inkscape-font-specification:'Academy Italic';text-align:start;letter-spacing:0px;word-spacing:0px;text-anchor:start;fill:#000000;fill-opacity:1;stroke:none;stroke-width:0.26458332"
       id="text1420"
       transform="translate(7.8795207,-19.957084)">
      <path
         d="m 15.645198,270.62237 -0.194303,-1.82314 0.0021,-0.0496 q 0.01034,-0.0558 0.06408,-0.10129 0.05374,-0.0393 0.111621,-0.0393 0.09715,0 0.115756,0.10335 l 0.150895,1.42007 0.729671,-1.42007 q 0.05581,-0.10335 0.157096,-0.10335 0.06408,0 0.09922,0.0393 0.03514,0.0372 0.02274,0.10129 l -0.0186,0.0496 -1.231966,2.39985 q -0.05788,0.12816 -0.188102,0.21704 -0.128158,0.0889 -0.272852,0.0889 H 15.04786 q -0.05374,0 -0.09922,-0.0434 -0.02894,-0.0434 -0.01654,-0.10129 0.0124,-0.0579 0.05581,-0.10128 0.04547,-0.0434 0.117822,-0.0434 h 0.142627 q 0.04548,0 0.08062,-0.0289 0.03514,-0.0227 0.06408,-0.0703 z"
         style="font-style:italic;font-variant:normal;font-weight:normal;font-stretch:normal;font-family:'GOST type B';-inkscape-font-specification:'GOST type B Italic';stroke-width:0.26458332"
         id="path3269"
         inkscape:connector-curvature="0" />
    </g>
    <path
       style="fill:none;stroke:#000000;stroke-width:0.17638889;stroke-linecap:butt;stroke-linejoin:miter;stroke-miterlimit:4;stroke-dasharray:none;stroke-opacity:1;marker-end:url(#Arrow2Mend)"
       d="M 21.282181,292.98851 V 249.0533"
       id="path21"
       inkscape:connector-curvature="0"
       sodipodi:nodetypes="cc" />
    <g
       aria-label="O"
       transform="matrix(1,0,-0.23603609,1,-0.31720123,-2.4024404)"
       style="font-style:normal;font-variant:normal;font-weight:normal;font-stretch:normal;font-size:4.23333311px;line-height:4.93888855px;font-family:'GOST type B';-inkscape-font-specification:'GOST type B';text-align:start;letter-spacing:0px;word-spacing:0px;text-anchor:start;fill:#000000;fill-opacity:1;stroke:none;stroke-width:0.26458332"
       id="text1694">
      <path
         d="m 85.872586,278.25185 q 0,0.23771 -0.169498,0.40928 -0.169499,0.1695 -0.409278,0.1695 h -0.578776 q -0.235644,0 -0.40721,-0.16743 -0.171566,-0.1695 -0.171566,-0.41135 v -1.73633 q 0,-0.24184 0.167432,-0.40927 0.169499,-0.1695 0.411344,-0.1695 h 0.578776 q 0.241846,0 0.409278,0.1695 0.169498,0.16949 0.169498,0.40927 z m -0.289388,0 v -1.73633 q 0,-0.12195 -0.08268,-0.20464 -0.08062,-0.0847 -0.206706,-0.0847 h -0.578776 q -0.121956,0 -0.206705,0.0827 -0.04134,0.0413 -0.06201,0.0951 -0.02067,0.0517 -0.02067,0.11162 v 1.73633 q 0,0.12196 0.08268,0.20671 0.04341,0.0372 0.09302,0.062 0.06201,0.0207 0.113688,0.0207 h 0.578776 q 0.11989,0 0.204639,-0.0806 0.08475,-0.0806 0.08475,-0.20877 z"
         style="fill:#000000;stroke-width:0.26458332"
         id="path1831"
         inkscape:connector-curvature="0" />
    </g>
    <path
       inkscape:connector-curvature="0"
       id="path1157"
       d="M 1.6012488,272.80225 H 48.13208"
       style="fill:none;stroke:#000000;stroke-width:0.17638889;stroke-linecap:butt;stroke-linejoin:miter;stroke-miterlimit:4;stroke-dasharray:none;stroke-opacity:1;marker-end:url(#marker1161)"
       sodipodi:nodetypes="cc" />
    <g
       id="g138"
       transform="rotate(21.889018,27.588216,273.2733)">
      <path
         sodipodi:nodetypes="cc"
         inkscape:connector-curvature="0"
         id="path1384"
         d="M 21.569453,275.20667 33.316306,260.54333"
         style="fill:none;stroke:#ff0000;stroke-width:0.26458332;stroke-linecap:butt;stroke-linejoin:miter;stroke-opacity:1" />
      <path
         inkscape:connector-curvature="0"
         id="circle1325"
         d="m 33.777433,260.64582 a 0.50662535,0.50662535 0 0 1 -0.506625,0.50663 0.50662535,0.50662535 0 0 1 -0.506626,-0.50663 0.50662535,0.50662535 0 0 1 0.506626,-0.50662 0.50662535,0.50662535 0 0 1 0.506625,0.50662 z"
         style="fill:#ff0000;fill-opacity:1;stroke:none;stroke-width:0.26165509;stroke-linecap:round;stroke-linejoin:round;stroke-miterlimit:4;stroke-dasharray:none;stroke-dashoffset:0;stroke-opacity:0.8;paint-order:stroke markers fill" />
      <path
         style="fill:#ff0000;fill-opacity:1;stroke:none;stroke-width:0.26165509;stroke-linecap:round;stroke-linejoin:round;stroke-miterlimit:4;stroke-dasharray:none;stroke-dashoffset:0;stroke-opacity:0.8;paint-order:stroke markers fill"
         d="m 33.527145,289.91788 a 0.50662535,0.50662535 0 0 1 -0.506625,0.50663 0.50662535,0.50662535 0 0 1 -0.506626,-0.50663 0.50662535,0.50662535 0 0 1 0.506626,-0.50662 0.50662535,0.50662535 0 0 1 0.506625,0.50662 z"
         id="path117"
         inkscape:connector-curvature="0" />
      <path
         sodipodi:nodetypes="cc"
         inkscape:connector-curvature="0"
         id="path127"
         d="m 21.569453,275.20667 11.45762,14.70413"
         style="fill:none;stroke:#ff0000;stroke-width:0.26458332px;stroke-linecap:butt;stroke-linejoin:miter;stroke-opacity:1" />
      <path
         sodipodi:nodetypes="cc"
         inkscape:connector-curvature="0"
         id="path131"
         d="m 33.282103,260.62705 -0.221995,29.33743"
         style="fill:none;stroke:#ff0000;stroke-width:0.5291667;stroke-linecap:butt;stroke-linejoin:miter;stroke-opacity:1" />
    </g>
    <path
       sodipodi:nodetypes="cc"
       inkscape:connector-curvature="0"
       id="path140"
       d="M 21.222821,272.8548 16.893299,254.57209"
       style="fill:none;stroke:#0000ff;stroke-width:0.26458332;stroke-linecap:butt;stroke-linejoin:miter;stroke-opacity:1" />
    <path
       inkscape:connector-curvature="0"
       id="path142"
       d="m 17.25785,254.27168 a 0.50662535,0.50662535 0 0 1 0.08758,0.71111 0.50662535,0.50662535 0 0 1 -0.711108,0.0876 0.50662535,0.50662535 0 0 1 -0.08757,-0.7111 0.50662535,0.50662535 0 0 1 0.7111,-0.0876 z"
       style="fill:#0000ff;fill-opacity:1;stroke:none;stroke-width:0.26165509;stroke-linecap:round;stroke-linejoin:round;stroke-miterlimit:4;stroke-dasharray:none;stroke-dashoffset:0;stroke-opacity:0.8;paint-order:stroke markers fill" />
    <path
       style="fill:#0000ff;fill-opacity:1;stroke:none;stroke-width:0.26165509;stroke-linecap:round;stroke-linejoin:round;stroke-miterlimit:4;stroke-dasharray:none;stroke-dashoffset:0;stroke-opacity:0.8;paint-order:stroke markers fill"
       d="m 40.177167,272.48215 a 0.50662535,0.50662535 0 0 1 0.08758,0.7111 0.50662535,0.50662535 0 0 1 -0.711107,0.0876 0.50662535,0.50662535 0 0 1 -0.08757,-0.7111 0.50662535,0.50662535 0 0 1 0.711099,-0.0876 z"
       id="path144"
       inkscape:connector-curvature="0" />
    <path
       sodipodi:nodetypes="cc"
       inkscape:connector-curvature="0"
       id="path146"
       d="m 21.222821,272.8548 18.641035,0.0172"
       style="fill:none;stroke:#0000ff;stroke-width:0.26458332px;stroke-linecap:butt;stroke-linejoin:miter;stroke-opacity:1" />
    <path
       sodipodi:nodetypes="cc"
       inkscape:connector-curvature="0"
       id="path148"
       d="m 16.938243,254.65057 22.988255,18.22839"
       style="fill:none;stroke:#0000ff;stroke-width:0.5291667;stroke-linecap:butt;stroke-linejoin:miter;stroke-opacity:1" />
    <path
       style="fill:#000000;fill-opacity:1;stroke:none;stroke-width:0.26165509;stroke-linecap:round;stroke-linejoin:round;stroke-miterlimit:4;stroke-dasharray:none;stroke-dashoffset:0;stroke-opacity:0.8;paint-order:stroke markers fill"
       d="m 21.775496,272.79256 a 0.50662535,0.50662535 0 0 1 -0.506625,0.50663 0.50662535,0.50662535 0 0 1 -0.506626,-0.50663 0.50662535,0.50662535 0 0 1 0.506626,-0.50662 0.50662535,0.50662535 0 0 1 0.506625,0.50662 z"
       id="path1670"
       inkscape:connector-curvature="0" />
    <path
       style="fill:none;stroke:#0000ff;stroke-width:0.26458333;stroke-linecap:butt;stroke-linejoin:miter;stroke-opacity:1"
       d="m 26.56155,272.81442 c 0,0 -0.07903,-1.73677 -2.360509,-3.46179 -2.133616,-1.61321 -4.184092,-1.36817 -4.184092,-1.36817"
       id="path161"
       inkscape:connector-curvature="0"
       sodipodi:nodetypes="csc" />
    <g
       id="g241"
       transform="translate(62.524329,-8.4133694)">
      <g
         aria-label="P"
         style="font-style:italic;font-variant:normal;font-weight:normal;font-stretch:normal;font-size:4.23333311px;line-height:4.93888855px;font-family:JournalSans;-inkscape-font-specification:'JournalSans Italic';text-align:start;letter-spacing:0px;word-spacing:0px;text-anchor:start;fill:#0000ff;fill-opacity:1;stroke:none;stroke-width:0.26458332"
         id="text165">
        <path
           d="m -21.467903,283.46291 h 0.868164 q 0.119889,0 0.221175,-0.0806 0.101286,-0.0806 0.12609,-0.20878 l 0.115756,-0.57877 q 0.0248,-0.12196 -0.04134,-0.20464 -0.06408,-0.0847 -0.190169,-0.0847 h -0.868164 z m -0.05788,0.28939 -0.202571,1.01286 q -0.01447,0.0682 -0.06408,0.10955 -0.04547,0.0351 -0.109554,0.0351 -0.05788,0 -0.09509,-0.0351 -0.03514,-0.0372 -0.02067,-0.10955 l 0.520898,-2.60449 q 0.02894,-0.1447 0.173633,-0.1447 h 1.012858 q 0.241846,0 0.376204,0.1695 0.134359,0.1695 0.08682,0.40928 l -0.115756,0.57877 q -0.04754,0.23771 -0.252181,0.40928 -0.202571,0.1695 -0.44235,0.1695 z"
           style="font-style:italic;font-variant:normal;font-weight:normal;font-stretch:normal;font-family:'GOST type B';-inkscape-font-specification:'GOST type B Italic';fill:#0000ff;stroke-width:0.26458332"
           id="path1362" />
      </g>
      <g
         aria-label="0"
         transform="scale(1.1328033,0.88276579)"
         style="font-style:normal;font-variant:normal;font-weight:normal;font-stretch:normal;font-size:3.91345692px;line-height:4.56569958px;font-family:JournalSans;-inkscape-font-specification:JournalSans;text-align:start;letter-spacing:0px;word-spacing:0px;text-anchor:start;fill:#0000ff;fill-opacity:1;stroke:none;stroke-width:0.24459106"
         id="text183">
        <path
           d="m -16.978777,324.26347 q 0,0.23886 -0.171978,0.41466 -0.170068,0.17389 -0.41657,0.17389 h -0.160512 q -0.238859,0 -0.414659,-0.17007 -0.173889,-0.17006 -0.173889,-0.41848 v -1.49812 q 0,-0.23503 0.171978,-0.41083 0.171978,-0.17771 0.41657,-0.17771 h 0.160512 q 0.238859,0 0.412748,0.17197 0.1758,0.17007 0.1758,0.41657 z m -0.267522,0 v -1.49812 q 0,-0.13185 -0.09363,-0.22548 -0.09172,-0.0955 -0.227394,-0.0955 h -0.160512 q -0.13185,0 -0.227394,0.0936 -0.09363,0.0936 -0.09363,0.22739 v 1.49812 q 0,0.13185 0.09363,0.2274 0.09363,0.0936 0.227394,0.0936 h 0.160512 q 0.129939,0 0.225483,-0.0917 0.09554,-0.0917 0.09554,-0.22931 z"
           style="font-style:normal;font-variant:normal;font-weight:normal;font-stretch:normal;font-family:'GOST type B';-inkscape-font-specification:'GOST type B';fill:#0000ff;stroke-width:0.24459106"
           id="path1365" />
      </g>
    </g>
    <g
       id="g235"
       transform="translate(33.630887,-27.197522)">
      <g
         aria-label="x+y"
         style="font-style:italic;font-variant:normal;font-weight:normal;font-stretch:normal;font-size:4.23333311px;line-height:4.93888855px;font-family:JournalSans;-inkscape-font-specification:'JournalSans Italic';text-align:start;letter-spacing:0px;word-spacing:0px;text-anchor:start;fill:#0000ff;fill-opacity:1;stroke:none;stroke-width:0.26458332"
         id="text179">
        <path
           d="m -21.55969,278.97893 0.367937,0.78755 0.0124,0.0434 -0.0041,0.0393 q -0.0124,0.0558 -0.06615,0.10129 l -0.02687,0.0186 -0.03307,0.0145 -0.05581,0.008 q -0.05994,0 -0.103353,-0.0641 l -0.318327,-0.68626 -0.595312,0.68626 q -0.05581,0.0661 -0.132292,0.0661 -0.04547,0 -0.09302,-0.0434 -0.03927,-0.0434 -0.02687,-0.10335 0.0083,-0.0372 0.04134,-0.0806 l 0.682129,-0.78755 -0.367936,-0.78755 -0.0124,-0.0434 0.0041,-0.0393 q 0.0124,-0.0558 0.06408,-0.0992 0.05168,-0.0434 0.117822,-0.0434 0.05994,0 0.103353,0.0641 l 0.318327,0.68627 0.595313,-0.68627 q 0.05581,-0.0661 0.132291,-0.0661 0.04341,0 0.09509,0.0434 0.03721,0.0455 0.0248,0.10335 -0.0083,0.0372 -0.04134,0.0806 z"
           style="font-style:italic;font-variant:normal;font-weight:normal;font-stretch:normal;font-family:'GOST type B';-inkscape-font-specification:'GOST type B Italic';fill:#0000ff;stroke-width:0.26458332"
           id="path1368" />
        <path
           d="m -19.587717,279.12363 -0.08682,0.43408 q -0.01447,0.0682 -0.06408,0.10955 -0.04547,0.0351 -0.109554,0.0351 -0.05788,0 -0.09509,-0.0351 -0.03514,-0.0372 -0.02067,-0.10955 l 0.08682,-0.43408 h -0.434082 q -0.06615,0 -0.09922,-0.0413 -0.02894,-0.0434 -0.01654,-0.10336 0.01034,-0.0517 0.05788,-0.0971 0.04754,-0.0475 0.115756,-0.0475 h 0.434082 l 0.08682,-0.43408 q 0.0124,-0.0579 0.06408,-0.10749 0.05168,-0.0372 0.109554,-0.0372 0.05374,0 0.09508,0.0351 0.03514,0.0372 0.02067,0.10956 l -0.08682,0.43408 h 0.434082 q 0.06821,0 0.09715,0.0455 0.02894,0.0455 0.0186,0.0992 -0.01034,0.0496 -0.05581,0.0971 -0.04547,0.0476 -0.117822,0.0476 z"
           style="font-style:italic;font-variant:normal;font-weight:normal;font-stretch:normal;font-family:'GOST type B';-inkscape-font-specification:'GOST type B Italic';fill:#0000ff;stroke-width:0.26458332"
           id="path1370" />
        <path
           d="m -18.070497,279.97732 -0.194303,-1.82314 0.0021,-0.0496 q 0.01034,-0.0558 0.06408,-0.10129 0.05374,-0.0393 0.111621,-0.0393 0.09715,0 0.115755,0.10335 l 0.150895,1.42007 0.729671,-1.42007 q 0.05581,-0.10335 0.157096,-0.10335 0.06408,0 0.09922,0.0393 0.03514,0.0372 0.02274,0.10129 l -0.0186,0.0496 -1.231966,2.39985 q -0.05788,0.12816 -0.188102,0.21704 -0.128157,0.0889 -0.272851,0.0889 h -0.144694 q -0.05374,0 -0.09922,-0.0434 -0.02894,-0.0434 -0.01654,-0.10129 0.0124,-0.0579 0.05581,-0.10129 0.04547,-0.0434 0.117822,-0.0434 h 0.142627 q 0.04547,0 0.08062,-0.0289 0.03514,-0.0227 0.06408,-0.0703 z"
           style="font-style:italic;font-variant:normal;font-weight:normal;font-stretch:normal;font-family:'GOST type B';-inkscape-font-specification:'GOST type B Italic';fill:#0000ff;stroke-width:0.26458332"
           id="path1372" />
      </g>
      <g
         aria-label="P"
         style="font-style:italic;font-variant:normal;font-weight:normal;font-stretch:normal;font-size:4.23333311px;line-height:4.93888855px;font-family:JournalSans;-inkscape-font-specification:'JournalSans Italic';text-align:start;letter-spacing:0px;word-spacing:0px;text-anchor:start;fill:#0000ff;fill-opacity:1;stroke:none;stroke-width:0.26458332"
         id="text187">
        <path
           d="m -22.970636,276.83721 h 0.868164 q 0.119889,0 0.221175,-0.0806 0.101286,-0.0806 0.12609,-0.20877 l 0.115755,-0.57877 q 0.0248,-0.12196 -0.04134,-0.20464 -0.06408,-0.0847 -0.190169,-0.0847 h -0.868164 z m -0.05788,0.28939 -0.202572,1.01286 q -0.01447,0.0682 -0.06408,0.10955 -0.04548,0.0351 -0.109554,0.0351 -0.05788,0 -0.09509,-0.0351 -0.03514,-0.0372 -0.02067,-0.10955 l 0.520899,-2.6045 q 0.02894,-0.14469 0.173633,-0.14469 h 1.012858 q 0.241845,0 0.376204,0.1695 0.134359,0.1695 0.08682,0.40928 l -0.115755,0.57877 q -0.04754,0.23771 -0.252181,0.40928 -0.202571,0.1695 -0.44235,0.1695 z"
           style="font-style:italic;font-variant:normal;font-weight:normal;font-stretch:normal;font-family:'GOST type B';-inkscape-font-specification:'GOST type B Italic';fill:#0000ff;stroke-width:0.26458332"
           id="path1375" />
      </g>
    </g>
    <g
       id="g229"
       transform="translate(-0.31720123,-2.4024404)">
      <g
         id="g247"
         transform="translate(51.02459,24.795082)">
        <g
           aria-label="-y"
           style="font-style:italic;font-variant:normal;font-weight:normal;font-stretch:normal;font-size:4.23333311px;line-height:4.93888855px;font-family:JournalSans;-inkscape-font-specification:'JournalSans Italic';text-align:start;letter-spacing:0px;word-spacing:0px;text-anchor:start;fill:#ff0000;fill-opacity:1;stroke:none;stroke-width:0.26458332"
           id="text175">
          <path
             d="m -20.844022,271.67828 h -1.157552 q -0.06615,0 -0.09922,-0.0413 -0.02894,-0.0434 -0.01654,-0.10335 0.01034,-0.0517 0.05788,-0.0971 0.04754,-0.0475 0.115755,-0.0475 h 1.157552 q 0.05995,0 0.09302,0.0455 0.03307,0.0434 0.02274,0.0992 -0.01033,0.0496 -0.05581,0.0971 -0.04547,0.0475 -0.117822,0.0475 z"
             style="font-style:italic;font-variant:normal;font-weight:normal;font-stretch:normal;font-family:'GOST type B';-inkscape-font-specification:'GOST type B Italic';fill:#ff0000;stroke-width:0.26458332"
             id="path1378" />
          <path
             d="m -19.754683,272.53198 -0.194304,-1.82315 0.0021,-0.0496 q 0.01034,-0.0558 0.06408,-0.10128 0.05374,-0.0393 0.111621,-0.0393 0.09715,0 0.115756,0.10336 l 0.150895,1.42007 0.729671,-1.42007 q 0.05581,-0.10336 0.157096,-0.10336 0.06408,0 0.09922,0.0393 0.03514,0.0372 0.02274,0.10128 l -0.0186,0.0496 -1.231966,2.39986 q -0.05788,0.12815 -0.188102,0.21704 -0.128158,0.0889 -0.272852,0.0889 h -0.144694 q -0.05374,0 -0.09922,-0.0434 -0.02894,-0.0434 -0.01654,-0.10128 0.0124,-0.0579 0.05581,-0.10129 0.04547,-0.0434 0.117822,-0.0434 h 0.142627 q 0.04547,0 0.08062,-0.0289 0.03514,-0.0227 0.06408,-0.0703 z"
             style="font-style:italic;font-variant:normal;font-weight:normal;font-stretch:normal;font-family:'GOST type B';-inkscape-font-specification:'GOST type B Italic';fill:#ff0000;stroke-width:0.26458332"
             id="path1380" />
        </g>
        <g
           aria-label="P"
           style="font-style:italic;font-variant:normal;font-weight:normal;font-stretch:normal;font-size:4.23333311px;line-height:4.93888855px;font-family:JournalSans;-inkscape-font-specification:'JournalSans Italic';text-align:start;letter-spacing:0px;word-spacing:0px;text-anchor:start;fill:#ff0000;fill-opacity:1;stroke:none;stroke-width:0.26458332"
           id="text191">
          <path
             d="m -22.834024,270.34813 h 0.868164 q 0.119889,0 0.221175,-0.0806 0.101285,-0.0806 0.12609,-0.20877 l 0.115755,-0.57878 q 0.02481,-0.12196 -0.04134,-0.20464 -0.06408,-0.0847 -0.190169,-0.0847 h -0.868164 z m -0.05788,0.28939 -0.202572,1.01286 q -0.01447,0.0682 -0.06408,0.10955 -0.04548,0.0351 -0.109554,0.0351 -0.05788,0 -0.09509,-0.0351 -0.03514,-0.0372 -0.02067,-0.10955 l 0.520899,-2.60449 q 0.02894,-0.1447 0.173633,-0.1447 h 1.012858 q 0.241845,0 0.376204,0.1695 0.134359,0.1695 0.08682,0.40928 l -0.115755,0.57878 q -0.04754,0.23771 -0.252181,0.40927 -0.202571,0.1695 -0.44235,0.1695 z"
             style="font-style:italic;font-variant:normal;font-weight:normal;font-stretch:normal;font-family:'GOST type B';-inkscape-font-specification:'GOST type B Italic';fill:#ff0000;stroke-width:0.26458332"
             id="path1383" />
        </g>
      </g>
    </g>
    <g
       id="g223"
       transform="translate(59.109029,4.7696907)">
      <g
         aria-label="x"
         style="font-style:italic;font-variant:normal;font-weight:normal;font-stretch:normal;font-size:4.23333311px;line-height:4.93888855px;font-family:JournalSans;-inkscape-font-specification:'JournalSans Italic';text-align:start;letter-spacing:0px;word-spacing:0px;text-anchor:start;fill:#ff0000;fill-opacity:1;stroke:none;stroke-width:0.26458332"
         id="text171">
        <path
           d="m -18.485919,259.85326 0.367936,0.78755 0.0124,0.0434 -0.0041,0.0393 q -0.0124,0.0558 -0.06614,0.10129 l -0.02687,0.0186 -0.03307,0.0145 -0.05581,0.008 q -0.05994,0 -0.103352,-0.0641 l -0.318327,-0.68626 -0.595313,0.68626 q -0.05581,0.0662 -0.132291,0.0662 -0.04548,0 -0.09302,-0.0434 -0.03927,-0.0434 -0.02687,-0.10335 0.0083,-0.0372 0.04134,-0.0806 l 0.682129,-0.78755 -0.367936,-0.78755 -0.0124,-0.0434 0.0041,-0.0393 q 0.0124,-0.0558 0.06408,-0.0992 0.05168,-0.0434 0.117822,-0.0434 0.05994,0 0.103353,0.0641 l 0.318327,0.68627 0.595312,-0.68627 q 0.05581,-0.0661 0.132292,-0.0661 0.04341,0 0.09508,0.0434 0.03721,0.0455 0.02481,0.10336 -0.0083,0.0372 -0.04134,0.0806 z"
           style="font-style:italic;font-variant:normal;font-weight:normal;font-stretch:normal;font-family:'GOST type B';-inkscape-font-specification:'GOST type B Italic';fill:#ff0000;stroke-width:0.26458332"
           id="path1386" />
      </g>
      <g
         aria-label="P"
         style="font-style:italic;font-variant:normal;font-weight:normal;font-stretch:normal;font-size:4.23333311px;line-height:4.93888855px;font-family:JournalSans;-inkscape-font-specification:'JournalSans Italic';text-align:start;letter-spacing:0px;word-spacing:0px;text-anchor:start;fill:#ff0000;fill-opacity:1;stroke:none;stroke-width:0.26458332"
         id="text195">
        <path
           d="m -19.965172,257.98476 h 0.868164 q 0.119889,0 0.221175,-0.0806 0.101286,-0.0806 0.126091,-0.20878 l 0.115755,-0.57877 q 0.02481,-0.12196 -0.04134,-0.20464 -0.06408,-0.0848 -0.190169,-0.0848 h -0.868164 z m -0.05788,0.28939 -0.202572,1.01286 q -0.01447,0.0682 -0.06408,0.10955 -0.04547,0.0351 -0.109554,0.0351 -0.05788,0 -0.09508,-0.0351 -0.03514,-0.0372 -0.02067,-0.10955 l 0.520898,-2.60449 q 0.02894,-0.1447 0.173633,-0.1447 h 1.012858 q 0.241846,0 0.376205,0.1695 0.134358,0.1695 0.08682,0.40928 l -0.115755,0.57877 q -0.04754,0.23772 -0.252181,0.40928 -0.202572,0.1695 -0.44235,0.1695 z"
           style="font-style:italic;font-variant:normal;font-weight:normal;font-stretch:normal;font-family:'GOST type B';-inkscape-font-specification:'GOST type B Italic';fill:#ff0000;stroke-width:0.26458332"
           id="path1389" />
      </g>
    </g>
    <g
       aria-label="y"
       style="font-style:italic;font-variant:normal;font-weight:normal;font-stretch:normal;font-size:4.23333311px;line-height:4.93888855px;font-family:JournalSans;-inkscape-font-specification:'JournalSans Italic';text-align:start;letter-spacing:0px;word-spacing:0px;text-anchor:start;fill:#ff0000;fill-opacity:1;stroke:none;stroke-width:0.26458332"
       id="text205">
      <path
         d="m 24.394465,276.56204 -0.194304,-1.82315 0.0021,-0.0496 q 0.01034,-0.0558 0.06408,-0.10128 0.05374,-0.0393 0.111621,-0.0393 0.09715,0 0.115755,0.10336 l 0.150895,1.42007 0.729672,-1.42007 q 0.05581,-0.10336 0.157096,-0.10336 0.06408,0 0.09922,0.0393 0.03514,0.0372 0.02274,0.10128 l -0.0186,0.0496 -1.231966,2.39986 q -0.05788,0.12815 -0.188102,0.21704 -0.128158,0.0889 -0.272852,0.0889 h -0.144694 q -0.05374,0 -0.09922,-0.0434 -0.02894,-0.0434 -0.01654,-0.10128 0.0124,-0.0579 0.05581,-0.10129 0.04548,-0.0434 0.117823,-0.0434 h 0.142627 q 0.04547,0 0.08062,-0.0289 0.03514,-0.0227 0.06408,-0.0703 z"
         style="font-style:italic;font-variant:normal;font-weight:normal;font-stretch:normal;font-family:'GOST type B';-inkscape-font-specification:'GOST type B Italic';fill:#ff0000;stroke-width:0.26458332"
         id="path1392" />
    </g>
    <g
       aria-label="x+y"
       style="font-style:italic;font-variant:normal;font-weight:normal;font-stretch:normal;font-size:4.23333311px;line-height:4.93888855px;font-family:JournalSans;-inkscape-font-specification:'JournalSans Italic';text-align:start;letter-spacing:0px;word-spacing:0px;text-anchor:start;fill:#0000ff;fill-opacity:1;stroke:none;stroke-width:0.26458332"
       id="text209">
      <path
         d="m 23.590583,266.68386 0.367936,0.78755 0.0124,0.0434 -0.0041,0.0393 q -0.0124,0.0558 -0.06615,0.10129 l -0.02687,0.0186 -0.03307,0.0145 -0.05581,0.008 q -0.05994,0 -0.103353,-0.0641 l -0.318326,-0.68627 -0.595313,0.68627 q -0.05581,0.0661 -0.132292,0.0661 -0.04547,0 -0.09302,-0.0434 -0.03927,-0.0434 -0.02687,-0.10336 0.0083,-0.0372 0.04134,-0.0806 l 0.682129,-0.78755 -0.367936,-0.78755 -0.0124,-0.0434 0.0041,-0.0393 q 0.0124,-0.0558 0.06408,-0.0992 0.05168,-0.0434 0.117823,-0.0434 0.05994,0 0.103353,0.0641 l 0.318326,0.68626 0.595313,-0.68626 q 0.05581,-0.0661 0.132292,-0.0661 0.04341,0 0.09508,0.0434 0.03721,0.0455 0.02481,0.10335 -0.0083,0.0372 -0.04134,0.0806 z"
         style="font-style:italic;font-variant:normal;font-weight:normal;font-stretch:normal;font-family:'GOST type B';-inkscape-font-specification:'GOST type B Italic';fill:#0000ff;stroke-width:0.26458332"
         id="path1395" />
      <path
         d="m 25.562555,266.82855 -0.08682,0.43408 q -0.01447,0.0682 -0.06408,0.10956 -0.04547,0.0351 -0.109554,0.0351 -0.05788,0 -0.09508,-0.0351 -0.03514,-0.0372 -0.02067,-0.10956 l 0.08682,-0.43408 h -0.434082 q -0.06615,0 -0.09922,-0.0413 -0.02894,-0.0434 -0.01654,-0.10335 0.01033,-0.0517 0.05788,-0.0971 0.04754,-0.0476 0.115755,-0.0476 h 0.434082 l 0.08682,-0.43408 q 0.0124,-0.0579 0.06408,-0.10748 0.05168,-0.0372 0.109554,-0.0372 0.05374,0 0.09508,0.0351 0.03514,0.0372 0.02067,0.10955 l -0.08682,0.43408 h 0.434082 q 0.06821,0 0.09715,0.0455 0.02894,0.0455 0.0186,0.0992 -0.01033,0.0496 -0.05581,0.0971 -0.04548,0.0475 -0.117823,0.0475 z"
         style="font-style:italic;font-variant:normal;font-weight:normal;font-stretch:normal;font-family:'GOST type B';-inkscape-font-specification:'GOST type B Italic';fill:#0000ff;stroke-width:0.26458332"
         id="path1397" />
      <path
         d="m 27.079775,267.68225 -0.194303,-1.82315 0.0021,-0.0496 q 0.01034,-0.0558 0.06408,-0.10128 0.05374,-0.0393 0.111621,-0.0393 0.09715,0 0.115755,0.10336 l 0.150895,1.42006 0.729672,-1.42006 q 0.05581,-0.10336 0.157096,-0.10336 0.06408,0 0.09922,0.0393 0.03514,0.0372 0.02274,0.10128 l -0.0186,0.0496 -1.231966,2.39986 q -0.05788,0.12815 -0.188103,0.21704 -0.128157,0.0889 -0.272851,0.0889 h -0.144694 q -0.05374,0 -0.09922,-0.0434 -0.02894,-0.0434 -0.01654,-0.10128 0.0124,-0.0579 0.05581,-0.10129 0.04547,-0.0434 0.117822,-0.0434 H 26.6829 q 0.04548,0 0.08062,-0.0289 0.03514,-0.0227 0.06408,-0.0703 z"
         style="font-style:italic;font-variant:normal;font-weight:normal;font-stretch:normal;font-family:'GOST type B';-inkscape-font-specification:'GOST type B Italic';fill:#0000ff;stroke-width:0.26458332"
         id="path1399" />
    </g>
    <g
       aria-label="x"
       style="font-style:italic;font-variant:normal;font-weight:normal;font-stretch:normal;font-size:4.23333311px;line-height:4.93888855px;font-family:JournalSans;-inkscape-font-specification:'JournalSans Italic';text-align:start;letter-spacing:0px;word-spacing:0px;text-anchor:start;fill:#ff0000;fill-opacity:1;stroke:none;stroke-width:0.26458332"
       id="text217">
      <path
         d="m 29.055064,270.85051 0.367936,0.78755 0.0124,0.0434 -0.0041,0.0393 q -0.0124,0.0558 -0.06615,0.10128 l -0.02687,0.0186 -0.03307,0.0145 -0.05581,0.008 q -0.05994,0 -0.103353,-0.0641 l -0.318327,-0.68626 -0.595313,0.68626 q -0.05581,0.0661 -0.132291,0.0661 -0.04547,0 -0.09302,-0.0434 -0.03927,-0.0434 -0.02687,-0.10335 0.0083,-0.0372 0.04134,-0.0806 l 0.682128,-0.78755 -0.367936,-0.78754 -0.0124,-0.0434 0.0041,-0.0393 q 0.0124,-0.0558 0.06408,-0.0992 0.05168,-0.0434 0.117822,-0.0434 0.05995,0 0.103353,0.0641 l 0.318327,0.68626 0.595312,-0.68626 q 0.05581,-0.0661 0.132292,-0.0661 0.04341,0 0.09509,0.0434 0.03721,0.0455 0.0248,0.10335 -0.0083,0.0372 -0.04134,0.0806 z"
         style="font-style:italic;font-variant:normal;font-weight:normal;font-stretch:normal;font-family:'GOST type B';-inkscape-font-specification:'GOST type B Italic';fill:#ff0000;stroke-width:0.26458332"
         id="path1402" />
    </g>
    <path
       style="fill:#ff0000;stroke:#ff0000;stroke-width:0.088;stroke-linecap:butt;stroke-linejoin:miter;stroke-miterlimit:4;stroke-dasharray:none;stroke-opacity:1;marker-end:url(#marker892)"
       d="m 27.868895,270.89404 -2.511583,0.85733"
       id="path249"
       inkscape:connector-curvature="0"
       sodipodi:nodetypes="cc" />
  </g>
</svg>
