<?xml version="1.0" encoding="UTF-8" standalone="no"?>
<!-- Created with Inkscape (http://www.inkscape.org/) -->

<svg
   xmlns:dc="http://purl.org/dc/elements/1.1/"
   xmlns:cc="http://creativecommons.org/ns#"
   xmlns:rdf="http://www.w3.org/1999/02/22-rdf-syntax-ns#"
   xmlns:svg="http://www.w3.org/2000/svg"
   xmlns="http://www.w3.org/2000/svg"
   xmlns:sodipodi="http://sodipodi.sourceforge.net/DTD/sodipodi-0.dtd"
   xmlns:inkscape="http://www.inkscape.org/namespaces/inkscape"
   width="30mm"
   height="30mm"
   viewBox="0 0 30 30"
   version="1.1"
   id="svg8"
   inkscape:version="0.92.4 (5da689c313, 2019-01-14)"
   sodipodi:docname="11-15.svg">
  <defs
     id="defs2">
    <marker
       inkscape:isstock="true"
       style="overflow:visible"
       id="marker9535"
       refX="0"
       refY="0"
       orient="auto"
       inkscape:stockid="Arrow2Mstart">
      <path
         inkscape:connector-curvature="0"
         transform="scale(0.6)"
         d="M 8.7185878,4.0337352 -2.2072895,0.01601326 8.7185884,-4.0017078 c -1.7454984,2.3720609 -1.7354408,5.6174519 -6e-7,8.035443 z"
         style="fill:#ff0000;fill-opacity:1;fill-rule:evenodd;stroke:#ff0000;stroke-width:0.625;stroke-linejoin:round;stroke-opacity:1"
         id="path9533" />
    </marker>
    <marker
       inkscape:stockid="Arrow2Mstart"
       orient="auto"
       refY="0"
       refX="0"
       id="marker7599"
       style="overflow:visible"
       inkscape:isstock="true">
      <path
         id="path7597"
         style="fill:#ff0000;fill-opacity:1;fill-rule:evenodd;stroke:#ff0000;stroke-width:0.625;stroke-linejoin:round;stroke-opacity:1"
         d="M 8.7185878,4.0337352 -2.2072895,0.01601326 8.7185884,-4.0017078 c -1.7454984,2.3720609 -1.7354408,5.6174519 -6e-7,8.035443 z"
         transform="scale(0.6)"
         inkscape:connector-curvature="0" />
    </marker>
    <marker
       inkscape:stockid="Arrow2Mstart"
       orient="auto"
       refY="0"
       refX="0"
       id="marker7445"
       style="overflow:visible"
       inkscape:isstock="true">
      <path
         id="path7443"
         style="fill:#ff0000;fill-opacity:1;fill-rule:evenodd;stroke:#ff0000;stroke-width:0.625;stroke-linejoin:round;stroke-opacity:1"
         d="M 8.7185878,4.0337352 -2.2072895,0.01601326 8.7185884,-4.0017078 c -1.7454984,2.3720609 -1.7354408,5.6174519 -6e-7,8.035443 z"
         transform="scale(0.6)"
         inkscape:connector-curvature="0" />
    </marker>
    <marker
       inkscape:isstock="true"
       style="overflow:visible"
       id="marker7297"
       refX="0"
       refY="0"
       orient="auto"
       inkscape:stockid="Arrow2Mstart">
      <path
         inkscape:connector-curvature="0"
         transform="scale(0.6)"
         d="M 8.7185878,4.0337352 -2.2072895,0.01601326 8.7185884,-4.0017078 c -1.7454984,2.3720609 -1.7354408,5.6174519 -6e-7,8.035443 z"
         style="fill:#ff0000;fill-opacity:1;fill-rule:evenodd;stroke:#ff0000;stroke-width:0.625;stroke-linejoin:round;stroke-opacity:1"
         id="path7295" />
    </marker>
    <marker
       inkscape:stockid="Arrow2Mstart"
       orient="auto"
       refY="0"
       refX="0"
       id="marker7155"
       style="overflow:visible"
       inkscape:isstock="true">
      <path
         id="path7153"
         style="fill:#ff0000;fill-opacity:1;fill-rule:evenodd;stroke:#ff0000;stroke-width:0.625;stroke-linejoin:round;stroke-opacity:1"
         d="M 8.7185878,4.0337352 -2.2072895,0.01601326 8.7185884,-4.0017078 c -1.7454984,2.3720609 -1.7354408,5.6174519 -6e-7,8.035443 z"
         transform="scale(0.6)"
         inkscape:connector-curvature="0" />
    </marker>
    <marker
       inkscape:stockid="Arrow2Mstart"
       orient="auto"
       refY="0"
       refX="0"
       id="marker6511"
       style="overflow:visible"
       inkscape:isstock="true">
      <path
         id="path6509"
         style="fill:#ff0000;fill-opacity:1;fill-rule:evenodd;stroke:#ff0000;stroke-width:0.625;stroke-linejoin:round;stroke-opacity:1"
         d="M 8.7185878,4.0337352 -2.2072895,0.01601326 8.7185884,-4.0017078 c -1.7454984,2.3720609 -1.7354408,5.6174519 -6e-7,8.035443 z"
         transform="scale(0.6)"
         inkscape:connector-curvature="0" />
    </marker>
    <marker
       inkscape:stockid="Arrow2Mstart"
       orient="auto"
       refY="0"
       refX="0"
       id="marker6387"
       style="overflow:visible"
       inkscape:isstock="true">
      <path
         id="path6385"
         style="fill:#ff0000;fill-opacity:1;fill-rule:evenodd;stroke:#ff0000;stroke-width:0.625;stroke-linejoin:round;stroke-opacity:1"
         d="M 8.7185878,4.0337352 -2.2072895,0.01601326 8.7185884,-4.0017078 c -1.7454984,2.3720609 -1.7354408,5.6174519 -6e-7,8.035443 z"
         transform="scale(0.6)"
         inkscape:connector-curvature="0" />
    </marker>
    <marker
       inkscape:stockid="Arrow2Mstart"
       orient="auto"
       refY="0"
       refX="0"
       id="marker6269"
       style="overflow:visible"
       inkscape:isstock="true">
      <path
         id="path6267"
         style="fill:#ff0000;fill-opacity:1;fill-rule:evenodd;stroke:#ff0000;stroke-width:0.625;stroke-linejoin:round;stroke-opacity:1"
         d="M 8.7185878,4.0337352 -2.2072895,0.01601326 8.7185884,-4.0017078 c -1.7454984,2.3720609 -1.7354408,5.6174519 -6e-7,8.035443 z"
         transform="scale(0.6)"
         inkscape:connector-curvature="0" />
    </marker>
    <marker
       inkscape:stockid="Arrow2Mstart"
       orient="auto"
       refY="0"
       refX="0"
       id="marker6157"
       style="overflow:visible"
       inkscape:isstock="true">
      <path
         id="path6155"
         style="fill:#ff0000;fill-opacity:1;fill-rule:evenodd;stroke:#ff0000;stroke-width:0.625;stroke-linejoin:round;stroke-opacity:1"
         d="M 8.7185878,4.0337352 -2.2072895,0.01601326 8.7185884,-4.0017078 c -1.7454984,2.3720609 -1.7354408,5.6174519 -6e-7,8.035443 z"
         transform="scale(0.6)"
         inkscape:connector-curvature="0" />
    </marker>
    <marker
       inkscape:stockid="Arrow1Mend"
       orient="auto"
       refY="0"
       refX="0"
       id="marker4021"
       style="overflow:visible"
       inkscape:isstock="true">
      <path
         id="path4019"
         d="M 0,0 5,-5 -12.5,0 5,5 Z"
         style="fill:#ff0000;fill-opacity:1;fill-rule:evenodd;stroke:#ff0000;stroke-width:1.00000003pt;stroke-opacity:1"
         transform="matrix(-0.4,0,0,-0.4,-4,0)"
         inkscape:connector-curvature="0" />
    </marker>
    <marker
       inkscape:isstock="true"
       style="overflow:visible"
       id="marker3285"
       refX="0"
       refY="0"
       orient="auto"
       inkscape:stockid="Arrow1Mend">
      <path
         inkscape:connector-curvature="0"
         transform="matrix(-0.4,0,0,-0.4,-4,0)"
         style="fill:#ff0000;fill-opacity:1;fill-rule:evenodd;stroke:#ff0000;stroke-width:1.00000003pt;stroke-opacity:1"
         d="M 0,0 5,-5 -12.5,0 5,5 Z"
         id="path3283" />
    </marker>
    <marker
       inkscape:stockid="Arrow1Mend"
       orient="auto"
       refY="0"
       refX="0"
       id="marker1225"
       style="overflow:visible"
       inkscape:isstock="true">
      <path
         id="path1223"
         d="M 0,0 5,-5 -12.5,0 5,5 Z"
         style="fill:#ff0000;fill-opacity:1;fill-rule:evenodd;stroke:#ff0000;stroke-width:1.00000003pt;stroke-opacity:1"
         transform="matrix(-0.4,0,0,-0.4,-4,0)"
         inkscape:connector-curvature="0" />
    </marker>
    <marker
       inkscape:stockid="Arrow1Mstart"
       orient="auto"
       refY="0"
       refX="0"
       id="Arrow1Mstart"
       style="overflow:visible"
       inkscape:isstock="true">
      <path
         id="path970"
         d="M 0,0 5,-5 -12.5,0 5,5 Z"
         style="fill:#0000ff;fill-opacity:1;fill-rule:evenodd;stroke:#0000ff;stroke-width:1.00000003pt;stroke-opacity:1"
         transform="matrix(0.4,0,0,0.4,4,0)"
         inkscape:connector-curvature="0" />
    </marker>
    <marker
       inkscape:isstock="true"
       style="overflow:visible"
       id="marker1161"
       refX="0"
       refY="0"
       orient="auto"
       inkscape:stockid="Arrow2Mend">
      <path
         transform="scale(-0.6)"
         d="M 8.7185878,4.0337352 -2.2072895,0.01601326 8.7185884,-4.0017078 c -1.7454984,2.3720609 -1.7354408,5.6174519 -6e-7,8.035443 z"
         style="fill:#000000;fill-opacity:1;fill-rule:evenodd;stroke:#000000;stroke-width:0.625;stroke-linejoin:round;stroke-opacity:1"
         id="path1159"
         inkscape:connector-curvature="0" />
    </marker>
    <marker
       inkscape:stockid="Arrow2Lend"
       orient="auto"
       refY="0"
       refX="0"
       id="Arrow2Lend"
       style="overflow:visible"
       inkscape:isstock="true">
      <path
         id="path852"
         style="fill:#ff0000;fill-opacity:1;fill-rule:evenodd;stroke:#ff0000;stroke-width:0.625;stroke-linejoin:round;stroke-opacity:1"
         d="M 8.7185878,4.0337352 -2.2072895,0.01601326 8.7185884,-4.0017078 c -1.7454984,2.3720609 -1.7354408,5.6174519 -6e-7,8.035443 z"
         transform="matrix(-1.1,0,0,-1.1,-1.1,0)"
         inkscape:connector-curvature="0" />
    </marker>
  </defs>
  <sodipodi:namedview
     id="base"
     pagecolor="#ffffff"
     bordercolor="#666666"
     borderopacity="1.0"
     inkscape:pageopacity="0.0"
     inkscape:pageshadow="2"
     inkscape:zoom="6.4558333"
     inkscape:cx="56.692913"
     inkscape:cy="56.692913"
     inkscape:document-units="mm"
     inkscape:current-layer="layer1"
     showgrid="false"
     inkscape:window-width="1920"
     inkscape:window-height="1009"
     inkscape:window-x="0"
     inkscape:window-y="0"
     inkscape:window-maximized="1"
     inkscape:snap-global="false" />
  <metadata
     id="metadata5">
    <rdf:RDF>
      <cc:Work
         rdf:about="">
        <dc:format>image/svg+xml</dc:format>
        <dc:type
           rdf:resource="http://purl.org/dc/dcmitype/StillImage" />
        <dc:title />
      </cc:Work>
    </rdf:RDF>
  </metadata>
  <g
     inkscape:label="Layer 1"
     inkscape:groupmode="layer"
     id="layer1"
     transform="translate(0,-267)">
    <path
       inkscape:connector-curvature="0"
       id="path1058"
       d="M 7.2950818,292.40983 H 22.786885"
       style="fill:none;stroke:#666666;stroke-width:0.088;stroke-linecap:butt;stroke-linejoin:miter;stroke-miterlimit:4;stroke-dasharray:0.52799999, 0.52799999;stroke-dashoffset:0;stroke-opacity:1" />
    <path
       style="fill:none;stroke:#666666;stroke-width:0.088;stroke-linecap:butt;stroke-linejoin:miter;stroke-opacity:1;stroke-miterlimit:4;stroke-dasharray:0.52799999,0.52799999;stroke-dashoffset:0"
       d="M 7.2950818,276.67213 H 22.786885"
       id="path1056"
       inkscape:connector-curvature="0" />
    <g
       transform="matrix(0.17463689,0,0,0.17463689,6.6603253,276.63086)"
       id="g22" />
    <g
       transform="matrix(0.17463689,0,0,0.17463689,6.6603253,276.63086)"
       id="g24" />
    <g
       transform="matrix(0.17463689,0,0,0.17463689,6.6603253,276.63086)"
       id="g26" />
    <g
       transform="matrix(0.17463689,0,0,0.17463689,6.6603253,276.63086)"
       id="g28" />
    <g
       transform="matrix(0.17463689,0,0,0.17463689,6.6603253,276.63086)"
       id="g30" />
    <g
       transform="matrix(0.17463689,0,0,0.17463689,6.6603253,276.63086)"
       id="g32" />
    <g
       transform="matrix(0.17463689,0,0,0.17463689,6.6603253,276.63086)"
       id="g34" />
    <g
       transform="matrix(0.17463689,0,0,0.17463689,6.6603253,276.63086)"
       id="g36" />
    <g
       transform="matrix(0.17463689,0,0,0.17463689,6.6603253,276.63086)"
       id="g38" />
    <g
       transform="matrix(0.17463689,0,0,0.17463689,6.6603253,276.63086)"
       id="g40" />
    <g
       transform="matrix(0.17463689,0,0,0.17463689,6.6603253,276.63086)"
       id="g42" />
    <g
       transform="matrix(0.17463689,0,0,0.17463689,6.6603253,276.63086)"
       id="g44" />
    <g
       transform="matrix(0.17463689,0,0,0.17463689,6.6603253,276.63086)"
       id="g46" />
    <g
       transform="matrix(0.17463689,0,0,0.17463689,6.6603253,276.63086)"
       id="g48" />
    <g
       transform="matrix(0.17463689,0,0,0.17463689,6.6603253,276.63086)"
       id="g50" />
    <g
       style="font-style:normal;font-variant:normal;font-weight:normal;font-stretch:normal;font-size:4.23333311px;line-height:4.93888855px;font-family:Latin;-inkscape-font-specification:Latin;text-align:start;letter-spacing:0px;word-spacing:0px;text-anchor:start;fill:#000000;fill-opacity:1;stroke:none;stroke-width:0.26458332"
       id="text10487"
       transform="translate(0,2.7409303)" />
    <path
       sodipodi:nodetypes="sssss"
       inkscape:connector-curvature="0"
       id="path5809"
       d="m 15.005664,273.3938 c 6.147403,0 11.130856,4.98346 11.130856,11.13085 0,6.1474 -4.983453,11.13085 -11.130856,11.13085 -6.1474024,0 -11.130856,-4.98345 -11.130856,-11.13085 0,-6.14739 4.9834536,-11.13085 11.130856,-11.13085 z"
       style="fill:none;fill-opacity:1;stroke:#000000;stroke-width:0.26266286;stroke-linecap:round;stroke-linejoin:round;stroke-miterlimit:4;stroke-dasharray:none;stroke-dashoffset:0;stroke-opacity:0.8;paint-order:stroke markers fill" />
    <path
       sodipodi:nodetypes="cc"
       inkscape:connector-curvature="0"
       id="path5813"
       d="M 26.230736,284.52465 H 3.7321481"
       style="fill:none;stroke:#000000;stroke-width:0.10479588;stroke-linecap:butt;stroke-linejoin:miter;stroke-opacity:1" />
    <path
       style="fill:none;stroke:#000000;stroke-width:0.10479588;stroke-linecap:butt;stroke-linejoin:miter;stroke-opacity:1"
       d="m 14.981436,273.27536 v 22.49858"
       id="path5815"
       inkscape:connector-curvature="0"
       sodipodi:nodetypes="cc" />
    <g
       id="g1054"
       transform="matrix(0.88468027,0,0,0.88468027,1.4613989,29.397257)">
      <g
         transform="translate(10.963689,-11.759224)"
         aria-label="π"
         style="font-style:normal;font-variant:normal;font-weight:normal;font-stretch:normal;font-size:2.59619236px;line-height:3.02889132px;font-family:'GOST type B';-inkscape-font-specification:'GOST type B';text-align:start;letter-spacing:0px;word-spacing:0px;text-anchor:start;fill:#ff0000;fill-opacity:1;stroke:none;stroke-width:0.16226202"
         id="g5777">
        <path
           d="m 3.6523185,281.05933 h 1.3602121 v 0.23325 H 4.8337889 v 0.87216 q 0,0.0913 0.030424,0.13184 0.031692,0.0393 0.1014138,0.0393 0.019015,0 0.046904,-0.003 0.027889,-0.004 0.036763,-0.005 v 0.1686 q -0.044369,0.0165 -0.091272,0.0241 -0.046904,0.008 -0.093808,0.008 -0.1521207,0 -0.2104336,-0.0824 -0.058313,-0.0837 -0.058313,-0.30678 v -0.84681 H 4.071918 v 1.18655 H 3.8335956 v -1.18655 H 3.6523185 Z"
           style="fill:#ff0000;stroke-width:0.16226202"
           id="path5775"
           inkscape:connector-curvature="0" />
      </g>
      <g
         aria-label="2"
         style="font-style:normal;font-variant:normal;font-weight:normal;font-stretch:normal;font-size:3.46515131px;line-height:4.04267645px;font-family:'GOST type B';-inkscape-font-specification:'GOST type B';text-align:start;letter-spacing:0px;word-spacing:0px;text-anchor:start;fill:#ff0000;fill-opacity:1;stroke:none;stroke-width:0.21657196"
         id="text187">
        <path
           d="m 15.823777,272.58747 -0.764769,1.2199 h 0.734314 q 0.04907,0 0.08291,0.0372 0.03553,0.0355 0.03553,0.0812 0,0.0406 -0.03046,0.0795 -0.02876,0.0389 -0.08798,0.0389 H 14.84582 q -0.12859,0 -0.12859,-0.0947 0,-0.0372 0.02876,-0.088 l 0.874748,-1.39418 q 0.04399,-0.0931 0.04399,-0.17766 0,-0.15228 -0.118438,-0.26395 -0.05583,-0.0525 -0.130281,-0.0829 -0.07445,-0.0305 -0.160737,-0.0305 -0.08967,0 -0.172581,0.0474 -0.08291,0.0525 -0.137049,0.13535 -0.01354,0.022 -0.04568,0.0423 l -0.05245,0.0118 q -0.04568,0 -0.0846,-0.0322 -0.03722,-0.0338 -0.03722,-0.0829 0,-0.0237 0.0203,-0.0677 0.08122,-0.12689 0.219956,-0.20811 0.06768,-0.0389 0.13705,-0.0609 0.06937,-0.022 0.135357,-0.022 0.277483,0 0.468675,0.18443 0.192885,0.18273 0.192885,0.43653 0,0.14551 -0.07614,0.29102 z"
           style="fill:#ff0000;stroke-width:0.21657196"
           id="path1085" />
      </g>
      <g
         aria-label="-"
         transform="scale(1.2898346,0.7752932)"
         style="font-style:normal;font-variant:normal;font-weight:normal;font-stretch:normal;font-size:4.36669302px;line-height:5.09447527px;font-family:'GOST type B';-inkscape-font-specification:'GOST type B';text-align:start;letter-spacing:0px;word-spacing:0px;text-anchor:start;fill:#ff0000;fill-opacity:1;stroke:none;stroke-width:0.27291831"
         id="text191">
        <path
           d="m 12.470232,349.86282 h -1.194018 q -0.06823,0 -0.110873,-0.0426 -0.03838,-0.0448 -0.03838,-0.1066 0,-0.0533 0.03838,-0.10022 0.04051,-0.049 0.110873,-0.049 h 1.194018 q 0.06183,0 0.104477,0.0469 0.04477,0.0448 0.04477,0.10235 0,0.0512 -0.03838,0.10021 -0.03625,0.049 -0.110873,0.049 z"
           style="fill:#ff0000;stroke-width:0.27291831"
           id="path1088" />
      </g>
    </g>
    <path
       style="fill:#0000ff;fill-opacity:1;stroke:none;stroke-width:0.79215795;stroke-linecap:round;stroke-linejoin:bevel;stroke-miterlimit:4;stroke-dasharray:none;stroke-dashoffset:0;stroke-opacity:1;paint-order:markers fill stroke"
       d="m 23.547914,276.6355 a 0.68177521,0.68177521 0 0 1 -0.681776,0.68177 0.68177521,0.68177521 0 0 1 -0.681775,-0.68177 0.68177521,0.68177521 0 0 1 0.681775,-0.68178 0.68177521,0.68177521 0 0 1 0.681776,0.68178 z"
       id="circle225" />
    <path
       style="fill:#0000ff;fill-opacity:1;stroke:none;stroke-width:0.79215795;stroke-linecap:round;stroke-linejoin:bevel;stroke-miterlimit:4;stroke-dasharray:none;stroke-dashoffset:0;stroke-opacity:1;paint-order:markers fill stroke"
       d="m 7.6722904,292.41373 a 0.68177521,0.68177521 0 0 1 -0.6817752,0.68177 0.68177521,0.68177521 0 0 1 -0.6817752,-0.68177 0.68177521,0.68177521 0 0 1 0.6817752,-0.68178 0.68177521,0.68177521 0 0 1 0.6817752,0.68178 z"
       id="circle313" />
    <g
       id="g1046"
       transform="matrix(0.89732846,0,0,0.89732846,3.9555489,27.930393)">
      <g
         id="g317"
         style="font-style:normal;font-variant:normal;font-weight:normal;font-stretch:normal;font-size:2.59619236px;line-height:3.02889132px;font-family:'GOST type B';-inkscape-font-specification:'GOST type B';text-align:start;letter-spacing:0px;word-spacing:0px;text-anchor:start;fill:#0000ff;fill-opacity:1;stroke:none;stroke-width:0.16226202"
         aria-label="π"
         transform="translate(19.324345,-8.2346327)">
        <path
           inkscape:connector-curvature="0"
           id="path315"
           style="fill:#0000ff;stroke:none;stroke-width:0.16226202"
           d="m 3.6523185,281.05933 h 1.3602121 v 0.23325 H 4.8337889 v 0.87216 q 0,0.0913 0.030424,0.13184 0.031692,0.0393 0.1014138,0.0393 0.019015,0 0.046904,-0.003 0.027889,-0.004 0.036763,-0.005 v 0.1686 q -0.044369,0.0165 -0.091272,0.0241 -0.046904,0.008 -0.093808,0.008 -0.1521207,0 -0.2104336,-0.0824 -0.058313,-0.0837 -0.058313,-0.30678 v -0.84681 H 4.071918 v 1.18655 H 3.8335956 v -1.18655 H 3.6523185 Z" />
      </g>
      <g
         aria-label="4"
         style="font-style:normal;font-variant:normal;font-weight:normal;font-stretch:normal;font-size:3.46515131px;line-height:4.04267645px;font-family:'GOST type B';-inkscape-font-specification:'GOST type B';text-align:start;letter-spacing:0px;word-spacing:0px;text-anchor:start;fill:#0000ff;fill-opacity:1;stroke:none;stroke-width:0.21657196"
         id="text321">
        <path
           d="m 24.153978,276.85822 h 0.236875 q 0.04907,0 0.08291,0.0372 0.03553,0.0355 0.03553,0.0812 0,0.0406 -0.03045,0.0795 -0.02876,0.0389 -0.08798,0.0389 h -0.236875 v 0.35531 q 0,0.0558 -0.03384,0.0897 -0.03215,0.0288 -0.0846,0.0288 -0.04738,0 -0.08291,-0.0288 -0.03553,-0.0304 -0.03553,-0.0897 v -0.35531 h -0.710627 q -0.123513,0 -0.123513,-0.0965 l 0.0034,-0.0288 0.0068,-0.0271 0.473752,-1.65644 q 0.01015,-0.0355 0.04061,-0.0643 l 0.022,-0.0118 q 0.0203,-0.0102 0.04568,-0.0102 0.05245,0 0.08629,0.0338 0.03722,0.0322 0.03722,0.0829 l -0.0051,0.0355 -0.431452,1.50585 h 0.554966 v -0.35531 q 0,-0.0474 0.03553,-0.088 0.03553,-0.0305 0.08291,-0.0305 0.04568,0 0.08121,0.0305 0.03722,0.0288 0.03722,0.088 z"
           style="fill:#0000ff;stroke:none;stroke-width:0.21657196"
           id="path1093" />
      </g>
      <g
         aria-label="-"
         transform="scale(1.2898346,0.7752932)"
         style="font-style:normal;font-variant:normal;font-weight:normal;font-stretch:normal;font-size:4.36669302px;line-height:5.09447527px;font-family:'GOST type B';-inkscape-font-specification:'GOST type B';text-align:start;letter-spacing:0px;word-spacing:0px;text-anchor:start;fill:#0000ff;fill-opacity:1;stroke:none;stroke-width:0.27291831"
         id="text325">
        <path
           d="m 18.952191,354.40896 h -1.194017 q -0.06823,0 -0.110873,-0.0426 -0.03838,-0.0448 -0.03838,-0.10661 0,-0.0533 0.03838,-0.10021 0.04051,-0.049 0.110873,-0.049 h 1.194017 q 0.06183,0 0.104477,0.0469 0.04478,0.0448 0.04478,0.10235 0,0.0512 -0.03838,0.10021 -0.03625,0.049 -0.110873,0.049 z"
           style="fill:#0000ff;stroke:none;stroke-width:0.27291831"
           id="path1096" />
      </g>
    </g>
    <path
       style="fill:#0000ff;fill-opacity:1;stroke:none;stroke-width:0.79215795;stroke-linecap:round;stroke-linejoin:bevel;stroke-miterlimit:4;stroke-dasharray:none;stroke-dashoffset:0;stroke-opacity:1;paint-order:markers fill stroke"
       d="M 7.96448,276.6355 A 0.68177521,0.68177521 0 0 1 7.2827048,277.31727 0.68177521,0.68177521 0 0 1 6.6009296,276.6355 0.68177521,0.68177521 0 0 1 7.2827048,275.95372 0.68177521,0.68177521 0 0 1 7.96448,276.6355 Z"
       id="circle95" />
    <path
       style="fill:#0000ff;fill-opacity:1;stroke:none;stroke-width:0.79215795;stroke-linecap:round;stroke-linejoin:bevel;stroke-miterlimit:4;stroke-dasharray:none;stroke-dashoffset:0;stroke-opacity:1;paint-order:markers fill stroke"
       d="m 23.450519,292.41373 a 0.68177521,0.68177521 0 0 1 -0.681775,0.68177 0.68177521,0.68177521 0 0 1 -0.681776,-0.68177 0.68177521,0.68177521 0 0 1 0.681776,-0.68178 0.68177521,0.68177521 0 0 1 0.681775,0.68178 z"
       id="circle97" />
    <path
       style="fill:#ff0000;fill-opacity:1;stroke:none;stroke-width:0.79215795;stroke-linecap:round;stroke-linejoin:bevel;stroke-miterlimit:4;stroke-dasharray:none;stroke-dashoffset:0;stroke-opacity:1;paint-order:markers fill stroke"
       d="m 15.658802,273.37274 a 0.68177521,0.68177521 0 0 1 -0.681775,0.68178 0.68177521,0.68177521 0 0 1 -0.681775,-0.68178 0.68177521,0.68177521 0 0 1 0.681775,-0.68177 0.68177521,0.68177521 0 0 1 0.681775,0.68177 z"
       id="circle99" />
    <path
       style="fill:#ff0000;fill-opacity:1;stroke:none;stroke-width:0.79215795;stroke-linecap:round;stroke-linejoin:bevel;stroke-miterlimit:4;stroke-dasharray:none;stroke-dashoffset:0;stroke-opacity:1;paint-order:markers fill stroke"
       d="m 15.658802,295.67648 a 0.68177521,0.68177521 0 0 1 -0.681775,0.68178 0.68177521,0.68177521 0 0 1 -0.681775,-0.68178 0.68177521,0.68177521 0 0 1 0.681775,-0.68177 0.68177521,0.68177521 0 0 1 0.681775,0.68177 z"
       id="circle101" />
    <path
       style="fill:none;stroke:#0000ff;stroke-width:0.10479588;stroke-linecap:butt;stroke-linejoin:miter;stroke-opacity:1"
       d="M 22.914835,276.53814 7.08791,292.41376"
       id="path103"
       inkscape:connector-curvature="0" />
    <path
       inkscape:connector-curvature="0"
       id="path105"
       d="M 7.0635642,276.56248 22.93918,292.38941"
       style="fill:none;stroke:#0000ff;stroke-width:0.10479588;stroke-linecap:butt;stroke-linejoin:miter;stroke-opacity:1" />
    <path
       style="fill:none;stroke:#0000ff;stroke-width:0.10479588;stroke-linecap:butt;stroke-linejoin:miter;stroke-opacity:1"
       d="m 13.613472,283.08804 1.83836,-1.83835 1.339201,1.3392"
       id="path107"
       inkscape:connector-curvature="0" />
    <path
       style="fill:none;stroke:#0000ff;stroke-width:0.20959178;stroke-linecap:butt;stroke-linejoin:miter;stroke-opacity:1"
       d="m 14.319598,276.63554 h 1.36355"
       id="path109"
       inkscape:connector-curvature="0"
       sodipodi:nodetypes="cc" />
    <path
       sodipodi:nodetypes="cc"
       inkscape:connector-curvature="0"
       id="path111"
       d="m 14.319598,292.41377 h 1.36355"
       style="fill:none;stroke:#0000ff;stroke-width:0.20959178;stroke-linecap:butt;stroke-linejoin:miter;stroke-opacity:1" />
    <g
       aria-label="2"
       style="font-style:normal;font-variant:normal;font-weight:normal;font-stretch:normal;font-size:2.5948019px;line-height:3.02726889px;font-family:'GOST type B';-inkscape-font-specification:'GOST type B';text-align:start;letter-spacing:0px;word-spacing:0px;text-anchor:start;fill:#0000ff;fill-opacity:1;stroke:#ffffff;stroke-width:0.16217512;paint-order:stroke fill markers"
       id="text115">
      <path
         d="m 18.629795,275.79419 -0.57268,0.9135 h 0.549875 q 0.03674,0 0.06208,0.0279 0.02661,0.0266 0.02661,0.0608 0,0.0304 -0.02281,0.0596 -0.02154,0.0291 -0.06588,0.0291 h -0.709517 q -0.09629,0 -0.09629,-0.0709 0,-0.0279 0.02154,-0.0659 l 0.655035,-1.04401 q 0.03294,-0.0697 0.03294,-0.13303 0,-0.11403 -0.08869,-0.19765 -0.04181,-0.0393 -0.09756,-0.0621 -0.05575,-0.0228 -0.120364,-0.0228 -0.06715,0 -0.129234,0.0355 -0.06208,0.0393 -0.102626,0.10135 -0.01014,0.0165 -0.03421,0.0317 l -0.03928,0.009 q -0.03421,0 -0.06335,-0.0241 -0.02787,-0.0253 -0.02787,-0.0621 0,-0.0177 0.0152,-0.0507 0.06082,-0.095 0.164709,-0.15584 0.05068,-0.0291 0.102626,-0.0456 0.05195,-0.0165 0.10136,-0.0165 0.207787,0 0.350957,0.1381 0.144437,0.13684 0.144437,0.32689 0,0.10896 -0.05701,0.21792 z"
         style="fill:#0000ff;stroke:#ffffff;stroke-width:0.16217512;paint-order:stroke fill markers"
         id="path1103" />
    </g>
    <g
       aria-label="2"
       style="font-style:normal;font-variant:normal;font-weight:normal;font-stretch:normal;font-size:2.5948019px;line-height:3.02726889px;font-family:'GOST type B';-inkscape-font-specification:'GOST type B';text-align:start;letter-spacing:0px;word-spacing:0px;text-anchor:start;fill:#0000ff;fill-opacity:1;stroke:#ffffff;stroke-width:0.16217512;paint-order:stroke fill markers"
       id="text119">
      <path
         d="m 18.261521,278.64832 -0.572681,0.9135 h 0.549875 q 0.03674,0 0.06208,0.0279 0.02661,0.0266 0.02661,0.0608 0,0.0304 -0.02281,0.0596 -0.02154,0.0291 -0.06588,0.0291 h -0.709516 q -0.09629,0 -0.09629,-0.0709 0,-0.0279 0.02154,-0.0659 l 0.655036,-1.044 q 0.03294,-0.0697 0.03294,-0.13304 0,-0.11402 -0.08869,-0.19765 -0.04181,-0.0393 -0.09756,-0.0621 -0.05575,-0.0228 -0.120364,-0.0228 -0.06715,0 -0.129233,0.0355 -0.06208,0.0393 -0.102627,0.10136 -0.01014,0.0165 -0.03421,0.0317 l -0.03928,0.009 q -0.03421,0 -0.06335,-0.0241 -0.02787,-0.0253 -0.02787,-0.0621 0,-0.0177 0.0152,-0.0507 0.06082,-0.095 0.164709,-0.15584 0.05068,-0.0291 0.102627,-0.0456 0.05195,-0.0165 0.101359,-0.0165 0.207787,0 0.350957,0.1381 0.144437,0.13683 0.144437,0.32688 0,0.10896 -0.05701,0.21793 z"
         style="fill:#0000ff;stroke:#ffffff;stroke-width:0.16217512;paint-order:stroke fill markers"
         id="path1106" />
    </g>
    <g
       aria-label="-"
       transform="scale(1.7651655,0.56651911)"
       style="font-style:normal;font-variant:normal;font-weight:normal;font-stretch:normal;font-size:4.47492838px;line-height:5.22074986px;font-family:'GOST type B';-inkscape-font-specification:'GOST type B';text-align:start;letter-spacing:0px;word-spacing:0px;text-anchor:start;fill:#0000ff;fill-opacity:1;stroke:#ffffff;stroke-width:0.27968302;paint-order:stroke fill markers"
       id="text123">
      <path
         d="M 10.749949,490.00633 H 9.526336 q -0.069921,0 -0.1136212,-0.0437 -0.039331,-0.0459 -0.039331,-0.10925 0,-0.0546 0.039331,-0.1027 0.041515,-0.0503 0.1136212,-0.0503 h 1.223613 q 0.06337,0 0.107066,0.0481 0.04589,0.0459 0.04589,0.10488 0,0.0524 -0.03933,0.1027 -0.03714,0.0503 -0.113621,0.0503 z"
         style="fill:#0000ff;stroke:#ffffff;stroke-width:0.27968302;paint-order:stroke fill markers"
         id="path1109" />
    </g>
    <path
       style="color:#000000;font-style:normal;font-variant:normal;font-weight:normal;font-stretch:normal;font-size:medium;line-height:normal;font-family:sans-serif;font-variant-ligatures:normal;font-variant-position:normal;font-variant-caps:normal;font-variant-numeric:normal;font-variant-alternates:normal;font-feature-settings:normal;text-indent:0;text-align:start;text-decoration:none;text-decoration-line:none;text-decoration-style:solid;text-decoration-color:#000000;letter-spacing:normal;word-spacing:normal;text-transform:none;writing-mode:lr-tb;direction:ltr;text-orientation:mixed;dominant-baseline:auto;baseline-shift:baseline;text-anchor:start;white-space:normal;shape-padding:0;clip-rule:nonzero;display:inline;overflow:visible;visibility:visible;opacity:1;isolation:auto;mix-blend-mode:normal;color-interpolation:sRGB;color-interpolation-filters:linearRGB;solid-color:#000000;solid-opacity:1;vector-effect:none;fill:#0000ff;fill-opacity:1;fill-rule:nonzero;stroke:#ffffff;stroke-width:0.52916667;stroke-linecap:round;stroke-linejoin:round;stroke-miterlimit:4;stroke-dasharray:none;stroke-dashoffset:0;stroke-opacity:1;paint-order:stroke markers fill;color-rendering:auto;image-rendering:auto;shape-rendering:auto;text-rendering:auto;enable-background:accumulate"
       d="m 17.654297,274.61328 a 0.06604906,0.06604906 0 0 0 -0.05664,0.0469 l -0.658203,2.12304 -0.427734,-1.44726 a 0.06613285,0.06613285 0 1 0 -0.126953,0.0371 L 16.875,277.0293 a 0.06604906,0.06604906 0 0 0 0.126953,0.002 l 0.707031,-2.28516 h 1.423828 a 0.066405,0.066405 0 1 0 0,-0.13281 h -1.472656 a 0.06604906,0.06604906 0 0 0 -0.0059,0 z"
       id="path125"
       inkscape:connector-curvature="0" />
  </g>
</svg>
