<?xml version="1.0" encoding="UTF-8" standalone="no"?>
<!-- Created with Inkscape (http://www.inkscape.org/) -->

<svg
   xmlns:dc="http://purl.org/dc/elements/1.1/"
   xmlns:cc="http://creativecommons.org/ns#"
   xmlns:rdf="http://www.w3.org/1999/02/22-rdf-syntax-ns#"
   xmlns:svg="http://www.w3.org/2000/svg"
   xmlns="http://www.w3.org/2000/svg"
   xmlns:sodipodi="http://sodipodi.sourceforge.net/DTD/sodipodi-0.dtd"
   xmlns:inkscape="http://www.inkscape.org/namespaces/inkscape"
   width="56.843296mm"
   height="56.013432mm"
   viewBox="0 0 56.843296 56.013432"
   version="1.1"
   id="svg8"
   inkscape:version="0.92.4 (5da689c313, 2019-01-14)"
   sodipodi:docname="11-19.svg">
  <defs
     id="defs2">
    <marker
       inkscape:isstock="true"
       style="overflow:visible"
       id="marker1206"
       refX="0"
       refY="0"
       orient="auto"
       inkscape:stockid="Arrow2Mstart">
      <path
         inkscape:connector-curvature="0"
         transform="scale(0.6)"
         d="M 8.7185878,4.0337352 -2.2072895,0.01601326 8.7185884,-4.0017078 c -1.7454984,2.3720609 -1.7354408,5.6174519 -6e-7,8.035443 z"
         style="fill:#ff0000;fill-opacity:1;fill-rule:evenodd;stroke:#ff0000;stroke-width:0.625;stroke-linejoin:round;stroke-opacity:1"
         id="path1204" />
    </marker>
    <marker
       inkscape:stockid="Arrow2Mend"
       orient="auto"
       refY="0"
       refX="0"
       id="marker964"
       style="overflow:visible"
       inkscape:isstock="true">
      <path
         inkscape:connector-curvature="0"
         id="path962"
         style="fill:#000000;fill-opacity:1;fill-rule:evenodd;stroke:#000000;stroke-width:0.625;stroke-linejoin:round;stroke-opacity:1"
         d="M 8.7185878,4.0337352 -2.2072895,0.01601326 8.7185884,-4.0017078 c -1.7454984,2.3720609 -1.7354408,5.6174519 -6e-7,8.035443 z"
         transform="scale(-0.6)" />
    </marker>
    <marker
       inkscape:isstock="true"
       style="overflow:visible"
       id="marker892"
       refX="0"
       refY="0"
       orient="auto"
       inkscape:stockid="Arrow2Mend">
      <path
         inkscape:connector-curvature="0"
         transform="scale(-0.6)"
         d="M 8.7185878,4.0337352 -2.2072895,0.01601326 8.7185884,-4.0017078 c -1.7454984,2.3720609 -1.7354408,5.6174519 -6e-7,8.035443 z"
         style="fill:#000000;fill-opacity:1;fill-rule:evenodd;stroke:#000000;stroke-width:0.625;stroke-linejoin:round;stroke-opacity:1"
         id="path890" />
    </marker>
    <marker
       inkscape:stockid="Arrow1Mend"
       orient="auto"
       refY="0"
       refX="0"
       id="Arrow1Mend"
       style="overflow:visible"
       inkscape:isstock="true">
      <path
         id="path840"
         d="M 0,0 5,-5 -12.5,0 5,5 Z"
         style="fill:#000000;fill-opacity:1;fill-rule:evenodd;stroke:#000000;stroke-width:1.00000003pt;stroke-opacity:1"
         transform="matrix(-0.4,0,0,-0.4,-4,0)"
         inkscape:connector-curvature="0" />
    </marker>
    <marker
       inkscape:stockid="Arrow2Lend"
       orient="auto"
       refY="0"
       refX="0"
       id="Arrow2Lend"
       style="overflow:visible"
       inkscape:isstock="true">
      <path
         id="path852"
         style="fill:#ff0000;fill-opacity:0.8;fill-rule:evenodd;stroke:#ff0000;stroke-width:0.625;stroke-linejoin:round;stroke-opacity:0.8"
         d="M 8.7185878,4.0337352 -2.2072895,0.01601326 8.7185884,-4.0017078 c -1.7454984,2.3720609 -1.7354408,5.6174519 -6e-7,8.035443 z"
         transform="matrix(-1.1,0,0,-1.1,-1.1,0)"
         inkscape:connector-curvature="0" />
    </marker>
  </defs>
  <sodipodi:namedview
     id="base"
     pagecolor="#ffffff"
     bordercolor="#666666"
     borderopacity="1.0"
     inkscape:pageopacity="0.0"
     inkscape:pageshadow="2"
     inkscape:zoom="2.7667857"
     inkscape:cx="107.44776"
     inkscape:cy="106.25813"
     inkscape:document-units="mm"
     inkscape:current-layer="layer1"
     showgrid="false"
     inkscape:window-width="1920"
     inkscape:window-height="1009"
     inkscape:window-x="0"
     inkscape:window-y="0"
     inkscape:window-maximized="1"
     inkscape:snap-global="false"
     fit-margin-top="1"
     fit-margin-left="1"
     fit-margin-right="1"
     fit-margin-bottom="1" />
  <metadata
     id="metadata5">
    <rdf:RDF>
      <cc:Work
         rdf:about="">
        <dc:format>image/svg+xml</dc:format>
        <dc:type
           rdf:resource="http://purl.org/dc/dcmitype/StillImage" />
        <dc:title />
      </cc:Work>
    </rdf:RDF>
  </metadata>
  <g
     inkscape:label="Layer 1"
     inkscape:groupmode="layer"
     id="layer1"
     transform="translate(-7.68082,-242.57399)">
    <path
       inkscape:connector-curvature="0"
       id="path1157"
       d="M 8.9280045,270.43491 H 62.908895"
       style="fill:none;stroke:#000000;stroke-width:0.26458332;stroke-linecap:butt;stroke-linejoin:miter;stroke-miterlimit:4;stroke-dasharray:none;stroke-opacity:1"
       sodipodi:nodetypes="cc" />
    <path
       style="fill:none;stroke:#0000ff;stroke-width:0.17638889;stroke-linecap:butt;stroke-linejoin:miter;stroke-opacity:1"
       d="m 35.107705,270.34329 23.35204,-12.83957"
       id="path1384"
       inkscape:connector-curvature="0"
       sodipodi:nodetypes="cc" />
    <path
       sodipodi:nodetypes="cc"
       inkscape:connector-curvature="0"
       id="path50"
       d="m 35.107705,270.34329 23.543297,13.17136"
       style="fill:none;stroke:#0000ff;stroke-width:0.17638889;stroke-linecap:butt;stroke-linejoin:miter;stroke-opacity:1" />
    <path
       style="fill:none;stroke:#ff0000;stroke-width:0.17638889;stroke-linecap:butt;stroke-linejoin:miter;stroke-opacity:1"
       d="m 35.107705,270.34329 20.005046,19.76972"
       id="path52"
       inkscape:connector-curvature="0"
       sodipodi:nodetypes="cc" />
    <path
       sodipodi:nodetypes="cc"
       inkscape:connector-curvature="0"
       id="path54"
       d="M 35.107705,270.34329 15.426958,289.82612"
       style="fill:none;stroke:#ff0000;stroke-width:0.17638889;stroke-linecap:butt;stroke-linejoin:miter;stroke-opacity:1" />
    <path
       style="fill:none;stroke:#000000;stroke-width:0.26458332;stroke-linecap:butt;stroke-linejoin:miter;stroke-miterlimit:4;stroke-dasharray:none;stroke-opacity:1"
       d="m 35.19135,297.37259 v -53.7986"
       id="path21"
       inkscape:connector-curvature="0"
       sodipodi:nodetypes="cc" />
    <path
       style="opacity:1;fill:none;fill-opacity:1;stroke:#000000;stroke-width:0.17638889;stroke-linecap:round;stroke-linejoin:round;stroke-miterlimit:4;stroke-dasharray:none;stroke-dashoffset:0;stroke-opacity:1;paint-order:stroke fill markers"
       d="M 60.124153,270.43115 A 24.936558,24.936558 0 0 1 35.187595,295.36771 24.936558,24.936558 0 0 1 10.251038,270.43115 24.936558,24.936558 0 0 1 35.187595,245.49459 24.936558,24.936558 0 0 1 60.124153,270.43115 Z"
       id="path891" />
    <path
       style="opacity:1;fill:none;fill-opacity:1;stroke:#000000;stroke-width:0.17638889;stroke-linecap:round;stroke-linejoin:round;stroke-miterlimit:4;stroke-dasharray:none;stroke-dashoffset:0;stroke-opacity:1;paint-order:stroke fill markers"
       d="m 57.630497,270.43115 a 22.442902,22.442902 0 0 1 -22.442902,22.4429 22.442902,22.442902 0 0 1 -22.442901,-22.4429 22.442902,22.442902 0 0 1 22.442901,-22.4429 22.442902,22.442902 0 0 1 22.442902,22.4429 z"
       id="circle893" />
    <path
       style="opacity:1;fill:none;fill-opacity:1;stroke:#ff0000;stroke-width:1.05833328;stroke-linecap:round;stroke-linejoin:round;stroke-miterlimit:4;stroke-dasharray:none;stroke-dashoffset:0;stroke-opacity:1;paint-order:stroke fill markers"
       d="m 17.554786,288.06396 a 24.936558,24.936558 0 0 1 0,-35.26562 24.936558,24.936558 0 0 1 35.265618,0 24.936558,24.936558 0 0 1 10e-7,35.26562"
       id="circle38" />
    <path
       style="opacity:1;fill:none;fill-opacity:1;stroke:#0000ff;stroke-width:1.05833328;stroke-linecap:round;stroke-linejoin:round;stroke-miterlimit:4;stroke-dasharray:none;stroke-dashoffset:0;stroke-opacity:1;paint-order:stroke fill markers"
       d="M 54.623718,281.6526 A 22.442902,22.442902 0 0 1 29.378945,292.10933 22.442902,22.442902 0 0 1 12.744694,270.43115 22.442902,22.442902 0 0 1 29.378945,248.75297 22.442902,22.442902 0 0 1 54.623718,259.2097"
       id="circle40" />
    <path
       style="fill:#ffffff;fill-opacity:1;stroke:#0000ff;stroke-width:0.70555556;stroke-linecap:round;stroke-linejoin:round;stroke-miterlimit:4;stroke-dasharray:none;stroke-dashoffset:0;stroke-opacity:1;paint-order:stroke fill markers"
       d="m 55.589189,259.47601 a 0.92756802,0.92756802 0 0 1 -0.927568,0.92757 0.92756802,0.92756802 0 0 1 -0.927568,-0.92757 0.92756802,0.92756802 0 0 1 0.927568,-0.92756 0.92756802,0.92756802 0 0 1 0.927568,0.92756 z"
       id="path42" />
    <path
       style="fill:#ffffff;fill-opacity:1;stroke:#0000ff;stroke-width:0.70555556;stroke-linecap:round;stroke-linejoin:round;stroke-miterlimit:4;stroke-dasharray:none;stroke-dashoffset:0;stroke-opacity:1;paint-order:stroke fill markers"
       d="m 55.589189,281.37491 a 0.92756802,0.92756802 0 0 1 -0.927568,0.92757 0.92756802,0.92756802 0 0 1 -0.927568,-0.92757 0.92756802,0.92756802 0 0 1 0.927568,-0.92757 0.92756802,0.92756802 0 0 1 0.927568,0.92757 z"
       id="circle44" />
    <path
       style="fill:#ffffff;fill-opacity:1;stroke:#ff0000;stroke-width:0.70555556;stroke-linecap:round;stroke-linejoin:round;stroke-miterlimit:4;stroke-dasharray:none;stroke-dashoffset:0;stroke-opacity:1;paint-order:stroke fill markers"
       d="m 53.772249,288.06891 a 0.92756802,0.92756802 0 0 1 -0.927568,0.92757 0.92756802,0.92756802 0 0 1 -0.927568,-0.92757 0.92756802,0.92756802 0 0 1 0.927568,-0.92757 0.92756802,0.92756802 0 0 1 0.927568,0.92757 z"
       id="circle46" />
    <path
       style="fill:#ffffff;fill-opacity:1;stroke:#ff0000;stroke-width:0.70555556;stroke-linecap:round;stroke-linejoin:round;stroke-miterlimit:4;stroke-dasharray:none;stroke-dashoffset:0;stroke-opacity:1;paint-order:stroke fill markers"
       d="m 18.294107,288.06891 a 0.92756802,0.92756802 0 0 1 -0.927568,0.92757 0.92756802,0.92756802 0 0 1 -0.927568,-0.92757 0.92756802,0.92756802 0 0 1 0.927568,-0.92757 0.92756802,0.92756802 0 0 1 0.927568,0.92757 z"
       id="circle48" />
    <g
       id="g112"
       transform="translate(71.912568,38.155738)">
      <g
         id="g1150"
         style="font-style:normal;font-variant:normal;font-weight:normal;font-stretch:normal;font-size:2.59619236px;line-height:3.02889132px;font-family:'GOST type B';-inkscape-font-specification:'GOST type B';text-align:start;letter-spacing:0px;word-spacing:0px;text-anchor:start;fill:#ff0000;fill-opacity:1;stroke:none;stroke-width:0.16226202"
         aria-label="π"
         transform="matrix(1.6142658,0,0,1.6142658,-21.200587,-202.20752)">
        <path
           inkscape:connector-curvature="0"
           id="path1148"
           style="fill:#ff0000;stroke-width:0.16226202"
           d="m 3.6523185,281.05933 h 1.3602121 v 0.23325 H 4.8337889 v 0.87216 q 0,0.0913 0.030424,0.13184 0.031692,0.0393 0.1014138,0.0393 0.019015,0 0.046904,-0.003 0.027889,-0.004 0.036763,-0.005 v 0.1686 q -0.044369,0.0165 -0.091272,0.0241 -0.046904,0.008 -0.093808,0.008 -0.1521207,0 -0.2104336,-0.0824 -0.058313,-0.0837 -0.058313,-0.30678 v -0.84681 H 4.071918 v 1.18655 H 3.8335956 v -1.18655 H 3.6523185 Z" />
      </g>
      <g
         id="g1158"
         style="font-style:normal;font-variant:normal;font-weight:normal;font-stretch:normal;font-size:4.36669302px;line-height:5.09447527px;font-family:'GOST type B';-inkscape-font-specification:'GOST type B';text-align:start;letter-spacing:0px;word-spacing:0px;text-anchor:start;fill:#ff0000;fill-opacity:1;stroke:none;stroke-width:0.27291831"
         transform="matrix(2.0642965,0,0,1.2515293,-38.673773,-182.98705)"
         aria-label="-">
        <path
           id="path1156"
           style="fill:#ff0000;stroke-width:0.27291831"
           d="m 12.470232,349.86282 h -1.194018 q -0.06823,0 -0.110873,-0.0426 -0.03838,-0.0448 -0.03838,-0.1066 0,-0.0533 0.03838,-0.10022 0.04051,-0.049 0.110873,-0.049 h 1.194018 q 0.06183,0 0.104477,0.0469 0.04477,0.0448 0.04477,0.10235 0,0.0512 -0.03838,0.10021 -0.03625,0.049 -0.110873,0.049 z"
           inkscape:connector-curvature="0" />
      </g>
      <g
         aria-label="4"
         transform="matrix(0.86992401,0,0,1.1495257,-51.939891,-49.453552)"
         style="font-style:normal;font-variant:normal;font-weight:normal;font-stretch:normal;font-size:4.8663249px;line-height:5.67737913px;font-family:'GOST type B';-inkscape-font-specification:'GOST type B';text-align:start;letter-spacing:0px;word-spacing:0px;text-anchor:start;fill:#ff0000;fill-opacity:1;stroke:none;stroke-width:0.30414531"
         id="text1166">
        <path
           d="m 44.465717,267.70872 h 0.332659 q 0.06891,0 0.116431,0.0523 0.0499,0.0499 0.0499,0.11406 0,0.057 -0.04277,0.11168 -0.04039,0.0546 -0.123559,0.0546 h -0.332659 v 0.49899 q 0,0.0784 -0.04752,0.12593 -0.04515,0.0404 -0.118807,0.0404 -0.06653,0 -0.116431,-0.0404 -0.0499,-0.0428 -0.0499,-0.12593 v -0.49899 h -0.997976 q -0.173458,0 -0.173458,-0.13544 l 0.0048,-0.0404 0.0095,-0.038 0.665318,-2.32624 q 0.01426,-0.0499 0.05703,-0.0903 l 0.03089,-0.0166 q 0.02851,-0.0143 0.06416,-0.0143 0.07366,0 0.121183,0.0475 0.05228,0.0451 0.05228,0.11643 l -0.0071,0.0499 -0.605914,2.11476 h 0.779372 v -0.49899 q 0,-0.0665 0.0499,-0.12356 0.0499,-0.0428 0.116431,-0.0428 0.06415,0 0.114054,0.0428 0.05227,0.0404 0.05227,0.12356 z"
           style="fill:#ff0000;stroke-width:0.30414531"
           id="path1770"
           inkscape:connector-curvature="0" />
      </g>
      <g
         aria-label="-"
         transform="matrix(1.7439372,0,0,1.2515293,-38.633737,-182.98705)"
         style="font-style:normal;font-variant:normal;font-weight:normal;font-stretch:normal;font-size:4.36669302px;line-height:5.09447527px;font-family:'GOST type B';-inkscape-font-specification:'GOST type B';text-align:start;letter-spacing:0px;word-spacing:0px;text-anchor:start;fill:#ff0000;fill-opacity:1;stroke:none;stroke-width:0.27291831"
         id="g72">
        <path
           inkscape:connector-curvature="0"
           d="m 12.470232,349.86282 h -1.194018 q -0.06823,0 -0.110873,-0.0426 -0.03838,-0.0448 -0.03838,-0.1066 0,-0.0533 0.03838,-0.10022 0.04051,-0.049 0.110873,-0.049 h 1.194018 q 0.06183,0 0.104477,0.0469 0.04477,0.0448 0.04477,0.10235 0,0.0512 -0.03838,0.10021 -0.03625,0.049 -0.110873,0.049 z"
           style="fill:#ff0000;stroke-width:0.27291831"
           id="path70" />
      </g>
    </g>
    <g
       aria-label="4"
       transform="matrix(0.86992401,0,0,1.1495257,-40.368853,-49.501366)"
       style="font-style:normal;font-variant:normal;font-weight:normal;font-stretch:normal;font-size:4.8663249px;line-height:5.67737913px;font-family:'GOST type B';-inkscape-font-specification:'GOST type B';text-align:start;letter-spacing:0px;word-spacing:0px;text-anchor:start;fill:#ff0000;fill-opacity:1;stroke:none;stroke-width:0.30414531"
       id="g84" />
    <g
       id="g102"
       transform="translate(15.778689,37.295082)">
      <g
         transform="matrix(1.6142658,0,0,1.6142658,-9.6295487,-202.25533)"
         aria-label="π"
         style="font-style:normal;font-variant:normal;font-weight:normal;font-stretch:normal;font-size:2.59619236px;line-height:3.02889132px;font-family:'GOST type B';-inkscape-font-specification:'GOST type B';text-align:start;letter-spacing:0px;word-spacing:0px;text-anchor:start;fill:#ff0000;fill-opacity:1;stroke:none;stroke-width:0.16226202"
         id="g76">
        <path
           d="m 3.6523185,281.05933 h 1.3602121 v 0.23325 H 4.8337889 v 0.87216 q 0,0.0913 0.030424,0.13184 0.031692,0.0393 0.1014138,0.0393 0.019015,0 0.046904,-0.003 0.027889,-0.004 0.036763,-0.005 v 0.1686 q -0.044369,0.0165 -0.091272,0.0241 -0.046904,0.008 -0.093808,0.008 -0.1521207,0 -0.2104336,-0.0824 -0.058313,-0.0837 -0.058313,-0.30678 v -0.84681 H 4.071918 v 1.18655 H 3.8335956 v -1.18655 H 3.6523185 Z"
           style="fill:#ff0000;stroke-width:0.16226202"
           id="path74"
           inkscape:connector-curvature="0" />
      </g>
      <g
         aria-label="-"
         transform="matrix(4.0505244,0,0,1.2515293,-52.167896,-183.03486)"
         style="font-style:normal;font-variant:normal;font-weight:normal;font-stretch:normal;font-size:4.36669302px;line-height:5.09447527px;font-family:'GOST type B';-inkscape-font-specification:'GOST type B';text-align:start;letter-spacing:0px;word-spacing:0px;text-anchor:start;fill:#ff0000;fill-opacity:1;stroke:none;stroke-width:0.27291831"
         id="g80">
        <path
           inkscape:connector-curvature="0"
           d="m 12.470232,349.86282 h -1.194018 q -0.06823,0 -0.110873,-0.0426 -0.03838,-0.0448 -0.03838,-0.1066 0,-0.0533 0.03838,-0.10022 0.04051,-0.049 0.110873,-0.049 h 1.194018 q 0.06183,0 0.104477,0.0469 0.04477,0.0448 0.04477,0.10235 0,0.0512 -0.03838,0.10021 -0.03625,0.049 -0.110873,0.049 z"
           style="fill:#ff0000;stroke-width:0.27291831"
           id="path78" />
      </g>
      <path
         inkscape:connector-curvature="0"
         id="path82"
         style="font-style:normal;font-variant:normal;font-weight:normal;font-stretch:normal;font-size:4.8663249px;line-height:5.67737913px;font-family:'GOST type B';-inkscape-font-specification:'GOST type B';text-align:start;letter-spacing:0px;word-spacing:0px;text-anchor:start;fill:#ff0000;fill-opacity:1;stroke:none;stroke-width:0.30414531"
         d="m 42.267171,267.41756 h 0.332659 q 0.06891,0 0.116431,0.0523 0.0499,0.0499 0.0499,0.11406 0,0.057 -0.04277,0.11168 -0.04039,0.0546 -0.123559,0.0546 h -0.332659 v 0.49899 q 0,0.0784 -0.04752,0.12593 -0.04515,0.0404 -0.118807,0.0404 -0.06653,0 -0.116431,-0.0404 -0.0499,-0.0428 -0.0499,-0.12593 v -0.49899 h -0.997976 q -0.173458,0 -0.173458,-0.13544 l 0.0048,-0.0404 0.0095,-0.038 0.665318,-2.32624 q 0.01426,-0.0499 0.05703,-0.0903 l 0.03089,-0.0166 q 0.02851,-0.0143 0.06416,-0.0143 0.07366,0 0.121183,0.0475 0.05228,0.0451 0.05228,0.11643 l -0.0071,0.0499 -0.605914,2.11476 H 41.9346 v -0.49899 q 0,-0.0665 0.0499,-0.12356 0.0499,-0.0428 0.116431,-0.0428 0.06415,0 0.114054,0.0428 0.05227,0.0404 0.05227,0.12356 z"
         transform="matrix(0.86992402,0,0,1.1495257,-40.368853,-49.501375)" />
      <g
         aria-label="5"
         style="font-style:normal;font-variant:normal;font-weight:normal;font-stretch:normal;font-size:5.59396553px;line-height:6.52629328px;font-family:'GOST type B';-inkscape-font-specification:'GOST type B';text-align:start;letter-spacing:0px;word-spacing:0px;text-anchor:start;fill:#ff0000;fill-opacity:1;stroke:none;stroke-width:0.34962285"
         id="text92">
        <path
           d="m -6.1556631,250.39234 v 1.1472 h 0.5736 q 0.3905942,0 0.6719314,0.28134 0.2840685,0.2786 0.2840685,0.67466 v 0.3824 q 0,0.39059 -0.2813371,0.67466 -0.2813371,0.28134 -0.6746628,0.28134 h -0.7648 q -0.087406,0 -0.1420343,-0.0546 -0.049166,-0.0574 -0.049166,-0.13657 0,-0.0683 0.049166,-0.12838 0.051897,-0.0628 0.1420343,-0.0628 h 0.7648 q 0.2349028,0 0.4042514,-0.16389 0.1693486,-0.16388 0.1693486,-0.40971 v -0.3824 q 0,-0.23764 -0.1666172,-0.40425 -0.1638857,-0.16935 -0.4069828,-0.16935 h -0.7648 q -0.1912,0 -0.1912,-0.1912 v -1.5296 q 0,-0.1912 0.1912,-0.1912 h 1.5295999 q 0.079212,0 0.13384,0.0601 0.05736,0.0574 0.05736,0.13111 0,0.0656 -0.049166,0.12838 -0.046434,0.0628 -0.1420343,0.0628 z"
           style="fill:#ff0000;stroke-width:0.34962285"
           id="path172" />
      </g>
    </g>
    <g
       id="g150"
       style="fill:#0000ff"
       transform="translate(80.423497,14.535519)">
      <g
         transform="matrix(1.6142658,0,0,1.6142658,-25.476543,-186.62009)"
         aria-label="π"
         style="font-style:normal;font-variant:normal;font-weight:normal;font-stretch:normal;font-size:2.59619236px;line-height:3.02889132px;font-family:'GOST type B';-inkscape-font-specification:'GOST type B';text-align:start;letter-spacing:0px;word-spacing:0px;text-anchor:start;fill:#0000ff;fill-opacity:1;stroke:none;stroke-width:0.16226202"
         id="g5777">
        <path
           d="m 3.6523185,281.05933 h 1.3602121 v 0.23325 H 4.8337889 v 0.87216 q 0,0.0913 0.030424,0.13184 0.031692,0.0393 0.1014138,0.0393 0.019015,0 0.046904,-0.003 0.027889,-0.004 0.036763,-0.005 v 0.1686 q -0.044369,0.0165 -0.091272,0.0241 -0.046904,0.008 -0.093808,0.008 -0.1521207,0 -0.2104336,-0.0824 -0.058313,-0.0837 -0.058313,-0.30678 v -0.84681 H 4.071918 v 1.18655 H 3.8335956 v -1.18655 H 3.6523185 Z"
           style="fill:#0000ff;stroke-width:0.16226202"
           id="path5775"
           inkscape:connector-curvature="0" />
      </g>
      <g
         aria-label="-"
         transform="matrix(2.0642965,0,0,1.2515293,-42.949729,-167.39962)"
         style="font-style:normal;font-variant:normal;font-weight:normal;font-stretch:normal;font-size:4.36669302px;line-height:5.09447527px;font-family:'GOST type B';-inkscape-font-specification:'GOST type B';text-align:start;letter-spacing:0px;word-spacing:0px;text-anchor:start;fill:#0000ff;fill-opacity:1;stroke:none;stroke-width:0.27291831"
         id="text191">
        <path
           inkscape:connector-curvature="0"
           d="m 12.470232,349.86282 h -1.194018 q -0.06823,0 -0.110873,-0.0426 -0.03838,-0.0448 -0.03838,-0.1066 0,-0.0533 0.03838,-0.10022 0.04051,-0.049 0.110873,-0.049 h 1.194018 q 0.06183,0 0.104477,0.0469 0.04477,0.0448 0.04477,0.10235 0,0.0512 -0.03838,0.10021 -0.03625,0.049 -0.110873,0.049 z"
           style="fill:#0000ff;stroke-width:0.27291831"
           id="path1088" />
      </g>
      <g
         id="g1146"
         style="font-style:normal;font-variant:normal;font-weight:normal;font-stretch:normal;font-size:4.36669302px;line-height:5.09447527px;font-family:'GOST type B';-inkscape-font-specification:'GOST type B';text-align:start;letter-spacing:0px;word-spacing:0px;text-anchor:start;fill:#0000ff;fill-opacity:1;stroke:none;stroke-width:0.27291831"
         transform="matrix(1.7439372,0,0,1.2515293,-42.937016,-167.39962)"
         aria-label="-">
        <path
           id="path1144"
           style="fill:#0000ff;stroke-width:0.27291831"
           d="m 12.470232,349.86282 h -1.194018 q -0.06823,0 -0.110873,-0.0426 -0.03838,-0.0448 -0.03838,-0.1066 0,-0.0533 0.03838,-0.10022 0.04051,-0.049 0.110873,-0.049 h 1.194018 q 0.06183,0 0.104477,0.0469 0.04477,0.0448 0.04477,0.10235 0,0.0512 -0.03838,0.10021 -0.03625,0.049 -0.110873,0.049 z"
           inkscape:connector-curvature="0" />
      </g>
      <g
         aria-label="6"
         style="font-style:normal;font-variant:normal;font-weight:normal;font-stretch:normal;font-size:5.58997297px;line-height:6.52163506px;font-family:'GOST type B';-inkscape-font-specification:'GOST type B';text-align:start;letter-spacing:0px;word-spacing:0px;text-anchor:start;fill:#0000ff;fill-opacity:1;stroke:none;stroke-width:0.34937331"
         id="text116">
        <path
           d="m -19.009769,272.91377 -0.0082,0.19106 v 0.95532 q 0,0.16104 0.109179,0.27295 0.05732,0.0491 0.122827,0.0819 0.08188,0.0273 0.150121,0.0273 h 0.382127 q 0.15831,0 0.270218,-0.10644 0.111909,-0.10645 0.111909,-0.27568 v -0.76426 q 0,-0.16104 -0.109179,-0.27021 -0.10645,-0.11191 -0.272948,-0.11191 z m 0.06551,-0.38213 h 0.690558 q 0.311161,0 0.537707,0.22382 0.226547,0.22108 0.226547,0.54043 v 0.76426 q 0,0.31389 -0.223817,0.54043 -0.223818,0.22382 -0.540437,0.22382 h -0.382127 q -0.308431,0 -0.537707,-0.22109 -0.226547,-0.22108 -0.226547,-0.54316 v -0.95532 q 0,-0.54317 0.20744,-1.03174 0.141933,-0.33846 0.41761,-0.61687 0.275678,-0.2784 0.638699,-0.43671 l 0.08188,-0.0191 q 0.0737,0 0.133744,0.06 0.04913,0.0628 0.04913,0.1392 0,0.0546 -0.02456,0.0928 -0.02457,0.0382 -0.0928,0.0791 -0.07643,0.03 -0.139203,0.0628 -0.06005,0.03 -0.131015,0.0791 -0.117368,0.0792 -0.240194,0.19653 -0.223817,0.22381 -0.343915,0.51314 l -0.05732,0.15285 z"
           style="fill:#0000ff;stroke-width:0.34937331"
           id="path175" />
      </g>
    </g>
    <g
       id="g140"
       style="fill:#0000ff"
       transform="translate(65.314208,-23.237705)">
      <g
         id="g120"
         style="font-style:normal;font-variant:normal;font-weight:normal;font-stretch:normal;font-size:2.59619236px;line-height:3.02889132px;font-family:'GOST type B';-inkscape-font-specification:'GOST type B';text-align:start;letter-spacing:0px;word-spacing:0px;text-anchor:start;fill:#0000ff;fill-opacity:1;stroke:none;stroke-width:0.16226202"
         aria-label="π"
         transform="matrix(1.6142658,0,0,1.6142658,-11.180095,-177.82227)">
        <path
           inkscape:connector-curvature="0"
           id="path118"
           style="fill:#0000ff;stroke-width:0.16226202"
           d="m 3.6523185,281.05933 h 1.3602121 v 0.23325 H 4.8337889 v 0.87216 q 0,0.0913 0.030424,0.13184 0.031692,0.0393 0.1014138,0.0393 0.019015,0 0.046904,-0.003 0.027889,-0.004 0.036763,-0.005 v 0.1686 q -0.044369,0.0165 -0.091272,0.0241 -0.046904,0.008 -0.093808,0.008 -0.1521207,0 -0.2104336,-0.0824 -0.058313,-0.0837 -0.058313,-0.30678 v -0.84681 H 4.071918 v 1.18655 H 3.8335956 v -1.18655 H 3.6523185 Z" />
      </g>
      <g
         id="g124"
         style="font-style:normal;font-variant:normal;font-weight:normal;font-stretch:normal;font-size:4.36669302px;line-height:5.09447527px;font-family:'GOST type B';-inkscape-font-specification:'GOST type B';text-align:start;letter-spacing:0px;word-spacing:0px;text-anchor:start;fill:#0000ff;fill-opacity:1;stroke:none;stroke-width:0.27291831"
         transform="matrix(2.0642965,0,0,1.2515293,-28.653281,-158.6018)"
         aria-label="-">
        <path
           id="path122"
           style="fill:#0000ff;stroke-width:0.27291831"
           d="m 12.470232,349.86282 h -1.194018 q -0.06823,0 -0.110873,-0.0426 -0.03838,-0.0448 -0.03838,-0.1066 0,-0.0533 0.03838,-0.10022 0.04051,-0.049 0.110873,-0.049 h 1.194018 q 0.06183,0 0.104477,0.0469 0.04477,0.0448 0.04477,0.10235 0,0.0512 -0.03838,0.10021 -0.03625,0.049 -0.110873,0.049 z"
           inkscape:connector-curvature="0" />
      </g>
      <g
         aria-label="6"
         style="font-style:normal;font-variant:normal;font-weight:normal;font-stretch:normal;font-size:5.58997297px;line-height:6.52163506px;font-family:'GOST type B';-inkscape-font-specification:'GOST type B';text-align:start;letter-spacing:0px;word-spacing:0px;text-anchor:start;fill:#0000ff;fill-opacity:1;stroke:none;stroke-width:0.34937331"
         id="text132">
        <path
           d="m -4.7133215,281.71159 -0.00819,0.19106 v 0.95532 q 0,0.16104 0.1091792,0.27295 0.057319,0.0491 0.1228265,0.0819 0.081884,0.0273 0.1501213,0.0273 h 0.3821271 q 0.1583098,0 0.2702184,-0.10645 0.1119087,-0.10645 0.1119087,-0.27568 v -0.76426 q 0,-0.16103 -0.1091792,-0.27021 -0.1064497,-0.11191 -0.2729479,-0.11191 z m 0.065507,-0.38213 h 0.6905582 q 0.3111606,0 0.5377074,0.22382 0.2265467,0.22109 0.2265467,0.54043 v 0.76426 q 0,0.31389 -0.2238173,0.54044 -0.2238172,0.22381 -0.5404368,0.22381 h -0.3821271 q -0.3084311,0 -0.5377073,-0.22108 -0.2265468,-0.22109 -0.2265468,-0.54317 v -0.95532 q 0,-0.54317 0.2074404,-1.03174 0.1419329,-0.33846 0.4176103,-0.61686 0.2756774,-0.27841 0.6386981,-0.43672 l 0.081884,-0.0191 q 0.073696,0 0.1337444,0.06 0.049131,0.0628 0.049131,0.1392 0,0.0546 -0.024565,0.0928 -0.024565,0.0382 -0.092802,0.0791 -0.076425,0.03 -0.1392035,0.0628 -0.060049,0.03 -0.1310149,0.0791 -0.1173676,0.0792 -0.2401942,0.19653 -0.2238173,0.22381 -0.3439144,0.51314 l -0.057319,0.15285 z"
           style="fill:#0000ff;stroke-width:0.34937331"
           id="path178" />
      </g>
    </g>
    <path
       style="fill:#ffff00;fill-opacity:1;stroke:none;stroke-width:0.96381396;stroke-linecap:round;stroke-linejoin:round;stroke-miterlimit:4;stroke-dasharray:none;stroke-dashoffset:0;stroke-opacity:1;paint-order:stroke fill markers"
       d="m 206.38186,87.074076 c -0.46402,-0.493923 -1.39088,-1.000699 -2.0597,-1.126169 -1.02852,-0.192954 -1.54804,-0.712878 -3.36918,-3.371816 -13.72822,-20.043735 -35.89446,-33.496669 -60.46549,-36.697162 -2.34592,-0.305568 -5.63946,-0.555578 -7.31896,-0.555578 h -3.05365 v -2.641324 -2.641323 l 3.34323,0.132481 c 28.20893,1.117826 54.5333,15.408024 71.08561,38.588852 2.11965,2.968478 5.08581,7.713182 5.08581,8.135314 0,0.246727 -1.63532,1.074767 -2.12258,1.074767 -0.15478,0 -0.66107,-0.404119 -1.12509,-0.898042 z"
       id="path152"
       inkscape:connector-curvature="0"
       transform="matrix(0.26458333,0,0,0.26458333,0.91845,235.47329)" />
    <path
       style="fill:#ffff00;fill-opacity:1;stroke:none;stroke-width:0.96381396;stroke-linecap:round;stroke-linejoin:round;stroke-miterlimit:4;stroke-dasharray:none;stroke-dashoffset:0;stroke-opacity:1;paint-order:stroke fill markers"
       d="m 37.588744,128.2901 c 0,-6.08914 1.560826,-15.38106 3.858314,-22.96933 C 50.444403,75.603837 74.265195,52.213075 104.3941,43.510099 110.52296,41.739727 118.38419,40.505 125.86808,40.13728 l 3.16251,-0.15539 v 2.483129 c 0,2.928916 0.40156,2.720537 -5.78288,3.000902 -7.43222,0.336933 -17.79202,2.6491 -25.336246,5.654707 C 86.757514,55.564346 77.677053,61.402757 69.265159,69.539176 54.67139,83.655022 45.88055,101.24944 43.206624,121.694 c -0.306821,2.34592 -0.557857,5.47681 -0.557857,6.95753 v 2.69222 h -2.530011 -2.530012 z"
       id="path154"
       inkscape:connector-curvature="0"
       transform="matrix(0.26458333,0,0,0.26458333,0.91845,235.47329)" />
    <path
       style="fill:#ffff00;fill-opacity:1;stroke:#ff0000;stroke-width:0.96381396;stroke-linecap:round;stroke-linejoin:round;stroke-miterlimit:4;stroke-dasharray:none;stroke-dashoffset:0;stroke-opacity:1;paint-order:stroke fill markers"
       d=""
       id="path156"
       inkscape:connector-curvature="0"
       transform="matrix(0.26458333,0,0,0.26458333,0.91845,235.47329)" />
    <path
       style="fill:#ffff00;fill-opacity:1;stroke:none;stroke-width:0.96381396;stroke-linecap:round;stroke-linejoin:round;stroke-miterlimit:4;stroke-dasharray:none;stroke-dashoffset:0;stroke-opacity:1;paint-order:stroke fill markers"
       d="m 64.153866,194.23261 c -0.397573,-0.17085 -1.243394,-0.32206 -1.879602,-0.33603 -1.007433,-0.0221 -1.513199,-0.45694 -3.918327,-3.36863 C 46.250496,175.87286 38.507734,156.09534 37.69732,137.75913 l -0.219647,-4.96966 h 2.529717 2.529717 l 0.223786,4.60823 c 0.915771,18.85767 9.07983,38.47865 21.884288,52.5953 1.220676,1.34578 2.219412,2.57791 2.219412,2.73809 0,0.30972 -1.564649,1.88044 -1.830446,1.83754 -0.08658,-0.014 -0.482708,-0.16518 -0.880281,-0.33602 z"
       id="path158"
       inkscape:connector-curvature="0"
       transform="matrix(0.26458333,0,0,0.26458333,0.91845,235.47329)" />
    <path
       style="fill:#ffff00;fill-opacity:1;stroke:none;stroke-width:0.96381396;stroke-linecap:round;stroke-linejoin:round;stroke-miterlimit:4;stroke-dasharray:none;stroke-dashoffset:0;stroke-opacity:1;paint-order:stroke fill markers"
       d="m 192.63166,193.67912 -0.81396,-0.86642 2.01619,-2.17773 c 2.39165,-2.58328 6.1121,-7.32562 8.0233,-10.22707 0.95781,-1.45407 1.60079,-2.07822 2.14093,-2.07822 0.8115,0 2.26882,-0.834 2.97932,-1.70501 0.36211,-0.44391 0.57402,-0.43534 1.53607,0.0622 0.61382,0.31742 1.11602,0.65712 1.11602,0.75489 0,0.84847 -6.1675,9.7813 -9.5342,13.80909 -1.99745,2.38966 -2.30852,2.62037 -3.53312,2.62037 -0.73856,0 -1.74192,0.15173 -2.2297,0.33719 -0.72554,0.27584 -1.03496,0.17956 -1.70085,-0.52925 z"
       id="path160"
       inkscape:connector-curvature="0"
       transform="matrix(0.26458333,0,0,0.26458333,0.91845,235.47329)" />
  </g>
</svg>
