<?xml version="1.0" encoding="UTF-8" standalone="no"?>
<!-- Created with Inkscape (http://www.inkscape.org/) -->

<svg
   xmlns:dc="http://purl.org/dc/elements/1.1/"
   xmlns:cc="http://creativecommons.org/ns#"
   xmlns:rdf="http://www.w3.org/1999/02/22-rdf-syntax-ns#"
   xmlns:svg="http://www.w3.org/2000/svg"
   xmlns="http://www.w3.org/2000/svg"
   xmlns:sodipodi="http://sodipodi.sourceforge.net/DTD/sodipodi-0.dtd"
   xmlns:inkscape="http://www.inkscape.org/namespaces/inkscape"
   width="30mm"
   height="30mm"
   viewBox="0 0 30 30"
   version="1.1"
   id="svg8"
   inkscape:version="0.92.4 (5da689c313, 2019-01-14)"
   sodipodi:docname="11-12.svg">
  <defs
     id="defs2">
    <marker
       inkscape:isstock="true"
       style="overflow:visible"
       id="marker9535"
       refX="0"
       refY="0"
       orient="auto"
       inkscape:stockid="Arrow2Mstart">
      <path
         inkscape:connector-curvature="0"
         transform="scale(0.6)"
         d="M 8.7185878,4.0337352 -2.2072895,0.01601326 8.7185884,-4.0017078 c -1.7454984,2.3720609 -1.7354408,5.6174519 -6e-7,8.035443 z"
         style="fill:#ff0000;fill-opacity:1;fill-rule:evenodd;stroke:#ff0000;stroke-width:0.625;stroke-linejoin:round;stroke-opacity:1"
         id="path9533" />
    </marker>
    <marker
       inkscape:stockid="Arrow2Mstart"
       orient="auto"
       refY="0"
       refX="0"
       id="marker7599"
       style="overflow:visible"
       inkscape:isstock="true">
      <path
         id="path7597"
         style="fill:#ff0000;fill-opacity:1;fill-rule:evenodd;stroke:#ff0000;stroke-width:0.625;stroke-linejoin:round;stroke-opacity:1"
         d="M 8.7185878,4.0337352 -2.2072895,0.01601326 8.7185884,-4.0017078 c -1.7454984,2.3720609 -1.7354408,5.6174519 -6e-7,8.035443 z"
         transform="scale(0.6)"
         inkscape:connector-curvature="0" />
    </marker>
    <marker
       inkscape:stockid="Arrow2Mstart"
       orient="auto"
       refY="0"
       refX="0"
       id="marker7445"
       style="overflow:visible"
       inkscape:isstock="true">
      <path
         id="path7443"
         style="fill:#ff0000;fill-opacity:1;fill-rule:evenodd;stroke:#ff0000;stroke-width:0.625;stroke-linejoin:round;stroke-opacity:1"
         d="M 8.7185878,4.0337352 -2.2072895,0.01601326 8.7185884,-4.0017078 c -1.7454984,2.3720609 -1.7354408,5.6174519 -6e-7,8.035443 z"
         transform="scale(0.6)"
         inkscape:connector-curvature="0" />
    </marker>
    <marker
       inkscape:isstock="true"
       style="overflow:visible"
       id="marker7297"
       refX="0"
       refY="0"
       orient="auto"
       inkscape:stockid="Arrow2Mstart">
      <path
         inkscape:connector-curvature="0"
         transform="scale(0.6)"
         d="M 8.7185878,4.0337352 -2.2072895,0.01601326 8.7185884,-4.0017078 c -1.7454984,2.3720609 -1.7354408,5.6174519 -6e-7,8.035443 z"
         style="fill:#ff0000;fill-opacity:1;fill-rule:evenodd;stroke:#ff0000;stroke-width:0.625;stroke-linejoin:round;stroke-opacity:1"
         id="path7295" />
    </marker>
    <marker
       inkscape:stockid="Arrow2Mstart"
       orient="auto"
       refY="0"
       refX="0"
       id="marker7155"
       style="overflow:visible"
       inkscape:isstock="true">
      <path
         id="path7153"
         style="fill:#ff0000;fill-opacity:1;fill-rule:evenodd;stroke:#ff0000;stroke-width:0.625;stroke-linejoin:round;stroke-opacity:1"
         d="M 8.7185878,4.0337352 -2.2072895,0.01601326 8.7185884,-4.0017078 c -1.7454984,2.3720609 -1.7354408,5.6174519 -6e-7,8.035443 z"
         transform="scale(0.6)"
         inkscape:connector-curvature="0" />
    </marker>
    <marker
       inkscape:stockid="Arrow2Mstart"
       orient="auto"
       refY="0"
       refX="0"
       id="marker6511"
       style="overflow:visible"
       inkscape:isstock="true">
      <path
         id="path6509"
         style="fill:#ff0000;fill-opacity:1;fill-rule:evenodd;stroke:#ff0000;stroke-width:0.625;stroke-linejoin:round;stroke-opacity:1"
         d="M 8.7185878,4.0337352 -2.2072895,0.01601326 8.7185884,-4.0017078 c -1.7454984,2.3720609 -1.7354408,5.6174519 -6e-7,8.035443 z"
         transform="scale(0.6)"
         inkscape:connector-curvature="0" />
    </marker>
    <marker
       inkscape:stockid="Arrow2Mstart"
       orient="auto"
       refY="0"
       refX="0"
       id="marker6387"
       style="overflow:visible"
       inkscape:isstock="true">
      <path
         id="path6385"
         style="fill:#ff0000;fill-opacity:1;fill-rule:evenodd;stroke:#ff0000;stroke-width:0.625;stroke-linejoin:round;stroke-opacity:1"
         d="M 8.7185878,4.0337352 -2.2072895,0.01601326 8.7185884,-4.0017078 c -1.7454984,2.3720609 -1.7354408,5.6174519 -6e-7,8.035443 z"
         transform="scale(0.6)"
         inkscape:connector-curvature="0" />
    </marker>
    <marker
       inkscape:stockid="Arrow2Mstart"
       orient="auto"
       refY="0"
       refX="0"
       id="marker6269"
       style="overflow:visible"
       inkscape:isstock="true">
      <path
         id="path6267"
         style="fill:#ff0000;fill-opacity:1;fill-rule:evenodd;stroke:#ff0000;stroke-width:0.625;stroke-linejoin:round;stroke-opacity:1"
         d="M 8.7185878,4.0337352 -2.2072895,0.01601326 8.7185884,-4.0017078 c -1.7454984,2.3720609 -1.7354408,5.6174519 -6e-7,8.035443 z"
         transform="scale(0.6)"
         inkscape:connector-curvature="0" />
    </marker>
    <marker
       inkscape:stockid="Arrow2Mstart"
       orient="auto"
       refY="0"
       refX="0"
       id="marker6157"
       style="overflow:visible"
       inkscape:isstock="true">
      <path
         id="path6155"
         style="fill:#ff0000;fill-opacity:1;fill-rule:evenodd;stroke:#ff0000;stroke-width:0.625;stroke-linejoin:round;stroke-opacity:1"
         d="M 8.7185878,4.0337352 -2.2072895,0.01601326 8.7185884,-4.0017078 c -1.7454984,2.3720609 -1.7354408,5.6174519 -6e-7,8.035443 z"
         transform="scale(0.6)"
         inkscape:connector-curvature="0" />
    </marker>
    <marker
       inkscape:stockid="Arrow1Mend"
       orient="auto"
       refY="0"
       refX="0"
       id="marker4021"
       style="overflow:visible"
       inkscape:isstock="true">
      <path
         id="path4019"
         d="M 0,0 5,-5 -12.5,0 5,5 Z"
         style="fill:#ff0000;fill-opacity:1;fill-rule:evenodd;stroke:#ff0000;stroke-width:1.00000003pt;stroke-opacity:1"
         transform="matrix(-0.4,0,0,-0.4,-4,0)"
         inkscape:connector-curvature="0" />
    </marker>
    <marker
       inkscape:isstock="true"
       style="overflow:visible"
       id="marker3285"
       refX="0"
       refY="0"
       orient="auto"
       inkscape:stockid="Arrow1Mend">
      <path
         inkscape:connector-curvature="0"
         transform="matrix(-0.4,0,0,-0.4,-4,0)"
         style="fill:#ff0000;fill-opacity:1;fill-rule:evenodd;stroke:#ff0000;stroke-width:1.00000003pt;stroke-opacity:1"
         d="M 0,0 5,-5 -12.5,0 5,5 Z"
         id="path3283" />
    </marker>
    <marker
       inkscape:stockid="Arrow1Mend"
       orient="auto"
       refY="0"
       refX="0"
       id="marker1225"
       style="overflow:visible"
       inkscape:isstock="true">
      <path
         id="path1223"
         d="M 0,0 5,-5 -12.5,0 5,5 Z"
         style="fill:#ff0000;fill-opacity:1;fill-rule:evenodd;stroke:#ff0000;stroke-width:1.00000003pt;stroke-opacity:1"
         transform="matrix(-0.4,0,0,-0.4,-4,0)"
         inkscape:connector-curvature="0" />
    </marker>
    <marker
       inkscape:stockid="Arrow1Mstart"
       orient="auto"
       refY="0"
       refX="0"
       id="Arrow1Mstart"
       style="overflow:visible"
       inkscape:isstock="true">
      <path
         id="path970"
         d="M 0,0 5,-5 -12.5,0 5,5 Z"
         style="fill:#0000ff;fill-opacity:1;fill-rule:evenodd;stroke:#0000ff;stroke-width:1.00000003pt;stroke-opacity:1"
         transform="matrix(0.4,0,0,0.4,4,0)"
         inkscape:connector-curvature="0" />
    </marker>
    <marker
       inkscape:isstock="true"
       style="overflow:visible"
       id="marker1161"
       refX="0"
       refY="0"
       orient="auto"
       inkscape:stockid="Arrow2Mend">
      <path
         transform="scale(-0.6)"
         d="M 8.7185878,4.0337352 -2.2072895,0.01601326 8.7185884,-4.0017078 c -1.7454984,2.3720609 -1.7354408,5.6174519 -6e-7,8.035443 z"
         style="fill:#000000;fill-opacity:1;fill-rule:evenodd;stroke:#000000;stroke-width:0.625;stroke-linejoin:round;stroke-opacity:1"
         id="path1159"
         inkscape:connector-curvature="0" />
    </marker>
    <marker
       inkscape:stockid="Arrow2Lend"
       orient="auto"
       refY="0"
       refX="0"
       id="Arrow2Lend"
       style="overflow:visible"
       inkscape:isstock="true">
      <path
         id="path852"
         style="fill:#ff0000;fill-opacity:1;fill-rule:evenodd;stroke:#ff0000;stroke-width:0.625;stroke-linejoin:round;stroke-opacity:1"
         d="M 8.7185878,4.0337352 -2.2072895,0.01601326 8.7185884,-4.0017078 c -1.7454984,2.3720609 -1.7354408,5.6174519 -6e-7,8.035443 z"
         transform="matrix(-1.1,0,0,-1.1,-1.1,0)"
         inkscape:connector-curvature="0" />
    </marker>
  </defs>
  <sodipodi:namedview
     id="base"
     pagecolor="#ffffff"
     bordercolor="#666666"
     borderopacity="1.0"
     inkscape:pageopacity="0.0"
     inkscape:pageshadow="2"
     inkscape:zoom="6.4558333"
     inkscape:cx="57.00271"
     inkscape:cy="56.692913"
     inkscape:document-units="mm"
     inkscape:current-layer="layer1"
     showgrid="false"
     inkscape:window-width="1920"
     inkscape:window-height="1009"
     inkscape:window-x="0"
     inkscape:window-y="0"
     inkscape:window-maximized="1"
     inkscape:snap-global="false" />
  <metadata
     id="metadata5">
    <rdf:RDF>
      <cc:Work
         rdf:about="">
        <dc:format>image/svg+xml</dc:format>
        <dc:type
           rdf:resource="http://purl.org/dc/dcmitype/StillImage" />
        <dc:title />
      </cc:Work>
    </rdf:RDF>
  </metadata>
  <g
     inkscape:label="Layer 1"
     inkscape:groupmode="layer"
     id="layer1"
     transform="translate(0,-267)">
    <g
       transform="matrix(0.17463689,0,0,0.17463689,6.6603253,273.88993)"
       id="g22" />
    <g
       transform="matrix(0.17463689,0,0,0.17463689,6.6603253,273.88993)"
       id="g24" />
    <g
       transform="matrix(0.17463689,0,0,0.17463689,6.6603253,273.88993)"
       id="g26" />
    <g
       transform="matrix(0.17463689,0,0,0.17463689,6.6603253,273.88993)"
       id="g28" />
    <g
       transform="matrix(0.17463689,0,0,0.17463689,6.6603253,273.88993)"
       id="g30" />
    <g
       transform="matrix(0.17463689,0,0,0.17463689,6.6603253,273.88993)"
       id="g32" />
    <g
       transform="matrix(0.17463689,0,0,0.17463689,6.6603253,273.88993)"
       id="g34" />
    <g
       transform="matrix(0.17463689,0,0,0.17463689,6.6603253,273.88993)"
       id="g36" />
    <g
       transform="matrix(0.17463689,0,0,0.17463689,6.6603253,273.88993)"
       id="g38" />
    <g
       transform="matrix(0.17463689,0,0,0.17463689,6.6603253,273.88993)"
       id="g40" />
    <g
       transform="matrix(0.17463689,0,0,0.17463689,6.6603253,273.88993)"
       id="g42" />
    <g
       transform="matrix(0.17463689,0,0,0.17463689,6.6603253,273.88993)"
       id="g44" />
    <g
       transform="matrix(0.17463689,0,0,0.17463689,6.6603253,273.88993)"
       id="g46" />
    <g
       transform="matrix(0.17463689,0,0,0.17463689,6.6603253,273.88993)"
       id="g48" />
    <g
       transform="matrix(0.17463689,0,0,0.17463689,6.6603253,273.88993)"
       id="g50" />
    <g
       style="font-style:normal;font-variant:normal;font-weight:normal;font-stretch:normal;font-size:4.23333311px;line-height:4.93888855px;font-family:Latin;-inkscape-font-specification:Latin;text-align:start;letter-spacing:0px;word-spacing:0px;text-anchor:start;fill:#000000;fill-opacity:1;stroke:none;stroke-width:0.26458332"
       id="text10487" />
    <g
       id="g5773"
       style="font-style:normal;font-variant:normal;font-weight:normal;font-stretch:normal;font-size:2.59619236px;line-height:3.02889132px;font-family:'GOST type B';-inkscape-font-specification:'GOST type B';text-align:start;letter-spacing:0px;word-spacing:0px;text-anchor:start;fill:#000000;fill-opacity:1;stroke:none;stroke-width:0.16226202"
       aria-label="0"
       transform="translate(0.10188575,0.29592063)">
      <path
         inkscape:connector-curvature="0"
         id="path5771"
         style="stroke-width:0.16226202"
         d="m 26.347681,282.27631 q 0,0.15845 -0.11409,0.27508 -0.112823,0.11536 -0.276353,0.11536 h -0.106484 q -0.158459,0 -0.275085,-0.11282 -0.115358,-0.11283 -0.115358,-0.27762 v -0.99386 q 0,-0.15592 0.11409,-0.27255 0.114091,-0.11789 0.276353,-0.11789 h 0.106484 q 0.158459,0 0.273818,0.11409 0.116625,0.11282 0.116625,0.27635 z m -0.177474,0 v -0.99386 q 0,-0.0875 -0.06212,-0.14959 -0.06085,-0.0634 -0.150853,-0.0634 H 25.85075 q -0.08747,0 -0.150853,0.0621 -0.06212,0.0621 -0.06212,0.15085 v 0.99386 q 0,0.0875 0.06212,0.15085 0.06212,0.0621 0.150853,0.0621 h 0.106484 q 0.0862,0 0.149586,-0.0608 0.06338,-0.0609 0.06338,-0.15212 z" />
    </g>
    <g
       id="g5777"
       style="font-style:normal;font-variant:normal;font-weight:normal;font-stretch:normal;font-size:2.59619236px;line-height:3.02889132px;font-family:'GOST type B';-inkscape-font-specification:'GOST type B';text-align:start;letter-spacing:0px;word-spacing:0px;text-anchor:start;fill:#000000;fill-opacity:1;stroke:none;stroke-width:0.16226202"
       aria-label="π"
       transform="translate(10.963689,-13.844416)">
      <path
         inkscape:connector-curvature="0"
         id="path5775"
         style="stroke-width:0.16226202"
         d="m 3.6523185,281.05933 h 1.3602121 v 0.23325 H 4.8337889 v 0.87216 q 0,0.0913 0.030424,0.13184 0.031692,0.0393 0.1014138,0.0393 0.019015,0 0.046904,-0.003 0.027889,-0.004 0.036763,-0.005 v 0.1686 q -0.044369,0.0165 -0.091272,0.0241 -0.046904,0.008 -0.093808,0.008 -0.1521207,0 -0.2104336,-0.0824 -0.058313,-0.0837 -0.058313,-0.30678 v -0.84681 H 4.071918 v 1.18655 H 3.8335956 v -1.18655 H 3.6523185 Z" />
    </g>
    <path
       sodipodi:nodetypes="sssss"
       inkscape:connector-curvature="0"
       id="path5809"
       d="m 15.392956,272.63247 c 5.17355,0 9.36754,4.19399 9.36754,9.36753 0,5.17355 -4.19399,9.36754 -9.36754,9.36754 -5.17355,0 -9.3675402,-4.19399 -9.3675402,-9.36754 0,-5.17354 4.1939902,-9.36753 9.3675402,-9.36753 z"
       style="fill:none;fill-opacity:1;stroke:#000000;stroke-width:0.22105262;stroke-linecap:round;stroke-linejoin:round;stroke-miterlimit:4;stroke-dasharray:none;stroke-dashoffset:0;stroke-opacity:0.8;paint-order:stroke markers fill" />
    <path
       sodipodi:nodetypes="cc"
       inkscape:connector-curvature="0"
       id="path5813"
       d="M 24.839786,282 H 5.9053557"
       style="fill:none;stroke:#000000;stroke-width:0.08819444;stroke-linecap:butt;stroke-linejoin:miter;stroke-opacity:1" />
    <path
       style="fill:none;stroke:#000000;stroke-width:0.08819444;stroke-linecap:butt;stroke-linejoin:miter;stroke-opacity:1"
       d="m 15.372566,272.53279 v 18.93443"
       id="path5815"
       inkscape:connector-curvature="0"
       sodipodi:nodetypes="cc" />
    <g
       aria-label="2"
       style="font-style:normal;font-variant:normal;font-weight:normal;font-stretch:normal;font-size:3.46515131px;line-height:4.04267645px;font-family:'GOST type B';-inkscape-font-specification:'GOST type B';text-align:start;letter-spacing:0px;word-spacing:0px;text-anchor:start;fill:#000000;fill-opacity:1;stroke:none;stroke-width:0.21657196"
       id="text187">
      <path
         d="m 15.823777,270.50226 -0.764769,1.21991 h 0.734314 q 0.04907,0 0.08291,0.0372 0.03553,0.0355 0.03553,0.0812 0,0.0406 -0.03046,0.0795 -0.02876,0.0389 -0.08798,0.0389 H 14.84582 q -0.12859,0 -0.12859,-0.0947 0,-0.0372 0.02876,-0.088 l 0.874748,-1.39418 q 0.04399,-0.0931 0.04399,-0.17766 0,-0.15227 -0.118438,-0.26394 -0.05583,-0.0525 -0.130281,-0.0829 -0.07445,-0.0304 -0.160737,-0.0304 -0.08967,0 -0.172581,0.0474 -0.08291,0.0524 -0.137049,0.13536 -0.01354,0.022 -0.04568,0.0423 l -0.05245,0.0118 q -0.04568,0 -0.0846,-0.0322 -0.03722,-0.0338 -0.03722,-0.0829 0,-0.0237 0.0203,-0.0677 0.08122,-0.1269 0.219956,-0.20811 0.06768,-0.0389 0.13705,-0.0609 0.06937,-0.022 0.135357,-0.022 0.277483,0 0.468675,0.18442 0.192885,0.18274 0.192885,0.43653 0,0.14551 -0.07614,0.29102 z"
         style="stroke-width:0.21657196"
         id="path1811" />
    </g>
    <g
       aria-label="-"
       transform="scale(1.2898346,0.7752932)"
       style="font-style:normal;font-variant:normal;font-weight:normal;font-stretch:normal;font-size:4.36669302px;line-height:5.09447527px;font-family:'GOST type B';-inkscape-font-specification:'GOST type B';text-align:start;letter-spacing:0px;word-spacing:0px;text-anchor:start;fill:#000000;fill-opacity:1;stroke:none;stroke-width:0.27291831"
       id="text191">
      <path
         d="m 12.470232,347.17327 h -1.194018 q -0.06823,0 -0.110873,-0.0426 -0.03838,-0.0448 -0.03838,-0.10661 0,-0.0533 0.03838,-0.10021 0.04051,-0.049 0.110873,-0.049 h 1.194018 q 0.06183,0 0.104477,0.0469 0.04477,0.0448 0.04477,0.10234 0,0.0512 -0.03838,0.10021 -0.03625,0.049 -0.110873,0.049 z"
         style="stroke-width:0.27291831"
         id="path1814" />
    </g>
    <g
       transform="translate(0.43090164,0.17197695)"
       aria-label="π"
       style="font-style:normal;font-variant:normal;font-weight:normal;font-stretch:normal;font-size:2.59619236px;line-height:3.02889132px;font-family:'GOST type B';-inkscape-font-specification:'GOST type B';text-align:start;letter-spacing:0px;word-spacing:0px;text-anchor:start;fill:#000000;fill-opacity:1;stroke:none;stroke-width:0.16226202"
       id="g195">
      <path
         d="m 3.6523185,281.05933 h 1.3602121 v 0.23325 H 4.8337889 v 0.87216 q 0,0.0913 0.030424,0.13184 0.031692,0.0393 0.1014138,0.0393 0.019015,0 0.046904,-0.003 0.027889,-0.004 0.036763,-0.005 v 0.1686 q -0.044369,0.0165 -0.091272,0.0241 -0.046904,0.008 -0.093808,0.008 -0.1521207,0 -0.2104336,-0.0824 -0.058313,-0.0837 -0.058313,-0.30678 v -0.84681 H 4.071918 v 1.18655 H 3.8335956 v -1.18655 H 3.6523185 Z"
         style="stroke-width:0.16226202"
         id="path193"
         inkscape:connector-curvature="0" />
    </g>
    <g
       id="g221"
       transform="translate(0.98360656,-0.04098361)">
      <g
         id="g199"
         style="font-style:normal;font-variant:normal;font-weight:normal;font-stretch:normal;font-size:2.59619236px;line-height:3.02889132px;font-family:'GOST type B';-inkscape-font-specification:'GOST type B';text-align:start;letter-spacing:0px;word-spacing:0px;text-anchor:start;fill:#000000;fill-opacity:1;stroke:none;stroke-width:0.16226202"
         aria-label="π"
         transform="translate(11.20959,11.032633)">
        <path
           inkscape:connector-curvature="0"
           id="path197"
           style="stroke-width:0.16226202"
           d="m 3.6523185,281.05933 h 1.3602121 v 0.23325 H 4.8337889 v 0.87216 q 0,0.0913 0.030424,0.13184 0.031692,0.0393 0.1014138,0.0393 0.019015,0 0.046904,-0.003 0.027889,-0.004 0.036763,-0.005 v 0.1686 q -0.044369,0.0165 -0.091272,0.0241 -0.046904,0.008 -0.093808,0.008 -0.1521207,0 -0.2104336,-0.0824 -0.058313,-0.0837 -0.058313,-0.30678 v -0.84681 H 4.071918 v 1.18655 H 3.8335956 v -1.18655 H 3.6523185 Z" />
      </g>
      <g
         aria-label="2"
         style="font-style:normal;font-variant:normal;font-weight:normal;font-stretch:normal;font-size:3.46515131px;line-height:4.04267645px;font-family:'GOST type B';-inkscape-font-specification:'GOST type B';text-align:start;letter-spacing:0px;word-spacing:0px;text-anchor:start;fill:#000000;fill-opacity:1;stroke:none;stroke-width:0.21657196"
         id="text203">
        <path
           d="m 16.069678,295.37931 -0.764769,1.2199 h 0.734314 q 0.04907,0 0.08291,0.0372 0.03553,0.0355 0.03553,0.0812 0,0.0406 -0.03046,0.0795 -0.02876,0.0389 -0.08798,0.0389 h -0.947502 q -0.12859,0 -0.12859,-0.0948 0,-0.0372 0.02876,-0.088 l 0.874747,-1.39418 q 0.04399,-0.0931 0.04399,-0.17766 0,-0.15228 -0.118437,-0.26395 -0.05584,-0.0524 -0.130282,-0.0829 -0.07445,-0.0305 -0.160737,-0.0305 -0.08967,0 -0.172581,0.0474 -0.08291,0.0524 -0.137049,0.13535 -0.01354,0.022 -0.04568,0.0423 l -0.05245,0.0118 q -0.04568,0 -0.0846,-0.0322 -0.03722,-0.0338 -0.03722,-0.0829 0,-0.0237 0.0203,-0.0677 0.08121,-0.12689 0.219955,-0.20811 0.06768,-0.0389 0.13705,-0.0609 0.06937,-0.022 0.135357,-0.022 0.277483,0 0.468676,0.18443 0.192884,0.18273 0.192884,0.43653 0,0.14551 -0.07614,0.29102 z"
           style="stroke-width:0.21657196"
           id="path1817" />
      </g>
      <g
         aria-label="-"
         transform="scale(1.2898346,0.7752932)"
         style="font-style:normal;font-variant:normal;font-weight:normal;font-stretch:normal;font-size:4.36669302px;line-height:5.09447527px;font-family:'GOST type B';-inkscape-font-specification:'GOST type B';text-align:start;letter-spacing:0px;word-spacing:0px;text-anchor:start;fill:#000000;fill-opacity:1;stroke:none;stroke-width:0.27291831"
         id="text207">
        <path
           d="m 12.660878,379.26055 h -1.194017 q -0.06823,0 -0.110873,-0.0426 -0.03838,-0.0448 -0.03838,-0.10661 0,-0.0533 0.03838,-0.10021 0.04051,-0.049 0.110873,-0.049 h 1.194017 q 0.06183,0 0.104477,0.0469 0.04477,0.0448 0.04477,0.10234 0,0.0512 -0.03838,0.10021 -0.03625,0.049 -0.110873,0.049 z"
           style="stroke-width:0.27291831"
           id="path1820" />
      </g>
      <g
         aria-label="-"
         style="font-style:normal;font-variant:normal;font-weight:normal;font-stretch:normal;font-size:4.23333311px;line-height:4.93888855px;font-family:'GOST type B';-inkscape-font-specification:'GOST type B';text-align:start;letter-spacing:0px;word-spacing:0px;text-anchor:start;fill:#000000;fill-opacity:1;stroke:none;stroke-width:0.26458332"
         id="text211">
        <path
           d="m 13.763766,294.04166 h -1.157552 q -0.06615,0 -0.107487,-0.0413 -0.03721,-0.0434 -0.03721,-0.10336 0,-0.0517 0.03721,-0.0971 0.03927,-0.0475 0.107487,-0.0475 h 1.157552 q 0.05994,0 0.101285,0.0455 0.04341,0.0434 0.04341,0.0992 0,0.0496 -0.03721,0.0971 -0.03514,0.0476 -0.107487,0.0476 z"
           style="stroke-width:0.26458332"
           id="path1823" />
      </g>
    </g>
    <path
       style="fill:#0000ff;fill-opacity:1;stroke:none;stroke-width:0.66666669;stroke-linecap:round;stroke-linejoin:bevel;stroke-miterlimit:4;stroke-dasharray:none;stroke-dashoffset:0;stroke-opacity:1;paint-order:markers fill stroke"
       d="m 15.983607,291.42621 a 0.57377046,0.57377046 0 0 1 -0.57377,0.57377 0.57377046,0.57377046 0 0 1 -0.573771,-0.57377 0.57377046,0.57377046 0 0 1 0.573771,-0.57377 0.57377046,0.57377046 0 0 1 0.57377,0.57377 z"
       id="circle225" />
  </g>
</svg>
