<?xml version="1.0" encoding="UTF-8" standalone="no"?>
<!-- Created with Inkscape (http://www.inkscape.org/) -->

<svg
   xmlns:dc="http://purl.org/dc/elements/1.1/"
   xmlns:cc="http://creativecommons.org/ns#"
   xmlns:rdf="http://www.w3.org/1999/02/22-rdf-syntax-ns#"
   xmlns:svg="http://www.w3.org/2000/svg"
   xmlns="http://www.w3.org/2000/svg"
   xmlns:sodipodi="http://sodipodi.sourceforge.net/DTD/sodipodi-0.dtd"
   xmlns:inkscape="http://www.inkscape.org/namespaces/inkscape"
   width="25.084791mm"
   height="24.889687mm"
   viewBox="0 0 25.084791 24.889687"
   version="1.1"
   id="svg8"
   inkscape:version="0.92.4 (5da689c313, 2019-01-14)"
   sodipodi:docname="11-16.svg">
  <defs
     id="defs2">
    <marker
       inkscape:isstock="true"
       style="overflow:visible"
       id="marker9535"
       refX="0"
       refY="0"
       orient="auto"
       inkscape:stockid="Arrow2Mstart">
      <path
         inkscape:connector-curvature="0"
         transform="scale(0.6)"
         d="M 8.7185878,4.0337352 -2.2072895,0.01601326 8.7185884,-4.0017078 c -1.7454984,2.3720609 -1.7354408,5.6174519 -6e-7,8.035443 z"
         style="fill:#ff0000;fill-opacity:1;fill-rule:evenodd;stroke:#ff0000;stroke-width:0.625;stroke-linejoin:round;stroke-opacity:1"
         id="path9533" />
    </marker>
    <marker
       inkscape:stockid="Arrow2Mstart"
       orient="auto"
       refY="0"
       refX="0"
       id="marker7599"
       style="overflow:visible"
       inkscape:isstock="true">
      <path
         id="path7597"
         style="fill:#ff0000;fill-opacity:1;fill-rule:evenodd;stroke:#ff0000;stroke-width:0.625;stroke-linejoin:round;stroke-opacity:1"
         d="M 8.7185878,4.0337352 -2.2072895,0.01601326 8.7185884,-4.0017078 c -1.7454984,2.3720609 -1.7354408,5.6174519 -6e-7,8.035443 z"
         transform="scale(0.6)"
         inkscape:connector-curvature="0" />
    </marker>
    <marker
       inkscape:stockid="Arrow2Mstart"
       orient="auto"
       refY="0"
       refX="0"
       id="marker7445"
       style="overflow:visible"
       inkscape:isstock="true">
      <path
         id="path7443"
         style="fill:#ff0000;fill-opacity:1;fill-rule:evenodd;stroke:#ff0000;stroke-width:0.625;stroke-linejoin:round;stroke-opacity:1"
         d="M 8.7185878,4.0337352 -2.2072895,0.01601326 8.7185884,-4.0017078 c -1.7454984,2.3720609 -1.7354408,5.6174519 -6e-7,8.035443 z"
         transform="scale(0.6)"
         inkscape:connector-curvature="0" />
    </marker>
    <marker
       inkscape:isstock="true"
       style="overflow:visible"
       id="marker7297"
       refX="0"
       refY="0"
       orient="auto"
       inkscape:stockid="Arrow2Mstart">
      <path
         inkscape:connector-curvature="0"
         transform="scale(0.6)"
         d="M 8.7185878,4.0337352 -2.2072895,0.01601326 8.7185884,-4.0017078 c -1.7454984,2.3720609 -1.7354408,5.6174519 -6e-7,8.035443 z"
         style="fill:#ff0000;fill-opacity:1;fill-rule:evenodd;stroke:#ff0000;stroke-width:0.625;stroke-linejoin:round;stroke-opacity:1"
         id="path7295" />
    </marker>
    <marker
       inkscape:stockid="Arrow2Mstart"
       orient="auto"
       refY="0"
       refX="0"
       id="marker7155"
       style="overflow:visible"
       inkscape:isstock="true">
      <path
         id="path7153"
         style="fill:#ff0000;fill-opacity:1;fill-rule:evenodd;stroke:#ff0000;stroke-width:0.625;stroke-linejoin:round;stroke-opacity:1"
         d="M 8.7185878,4.0337352 -2.2072895,0.01601326 8.7185884,-4.0017078 c -1.7454984,2.3720609 -1.7354408,5.6174519 -6e-7,8.035443 z"
         transform="scale(0.6)"
         inkscape:connector-curvature="0" />
    </marker>
    <marker
       inkscape:stockid="Arrow2Mstart"
       orient="auto"
       refY="0"
       refX="0"
       id="marker6511"
       style="overflow:visible"
       inkscape:isstock="true">
      <path
         id="path6509"
         style="fill:#ff0000;fill-opacity:1;fill-rule:evenodd;stroke:#ff0000;stroke-width:0.625;stroke-linejoin:round;stroke-opacity:1"
         d="M 8.7185878,4.0337352 -2.2072895,0.01601326 8.7185884,-4.0017078 c -1.7454984,2.3720609 -1.7354408,5.6174519 -6e-7,8.035443 z"
         transform="scale(0.6)"
         inkscape:connector-curvature="0" />
    </marker>
    <marker
       inkscape:stockid="Arrow2Mstart"
       orient="auto"
       refY="0"
       refX="0"
       id="marker6387"
       style="overflow:visible"
       inkscape:isstock="true">
      <path
         id="path6385"
         style="fill:#ff0000;fill-opacity:1;fill-rule:evenodd;stroke:#ff0000;stroke-width:0.625;stroke-linejoin:round;stroke-opacity:1"
         d="M 8.7185878,4.0337352 -2.2072895,0.01601326 8.7185884,-4.0017078 c -1.7454984,2.3720609 -1.7354408,5.6174519 -6e-7,8.035443 z"
         transform="scale(0.6)"
         inkscape:connector-curvature="0" />
    </marker>
    <marker
       inkscape:stockid="Arrow2Mstart"
       orient="auto"
       refY="0"
       refX="0"
       id="marker6269"
       style="overflow:visible"
       inkscape:isstock="true">
      <path
         id="path6267"
         style="fill:#ff0000;fill-opacity:1;fill-rule:evenodd;stroke:#ff0000;stroke-width:0.625;stroke-linejoin:round;stroke-opacity:1"
         d="M 8.7185878,4.0337352 -2.2072895,0.01601326 8.7185884,-4.0017078 c -1.7454984,2.3720609 -1.7354408,5.6174519 -6e-7,8.035443 z"
         transform="scale(0.6)"
         inkscape:connector-curvature="0" />
    </marker>
    <marker
       inkscape:stockid="Arrow2Mstart"
       orient="auto"
       refY="0"
       refX="0"
       id="marker6157"
       style="overflow:visible"
       inkscape:isstock="true">
      <path
         id="path6155"
         style="fill:#ff0000;fill-opacity:1;fill-rule:evenodd;stroke:#ff0000;stroke-width:0.625;stroke-linejoin:round;stroke-opacity:1"
         d="M 8.7185878,4.0337352 -2.2072895,0.01601326 8.7185884,-4.0017078 c -1.7454984,2.3720609 -1.7354408,5.6174519 -6e-7,8.035443 z"
         transform="scale(0.6)"
         inkscape:connector-curvature="0" />
    </marker>
    <marker
       inkscape:stockid="Arrow1Mend"
       orient="auto"
       refY="0"
       refX="0"
       id="marker4021"
       style="overflow:visible"
       inkscape:isstock="true">
      <path
         id="path4019"
         d="M 0,0 5,-5 -12.5,0 5,5 Z"
         style="fill:#ff0000;fill-opacity:1;fill-rule:evenodd;stroke:#ff0000;stroke-width:1.00000003pt;stroke-opacity:1"
         transform="matrix(-0.4,0,0,-0.4,-4,0)"
         inkscape:connector-curvature="0" />
    </marker>
    <marker
       inkscape:isstock="true"
       style="overflow:visible"
       id="marker3285"
       refX="0"
       refY="0"
       orient="auto"
       inkscape:stockid="Arrow1Mend">
      <path
         inkscape:connector-curvature="0"
         transform="matrix(-0.4,0,0,-0.4,-4,0)"
         style="fill:#ff0000;fill-opacity:1;fill-rule:evenodd;stroke:#ff0000;stroke-width:1.00000003pt;stroke-opacity:1"
         d="M 0,0 5,-5 -12.5,0 5,5 Z"
         id="path3283" />
    </marker>
    <marker
       inkscape:stockid="Arrow1Mend"
       orient="auto"
       refY="0"
       refX="0"
       id="marker1225"
       style="overflow:visible"
       inkscape:isstock="true">
      <path
         id="path1223"
         d="M 0,0 5,-5 -12.5,0 5,5 Z"
         style="fill:#ff0000;fill-opacity:1;fill-rule:evenodd;stroke:#ff0000;stroke-width:1.00000003pt;stroke-opacity:1"
         transform="matrix(-0.4,0,0,-0.4,-4,0)"
         inkscape:connector-curvature="0" />
    </marker>
    <marker
       inkscape:stockid="Arrow1Mstart"
       orient="auto"
       refY="0"
       refX="0"
       id="Arrow1Mstart"
       style="overflow:visible"
       inkscape:isstock="true">
      <path
         id="path970"
         d="M 0,0 5,-5 -12.5,0 5,5 Z"
         style="fill:#0000ff;fill-opacity:1;fill-rule:evenodd;stroke:#0000ff;stroke-width:1.00000003pt;stroke-opacity:1"
         transform="matrix(0.4,0,0,0.4,4,0)"
         inkscape:connector-curvature="0" />
    </marker>
    <marker
       inkscape:isstock="true"
       style="overflow:visible"
       id="marker1161"
       refX="0"
       refY="0"
       orient="auto"
       inkscape:stockid="Arrow2Mend">
      <path
         transform="scale(-0.6)"
         d="M 8.7185878,4.0337352 -2.2072895,0.01601326 8.7185884,-4.0017078 c -1.7454984,2.3720609 -1.7354408,5.6174519 -6e-7,8.035443 z"
         style="fill:#000000;fill-opacity:1;fill-rule:evenodd;stroke:#000000;stroke-width:0.625;stroke-linejoin:round;stroke-opacity:1"
         id="path1159"
         inkscape:connector-curvature="0" />
    </marker>
    <marker
       inkscape:stockid="Arrow2Lend"
       orient="auto"
       refY="0"
       refX="0"
       id="Arrow2Lend"
       style="overflow:visible"
       inkscape:isstock="true">
      <path
         id="path852"
         style="fill:#ff0000;fill-opacity:1;fill-rule:evenodd;stroke:#ff0000;stroke-width:0.625;stroke-linejoin:round;stroke-opacity:1"
         d="M 8.7185878,4.0337352 -2.2072895,0.01601326 8.7185884,-4.0017078 c -1.7454984,2.3720609 -1.7354408,5.6174519 -6e-7,8.035443 z"
         transform="matrix(-1.1,0,0,-1.1,-1.1,0)"
         inkscape:connector-curvature="0" />
    </marker>
  </defs>
  <sodipodi:namedview
     id="base"
     pagecolor="#ffffff"
     bordercolor="#666666"
     borderopacity="1.0"
     inkscape:pageopacity="0.0"
     inkscape:pageshadow="2"
     inkscape:zoom="6.4558333"
     inkscape:cx="46.676481"
     inkscape:cy="56.965103"
     inkscape:document-units="mm"
     inkscape:current-layer="layer1"
     showgrid="false"
     inkscape:window-width="1920"
     inkscape:window-height="1009"
     inkscape:window-x="0"
     inkscape:window-y="0"
     inkscape:window-maximized="1"
     inkscape:snap-global="false"
     fit-margin-top="1"
     fit-margin-right="1"
     fit-margin-left="1"
     fit-margin-bottom="1" />
  <metadata
     id="metadata5">
    <rdf:RDF>
      <cc:Work
         rdf:about="">
        <dc:format>image/svg+xml</dc:format>
        <dc:type
           rdf:resource="http://purl.org/dc/dcmitype/StillImage" />
        <dc:title />
      </cc:Work>
    </rdf:RDF>
  </metadata>
  <g
     inkscape:label="Layer 1"
     inkscape:groupmode="layer"
     id="layer1"
     transform="translate(-2.7321481,-272.18233)">
    <path
       inkscape:connector-curvature="0"
       id="path1058"
       d="m 9.3852457,274.95081 0.081967,19.18033"
       style="fill:none;stroke:#666666;stroke-width:0.17638889;stroke-linecap:butt;stroke-linejoin:miter;stroke-miterlimit:4;stroke-dasharray:0.52799999, 0.52799999;stroke-dashoffset:0;stroke-opacity:1"
       sodipodi:nodetypes="cc" />
    <g
       transform="matrix(0.17463689,0,0,0.17463689,6.6603253,276.63086)"
       id="g22" />
    <g
       transform="matrix(0.17463689,0,0,0.17463689,6.6603253,276.63086)"
       id="g24" />
    <g
       transform="matrix(0.17463689,0,0,0.17463689,6.6603253,276.63086)"
       id="g26" />
    <g
       transform="matrix(0.17463689,0,0,0.17463689,6.6603253,276.63086)"
       id="g28" />
    <g
       transform="matrix(0.17463689,0,0,0.17463689,6.6603253,276.63086)"
       id="g30" />
    <g
       transform="matrix(0.17463689,0,0,0.17463689,6.6603253,276.63086)"
       id="g32" />
    <g
       transform="matrix(0.17463689,0,0,0.17463689,6.6603253,276.63086)"
       id="g34" />
    <g
       transform="matrix(0.17463689,0,0,0.17463689,6.6603253,276.63086)"
       id="g36" />
    <g
       transform="matrix(0.17463689,0,0,0.17463689,6.6603253,276.63086)"
       id="g38" />
    <g
       transform="matrix(0.17463689,0,0,0.17463689,6.6603253,276.63086)"
       id="g40" />
    <g
       transform="matrix(0.17463689,0,0,0.17463689,6.6603253,276.63086)"
       id="g42" />
    <g
       transform="matrix(0.17463689,0,0,0.17463689,6.6603253,276.63086)"
       id="g44" />
    <g
       transform="matrix(0.17463689,0,0,0.17463689,6.6603253,276.63086)"
       id="g46" />
    <g
       transform="matrix(0.17463689,0,0,0.17463689,6.6603253,276.63086)"
       id="g48" />
    <g
       transform="matrix(0.17463689,0,0,0.17463689,6.6603253,276.63086)"
       id="g50" />
    <g
       style="font-style:normal;font-variant:normal;font-weight:normal;font-stretch:normal;font-size:4.23333311px;line-height:4.93888855px;font-family:Latin;-inkscape-font-specification:Latin;text-align:start;letter-spacing:0px;word-spacing:0px;text-anchor:start;fill:#000000;fill-opacity:1;stroke:none;stroke-width:0.26458332"
       id="text10487"
       transform="translate(0,2.7409303)" />
    <path
       sodipodi:nodetypes="sssss"
       inkscape:connector-curvature="0"
       id="path5809"
       d="m 15.005664,273.3938 c 6.147403,0 11.130856,4.98346 11.130856,11.13085 0,6.1474 -4.983453,11.13085 -11.130856,11.13085 -6.1474024,0 -11.130856,-4.98345 -11.130856,-11.13085 0,-6.14739 4.9834536,-11.13085 11.130856,-11.13085 z"
       style="fill:none;fill-opacity:1;stroke:#000000;stroke-width:0.26266286;stroke-linecap:round;stroke-linejoin:round;stroke-miterlimit:4;stroke-dasharray:none;stroke-dashoffset:0;stroke-opacity:0.8;paint-order:stroke markers fill" />
    <path
       sodipodi:nodetypes="cc"
       inkscape:connector-curvature="0"
       id="path5813"
       d="M 26.230736,284.52465 H 3.7321481"
       style="fill:none;stroke:#000000;stroke-width:0.10479588;stroke-linecap:butt;stroke-linejoin:miter;stroke-opacity:1" />
    <path
       style="fill:none;stroke:#000000;stroke-width:0.10479588;stroke-linecap:butt;stroke-linejoin:miter;stroke-opacity:1"
       d="m 14.981436,273.27536 v 22.49858"
       id="path5815"
       inkscape:connector-curvature="0"
       sodipodi:nodetypes="cc" />
    <g
       id="g124"
       transform="translate(15.614754,12.827869)">
      <path
         d="m -4.0333003,275.64774 h -1.6826443 q -0.096152,0 -0.1562454,-0.0296 -0.054087,-0.031 -0.054087,-0.074 0,-0.0371 0.054087,-0.0696 0.057089,-0.034 0.1562454,-0.034 h 1.6826443 q 0.087129,0 0.1472325,0.0326 0.063105,0.0311 0.063105,0.0711 0,0.0355 -0.054085,0.0696 -0.051066,0.0341 -0.1562348,0.0341 z"
         style="font-style:normal;font-variant:normal;font-weight:normal;font-stretch:normal;font-size:4.47492838px;line-height:5.22074986px;font-family:'GOST type B';-inkscape-font-specification:'GOST type B';text-align:start;letter-spacing:0px;word-spacing:0px;text-anchor:start;fill:#0000ff;fill-opacity:1;stroke:#ffffff;stroke-width:0.26998335;paint-order:stroke fill markers"
         id="path1109"
         inkscape:connector-curvature="0" />
      <g
         transform="translate(-22.704918,-1.9262295)"
         id="text119"
         style="font-style:normal;font-variant:normal;font-weight:normal;font-stretch:normal;font-size:2.5948019px;line-height:3.02726889px;font-family:'GOST type B';-inkscape-font-specification:'GOST type B';text-align:start;letter-spacing:0px;word-spacing:0px;text-anchor:start;fill:#0000ff;fill-opacity:1;stroke:#ffffff;stroke-width:0.16217512;paint-order:stroke fill markers"
         aria-label="2">
        <path
           inkscape:connector-curvature="0"
           id="path1106"
           style="fill:#0000ff;stroke:#ffffff;stroke-width:0.16217512;paint-order:stroke fill markers"
           d="m 18.261521,278.64832 -0.572681,0.9135 h 0.549875 q 0.03674,0 0.06208,0.0279 0.02661,0.0266 0.02661,0.0608 0,0.0304 -0.02281,0.0596 -0.02154,0.0291 -0.06588,0.0291 h -0.709516 q -0.09629,0 -0.09629,-0.0709 0,-0.0279 0.02154,-0.0659 l 0.655036,-1.044 q 0.03294,-0.0697 0.03294,-0.13304 0,-0.11402 -0.08869,-0.19765 -0.04181,-0.0393 -0.09756,-0.0621 -0.05575,-0.0228 -0.120364,-0.0228 -0.06715,0 -0.129233,0.0355 -0.06208,0.0393 -0.102627,0.10136 -0.01014,0.0165 -0.03421,0.0317 l -0.03928,0.009 q -0.03421,0 -0.06335,-0.0241 -0.02787,-0.0253 -0.02787,-0.0621 0,-0.0177 0.0152,-0.0507 0.06082,-0.095 0.164709,-0.15584 0.05068,-0.0291 0.102627,-0.0456 0.05195,-0.0165 0.101359,-0.0165 0.207787,0 0.350957,0.1381 0.144437,0.13683 0.144437,0.32688 0,0.10896 -0.05701,0.21793 z" />
      </g>
      <path
         d="m -6.5711659,275.69801 h -1.2933372 q -0.073905,0 -0.1200956,-0.0317 -0.041572,-0.0332 -0.041572,-0.0792 0,-0.0396 0.041572,-0.0745 0.043881,-0.0365 0.1200956,-0.0365 h 1.2933372 q 0.066976,0 0.1131672,0.0349 0.048501,0.0332 0.048501,0.076 0,0.0381 -0.041572,0.0745 -0.039263,0.0365 -0.1200962,0.0365 z"
         style="font-style:normal;font-variant:normal;font-weight:normal;font-stretch:normal;font-size:2.82222223px;line-height:4.93888855px;font-family:'GOST type B';-inkscape-font-specification:'GOST type B';text-align:start;letter-spacing:0px;word-spacing:0px;text-anchor:start;fill:#0000ff;fill-opacity:1;stroke:none;stroke-width:0.36734301"
         id="path94"
         inkscape:connector-curvature="0" />
      <path
         d="m -4.6401161,274.93632 q 0,0.0455 -0.027561,0.073 -0.026183,0.0234 -0.068902,0.0234 -0.038585,0 -0.067524,-0.0234 -0.028939,-0.0248 -0.028939,-0.073 v -1.50482 l -0.2218642,0.22187 q -0.028939,0.0289 -0.066146,0.0289 -0.034451,0 -0.067524,-0.0289 -0.030317,-0.0303 -0.030317,-0.0689 0,-0.0331 0.028939,-0.0661 l 0.3858507,-0.38585 q 0.019292,-0.0193 0.039963,-0.0303 0.020671,-0.0124 0.045475,-0.0124 0.023427,0 0.055122,0.0289 0.023427,0.0303 0.023427,0.0813 z"
         style="font-style:normal;font-variant:normal;font-weight:normal;font-stretch:normal;font-size:2.82222223px;line-height:4.93888855px;font-family:'GOST type B';-inkscape-font-specification:'GOST type B';text-align:start;letter-spacing:0px;word-spacing:0px;text-anchor:start;fill:#0000ff;fill-opacity:1;stroke:none;stroke-width:0.26458332"
         id="path96"
         inkscape:connector-curvature="0" />
    </g>
    <path
       inkscape:connector-curvature="0"
       id="path132"
       d="m 13.052734,273.34961 c -1.296698,0.22442 -2.571385,0.67769 -3.7656246,1.36719 a 0.26452644,0.26452644 0 1 0 0.2636718,0.45703 c 4.5590388,-2.63216 10.3421358,-1.63693 13.7597658,2.36719 3.41763,4.00411 3.491335,9.8719 0.175781,13.96093 -3.315554,4.08904 -9.071337,5.22923 -13.6953124,2.71289 a 0.26452644,0.26452644 0 1 0 -0.2519531,0.46485 c 4.8449995,2.63662 10.8853385,1.44074 14.3593755,-2.84375 3.474036,-4.28449 3.395444,-10.44317 -0.185547,-14.63867 -2.685744,-3.14664 -6.770062,-4.52093 -10.660157,-3.84766 z"
       style="color:#000000;font-style:normal;font-variant:normal;font-weight:normal;font-stretch:normal;font-size:medium;line-height:normal;font-family:sans-serif;font-variant-ligatures:normal;font-variant-position:normal;font-variant-caps:normal;font-variant-numeric:normal;font-variant-alternates:normal;font-feature-settings:normal;text-indent:0;text-align:start;text-decoration:none;text-decoration-line:none;text-decoration-style:solid;text-decoration-color:#000000;letter-spacing:normal;word-spacing:normal;text-transform:none;writing-mode:lr-tb;direction:ltr;text-orientation:mixed;dominant-baseline:auto;baseline-shift:baseline;text-anchor:start;white-space:normal;shape-padding:0;clip-rule:nonzero;display:inline;overflow:visible;visibility:visible;opacity:1;isolation:auto;mix-blend-mode:normal;color-interpolation:sRGB;color-interpolation-filters:linearRGB;solid-color:#000000;solid-opacity:1;vector-effect:none;fill:#ff0000;fill-opacity:1;fill-rule:nonzero;stroke:none;stroke-width:0.52899998;stroke-linecap:round;stroke-linejoin:round;stroke-miterlimit:4;stroke-dasharray:none;stroke-dashoffset:0;stroke-opacity:1;paint-order:stroke fill markers;color-rendering:auto;image-rendering:auto;shape-rendering:auto;text-rendering:auto;enable-background:accumulate" />
    <path
       inkscape:connector-curvature="0"
       d="m 24.04151,280.38665 -0.930761,-3.57577 3.025571,2.12092 c -0.934417,-0.0256 -1.778655,0.56463 -2.09481,1.45485 z"
       style="fill:#ff0000;fill-opacity:1;fill-rule:evenodd;stroke:#ff0000;stroke-width:0.19837499;stroke-linejoin:round;stroke-opacity:1"
       id="path1072" />
    <path
       inkscape:connector-curvature="0"
       d="m 20.707472,292.73509 3.378769,-1.49541 -1.605043,3.32809 c -0.1255,-0.92631 -0.844175,-1.66427 -1.773726,-1.83268 z"
       style="fill:#ff0000;fill-opacity:1;fill-rule:evenodd;stroke:#ff0000;stroke-width:0.19837499;stroke-linejoin:round;stroke-opacity:1"
       id="path1074" />
    <path
       style="fill:#0000ff;fill-opacity:1;stroke:none;stroke-width:0.79215795;stroke-linecap:round;stroke-linejoin:bevel;stroke-miterlimit:4;stroke-dasharray:none;stroke-dashoffset:0;stroke-opacity:1;paint-order:markers fill stroke"
       d="m 26.816939,284.54533 a 0.68177521,0.68177521 0 0 1 -0.681775,0.68177 0.68177521,0.68177521 0 0 1 -0.681775,-0.68177 0.68177521,0.68177521 0 0 1 0.681775,-0.68178 0.68177521,0.68177521 0 0 1 0.681775,0.68178 z"
       id="path112"
       inkscape:connector-curvature="0" />
    <path
       style="fill:none;stroke:#0000ff;stroke-width:0.5291667;stroke-linecap:butt;stroke-linejoin:miter;stroke-opacity:1"
       d="M 9.5081967,284.54098 H 26.311475"
       id="path126"
       inkscape:connector-curvature="0" />
    <path
       inkscape:connector-curvature="0"
       id="path110"
       d="m 10.095628,284.54533 a 0.68177521,0.68177521 0 0 1 -0.6817757,0.68177 0.68177521,0.68177521 0 0 1 -0.6817752,-0.68177 0.68177521,0.68177521 0 0 1 0.6817752,-0.68178 0.68177521,0.68177521 0 0 1 0.6817757,0.68178 z"
       style="fill:#ffffff;fill-opacity:1;stroke:#0000ff;stroke-width:0.25;stroke-linecap:round;stroke-linejoin:bevel;stroke-miterlimit:4;stroke-dasharray:none;stroke-dashoffset:0;stroke-opacity:1;paint-order:markers fill stroke" />
    <path
       style="fill:#ffffff;fill-opacity:1;stroke:#ff0000;stroke-width:0.25;stroke-linecap:round;stroke-linejoin:bevel;stroke-miterlimit:4;stroke-dasharray:none;stroke-dashoffset:0;stroke-opacity:1;paint-order:markers fill stroke"
       d="m 10.095628,274.8732 a 0.68177521,0.68177521 0 0 1 -0.6817757,0.68177 0.68177521,0.68177521 0 0 1 -0.6817752,-0.68177 0.68177521,0.68177521 0 0 1 0.6817752,-0.68178 0.68177521,0.68177521 0 0 1 0.6817757,0.68178 z"
       id="circle95"
       inkscape:connector-curvature="0" />
    <path
       inkscape:connector-curvature="0"
       id="path107"
       d="m 10.095628,294.25845 a 0.68177521,0.68177521 0 0 1 -0.6817757,0.68177 0.68177521,0.68177521 0 0 1 -0.6817752,-0.68177 0.68177521,0.68177521 0 0 1 0.6817752,-0.68178 0.68177521,0.68177521 0 0 1 0.6817757,0.68178 z"
       style="fill:#ffffff;fill-opacity:1;stroke:#ff0000;stroke-width:0.25;stroke-linecap:round;stroke-linejoin:bevel;stroke-miterlimit:4;stroke-dasharray:none;stroke-dashoffset:0;stroke-opacity:1;paint-order:markers fill stroke" />
  </g>
</svg>
