<?xml version="1.0" encoding="UTF-8" standalone="no"?>
<!-- Created with Inkscape (http://www.inkscape.org/) -->

<svg
   xmlns:dc="http://purl.org/dc/elements/1.1/"
   xmlns:cc="http://creativecommons.org/ns#"
   xmlns:rdf="http://www.w3.org/1999/02/22-rdf-syntax-ns#"
   xmlns:svg="http://www.w3.org/2000/svg"
   xmlns="http://www.w3.org/2000/svg"
   xmlns:sodipodi="http://sodipodi.sourceforge.net/DTD/sodipodi-0.dtd"
   xmlns:inkscape="http://www.inkscape.org/namespaces/inkscape"
   width="56.322571mm"
   height="43.230438mm"
   viewBox="0 0 56.322571 43.230439"
   version="1.1"
   id="svg8"
   inkscape:version="0.92.4 (5da689c313, 2019-01-14)"
   sodipodi:docname="13-03.svg">
  <defs
     id="defs2">
    <marker
       inkscape:isstock="true"
       style="overflow:visible"
       id="marker1066"
       refX="0"
       refY="0"
       orient="auto"
       inkscape:stockid="Arrow1Lend">
      <path
         inkscape:connector-curvature="0"
         transform="matrix(-0.8,0,0,-0.8,-10,0)"
         style="fill:#ffcc00;fill-opacity:1;fill-rule:evenodd;stroke:#ffcc00;stroke-width:1.00000003pt;stroke-opacity:1"
         d="M 0,0 5,-5 -12.5,0 5,5 Z"
         id="path1064" />
    </marker>
    <marker
       inkscape:isstock="true"
       style="overflow:visible"
       id="marker1289"
       refX="0"
       refY="0"
       orient="auto"
       inkscape:stockid="Arrow1Lend">
      <path
         transform="matrix(-0.8,0,0,-0.8,-10,0)"
         style="fill:#000000;fill-opacity:1;fill-rule:evenodd;stroke:#000000;stroke-width:1.00000003pt;stroke-opacity:1"
         d="M 0,0 5,-5 -12.5,0 5,5 Z"
         id="path1287"
         inkscape:connector-curvature="0" />
    </marker>
    <marker
       inkscape:stockid="Arrow1Lend"
       orient="auto"
       refY="0"
       refX="0"
       id="Arrow1Lend"
       style="overflow:visible"
       inkscape:isstock="true"
       inkscape:collect="always">
      <path
         id="path972"
         d="M 0,0 5,-5 -12.5,0 5,5 Z"
         style="fill:#000000;fill-opacity:1;fill-rule:evenodd;stroke:#000000;stroke-width:1.00000003pt;stroke-opacity:1"
         transform="matrix(-0.8,0,0,-0.8,-10,0)"
         inkscape:connector-curvature="0" />
    </marker>
    <marker
       inkscape:isstock="true"
       style="overflow:visible"
       id="marker919"
       refX="0"
       refY="0"
       orient="auto"
       inkscape:stockid="Arrow2Mend">
      <path
         transform="scale(-0.6)"
         d="M 8.7185878,4.0337352 -2.2072895,0.01601326 8.7185884,-4.0017078 c -1.7454984,2.3720609 -1.7354408,5.6174519 -6e-7,8.035443 z"
         style="fill:#000000;fill-opacity:1;fill-rule:evenodd;stroke:#000000;stroke-width:0.625;stroke-linejoin:round;stroke-opacity:1"
         id="path917"
         inkscape:connector-curvature="0" />
    </marker>
    <marker
       inkscape:isstock="true"
       style="overflow:visible"
       id="marker1206"
       refX="0"
       refY="0"
       orient="auto"
       inkscape:stockid="Arrow2Mstart">
      <path
         inkscape:connector-curvature="0"
         transform="scale(0.6)"
         d="M 8.7185878,4.0337352 -2.2072895,0.01601326 8.7185884,-4.0017078 c -1.7454984,2.3720609 -1.7354408,5.6174519 -6e-7,8.035443 z"
         style="fill:#ff0000;fill-opacity:1;fill-rule:evenodd;stroke:#ff0000;stroke-width:0.625;stroke-linejoin:round;stroke-opacity:1"
         id="path1204" />
    </marker>
    <marker
       inkscape:isstock="true"
       style="overflow:visible"
       id="marker892"
       refX="0"
       refY="0"
       orient="auto"
       inkscape:stockid="Arrow2Mend">
      <path
         inkscape:connector-curvature="0"
         transform="scale(-0.6)"
         d="M 8.7185878,4.0337352 -2.2072895,0.01601326 8.7185884,-4.0017078 c -1.7454984,2.3720609 -1.7354408,5.6174519 -6e-7,8.035443 z"
         style="fill:#000000;fill-opacity:1;fill-rule:evenodd;stroke:#000000;stroke-width:0.625;stroke-linejoin:round;stroke-opacity:1"
         id="path890" />
    </marker>
    <marker
       inkscape:stockid="Arrow1Mend"
       orient="auto"
       refY="0"
       refX="0"
       id="Arrow1Mend"
       style="overflow:visible"
       inkscape:isstock="true">
      <path
         id="path840"
         d="M 0,0 5,-5 -12.5,0 5,5 Z"
         style="fill:#ffcc00;fill-opacity:1;fill-rule:evenodd;stroke:#ffcc00;stroke-width:1.00000003pt;stroke-opacity:1"
         transform="matrix(-0.4,0,0,-0.4,-4,0)"
         inkscape:connector-curvature="0" />
    </marker>
    <marker
       inkscape:stockid="Arrow2Lend"
       orient="auto"
       refY="0"
       refX="0"
       id="Arrow2Lend"
       style="overflow:visible"
       inkscape:isstock="true">
      <path
         id="path852"
         style="fill:#ff0000;fill-opacity:0.8;fill-rule:evenodd;stroke:#ff0000;stroke-width:0.625;stroke-linejoin:round;stroke-opacity:0.8"
         d="M 8.7185878,4.0337352 -2.2072895,0.01601326 8.7185884,-4.0017078 c -1.7454984,2.3720609 -1.7354408,5.6174519 -6e-7,8.035443 z"
         transform="matrix(-1.1,0,0,-1.1,-1.1,0)"
         inkscape:connector-curvature="0" />
    </marker>
  </defs>
  <sodipodi:namedview
     id="base"
     pagecolor="#ffffff"
     bordercolor="#666666"
     borderopacity="1.0"
     inkscape:pageopacity="0.0"
     inkscape:pageshadow="2"
     inkscape:zoom="4.480061"
     inkscape:cx="106.43635"
     inkscape:cy="81.695316"
     inkscape:document-units="mm"
     inkscape:current-layer="layer1"
     showgrid="false"
     inkscape:window-width="1920"
     inkscape:window-height="1009"
     inkscape:window-x="0"
     inkscape:window-y="0"
     inkscape:window-maximized="1"
     inkscape:snap-global="false"
     fit-margin-top="1"
     fit-margin-left="1"
     fit-margin-right="1"
     fit-margin-bottom="1" />
  <metadata
     id="metadata5">
    <rdf:RDF>
      <cc:Work
         rdf:about="">
        <dc:format>image/svg+xml</dc:format>
        <dc:type
           rdf:resource="http://purl.org/dc/dcmitype/StillImage" />
        <dc:title />
      </cc:Work>
    </rdf:RDF>
  </metadata>
  <g
     inkscape:label="Layer 1"
     inkscape:groupmode="layer"
     id="layer1"
     transform="translate(-7.9280045,-255.14215)">
    <path
       sodipodi:nodetypes="cc"
       style="fill:none;stroke:#ff0000;stroke-width:0.26499999;stroke-linecap:butt;stroke-linejoin:miter;stroke-miterlimit:4;stroke-dasharray:0.79499996, 0.79499996;stroke-dashoffset:0;stroke-opacity:1"
       d="m 15.339777,260.42783 25.158704,0"
       id="path1158"
       inkscape:connector-curvature="0" />
    <path
       style="fill:#fff6d5;fill-opacity:1;stroke:#fff6d5;stroke-width:0.22356275;stroke-linecap:round;stroke-linejoin:round;stroke-miterlimit:4;stroke-dasharray:none;stroke-dashoffset:0;stroke-opacity:1;paint-order:stroke fill markers"
       d="m 94.699001,133.55223 c 0.0827,-0.62339 0.405862,-1.80362 0.718148,-2.62273 0.742183,-1.94672 0.768039,-2.3639 0.151939,-2.4516 -0.345418,-0.0492 -0.587302,0.11383 -0.828105,0.55803 -0.305745,0.564 -0.340148,-3.68616 -0.340018,-42.005865 l 1.44e-4,-42.633348 1.274384,-1.825683 c 4.683477,-6.709551 11.603247,-14.091736 15.816657,-16.87359 2.73,-1.802455 5.35807,-3.104453 7.82381,-3.876067 l 1.83064,-0.572873 0.65914,0.469347 c 0.36252,0.258141 0.7622,0.469347 0.88817,0.469347 0.12596,0 0.26113,0.226001 0.30036,0.502225 0.0934,0.657327 1.13953,0.718945 1.26365,0.07443 0.0453,-0.235288 0.4303,-0.755925 0.85553,-1.15697 0.77028,-0.726464 0.77828,-0.728358 2.15279,-0.509852 2.35327,0.3741 8.84457,3.137882 12.80093,5.450221 4.02964,2.355166 8.80363,5.882899 12.7925,9.453005 l 1.22304,1.094642 0.0346,44.163751 c 0.019,24.29006 -0.0167,44.87925 -0.0794,45.75375 -0.0971,1.35364 -0.1702,1.57531 -0.492,1.49116 -0.20789,-0.0544 -0.49732,0.0449 -0.64316,0.22068 -0.20986,0.25286 -0.13855,0.59369 0.34184,1.6338 0.41065,0.88909 0.636,1.80171 0.69658,2.82095 l 0.0896,1.50668 h -14.86874 c -9.76368,0 -14.86874,-0.0766 -14.86874,-0.22321 0,-0.12277 -0.30133,-0.22322 -0.66963,-0.22322 -0.3683,0 -0.66963,0.10045 -0.66963,0.22322 0,0.14646 -4.88304,0.22321 -14.20267,0.22321 H 94.548645 Z m 29.594249,-3.77721 v -1.56248 h -0.66963 -0.66963 v 1.41367 c 0,1.56949 0.0678,1.71129 0.81844,1.71129 0.49602,0 0.52082,-0.0744 0.52082,-1.56248 z m 0,-6.04153 v -1.5773 l -0.61383,0.0706 c -0.59438,0.0684 -0.61592,0.11836 -0.67983,1.57731 l -0.066,1.50667 h 0.67983 0.67983 z m 0,-6.0267 v -1.57731 l -0.61383,0.0706 c -0.59438,0.0684 -0.61592,0.11836 -0.67983,1.5773 l -0.066,1.50668 h 0.67983 0.67983 z m 0,-6.02671 v -1.5773 l -0.61383,0.0706 c -0.59438,0.0684 -0.61592,0.11836 -0.67983,1.5773 l -0.066,1.50668 h 0.67983 0.67983 z m 0,-6.0267 v -1.57731 l -0.61383,0.0706 c -0.59438,0.0684 -0.61592,0.11836 -0.67983,1.57731 l -0.066,1.50667 h 0.67983 0.67983 z m -0.0457,-5.971878 0.0659,-1.634082 -0.62393,0.0716 c -0.59526,0.06831 -0.62705,0.131991 -0.69179,1.385878 -0.0843,1.633042 0.0387,1.973302 0.6807,1.882142 0.46263,-0.0657 0.50854,-0.20327 0.56912,-1.705542 z m 0,-6.026703 0.0659,-1.634083 -0.62393,0.0716 c -0.59526,0.06831 -0.62705,0.131991 -0.69179,1.385878 -0.0843,1.633038 0.0387,1.973299 0.6807,1.882142 0.46263,-0.06569 0.50854,-0.203276 0.56912,-1.705541 z m 0.0457,-5.969926 v -1.68891 l -0.61383,0.07063 c -0.58305,0.06709 -0.61723,0.136525 -0.68169,1.384903 -0.0847,1.640852 0.0222,1.922288 0.73049,1.922288 0.55479,0 0.56503,-0.03063 0.56503,-1.688911 z m 0,-6.026703 v -1.688911 l -0.61383,0.07063 c -0.58305,0.06709 -0.61723,0.136525 -0.68169,1.384903 -0.0847,1.640853 0.0222,1.922289 0.73049,1.922289 0.55479,0 0.56503,-0.03063 0.56503,-1.688911 z m -0.046,-5.956076 c -0.0632,-1.559871 -0.0857,-1.618281 -0.62361,-1.618281 -0.52436,0 -0.56212,0.07928 -0.62589,1.314274 -0.0849,1.644962 0.0219,1.922289 0.74027,1.922289 0.57078,0 0.57435,-0.01134 0.50923,-1.618282 z m 0.046,-5.9709 v -1.562479 h -0.66963 -0.66963 v 1.41367 c 0,1.569492 0.0678,1.711287 0.81844,1.711287 0.49602,0 0.52082,-0.0744 0.52082,-1.562478 z m 0,-6.026704 v -1.562479 h -0.66963 -0.66963 v 1.413671 c 0,1.569492 0.0678,1.711287 0.81844,1.711287 0.49602,0 0.52082,-0.0744 0.52082,-1.562479 z m 0,-6.026704 v -1.562479 h -0.66963 -0.66963 v 1.413671 c 0,1.569492 0.0678,1.711287 0.81844,1.711287 0.49602,0 0.52082,-0.0744 0.52082,-1.562479 z m 0,-6.026703 v -1.562479 h -0.66963 -0.66963 v 1.41367 c 0,1.569492 0.0678,1.711287 0.81844,1.711287 0.49602,0 0.52082,-0.0744 0.52082,-1.562478 z m 0,-6.04153 v -1.577304 l -0.61383,0.07063 c -0.59438,0.06839 -0.61592,0.11836 -0.67983,1.577305 l -0.066,1.506676 h 0.67983 0.67983 z m 0,-6.026704 v -1.577305 l -0.61383,0.07063 c -0.59438,0.06839 -0.61592,0.118361 -0.67983,1.577305 l -0.066,1.506676 h 0.67983 0.67983 z m 0,-6.026704 V 31.97884 l -0.61383,0.07063 c -0.59438,0.06839 -0.61592,0.118361 -0.67983,1.577305 l -0.066,1.506676 h 0.67983 0.67983 z m 0,-6.026703 v -1.577305 l -0.61383,0.07063 c -0.59438,0.06839 -0.61592,0.11836 -0.67983,1.577305 l -0.066,1.506676 h 0.67983 0.67983 z"
       id="path1010"
       inkscape:connector-curvature="0"
       transform="matrix(0.26458333,0,0,0.26458333,7.9280045,255.14215)" />
    <path
       inkscape:connector-curvature="0"
       id="path1004"
       d="m 48.855181,264.82764 0,27.22574"
       style="fill:none;stroke:#008000;stroke-width:0.26499999;stroke-linecap:butt;stroke-linejoin:miter;stroke-miterlimit:4;stroke-dasharray:0.79499996, 0.79499996;stroke-dashoffset:0;stroke-opacity:1"
       sodipodi:nodetypes="cc" />
    <path
       sodipodi:nodetypes="cc"
       style="fill:none;stroke:#008000;stroke-width:0.26499999;stroke-linecap:butt;stroke-linejoin:miter;stroke-miterlimit:4;stroke-dasharray:0.79499996, 0.79499996;stroke-dashoffset:0;stroke-opacity:1"
       d="m 32.732354,266.42221 0,25.63117"
       id="path1002"
       inkscape:connector-curvature="0" />
    <path
       inkscape:connector-curvature="0"
       id="path1157"
       d="M 8.9280045,290.8994 H 62.908895"
       style="fill:none;stroke:#000000;stroke-width:0.176;stroke-linecap:butt;stroke-linejoin:miter;stroke-miterlimit:4;stroke-dasharray:none;stroke-opacity:1;marker-end:url(#marker1289)"
       sodipodi:nodetypes="cc" />
    <path
       style="fill:none;stroke:#000000;stroke-width:0.176;stroke-linecap:butt;stroke-linejoin:miter;stroke-miterlimit:4;stroke-dasharray:none;stroke-opacity:1;marker-end:url(#Arrow1Lend)"
       d="M 15.205011,297.37259 V 256.48383"
       id="path21"
       inkscape:connector-curvature="0"
       sodipodi:nodetypes="cc" />
    <g
       aria-label="4"
       transform="matrix(0.86992401,0,0,1.1495257,-40.368853,-49.501366)"
       style="font-style:normal;font-variant:normal;font-weight:normal;font-stretch:normal;font-size:4.8663249px;line-height:5.67737913px;font-family:'GOST type B';-inkscape-font-specification:'GOST type B';text-align:start;letter-spacing:0px;word-spacing:0px;text-anchor:start;fill:#ff0000;fill-opacity:1;stroke:none;stroke-width:0.30414531"
       id="g84" />
    <path
       style="fill:#ffff00;fill-opacity:1;stroke:#ff0000;stroke-width:0.96381396;stroke-linecap:round;stroke-linejoin:round;stroke-miterlimit:4;stroke-dasharray:none;stroke-dashoffset:0;stroke-opacity:1;paint-order:stroke fill markers"
       d=""
       id="path156"
       inkscape:connector-curvature="0"
       transform="matrix(0.26458333,0,0,0.26458333,0.91845,235.47329)" />
    <path
       style="fill:none;stroke:#0000ff;stroke-width:0.5291667;stroke-linecap:butt;stroke-linejoin:miter;stroke-opacity:1"
       d="m 10.358416,280.60928 c 2.633007,2.18441 6.155025,4.29652 9.671883,3.09851 3.782568,-1.45273 5.851611,-5.25685 7.819305,-8.55177 2.676215,-4.52937 4.749994,-9.67981 8.91042,-13.10021 1.694259,-1.29566 4.03299,-2.29237 6.091897,-1.22568 6.947472,2.56766 10.28317,10.01288 16.564006,13.56221"
       id="path3071"
       inkscape:connector-curvature="0" />
    <g
       aria-label="y"
       transform="skewX(-7.5244054)"
       style="font-style:normal;font-variant:normal;font-weight:normal;font-stretch:normal;font-size:4.23333311px;line-height:4.93888855px;font-family:'GOST type B';-inkscape-font-specification:'GOST type B';text-align:start;letter-spacing:0px;word-spacing:0px;text-anchor:start;fill:#000000;fill-opacity:1;stroke:none;stroke-width:0.26458332"
       id="text3857">
      <path
         d="m 46.584246,258.79153 -0.560172,-1.82314 -0.0083,-0.0496 q 0,-0.0558 0.04548,-0.10129 0.04547,-0.0393 0.103353,-0.0393 0.09715,0 0.136425,0.10335 l 0.434082,1.42007 0.446485,-1.42007 q 0.03514,-0.10335 0.136426,-0.10335 0.06408,0 0.105419,0.0393 0.04341,0.0372 0.04341,0.10129 l -0.0083,0.0496 -0.752408,2.39985 q -0.03101,0.12816 -0.142627,0.21704 -0.111621,0.0889 -0.256315,0.0889 h -0.144694 q -0.05374,0 -0.107487,-0.0434 -0.03721,-0.0434 -0.03721,-0.10129 0,-0.0579 0.03514,-0.10129 0.03721,-0.0434 0.109554,-0.0434 h 0.142627 q 0.04548,0 0.07441,-0.0289 0.03101,-0.0227 0.04961,-0.0703 z"
         style="stroke-width:0.26458332"
         id="path907" />
    </g>
    <g
       aria-label="x"
       transform="skewX(-7.5244054)"
       style="font-style:normal;font-variant:normal;font-weight:normal;font-stretch:normal;font-size:4.23333311px;line-height:4.93888855px;font-family:'GOST type B';-inkscape-font-specification:'GOST type B';text-align:start;letter-spacing:0px;word-spacing:0px;text-anchor:start;fill:#000000;fill-opacity:1;stroke:none;stroke-width:0.26458332"
       id="text3861">
      <path
         d="m 99.895574,288.34639 0.525036,0.78755 0.0207,0.0434 0.004,0.0393 q 0,0.0558 -0.0455,0.10128 l -0.0227,0.0186 -0.031,0.0145 -0.0537,0.008 q -0.06,0 -0.11576,-0.0641 l -0.456816,-0.68626 -0.45682,0.68626 q -0.04341,0.0661 -0.119889,0.0661 -0.04547,0 -0.101286,-0.0434 -0.04754,-0.0434 -0.04754,-0.10335 0,-0.0372 0.02481,-0.0806 l 0.525032,-0.78755 -0.525032,-0.78754 -0.02067,-0.0434 -0.0041,-0.0393 q 0,-0.0558 0.04341,-0.0992 0.04341,-0.0434 0.109554,-0.0434 0.05994,0 0.115755,0.0641 l 0.45682,0.68626 0.456816,-0.68626 q 0.0434,-0.0661 0.11989,-0.0661 0.0434,0 0.10336,0.0434 0.0455,0.0455 0.0455,0.10335 0,0.0372 -0.0248,0.0806 z"
         style="stroke-width:0.26458332"
         id="path910" />
    </g>
    <g
       aria-label="O"
       transform="skewX(-7.5244054)"
       style="font-style:normal;font-variant:normal;font-weight:normal;font-stretch:normal;font-size:4.23333311px;line-height:4.93888855px;font-family:'GOST type B';-inkscape-font-specification:'GOST type B';text-align:start;letter-spacing:0px;word-spacing:0px;text-anchor:start;fill:#000000;fill-opacity:1;stroke:none;stroke-width:0.26458332"
       id="text3865">
      <path
         d="m 52.819337,294.18349 q 0,0.23771 -0.169499,0.40928 -0.169498,0.1695 -0.409277,0.1695 h -0.578776 q -0.235644,0 -0.40721,-0.16743 -0.171566,-0.1695 -0.171566,-0.41135 v -1.73633 q 0,-0.24184 0.167432,-0.40927 0.169498,-0.1695 0.411344,-0.1695 h 0.578776 q 0.241846,0 0.409277,0.1695 0.169499,0.1695 0.169499,0.40927 z m -0.289388,0 v -1.73633 q 0,-0.12195 -0.08268,-0.20463 -0.08061,-0.0847 -0.206706,-0.0847 h -0.578776 q -0.121956,0 -0.206706,0.0827 -0.04134,0.0413 -0.06201,0.0951 -0.02067,0.0517 -0.02067,0.11162 v 1.73633 q 0,0.12196 0.08268,0.20671 0.04341,0.0372 0.09302,0.062 0.06201,0.0207 0.113688,0.0207 h 0.578776 q 0.119889,0 0.204639,-0.0806 0.08475,-0.0806 0.08475,-0.20877 z"
         style="stroke-width:0.26458332"
         id="path913" />
    </g>
    <path
       style="fill:#ff0000;fill-opacity:1;stroke:none;stroke-width:0.3168;stroke-linecap:round;stroke-linejoin:round;stroke-miterlimit:4;stroke-dasharray:1.26719997, 1.26719997;stroke-dashoffset:0;stroke-opacity:1;paint-order:stroke fill markers"
       d="m 18.739107,284.06764 a 0.64549178,0.64549178 0 0 1 -0.645491,0.6455 0.64549178,0.64549178 0 0 1 -0.645491,-0.6455 0.64549178,0.64549178 0 0 1 0.645491,-0.64549 0.64549178,0.64549178 0 0 1 0.645491,0.64549 z"
       id="path3847"
       inkscape:connector-curvature="0" />
    <path
       inkscape:connector-curvature="0"
       id="path51"
       d="m 41.240196,260.38539 a 0.64549178,0.64549178 0 0 1 -0.645491,0.6455 0.64549178,0.64549178 0 0 1 -0.645491,-0.6455 0.64549178,0.64549178 0 0 1 0.645491,-0.64549 0.64549178,0.64549178 0 0 1 0.645491,0.64549 z"
       style="fill:#ff0000;fill-opacity:1;stroke:none;stroke-width:0.3168;stroke-linecap:round;stroke-linejoin:round;stroke-miterlimit:4;stroke-dasharray:1.26719997, 1.26719997;stroke-dashoffset:0;stroke-opacity:1;paint-order:stroke fill markers" />
    <g
       id="g77"
       transform="translate(26.162683,19.961595)">
      <g
         aria-label="x"
         transform="matrix(1,0,-0.13208586,1,-69.688411,-15.296016)"
         style="font-style:normal;font-variant:normal;font-weight:normal;font-stretch:normal;font-size:4.23333311px;line-height:4.93888855px;font-family:'GOST type B';-inkscape-font-specification:'GOST type B';text-align:start;letter-spacing:0px;word-spacing:0px;text-anchor:start;fill:#000000;fill-opacity:1;stroke:none;stroke-width:0.26458332"
         id="g55">
        <path
           inkscape:connector-curvature="0"
           d="m 99.895574,288.34639 0.525036,0.78755 0.0207,0.0434 0.004,0.0393 q 0,0.0558 -0.0455,0.10128 l -0.0227,0.0186 -0.031,0.0145 -0.0537,0.008 q -0.06,0 -0.11576,-0.0641 l -0.456816,-0.68626 -0.45682,0.68626 q -0.04341,0.0661 -0.119889,0.0661 -0.04547,0 -0.101286,-0.0434 -0.04754,-0.0434 -0.04754,-0.10335 0,-0.0372 0.02481,-0.0806 l 0.525032,-0.78755 -0.525032,-0.78754 -0.02067,-0.0434 -0.0041,-0.0393 q 0,-0.0558 0.04341,-0.0992 0.04341,-0.0434 0.109554,-0.0434 0.05994,0 0.115755,0.0641 l 0.45682,0.68626 0.456812,-0.68626 q 0.0434,-0.0661 0.11989,-0.0661 0.0434,0 0.10336,0.0434 0.0455,0.0455 0.0455,0.10335 0,0.0372 -0.0248,0.0806 z"
           style="stroke-width:0.26458332"
           id="path53" />
      </g>
      <g
         aria-label="1"
         style="font-style:normal;font-variant:normal;font-weight:normal;font-stretch:normal;font-size:4.23333311px;line-height:4.93888855px;font-family:'GOST type B';-inkscape-font-specification:'GOST type B';text-align:start;letter-spacing:0px;word-spacing:0px;text-anchor:start;fill:#000000;fill-opacity:1;stroke:none;stroke-width:0.26458332"
         id="text59">
        <path
           d="m -6.5589056,275.23145 q 0,0.0512 -0.031006,0.0822 -0.029455,0.0264 -0.077515,0.0264 -0.043408,0 -0.075964,-0.0264 -0.032556,-0.0279 -0.032556,-0.0822 v -1.69292 l -0.2495972,0.24959 q -0.032556,0.0326 -0.074414,0.0326 -0.038757,0 -0.075964,-0.0326 -0.034107,-0.0341 -0.034107,-0.0775 0,-0.0372 0.032556,-0.0744 l 0.434082,-0.43408 q 0.021704,-0.0217 0.044958,-0.0341 0.023254,-0.014 0.05116,-0.014 0.026355,0 0.062012,0.0326 0.026355,0.0341 0.026355,0.0915 z"
           style="font-size:3.17499995px;stroke-width:0.26458332"
           id="path1146" />
      </g>
    </g>
    <g
       id="g93"
       transform="translate(48.250366,12.874638)">
      <g
         aria-label="x"
         transform="matrix(1,0,-0.13208586,1,-69.452179,-8.2090589)"
         style="font-style:normal;font-variant:normal;font-weight:normal;font-stretch:normal;font-size:4.23333311px;line-height:4.93888855px;font-family:'GOST type B';-inkscape-font-specification:'GOST type B';text-align:start;letter-spacing:0px;word-spacing:0px;text-anchor:start;fill:#000000;fill-opacity:1;stroke:none;stroke-width:0.26458332"
         id="g87">
        <path
           inkscape:connector-curvature="0"
           d="m 99.895574,288.34639 0.525036,0.78755 0.0207,0.0434 0.004,0.0393 q 0,0.0558 -0.0455,0.10128 l -0.0227,0.0186 -0.031,0.0145 -0.0537,0.008 q -0.06,0 -0.11576,-0.0641 l -0.456816,-0.68626 -0.45682,0.68626 q -0.04341,0.0661 -0.119889,0.0661 -0.04547,0 -0.101286,-0.0434 -0.04754,-0.0434 -0.04754,-0.10335 0,-0.0372 0.02481,-0.0806 l 0.525032,-0.78755 -0.525032,-0.78754 -0.02067,-0.0434 -0.0041,-0.0393 q 0,-0.0558 0.04341,-0.0992 0.04341,-0.0434 0.109554,-0.0434 0.05994,0 0.115755,0.0641 l 0.45682,0.68626 0.456812,-0.68626 q 0.0434,-0.0661 0.11989,-0.0661 0.0434,0 0.10336,0.0434 0.0455,0.0455 0.0455,0.10335 0,0.0372 -0.0248,0.0806 z"
           style="stroke-width:0.26458332"
           id="path85" />
      </g>
      <g
         aria-label="2"
         style="font-style:normal;font-variant:normal;font-weight:normal;font-stretch:normal;font-size:4.23333311px;line-height:4.93888855px;font-family:'GOST type B';-inkscape-font-specification:'GOST type B';text-align:start;letter-spacing:0px;word-spacing:0px;text-anchor:start;fill:#000000;fill-opacity:1;stroke:none;stroke-width:0.26458332"
         id="text91">
        <path
           d="m -5.969207,281.09211 -0.7007324,1.11776 h 0.6728271 q 0.044959,0 0.075964,0.0341 0.032556,0.0325 0.032556,0.0744 0,0.0372 -0.027905,0.0729 -0.026355,0.0357 -0.080615,0.0357 h -0.868164 q -0.1178223,0 -0.1178223,-0.0868 0,-0.0341 0.026355,-0.0806 l 0.8015014,-1.27744 q 0.040308,-0.0853 0.040308,-0.16278 0,-0.13953 -0.1085205,-0.24185 -0.05116,-0.0481 -0.1193725,-0.076 -0.068213,-0.0279 -0.1472778,-0.0279 -0.082166,0 -0.1581299,0.0434 -0.075964,0.0481 -0.1255738,0.12402 -0.012402,0.0202 -0.041858,0.0388 l -0.048059,0.0109 q -0.041858,0 -0.077515,-0.0294 -0.034106,-0.031 -0.034106,-0.076 0,-0.0217 0.018603,-0.062 0.074414,-0.11627 0.2015381,-0.19069 0.062012,-0.0357 0.1255737,-0.0558 0.063562,-0.0202 0.1240234,-0.0202 0.2542481,0 0.4294312,0.16898 0.1767334,0.16743 0.1767334,0.39998 0,0.13332 -0.069763,0.26665 z"
           style="font-size:3.17499995px;stroke-width:0.26458332"
           id="path1149" />
      </g>
    </g>
    <path
       style="fill:none;stroke:#ff0000;stroke-width:0.26499999;stroke-linecap:butt;stroke-linejoin:miter;stroke-opacity:1;stroke-miterlimit:4;stroke-dasharray:0.79499996,0.79499996;stroke-dashoffset:0"
       d="m 18.145034,284.19867 v 6.79167"
       id="path95"
       inkscape:connector-curvature="0" />
    <g
       id="g986"
       transform="translate(57.712728,6.0970031)">
      <g
         transform="translate(8.7996384,-6.4373194)"
         id="g83">
        <g
           aria-label="x"
           transform="matrix(1,0,-0.13208586,1,-69.452179,-8.2090589)"
           style="font-style:normal;font-variant:normal;font-weight:normal;font-stretch:normal;font-size:4.23333311px;line-height:4.93888855px;font-family:'GOST type B';-inkscape-font-specification:'GOST type B';text-align:start;letter-spacing:0px;word-spacing:0px;text-anchor:start;fill:#000000;fill-opacity:1;stroke:none;stroke-width:0.26458332"
           id="g63">
          <path
             inkscape:connector-curvature="0"
             d="m 99.895574,288.34639 0.525036,0.78755 0.0207,0.0434 0.004,0.0393 q 0,0.0558 -0.0455,0.10128 l -0.0227,0.0186 -0.031,0.0145 -0.0537,0.008 q -0.06,0 -0.11576,-0.0641 l -0.456816,-0.68626 -0.45682,0.68626 q -0.04341,0.0661 -0.119889,0.0661 -0.04547,0 -0.101286,-0.0434 -0.04754,-0.0434 -0.04754,-0.10335 0,-0.0372 0.02481,-0.0806 l 0.525032,-0.78755 -0.525032,-0.78754 -0.02067,-0.0434 -0.0041,-0.0393 q 0,-0.0558 0.04341,-0.0992 0.04341,-0.0434 0.109554,-0.0434 0.05994,0 0.115755,0.0641 l 0.45682,0.68626 0.456812,-0.68626 q 0.0434,-0.0661 0.11989,-0.0661 0.0434,0 0.10336,0.0434 0.0455,0.0455 0.0455,0.10335 0,0.0372 -0.0248,0.0806 z"
             style="stroke-width:0.26458332"
             id="path61" />
        </g>
        <g
           id="text67"
           style="font-style:normal;font-variant:normal;font-weight:normal;font-stretch:normal;font-size:4.23333311px;line-height:4.93888855px;font-family:'GOST type B';-inkscape-font-specification:'GOST type B';text-align:start;letter-spacing:0px;word-spacing:0px;text-anchor:start;fill:#000000;fill-opacity:1;stroke:none;stroke-width:0.26458332"
           aria-label="2">
          <path
             id="path973"
             style="font-size:3.17499995px;stroke-width:0.26458332"
             d="m -5.969207,281.09211 -0.7007324,1.11776 h 0.6728271 q 0.044959,0 0.075964,0.0341 0.032556,0.0325 0.032556,0.0744 0,0.0372 -0.027905,0.0729 -0.026355,0.0357 -0.080615,0.0357 h -0.868164 q -0.1178223,0 -0.1178223,-0.0868 0,-0.0341 0.026355,-0.0806 l 0.8015014,-1.27744 q 0.040308,-0.0853 0.040308,-0.16278 0,-0.13953 -0.1085205,-0.24185 -0.05116,-0.0481 -0.1193725,-0.076 -0.068213,-0.0279 -0.1472778,-0.0279 -0.082166,0 -0.1581299,0.0434 -0.075964,0.0481 -0.1255738,0.12402 -0.012402,0.0202 -0.041858,0.0388 l -0.048059,0.0109 q -0.041858,0 -0.077515,-0.0294 -0.034106,-0.031 -0.034106,-0.076 0,-0.0217 0.018603,-0.062 0.074414,-0.11627 0.2015381,-0.19069 0.062012,-0.0357 0.1255737,-0.0558 0.063562,-0.0202 0.1240234,-0.0202 0.2542481,0 0.4294312,0.16898 0.1767334,0.16743 0.1767334,0.39998 0,0.13332 -0.069763,0.26665 z"
             inkscape:connector-curvature="0" />
        </g>
      </g>
      <g
         id="text948"
         style="font-style:normal;font-variant:normal;font-weight:normal;font-stretch:normal;font-size:4.23333311px;line-height:4.93888855px;font-family:'GOST type B';-inkscape-font-specification:'GOST type B';text-align:start;letter-spacing:0px;word-spacing:0px;text-anchor:start;fill:#000000;fill-opacity:1;stroke:none;stroke-width:0.26458332"
         aria-label="ε">
        <path
           id="path970"
           style="font-size:3.52777767px;stroke-width:0.26458332"
           d="m -2.6716623,274.77202 q -0.1929254,-0.0413 -0.2962782,-0.15331 -0.1033529,-0.11024 -0.1033529,-0.27044 0,-0.24288 0.1963704,-0.37896 0.1946479,-0.13436 0.5322673,-0.13436 0.1309136,0 0.2773302,0.0207 0.1464165,0.0207 0.3152262,0.062 v 0.28766 q -0.1670871,-0.05 -0.304891,-0.0724 -0.1395263,-0.0224 -0.2618272,-0.0224 -0.2049832,0 -0.323839,0.0792 -0.1205783,0.0792 -0.1205783,0.18948 0,0.12058 0.1171332,0.19809 0.1154107,0.0758 0.3152263,0.0758 h 0.2669949 v 0.26183 h -0.2549371 q -0.235989,0 -0.3600125,0.0879 -0.1343587,0.0965 -0.1343587,0.24805 0,0.15503 0.144694,0.25149 0.1464166,0.0965 0.4065213,0.0965 0.1601969,0 0.3066135,-0.031 0.1464165,-0.0327 0.2687174,-0.0965 v 0.29456 q -0.1550293,0.0482 -0.2997233,0.0723 -0.1464165,0.0241 -0.2842204,0.0241 -0.4099663,0 -0.632175,-0.15675 -0.2222086,-0.15675 -0.2222086,-0.45475 0,-0.18604 0.1188558,-0.31178 0.1188558,-0.12575 0.3324517,-0.16709 z"
           inkscape:connector-curvature="0" />
      </g>
      <path
         d="m -3.511498,274.28875 q 0,0.23771 -0.1694987,0.40927 -0.1694986,0.1695 -0.4092773,0.1695 H -4.66905 q -0.2356445,0 -0.4072103,-0.16743 -0.1715657,-0.1695 -0.1715657,-0.41134 v -1.73633 q 0,-0.24185 0.1674316,-0.40928 0.1694987,-0.1695 0.4113444,-0.1695 h 0.578776 q 0.2418457,0 0.4092773,0.1695 0.1694987,0.1695 0.1694987,0.40928 z m -0.289388,0 v -1.73633 q 0,-0.12196 -0.082682,-0.20464 -0.080615,-0.0847 -0.2067057,-0.0847 H -4.66905 q -0.1219564,0 -0.2067057,0.0827 -0.041341,0.0413 -0.062012,0.0951 -0.020671,0.0517 -0.020671,0.11162 v 1.73633 q 0,0.12195 0.082682,0.2067 0.043408,0.0372 0.093018,0.062 0.062012,0.0207 0.1136881,0.0207 h 0.578776 q 0.1198894,0 0.2046387,-0.0806 0.084749,-0.0806 0.084749,-0.20877 z"
         style="font-style:normal;font-variant:normal;font-weight:normal;font-stretch:normal;font-size:4.23333311px;line-height:4.93888855px;font-family:'GOST type B';-inkscape-font-specification:'GOST type B';text-align:start;letter-spacing:0px;word-spacing:0px;text-anchor:start;fill:#000000;fill-opacity:1;stroke:none;stroke-width:0.26458332"
         id="path960"
         inkscape:connector-curvature="0" />
      <path
         d="m -0.50897298,275.11144 q 0.020671,0.0413 0.020671,0.0744 0,0.0558 -0.047542,0.0971 -0.045475,0.0413 -0.1054199,0.0413 -0.066146,0 -0.1219564,-0.0744 -0.1943034,-0.35967 -0.32039382,-0.81442 -0.047542,-0.18604 -0.080615,-0.41755 -0.033073,-0.23151 -0.033073,-0.44028 0,-0.8785 0.43408202,-1.67225 0.018603,-0.0351 0.053743,-0.0558 0.031006,-0.0145 0.07028,-0.0207 0.064079,0 0.107487,0.0413 0.043408,0.0372 0.043408,0.10129 0,0.031 -0.020671,0.0723 -0.047542,0.0847 -0.088884,0.1695 -0.039274,0.0827 -0.076481,0.17363 -0.03514,0.091 -0.068213,0.18811 -0.031006,0.0971 -0.062012,0.2067 -0.1033529,0.40308 -0.1033529,0.79582 0,0.81235 0.3989421,1.53376 z"
         style="font-style:normal;font-variant:normal;font-weight:normal;font-stretch:normal;font-size:4.23333311px;line-height:4.93888855px;font-family:'GOST type B';-inkscape-font-specification:'GOST type B';text-align:start;letter-spacing:0px;word-spacing:0px;text-anchor:start;fill:#000000;fill-opacity:1;stroke:none;stroke-width:0.26458332"
         id="path962"
         inkscape:connector-curvature="0" />
      <path
         d="m 3.7068922,275.24993 q -0.012402,0.0269 -0.051676,0.0537 l -0.03514,0.0145 -0.037207,0.006 q -0.057878,0 -0.10542,-0.0413 -0.045475,-0.0393 -0.045475,-0.0992 0,-0.031 0.020671,-0.0723 0.1798339,-0.3328 0.2955891,-0.74828 0.1033529,-0.40101 0.1033529,-0.78548 0,-0.22531 -0.022738,-0.40721 -0.020671,-0.1819 -0.074414,-0.38034 l -0.05581,-0.19017 -0.028939,-0.091 -0.037207,-0.0971 q -0.066146,-0.1695 -0.1798339,-0.36794 l -0.020671,-0.0765 q 0,-0.0496 0.047542,-0.093 0.047542,-0.0455 0.1054199,-0.0455 0.072347,0 0.1219564,0.0765 0.1054199,0.1943 0.1777669,0.38241 0.074414,0.1881 0.1426269,0.43201 0.047542,0.1819 0.080615,0.41548 0.033073,0.23358 0.033073,0.44235 0,0.24185 -0.026872,0.44855 -0.024805,0.20464 -0.082682,0.41341 -0.099219,0.42168 -0.324528,0.81029 z"
         style="font-style:normal;font-variant:normal;font-weight:normal;font-stretch:normal;font-size:4.23333311px;line-height:4.93888855px;font-family:'GOST type B';-inkscape-font-specification:'GOST type B';text-align:start;letter-spacing:0px;word-spacing:0px;text-anchor:start;fill:#000000;fill-opacity:1;stroke:none;stroke-width:0.26458332"
         id="path964"
         inkscape:connector-curvature="0" />
    </g>
    <path
       style="fill:none;stroke:#ffff00;stroke-width:1;stroke-linecap:butt;stroke-linejoin:miter;stroke-opacity:1"
       d="M 32.968586,290.16352 H 48.91424"
       id="path1012"
       inkscape:connector-curvature="0" />
    <g
       aria-label="("
       style="font-style:normal;font-variant:normal;font-weight:normal;font-stretch:normal;font-size:4.23333311px;line-height:4.93888855px;font-family:'GOST type B';-inkscape-font-specification:'GOST type B';text-align:start;letter-spacing:0px;word-spacing:0px;text-anchor:start;fill:#000000;fill-opacity:1;stroke:none;stroke-width:0.26458332"
       id="text990">
      <path
         d="m 33.319403,292.43419 q 0.02067,0.0413 0.02067,0.0744 0,0.0558 -0.04754,0.0972 -0.04547,0.0413 -0.10542,0.0413 -0.06615,0 -0.121957,-0.0744 -0.194303,-0.35967 -0.320393,-0.81442 -0.04754,-0.18603 -0.08062,-0.41754 -0.03307,-0.23151 -0.03307,-0.44029 0,-0.8785 0.434082,-1.67225 0.0186,-0.0351 0.05374,-0.0558 0.03101,-0.0145 0.07028,-0.0207 0.06408,0 0.107487,0.0413 0.04341,0.0372 0.04341,0.10129 0,0.031 -0.02067,0.0723 -0.04754,0.0848 -0.08888,0.1695 -0.03927,0.0827 -0.07648,0.17363 -0.03514,0.091 -0.06821,0.1881 -0.03101,0.0971 -0.06201,0.20671 -0.103353,0.40307 -0.103353,0.79581 0,0.81236 0.398943,1.53376 z"
         style="stroke-width:0.26458332"
         id="path1152" />
    </g>
    <g
       aria-label=")"
       style="font-style:normal;font-variant:normal;font-weight:normal;font-stretch:normal;font-size:4.23333311px;line-height:4.93888855px;font-family:'GOST type B';-inkscape-font-specification:'GOST type B';text-align:start;letter-spacing:0px;word-spacing:0px;text-anchor:start;fill:#000000;fill-opacity:1;stroke:none;stroke-width:0.26458332"
       id="text994">
      <path
         d="m 48.631065,292.57268 q -0.0124,0.0269 -0.05168,0.0538 l -0.03514,0.0145 -0.03721,0.006 q -0.05788,0 -0.10542,-0.0413 -0.04548,-0.0393 -0.04548,-0.0992 0,-0.031 0.02067,-0.0723 0.179834,-0.3328 0.295589,-0.74827 0.103353,-0.40101 0.103353,-0.78549 0,-0.22531 -0.02274,-0.40721 -0.02067,-0.1819 -0.07441,-0.38034 l -0.05581,-0.19016 -0.02894,-0.091 -0.03721,-0.0971 q -0.06615,-0.1695 -0.179834,-0.36793 l -0.02067,-0.0765 q 0,-0.0496 0.04754,-0.093 0.04754,-0.0455 0.10542,-0.0455 0.07235,0 0.121956,0.0765 0.10542,0.19431 0.177767,0.38241 0.07441,0.1881 0.142627,0.43201 0.04754,0.18191 0.08062,0.41548 0.03307,0.23358 0.03307,0.44235 0,0.24185 -0.02687,0.44855 -0.0248,0.20464 -0.08268,0.41342 -0.09922,0.42168 -0.324528,0.81028 z"
         style="stroke-width:0.26458332"
         id="path1155" />
    </g>
    <path
       style="fill:none;stroke:#ffcc00;stroke-width:0.265;stroke-linecap:butt;stroke-linejoin:miter;stroke-opacity:1;stroke-miterlimit:4;stroke-dasharray:none;marker-end:url(#Arrow1Mend)"
       d="m 51.316951,281.12559 -8.143259,8.35205"
       id="path1014"
       inkscape:connector-curvature="0" />
    <path
       inkscape:connector-curvature="0"
       id="path944"
       d="m 40.646123,260.45736 v 30.53298"
       style="fill:none;stroke:#ff0000;stroke-width:0.26499999;stroke-linecap:butt;stroke-linejoin:miter;stroke-miterlimit:4;stroke-dasharray:0.79499996, 0.79499996;stroke-dashoffset:0;stroke-opacity:1"
       sodipodi:nodetypes="cc" />
  </g>
</svg>
