<?xml version="1.0" encoding="UTF-8" standalone="no"?>
<!-- Created with Inkscape (http://www.inkscape.org/) -->

<svg
   xmlns:dc="http://purl.org/dc/elements/1.1/"
   xmlns:cc="http://creativecommons.org/ns#"
   xmlns:rdf="http://www.w3.org/1999/02/22-rdf-syntax-ns#"
   xmlns:svg="http://www.w3.org/2000/svg"
   xmlns="http://www.w3.org/2000/svg"
   xmlns:xlink="http://www.w3.org/1999/xlink"
   xmlns:sodipodi="http://sodipodi.sourceforge.net/DTD/sodipodi-0.dtd"
   xmlns:inkscape="http://www.inkscape.org/namespaces/inkscape"
   width="50mm"
   height="50mm"
   viewBox="0 0 50 50.000001"
   version="1.1"
   id="svg8"
   inkscape:version="0.92.4 (5da689c313, 2019-01-14)"
   sodipodi:docname="13-14.svg">
  <defs
     id="defs2">
    <linearGradient
       inkscape:collect="always"
       id="linearGradient2403">
      <stop
         style="stop-color:#c87137;stop-opacity:1"
         offset="0"
         id="stop2399" />
      <stop
         style="stop-color:#f4e3d7;stop-opacity:1"
         offset="1"
         id="stop2401" />
    </linearGradient>
    <linearGradient
       inkscape:collect="always"
       id="linearGradient2395">
      <stop
         style="stop-color:#d38d5f;stop-opacity:1"
         offset="0"
         id="stop2391" />
      <stop
         style="stop-color:#f4e3d7;stop-opacity:1"
         offset="1"
         id="stop2393" />
    </linearGradient>
    <linearGradient
       inkscape:collect="always"
       id="linearGradient2387">
      <stop
         style="stop-color:#c87137;stop-opacity:1"
         offset="0"
         id="stop2383" />
      <stop
         style="stop-color:#e9c6af;stop-opacity:1"
         offset="1"
         id="stop2385" />
    </linearGradient>
    <marker
       inkscape:isstock="true"
       style="overflow:visible"
       id="marker1066"
       refX="0"
       refY="0"
       orient="auto"
       inkscape:stockid="Arrow1Lend">
      <path
         inkscape:connector-curvature="0"
         transform="matrix(-0.8,0,0,-0.8,-10,0)"
         style="fill:#ffcc00;fill-opacity:1;fill-rule:evenodd;stroke:#ffcc00;stroke-width:1.00000003pt;stroke-opacity:1"
         d="M 0,0 5,-5 -12.5,0 5,5 Z"
         id="path1064" />
    </marker>
    <marker
       inkscape:isstock="true"
       style="overflow:visible"
       id="marker1289"
       refX="0"
       refY="0"
       orient="auto"
       inkscape:stockid="Arrow1Lend">
      <path
         transform="matrix(-0.8,0,0,-0.8,-10,0)"
         style="fill:#000000;fill-opacity:1;fill-rule:evenodd;stroke:#000000;stroke-width:1.00000003pt;stroke-opacity:1"
         d="M 0,0 5,-5 -12.5,0 5,5 Z"
         id="path1287"
         inkscape:connector-curvature="0" />
    </marker>
    <marker
       inkscape:isstock="true"
       style="overflow:visible"
       id="marker919"
       refX="0"
       refY="0"
       orient="auto"
       inkscape:stockid="Arrow2Mend">
      <path
         transform="scale(-0.6)"
         d="M 8.7185878,4.0337352 -2.2072895,0.01601326 8.7185884,-4.0017078 c -1.7454984,2.3720609 -1.7354408,5.6174519 -6e-7,8.035443 z"
         style="fill:#000000;fill-opacity:1;fill-rule:evenodd;stroke:#000000;stroke-width:0.625;stroke-linejoin:round;stroke-opacity:1"
         id="path917"
         inkscape:connector-curvature="0" />
    </marker>
    <marker
       inkscape:isstock="true"
       style="overflow:visible"
       id="marker1206"
       refX="0"
       refY="0"
       orient="auto"
       inkscape:stockid="Arrow2Mstart">
      <path
         inkscape:connector-curvature="0"
         transform="scale(0.6)"
         d="M 8.7185878,4.0337352 -2.2072895,0.01601326 8.7185884,-4.0017078 c -1.7454984,2.3720609 -1.7354408,5.6174519 -6e-7,8.035443 z"
         style="fill:#ff0000;fill-opacity:1;fill-rule:evenodd;stroke:#ff0000;stroke-width:0.625;stroke-linejoin:round;stroke-opacity:1"
         id="path1204" />
    </marker>
    <marker
       inkscape:isstock="true"
       style="overflow:visible"
       id="marker892"
       refX="0"
       refY="0"
       orient="auto"
       inkscape:stockid="Arrow2Mend">
      <path
         inkscape:connector-curvature="0"
         transform="scale(-0.6)"
         d="M 8.7185878,4.0337352 -2.2072895,0.01601326 8.7185884,-4.0017078 c -1.7454984,2.3720609 -1.7354408,5.6174519 -6e-7,8.035443 z"
         style="fill:#000000;fill-opacity:1;fill-rule:evenodd;stroke:#000000;stroke-width:0.625;stroke-linejoin:round;stroke-opacity:1"
         id="path890" />
    </marker>
    <marker
       inkscape:stockid="Arrow1Mend"
       orient="auto"
       refY="0"
       refX="0"
       id="Arrow1Mend"
       style="overflow:visible"
       inkscape:isstock="true">
      <path
         id="path840"
         d="M 0,0 5,-5 -12.5,0 5,5 Z"
         style="fill:#ffcc00;fill-opacity:1;fill-rule:evenodd;stroke:#ffcc00;stroke-width:1.00000003pt;stroke-opacity:1"
         transform="matrix(-0.4,0,0,-0.4,-4,0)"
         inkscape:connector-curvature="0" />
    </marker>
    <marker
       inkscape:stockid="Arrow2Lend"
       orient="auto"
       refY="0"
       refX="0"
       id="Arrow2Lend"
       style="overflow:visible"
       inkscape:isstock="true">
      <path
         id="path852"
         style="fill:#ff0000;fill-opacity:0.8;fill-rule:evenodd;stroke:#ff0000;stroke-width:0.625;stroke-linejoin:round;stroke-opacity:0.8"
         d="M 8.7185878,4.0337352 -2.2072895,0.01601326 8.7185884,-4.0017078 c -1.7454984,2.3720609 -1.7354408,5.6174519 -6e-7,8.035443 z"
         transform="matrix(-1.1,0,0,-1.1,-1.1,0)"
         inkscape:connector-curvature="0" />
    </marker>
    <linearGradient
       inkscape:collect="always"
       xlink:href="#linearGradient2387"
       id="linearGradient2389"
       x1="20.611887"
       y1="98.556358"
       x2="91.688232"
       y2="13.878414"
       gradientUnits="userSpaceOnUse" />
    <linearGradient
       inkscape:collect="always"
       xlink:href="#linearGradient2395"
       id="linearGradient2397"
       x1="94.704689"
       y1="142.99242"
       x2="172.57774"
       y2="71.480865"
       gradientUnits="userSpaceOnUse" />
    <linearGradient
       inkscape:collect="always"
       xlink:href="#linearGradient2403"
       id="linearGradient2405"
       x1="46.319992"
       y1="133.26796"
       x2="133.66174"
       y2="58.916599"
       gradientUnits="userSpaceOnUse" />
  </defs>
  <sodipodi:namedview
     id="base"
     pagecolor="#ffffff"
     bordercolor="#666666"
     borderopacity="1.0"
     inkscape:pageopacity="0.0"
     inkscape:pageshadow="2"
     inkscape:zoom="3.8735"
     inkscape:cx="32.270556"
     inkscape:cy="94.488189"
     inkscape:document-units="mm"
     inkscape:current-layer="layer1"
     showgrid="false"
     inkscape:window-width="1920"
     inkscape:window-height="1009"
     inkscape:window-x="0"
     inkscape:window-y="0"
     inkscape:window-maximized="1"
     inkscape:snap-global="false"
     fit-margin-top="1"
     fit-margin-left="1"
     fit-margin-right="1"
     fit-margin-bottom="1" />
  <metadata
     id="metadata5">
    <rdf:RDF>
      <cc:Work
         rdf:about="">
        <dc:format>image/svg+xml</dc:format>
        <dc:type
           rdf:resource="http://purl.org/dc/dcmitype/StillImage" />
        <dc:title />
      </cc:Work>
    </rdf:RDF>
  </metadata>
  <g
     inkscape:label="Layer 1"
     inkscape:groupmode="layer"
     id="layer1"
     transform="translate(-8.5526847,-243.73196)">
    <path
       id="path36"
       style="fill:#ffe480;stroke:#e9c6af;stroke-width:0.32324463px;stroke-linecap:butt;stroke-linejoin:miter;stroke-opacity:1;fill-opacity:1"
       d="m 35.83266,283.38875 -25.201982,-15.4383 m 0,0 2.002806,10.51474 14.436898,8.92917 8.762278,-4.00561"
       inkscape:connector-curvature="0" />
    <path
       d="m 57.780084,260.35647 -25.201983,-15.4383 m 0,0 2.002807,10.51474 14.436898,8.92918 8.762278,-4.00562"
       style="fill:#fff6d5;stroke:#e9c6af;stroke-width:0.32324463px;stroke-linecap:butt;stroke-linejoin:miter;stroke-opacity:1"
       id="path39"
       inkscape:connector-curvature="0" />
    <path
       style="fill:none;stroke:#e9c6af;stroke-width:1.05799997;stroke-linecap:butt;stroke-linejoin:round;stroke-miterlimit:4;stroke-dasharray:none;stroke-opacity:1"
       d="M 35.559436,283.25214 57.506857,260.21986"
       id="path41"
       inkscape:connector-curvature="0" />
    <path
       inkscape:connector-curvature="0"
       id="path43"
       d="M 32.744999,281.55284 49.017806,264.36209"
       style="fill:none;stroke:#e9c6af;stroke-width:0.32324463px;stroke-linecap:butt;stroke-linejoin:miter;stroke-opacity:1"
       sodipodi:nodetypes="cc" />
    <path
       sodipodi:nodetypes="cc"
       style="fill:#d38d5f;stroke:#e9c6af;stroke-width:1.05799997;stroke-linecap:butt;stroke-linejoin:round;stroke-miterlimit:4;stroke-dasharray:none;stroke-opacity:1"
       d="M 10.903902,268.29198 32.851325,245.2597"
       id="path45"
       inkscape:connector-curvature="0" />
    <path
       sodipodi:nodetypes="cc"
       style="fill:none;stroke:#e9c6af;stroke-width:0.32324463px;stroke-linecap:butt;stroke-linejoin:miter;stroke-opacity:1"
       d="M 18.308101,272.62367 34.580908,255.43291"
       id="path47"
       inkscape:connector-curvature="0" />
    <path
       style="fill:url(#linearGradient2389);fill-opacity:1;stroke:#e9c6af;stroke-width:1.03233254;stroke-linecap:butt;stroke-linejoin:round;stroke-miterlimit:4;stroke-dasharray:none;stroke-dashoffset:0;stroke-opacity:1;paint-order:stroke fill markers"
       d="M 24.167029,100.72286 C 17.384444,96.56964 11.834638,93.075338 11.834128,92.957744 11.833156,92.733737 90.934426,9.6298341 91.044162,9.7395716 c 0.0347,0.034701 1.529851,7.7570944 3.322555,17.1608744 l 3.259461,17.09778 -2.020782,2.153508 C 84.884291,57.576998 36.776703,108.27417 36.65614,108.27417 c -0.08643,0 -5.706525,-3.39809 -12.489111,-7.55131 z"
       id="path899"
       inkscape:connector-curvature="0"
       transform="matrix(0.26458333,0,0,0.26458333,8.5526847,243.73196)" />
    <path
       style="fill:url(#linearGradient2397);fill-opacity:1;stroke:#e9c6af;stroke-width:1.03233254;stroke-linecap:butt;stroke-linejoin:round;stroke-miterlimit:4;stroke-dasharray:none;stroke-dashoffset:0;stroke-opacity:1;paint-order:stroke fill markers"
       d="m 99.264231,146.73849 c -0.851942,-0.53613 -2.6911,-1.67192 -4.087017,-2.52399 l -2.53803,-1.54922 30.249166,-31.97547 30.24916,-31.975469 11.63499,-5.359356 c 6.39924,-2.947645 11.67473,-5.319609 11.72331,-5.27103 0.0486,0.04858 -16.94557,17.969519 -37.76479,39.824315 -20.81921,21.85479 -37.86767,39.75151 -37.88546,39.77049 -0.0178,0.019 -0.72939,-0.40413 -1.581329,-0.94027 z"
       id="path901"
       inkscape:connector-curvature="0"
       transform="matrix(0.26458333,0,0,0.26458333,8.5526847,243.73196)" />
    <path
       style="fill:url(#linearGradient2405);fill-opacity:1;stroke:#e9c6af;stroke-width:1.03233254;stroke-linecap:butt;stroke-linejoin:round;stroke-miterlimit:4;stroke-dasharray:none;stroke-dashoffset:0;stroke-opacity:1;paint-order:stroke fill markers"
       d="M 64.670195,125.54169 C 50.045179,116.58282 38.040566,109.21661 37.993277,109.17234 37.867796,109.05486 98.304469,45.264898 98.544908,45.261044 c 0.226221,-0.0036 52.427782,32.204259 52.924592,32.653984 0.23861,0.216001 -6.91528,7.922716 -29.73362,32.031322 -16.52631,17.46079 -30.143888,31.77779 -30.261289,31.81554 -0.117402,0.0378 -12.17938,-7.26133 -26.804396,-16.2202 z"
       id="path903"
       inkscape:connector-curvature="0"
       transform="matrix(0.26458333,0,0,0.26458333,8.5526847,243.73196)" />
  </g>
</svg>
