<?xml version="1.0" encoding="UTF-8" standalone="no"?>
<!-- Created with Inkscape (http://www.inkscape.org/) -->

<svg
   xmlns:dc="http://purl.org/dc/elements/1.1/"
   xmlns:cc="http://creativecommons.org/ns#"
   xmlns:rdf="http://www.w3.org/1999/02/22-rdf-syntax-ns#"
   xmlns:svg="http://www.w3.org/2000/svg"
   xmlns="http://www.w3.org/2000/svg"
   xmlns:sodipodi="http://sodipodi.sourceforge.net/DTD/sodipodi-0.dtd"
   xmlns:inkscape="http://www.inkscape.org/namespaces/inkscape"
   width="56.322571mm"
   height="54.447472mm"
   viewBox="0 0 56.322571 54.447473"
   version="1.1"
   id="svg8"
   inkscape:version="0.92.4 (5da689c313, 2019-01-14)"
   sodipodi:docname="13-12.svg">
  <defs
     id="defs2">
    <marker
       inkscape:isstock="true"
       style="overflow:visible"
       id="marker1066"
       refX="0"
       refY="0"
       orient="auto"
       inkscape:stockid="Arrow1Lend">
      <path
         inkscape:connector-curvature="0"
         transform="matrix(-0.8,0,0,-0.8,-10,0)"
         style="fill:#ffcc00;fill-opacity:1;fill-rule:evenodd;stroke:#ffcc00;stroke-width:1.00000003pt;stroke-opacity:1"
         d="M 0,0 5,-5 -12.5,0 5,5 Z"
         id="path1064" />
    </marker>
    <marker
       inkscape:isstock="true"
       style="overflow:visible"
       id="marker1289"
       refX="0"
       refY="0"
       orient="auto"
       inkscape:stockid="Arrow1Lend">
      <path
         transform="matrix(-0.8,0,0,-0.8,-10,0)"
         style="fill:#000000;fill-opacity:1;fill-rule:evenodd;stroke:#000000;stroke-width:1.00000003pt;stroke-opacity:1"
         d="M 0,0 5,-5 -12.5,0 5,5 Z"
         id="path1287"
         inkscape:connector-curvature="0" />
    </marker>
    <marker
       inkscape:stockid="Arrow1Lend"
       orient="auto"
       refY="0"
       refX="0"
       id="Arrow1Lend"
       style="overflow:visible"
       inkscape:isstock="true"
       inkscape:collect="always">
      <path
         id="path972"
         d="M 0,0 5,-5 -12.5,0 5,5 Z"
         style="fill:#000000;fill-opacity:1;fill-rule:evenodd;stroke:#000000;stroke-width:1.00000003pt;stroke-opacity:1"
         transform="matrix(-0.8,0,0,-0.8,-10,0)"
         inkscape:connector-curvature="0" />
    </marker>
    <marker
       inkscape:isstock="true"
       style="overflow:visible"
       id="marker919"
       refX="0"
       refY="0"
       orient="auto"
       inkscape:stockid="Arrow2Mend">
      <path
         transform="scale(-0.6)"
         d="M 8.7185878,4.0337352 -2.2072895,0.01601326 8.7185884,-4.0017078 c -1.7454984,2.3720609 -1.7354408,5.6174519 -6e-7,8.035443 z"
         style="fill:#000000;fill-opacity:1;fill-rule:evenodd;stroke:#000000;stroke-width:0.625;stroke-linejoin:round;stroke-opacity:1"
         id="path917"
         inkscape:connector-curvature="0" />
    </marker>
    <marker
       inkscape:isstock="true"
       style="overflow:visible"
       id="marker1206"
       refX="0"
       refY="0"
       orient="auto"
       inkscape:stockid="Arrow2Mstart">
      <path
         inkscape:connector-curvature="0"
         transform="scale(0.6)"
         d="M 8.7185878,4.0337352 -2.2072895,0.01601326 8.7185884,-4.0017078 c -1.7454984,2.3720609 -1.7354408,5.6174519 -6e-7,8.035443 z"
         style="fill:#ff0000;fill-opacity:1;fill-rule:evenodd;stroke:#ff0000;stroke-width:0.625;stroke-linejoin:round;stroke-opacity:1"
         id="path1204" />
    </marker>
    <marker
       inkscape:isstock="true"
       style="overflow:visible"
       id="marker892"
       refX="0"
       refY="0"
       orient="auto"
       inkscape:stockid="Arrow2Mend">
      <path
         inkscape:connector-curvature="0"
         transform="scale(-0.6)"
         d="M 8.7185878,4.0337352 -2.2072895,0.01601326 8.7185884,-4.0017078 c -1.7454984,2.3720609 -1.7354408,5.6174519 -6e-7,8.035443 z"
         style="fill:#000000;fill-opacity:1;fill-rule:evenodd;stroke:#000000;stroke-width:0.625;stroke-linejoin:round;stroke-opacity:1"
         id="path890" />
    </marker>
    <marker
       inkscape:stockid="Arrow1Mend"
       orient="auto"
       refY="0"
       refX="0"
       id="Arrow1Mend"
       style="overflow:visible"
       inkscape:isstock="true">
      <path
         id="path840"
         d="M 0,0 5,-5 -12.5,0 5,5 Z"
         style="fill:#ffcc00;fill-opacity:1;fill-rule:evenodd;stroke:#ffcc00;stroke-width:1.00000003pt;stroke-opacity:1"
         transform="matrix(-0.4,0,0,-0.4,-4,0)"
         inkscape:connector-curvature="0" />
    </marker>
    <marker
       inkscape:stockid="Arrow2Lend"
       orient="auto"
       refY="0"
       refX="0"
       id="Arrow2Lend"
       style="overflow:visible"
       inkscape:isstock="true">
      <path
         id="path852"
         style="fill:#ff0000;fill-opacity:0.8;fill-rule:evenodd;stroke:#ff0000;stroke-width:0.625;stroke-linejoin:round;stroke-opacity:0.8"
         d="M 8.7185878,4.0337352 -2.2072895,0.01601326 8.7185884,-4.0017078 c -1.7454984,2.3720609 -1.7354408,5.6174519 -6e-7,8.035443 z"
         transform="matrix(-1.1,0,0,-1.1,-1.1,0)"
         inkscape:connector-curvature="0" />
    </marker>
  </defs>
  <sodipodi:namedview
     id="base"
     pagecolor="#ffffff"
     bordercolor="#666666"
     borderopacity="1.0"
     inkscape:pageopacity="0.0"
     inkscape:pageshadow="2"
     inkscape:zoom="3.5570981"
     inkscape:cx="106.43635"
     inkscape:cy="102.89286"
     inkscape:document-units="mm"
     inkscape:current-layer="layer1"
     showgrid="false"
     inkscape:window-width="1920"
     inkscape:window-height="1009"
     inkscape:window-x="0"
     inkscape:window-y="0"
     inkscape:window-maximized="1"
     inkscape:snap-global="false"
     fit-margin-top="1"
     fit-margin-left="1"
     fit-margin-right="1"
     fit-margin-bottom="1" />
  <metadata
     id="metadata5">
    <rdf:RDF>
      <cc:Work
         rdf:about="">
        <dc:format>image/svg+xml</dc:format>
        <dc:type
           rdf:resource="http://purl.org/dc/dcmitype/StillImage" />
        <dc:title></dc:title>
      </cc:Work>
    </rdf:RDF>
  </metadata>
  <g
     inkscape:label="Layer 1"
     inkscape:groupmode="layer"
     id="layer1"
     transform="translate(-7.9280045,-255.14215)">
    <path
       sodipodi:nodetypes="cc"
       inkscape:connector-curvature="0"
       id="path58"
       d="m 33.765862,268.5188 h 14.17393"
       style="fill:none;stroke:#ff0000;stroke-width:0.176;stroke-linecap:butt;stroke-linejoin:miter;stroke-miterlimit:4;stroke-dasharray:0.52799999, 0.52799999;stroke-dashoffset:0;stroke-opacity:1" />
    <path
       inkscape:connector-curvature="0"
       id="path1157"
       d="M 8.9280045,293.49796 H 62.908895"
       style="fill:none;stroke:#000000;stroke-width:0.176;stroke-linecap:butt;stroke-linejoin:miter;stroke-miterlimit:4;stroke-dasharray:none;stroke-opacity:1;marker-end:url(#marker1289)"
       sodipodi:nodetypes="cc" />
    <path
       style="fill:none;stroke:#000000;stroke-width:0.176;stroke-linecap:butt;stroke-linejoin:miter;stroke-miterlimit:4;stroke-dasharray:none;stroke-opacity:1;marker-end:url(#Arrow1Lend)"
       d="M 33.631099,308.47549 V 256.48383"
       id="path21"
       inkscape:connector-curvature="0"
       sodipodi:nodetypes="cc" />
    <g
       aria-label="4"
       transform="matrix(0.86992401,0,0,1.1495257,-40.368853,-49.501366)"
       style="font-style:normal;font-variant:normal;font-weight:normal;font-stretch:normal;font-size:4.8663249px;line-height:5.67737913px;font-family:'GOST type B';-inkscape-font-specification:'GOST type B';text-align:start;letter-spacing:0px;word-spacing:0px;text-anchor:start;fill:#ff0000;fill-opacity:1;stroke:none;stroke-width:0.30414531"
       id="g84" />
    <path
       style="fill:#ffff00;fill-opacity:1;stroke:#ff0000;stroke-width:0.96381396;stroke-linecap:round;stroke-linejoin:round;stroke-miterlimit:4;stroke-dasharray:none;stroke-dashoffset:0;stroke-opacity:1;paint-order:stroke fill markers"
       d=""
       id="path156"
       inkscape:connector-curvature="0"
       transform="matrix(0.26458333,0,0,0.26458333,0.91845,235.47329)" />
    <g
       aria-label="y"
       transform="matrix(1,0,-0.13208586,1,18.426088,0)"
       style="font-style:normal;font-variant:normal;font-weight:normal;font-stretch:normal;font-size:4.23333311px;line-height:4.93888855px;font-family:'GOST type B';-inkscape-font-specification:'GOST type B';text-align:start;letter-spacing:0px;word-spacing:0px;text-anchor:start;fill:#000000;fill-opacity:1;stroke:none;stroke-width:0.26458332"
       id="text3857">
      <path
         d="m 46.584246,258.79153 -0.560172,-1.82314 -0.0083,-0.0496 q 0,-0.0558 0.04548,-0.10129 0.04547,-0.0393 0.103353,-0.0393 0.09715,0 0.136425,0.10335 l 0.434082,1.42007 0.446485,-1.42007 q 0.03514,-0.10335 0.136426,-0.10335 0.06408,0 0.105419,0.0393 0.04341,0.0372 0.04341,0.10129 l -0.0083,0.0496 -0.752408,2.39985 q -0.03101,0.12816 -0.142627,0.21704 -0.111621,0.0889 -0.256315,0.0889 H 46.16251 q -0.05374,0 -0.107487,-0.0434 -0.03721,-0.0434 -0.03721,-0.10129 0,-0.0579 0.03514,-0.10129 0.03721,-0.0434 0.109554,-0.0434 h 0.142627 q 0.04548,0 0.07441,-0.0289 0.03101,-0.0227 0.04961,-0.0703 z"
         style="stroke-width:0.26458332"
         id="path907"
         inkscape:connector-curvature="0" />
    </g>
    <g
       aria-label="x"
       transform="matrix(1,0,-0.13208586,1,0,2.5985508)"
       style="font-style:normal;font-variant:normal;font-weight:normal;font-stretch:normal;font-size:4.23333311px;line-height:4.93888855px;font-family:'GOST type B';-inkscape-font-specification:'GOST type B';text-align:start;letter-spacing:0px;word-spacing:0px;text-anchor:start;fill:#000000;fill-opacity:1;stroke:none;stroke-width:0.26458332"
       id="text3861">
      <path
         d="m 99.895574,288.34639 0.525036,0.78755 0.0207,0.0434 0.004,0.0393 q 0,0.0558 -0.0455,0.10128 l -0.0227,0.0186 -0.031,0.0145 -0.0537,0.008 q -0.06,0 -0.11576,-0.0641 l -0.456816,-0.68626 -0.45682,0.68626 q -0.04341,0.0661 -0.119889,0.0661 -0.04547,0 -0.101286,-0.0434 -0.04754,-0.0434 -0.04754,-0.10335 0,-0.0372 0.02481,-0.0806 l 0.525032,-0.78755 -0.525032,-0.78754 -0.02067,-0.0434 -0.0041,-0.0393 q 0,-0.0558 0.04341,-0.0992 0.04341,-0.0434 0.109554,-0.0434 0.05994,0 0.115755,0.0641 l 0.45682,0.68626 0.456812,-0.68626 q 0.0434,-0.0661 0.11989,-0.0661 0.0434,0 0.10336,0.0434 0.0455,0.0455 0.0455,0.10335 0,0.0372 -0.0248,0.0806 z"
         style="stroke-width:0.26458332"
         id="path910"
         inkscape:connector-curvature="0" />
    </g>
    <g
       aria-label="O"
       transform="matrix(1,0,-0.13208586,1,18.426088,2.5985508)"
       style="font-style:normal;font-variant:normal;font-weight:normal;font-stretch:normal;font-size:4.23333311px;line-height:4.93888855px;font-family:'GOST type B';-inkscape-font-specification:'GOST type B';text-align:start;letter-spacing:0px;word-spacing:0px;text-anchor:start;fill:#000000;fill-opacity:1;stroke:none;stroke-width:0.26458332"
       id="text3865">
      <path
         d="m 52.819337,294.18349 q 0,0.23771 -0.169499,0.40928 -0.169498,0.1695 -0.409277,0.1695 h -0.578776 q -0.235644,0 -0.40721,-0.16743 -0.171566,-0.1695 -0.171566,-0.41135 v -1.73633 q 0,-0.24184 0.167432,-0.40927 0.169498,-0.1695 0.411344,-0.1695 h 0.578776 q 0.241846,0 0.409277,0.1695 0.169499,0.1695 0.169499,0.40927 z m -0.289388,0 v -1.73633 q 0,-0.12195 -0.08268,-0.20463 -0.08061,-0.0847 -0.206706,-0.0847 h -0.578776 q -0.121956,0 -0.206706,0.0827 -0.04134,0.0413 -0.06201,0.0951 -0.02067,0.0517 -0.02067,0.11162 v 1.73633 q 0,0.12196 0.08268,0.20671 0.04341,0.0372 0.09302,0.062 0.06201,0.0207 0.113688,0.0207 h 0.578776 q 0.119889,0 0.204639,-0.0806 0.08475,-0.0806 0.08475,-0.20877 z"
         style="stroke-width:0.26458332"
         id="path913"
         inkscape:connector-curvature="0" />
    </g>
    <path
       sodipodi:nodetypes="cc"
       inkscape:connector-curvature="0"
       id="path54"
       d="m 41.886341,257.20917 v 51.38045"
       style="fill:none;stroke:#008000;stroke-width:0.176;stroke-linecap:butt;stroke-linejoin:miter;stroke-miterlimit:4;stroke-dasharray:1.05599998, 1.05599998;stroke-dashoffset:0;stroke-opacity:1" />
    <path
       style="fill:none;stroke:#008000;stroke-width:0.176;stroke-linecap:butt;stroke-linejoin:miter;stroke-miterlimit:4;stroke-dasharray:1.05599998, 1.05599998;stroke-dashoffset:0;stroke-opacity:1"
       d="M 61.266959,258.14449 11.579998,308.36298"
       id="path912"
       inkscape:connector-curvature="0"
       sodipodi:nodetypes="cc" />
    <path
       sodipodi:nodetypes="cc"
       inkscape:connector-curvature="0"
       id="path914"
       d="M 60.681577,257.99008 C 49.104941,268.09731 46.881926,275.22213 42.843375,257.39022"
       style="fill:none;stroke:#0000ff;stroke-width:0.5291667;stroke-linecap:butt;stroke-linejoin:miter;stroke-opacity:1" />
    <path
       style="fill:none;stroke:#0000ff;stroke-width:0.5291667;stroke-linecap:butt;stroke-linejoin:miter;stroke-opacity:1"
       d="M 41.074329,308.45906 C 38.002042,285.65436 30.345693,291.99477 13.137214,308.35022"
       id="path50"
       inkscape:connector-curvature="0"
       sodipodi:nodetypes="cc" />
    <path
       style="fill:none;stroke:#ff0000;stroke-width:0.176;stroke-linecap:butt;stroke-linejoin:miter;stroke-miterlimit:4;stroke-dasharray:0.52799999, 0.52799999;stroke-dashoffset:0;stroke-opacity:1"
       d="M 47.939784,293.38222 V 268.16444"
       id="path52"
       inkscape:connector-curvature="0"
       sodipodi:nodetypes="cc" />
    <g
       aria-label="8"
       style="font-style:normal;font-variant:normal;font-weight:normal;font-stretch:normal;font-size:4.23333311px;line-height:4.93888855px;font-family:'GOST type B';-inkscape-font-specification:'GOST type B';text-align:start;letter-spacing:0px;word-spacing:0px;text-anchor:start;fill:#000000;fill-opacity:1;stroke:none;stroke-width:0.26458332"
       id="text56">
      <path
         d="m 31.846385,268.05902 q 0.196371,0 0.324528,-0.13642 0.107487,-0.1261 0.107487,-0.29766 0,-0.1757 -0.107487,-0.29766 -0.117822,-0.13642 -0.324528,-0.13642 -0.190169,0 -0.324528,0.13642 -0.107487,0.12609 -0.107487,0.29766 0,0.1757 0.107487,0.29766 0.117823,0.13642 0.324528,0.13642 z m 0,0.28939 q -0.272851,0 -0.434082,0.17983 -0.144694,0.1633 -0.144694,0.39895 0,0.23357 0.144694,0.39687 0.163298,0.1819 0.434082,0.1819 0.272852,0 0.434082,-0.17983 0.144694,-0.1633 0.144694,-0.39894 0,-0.22945 -0.142627,-0.39688 -0.163297,-0.1819 -0.436149,-0.1819 z m 0.479558,-0.16123 q 0.192236,0.11162 0.291455,0.31212 0.09922,0.19844 0.09922,0.42789 0,0.34106 -0.217041,0.59531 -0.239778,0.27285 -0.65319,0.27285 -0.40721,0 -0.651123,-0.26872 -0.217041,-0.24184 -0.217041,-0.59944 0,-0.22945 0.09508,-0.42582 0.09715,-0.19844 0.295589,-0.31833 -0.115755,-0.0971 -0.179834,-0.24598 -0.06408,-0.15089 -0.06408,-0.31212 0,-0.28939 0.179834,-0.49816 0.200505,-0.22531 0.541569,-0.22531 0.334864,0 0.541569,0.22531 0.181901,0.2067 0.181901,0.49816 0,0.16123 -0.06201,0.31212 -0.05994,0.14883 -0.181901,0.25012 z"
         style="stroke-width:0.26458332"
         id="path97" />
    </g>
    <g
       aria-label="4"
       style="font-style:normal;font-variant:normal;font-weight:normal;font-stretch:normal;font-size:4.23333311px;line-height:4.93888855px;font-family:'GOST type B';-inkscape-font-specification:'GOST type B';text-align:start;letter-spacing:0px;word-spacing:0px;text-anchor:start;fill:#000000;fill-opacity:1;stroke:none;stroke-width:0.26458332"
       id="text60">
      <path
         d="m 48.570077,296.22531 h 0.289388 q 0.05994,0 0.101286,0.0455 0.04341,0.0434 0.04341,0.0992 0,0.0496 -0.03721,0.0971 -0.03514,0.0475 -0.107487,0.0475 h -0.289388 v 0.43408 q 0,0.0682 -0.04134,0.10956 -0.03927,0.0351 -0.103353,0.0351 -0.05788,0 -0.101286,-0.0351 -0.04341,-0.0372 -0.04341,-0.10956 v -0.43408 h -0.868164 q -0.150895,0 -0.150895,-0.11782 l 0.0041,-0.0351 0.0083,-0.0331 0.578776,-2.02364 q 0.0124,-0.0434 0.04961,-0.0786 l 0.02687,-0.0145 q 0.02481,-0.0124 0.05581,-0.0124 0.06408,0 0.10542,0.0413 0.04548,0.0393 0.04548,0.10128 l -0.0062,0.0434 -0.5271,1.83968 h 0.677995 v -0.43408 q 0,-0.0579 0.04341,-0.10749 0.04341,-0.0372 0.101286,-0.0372 0.05581,0 0.09922,0.0372 0.04547,0.0351 0.04547,0.10749 z"
         style="stroke-width:0.26458332"
         id="path100" />
    </g>
    <g
       aria-label="2"
       style="font-style:normal;font-variant:normal;font-weight:normal;font-stretch:normal;font-size:4.23333311px;line-height:4.93888855px;font-family:'GOST type B';-inkscape-font-specification:'GOST type B';text-align:start;letter-spacing:0px;word-spacing:0px;text-anchor:start;fill:#000000;fill-opacity:1;stroke:none;stroke-width:0.26458332"
       id="text64">
      <path
         d="m 41.020343,291.07399 -0.934309,1.49035 h 0.897102 q 0.05994,0 0.101286,0.0455 0.04341,0.0434 0.04341,0.0992 0,0.0496 -0.03721,0.0971 -0.03514,0.0475 -0.107487,0.0475 h -1.157552 q -0.157096,0 -0.157096,-0.11576 0,-0.0455 0.03514,-0.10748 l 1.068669,-1.70326 q 0.05374,-0.11369 0.05374,-0.21704 0,-0.18603 -0.144694,-0.32246 -0.06821,-0.0641 -0.159163,-0.10129 -0.09095,-0.0372 -0.196371,-0.0372 -0.109554,0 -0.21084,0.0579 -0.101285,0.0641 -0.167431,0.16537 -0.01654,0.0269 -0.05581,0.0517 l -0.06408,0.0145 q -0.05581,0 -0.103352,-0.0393 -0.04548,-0.0413 -0.04548,-0.10128 0,-0.0289 0.02481,-0.0827 0.09922,-0.15503 0.268717,-0.25425 0.08268,-0.0475 0.167432,-0.0744 0.08475,-0.0269 0.165365,-0.0269 0.338997,0 0.572574,0.22531 0.235645,0.22324 0.235645,0.5333 0,0.17777 -0.09302,0.35553 z"
         style="stroke-width:0.26458332"
         id="path103" />
    </g>
    <g
       aria-label="2"
       style="font-style:normal;font-variant:normal;font-weight:normal;font-stretch:normal;font-size:4.23333311px;line-height:4.93888855px;font-family:'GOST type B';-inkscape-font-specification:'GOST type B';text-align:start;letter-spacing:0px;word-spacing:0px;text-anchor:start;fill:#000000;fill-opacity:1;stroke:none;stroke-width:0.26458332"
       id="text68">
      <path
         d="m 35.735634,287.0718 -0.93431,1.49034 h 0.897102 q 0.05994,0 0.101286,0.0455 0.04341,0.0434 0.04341,0.0992 0,0.0496 -0.03721,0.0971 -0.03514,0.0475 -0.107487,0.0475 h -1.157552 q -0.157096,0 -0.157096,-0.11575 0,-0.0455 0.03514,-0.10749 l 1.068669,-1.70326 q 0.05374,-0.11368 0.05374,-0.21704 0,-0.18603 -0.144694,-0.32246 -0.06821,-0.0641 -0.159163,-0.10128 -0.09095,-0.0372 -0.196371,-0.0372 -0.109554,0 -0.21084,0.0579 -0.101285,0.0641 -0.167431,0.16536 -0.01654,0.0269 -0.05581,0.0517 l -0.06408,0.0145 q -0.05581,0 -0.103353,-0.0393 -0.04548,-0.0413 -0.04548,-0.10128 0,-0.0289 0.02481,-0.0827 0.09922,-0.15503 0.268718,-0.25425 0.08268,-0.0475 0.167431,-0.0744 0.08475,-0.0269 0.165365,-0.0269 0.338997,0 0.572575,0.22531 0.235644,0.22324 0.235644,0.5333 0,0.17777 -0.09302,0.35554 z"
         style="stroke-width:0.26458332"
         id="path106" />
    </g>
    <g
       id="g95"
       style="fill:#008000"
       transform="rotate(-45.377529,12.820325,234.27694)">
      <path
         d="m -18.643021,284.5121 -0.04555,-1.36736 0.004,-0.0372 q 0.01148,-0.0419 0.05493,-0.076 0.04219,-0.0295 0.08559,-0.0295 0.07286,0 0.08109,0.0775 l 0.0338,1.06505 0.626628,-1.06505 q 0.04758,-0.0775 0.12355,-0.0775 0.04806,0 0.07098,0.0295 0.02492,0.0279 0.01174,0.076 l -0.01639,0.0372 -1.057377,1.79989 q -0.04958,0.0961 -0.151563,0.16278 -0.101992,0.0667 -0.210508,0.0667 h -0.108521 q -0.04031,0 -0.07171,-0.0325 -0.01898,-0.0326 -0.0071,-0.076 0.01189,-0.0434 0.04717,-0.076 0.03684,-0.0326 0.09109,-0.0326 h 0.106971 q 0.03411,0 0.06176,-0.0217 0.02793,-0.0171 0.05165,-0.0527 z"
         style="font-style:normal;font-variant:normal;font-weight:normal;font-stretch:normal;font-size:3.17499995px;line-height:4.93888855px;font-family:'GOST type B';-inkscape-font-specification:'GOST type B';text-align:start;letter-spacing:0px;word-spacing:0px;text-anchor:start;fill:#008000;fill-opacity:1;stroke:none;stroke-width:0.26458332"
         id="path74"
         inkscape:connector-curvature="0" />
      <path
         d="m -16.433952,283.54626 h -0.868164 q -0.04961,0 -0.08062,-0.031 -0.02791,-0.0326 -0.02791,-0.0775 0,-0.0387 0.02791,-0.0729 0.02946,-0.0357 0.08062,-0.0357 h 0.868164 q 0.04496,0 0.07596,0.0341 0.03256,0.0326 0.03256,0.0744 0,0.0372 -0.02791,0.0729 -0.02635,0.0357 -0.08062,0.0357 z m 0,0.54261 h -0.868164 q -0.04961,0 -0.08062,-0.031 -0.02791,-0.0326 -0.02791,-0.0775 0,-0.0388 0.02791,-0.0729 0.02946,-0.0357 0.08062,-0.0357 h 0.868164 q 0.04496,0 0.07596,0.0341 0.03256,0.0326 0.03256,0.0744 0,0.0372 -0.02791,0.0729 -0.02635,0.0357 -0.08062,0.0357 z"
         style="font-style:normal;font-variant:normal;font-weight:normal;font-stretch:normal;font-size:3.17499995px;line-height:4.93888855px;font-family:'GOST type B';-inkscape-font-specification:'GOST type B';text-align:start;letter-spacing:0px;word-spacing:0px;text-anchor:start;fill:#008000;fill-opacity:1;stroke:none;stroke-width:0.26458332"
         id="path76"
         inkscape:connector-curvature="0" />
      <path
         d="m -15.128018,283.76331 0.231966,0.59066 0.0066,0.0326 -0.005,0.0295 q -0.01148,0.0419 -0.05493,0.076 l -0.02088,0.014 -0.02625,0.0109 -0.04195,0.006 q -0.04496,0 -0.07364,-0.0481 l -0.201615,-0.5147 -0.483614,0.5147 q -0.04615,0.0496 -0.103508,0.0496 -0.03411,0 -0.06703,-0.0326 -0.02673,-0.0326 -0.01443,-0.0775 0.0076,-0.0279 0.03517,-0.0605 l 0.555583,-0.59066 -0.231964,-0.59067 -0.0066,-0.0326 0.005,-0.0295 q 0.01148,-0.0419 0.05294,-0.0744 0.04149,-0.0326 0.0911,-0.0326 0.04496,0 0.07364,0.0481 l 0.201615,0.5147 0.483614,-0.5147 q 0.04615,-0.0496 0.103507,-0.0496 0.03256,0 0.06859,0.0326 0.02477,0.0341 0.01288,0.0775 -0.0076,0.0279 -0.03517,0.0605 z"
         style="font-style:normal;font-variant:normal;font-weight:normal;font-stretch:normal;font-size:3.17499995px;line-height:4.93888855px;font-family:'GOST type B';-inkscape-font-specification:'GOST type B';text-align:start;letter-spacing:0px;word-spacing:0px;text-anchor:start;fill:#008000;fill-opacity:1;stroke:none;stroke-width:0.26458332"
         id="path78"
         inkscape:connector-curvature="0" />
      <path
         d="m -13.716289,283.87183 v 0.32556 q 0,0.0512 -0.03101,0.0822 -0.02946,0.0264 -0.07751,0.0264 -0.04341,0 -0.07597,-0.0264 -0.03256,-0.0279 -0.03256,-0.0822 v -0.32556 H -14.2589 q -0.04961,0 -0.08062,-0.031 -0.02791,-0.0326 -0.02791,-0.0775 0,-0.0388 0.02791,-0.0729 0.02946,-0.0357 0.08062,-0.0357 h 0.325561 v -0.32557 q 0,-0.0434 0.03256,-0.0806 0.03256,-0.0279 0.07597,-0.0279 0.04031,0 0.07596,0.0264 0.03256,0.0279 0.03256,0.0822 v 0.32557 h 0.325562 q 0.05116,0 0.07906,0.0341 0.02946,0.0341 0.02946,0.0744 0,0.0372 -0.02791,0.0729 -0.02636,0.0357 -0.08061,0.0357 z"
         style="font-style:normal;font-variant:normal;font-weight:normal;font-stretch:normal;font-size:3.17499995px;line-height:4.93888855px;font-family:'GOST type B';-inkscape-font-specification:'GOST type B';text-align:start;letter-spacing:0px;word-spacing:0px;text-anchor:start;fill:#008000;fill-opacity:1;stroke:none;stroke-width:0.26458332"
         id="path80"
         inkscape:connector-curvature="0" />
      <path
         d="m -11.848186,283.18815 -0.700732,1.11776 h 0.672827 q 0.04496,0 0.07596,0.0341 0.03256,0.0326 0.03256,0.0744 0,0.0372 -0.02791,0.0729 -0.02635,0.0357 -0.08061,0.0357 h -0.868164 q -0.117822,0 -0.117822,-0.0868 0,-0.0341 0.02635,-0.0806 l 0.801501,-1.27744 q 0.04031,-0.0853 0.04031,-0.16278 0,-0.13953 -0.108521,-0.24185 -0.05116,-0.0481 -0.119372,-0.076 -0.06821,-0.0279 -0.147278,-0.0279 -0.08217,0 -0.15813,0.0434 -0.07596,0.0481 -0.125574,0.12402 -0.0124,0.0202 -0.04186,0.0388 l -0.04806,0.0109 q -0.04186,0 -0.07751,-0.0295 -0.03411,-0.031 -0.03411,-0.076 0,-0.0217 0.0186,-0.062 0.07441,-0.11627 0.201538,-0.19069 0.06201,-0.0356 0.125573,-0.0558 0.06356,-0.0202 0.124024,-0.0202 0.254248,0 0.429431,0.16898 0.176733,0.16743 0.176733,0.39998 0,0.13332 -0.06976,0.26665 z"
         style="font-style:normal;font-variant:normal;font-weight:normal;font-stretch:normal;font-size:3.17499995px;line-height:4.93888855px;font-family:'GOST type B';-inkscape-font-specification:'GOST type B';text-align:start;letter-spacing:0px;word-spacing:0px;text-anchor:start;fill:#008000;fill-opacity:1;stroke:none;stroke-width:0.26458332"
         id="path82"
         inkscape:connector-curvature="0" />
    </g>
  </g>
</svg>
