<?xml version="1.0" encoding="UTF-8" standalone="no"?>
<!-- Created with Inkscape (http://www.inkscape.org/) -->

<svg
   xmlns:dc="http://purl.org/dc/elements/1.1/"
   xmlns:cc="http://creativecommons.org/ns#"
   xmlns:rdf="http://www.w3.org/1999/02/22-rdf-syntax-ns#"
   xmlns:svg="http://www.w3.org/2000/svg"
   xmlns="http://www.w3.org/2000/svg"
   xmlns:sodipodi="http://sodipodi.sourceforge.net/DTD/sodipodi-0.dtd"
   xmlns:inkscape="http://www.inkscape.org/namespaces/inkscape"
   version="1.1"
   id="svg2"
   xml:space="preserve"
   width="9.6330328cm"
   height="3.7999566cm"
   viewBox="0 0 364.08313 143.6204"
   sodipodi:docname="14-01.svg"
   inkscape:version="0.92.4 (5da689c313, 2019-01-14)"><metadata
     id="metadata8"><rdf:RDF><cc:Work
         rdf:about=""><dc:format>image/svg+xml</dc:format><dc:type
           rdf:resource="http://purl.org/dc/dcmitype/StillImage" /><dc:title /></cc:Work></rdf:RDF></metadata><defs
     id="defs6" /><sodipodi:namedview
     pagecolor="#ffffff"
     bordercolor="#666666"
     borderopacity="1"
     objecttolerance="10"
     gridtolerance="10"
     guidetolerance="10"
     inkscape:pageopacity="0"
     inkscape:pageshadow="2"
     inkscape:window-width="1920"
     inkscape:window-height="1009"
     id="namedview4"
     showgrid="false"
     inkscape:zoom="5.0343618"
     inkscape:cx="182.83611"
     inkscape:cy="71.810192"
     inkscape:window-x="0"
     inkscape:window-y="0"
     inkscape:window-maximized="1"
     inkscape:current-layer="g10"
     fit-margin-left="2"
     fit-margin-top="2"
     fit-margin-bottom="2"
     fit-margin-right="2"
     units="cm"
     inkscape:snap-global="false" /><g
     id="g10"
     inkscape:groupmode="layer"
     inkscape:label="ink_ext_XXXXXX"
     transform="matrix(1.3333333,0,0,-1.3333333,550.39357,424.04775)"><g
       transform="matrix(0.011967,0,0,0.00898916,-413.05393,194.58614)"
       id="g18"><path
         inkscape:connector-curvature="0"
         id="path20"
         style="fill:#50bfa5;fill-opacity:1;fill-rule:nonzero;stroke:none"
         d="M 16256.4,1917.24 H 2392.8 c -24.12,0 -43.66,19.55 -43.66,43.63 v 5.25 c 0,24.17 19.54,43.72 43.66,43.72 h 13863.6 c 24.1,0 43.6,-19.55 43.6,-43.72 v -5.25 c 0,-24.08 -19.5,-43.63 -43.6,-43.63" /></g><path
       inkscape:connector-curvature="0"
       id="path74"
       style="fill:#f7a491;fill-opacity:1;fill-rule:nonzero;stroke:none;stroke-width:0.00813631"
       d="m -321.51962,219.15616 c 0,0 -0.1764,-3.27161 -0.17746,-3.27812 -0.0671,-0.41576 -0.33367,-1.44338 -0.33253,-1.8209 0.004,-1.41816 6.34193,1.23184 4.91799,1.85426 -0.12888,0.0561 -1.0054,0.80387 -1.04917,1.28635 -0.0674,0.74366 -0.0366,1.92668 -0.0366,1.92668 l -3.32221,0.0317" /><path
       inkscape:connector-curvature="0"
       id="path76"
       style="fill:#184655;fill-opacity:1;fill-rule:nonzero;stroke:none;stroke-width:0.00813631"
       d="m -317.1274,215.92442 c 0,0 -1.48854,-0.44017 -2.25115,-0.55164 -0.76278,-0.11228 -1.77144,0.79654 -2.31039,0.54757 -0.5933,-0.27419 -0.62462,-3.40097 -0.62462,-3.40097 0,0 7.81272,-0.5606 9.80994,0.0236 0.89752,0.26199 -1.57502,2.38394 -4.62378,3.38145" /><path
       inkscape:connector-curvature="0"
       id="path78"
       style="fill:#f7a491;fill-opacity:1;fill-rule:nonzero;stroke:none;stroke-width:0.00813631"
       d="m -309.28506,219.20905 c 0,0 -0.17639,-3.27161 -0.17745,-3.27893 -0.0674,-0.41495 -0.33375,-1.44257 -0.33253,-1.8201 0.004,-1.41815 6.34184,1.23184 4.91791,1.85427 -0.12896,0.0561 -1.00541,0.80387 -1.0491,1.28635 -0.0675,0.74284 -0.0365,1.92668 -0.0365,1.92668 l -3.3223,0.0317" /><path
       inkscape:connector-curvature="0"
       id="path80"
       style="fill:#184655;fill-opacity:1;fill-rule:nonzero;stroke:none;stroke-width:0.00813631"
       d="m -304.89292,215.97731 c 0,0 -1.48837,-0.44018 -2.25115,-0.55246 -0.7627,-0.11147 -1.77144,0.79736 -2.31039,0.54839 -0.5933,-0.27419 -0.62462,-3.40098 -0.62462,-3.40098 0,0 7.81281,-0.56059 9.80995,0.0236 0.89743,0.26199 -1.57503,2.38394 -4.62379,3.38145" /><path
       inkscape:connector-curvature="0"
       id="path82"
       style="fill:#f8a492;fill-opacity:1;fill-rule:nonzero;stroke:none;stroke-width:0.00813631"
       d="m -304.17041,305.03164 c 0.20935,-1.59634 0.4619,-1.49464 0.48338,-1.69968 0.0254,-0.24327 -1.43484,-3.18048 -1.43484,-3.18048 0,0 -4.24748,-8.68632 -4.49287,-9.14765 l -7.58223,-6.40734 1.98364,-4.69872 c 0,0 8.07048,7.19168 8.42929,7.64162 0.35881,0.45075 4.77243,12.85374 5.1952,13.93343 0,0 0.96675,1.10572 1.55175,1.81928 0.58484,0.71436 0.83267,1.65248 0.96741,1.87867 0.0199,0.0334 0.42643,0.81363 0.67849,1.90634 0.21732,0.94137 -0.40918,0.1432 -0.40918,0.1432 0,0 -0.70794,-1.67608 -0.82681,-1.59797 -0.0915,0.0602 0.34758,0.95276 0.59859,1.99176 0.0644,0.26769 0.12725,0.5313 0.18315,0.77458 0.14613,0.63789 -0.19365,0.90557 -0.45043,0.26118 -0.0906,-0.22701 -0.23237,-0.6086 -0.296,-0.89418 -0.0686,-0.30918 -0.22895,-0.57199 -0.32537,-0.8234 -0.19145,-0.49875 -0.3248,-0.86489 -0.34067,-0.84536 -0.0203,0.0244 -0.12627,-0.048 -0.0665,0.23758 0.0721,0.34335 0.38257,1.04145 0.45043,1.55403 0.0383,0.29047 0.15467,0.89418 0.15467,0.89418 0,0 0.01,0.943 -0.044,0.9609 -0.2912,0.0993 -0.47548,-0.54594 -0.47727,-0.94706 -0.12945,-0.25711 -0.23433,-0.895 -0.23433,-0.895 0,0 -0.49485,-1.24648 -0.66734,-1.17976 -0.0736,0.0277 0.14092,0.82827 0.23123,1.64353 0.0838,0.75831 0.0474,1.53614 -0.0964,1.57356 -0.24401,0.0635 -0.42488,-0.76969 -0.42488,-0.76969 0,0 -0.0961,-0.58988 -0.14271,-0.78353 -0.0545,-0.227 -0.2685,-0.89418 -0.2685,-0.89418 0,0 -0.85089,-2.29037 -1.00866,-2.21389 -0.15792,0.0773 -0.48338,0.4418 -0.47866,0.60128 0.005,0.15947 0.16395,0.44993 0.16883,0.61022 0.005,0.15947 -0.12286,0.3702 -0.31447,0.3881 -0.19152,0.0187 -0.50461,-0.74935 -0.50461,-0.74935 0,0 -0.24987,-0.62569 -0.18933,-1.0862" /><path
       inkscape:connector-curvature="0"
       id="path84"
       style="fill:#f8a492;fill-opacity:1;fill-rule:nonzero;stroke:none;stroke-width:0.00813631"
       d="m -342.4157,301.78363 c 0.0948,-1.60774 -0.17257,-1.55485 -0.15499,-1.7607 0.0208,-0.24328 2.00739,-2.85259 2.00739,-2.85259 0,0 5.80558,-7.72949 6.13323,-8.1355 l 8.65158,-4.86144 -1.06383,-4.99 c 0,0 -9.27889,5.54001 -9.71613,5.91428 -0.43716,0.37509 -7.10487,11.72361 -7.72331,12.70404 0,0 -1.15723,0.90313 -1.86598,1.49382 -0.70867,0.5907 -1.12867,1.46535 -1.30376,1.66225 -0.0257,0.0293 -0.57166,0.71844 -1.02469,1.74361 -0.39062,0.8836 0.37484,0.21805 0.37484,0.21805 0,0 1.01053,-1.51172 1.11256,-1.41327 0.0786,0.0765 -0.52056,0.86977 -0.96261,1.84368 -0.1135,0.24979 -0.22497,0.49795 -0.32529,0.72576 -0.26369,0.59884 0.0196,0.92591 0.39299,0.34173 0.13189,-0.20666 0.34278,-0.55408 0.45905,-0.8234 0.12546,-0.28965 0.33237,-0.51747 0.47434,-0.7461 0.28193,-0.454 0.48184,-0.7884 0.49372,-0.76644 0.0153,0.0277 0.13302,-0.0236 0.0205,0.24572 -0.13539,0.32383 -0.57158,0.95032 -0.73463,1.44175 -0.0924,0.27827 -0.32032,0.84862 -0.32032,0.84862 0,0 -0.18681,0.92429 -0.13743,0.95276 0.26736,0.15134 0.56971,-0.44668 0.64692,-0.84048 0.1755,-0.22781 0.39852,-0.83478 0.39852,-0.83478 0,0 0.7203,-1.13095 0.87742,-1.03331 0.0669,0.0415 -0.29429,0.78678 -0.53651,1.57112 -0.22489,0.72901 -0.33546,1.49952 -0.20121,1.56298 0.22773,0.10821 0.56205,-0.67531 0.56205,-0.67531 0,0 0.2052,-0.56141 0.2873,-0.74203 0.0963,-0.21317 0.4322,-0.82828 0.4322,-0.82828 0,0 1.26641,-2.08859 1.40701,-1.98363 0.14059,0.10577 0.39184,0.52479 0.35694,0.68101 -0.0347,0.1554 -0.2458,0.41088 -0.28054,0.5671 -0.0348,0.15622 0.051,0.38729 0.23579,0.44099 0.18469,0.0537 0.63642,-0.64033 0.63642,-0.64033 0,0 0.36312,-0.56792 0.39046,-1.03168" /><path
       inkscape:connector-curvature="0"
       id="path86"
       style="fill:#b75742;fill-opacity:1;fill-rule:nonzero;stroke:none;stroke-width:0.00813631"
       d="m -319.80726,260.78802 c 0,0 9.68205,-22.70599 10.04395,-24.7539 0.26394,-1.49464 -0.022,-18.51254 -0.022,-18.51254 l 4.54543,0.0919 1.53809,19.44578 -6.05545,24.49191 -10.05005,-0.76319" /><path
       inkscape:connector-curvature="0"
       id="path88"
       style="fill:#f47458;fill-opacity:1;fill-rule:nonzero;stroke:none;stroke-width:0.00813631"
       d="m -324.02821,259.69939 4.45577,-25.24534 -2.81297,-16.91457 5.17722,0.022 4.01168,18.19359 0.50022,19.92013 -2.11666,6.40164 -9.21526,-2.37742" /><path
       inkscape:connector-curvature="0"
       id="path90"
       style="fill:#466eb6;fill-opacity:1;fill-rule:nonzero;stroke:none;stroke-width:0.00813631"
       d="m -311.56339,289.74352 c 0,0 1.15097,-5.08357 1.95125,-5.8736 0,0 -4.05448,-2.71672 -3.86303,-3.78583 0.1912,-1.06911 4.56332,-21.04863 4.56332,-21.04863 0,0 -8.86369,-4.63769 -14.38629,-3.92007 0,0 -4.22494,22.76051 -5.30365,23.82474 -1.07871,1.06504 -4.4229,2.74519 -4.4229,2.74519 0,0 2.48247,4.77764 2.48003,5.62219 0,0 5.93413,-2.71509 6.93791,-3.70609 1.00394,-0.991 2.93965,0.27826 3.40586,0.4776 0,0 7.92655,5.22839 8.6375,5.6645" /><path
       inkscape:connector-curvature="0"
       id="path92"
       style="fill:#f7a491;fill-opacity:1;fill-rule:nonzero;stroke:none;stroke-width:0.00813631"
       d="m -322.83795,288.2383 -0.73886,-4.67675 c 0,0 1.98201,-3.25778 3.55931,-2.7639 1.32353,0.41413 1.20182,2.99253 1.20182,2.99253 0,0 -0.73008,2.66383 -0.51747,3.99981 0.21244,1.33598 -3.5048,0.44831 -3.5048,0.44831" /><path
       inkscape:connector-curvature="0"
       id="path94"
       style="fill:#f47458;fill-opacity:1;fill-rule:nonzero;stroke:none;stroke-width:0.00813631"
       d="m -319.33315,287.78999 c 0.21252,1.33598 -3.5048,0.44831 -3.5048,0.44831 l -0.0588,-0.39054 c 0.10952,-0.26118 0.24328,-0.48493 0.40544,-0.65579 0.8334,-0.87953 2.13374,-1.40514 3.25688,-1.44013 -0.1144,0.71925 -0.18592,1.49058 -0.0987,2.03815" /><path
       inkscape:connector-curvature="0"
       id="path96"
       style="fill:#f7a491;fill-opacity:1;fill-rule:nonzero;stroke:none;stroke-width:0.00813631"
       d="m -323.46811,294.906 c -0.10536,0.0374 -0.82697,-5.37321 0.57744,-6.85484 1.40416,-1.48243 4.13275,-1.95759 5.10756,-0.78108 1.07823,1.30099 1.00655,7.11276 -1.17423,8.63344 -2.18094,1.52148 -4.51077,-0.99752 -4.51077,-0.99752" /><path
       inkscape:connector-curvature="0"
       id="path98"
       style="fill:#f7cc7f;fill-opacity:1;fill-rule:nonzero;stroke:none;stroke-width:0.00813631"
       d="m -323.3507,297.88308 c -0.76343,-0.0928 -2.09526,-1.14885 -3.16185,-2.9071 -1.31182,-2.16101 0.35287,-4.80124 1.8908,-5.96636 1.53792,-1.16593 1.51009,-2.52225 1.51009,-2.52225 l 0.25101,0.70379 c 0.17745,0.5313 0.24889,1.09433 0.1873,1.65004 -0.037,0.33359 -0.11033,0.69484 -0.25109,0.991 -0.3715,0.78109 0.7889,1.30588 1.11256,1.95841 0.24938,0.50201 0.25816,1.64923 0.6509,2.47995 l 0.47004,0.63463 c 0,0 1.33387,-0.10903 2.15238,0.61022 2.3505,2.065 -1.25625,4.77032 -4.81214,2.36767" /><path
       inkscape:connector-curvature="0"
       id="path100"
       style="fill:#f7a491;fill-opacity:1;fill-rule:nonzero;stroke:none;stroke-width:0.00813631"
       d="m -321.88047,290.82809 c 0.013,-0.65986 -0.289,-1.20174 -0.67458,-1.20987 -0.38566,-0.008 -0.70892,0.51991 -0.72185,1.17976 -0.0131,0.65986 0.28892,1.20173 0.67458,1.20987 0.3855,0.008 0.70875,-0.51991 0.72185,-1.17976" /><g
       transform="matrix(0.00821189,0,0,0.00821189,-364.51513,194.58614)"
       id="g102"><path
         inkscape:connector-curvature="0"
         id="path104"
         style="fill:#13375b;fill-opacity:1;fill-rule:nonzero;stroke:none"
         d="m 15054.2,12725.9 c -283.8,153.6 -626.4,92.3 -821,-160.1 -171.5,52.4 -364.5,31.8 -517.7,-56.6 -302.1,-174.3 -487.6,-662.9 -242.6,-928.1 59.6,-273 168.8,-488.7 440.3,-492.1 160.3,-294.7 659.5,-380.7 948.4,-104.4 251.9,-79.7 521.4,64.5 696.4,264.7 41.3,47.2 76.3,121.6 92,131.5 0.2,0.1 650,119.6 590.9,749 -61.7,658.8 -746.3,1113.3 -1186.7,596.1" /></g><path
       inkscape:connector-curvature="0"
       id="path106"
       style="fill:#f8a492;fill-opacity:1;fill-rule:nonzero;stroke:none;stroke-width:0.00813631"
       d="m -261.27759,234.39465 c 0.12205,-2.34081 0.56304,-4.44486 0.62813,-4.69465 0.0317,-0.1196 0.41414,-0.59395 0.44912,-0.7168 -0.57768,-2.75659 -2.48239,-4.18451 -4.22356,-5.1511 0.51991,1.35876 1.48976,2.86886 1.42874,3.19513 -0.0968,0.51909 -0.43285,2.87374 -1.39375,5.90696 1.34737,-0.022 1.92505,0.7583 3.11132,1.46046" /><path
       inkscape:connector-curvature="0"
       id="path108"
       style="fill:#355389;fill-opacity:1;fill-rule:nonzero;stroke:none;stroke-width:0.00813631"
       d="m -254.7661,268.01388 8.29497,-6.71652 c 0,0 -4.17962,-4.12104 -5.74749,-5.6523 -1.56787,-1.53206 -9.45602,-7.05092 -9.59434,-7.40404 -0.0285,-0.0708 0.38729,-0.91208 0.51503,-1.96085 0.34661,-2.83469 0.73715,-8.34704 0.8535,-13.07342 -0.89255,-0.93567 -2.82574,-1.15779 -3.98109,-1.45151 -2.8412,5.80769 -3.86882,16.95688 -3.85499,18.2953 0.0212,2.18134 13.51441,17.96334 13.51441,17.96334" /><g
       transform="matrix(0.00849699,0,0,0.00849699,-364.51513,194.58614)"
       id="g110"><path
         inkscape:connector-curvature="0"
         id="path112"
         style="fill:#f8a492;fill-opacity:1;fill-rule:nonzero;stroke:none"
         d="m 15763.9,6921.98 c -38.3,-24.61 -339,-399.2 -467.6,-607.47 -99.4,103.9 -149.8,211.43 -268.2,293.59 136,130.41 416.3,455.31 452,539.96 84.7,200.9 137.1,221.1 137.1,221.1 0,0 622.1,-398.05 652.4,-475.42 30.4,-77.47 -351.8,126.77 -505.7,28.24" /></g><g
       transform="matrix(0.00860276,0,0,0.00860276,-364.51513,194.58614)"
       id="g114"><path
         inkscape:connector-curvature="0"
         id="path116"
         style="fill:#184655;fill-opacity:1;fill-rule:nonzero;stroke:none"
         d="m 15271.9,7015.96 c -51.6,12.02 57.5,242.69 81.7,296.13 27.1,60.06 66.3,70.74 75.4,70.93 25,0.48 707.9,-436.47 812.4,-559.99 7.1,-8.42 17.8,-32.16 19.2,-37.17 39.4,-149.81 -576,-30.65 -651.1,48.52 -66.8,70.36 -105.1,127.11 -337.6,181.58" /></g><path
       inkscape:connector-curvature="0"
       id="path118"
       style="fill:#466eb6;fill-opacity:1;fill-rule:nonzero;stroke:none;stroke-width:0.00813631"
       d="m -256.57073,266.07256 c 0,0 7.89222,3.3432 7.89384,3.34402 -0.0293,-0.013 0.0366,-0.31244 0.0464,-0.33359 1.17407,-2.67685 3.93065,-2.59548 5.21293,-6.93702 1.01379,-3.4327 0.44831,-14.92687 0.44831,-14.92687 0,0 3.41725,2.49134 7.00374,5.14866 0.32708,0.24246 2.89408,-2.61257 2.89408,-2.61257 -4.8826,-8.18106 -12.43309,-11.33306 -13.38911,-10.95554 -3.26428,1.28961 -8.11352,23.23567 -8.10539,23.23323 -0.62975,1.31401 -2.00478,4.03968 -2.00478,4.03968" /><g
       transform="matrix(0.00902284,0,0,0.00902284,-364.51513,194.58614)"
       id="g120"><path
         inkscape:connector-curvature="0"
         id="path122"
         style="fill:#f8a492;fill-opacity:1;fill-rule:nonzero;stroke:none"
         d="m 13279.1,9968.94 c 0,0 995.3,199.16 1216.8,229.86 221.5,30.8 994.2,278.4 1023.9,289.1 29.7,10.6 150.4,413.9 192.7,383.1 42.3,-30.7 -72,-202.7 -18.7,-228.5 53.3,-25.7 519.8,165.1 521.8,126.2 4,-72.8 -281,-128.2 -273,-161.9 8,-33.8 291.8,86.2 324.6,34.6 32.8,-51.6 -279.3,-87.6 -285.8,-115.4 -6.5,-27.8 298.6,-6.8 280.4,-65.9 -10,-32 -271.9,-11.9 -261.9,-50.3 10,-38.4 208.5,-85.8 193.6,-121.6 -14.9,-35.8 -161.6,62.7 -265.6,40.7 -103.8,-22 -190.9,17.7 -345.4,-67.3 -154.6,-85 -664.2,-450.52 -1021,-513.22 -356.7,-62.71 -1144.6,-203.49 -1144.6,-203.49 l -137.8,424.05" /></g><path
       inkscape:connector-curvature="0"
       id="path124"
       style="fill:#f8a492;fill-opacity:1;fill-rule:nonzero;stroke:none;stroke-width:0.00813631"
       d="m -255.05006,285.50125 c 0,0 -3.40016,8.50406 -4.25935,10.32985 -0.8592,1.82579 -2.79401,8.88648 -2.85992,9.16311 -0.0667,0.27745 2.38638,3.17642 1.94621,3.34484 -0.44099,0.16842 -1.17732,-1.54346 -1.63458,-1.26764 -0.45727,0.27582 -1.31402,4.74266 -1.61832,4.5661 -0.56954,-0.32952 0.41577,-2.75496 0.12123,-2.86154 -0.29453,-0.10577 -0.78515,2.63047 -1.3376,2.62396 -0.55165,-0.007 0.71518,-2.5426 0.53618,-2.72892 -0.17819,-0.18551 -1.5223,2.22365 -1.87868,1.79487 -0.19364,-0.23351 1.24893,-2.11381 0.90964,-2.22772 -0.33928,-0.11391 -1.67608,1.15291 -1.87297,0.86407 -0.19772,-0.28883 1.27007,-0.91208 1.61587,-1.80626 0.34579,-0.89336 1.07399,-1.35632 1.19359,-2.9429 0.11961,-1.58739 -0.13262,-7.2405 1.15129,-10.24524 1.28391,-3.00555 4.10233,-9.65373 4.10233,-9.65373 l 3.88508,1.04715" /><path
       inkscape:connector-curvature="0"
       id="path126"
       style="fill:#f47458;fill-opacity:1;fill-rule:nonzero;stroke:none;stroke-width:0.00813631"
       d="m -257.76026,275.29018 c -0.10903,1.57926 -0.27908,5.83943 -0.20585,6.36178 -0.44099,1.64353 -2.08371,4.09012 -2.42625,4.78008 0,0 2.28631,2.65488 3.9632,2.61582 0,0 1.75988,-2.3701 3.07634,-3.10481 0.0195,0.005 0.46621,-0.21399 0.66392,-0.21399 1.27821,-0.003 5.74505,0.0952 6.57576,-0.1733 l -0.54187,-7.20633 c -0.24491,-0.41088 -0.61674,-8.69934 -1.11712,-9.37709 -0.50038,-0.67776 -7.71891,-3.71423 -8.90275,-2.90141 -0.0472,0.0325 -0.86407,6.02656 -1.08538,9.21925" /><path
       inkscape:connector-curvature="0"
       id="path128"
       style="fill:#f47458;fill-opacity:1;fill-rule:nonzero;stroke:none;stroke-width:0.00813631"
       d="m -265.06458,278.3723 c 0.20097,0.0985 0.67287,0.20422 1.35876,0.20992 2.02594,0.0155 5.4375,0.0667 5.4375,0.0667 0,0 0.79085,-4.3456 0.1074,-5.38216 0,0 -5.33742,-0.77702 -5.19015,-1.2351 l -1.71351,6.34063" /><path
       inkscape:connector-curvature="0"
       id="path130"
       style="fill:#f8a492;fill-opacity:1;fill-rule:nonzero;stroke:none;stroke-width:0.00813631"
       d="m -249.75006,288.35628 c 0,0 -0.48737,-2.49704 -0.40438,-3.48478 0.0838,-0.98775 -0.39298,-4.16335 -2.39207,-4.1544 -1.99828,0.009 -0.3401,4.047 -0.14239,5.01196 0.19771,0.96497 0.27175,3.9575 0.27175,3.9575 l 2.66709,-1.33028" /><path
       inkscape:connector-curvature="0"
       id="path132"
       style="fill:#f47458;fill-opacity:1;fill-rule:nonzero;stroke:none;stroke-width:0.00813631"
       d="m -252.47329,288.18541 c 0.0391,0.81852 0.0561,1.50115 0.0561,1.50115 l 2.66709,-1.33028 c 0,0 -0.0993,-0.51096 -0.20097,-1.16187 -1.1757,-0.23432 -2.02106,0.22782 -2.52226,0.991" /><path
       inkscape:connector-curvature="0"
       id="path134"
       style="fill:#f8a492;fill-opacity:1;fill-rule:nonzero;stroke:none;stroke-width:0.00813631"
       d="m -248.70292,295.25098 c 0,0 1.0268,-0.60941 1.39131,-1.9104 0.36532,-1.30181 -0.0968,-4.64583 -2.77286,-5.42773 -2.67603,-0.78272 -3.80535,1.8803 -3.23581,3.94773 0.56954,2.06825 1.78999,4.68164 4.61736,3.3904" /><path
       inkscape:connector-curvature="0"
       id="path136"
       style="fill:#f8a492;fill-opacity:1;fill-rule:nonzero;stroke:none;stroke-width:0.00813631"
       d="m -253.64654,292.66771 c 0.0472,-0.55734 0.33684,-0.98531 0.64765,-0.95683 0.3108,0.0285 0.52479,0.50363 0.4776,1.06097 -0.0472,0.55734 -0.33684,0.98612 -0.64765,0.95683 -0.30999,-0.0285 -0.52398,-0.50364 -0.4776,-1.06097" /><path
       inkscape:connector-curvature="0"
       id="path138"
       style="fill:#184655;fill-opacity:1;fill-rule:nonzero;stroke:none;stroke-width:0.00813631"
       d="m -260.63726,229.62922 c 0.22131,0.41658 1.73548,-1.20824 2.09917,-1.54509 0.40844,-0.37915 0.39705,-0.74284 0.3759,-0.82258 -0.0553,-0.21073 -5.03231,-5.16167 -6.38212,-5.75725 -0.12774,-0.057 -0.37753,-0.0252 -0.4475,0.0146 -0.66311,0.37427 1.03168,4.74428 2.05767,5.51479 0.66311,0.49794 1.301,0.7225 2.29688,2.59548" /><path
       inkscape:connector-curvature="0"
       id="path140"
       style="fill:#13375b;fill-opacity:1;fill-rule:nonzero;stroke:none;stroke-width:0.00813631"
       d="m -249.01454,295.42266 c 0,0 0.44749,-3.74026 1.59715,-4.42534 1.14885,-0.68508 0.64847,-2.33756 0.64847,-2.33756 0,0 1.0862,3.83708 0.18469,5.08194 -0.90231,1.24485 -2.43031,1.68096 -2.43031,1.68096" /><path
       inkscape:connector-curvature="0"
       id="path142"
       style="fill:#f8a492;fill-opacity:1;fill-rule:nonzero;stroke:none;stroke-width:0.00813631"
       d="m -248.10734,290.46765 c -0.31813,-0.4833 -0.32302,-1.05772 -0.01,-1.28228 0.31244,-0.22457 0.82421,-0.0138 1.14153,0.46946 0.31813,0.48411 0.32301,1.05772 0.0106,1.28228 -0.31324,0.22457 -0.8242,0.0138 -1.14233,-0.46946" /><path
       style="fill:#0000ff;fill-opacity:0.25098039;stroke:none;stroke-width:1.4042846;stroke-linecap:butt;stroke-linejoin:round;stroke-miterlimit:4;stroke-dasharray:none;stroke-dashoffset:0;stroke-opacity:1;paint-order:stroke fill markers"
       d="m -343.85,278.01531 h 52.56605 V 258.3325 H -343.85 Z"
       id="rect1143"
       inkscape:connector-curvature="0" /><path
       style="fill:#0000ff;fill-opacity:0.25098039;stroke:none;stroke-width:1.4042846;stroke-linecap:butt;stroke-linejoin:round;stroke-miterlimit:4;stroke-dasharray:none;stroke-dashoffset:0;stroke-opacity:1;paint-order:stroke fill markers"
       d="m -274.34526,278.10331 h 48.44085 v -22.39357 h -48.44085 z"
       id="rect1145"
       inkscape:connector-curvature="0" /><g
       aria-label="y = 2x"
       transform="matrix(0.93618976,0,0,-0.93618976,-63.767614,-3.9801539)"
       style="font-style:normal;font-variant:normal;font-weight:normal;font-stretch:normal;font-size:14px;line-height:14px;font-family:'Times New Roman';-inkscape-font-specification:'Times New Roman, ';text-align:start;letter-spacing:0px;word-spacing:0px;text-anchor:start;fill:#000000;fill-opacity:1;stroke:#ffffff;stroke-width:2.40335897;paint-order:stroke fill markers"
       id="text306"><path
         d="m -290.50754,-294.56653 q 0.29883,0.50977 0.41309,0.95801 0.11426,0.43945 0.22851,1.74023 l 0.38672,4.32422 q 0.52735,-0.63281 1.5293,-2.0039 0.4834,-0.66797 1.19531,-1.81934 0.43067,-0.70312 0.52735,-0.98437 0.0527,-0.14063 0.0527,-0.29004 0,-0.0967 -0.0615,-0.15821 -0.0615,-0.0615 -0.3252,-0.14062 -0.25488,-0.0879 -0.43066,-0.30762 -0.167,-0.22851 -0.167,-0.51855 0,-0.36036 0.21094,-0.58008 0.21094,-0.21973 0.52735,-0.21973 0.38671,0 0.65918,0.3252 0.27246,0.3164 0.27246,0.8789 0,0.69434 -0.47461,1.59082 -0.47461,0.8877 -1.82813,2.7334 -1.35351,1.84571 -3.27832,4.02539 -1.32715,1.50293 -1.96875,1.88965 -0.6416,0.39551 -1.09863,0.39551 -0.27246,0 -0.47461,-0.21094 -0.21094,-0.20215 -0.21094,-0.47461 0,-0.34277 0.29004,-0.62402 0.28125,-0.28125 0.61524,-0.28125 0.17578,0 0.29003,0.0791 0.0703,0.0439 0.15821,0.24609 0.0791,0.21094 0.14941,0.28125 0.0439,0.0439 0.10547,0.0439 0.0527,0 0.18457,-0.0879 0.4834,-0.29883 1.125,-0.94922 0.84375,-0.86133 1.24805,-1.40625 l -0.49219,-5.57227 q -0.12305,-1.37988 -0.36914,-1.67871 -0.24609,-0.29882 -0.82617,-0.29882 -0.18457,0 -0.65918,0.0527 l -0.0791,-0.3252 z"
         style="font-style:italic;font-variant:normal;font-weight:normal;font-stretch:normal;font-size:18px;font-family:'Times New Roman';-inkscape-font-specification:'Times New Roman, Italic';fill:#000000;stroke:#ffffff;stroke-width:2.40335897;paint-order:stroke fill markers"
         id="path1182"
         inkscape:connector-curvature="0" /><path
         d="m -279.14328,-294.37317 h 9.4834 v 0.7207 h -9.4834 z m 0,2.86524 h 9.4834 v 0.7207 h -9.4834 z"
         style="font-style:italic;font-variant:normal;font-weight:normal;font-stretch:normal;font-size:18px;font-family:'Times New Roman';-inkscape-font-specification:'Times New Roman, Italic';fill:#000000;stroke:#ffffff;stroke-width:2.40335897;paint-order:stroke fill markers"
         id="path1184"
         inkscape:connector-curvature="0" /><path
         d="m -258.02316,-286.61243 h -5.93262 v -0.32519 q 4.53516,-3.97266 5.99414,-6.23145 0.67676,-1.0459 0.67676,-2.19726 0,-0.91407 -0.5625,-1.48535 -0.5625,-0.58008 -1.45899,-0.58008 -1.23925,0 -2.03906,1.18652 l -0.30762,-0.14062 q 0.44825,-1.13379 1.30957,-1.75782 0.86133,-0.63281 1.86329,-0.63281 1.13378,0 1.90722,0.78223 0.77344,0.77343 0.77344,1.88086 0,0.77343 -0.27246,1.43261 -0.42188,1.02832 -1.55567,2.30274 -1.72265,1.95117 -4.59667,4.49121 h 2.98828 q 0.7207,0 1.18652,-0.29883 0.46582,-0.29883 0.66797,-0.7998 h 0.35156 z"
         style="font-style:italic;font-variant:normal;font-weight:normal;font-stretch:normal;font-size:18px;font-family:'Times New Roman';-inkscape-font-specification:'Times New Roman, Italic';fill:#000000;stroke:#ffffff;stroke-width:2.40335897;paint-order:stroke fill markers"
         id="path1186"
         inkscape:connector-curvature="0" /><path
         d="m -252.11691,-294.56653 q 0.43066,0.45703 0.65039,0.91406 0.1582,0.31641 0.51855,1.66114 l 0.77344,-1.16016 q 0.30762,-0.42187 0.74707,-0.7998 0.43945,-0.38672 0.77344,-0.52735 0.21094,-0.0879 0.46582,-0.0879 0.37793,0 0.59765,0.20215 0.22852,0.20215 0.22852,0.49219 0,0.33398 -0.13184,0.45703 -0.24609,0.21973 -0.5625,0.21973 -0.18457,0 -0.3955,-0.0791 -0.41309,-0.14062 -0.55371,-0.14062 -0.21094,0 -0.50098,0.24609 -0.54492,0.45703 -1.30078,1.7666 l 0.7207,3.02344 q 0.16699,0.69434 0.28125,0.83496 0.11426,0.13184 0.22852,0.13184 0.18457,0 0.43066,-0.20215 0.4834,-0.4043 0.82617,-1.05469 l 0.30762,0.15821 q -0.55371,1.03711 -1.40625,1.72265 -0.4834,0.38672 -0.81738,0.38672 -0.49219,0 -0.78223,-0.55371 -0.18457,-0.34277 -0.76465,-2.95313 -1.37109,2.38184 -2.19726,3.06739 -0.53614,0.43945 -1.03711,0.43945 -0.35157,0 -0.64161,-0.25488 -0.21093,-0.19336 -0.21093,-0.51856 0,-0.29004 0.19336,-0.4834 0.19336,-0.19335 0.47461,-0.19335 0.28125,0 0.59765,0.28125 0.22852,0.20214 0.35156,0.20214 0.10547,0 0.27247,-0.14062 0.41308,-0.33399 1.125,-1.44141 0.71191,-1.10742 0.93164,-1.59961 -0.54493,-2.13574 -0.58887,-2.25879 -0.20215,-0.57128 -0.52734,-0.80859 -0.3252,-0.2373 -0.95801,-0.2373 -0.20215,0 -0.46582,0.0176 v -0.3164 z"
         style="font-style:italic;font-variant:normal;font-weight:normal;font-stretch:normal;font-size:18px;font-family:'Times New Roman';-inkscape-font-specification:'Times New Roman, Italic';fill:#000000;stroke:#ffffff;stroke-width:2.40335897;paint-order:stroke fill markers"
         id="path1188"
         inkscape:connector-curvature="0" /></g><g
       aria-label="y = x2"
       transform="matrix(0.93618976,0,0,-0.93618976,-75.822629,-3.7742767)"
       style="font-style:normal;font-variant:normal;font-weight:normal;font-stretch:normal;font-size:14px;line-height:14px;font-family:'Times New Roman';-inkscape-font-specification:'Times New Roman, ';text-align:start;letter-spacing:0px;word-spacing:0px;text-anchor:start;fill:#000000;fill-opacity:1;stroke:#ffffff;stroke-width:2.40335897;paint-order:stroke fill markers"
       id="text1137"><path
         d="m -203.89227,-291.2933 q 0.29883,0.50976 0.41308,0.958 0.11426,0.43946 0.22852,1.74024 l 0.38672,4.32422 q 0.52734,-0.63282 1.52929,-2.00391 0.4834,-0.66797 1.19532,-1.81934 0.43066,-0.70312 0.52734,-0.98437 0.0527,-0.14063 0.0527,-0.29004 0,-0.0967 -0.0615,-0.1582 -0.0615,-0.0615 -0.32519,-0.14063 -0.25489,-0.0879 -0.43067,-0.30762 -0.16699,-0.22851 -0.16699,-0.51855 0,-0.36035 0.21094,-0.58008 0.21093,-0.21972 0.52734,-0.21972 0.38672,0 0.65918,0.32519 0.27246,0.31641 0.27246,0.87891 0,0.69433 -0.47461,1.59082 -0.47461,0.88769 -1.82812,2.7334 -1.35352,1.8457 -3.27832,4.02539 -1.32715,1.50293 -1.96875,1.88964 -0.6416,0.39551 -1.09864,0.39551 -0.27246,0 -0.47461,-0.21093 -0.21093,-0.20215 -0.21093,-0.47461 0,-0.34278 0.29004,-0.62403 0.28125,-0.28125 0.61523,-0.28125 0.17578,0 0.29004,0.0791 0.0703,0.0439 0.1582,0.2461 0.0791,0.21094 0.14942,0.28125 0.0439,0.0439 0.10547,0.0439 0.0527,0 0.18457,-0.0879 0.48339,-0.29883 1.125,-0.94922 0.84375,-0.86132 1.24804,-1.40625 l -0.49218,-5.57226 q -0.12305,-1.37988 -0.36915,-1.67871 -0.24609,-0.29883 -0.82617,-0.29883 -0.18457,0 -0.65918,0.0527 l -0.0791,-0.32519 z"
         style="font-style:italic;font-variant:normal;font-weight:normal;font-stretch:normal;font-size:18px;font-family:'Times New Roman';-inkscape-font-specification:'Times New Roman, Italic';fill:#000000;stroke:#ffffff;stroke-width:2.40335897;paint-order:stroke fill markers"
         id="path1191"
         inkscape:connector-curvature="0" /><path
         d="m -192.52802,-291.09995 h 9.4834 v 0.72071 h -9.4834 z m 0,2.86524 h 9.4834 v 0.7207 h -9.4834 z"
         style="font-style:italic;font-variant:normal;font-weight:normal;font-stretch:normal;font-size:18px;font-family:'Times New Roman';-inkscape-font-specification:'Times New Roman, Italic';fill:#000000;stroke:#ffffff;stroke-width:2.40335897;paint-order:stroke fill markers"
         id="path1193"
         inkscape:connector-curvature="0" /><path
         d="m -174.50165,-291.2933 q 0.43067,0.45703 0.65039,0.91406 0.15821,0.3164 0.51856,1.66113 l 0.77343,-1.16016 q 0.30762,-0.42187 0.74708,-0.7998 0.43945,-0.38672 0.77343,-0.52734 0.21094,-0.0879 0.46582,-0.0879 0.37793,0 0.59766,0.20214 0.22851,0.20215 0.22851,0.49219 0,0.33399 -0.13183,0.45703 -0.24609,0.21973 -0.5625,0.21973 -0.18457,0 -0.39551,-0.0791 -0.41308,-0.14063 -0.55371,-0.14063 -0.21094,0 -0.50098,0.2461 -0.54492,0.45703 -1.30078,1.7666 l 0.72071,3.02344 q 0.16699,0.69433 0.28125,0.83496 0.11425,0.13183 0.22851,0.13183 0.18457,0 0.43067,-0.20215 0.48339,-0.40429 0.82617,-1.05468 l 0.30761,0.1582 q -0.55371,1.03711 -1.40625,1.72266 -0.48339,0.38671 -0.81738,0.38671 -0.49219,0 -0.78223,-0.55371 -0.18457,-0.34277 -0.76464,-2.95312 -1.3711,2.38183 -2.19727,3.06738 -0.53613,0.43945 -1.03711,0.43945 -0.35156,0 -0.6416,-0.25488 -0.21094,-0.19336 -0.21094,-0.51855 0,-0.29004 0.19336,-0.4834 0.19336,-0.19336 0.47461,-0.19336 0.28125,0 0.59766,0.28125 0.22851,0.20215 0.35156,0.20215 0.10547,0 0.27246,-0.14063 0.41309,-0.33398 1.125,-1.4414 0.71191,-1.10743 0.93164,-1.59961 -0.54492,-2.13575 -0.58887,-2.25879 -0.20214,-0.57129 -0.52734,-0.8086 -0.32519,-0.2373 -0.95801,-0.2373 -0.20215,0 -0.46582,0.0176 v -0.31641 z"
         style="font-style:italic;font-variant:normal;font-weight:normal;font-stretch:normal;font-size:18px;font-family:'Times New Roman';-inkscape-font-specification:'Times New Roman, Italic';fill:#000000;stroke:#ffffff;stroke-width:2.40335897;paint-order:stroke fill markers"
         id="path1195"
         inkscape:connector-curvature="0" /><path
         d="m -164.27689,-292.03027 -0.54273,1.49107 h -4.57031 v -0.21138 q 2.01665,-1.83955 2.83931,-3.00498 0.82265,-1.16543 0.82265,-2.13091 0,-0.73696 -0.45131,-1.21113 -0.45132,-0.47417 -1.07974,-0.47417 -0.57129,0 -1.02832,0.33706 -0.45132,0.33135 -0.66841,0.9769 h -0.21138 q 0.14283,-1.05688 0.73125,-1.62246 0.59414,-0.56557 1.47964,-0.56557 0.94263,0 1.57105,0.60556 0.63413,0.60557 0.63413,1.42823 0,0.58842 -0.27422,1.17685 -0.42275,0.92549 -1.37109,1.95952 -1.42251,1.55391 -1.77671,1.87383 h 2.02236 q 0.61699,0 0.86265,-0.0457 0.25136,-0.0457 0.45131,-0.18281 0.19996,-0.14283 0.34849,-0.39991 z"
         style="font-style:normal;font-variant:normal;font-weight:normal;font-stretch:normal;font-size:64.99999762%;font-family:'Times New Roman';-inkscape-font-specification:'Times New Roman, ';baseline-shift:super;stroke-width:2.40335897"
         id="path1197"
         inkscape:connector-curvature="0" /></g><g
       aria-label="Я твоя производная!"
       transform="matrix(0.78015813,0,0,-0.78015813,-105.82975,46.567016)"
       style="font-style:italic;font-variant:normal;font-weight:normal;font-stretch:normal;font-size:15.48086166px;line-height:15.48086166px;font-family:'GOST type B';-inkscape-font-specification:'GOST type B Italic';text-align:start;letter-spacing:0px;word-spacing:0px;text-anchor:start;fill:#ff0000;fill-opacity:1;stroke:none;stroke-width:0.82933187"
       id="text1151"><path
         d="m -385.28876,-340.74483 0.84661,-4.23305 h -3.17479 q -0.44598,0 -0.81637,0.30236 -0.18142,0.15118 -0.2948,0.34772 -0.11339,0.18897 -0.15874,0.40818 l -0.42331,2.11653 q -0.0907,0.44598 0.15118,0.7559 0.12851,0.13606 0.29481,0.22677 0.21165,0.0756 0.40062,0.0756 z m -2.03337,1.05826 -3.29574,3.99116 q -0.20409,0.24945 -0.46865,0.24945 -0.2041,0 -0.34016,-0.1663 -0.15118,-0.15874 -0.10583,-0.37039 0.0302,-0.15874 0.14363,-0.28725 l 2.81951,-3.41667 h -0.10583 q -0.86173,0 -1.36818,-0.61228 -0.4989,-0.61984 -0.32504,-1.50424 l 0.42331,-2.11653 q 0.17385,-0.8844 0.91464,-1.49668 0.74078,-0.61984 1.62519,-0.61984 h 3.70391 q 0.52913,0 0.42331,0.52913 l -1.90487,9.52436 q -0.0529,0.24944 -0.23433,0.40063 -0.1663,0.1285 -0.40063,0.1285 -0.21165,0 -0.34772,-0.1285 -0.1285,-0.13607 -0.0756,-0.40063 l 0.74079,-3.70392 z"
         style="fill:#ff0000;stroke-width:0.82933187"
         id="path1213"
         inkscape:connector-curvature="0" /><path
         d="m -372.37796,-341.80309 h -2.11653 l -1.16409,5.82044 q -0.0529,0.24944 -0.23433,0.40063 -0.16629,0.1285 -0.40062,0.1285 -0.21166,0 -0.34772,-0.1285 -0.1285,-0.13607 -0.0756,-0.40063 l 1.26992,-6.34957 q 0.10582,-0.52914 0.63495,-0.52914 h 4.76218 q 0.86173,0 1.36063,0.61984 0.50645,0.61228 0.33259,1.49669 l -0.95243,4.76218 q -0.0529,0.24944 -0.23433,0.40063 -0.1663,0.1285 -0.40063,0.1285 -0.21165,0 -0.34772,-0.1285 -0.1285,-0.13607 -0.0756,-0.40063 l 0.95244,-4.76218 q 0.0907,-0.44598 -0.15118,-0.74834 -0.23433,-0.30992 -0.69543,-0.30992 h -1.05826 l -1.16409,5.82044 q -0.0529,0.24944 -0.23433,0.40063 -0.1663,0.1285 -0.40063,0.1285 -0.21165,0 -0.34771,-0.1285 -0.1285,-0.13607 -0.0756,-0.40063 z"
         style="fill:#ff0000;stroke-width:0.82933187"
         id="path1215"
         inkscape:connector-curvature="0" /><path
         d="m -362.64195,-337.57005 0.63495,-3.17478 q 0.0907,-0.44598 -0.15118,-0.74834 -0.23432,-0.30992 -0.69542,-0.30992 h -1.05827 q -0.44598,0 -0.81637,0.30236 -0.18142,0.15118 -0.2948,0.34771 -0.11339,0.18898 -0.15874,0.40819 l -0.63496,3.17478 q -0.0907,0.44599 0.15118,0.75591 0.12851,0.13606 0.2948,0.22677 0.21166,0.0756 0.40063,0.0756 h 1.05826 q 0.43843,0 0.80882,-0.29481 0.37039,-0.2948 0.4611,-0.76346 z m -2.19212,-4.92091 0.49134,-0.28725 0.71055,-0.43842 q 0.35527,-0.23433 0.51401,-0.39307 0.24945,-0.24945 0.30992,-0.52157 0.068,-0.36283 -0.13606,-0.61228 -0.21166,-0.21921 -0.54425,-0.21921 -0.34772,0 -0.64252,0.21921 -0.2948,0.20409 -0.37039,0.61228 z m 2.18456,-0.34016 q 1.01291,0 1.46645,0.60472 0.41574,0.57449 0.23433,1.48157 l -0.63496,3.17478 q -0.17386,0.86929 -0.9222,1.49669 -0.74078,0.61984 -1.61763,0.61984 h -1.05826 q -0.85417,0 -1.36818,-0.61228 -0.50646,-0.61228 -0.32504,-1.50425 l 1.31527,-6.56122 q 0.17386,-0.88441 0.86928,-1.42865 0.65008,-0.48378 1.4211,-0.48378 0.73322,0 1.217,0.49889 0.48378,0.4989 0.30236,1.40598 -0.10582,0.51401 -0.30992,0.77102 -0.18141,0.26457 -0.5896,0.53669 z"
         style="fill:#ff0000;stroke-width:0.82933187"
         id="path1217"
         inkscape:connector-curvature="0" /><path
         d="m -354.1305,-337.7817 q -0.18898,0.94488 -1.00535,1.64031 -0.81638,0.68787 -1.79149,0.68787 h -0.63496 q -0.94487,0 -1.50424,-0.67275 -0.55181,-0.67276 -0.35527,-1.65543 l 0.54425,-2.75148 q 0.18897,-0.92976 1.00534,-1.62519 0.82394,-0.70299 1.79149,-0.70299 h 0.63496 q 0.94488,0 1.49668,0.68032 0.55937,0.67275 0.36284,1.64786 z m -1.05827,0 0.54425,-2.75148 q 0.10583,-0.52157 -0.18897,-0.89196 -0.28724,-0.37795 -0.82393,-0.37795 h -0.63496 q -0.52157,0 -0.97511,0.37039 -0.44599,0.37039 -0.55181,0.89952 l -0.54425,2.75148 q -0.10583,0.52157 0.18897,0.89952 0.29481,0.3704 0.82394,0.3704 h 0.63495 q 0.51402,0 0.96,-0.36284 0.45354,-0.36283 0.56692,-0.90708 z"
         style="fill:#ff0000;stroke-width:0.82933187"
         id="path1219"
         inkscape:connector-curvature="0" /><path
         d="m -347.40298,-339.68657 0.4233,-2.11652 h -2.11652 q -0.44598,0 -0.84661,0.31747 -0.34016,0.30992 -0.42331,0.74079 -0.0831,0.40063 0.12851,0.73322 0.21165,0.32504 0.7181,0.32504 z m -1.5118,1.05826 -2.54739,2.94046 q -0.0756,0.0983 -0.24189,0.18897 l -0.24189,0.0529 q -0.1663,0 -0.34015,-0.15874 -0.14363,-0.15874 -0.0983,-0.37795 0.0302,-0.13607 0.15118,-0.2948 l 2.06361,-2.38109 q -0.7559,-0.11339 -1.08094,-0.73323 -0.31748,-0.61984 -0.17386,-1.35306 0.17386,-0.85417 0.81638,-1.45133 0.73322,-0.6652 1.72345,-0.6652 h 2.64566 q 0.52913,0 0.4233,0.52914 l -1.26991,6.34957 q -0.0529,0.24944 -0.23433,0.40063 -0.1663,0.1285 -0.40063,0.1285 -0.21165,0 -0.34771,-0.1285 -0.12851,-0.13607 -0.0756,-0.40063 l 0.52913,-2.64566 z"
         style="fill:#ff0000;stroke-width:0.82933187"
         id="path1221"
         inkscape:connector-curvature="0" /><path
         d="m -333.32809,-335.98265 q -0.0529,0.24944 -0.23433,0.40063 -0.1663,0.1285 -0.40063,0.1285 -0.21165,0 -0.34772,-0.1285 -0.1285,-0.13607 -0.0756,-0.40063 l 0.95244,-4.76218 q 0.0907,-0.44598 -0.15118,-0.74834 -0.23433,-0.30992 -0.69543,-0.30992 h -2.11652 l -1.16409,5.82044 q -0.0529,0.24944 -0.23433,0.40063 -0.1663,0.1285 -0.40063,0.1285 -0.21165,0 -0.34771,-0.1285 -0.12851,-0.13607 -0.0756,-0.40063 l 1.26991,-6.34957 q 0.10583,-0.52914 0.63496,-0.52914 h 2.64565 q 0.84661,0 1.36062,0.61228 0.51402,0.60473 0.3326,1.50425 z"
         style="fill:#ff0000;stroke-width:0.82933187"
         id="path1223"
         inkscape:connector-curvature="0" /><path
         d="m -330.04748,-336.51178 h 2.11652 q 0.43842,0 0.80882,-0.29481 0.37039,-0.2948 0.4611,-0.76346 l 0.63495,-3.17478 q 0.0907,-0.44598 -0.15118,-0.74834 -0.23433,-0.30992 -0.69543,-0.30992 h -2.11652 z m -0.21166,1.05826 -0.52913,2.64565 q -0.0453,0.21921 -0.24189,0.3704 -0.18897,0.15873 -0.39306,0.15873 -0.18142,0 -0.3326,-0.13606 -0.14362,-0.1285 -0.0907,-0.39307 l 1.90487,-9.52435 q 0.10583,-0.52914 0.63496,-0.52914 h 2.64566 q 0.86172,0 1.36062,0.61984 0.50645,0.61228 0.33259,1.49669 l -0.63495,3.17478 q -0.17386,0.86929 -0.9222,1.49669 -0.74079,0.61984 -1.61763,0.61984 z"
         style="fill:#ff0000;stroke-width:0.82933187"
         id="path1225"
         inkscape:connector-curvature="0" /><path
         d="m -318.1496,-337.7817 q -0.18897,0.94488 -1.00534,1.64031 -0.81638,0.68787 -1.79149,0.68787 h -0.63496 q -0.94488,0 -1.50424,-0.67275 -0.55181,-0.67276 -0.35528,-1.65543 l 0.54425,-2.75148 q 0.18898,-0.92976 1.00535,-1.62519 0.82393,-0.70299 1.79149,-0.70299 h 0.63496 q 0.94487,0 1.49668,0.68032 0.55937,0.67275 0.36283,1.64786 z m -1.05826,0 0.54425,-2.75148 q 0.10583,-0.52157 -0.18897,-0.89196 -0.28725,-0.37795 -0.82394,-0.37795 h -0.63495 q -0.52158,0 -0.97512,0.37039 -0.44598,0.37039 -0.5518,0.89952 l -0.54425,2.75148 q -0.10583,0.52157 0.18897,0.89952 0.2948,0.3704 0.82393,0.3704 h 0.63496 q 0.51401,0 0.96,-0.36284 0.45354,-0.36283 0.56692,-0.90708 z"
         style="fill:#ff0000;stroke-width:0.82933187"
         id="path1227"
         inkscape:connector-curvature="0" /><path
         d="m -311.10459,-335.98265 q -0.10583,0.52913 -0.63496,0.52913 h -2.64565 q -0.85417,0 -1.36819,-0.61228 -0.50645,-0.61228 -0.32503,-1.50425 l 0.95243,-4.76217 q 0.0454,-0.21166 0.23433,-0.39307 0.18898,-0.13607 0.40063,-0.13607 0.20409,0 0.34016,0.13607 0.13606,0.1285 0.0831,0.39307 l -0.95243,4.76217 q -0.0907,0.44599 0.15118,0.75591 0.1285,0.13606 0.2948,0.22677 0.21165,0.0756 0.40063,0.0756 h 2.11652 l 1.16409,-5.82044 q 0.0453,-0.21166 0.23433,-0.39307 0.18898,-0.13607 0.40063,-0.13607 0.20409,0 0.34015,0.13607 0.13607,0.1285 0.0831,0.39307 z"
         style="fill:#ff0000;stroke-width:0.82933187"
         id="path1229"
         inkscape:connector-curvature="0" /><path
         d="m -305.67722,-338.62831 h -0.6652 q -0.24189,0 -0.36283,-0.15118 -0.10583,-0.15874 -0.0605,-0.37795 0.0378,-0.18897 0.21165,-0.35527 0.17386,-0.17386 0.42331,-0.17386 h 0.52913 q 0.48377,0 0.83149,-0.31748 0.35527,-0.32504 0.43842,-0.74078 0.0907,-0.44598 -0.11338,-0.73323 -0.0983,-0.14362 -0.28725,-0.23433 -0.18141,-0.0907 -0.44598,-0.0907 h -0.52913 q -0.73322,0 -1.35306,0.4233 -0.15874,0.0907 -0.34772,0.11339 -0.1663,0 -0.34015,-0.15874 -0.12095,-0.1663 -0.0756,-0.38551 0.0529,-0.24945 0.2948,-0.41575 0.94487,-0.63496 2.03337,-0.63496 h 0.52913 q 0.99779,0 1.45889,0.65764 0.40819,0.59716 0.23433,1.45889 -0.0529,0.24945 -0.1285,0.45354 -0.0756,0.20409 -0.21165,0.41574 -0.22677,0.3704 -0.64252,0.71811 0.24945,0.27968 0.35527,0.71811 l 0.0378,0.4233 q 0,0.2041 -0.0453,0.45354 -0.17386,0.86929 -0.82394,1.45133 -0.69543,0.65764 -1.71589,0.65764 h -0.52913 q -1.06583,0 -1.77637,-0.63496 -0.18898,-0.15874 -0.13607,-0.4233 0.0378,-0.17386 0.23433,-0.36284 0.19654,-0.18897 0.40819,-0.18897 0.14362,0 0.2948,0.1285 0.46866,0.42331 1.18677,0.42331 h 0.52913 q 0.47622,0 0.83149,-0.31748 0.35527,-0.32504 0.43842,-0.74834 0.0831,-0.40819 -0.0907,-0.68788 -0.1663,-0.27968 -0.61984,-0.36283 z"
         style="fill:#ff0000;stroke-width:0.82933187"
         id="path1231"
         inkscape:connector-curvature="0" /><path
         d="m -297.54372,-337.57005 0.63495,-3.17478 q 0.0907,-0.44598 -0.15118,-0.74834 -0.23433,-0.30992 -0.69543,-0.30992 h -1.05826 q -0.44598,0 -0.81637,0.30236 -0.18142,0.15118 -0.2948,0.34771 -0.11339,0.18898 -0.15874,0.40819 l -0.63496,3.17478 q -0.0907,0.44599 0.15118,0.75591 0.1285,0.13606 0.2948,0.22677 0.21165,0.0756 0.40063,0.0756 h 1.05826 q 0.43842,0 0.80882,-0.29481 0.37039,-0.2948 0.4611,-0.76346 z m -2.19212,-4.92091 0.49134,-0.28725 0.71055,-0.43842 q 0.35527,-0.23433 0.51401,-0.39307 0.24945,-0.24945 0.30992,-0.52157 0.068,-0.36283 -0.13606,-0.61228 -0.21166,-0.21921 -0.54425,-0.21921 -0.34772,0 -0.64252,0.21921 -0.2948,0.20409 -0.37039,0.61228 z m 2.18456,-0.34016 q 1.0129,0 1.46645,0.60472 0.41574,0.57449 0.23433,1.48157 l -0.63496,3.17478 q -0.17386,0.86929 -0.9222,1.49669 -0.74079,0.61984 -1.61763,0.61984 h -1.05826 q -0.85417,0 -1.36818,-0.61228 -0.50646,-0.61228 -0.32504,-1.50425 l 1.31527,-6.56122 q 0.17385,-0.88441 0.86928,-1.42865 0.65008,-0.48378 1.4211,-0.48378 0.73322,0 1.217,0.49889 0.48378,0.4989 0.30236,1.40598 -0.10583,0.51401 -0.30992,0.77102 -0.18142,0.26457 -0.5896,0.53669 z"
         style="fill:#ff0000;stroke-width:0.82933187"
         id="path1233"
         inkscape:connector-curvature="0" /><path
         d="m -289.03227,-337.7817 q -0.18898,0.94488 -1.00535,1.64031 -0.81637,0.68787 -1.79149,0.68787 h -0.63495 q -0.94488,0 -1.50425,-0.67275 -0.55181,-0.67276 -0.35527,-1.65543 l 0.54425,-2.75148 q 0.18897,-0.92976 1.00535,-1.62519 0.82393,-0.70299 1.79148,-0.70299 h 0.63496 q 0.94488,0 1.49669,0.68032 0.55936,0.67275 0.36283,1.64786 z m -1.05826,0 0.54425,-2.75148 q 0.10582,-0.52157 -0.18898,-0.89196 -0.28724,-0.37795 -0.82393,-0.37795 h -0.63496 q -0.52157,0 -0.97511,0.37039 -0.44598,0.37039 -0.55181,0.89952 l -0.54425,2.75148 q -0.10583,0.52157 0.18898,0.89952 0.2948,0.3704 0.82393,0.3704 h 0.63496 q 0.51401,0 0.95999,-0.36284 0.45354,-0.36283 0.56693,-0.90708 z"
         style="fill:#ff0000;stroke-width:0.82933187"
         id="path1235"
         inkscape:connector-curvature="0" /><path
         d="m -281.88144,-341.80309 h -2.11652 q -0.44599,0 -0.81638,0.30236 -0.18141,0.15118 -0.2948,0.34771 -0.11338,0.18898 -0.15874,0.40819 l -0.63496,3.17478 q -0.0907,0.44599 0.15118,0.75591 0.12851,0.13606 0.29481,0.22677 0.21165,0.0756 0.40062,0.0756 h 1.05827 q 0.43842,0 0.80881,-0.29481 0.37039,-0.2948 0.4611,-0.76346 z m 0.21165,-1.05827 0.21165,-1.05826 q 0.0907,-0.44598 -0.15118,-0.74834 -0.23433,-0.30992 -0.69543,-0.30992 h -2.11652 q -0.24189,0 -0.36283,-0.14362 -0.10583,-0.17386 -0.0605,-0.38551 0.0378,-0.18142 0.20409,-0.35527 0.1663,-0.17386 0.43086,-0.17386 h 2.11653 q 0.8844,0 1.37574,0.61984 0.49133,0.61984 0.31748,1.49668 l -1.26992,6.34957 q -0.17386,0.86929 -0.9222,1.49669 -0.74078,0.61984 -1.61763,0.61984 h -1.05826 q -0.85417,0 -1.36818,-0.61228 -0.50645,-0.61228 -0.32504,-1.50425 l 0.63496,-3.17478 q 0.17386,-0.87685 0.91464,-1.49669 0.74834,-0.61984 1.62519,-0.61984 z"
         style="fill:#ff0000;stroke-width:0.82933187"
         id="path1237"
         inkscape:connector-curvature="0" /><path
         d="m -274.89692,-339.68657 0.52913,-2.64565 q 0.0454,-0.21166 0.23433,-0.39307 0.18898,-0.13607 0.40063,-0.13607 0.2041,0 0.34016,0.13607 0.13606,0.1285 0.0831,0.39307 l -1.26992,6.34957 q -0.0529,0.24944 -0.23433,0.40063 -0.1663,0.1285 -0.40062,0.1285 -0.21166,0 -0.34772,-0.1285 -0.1285,-0.13607 -0.0756,-0.40063 l 0.52913,-2.64566 h -3.17478 l -0.52914,2.64566 q -0.0529,0.24944 -0.23433,0.40063 -0.16629,0.1285 -0.40062,0.1285 -0.21166,0 -0.34772,-0.1285 -0.1285,-0.13607 -0.0756,-0.40063 l 1.26992,-6.34957 q 0.0453,-0.21166 0.23433,-0.39307 0.18897,-0.13607 0.40062,-0.13607 0.2041,0 0.34016,0.13607 0.13606,0.1285 0.0831,0.39307 l -0.52913,2.64565 z"
         style="fill:#ff0000;stroke-width:0.82933187"
         id="path1239"
         inkscape:connector-curvature="0" /><path
         d="m -267.91238,-337.57005 0.84661,-4.23304 h -2.11653 q -0.44598,0 -0.81637,0.30236 -0.18142,0.15118 -0.2948,0.34771 -0.11339,0.18898 -0.15874,0.40819 l -0.63496,3.17478 q -0.0907,0.44599 0.15118,0.75591 0.1285,0.13606 0.2948,0.22677 0.21165,0.0756 0.40063,0.0756 h 1.05826 q 0.43842,0 0.80882,-0.29481 0.37039,-0.2948 0.4611,-0.76346 z m 0.23433,1.4211 q -0.30992,0.2948 -0.7937,0.49889 -0.48378,0.19654 -0.9222,0.19654 h -1.05826 q -0.85417,0 -1.36818,-0.61228 -0.50646,-0.61228 -0.32504,-1.50425 l 0.63496,-3.17478 q 0.17385,-0.87685 0.91464,-1.49669 0.74834,-0.61984 1.62518,-0.61984 h 2.64566 q 0.52913,0 0.4233,0.52914 l -0.95243,4.75462 q -0.0605,0.31747 0.0756,0.65007 0.12094,0.2948 0.43842,0.4611 0.30236,0.13606 0.23433,0.47622 -0.0454,0.23433 -0.22677,0.38551 -0.1663,0.15874 -0.40819,0.15874 -0.11338,0 -0.21165,-0.0529 -0.47622,-0.20409 -0.72566,-0.65007 z"
         style="fill:#ff0000;stroke-width:0.82933187"
         id="path1241"
         inkscape:connector-curvature="0" /><path
         d="m -260.08125,-339.68657 0.4233,-2.11652 h -2.11652 q -0.44598,0 -0.84661,0.31747 -0.34015,0.30992 -0.4233,0.74079 -0.0831,0.40063 0.1285,0.73322 0.21165,0.32504 0.71811,0.32504 z m -1.5118,1.05826 -2.54739,2.94046 q -0.0756,0.0983 -0.24189,0.18897 l -0.24189,0.0529 q -0.1663,0 -0.34015,-0.15874 -0.14362,-0.15874 -0.0983,-0.37795 0.0302,-0.13607 0.15118,-0.2948 l 2.06361,-2.38109 q -0.7559,-0.11339 -1.08094,-0.73323 -0.31748,-0.61984 -0.17386,-1.35306 0.17386,-0.85417 0.81638,-1.45133 0.73322,-0.6652 1.72345,-0.6652 h 2.64566 q 0.52913,0 0.4233,0.52914 l -1.26991,6.34957 q -0.0529,0.24944 -0.23433,0.40063 -0.1663,0.1285 -0.40063,0.1285 -0.21165,0 -0.34771,-0.1285 -0.12851,-0.13607 -0.0756,-0.40063 l 0.52913,-2.64566 z"
         style="fill:#ff0000;stroke-width:0.82933187"
         id="path1243"
         inkscape:connector-curvature="0" /><path
         d="m -256.16567,-338.09918 q -0.0529,0.24945 -0.23433,0.40063 -0.1663,0.1285 -0.40063,0.1285 -0.21165,0 -0.34771,-0.1285 -0.12851,-0.13606 -0.0756,-0.40063 l 1.48156,-7.40783 q 0.0454,-0.21165 0.23433,-0.39307 0.18898,-0.13606 0.40063,-0.13606 0.2041,0 0.34016,0.13606 0.13606,0.1285 0.0831,0.39307 z m -1.48157,2.11653 q 0.0454,-0.21166 0.23433,-0.39307 0.18898,-0.13606 0.40063,-0.13606 0.20409,0 0.34016,0.13606 0.13606,0.1285 0.0831,0.39307 -0.0529,0.24944 -0.23433,0.40063 -0.1663,0.1285 -0.40063,0.1285 -0.21165,0 -0.34772,-0.1285 -0.1285,-0.13607 -0.0756,-0.40063 z"
         style="fill:#ff0000;stroke-width:0.82933187"
         id="path1245"
         inkscape:connector-curvature="0" /></g><g
       aria-label="Я твоя первообразная!"
       transform="matrix(0.78015813,0,0,-0.78015813,-105.82975,46.567016)"
       style="font-style:italic;font-variant:normal;font-weight:normal;font-stretch:normal;font-size:14.95077515px;line-height:14.95077515px;font-family:'GOST type B';-inkscape-font-specification:'GOST type B Italic';text-align:start;letter-spacing:0px;word-spacing:0px;text-anchor:start;fill:#ff0000;fill-opacity:1;stroke:none;stroke-width:0.80093437"
       id="text1155"><path
         d="m -185.83461,-336.73589 0.81763,-4.0881 h -3.06608 q -0.43071,0 -0.78842,0.292 -0.17521,0.14601 -0.28471,0.33581 -0.1095,0.18251 -0.1533,0.39421 l -0.40881,2.04405 q -0.0876,0.43071 0.146,0.73002 0.1241,0.1314 0.28471,0.21901 0.2044,0.073 0.38691,0.073 z m -1.96374,1.02202 -3.18288,3.8545 q -0.19711,0.24091 -0.45262,0.24091 -0.1971,0 -0.3285,-0.16061 -0.14601,-0.1533 -0.10221,-0.35771 0.0292,-0.1533 0.13871,-0.2774 l 2.72297,-3.29969 h -0.10221 q -0.83222,0 -1.32133,-0.59131 -0.48181,-0.59862 -0.31391,-1.45274 l 0.40881,-2.04405 q 0.16791,-0.85412 0.88332,-1.44543 0.71542,-0.59862 1.56954,-0.59862 h 3.57709 q 0.51102,0 0.40881,0.51101 l -1.83964,9.19823 q -0.0511,0.24091 -0.22631,0.38691 -0.1606,0.12411 -0.38691,0.12411 -0.2044,0 -0.33581,-0.12411 -0.1241,-0.1314 -0.073,-0.38691 l 0.71542,-3.57709 z"
         style="fill:#ff0000;stroke-width:0.80093437"
         id="path1248"
         inkscape:connector-curvature="0" /><path
         d="m -173.36589,-337.75792 h -2.04405 l -1.12423,5.62114 q -0.0511,0.24091 -0.22631,0.38691 -0.1606,0.12411 -0.38691,0.12411 -0.2044,0 -0.33581,-0.12411 -0.1241,-0.1314 -0.073,-0.38691 l 1.22643,-6.13215 q 0.10221,-0.51101 0.61322,-0.51101 h 4.59911 q 0.83223,0 1.31404,0.59861 0.48911,0.59132 0.32121,1.44544 l -0.91983,4.59911 q -0.0511,0.24091 -0.2263,0.38691 -0.16061,0.12411 -0.38691,0.12411 -0.20441,0 -0.33581,-0.12411 -0.1241,-0.1314 -0.073,-0.38691 l 0.91982,-4.59911 q 0.0876,-0.43071 -0.146,-0.72272 -0.22631,-0.29931 -0.67162,-0.29931 h -1.02203 l -1.12422,5.62114 q -0.0511,0.24091 -0.22631,0.38691 -0.1606,0.12411 -0.38691,0.12411 -0.20441,0 -0.33581,-0.12411 -0.1241,-0.1314 -0.073,-0.38691 z"
         style="fill:#ff0000;stroke-width:0.80093437"
         id="path1250"
         inkscape:connector-curvature="0" /><path
         d="m -163.96326,-333.66981 0.61322,-3.06608 q 0.0876,-0.43071 -0.146,-0.72272 -0.22631,-0.29931 -0.67162,-0.29931 h -1.02203 q -0.43071,0 -0.78842,0.29201 -0.1752,0.146 -0.2847,0.33581 -0.10951,0.1825 -0.15331,0.39421 l -0.61321,3.06608 q -0.0876,0.43071 0.146,0.73001 0.1241,0.13141 0.28471,0.21901 0.2044,0.073 0.38691,0.073 h 1.02202 q 0.42341,0 0.78112,-0.28471 0.35771,-0.2847 0.44531,-0.73731 z m -2.11705,-4.75242 0.47451,-0.27741 0.68622,-0.42341 q 0.34311,-0.22631 0.49641,-0.37961 0.24091,-0.24091 0.29931,-0.50371 0.0657,-0.35041 -0.1314,-0.59132 -0.20441,-0.2117 -0.52562,-0.2117 -0.33581,0 -0.62051,0.2117 -0.28471,0.19711 -0.35771,0.59132 z m 2.10975,-0.32851 q 0.97823,0 1.41624,0.58401 0.40151,0.55482 0.2263,1.43084 l -0.61321,3.06608 q -0.1679,0.83952 -0.89062,1.44543 -0.71542,0.59862 -1.56224,0.59862 h -1.02203 q -0.82492,0 -1.32133,-0.59132 -0.48911,-0.59131 -0.31391,-1.45273 l 1.27023,-6.33656 q 0.16791,-0.85412 0.83952,-1.37974 0.62782,-0.46721 1.37244,-0.46721 0.70812,0 1.17533,0.48181 0.46721,0.48181 0.29201,1.35784 -0.10221,0.49641 -0.29931,0.74462 -0.17521,0.2555 -0.56942,0.51831 z"
         style="fill:#ff0000;stroke-width:0.80093437"
         id="path1252"
         inkscape:connector-curvature="0" /><path
         d="m -155.74325,-333.87422 q -0.18251,0.91252 -0.97093,1.58414 -0.78842,0.66432 -1.73014,0.66432 h -0.61321 q -0.91253,0 -1.45274,-0.64972 -0.53291,-0.64972 -0.34311,-1.59874 l 0.52561,-2.65727 q 0.18251,-0.89792 0.97093,-1.56954 0.79572,-0.67891 1.73014,-0.67891 h 0.61322 q 0.91252,0 1.44543,0.65701 0.54022,0.64972 0.35041,1.59144 z m -1.02203,0 0.52562,-2.65727 q 0.1022,-0.50371 -0.18251,-0.86142 -0.27741,-0.36501 -0.79572,-0.36501 h -0.61321 q -0.50372,0 -0.94173,0.35771 -0.43071,0.35771 -0.53291,0.86872 l -0.52561,2.65727 q -0.10221,0.50371 0.1825,0.86872 0.28471,0.35771 0.79572,0.35771 h 0.61322 q 0.49641,0 0.92712,-0.35041 0.43801,-0.35041 0.54751,-0.87602 z"
         style="fill:#ff0000;stroke-width:0.80093437"
         id="path1254"
         inkscape:connector-curvature="0" /><path
         d="m -149.24609,-335.71387 0.40881,-2.04405 h -2.04405 q -0.43071,0 -0.81762,0.30661 -0.32851,0.29931 -0.40881,0.71542 -0.0803,0.38691 0.1241,0.70812 0.20441,0.3139 0.69352,0.3139 z m -1.46003,1.02203 -2.46017,2.83977 q -0.073,0.0949 -0.2336,0.18251 l -0.23361,0.0511 q -0.1606,0 -0.32851,-0.15331 -0.1387,-0.1533 -0.0949,-0.36501 0.0292,-0.1314 0.14601,-0.2847 l 1.99295,-2.29956 q -0.73002,-0.1095 -1.04393,-0.70812 -0.30661,-0.59861 -0.1679,-1.30673 0.1679,-0.82492 0.78842,-1.40164 0.70811,-0.64241 1.66444,-0.64241 h 2.55506 q 0.51101,0 0.40881,0.51101 l -1.22643,6.13215 q -0.0511,0.24091 -0.2263,0.38691 -0.16061,0.12411 -0.38691,0.12411 -0.20441,0 -0.33581,-0.12411 -0.12411,-0.1314 -0.073,-0.38691 l 0.51101,-2.55506 z"
         style="fill:#ff0000;stroke-width:0.80093437"
         id="path1256"
         inkscape:connector-curvature="0" /><path
         d="m -135.65315,-332.13678 q -0.0511,0.24091 -0.2263,0.38691 -0.16061,0.12411 -0.38691,0.12411 -0.20441,0 -0.33581,-0.12411 -0.12411,-0.1314 -0.073,-0.38691 l 0.91982,-4.59911 q 0.0876,-0.43071 -0.146,-0.72272 -0.22631,-0.29931 -0.67162,-0.29931 h -2.04405 l -1.12423,5.62114 q -0.0511,0.24091 -0.22631,0.38691 -0.1606,0.12411 -0.38691,0.12411 -0.2044,0 -0.3358,-0.12411 -0.12411,-0.1314 -0.073,-0.38691 l 1.22643,-6.13215 q 0.10221,-0.51101 0.61322,-0.51101 h 2.55506 q 0.81762,0 1.31404,0.59131 0.49641,0.58402 0.3212,1.45274 z"
         style="fill:#ff0000;stroke-width:0.80093437"
         id="path1258"
         inkscape:connector-curvature="0" /><path
         d="m -131.87165,-335.71387 h 3.06608 l 0.2044,-1.02202 q 0.0876,-0.43071 -0.146,-0.72272 -0.22631,-0.29931 -0.67162,-0.29931 h -1.02202 q -0.43072,0 -0.78842,0.29201 -0.17521,0.146 -0.28471,0.33581 -0.1095,0.1825 -0.15331,0.39421 z m -0.20441,1.02203 -0.2044,1.02203 q -0.0876,0.43071 0.146,0.73001 0.12411,0.13141 0.28471,0.21901 0.20441,0.073 0.38691,0.073 h 2.55506 q 0.21171,0 0.32851,0.16061 0.11681,0.1533 0.0803,0.3504 -0.0365,0.17521 -0.1971,0.34311 -0.1606,0.16791 -0.41611,0.16791 h -2.55507 q -0.83222,0 -1.32133,-0.59132 -0.48181,-0.59861 -0.31391,-1.45273 l 0.61322,-3.06608 q 0.1679,-0.82492 0.87602,-1.43084 0.71542,-0.61321 1.57684,-0.61321 h 1.02203 q 0.83222,0 1.31403,0.59861 0.48911,0.59132 0.32121,1.44544 l -0.30661,1.53304 q -0.1022,0.51101 -0.61322,0.51101 z"
         style="fill:#ff0000;stroke-width:0.80093437"
         id="path1260"
         inkscape:connector-curvature="0" /><path
         d="m -125.33069,-332.64779 h 2.04405 q 0.42341,0 0.78112,-0.28471 0.35771,-0.2847 0.44531,-0.73731 l 0.61322,-3.06608 q 0.0876,-0.43071 -0.14601,-0.72272 -0.2263,-0.29931 -0.67161,-0.29931 h -2.04406 z m -0.20441,1.02203 -0.51101,2.55506 q -0.0438,0.21171 -0.2336,0.35771 -0.18251,0.1533 -0.37961,0.1533 -0.17521,0 -0.32121,-0.1314 -0.13871,-0.1241 -0.0876,-0.37961 l 1.83964,-9.19823 q 0.1022,-0.51101 0.61322,-0.51101 h 2.55506 q 0.83222,0 1.31403,0.59861 0.48912,0.59132 0.32121,1.44544 l -0.61321,3.06608 q -0.16791,0.83952 -0.89063,1.44543 -0.71541,0.59862 -1.56223,0.59862 z"
         style="fill:#ff0000;stroke-width:0.80093437"
         id="path1262"
         inkscape:connector-curvature="0" /><path
         d="m -114.90603,-333.66981 0.61322,-3.06608 q 0.0876,-0.43071 -0.146,-0.72272 -0.22631,-0.29931 -0.67162,-0.29931 h -1.02203 q -0.43071,0 -0.78842,0.29201 -0.1752,0.146 -0.2847,0.33581 -0.10951,0.1825 -0.15331,0.39421 l -0.61321,3.06608 q -0.0876,0.43071 0.146,0.73001 0.1241,0.13141 0.28471,0.21901 0.2044,0.073 0.38691,0.073 h 1.02202 q 0.42341,0 0.78112,-0.28471 0.35771,-0.2847 0.44531,-0.73731 z m -2.11705,-4.75242 0.47451,-0.27741 0.68622,-0.42341 q 0.34311,-0.22631 0.49641,-0.37961 0.24091,-0.24091 0.29931,-0.50371 0.0657,-0.35041 -0.1314,-0.59132 -0.20441,-0.2117 -0.52562,-0.2117 -0.33581,0 -0.62051,0.2117 -0.28471,0.19711 -0.35771,0.59132 z m 2.10975,-0.32851 q 0.97823,0 1.41624,0.58401 0.40151,0.55482 0.2263,1.43084 l -0.61321,3.06608 q -0.1679,0.83952 -0.89062,1.44543 -0.71542,0.59862 -1.56224,0.59862 h -1.02203 q -0.82492,0 -1.32133,-0.59132 -0.48911,-0.59131 -0.31391,-1.45273 l 1.27023,-6.33656 q 0.16791,-0.85412 0.83952,-1.37974 0.62782,-0.46721 1.37244,-0.46721 0.70812,0 1.17533,0.48181 0.46721,0.48181 0.29201,1.35784 -0.10221,0.49641 -0.29931,0.74462 -0.17521,0.2555 -0.56942,0.51831 z"
         style="fill:#ff0000;stroke-width:0.80093437"
         id="path1264"
         inkscape:connector-curvature="0" /><path
         d="m -106.68602,-333.87422 q -0.1825,0.91252 -0.97092,1.58414 -0.78842,0.66432 -1.73015,0.66432 h -0.61321 q -0.91252,0 -1.45274,-0.64972 -0.53291,-0.64972 -0.34311,-1.59874 l 0.52562,-2.65727 q 0.1825,-0.89792 0.97092,-1.56954 0.79572,-0.67891 1.73015,-0.67891 h 0.61321 q 0.91252,0 1.44544,0.65701 0.54021,0.64972 0.35041,1.59144 z m -1.02202,0 0.52561,-2.65727 q 0.1022,-0.50371 -0.1825,-0.86142 -0.27741,-0.36501 -0.79572,-0.36501 h -0.61322 q -0.50371,0 -0.94172,0.35771 -0.43071,0.35771 -0.53292,0.86872 l -0.52561,2.65727 q -0.1022,0.50371 0.1825,0.86872 0.28471,0.35771 0.79572,0.35771 h 0.61322 q 0.49641,0 0.92712,-0.35041 0.43801,-0.35041 0.54752,-0.87602 z"
         style="fill:#ff0000;stroke-width:0.80093437"
         id="path1266"
         inkscape:connector-curvature="0" /><path
         d="m -99.531842,-333.87422 q -0.182505,0.91252 -0.970928,1.58414 -0.78842,0.66432 -1.73014,0.66432 h -0.61322 q -0.91252,0 -1.45273,-0.64972 -0.53292,-0.64972 -0.34311,-1.59874 l 0.52561,-2.65727 q 0.18251,-0.89792 0.97093,-1.56954 0.79572,-0.67891 1.73014,-0.67891 h 0.61322 q 0.912519,0 1.445432,0.65701 0.540214,0.64972 0.350409,1.59144 z m -1.022028,0 0.52562,-2.65727 q 0.102198,-0.50371 -0.18251,-0.86142 -0.27741,-0.36501 -0.79572,-0.36501 h -0.61321 q -0.50372,0 -0.94173,0.35771 -0.43071,0.35771 -0.53291,0.86872 l -0.52562,2.65727 q -0.1022,0.50371 0.18251,0.86872 0.28471,0.35771 0.79572,0.35771 h 0.61321 q 0.49642,0 0.92713,-0.35041 0.43801,-0.35041 0.54751,-0.87602 z"
         style="fill:#ff0000;stroke-width:0.80093437"
         id="path1268"
         inkscape:connector-curvature="0" /><path
         d="m -93.443487,-333.66981 0.613216,-3.06608 q 0.0876,-0.43071 -0.146004,-0.72272 -0.226306,-0.29931 -0.671617,-0.29931 h -1.022026 q -0.43071,0 -0.788419,0.29201 -0.175205,0.146 -0.284707,0.33581 -0.109503,0.1825 -0.153304,0.39421 l -0.613216,3.06608 q -0.0876,0.43071 0.146004,0.73001 0.124103,0.13141 0.284707,0.21901 0.204405,0.073 0.38691,0.073 h 1.022025 q 0.423411,0 0.78112,-0.28471 0.357709,-0.2847 0.445311,-0.73731 z m -0.620515,-5.11013 -1.854247,-2.18276 q -0.146004,-0.2044 -0.0949,-0.43071 0.0292,-0.1533 0.189805,-0.29931 0.160604,-0.1533 0.438011,-0.1533 h 4.088102 q 0.211705,0 0.328508,0.1606 0.116803,0.15331 0.0803,0.35041 -0.0365,0.17521 -0.197105,0.34311 -0.160604,0.16791 -0.41611,0.16791 h -2.810571 l 2.190055,2.58426 0.0949,0.16791 q 0.372309,0.57671 0.219005,1.33593 l -0.613215,3.06608 q -0.167904,0.83952 -0.890622,1.44543 -0.715418,0.59862 -1.56224,0.59862 h -1.022025 q -0.824921,0 -1.321333,-0.59132 -0.489113,-0.59131 -0.313908,-1.45273 l 0.613215,-3.06608 q 0.167904,-0.84682 0.883322,-1.44544 0.722718,-0.59861 1.56954,-0.59861 z"
         style="fill:#ff0000;stroke-width:0.80093437"
         id="path1270"
         inkscape:connector-curvature="0" /><path
         d="m -89.559786,-332.64779 h 2.044051 q 0.423411,0 0.78112,-0.28471 0.357708,-0.2847 0.445311,-0.73731 l 0.613215,-3.06608 q 0.0876,-0.43071 -0.146004,-0.72272 -0.226305,-0.29931 -0.671616,-0.29931 h -2.044052 z m -0.204406,1.02203 -0.511012,2.55506 q -0.0438,0.21171 -0.233606,0.35771 -0.182505,0.1533 -0.37961,0.1533 -0.175204,0 -0.321208,-0.1314 -0.138703,-0.1241 -0.0876,-0.37961 l 1.839646,-9.19823 q 0.102203,-0.51101 0.613216,-0.51101 h 2.555064 q 0.832221,0 1.314033,0.59861 0.489112,0.59132 0.321208,1.44544 l -0.613216,3.06608 q -0.167904,0.83952 -0.890622,1.44543 -0.715418,0.59862 -1.562239,0.59862 z"
         style="fill:#ff0000;stroke-width:0.80093437"
         id="path1272"
         inkscape:connector-curvature="0" /><path
         d="m -79.13513,-333.66981 0.817621,-4.08811 h -2.044051 q -0.430711,0 -0.78842,0.29201 -0.175204,0.146 -0.284707,0.33581 -0.109503,0.1825 -0.153304,0.39421 l -0.613215,3.06608 q -0.0876,0.43071 0.146003,0.73001 0.124103,0.13141 0.284707,0.21901 0.204405,0.073 0.38691,0.073 h 1.022026 q 0.42341,0 0.781119,-0.28471 0.357709,-0.2847 0.445311,-0.73731 z m 0.226306,1.37243 q -0.299307,0.28471 -0.766519,0.48181 -0.467212,0.18981 -0.890622,0.18981 h -1.022026 q -0.824921,0 -1.321333,-0.59132 -0.489112,-0.59131 -0.313908,-1.45273 l 0.613215,-3.06608 q 0.167905,-0.84682 0.883322,-1.44544 0.722719,-0.59861 1.56954,-0.59861 h 2.555064 q 0.511013,0 0.40881,0.51101 l -0.919823,4.59182 q -0.0584,0.3066 0.073,0.62781 0.116803,0.28471 0.423411,0.44531 0.292007,0.13141 0.226305,0.45991 -0.0438,0.22631 -0.219005,0.37231 -0.160604,0.15331 -0.39421,0.15331 -0.109503,0 -0.204405,-0.0511 -0.459912,-0.19711 -0.700818,-0.62782 z"
         style="fill:#ff0000;stroke-width:0.80093437"
         id="path1274"
         inkscape:connector-curvature="0" /><path
         d="m -73.178177,-334.69184 h -0.642416 q -0.233606,0 -0.350409,-0.146 -0.102203,-0.15331 -0.0584,-0.36501 0.0365,-0.18251 0.204405,-0.34311 0.167904,-0.16791 0.40881,-0.16791 h 0.511013 q 0.467211,0 0.80302,-0.3066 0.343108,-0.31391 0.42341,-0.71542 0.0876,-0.43071 -0.109502,-0.70812 -0.0949,-0.1387 -0.277407,-0.2263 -0.175205,-0.0876 -0.430711,-0.0876 h -0.511013 q -0.708118,0 -1.306733,0.40881 -0.153303,0.0876 -0.335808,0.10951 -0.160604,0 -0.328508,-0.15331 -0.116803,-0.1606 -0.073,-0.37231 0.0511,-0.2409 0.284707,-0.40151 0.912523,-0.61321 1.963749,-0.61321 h 0.511013 q 0.963624,0 1.408935,0.63511 0.39421,0.57672 0.226306,1.40894 -0.0511,0.2409 -0.124103,0.43801 -0.073,0.1971 -0.204405,0.40151 -0.219006,0.35771 -0.620516,0.69352 0.240906,0.2701 0.343109,0.69351 l 0.0365,0.40881 q 0,0.19711 -0.0438,0.43802 -0.167904,0.83952 -0.79572,1.40163 -0.671617,0.63512 -1.657142,0.63512 h -0.511013 q -1.029325,0 -1.715543,-0.61322 -0.182504,-0.1533 -0.131403,-0.40881 0.0365,-0.1679 0.226306,-0.35041 0.189804,-0.1825 0.39421,-0.1825 0.138703,0 0.284707,0.1241 0.452611,0.40881 1.146129,0.40881 h 0.511012 q 0.459912,0 0.80302,-0.30661 0.343109,-0.3139 0.423411,-0.72271 0.0803,-0.39421 -0.0876,-0.66432 -0.160604,-0.27011 -0.598615,-0.35041 z"
         style="fill:#ff0000;stroke-width:0.80093437"
         id="path1276"
         inkscape:connector-curvature="0" /><path
         d="m -64.914369,-335.71387 0.511013,-2.55506 q 0.0438,-0.2044 0.226306,-0.37961 0.182505,-0.1314 0.38691,-0.1314 0.197105,0 0.328508,0.1314 0.131403,0.1241 0.0803,0.37961 l -1.226431,6.13215 q -0.0511,0.24091 -0.226306,0.38691 -0.160604,0.12411 -0.386909,0.12411 -0.204405,0 -0.335809,-0.12411 -0.124103,-0.1314 -0.073,-0.38691 l 0.511013,-2.55506 h -3.066077 l -0.511012,2.55506 q -0.0511,0.24091 -0.226306,0.38691 -0.160604,0.12411 -0.38691,0.12411 -0.204405,0 -0.335808,-0.12411 -0.124103,-0.1314 -0.073,-0.38691 l 1.226431,-6.13215 q 0.0438,-0.2044 0.226305,-0.37961 0.182505,-0.1314 0.38691,-0.1314 0.197105,0 0.328508,0.1314 0.131404,0.1241 0.0803,0.37961 l -0.511013,2.55506 z"
         style="fill:#ff0000;stroke-width:0.80093437"
         id="path1278"
         inkscape:connector-curvature="0" /><path
         d="m -58.169004,-333.66981 0.81762,-4.08811 h -2.044051 q -0.430711,0 -0.78842,0.29201 -0.175204,0.146 -0.284707,0.33581 -0.109502,0.1825 -0.153304,0.39421 l -0.613215,3.06608 q -0.0876,0.43071 0.146004,0.73001 0.124103,0.13141 0.284707,0.21901 0.204405,0.073 0.38691,0.073 h 1.022025 q 0.423411,0 0.78112,-0.28471 0.357709,-0.2847 0.445311,-0.73731 z m 0.226306,1.37243 q -0.299308,0.28471 -0.76652,0.48181 -0.467211,0.18981 -0.890622,0.18981 h -1.022026 q -0.82492,0 -1.321333,-0.59132 -0.489112,-0.59131 -0.313908,-1.45273 l 0.613216,-3.06608 q 0.167904,-0.84682 0.883322,-1.44544 0.722718,-0.59861 1.569539,-0.59861 h 2.555064 q 0.511013,0 0.408811,0.51101 l -0.919823,4.59182 q -0.0584,0.3066 0.073,0.62781 0.116803,0.28471 0.423411,0.44531 0.292007,0.13141 0.226306,0.45991 -0.0438,0.22631 -0.219006,0.37231 -0.160604,0.15331 -0.39421,0.15331 -0.109502,0 -0.204405,-0.0511 -0.459911,-0.19711 -0.700816,-0.62782 z"
         style="fill:#ff0000;stroke-width:0.80093437"
         id="path1280"
         inkscape:connector-curvature="0" /><path
         d="m -50.606019,-335.71387 0.40881,-2.04405 h -2.044051 q -0.430711,0 -0.817621,0.30661 -0.328508,0.29931 -0.40881,0.71542 -0.0803,0.38691 0.124103,0.70812 0.204405,0.3139 0.693518,0.3139 z m -1.460037,1.02203 -2.460161,2.83977 q -0.073,0.0949 -0.233606,0.18251 l -0.233606,0.0511 q -0.160604,0 -0.328508,-0.15331 -0.138704,-0.1533 -0.0949,-0.36501 0.0292,-0.1314 0.146004,-0.2847 l 1.99295,-2.29956 q -0.730018,-0.1095 -1.043926,-0.70812 -0.306608,-0.59861 -0.167904,-1.30673 0.167904,-0.82492 0.788419,-1.40164 0.708118,-0.64241 1.664442,-0.64241 h 2.555064 q 0.511013,0 0.408811,0.51101 l -1.226431,6.13215 q -0.0511,0.24091 -0.226306,0.38691 -0.160604,0.12411 -0.38691,0.12411 -0.204405,0 -0.335808,-0.12411 -0.124103,-0.1314 -0.073,-0.38691 l 0.511013,-2.55506 z"
         style="fill:#ff0000;stroke-width:0.80093437"
         id="path1282"
         inkscape:connector-curvature="0" /><path
         d="m -46.824514,-334.18083 q -0.0511,0.24091 -0.226305,0.38691 -0.160604,0.12411 -0.38691,0.12411 -0.204405,0 -0.335808,-0.12411 -0.124103,-0.1314 -0.073,-0.38691 l 1.430836,-7.15418 q 0.0438,-0.2044 0.226305,-0.37961 0.182505,-0.1314 0.38691,-0.1314 0.197105,0 0.328508,0.1314 0.131404,0.12411 0.0803,0.37961 z m -1.430835,2.04405 q 0.0438,-0.2044 0.226305,-0.37961 0.182505,-0.1314 0.38691,-0.1314 0.197105,0 0.328508,0.1314 0.131403,0.12411 0.0803,0.37961 -0.0511,0.24091 -0.226305,0.38691 -0.160604,0.12411 -0.38691,0.12411 -0.204405,0 -0.335809,-0.12411 -0.124103,-0.1314 -0.073,-0.38691 z"
         style="fill:#ff0000;stroke-width:0.80093437"
         id="path1284"
         inkscape:connector-curvature="0" /></g></g></svg>