<?xml version="1.0" encoding="UTF-8" standalone="no"?>
<!-- Created with Inkscape (http://www.inkscape.org/) -->

<svg
   xmlns:dc="http://purl.org/dc/elements/1.1/"
   xmlns:cc="http://creativecommons.org/ns#"
   xmlns:rdf="http://www.w3.org/1999/02/22-rdf-syntax-ns#"
   xmlns:svg="http://www.w3.org/2000/svg"
   xmlns="http://www.w3.org/2000/svg"
   xmlns:xlink="http://www.w3.org/1999/xlink"
   xmlns:sodipodi="http://sodipodi.sourceforge.net/DTD/sodipodi-0.dtd"
   xmlns:inkscape="http://www.inkscape.org/namespaces/inkscape"
   width="247.91237"
   height="161.55835"
   viewBox="0 0 65.59348 42.745646"
   version="1.1"
   id="svg8"
   inkscape:version="0.92.4 (5da689c313, 2019-01-14)"
   sodipodi:docname="14-06.svg">
  <defs
     id="defs2">
    <linearGradient
       inkscape:collect="always"
       id="linearGradient1155">
      <stop
         style="stop-color:#b2deea;stop-opacity:1"
         offset="0"
         id="stop1151" />
      <stop
         id="stop1159"
         offset="0.49818954"
         style="stop-color:#ffffff;stop-opacity:1" />
      <stop
         style="stop-color:#afdde9;stop-opacity:1"
         offset="1"
         id="stop1153" />
    </linearGradient>
    <linearGradient
       inkscape:collect="always"
       id="linearGradient1145">
      <stop
         style="stop-color:#afdde9;stop-opacity:1"
         offset="0"
         id="stop1141" />
      <stop
         id="stop1149"
         offset="0.50924927"
         style="stop-color:#ffffff;stop-opacity:1" />
      <stop
         style="stop-color:#afdde9;stop-opacity:1"
         offset="1"
         id="stop1143" />
    </linearGradient>
    <marker
       inkscape:stockid="Arrow1Lend"
       orient="auto"
       refY="0"
       refX="0"
       id="marker1025"
       style="overflow:visible"
       inkscape:isstock="true">
      <path
         inkscape:connector-curvature="0"
         id="path1023"
         d="M 0,0 5,-5 -12.5,0 5,5 Z"
         style="fill:#000000;fill-opacity:1;fill-rule:evenodd;stroke:#000000;stroke-width:1.00000003pt;stroke-opacity:1"
         transform="matrix(-0.8,0,0,-0.8,-10,0)" />
    </marker>
    <marker
       inkscape:stockid="DotM"
       orient="auto"
       refY="0"
       refX="0"
       id="marker1078"
       style="overflow:visible"
       inkscape:isstock="true">
      <path
         id="path1076"
         d="m -2.5,-1 c 0,2.76 -2.24,5 -5,5 -2.76,0 -5,-2.24 -5,-5 0,-2.76 2.24,-5 5,-5 2.76,0 5,2.24 5,5 z"
         style="fill:#008000;fill-opacity:1;fill-rule:evenodd;stroke:#008000;stroke-width:1.00000003pt;stroke-opacity:1"
         transform="matrix(0.4,0,0,0.4,2.96,0.4)"
         inkscape:connector-curvature="0" />
    </marker>
    <marker
       inkscape:stockid="DotM"
       orient="auto"
       refY="0"
       refX="0"
       id="marker978"
       style="overflow:visible"
       inkscape:isstock="true">
      <path
         id="path976"
         d="m -2.5,-1 c 0,2.76 -2.24,5 -5,5 -2.76,0 -5,-2.24 -5,-5 0,-2.76 2.24,-5 5,-5 2.76,0 5,2.24 5,5 z"
         style="fill:#008000;fill-opacity:1;fill-rule:evenodd;stroke:#008000;stroke-width:1.00000003pt;stroke-opacity:1"
         transform="matrix(0.4,0,0,0.4,2.96,0.4)"
         inkscape:connector-curvature="0" />
    </marker>
    <marker
       inkscape:stockid="DotM"
       orient="auto"
       refY="0"
       refX="0"
       id="marker6875"
       style="overflow:visible"
       inkscape:isstock="true">
      <path
         id="path6873"
         d="m -2.5,-1 c 0,2.76 -2.24,5 -5,5 -2.76,0 -5,-2.24 -5,-5 0,-2.76 2.24,-5 5,-5 2.76,0 5,2.24 5,5 z"
         style="fill:#008000;fill-opacity:1;fill-rule:evenodd;stroke:#008000;stroke-width:1.00000003pt;stroke-opacity:1"
         transform="matrix(0.4,0,0,0.4,2.96,0.4)"
         inkscape:connector-curvature="0" />
    </marker>
    <marker
       inkscape:stockid="DotM"
       orient="auto"
       refY="0"
       refX="0"
       id="marker6751"
       style="overflow:visible"
       inkscape:isstock="true">
      <path
         id="path6749"
         d="m -2.5,-1 c 0,2.76 -2.24,5 -5,5 -2.76,0 -5,-2.24 -5,-5 0,-2.76 2.24,-5 5,-5 2.76,0 5,2.24 5,5 z"
         style="fill:#008000;fill-opacity:1;fill-rule:evenodd;stroke:#008000;stroke-width:1.00000003pt;stroke-opacity:1"
         transform="matrix(0.4,0,0,0.4,2.96,0.4)"
         inkscape:connector-curvature="0" />
    </marker>
    <marker
       inkscape:stockid="Arrow2Mstart"
       orient="auto"
       refY="0"
       refX="0"
       id="marker9613"
       style="overflow:visible"
       inkscape:isstock="true">
      <path
         id="path9611"
         style="fill:#0000ff;fill-opacity:1;fill-rule:evenodd;stroke:#0000ff;stroke-width:0.625;stroke-linejoin:round;stroke-opacity:1"
         d="M 8.7185878,4.0337352 -2.2072895,0.01601326 8.7185884,-4.0017078 c -1.7454984,2.3720609 -1.7354408,5.6174519 -6e-7,8.035443 z"
         transform="scale(0.6)"
         inkscape:connector-curvature="0" />
    </marker>
    <marker
       inkscape:stockid="Arrow2Lstart"
       orient="auto"
       refY="0"
       refX="0"
       id="Arrow2Lstart"
       style="overflow:visible"
       inkscape:isstock="true">
      <path
         id="path951"
         style="fill:#0000ff;fill-opacity:1;fill-rule:evenodd;stroke:#0000ff;stroke-width:0.625;stroke-linejoin:round;stroke-opacity:1"
         d="M 8.7185878,4.0337352 -2.2072895,0.01601326 8.7185884,-4.0017078 c -1.7454984,2.3720609 -1.7354408,5.6174519 -6e-7,8.035443 z"
         transform="matrix(1.1,0,0,1.1,1.1,0)"
         inkscape:connector-curvature="0" />
    </marker>
    <marker
       inkscape:stockid="Arrow2Sstart"
       orient="auto"
       refY="0"
       refX="0"
       id="Arrow2Sstart"
       style="overflow:visible"
       inkscape:isstock="true">
      <path
         id="path963"
         style="fill:#000000;fill-opacity:1;fill-rule:evenodd;stroke:#000000;stroke-width:0.625;stroke-linejoin:round;stroke-opacity:1"
         d="M 8.7185878,4.0337352 -2.2072895,0.01601326 8.7185884,-4.0017078 c -1.7454984,2.3720609 -1.7354408,5.6174519 -6e-7,8.035443 z"
         transform="matrix(0.3,0,0,0.3,-0.69,0)"
         inkscape:connector-curvature="0" />
    </marker>
    <marker
       inkscape:isstock="true"
       style="overflow:visible"
       id="marker1066"
       refX="0"
       refY="0"
       orient="auto"
       inkscape:stockid="Arrow1Lend">
      <path
         inkscape:connector-curvature="0"
         transform="matrix(-0.8,0,0,-0.8,-10,0)"
         style="fill:#ffcc00;fill-opacity:1;fill-rule:evenodd;stroke:#ffcc00;stroke-width:1.00000003pt;stroke-opacity:1"
         d="M 0,0 5,-5 -12.5,0 5,5 Z"
         id="path1064" />
    </marker>
    <marker
       inkscape:isstock="true"
       style="overflow:visible"
       id="marker1289"
       refX="0"
       refY="0"
       orient="auto"
       inkscape:stockid="Arrow1Lend"
       inkscape:collect="always">
      <path
         transform="matrix(-0.8,0,0,-0.8,-10,0)"
         style="fill:#000000;fill-opacity:1;fill-rule:evenodd;stroke:#000000;stroke-width:1.00000003pt;stroke-opacity:1"
         d="M 0,0 5,-5 -12.5,0 5,5 Z"
         id="path1287"
         inkscape:connector-curvature="0" />
    </marker>
    <marker
       inkscape:stockid="Arrow1Lend"
       orient="auto"
       refY="0"
       refX="0"
       id="Arrow1Lend"
       style="overflow:visible"
       inkscape:isstock="true"
       inkscape:collect="always">
      <path
         id="path972"
         d="M 0,0 5,-5 -12.5,0 5,5 Z"
         style="fill:#000000;fill-opacity:1;fill-rule:evenodd;stroke:#000000;stroke-width:1.00000003pt;stroke-opacity:1"
         transform="matrix(-0.8,0,0,-0.8,-10,0)"
         inkscape:connector-curvature="0" />
    </marker>
    <marker
       inkscape:isstock="true"
       style="overflow:visible"
       id="marker919"
       refX="0"
       refY="0"
       orient="auto"
       inkscape:stockid="Arrow2Mend">
      <path
         transform="scale(-0.6)"
         d="M 8.7185878,4.0337352 -2.2072895,0.01601326 8.7185884,-4.0017078 c -1.7454984,2.3720609 -1.7354408,5.6174519 -6e-7,8.035443 z"
         style="fill:#0000ff;fill-opacity:1;fill-rule:evenodd;stroke:#0000ff;stroke-width:0.625;stroke-linejoin:round;stroke-opacity:1"
         id="path917"
         inkscape:connector-curvature="0" />
    </marker>
    <marker
       inkscape:isstock="true"
       style="overflow:visible"
       id="marker892"
       refX="0"
       refY="0"
       orient="auto"
       inkscape:stockid="Arrow2Mend">
      <path
         inkscape:connector-curvature="0"
         transform="scale(-0.6)"
         d="M 8.7185878,4.0337352 -2.2072895,0.01601326 8.7185884,-4.0017078 c -1.7454984,2.3720609 -1.7354408,5.6174519 -6e-7,8.035443 z"
         style="fill:#000000;fill-opacity:1;fill-rule:evenodd;stroke:#000000;stroke-width:0.625;stroke-linejoin:round;stroke-opacity:1"
         id="path890" />
    </marker>
    <marker
       inkscape:stockid="Arrow1Mend"
       orient="auto"
       refY="0"
       refX="0"
       id="Arrow1Mend"
       style="overflow:visible"
       inkscape:isstock="true">
      <path
         id="path840"
         d="M 0,0 5,-5 -12.5,0 5,5 Z"
         style="fill:#ffcc00;fill-opacity:1;fill-rule:evenodd;stroke:#ffcc00;stroke-width:1.00000003pt;stroke-opacity:1"
         transform="matrix(-0.4,0,0,-0.4,-4,0)"
         inkscape:connector-curvature="0" />
    </marker>
    <marker
       inkscape:stockid="Arrow2Lend"
       orient="auto"
       refY="0"
       refX="0"
       id="Arrow2Lend"
       style="overflow:visible"
       inkscape:isstock="true">
      <path
         id="path852"
         style="fill:#ff0000;fill-opacity:0.8;fill-rule:evenodd;stroke:#ff0000;stroke-width:0.625;stroke-linejoin:round;stroke-opacity:0.8"
         d="M 8.7185878,4.0337352 -2.2072895,0.01601326 8.7185884,-4.0017078 c -1.7454984,2.3720609 -1.7354408,5.6174519 -6e-7,8.035443 z"
         transform="matrix(-1.1,0,0,-1.1,-1.1,0)"
         inkscape:connector-curvature="0" />
    </marker>
    <linearGradient
       inkscape:collect="always"
       xlink:href="#linearGradient1145"
       id="linearGradient1147"
       x1="53.94273"
       y1="140.1479"
       x2="53.571278"
       y2="37.0005"
       gradientUnits="userSpaceOnUse" />
    <linearGradient
       inkscape:collect="always"
       xlink:href="#linearGradient1155"
       id="linearGradient1157"
       x1="123.06326"
       y1="17.311731"
       x2="123.25934"
       y2="159.35185"
       gradientUnits="userSpaceOnUse" />
  </defs>
  <sodipodi:namedview
     id="base"
     pagecolor="#ffffff"
     bordercolor="#666666"
     borderopacity="1.0"
     inkscape:pageopacity="0.0"
     inkscape:pageshadow="2"
     inkscape:zoom="4.5308707"
     inkscape:cx="138.57001"
     inkscape:cy="80.779164"
     inkscape:document-units="mm"
     inkscape:current-layer="layer1"
     showgrid="false"
     inkscape:window-width="1920"
     inkscape:window-height="1009"
     inkscape:window-x="0"
     inkscape:window-y="0"
     inkscape:window-maximized="1"
     inkscape:snap-global="true"
     fit-margin-top="1"
     fit-margin-left="1"
     fit-margin-right="1"
     fit-margin-bottom="1"
     units="px" />
  <metadata
     id="metadata5">
    <rdf:RDF>
      <cc:Work
         rdf:about="">
        <dc:format>image/svg+xml</dc:format>
        <dc:type
           rdf:resource="http://purl.org/dc/dcmitype/StillImage" />
        <dc:title />
      </cc:Work>
    </rdf:RDF>
  </metadata>
  <g
     inkscape:label="Layer 1"
     inkscape:groupmode="layer"
     id="layer1"
     transform="translate(2.0783225,-255.87757)">
    <path
       style="fill:url(#linearGradient1147);fill-opacity:1;stroke:none;stroke-width:0.22699694;stroke-linecap:round;stroke-linejoin:round;stroke-miterlimit:4;stroke-dasharray:none;stroke-dashoffset:0;stroke-opacity:1;paint-order:stroke fill markers"
       d="m 81.863353,149.93402 c -12.177639,-4.47522 -23.705385,-9.54442 -40.49463,-17.80705 -8.667704,-4.2657 -8.813279,-4.34848 -7.989877,-4.54321 0.601723,-0.1423 0.816867,-0.30342 0.76147,-0.57026 -0.04626,-0.22284 -0.255698,-0.34538 -0.522509,-0.30572 -2.36308,0.35127 -2.264556,0.36689 -4.113506,-0.65236 -0.978844,-0.53961 -2.268753,-1.43768 -2.866463,-1.99571 -4.007149,-3.74118 -7.531175,-13.24957 -8.886335,-23.97676 -0.370584,-2.933479 -0.803385,-8.563759 -0.807029,-10.498609 l -0.0022,-1.191733 h 2.042972 c 1.891641,0 2.042973,-0.03363 2.042973,-0.453994 0,-0.420365 -0.151332,-0.453994 -2.042973,-0.453994 h -2.042972 l 0.0035,-1.078236 c 0.0019,-0.593029 0.105894,-2.610464 0.231028,-4.483189 1.081379,-16.183674 5.412618,-27.943786 11.711932,-31.80006 1.57977,-0.967093 20.50403,-10.371162 25.681482,-12.761948 7.240753,-3.343554 14.200595,-6.365506 19.688773,-8.548833 4.706575,-1.872387 11.216947,-4.251124 12.50374,-4.568573 l 0.662082,-0.163334 -0.912103,1.000751 c -8.110932,8.899221 -13.745482,25.905771 -15.899587,47.989116 -0.488071,5.003578 -0.68717,19.28371 -0.347029,24.890078 1.397048,23.026808 7.16366,42.647208 15.323583,52.137168 0.572354,0.66565 1.040647,1.253 1.040647,1.30523 0,0.23368 -0.831524,-0.0225 -4.766936,-1.46877 z M 38.506938,123.78115 c 0,-0.0855 -0.172909,-0.2218 -0.384243,-0.30289 -0.264938,-0.10167 -0.664823,0.13313 -1.287896,0.7562 -0.781893,0.78189 -0.862779,0.9529 -0.600308,1.26916 0.271683,0.32736 0.406109,0.26466 1.287896,-0.60075 0.541503,-0.53145 0.984551,-1.03622 0.984551,-1.12172 z m 2.146903,-3.23167 c 0.666493,-1.13728 0.707531,-1.41365 0.236744,-1.5943 -0.239141,-0.0918 -0.509086,0.20245 -0.907988,0.98965 -0.653478,1.28957 -0.698129,1.58933 -0.236744,1.58933 0.182009,0 0.590603,-0.44311 0.907988,-0.98468 z m 2.235818,-4.86049 c 0.48053,-1.34069 0.485054,-1.69935 0.02025,-1.60562 -0.20018,0.0404 -0.557616,0.58413 -0.794303,1.20837 -0.529757,1.39718 -0.530901,1.47548 -0.02156,1.47548 0.282539,0 0.528742,-0.33366 0.795611,-1.07823 z m 1.692332,-5.27242 c 0.298765,-1.17923 0.244801,-1.41089 -0.32552,-1.39742 -0.189854,0.004 -0.74707,1.76287 -0.752154,2.37354 -0.0023,0.26711 0.132443,0.38772 0.379727,0.3401 0.252981,-0.0487 0.490122,-0.49594 0.697947,-1.31622 z m 1.17004,-5.01036 c 0.324658,-1.51383 0.31724,-1.57781 -0.182925,-1.57781 -0.316668,0 -0.469053,0.2225 -0.58299,0.85124 -0.08484,0.46818 -0.209434,1.08107 -0.276868,1.36198 -0.09648,0.40191 -0.02464,0.51074 0.337184,0.51074 0.368561,0 0.508563,-0.22741 0.705599,-1.14615 z m 0.825257,-5.34037 c 0.104305,-0.83483 0.07123,-1.352478 -0.09716,-1.520876 -0.399177,-0.399177 -0.636559,0.04268 -0.795781,1.481236 -0.131649,1.18943 -0.105458,1.30523 0.295178,1.30523 0.363381,0 0.467071,-0.21953 0.597767,-1.26559 z m 0.509617,-5.489845 c 0.06193,-1.298125 0.02875,-1.416452 -0.397245,-1.416452 -0.421295,0 -0.464826,0.139742 -0.464826,1.492124 0,1.298568 0.05153,1.482308 0.397245,1.416452 0.318665,-0.0607 0.410612,-0.355866 0.464826,-1.492124 z m 0.226536,-5.445647 c -0.05173,-1.18082 -0.145212,-1.53223 -0.407616,-1.53223 -0.262404,0 -0.355891,0.35141 -0.407616,1.53223 -0.06241,1.42461 -0.03378,1.532229 0.407616,1.532229 0.441393,0 0.470022,-0.107619 0.407616,-1.532229 z m -14.544268,0.857431 c 0.402407,-0.245357 0.796538,-0.704644 0.875847,-1.020638 0.136833,-0.545185 0.224108,-0.574533 1.708569,-0.574533 1.413039,0 1.56437,-0.04392 1.56437,-0.453994 0,-0.409194 -0.151331,-0.453994 -1.533566,-0.453994 -1.474635,0 -1.544786,-0.02535 -1.825568,-0.659678 -0.380341,-0.859252 -1.65431,-1.472745 -2.66467,-1.2832 -0.706694,0.132577 -1.921088,1.228262 -1.921088,1.733298 0,0.115269 -0.919338,0.20958 -2.042973,0.20958 -1.891641,0 -2.042972,0.03363 -2.042972,0.453994 0,0.42011 0.151331,0.453994 2.027675,0.453994 1.813138,0 2.042587,0.04698 2.168604,0.444024 0.232962,0.733999 1.442094,1.599032 2.233801,1.598099 0.396178,-4.54e-4 1.049565,-0.201596 1.451971,-0.446952 z m 12.320676,-2.049165 c 0,-0.422135 -0.151332,-0.453994 -2.156471,-0.453994 -2.005139,0 -2.156471,0.03186 -2.156471,0.453994 0,0.422135 0.151332,0.453994 2.156471,0.453994 2.005139,0 2.156471,-0.03186 2.156471,-0.453994 z m 7.944893,0 c 0,-0.422135 -0.151332,-0.453994 -2.156471,-0.453994 -2.005139,0 -2.156471,0.03186 -2.156471,0.453994 0,0.422135 0.151332,0.453994 2.156471,0.453994 2.005139,0 2.156471,-0.03186 2.156471,-0.453994 z m 7.944893,0 c 0,-0.422135 -0.151332,-0.453994 -2.156471,-0.453994 -1.645728,0 -2.156471,0.07168 -2.156471,0.302662 0,0.535447 0.26641,0.605326 2.307803,0.605326 1.853807,0 2.005139,-0.03426 2.005139,-0.453994 z m 7.944893,0 c 0,-0.420365 -0.151332,-0.453994 -2.042973,-0.453994 -1.89164,0 -2.042972,0.03363 -2.042972,0.453994 0,0.420364 0.151332,0.453994 2.042972,0.453994 1.891641,0 2.042973,-0.03363 2.042973,-0.453994 z M 47.23673,85.003171 c 0.07189,-0.116316 0.06385,-0.780282 -0.01787,-1.47548 -0.124356,-1.058142 -0.22171,-1.264001 -0.597765,-1.264001 -0.355077,0 -0.420532,0.107032 -0.312343,0.510743 0.07528,0.280909 0.138271,0.944875 0.139975,1.47548 0.0023,0.687218 0.09719,0.964737 0.330197,0.964737 0.179904,0 0.385915,-0.09517 0.457801,-0.211479 z m -0.334004,-6.087686 c -0.0045,-1.236386 -0.225115,-1.872724 -0.649254,-1.872724 -0.303018,0 -0.359028,0.200899 -0.300612,1.078235 0.09306,1.397598 0.184328,1.645728 0.605346,1.645728 0.250914,0 0.346756,-0.23681 0.34452,-0.851239 z M 46.372711,74.14855 c -0.06034,-0.218485 -0.175634,-0.882451 -0.256202,-1.47548 -0.08057,-0.59303 -0.182951,-1.078236 -0.227515,-1.078236 -0.458815,0 -0.780327,0.351167 -0.69711,0.761407 0.05434,0.267893 0.160394,0.870134 0.235669,1.338315 0.105773,0.657882 0.241125,0.851238 0.595867,0.851238 0.327611,0 0.427598,-0.113714 0.349291,-0.397244 z m -1.00512,-4.950095 c 0.108242,-0.108241 -0.436213,-2.597245 -0.606608,-2.773145 -0.03308,-0.03415 -0.216703,-0.002 -0.408048,0.07141 -0.352601,0.135306 -0.348873,0.218466 0.08863,1.976907 0.190251,0.764662 0.580631,1.070225 0.926027,0.724829 z m -1.316357,-5.605263 c -0.522529,-1.655343 -0.747932,-2.107342 -1.08369,-2.173114 -0.469003,-0.09187 -0.471902,0.274623 -0.01283,1.621934 0.266994,0.78358 0.479248,1.061923 0.809787,1.061923 0.360982,0 0.416651,-0.09916 0.286731,-0.510743 z m -1.685348,-4.590216 c 0,-0.363563 -1.150473,-2.616937 -1.336093,-2.616937 -0.503268,0 -0.508443,0.558706 -0.01494,1.612364 0.344665,0.735872 0.660983,1.1116 0.935838,1.1116 0.228354,0 0.415191,-0.04816 0.415191,-0.107027 z m -2.496966,-4.87855 c 0,-0.09354 -0.36623,-0.649704 -0.813845,-1.235928 -0.663587,-0.869074 -0.873785,-1.016113 -1.138501,-0.796419 -0.327244,0.271588 -0.27069,0.38385 1.098606,2.180746 0.209202,0.274532 0.85374,0.162498 0.85374,-0.148399 z m -3.688044,-4.039522 c 0.10957,-0.32871 -1.675649,-1.466439 -2.155064,-1.373431 -0.695097,0.134852 -0.497357,0.528896 0.568983,1.133836 1.111401,0.630502 1.439269,0.68003 1.586081,0.239595 z"
       id="path1137"
       inkscape:connector-curvature="0"
       transform="matrix(0.26458333,0,0,0.26458333,6.7424476,255.87757)" />
    <path
       style="fill:url(#linearGradient1157);fill-opacity:1;stroke:#b9e1ec;stroke-width:2;stroke-linecap:round;stroke-linejoin:round;stroke-miterlimit:4;stroke-dasharray:none;stroke-dashoffset:0;stroke-opacity:1;paint-order:stroke fill markers"
       d="m 117.09611,158.27 c -2.83011,-0.16607 -3.39394,-0.26643 -4.42644,-0.78785 -1.78771,-0.90281 -3.06732,-1.83169 -4.75908,-3.45464 l -1.5329,-1.47054 1.49568,-1.54925 c 1.39342,-1.44334 1.65892,-1.97733 1.07922,-2.17056 -0.12953,-0.0432 -0.7194,0.48788 -1.31081,1.18014 -1.69704,1.9864 -1.73507,1.98721 -3.08757,0.0652 -5.820964,-8.27192 -10.37011,-21.89515 -12.678735,-37.96874 -0.909116,-6.32964 -1.610198,-15.38657 -1.61218,-20.826971 l -0.0011,-2.894211 h 1.361981 c 1.210651,0 1.361982,-0.05044 1.361982,-0.453994 0,-0.404852 -0.151331,-0.453994 -1.398069,-0.453994 h -1.39807 l 0.146276,-5.164181 C 91.05617,56.905648 97.24675,34.344695 106.49492,23.431876 c 1.55411,-1.833827 4.08953,-3.893841 5.78554,-4.700696 0.6869,-0.326785 1.30353,-0.666746 1.37029,-0.755469 0.0668,-0.08872 1.75221,-0.275714 3.74545,-0.415537 l 3.62407,-0.254223 1.362,0.727092 c 0.74909,0.399901 1.76474,1.020713 2.257,1.379583 0.66557,0.485219 0.94109,0.579927 1.07476,0.369436 0.31314,-0.493133 0.21766,-0.613405 -1.23204,-1.551891 l -1.41873,-0.91844 2.04297,0.144538 c 8.29591,0.586928 14.88753,2.306247 21.47718,5.601985 6.56537,3.283581 11.6042,7.044534 18.03412,13.460545 6.90971,6.894755 12.7302,14.214108 20.25951,25.476625 2.60819,3.90138 5.9448,9.101033 5.9448,9.264153 0,0.05953 -0.13322,0.10823 -0.29605,0.10823 -0.16284,0 -0.75599,0.291682 -1.31813,0.648183 -2.09872,1.330969 -3.92128,5.29903 -4.61595,10.049806 -0.40702,2.783507 -0.46275,8.210729 -0.11085,10.793546 0.79491,5.834488 2.92524,10.093528 5.55006,11.095958 l 0.98924,0.37779 -1.15437,1.84736 c -5.88239,9.41372 -12.65191,18.8995 -18.24558,25.56657 -16.81551,20.04232 -32.76314,27.79995 -54.52414,26.52295 z m 11.07341,-3.70657 c 1.48207,-1.49202 1.64887,-1.74168 1.3563,-2.02994 -0.29218,-0.28786 -0.53983,-0.10511 -1.99432,1.4717 -1.4431,1.56446 -1.81666,2.2595 -1.21442,2.2595 0.0894,0 0.92299,-0.76557 1.85244,-1.70126 z m 5.72993,-8.00239 c 1.00041,-1.87388 1.07742,-2.11588 0.71733,-2.25406 -0.22187,-0.0851 -0.43819,-0.0598 -0.4807,0.0563 -0.0425,0.1161 -0.57363,1.07935 -1.18027,2.14056 -0.60664,1.06121 -1.05367,2.01175 -0.99339,2.11229 0.30204,0.50387 0.9221,-0.15397 1.93703,-2.05507 z m -20.57251,-3.15473 c 0.85109,-1.56135 0.99775,-1.98359 0.74466,-2.14387 -0.17335,-0.10977 -0.36625,-0.19908 -0.42868,-0.19846 -0.0624,6.8e-4 -0.60508,0.93396 -1.20591,2.07408 -0.81626,1.54893 -1.01984,2.11781 -0.80533,2.25039 0.42879,0.26501 0.54336,0.13104 1.69526,-1.98214 z m 24.47422,-5.35812 c 0.90919,-2.34876 0.97428,-2.73311 0.4449,-2.62711 -0.37402,0.0749 -2.19101,4.3636 -1.95058,4.60403 0.39745,0.39745 0.78204,-0.10751 1.50568,-1.97692 z m -20.77259,-2.68807 c 0.78729,-2.06171 0.83467,-2.37598 0.38427,-2.54881 -0.44069,-0.16911 -2.09511,4.1581 -1.68634,4.41073 0.43397,0.26821 0.55442,0.096 1.30207,-1.86192 z m 23.48025,-5.48382 c 0.9149,-3.2118 0.98279,-3.96739 0.33717,-3.75218 -0.2851,0.095 -1.57268,4.62098 -1.37177,4.8219 0.36732,0.36731 0.73294,-0.0107 1.0346,-1.06972 z m -20.66561,-3.27086 c 0.32545,-1.20594 0.53866,-2.2785 0.47378,-2.38347 -0.36765,-0.59487 -0.74839,2.3e-4 -1.28995,2.01649 -0.5686,2.1169 -0.55415,2.53986 0.0874,2.55613 0.0754,0.002 0.40335,-0.98321 0.7288,-2.18915 z m 22.71516,-5.24153 c 0.14311,-0.48412 0.82115,-4.11297 0.82115,-4.39476 0,-0.11106 -0.18506,-0.20193 -0.41124,-0.20193 -0.34164,0 -0.48074,0.38033 -0.82191,2.24728 -0.22586,1.23601 -0.34122,2.35964 -0.25635,2.49697 0.22897,0.37048 0.5352,0.30288 0.66835,-0.14756 z m -20.70345,-3.47853 c 0.50577,-2.46066 0.50586,-2.70713 10e-4,-2.70713 -0.34358,0 -0.47746,0.36459 -0.79784,2.17272 -0.21174,1.195 -0.32304,2.27295 -0.24733,2.39545 0.33151,0.53639 0.67848,-0.082 1.04414,-1.86104 z m 22.58573,-7.71919 c 0.38005,-2.72434 0.37166,-2.93284 -0.11801,-2.93284 -0.36091,0 -0.45696,0.31422 -0.69406,2.27052 -0.15135,1.24878 -0.20886,2.37781 -0.12782,2.50895 0.35873,0.58043 0.6929,-0.0761 0.93989,-1.84663 z m -21.38204,0.18837 c 0.21178,-0.92079 0.51656,-3.91181 0.41636,-4.08594 -0.0539,-0.0936 -0.23211,-0.17025 -0.39606,-0.17025 -0.31308,0 -0.45963,0.65963 -0.71867,3.23471 -0.1332,1.32418 -0.10423,1.53222 0.21339,1.53222 0.20214,0 0.42038,-0.22983 0.48498,-0.51074 z m 22.21819,-8.73938 c 0.0774,-0.46818 0.14182,-1.59182 0.1432,-2.496967 0.002,-1.275848 -0.0704,-1.645728 -0.32166,-1.645728 -0.32469,0 -0.40816,0.458513 -0.67158,3.688705 -0.0933,1.14421 -0.0561,1.30523 0.30145,1.30523 0.29499,0 0.44683,-0.2356 0.54859,-0.85124 z m -21.10654,-1.999031 c 0.15911,-2.263568 0.1026,-2.597658 -0.43937,-2.597658 -0.22636,0 -0.32759,0.262154 -0.32871,0.851239 -9.1e-4,0.468181 -0.0667,1.540741 -0.14632,2.38347 -0.13491,1.42844 -0.11401,1.53223 0.3086,1.53223 0.41083,0 0.46761,-0.20332 0.6058,-2.169281 z m 21.56053,-7.534841 c 0.0774,-0.468181 0.14183,-1.489668 0.1432,-2.26997 l 0.002,-1.41873 h 1.47548 c 1.32415,0 1.47548,-0.04656 1.47548,-0.453994 0,-0.422135 -0.15133,-0.453994 -2.15647,-0.453994 -2.00514,0 -2.15647,0.03186 -2.15647,0.453994 0,0.249696 0.10215,0.453994 0.22699,0.453994 0.1362,0 0.227,0.907987 0.227,2.269969 0,1.770006 0.0685,2.269969 0.3108,2.269969 0.18279,0 0.36874,-0.350578 0.45149,-0.851238 z M 124.53878,90.80445 c 0,-1.045605 0.0638,-2.220314 0.14187,-2.610465 l 0.14187,-0.709365 h -2.07134 c -1.92002,0 -2.07135,0.03317 -2.07135,0.453994 0,0.40743 0.15133,0.453994 1.47548,0.453994 h 1.47548 v 2.15647 c 0,2.005139 0.0319,2.156471 0.45399,2.156471 0.41786,0 0.454,-0.151332 0.454,-1.901099 z M 100.9311,87.938614 c 0,-0.422135 -0.15134,-0.453994 -2.156475,-0.453994 -2.00514,0 -2.156471,0.03186 -2.156471,0.453994 0,0.422135 0.151331,0.453994 2.156471,0.453994 2.005135,0 2.156475,-0.03186 2.156475,-0.453994 z m 7.94489,0 c 0,-0.422135 -0.15133,-0.453994 -2.15647,-0.453994 -1.64573,0 -2.15647,0.07168 -2.15647,0.302662 0,0.535447 0.26641,0.605326 2.3078,0.605326 1.85381,0 2.00514,-0.03426 2.00514,-0.453994 z m 7.94489,0 c 0,-0.420365 -0.15133,-0.453994 -2.04297,-0.453994 -1.89164,0 -2.04297,0.03363 -2.04297,0.453994 0,0.420364 0.15133,0.453994 2.04297,0.453994 1.89164,0 2.04297,-0.03363 2.04297,-0.453994 z m 15.88979,0 c 0,-0.420365 -0.15133,-0.453994 -2.04298,-0.453994 -1.89164,0 -2.04297,0.03363 -2.04297,0.453994 0,0.420364 0.15133,0.453994 2.04297,0.453994 1.89165,0 2.04298,-0.03363 2.04298,-0.453994 z m 8.17189,0 c 0,-0.422135 -0.15134,-0.453994 -2.15647,-0.453994 -2.00514,0 -2.15647,0.03186 -2.15647,0.453994 0,0.422135 0.15133,0.453994 2.15647,0.453994 2.00513,0 2.15647,-0.03186 2.15647,-0.453994 z m 15.88978,0 c 0,-0.422135 -0.15133,-0.453994 -2.15647,-0.453994 -1.64573,0 -2.15647,0.07168 -2.15647,0.302662 0,0.535447 0.26641,0.605326 2.3078,0.605326 1.85381,0 2.00514,-0.03426 2.00514,-0.453994 z m 7.9449,0 c 0,-0.420365 -0.15134,-0.453994 -2.04298,-0.453994 -1.89164,0 -2.04297,0.03363 -2.04297,0.453994 0,0.420364 0.15133,0.453994 2.04297,0.453994 1.89164,0 2.04298,-0.03363 2.04298,-0.453994 z m 7.94489,0 c 0,-0.420365 -0.15133,-0.453994 -2.04297,-0.453994 -1.89164,0 -2.04298,0.03363 -2.04298,0.453994 0,0.420364 0.15134,0.453994 2.04298,0.453994 1.89164,0 2.04297,-0.03363 2.04297,-0.453994 z m 7.94489,0 c 0,-0.420365 -0.15133,-0.453994 -2.04297,-0.453994 -1.89164,0 -2.04297,0.03363 -2.04297,0.453994 0,0.420364 0.15133,0.453994 2.04297,0.453994 1.89164,0 2.04297,-0.03363 2.04297,-0.453994 z m -56.14815,-5.95867 c -0.0787,-0.655454 -0.14403,-1.728014 -0.14512,-2.383468 -0.002,-1.066942 -0.053,-1.191734 -0.48927,-1.191734 -0.46874,0 -0.48171,0.06617 -0.3405,1.736727 0.0807,0.955198 0.14681,2.027759 0.14681,2.383467 0,0.509447 0.10309,0.646742 0.48561,0.646742 0.45267,0 0.4759,-0.08086 0.34247,-1.191734 z m 21.19062,-1.400165 c 0,-2.328344 -0.10933,-2.856028 -0.59178,-2.856028 -0.25111,0 -0.31621,0.514008 -0.31621,2.496967 0,2.345634 0.0275,2.496966 0.454,2.496966 0.42186,0 0.45399,-0.151332 0.45399,-2.137905 z m -21.89145,-8.694196 c -0.17734,-2.415901 -0.21854,-2.560718 -0.72852,-2.560718 -0.29705,0 -0.32546,0.288236 -0.19581,1.986223 0.18589,2.43446 0.27679,2.780712 0.72998,2.780712 0.3104,0 0.33544,-0.284191 0.19435,-2.206217 z m 21.35011,0.04975 -0.2793,-2.496967 c -0.11742,-1.049688 -0.2118,-1.248483 -0.59276,-1.248483 -0.38572,0 -0.43435,0.109705 -0.32702,0.73774 0.0693,0.405757 0.19487,1.529392 0.27893,2.496966 0.13521,1.556223 0.20518,1.759227 0.60633,1.759227 0.41527,0 0.44171,-0.1052 0.31382,-1.248483 z m -22.22211,-7.547649 c -0.0663,-0.343332 -0.24423,-1.403199 -0.39546,-2.355261 -0.24536,-1.544664 -0.32279,-1.718514 -0.71922,-1.614845 -0.31662,0.0828 -0.41195,0.254042 -0.33182,0.596035 0.0618,0.263923 0.23666,1.271512 0.38849,2.239087 0.23723,1.511709 0.33955,1.759226 0.72729,1.759226 0.37013,0 0.42957,-0.112193 0.33072,-0.624242 z m 21.17447,-1.226278 c 0,-0.117133 -0.1667,-1.216749 -0.37045,-2.443595 -0.33232,-2.001016 -0.41529,-2.218899 -0.80605,-2.116714 -0.33305,0.0871 -0.40746,0.253909 -0.31611,0.708655 0.0657,0.327109 0.23148,1.309783 0.36835,2.183721 0.13688,0.873939 0.28874,1.714942 0.33748,1.868898 0.0985,0.311065 0.78678,0.135254 0.78678,-0.200965 z m -22.69969,-7.144508 c 0,-0.469389 -0.99306,-4.321686 -1.16001,-4.49994 -0.12688,-0.135467 -0.296,-0.121618 -0.45487,0.03725 -0.18587,0.185868 -0.11386,0.829645 0.27168,2.428868 0.42225,1.751517 0.60441,2.175967 0.93389,2.175967 0.22512,0 0.40931,-0.06397 0.40931,-0.142147 z m 20.93233,-2.025104 c 0.10709,-0.107088 -0.5137,-3.311281 -0.86649,-4.472409 -0.0664,-0.218485 -0.32905,-0.397245 -0.58369,-0.397245 -0.27638,0 -0.41966,0.114359 -0.35548,0.283746 0.0591,0.156061 0.33381,1.279696 0.61041,2.496967 0.45692,2.010811 0.75407,2.530128 1.19525,2.088941 z m -23.2023,-6.855316 c 0,-0.600166 -1.45218,-4.370252 -1.68336,-4.370252 -0.55019,0 -0.53096,0.27357 0.1684,2.396768 0.54032,1.640336 0.80085,2.143171 1.11045,2.143171 0.22248,0 0.40451,-0.07636 0.40451,-0.169687 z m 20.88372,-2.737159 c 0,-0.07387 -0.32817,-1.135502 -0.72926,-2.359181 -0.65927,-2.011338 -1.06142,-2.589747 -1.40925,-2.026942 -0.0964,0.155935 0.62299,2.582351 1.33662,4.508429 0.0988,0.266556 0.80189,0.159313 0.80189,-0.122306 z m -24.06168,-6.088858 c 0,-0.4764 -1.78659,-3.943122 -2.0321,-3.943122 -0.50595,0 -0.40388,0.529982 0.47271,2.45446 0.64919,1.425243 1.02909,2.013405 1.24658,1.929949 0.17205,-0.06602 0.31281,-0.264601 0.31281,-0.441287 z m 20.61704,-2.778806 c 0.23565,-0.149405 0.0792,-0.664926 -0.72225,-2.379992 -0.98046,-2.098138 -1.30129,-2.480435 -1.63225,-1.944944 -0.14259,0.230718 1.69833,4.51517 1.94019,4.515497 0.0624,8.4e-5 0.24886,-0.08567 0.41431,-0.190561 z m -24.81226,-5.030099 c 0.13716,-0.221921 -2.3126,-3.85596 -2.59442,-3.848637 -0.0736,0.0019 -0.26801,0.08861 -0.43209,0.192653 -0.22489,0.142613 0.0126,0.602439 0.96474,1.868141 0.69468,0.923429 1.26306,1.756073 1.26306,1.850319 0,0.256175 0.63235,0.206713 0.79871,-0.06248 z m 20.4766,-3.77839 c 0.0957,-0.287141 -2.56865,-3.93267 -2.87422,-3.93267 -0.60621,0 -0.36419,0.634228 0.91262,2.391599 1.30327,1.793773 1.75822,2.151196 1.9616,1.541071 z"
       id="path1139"
       inkscape:connector-curvature="0"
       transform="matrix(0.26458333,0,0,0.26458333,6.7424476,255.87757)" />
    <path
       style="fill:none;fill-opacity:1;stroke:#ff0000;stroke-width:0.176;stroke-linecap:butt;stroke-linejoin:round;stroke-miterlimit:4;stroke-dasharray:0.70399998, 0.70399998;stroke-dashoffset:0;stroke-opacity:1;paint-order:stroke fill markers"
       d="m 19.150784,279.15039 a 4.1045184,10.454982 0 0 1 -4.104518,10.45498 4.1045184,10.454982 0 0 1 -4.104519,-10.45498 4.1045184,10.454982 0 0 1 4.104519,-10.45498 4.1045184,10.454982 0 0 1 4.104518,10.45498 z"
       id="ellipse968"
       inkscape:connector-curvature="0" />
    <path
       style="fill:none;stroke:#000000;stroke-width:0.176;stroke-linecap:butt;stroke-linejoin:miter;stroke-miterlimit:4;stroke-dasharray:none;stroke-opacity:1;marker-end:url(#Arrow1Lend)"
       d="M 8.9211094,297.37259 V 256.48383"
       id="path21"
       inkscape:connector-curvature="0"
       sodipodi:nodetypes="cc" />
    <g
       aria-label="4"
       transform="matrix(0.86992401,0,0,1.1495257,-40.368853,-49.501366)"
       style="font-style:normal;font-variant:normal;font-weight:normal;font-stretch:normal;font-size:4.8663249px;line-height:5.67737913px;font-family:'GOST type B';-inkscape-font-specification:'GOST type B';text-align:start;letter-spacing:0px;word-spacing:0px;text-anchor:start;fill:#ff0000;fill-opacity:1;stroke:none;stroke-width:0.30414531"
       id="g84" />
    <path
       style="fill:#ffff00;fill-opacity:1;stroke:#ff0000;stroke-width:0.96381396;stroke-linecap:round;stroke-linejoin:round;stroke-miterlimit:4;stroke-dasharray:none;stroke-dashoffset:0;stroke-opacity:1;paint-order:stroke fill markers"
       d=""
       id="path156"
       inkscape:connector-curvature="0"
       transform="matrix(0.26458333,0,0,0.26458333,0.91845,235.47329)" />
    <g
       aria-label="y"
       transform="matrix(1,0,-0.13208586,1,-6.2839018,0)"
       style="font-style:normal;font-variant:normal;font-weight:normal;font-stretch:normal;font-size:4.23333311px;line-height:4.93888855px;font-family:'GOST type B';-inkscape-font-specification:'GOST type B';text-align:start;letter-spacing:0px;word-spacing:0px;text-anchor:start;fill:#000000;fill-opacity:1;stroke:none;stroke-width:0.26458332"
       id="text3857">
      <path
         d="m 46.584246,258.79153 -0.560172,-1.82314 -0.0083,-0.0496 q 0,-0.0558 0.04548,-0.10129 0.04547,-0.0393 0.103353,-0.0393 0.09715,0 0.136425,0.10335 l 0.434082,1.42007 0.446485,-1.42007 q 0.03514,-0.10335 0.136426,-0.10335 0.06408,0 0.105419,0.0393 0.04341,0.0372 0.04341,0.10129 l -0.0083,0.0496 -0.752408,2.39985 q -0.03101,0.12816 -0.142627,0.21704 -0.111621,0.0889 -0.256315,0.0889 H 46.16251 q -0.05374,0 -0.107487,-0.0434 -0.03721,-0.0434 -0.03721,-0.10129 0,-0.0579 0.03514,-0.10129 0.03721,-0.0434 0.109554,-0.0434 h 0.142627 q 0.04548,0 0.07441,-0.0289 0.03101,-0.0227 0.04961,-0.0703 z"
         style="stroke-width:0.26458332"
         id="path907"
         inkscape:connector-curvature="0" />
    </g>
    <g
       aria-label="x"
       transform="matrix(1,0,-0.13208586,1,0,-12.078954)"
       style="font-style:normal;font-variant:normal;font-weight:normal;font-stretch:normal;font-size:4.23333311px;line-height:4.93888855px;font-family:'GOST type B';-inkscape-font-specification:'GOST type B';text-align:start;letter-spacing:0px;word-spacing:0px;text-anchor:start;fill:#000000;fill-opacity:1;stroke:none;stroke-width:0.26458332"
       id="text3861">
      <path
         d="m 99.895574,288.34639 0.525036,0.78755 0.0207,0.0434 0.004,0.0393 q 0,0.0558 -0.0455,0.10128 l -0.0227,0.0186 -0.031,0.0145 -0.0537,0.008 q -0.06,0 -0.11576,-0.0641 l -0.456816,-0.68626 -0.45682,0.68626 q -0.04341,0.0661 -0.119889,0.0661 -0.04547,0 -0.101286,-0.0434 -0.04754,-0.0434 -0.04754,-0.10335 0,-0.0372 0.02481,-0.0806 l 0.525032,-0.78755 -0.525032,-0.78754 -0.02067,-0.0434 -0.0041,-0.0393 q 0,-0.0558 0.04341,-0.0992 0.04341,-0.0434 0.109554,-0.0434 0.05994,0 0.115755,0.0641 l 0.45682,0.68626 0.456812,-0.68626 q 0.0434,-0.0661 0.11989,-0.0661 0.0434,0 0.10336,0.0434 0.0455,0.0455 0.0455,0.10335 0,0.0372 -0.0248,0.0806 z"
         style="stroke-width:0.26458332"
         id="path910"
         inkscape:connector-curvature="0" />
    </g>
    <g
       aria-label="O"
       transform="matrix(1,0,-0.13208586,1,-6.215062,-16.531601)"
       style="font-style:normal;font-variant:normal;font-weight:normal;font-stretch:normal;font-size:4.23333311px;line-height:4.93888855px;font-family:'GOST type B';-inkscape-font-specification:'GOST type B';text-align:start;letter-spacing:0px;word-spacing:0px;text-anchor:start;fill:#000000;fill-opacity:1;stroke:none;stroke-width:0.26458332"
       id="text3865">
      <path
         d="m 52.819337,294.18349 q 0,0.23771 -0.169499,0.40928 -0.169498,0.1695 -0.409277,0.1695 h -0.578776 q -0.235644,0 -0.40721,-0.16743 -0.171566,-0.1695 -0.171566,-0.41135 v -1.73633 q 0,-0.24184 0.167432,-0.40927 0.169498,-0.1695 0.411344,-0.1695 h 0.578776 q 0.241846,0 0.409277,0.1695 0.169499,0.1695 0.169499,0.40927 z m -0.289388,0 v -1.73633 q 0,-0.12195 -0.08268,-0.20463 -0.08061,-0.0847 -0.206706,-0.0847 h -0.578776 q -0.121956,0 -0.206706,0.0827 -0.04134,0.0413 -0.06201,0.0951 -0.02067,0.0517 -0.02067,0.11162 v 1.73633 q 0,0.12196 0.08268,0.20671 0.04341,0.0372 0.09302,0.062 0.06201,0.0207 0.113688,0.0207 h 0.578776 q 0.119889,0 0.204639,-0.0806 0.08475,-0.0806 0.08475,-0.20877 z"
         style="stroke-width:0.26458332"
         id="path913"
         inkscape:connector-curvature="0" />
    </g>
    <path
       inkscape:connector-curvature="0"
       id="path1157"
       d="M 7.0070309,279.14046 H 62.908895"
       style="fill:none;stroke:#000000;stroke-width:0.176;stroke-linecap:butt;stroke-linejoin:miter;stroke-miterlimit:4;stroke-dasharray:1.05599998, 1.05599998;stroke-dashoffset:0;stroke-opacity:1;marker-end:url(#marker1289)"
       sodipodi:nodetypes="cc" />
    <g
       aria-label="f(x)"
       style="font-style:italic;font-variant:normal;font-weight:normal;font-stretch:normal;font-size:4.93888855px;line-height:4.93888855px;font-family:'GOST type B';-inkscape-font-specification:'GOST type B Italic';text-align:start;letter-spacing:0px;word-spacing:0px;text-anchor:start;fill:#0000ff;fill-opacity:1;stroke:none;stroke-width:0.26458332"
       id="text10885"
       transform="translate(-1.6216094,-7.9879276)">
      <path
         d="m 56.266166,271.56379 h 0.578776 q 0.07993,0 0.124024,0.0606 0.0441,0.0579 0.03032,0.13229 -0.01378,0.0661 -0.07441,0.12954 -0.06063,0.0634 -0.157097,0.0634 h -0.578776 l -0.424435,2.12217 q -0.01929,0.091 -0.08544,0.14608 -0.06063,0.0469 -0.146072,0.0469 -0.07717,0 -0.126779,-0.0469 -0.04685,-0.0496 -0.02756,-0.14608 l 0.424436,-2.12217 H 55.61022 q -0.08819,0 -0.132291,-0.0551 -0.03859,-0.0579 -0.02205,-0.1378 0.01378,-0.0689 0.07717,-0.12954 0.06339,-0.0634 0.15434,-0.0634 h 0.192926 l 0.07717,-0.38586 q 0.06339,-0.3197 0.333485,-0.5457 0.272852,-0.226 0.592557,-0.226 h 0.192925 q 0.07993,0 0.124023,0.0606 0.0441,0.0579 0.03032,0.13229 -0.01378,0.0661 -0.07441,0.12953 -0.06063,0.0634 -0.157096,0.0634 h -0.192926 q -0.162608,0 -0.297656,0.11025 -0.06615,0.0551 -0.107487,0.12678 -0.04134,0.0689 -0.05788,0.14882 z"
         style="font-size:5.64444447px;fill:#0000ff;stroke-width:0.26458332"
         id="path11160"
         inkscape:connector-curvature="0" />
      <path
         d="m 58.156835,274.58996 q 0.01654,0.0551 0.0083,0.0992 -0.01378,0.0744 -0.08819,0.12953 -0.07166,0.0551 -0.151585,0.0551 -0.08819,0 -0.143315,-0.0992 -0.162609,-0.47955 -0.209462,-1.08589 -0.01378,-0.24805 0.0028,-0.55673 0.01929,-0.30868 0.07441,-0.58704 0.234266,-1.17133 1.02526,-2.22967 0.03307,-0.0468 0.08544,-0.0744 0.0441,-0.0193 0.09922,-0.0276 0.08544,0 0.132292,0.0551 0.04685,0.0496 0.03032,0.13505 -0.0083,0.0413 -0.04685,0.0965 -0.08544,0.113 -0.162609,0.226 -0.07441,0.11024 -0.148828,0.23151 -0.07166,0.12127 -0.14056,0.2508 -0.0689,0.12954 -0.137804,0.27561 -0.245291,0.53743 -0.350021,1.06109 -0.21773,1.08314 0.121267,2.04501 z"
         style="font-size:5.64444447px;fill:#0000ff;stroke-width:0.26458332"
         id="path11162"
         inkscape:connector-curvature="0" />
      <path
         d="m 60.485719,272.91426 0.490582,1.05007 0.01654,0.0579 -0.0055,0.0524 q -0.01654,0.0744 -0.08819,0.13505 l -0.03583,0.0248 -0.0441,0.0193 -0.07441,0.011 q -0.07993,0 -0.137803,-0.0854 l -0.424436,-0.91502 -0.79375,0.91502 q -0.07441,0.0882 -0.176389,0.0882 -0.06063,0 -0.124023,-0.0579 -0.05237,-0.0579 -0.03583,-0.13781 0.01102,-0.0496 0.05512,-0.10748 l 0.909505,-1.05007 -0.490581,-1.05006 -0.01654,-0.0579 0.0055,-0.0524 q 0.01654,-0.0744 0.08544,-0.13229 0.0689,-0.0579 0.157096,-0.0579 0.07993,0 0.137804,0.0854 l 0.424436,0.91502 0.79375,-0.91502 q 0.07441,-0.0882 0.176389,-0.0882 0.05788,0 0.126779,0.0579 0.04961,0.0606 0.03307,0.1378 -0.01102,0.0496 -0.05512,0.10749 z"
         style="font-size:5.64444447px;fill:#0000ff;stroke-width:0.26458332"
         id="path11164"
         inkscape:connector-curvature="0" />
      <path
         d="m 61.954708,274.77461 q -0.0248,0.0358 -0.08268,0.0717 l -0.05237,0.0193 -0.04961,0.008 q -0.07717,0 -0.129536,-0.0551 -0.04961,-0.0524 -0.03583,-0.13229 0.0083,-0.0413 0.04685,-0.0965 0.330729,-0.44373 0.595312,-0.9977 0.245291,-0.53468 0.347266,-1.04731 0.06063,-0.30041 0.07993,-0.54295 0.01929,-0.24253 0,-0.50712 l -0.02481,-0.25356 -0.01378,-0.12126 -0.02205,-0.12954 q -0.0441,-0.226 -0.143316,-0.49058 l -0.0055,-0.10198 q 0.01102,-0.0661 0.08544,-0.12402 0.07717,-0.0606 0.15434,-0.0606 0.09646,0 0.143316,0.10197 0.08819,0.25907 0.135048,0.50988 0.04685,0.2508 0.07441,0.57602 0.01378,0.24253 -0.0055,0.55397 -0.01654,0.31143 -0.07166,0.5898 -0.06614,0.32246 -0.15434,0.59807 -0.08819,0.27285 -0.223242,0.55121 -0.242535,0.56224 -0.647678,1.08038 z"
         style="font-size:5.64444447px;fill:#0000ff;stroke-width:0.26458332"
         id="path11166"
         inkscape:connector-curvature="0" />
    </g>
    <g
       aria-label="a"
       style="font-style:italic;font-variant:normal;font-weight:normal;font-stretch:normal;font-size:4.93888855px;line-height:4.93888855px;font-family:'GOST type B';-inkscape-font-specification:'GOST type B Italic';text-align:start;letter-spacing:0px;word-spacing:0px;text-anchor:start;fill:#ff0000;fill-opacity:1;stroke:none;stroke-width:0.26458332"
       id="text11072"
       transform="translate(-4.0239936,-8.6703334)">
      <path
         d="m 19.271217,291.80865 0.270095,-1.35048 h -0.675238 q -0.142283,0 -0.26045,0.0965 -0.05788,0.0482 -0.09405,0.11094 -0.03617,0.0603 -0.05064,0.13022 l -0.202571,1.01286 q -0.02894,0.14228 0.04823,0.24115 0.041,0.0434 0.09405,0.0723 0.06752,0.0241 0.127813,0.0241 h 0.33762 q 0.139871,0 0.258037,-0.0941 0.118167,-0.094 0.147106,-0.24357 z m 0.07476,0.45337 q -0.09887,0.094 -0.253214,0.15917 -0.15434,0.0627 -0.294211,0.0627 h -0.33762 q -0.272507,0 -0.436493,-0.19534 -0.161575,-0.19534 -0.103697,-0.4799 l 0.202571,-1.01286 q 0.05547,-0.27974 0.2918,-0.47749 0.238745,-0.19775 0.518487,-0.19775 h 0.844048 q 0.16881,0 0.135048,0.16881 l -0.303858,1.51688 q -0.01929,0.10128 0.02412,0.20739 0.03859,0.0941 0.139871,0.14711 0.09646,0.0434 0.07476,0.15193 -0.01447,0.0747 -0.07235,0.12299 -0.05305,0.0506 -0.130224,0.0506 -0.03617,0 -0.06752,-0.0169 -0.151929,-0.0651 -0.231511,-0.2074 z"
         style="fill:#ff0000;stroke-width:0.26458332"
         id="path11169"
         inkscape:connector-curvature="0" />
    </g>
    <g
       aria-label="b"
       style="font-style:italic;font-variant:normal;font-weight:normal;font-stretch:normal;font-size:4.93888855px;line-height:4.93888855px;font-family:'GOST type B';-inkscape-font-specification:'GOST type B Italic';text-align:start;letter-spacing:0px;word-spacing:0px;text-anchor:start;fill:#ff0000;fill-opacity:1;stroke:none;stroke-width:0.26458332"
       id="text11076"
       transform="translate(8.4684045,-8.6485834)">
      <path
         d="m 51.411089,290.43879 -0.337619,1.6881 h 0.675239 q 0.139871,0 0.258037,-0.094 0.118167,-0.0941 0.147106,-0.24357 l 0.202572,-1.01286 q 0.02894,-0.14228 -0.04823,-0.23874 -0.07476,-0.0989 -0.221864,-0.0989 z m 0.06752,-0.33762 h 0.675239 q 0.274919,0 0.434082,0.19775 0.161575,0.19534 0.106109,0.47749 l -0.202572,1.01286 q -0.05547,0.27733 -0.294211,0.47749 -0.236333,0.19775 -0.516075,0.19775 h -0.844048 q -0.16881,0 -0.135048,-0.16881 l 0.607715,-3.03858 q 0.01447,-0.0675 0.07476,-0.1254 0.06029,-0.0434 0.127813,-0.0434 0.06511,0 0.108521,0.0434 0.04341,0.041 0.02653,0.1254 z"
         style="fill:#ff0000;stroke-width:0.26458332"
         id="path11172"
         inkscape:connector-curvature="0" />
    </g>
    <path
       style="fill:none;fill-opacity:1;stroke:#ff0000;stroke-width:0.176;stroke-linecap:butt;stroke-linejoin:round;stroke-miterlimit:4;stroke-dasharray:0.52799999, 0.52799999;stroke-dashoffset:0;stroke-opacity:1;paint-order:stroke fill markers"
       d="m 39.582143,279.19543 a 7.0176096,17.875174 0 0 1 -7.01761,17.87518 7.0176096,17.875174 0 0 1 -7.017609,-17.87518 7.0176096,17.875174 0 0 1 7.017609,-17.87517 7.0176096,17.875174 0 0 1 7.01761,17.87517 z"
       id="ellipse970"
       inkscape:connector-curvature="0" />
    <path
       style="fill:none;fill-opacity:1;stroke:#ff0000;stroke-width:0.5291667;stroke-linecap:butt;stroke-linejoin:round;stroke-miterlimit:4;stroke-dasharray:none;stroke-dashoffset:0;stroke-opacity:1;paint-order:stroke fill markers"
       d="M 31.587871,296.89665 A 7.0176096,17.875174 0 0 1 25.546924,279.19543 7.0176096,17.875174 0 0 1 31.58787,261.49422"
       id="path973"
       inkscape:connector-curvature="0" />
    <path
       style="fill:none;fill-opacity:1;stroke:#ff0000;stroke-width:0.176;stroke-linecap:butt;stroke-linejoin:round;stroke-miterlimit:4;stroke-dasharray:0.70399998, 0.70399998;stroke-dashoffset:0;stroke-opacity:1;paint-order:stroke fill markers"
       d="m 45.204651,279.15857 a 7.4426122,18.957735 0 0 1 -7.442612,18.95773 7.4426122,18.957735 0 0 1 -7.442612,-18.95773 7.4426122,18.957735 0 0 1 7.442612,-18.95774 7.4426122,18.957735 0 0 1 7.442612,18.95774 z"
       id="ellipse975"
       inkscape:connector-curvature="0" />
    <path
       style="fill:none;fill-opacity:1;stroke:#ff0000;stroke-width:0.5291667;stroke-linecap:butt;stroke-linejoin:round;stroke-miterlimit:4;stroke-dasharray:none;stroke-dashoffset:0;stroke-opacity:1;paint-order:stroke fill markers"
       d="m 36.726228,297.93181 a 7.4426122,18.957735 0 0 1 -6.406801,-18.77324 7.4426122,18.957735 0 0 1 6.4068,-18.77324"
       id="path977"
       inkscape:connector-curvature="0" />
    <path
       style="fill:#ff0000;fill-opacity:1;stroke:none;stroke-width:0.28430769;stroke-linecap:round;stroke-linejoin:round;stroke-miterlimit:4;stroke-dasharray:0.07107692, 0.07107692;stroke-dashoffset:0;stroke-opacity:1;paint-order:stroke fill markers"
       d="m 15.676891,279.15067 a 0.63062584,0.63062584 0 0 1 -0.630625,0.63062 0.63062584,0.63062584 0 0 1 -0.630626,-0.63062 0.63062584,0.63062584 0 0 1 0.630626,-0.63063 0.63062584,0.63062584 0 0 1 0.630625,0.63063 z"
       id="path981"
       inkscape:connector-curvature="0" />
    <path
       sodipodi:nodetypes="cc"
       style="fill:none;stroke:#000000;stroke-width:0.26458332;stroke-linecap:butt;stroke-linejoin:miter;stroke-miterlimit:4;stroke-dasharray:none;stroke-dashoffset:0;stroke-opacity:1"
       d="M 7.0070309,279.14046 H 11.017395"
       id="path1021"
       inkscape:connector-curvature="0" />
    <path
       style="fill:none;fill-opacity:1;stroke:#ff0000;stroke-width:0.35277778;stroke-linecap:butt;stroke-linejoin:round;stroke-miterlimit:4;stroke-dasharray:none;stroke-dashoffset:0;stroke-opacity:1;paint-order:stroke fill markers"
       d="m 14.475027,289.50363 a 4.1045184,10.454982 0 0 1 -3.53328,-10.35324 4.1045184,10.454982 0 0 1 3.53328,-10.35323"
       id="path73"
       inkscape:connector-curvature="0" />
    <path
       style="fill:#ffe6d5;fill-opacity:1;stroke:none;stroke-width:0.22699694;stroke-linecap:round;stroke-linejoin:round;stroke-miterlimit:4;stroke-dasharray:none;stroke-dashoffset:0;stroke-opacity:1;paint-order:stroke fill markers"
       d="m 189.93659,101.28456 c -1.8406,-1.799534 -2.99293,-5.490716 -3.54631,-11.359723 l -0.14447,-1.532229 h 1.27217 c 1.11008,0 1.29705,0.06507 1.4675,0.510743 0.36376,0.951179 1.12041,1.418731 2.29594,1.418731 0.84421,0 1.22615,-0.125211 1.67865,-0.550312 0.32218,-0.302672 0.58578,-0.685729 0.58578,-0.851239 0,-0.216718 0.384,-0.300927 1.37226,-0.300927 h 1.37227 l -0.11253,0.737741 c -0.0619,0.405757 -0.17345,1.535139 -0.2479,2.509737 -0.29533,3.865657 -1.7916,8.016799 -3.39804,9.427268 -1.03467,0.90846 -1.65852,0.9061 -2.59532,-0.01 z"
       id="path1161"
       inkscape:connector-curvature="0"
       transform="matrix(0.26458333,0,0,0.26458333,6.7424476,255.87757)" />
    <path
       style="fill:#ffe6d5;fill-opacity:1;stroke:none;stroke-width:0.22699694;stroke-linecap:round;stroke-linejoin:round;stroke-miterlimit:4;stroke-dasharray:none;stroke-dashoffset:0;stroke-opacity:1;paint-order:stroke fill markers"
       d="m 186.39858,85.611895 c 0.54937,-6.95929 2.592,-11.974088 4.8773,-11.974088 2.24719,0 4.30547,5.067016 4.86402,11.974088 l 0.13308,1.645728 h -1.34827 c -1.1639,0 -1.36865,-0.06422 -1.49733,-0.469656 -0.18139,-0.571487 -1.39106,-1.344309 -2.10603,-1.345471 -0.81402,-0.0013 -1.81938,0.621327 -2.20393,1.364975 -0.32474,0.627978 -0.44154,0.677149 -1.60842,0.677149 h -1.25826 z"
       id="path1163"
       inkscape:connector-curvature="0"
       transform="matrix(0.26458333,0,0,0.26458333,6.7424476,255.87757)" />
    <path
       style="fill:#ffe6d5;fill-opacity:1;stroke:none;stroke-width:0.15099764;stroke-linecap:round;stroke-linejoin:round;stroke-miterlimit:4;stroke-dasharray:none;stroke-dashoffset:0;stroke-opacity:1;paint-order:stroke fill markers"
       d="m 123.21411,66.941397 c -0.0671,-0.249697 -0.12331,-0.808447 -0.12501,-1.241669 -0.005,-1.322112 -1.77717,-10.329443 -2.837,-14.42112 -1.27563,-4.924845 -2.72571,-9.304489 -4.27781,-12.920178 l -1.22604,-2.856109 h 10.58247 10.58247 l 0.64937,1.645728 c 1.89914,4.813151 3.74705,11.083871 5.00027,16.968021 0.75506,3.54519 2.27949,12.914889 2.12617,13.068209 -0.0371,0.0371 -4.63169,0.09977 -10.21021,0.139279 -9.98149,0.07069 -10.14471,0.06461 -10.26468,-0.382161 z"
       id="path1167"
       inkscape:connector-curvature="0"
       transform="matrix(0.26458333,0,0,0.26458333,6.7424476,255.87757)" />
    <path
       style="fill:#ffe6d5;fill-opacity:1;stroke:#ffe6d5;stroke-width:0.04004952;stroke-linecap:round;stroke-linejoin:round;stroke-miterlimit:4;stroke-dasharray:none;stroke-dashoffset:0;stroke-opacity:1;paint-order:stroke fill markers"
       d="m 36.789385,264.68387 c -0.43612,-0.81652 -0.960021,-1.56327 -1.479026,-2.10815 l -0.441044,-0.46303 0.133072,-0.14508 c 0.339912,-0.37059 1.05582,-0.92345 1.476073,-1.1399 0.441494,-0.22739 0.504781,-0.24219 1.349905,-0.31567 l 0.886694,-0.0771 0.384667,0.19524 c 1.210016,0.61417 2.269308,1.85489 3.175937,3.71988 0.228678,0.47041 0.415779,0.87003 0.415779,0.88806 0,0.018 -1.257418,0.0328 -2.794261,0.0328 h -2.794259 z"
       id="path1169"
       inkscape:connector-curvature="0" />
    <path
       style="fill:#ffe6d5;fill-opacity:1;stroke:none;stroke-width:0.15099764;stroke-linecap:round;stroke-linejoin:round;stroke-miterlimit:4;stroke-dasharray:none;stroke-dashoffset:0;stroke-opacity:1;paint-order:stroke fill markers"
       d="m 122.632,114.01899 c 0,-0.1382 0.2038,-1.79812 0.45288,-3.6887 0.7613,-5.77849 1.14645,-10.672912 1.29314,-16.433007 0.0771,-3.027571 0.22653,-5.504675 0.33207,-5.504675 0.10553,0 0.19188,-0.204298 0.19188,-0.453994 0,-0.249697 -0.10215,-0.453994 -0.22699,-0.453994 -0.14084,0 -0.227,-1.242464 -0.227,-3.273398 0,-3.667068 -0.29908,-8.669744 -0.80011,-13.383368 -0.18418,-1.732746 -0.33454,-3.213901 -0.33412,-3.291456 4.1e-4,-0.07755 4.58542,-0.16707 10.18891,-0.198925 l 10.18816,-0.05792 0.13534,0.965906 c 0.62125,4.433711 1.04413,12.51714 1.0421,19.92015 -0.002,8.546952 -0.45917,15.597241 -1.51129,23.323941 l -0.37864,2.78071 h -10.17317 c -7.28597,0 -10.17316,-0.0713 -10.17316,-0.25127 z m 10.21487,-26.080376 c 0,-0.422135 -0.15134,-0.453994 -2.15648,-0.453994 -2.00514,0 -2.15647,0.03186 -2.15647,0.453994 0,0.422134 0.15133,0.453994 2.15647,0.453994 2.00514,0 2.15648,-0.03186 2.15648,-0.453994 z m 7.94489,0 c 0,-0.420365 -0.15133,-0.453994 -2.04297,-0.453994 -1.89165,0 -2.04298,0.03363 -2.04298,0.453994 0,0.420364 0.15133,0.453994 2.04298,0.453994 1.89164,0 2.04297,-0.03363 2.04297,-0.453994 z"
       id="path1171"
       inkscape:connector-curvature="0"
       transform="matrix(0.26458333,0,0,0.26458333,6.7424476,255.87757)" />
    <path
       style="fill:#ffe6d5;fill-opacity:1;stroke:none;stroke-width:0.15099764;stroke-linecap:round;stroke-linejoin:round;stroke-miterlimit:4;stroke-dasharray:none;stroke-dashoffset:0;stroke-opacity:1;paint-order:stroke fill markers"
       d="m 114.46011,141.42814 c 0,-0.045 0.39973,-0.94696 0.88828,-2.00444 1.11605,-2.41567 2.68869,-6.74167 3.87733,-10.66566 0.97981,-3.23461 2.81646,-11.24664 3.07708,-13.42314 0.12263,-1.02418 0.23191,-1.29044 0.48912,-1.19174 0.18217,0.0699 4.80323,0.1271 10.26903,0.1271 h 9.93782 l -0.10534,0.62424 c -0.51482,3.0507 -2.04045,10.2951 -2.68899,12.76858 -0.96396,3.67645 -2.76184,9.1277 -3.91157,11.86002 l -0.83554,1.98566 -10.49861,5.6e-4 c -5.77423,3.2e-4 -10.49861,-0.0362 -10.49861,-0.0812 z"
       id="path1173"
       inkscape:connector-curvature="0"
       transform="matrix(0.26458333,0,0,0.26458333,6.7424476,255.87757)" />
    <path
       style="fill:#ffe6d5;fill-opacity:1;stroke:none;stroke-width:0.15099764;stroke-linecap:round;stroke-linejoin:round;stroke-miterlimit:4;stroke-dasharray:none;stroke-dashoffset:0;stroke-opacity:1;paint-order:stroke fill markers"
       d="m 115.11857,158.0729 c -2.27845,-0.26631 -4.39117,-1.47386 -7.06299,-4.03689 l -1.5241,-1.46205 1.55631,-1.72984 c 1.84927,-2.05546 4.56456,-5.93314 5.54272,-7.9155 l 0.70005,-1.41873 h 10.50663 c 5.77865,0 10.50664,0.0794 10.50664,0.17652 0,0.24136 -1.48779,3.12082 -2.93965,5.68937 -2.40392,4.25287 -6.04892,8.28854 -9.10481,10.08065 l -1.45153,0.85123 -2.61563,-0.0298 c -1.43859,-0.0164 -3.28973,-0.10862 -4.11364,-0.20493 z"
       id="path1175"
       inkscape:connector-curvature="0"
       transform="matrix(0.26458333,0,0,0.26458333,6.7424476,255.87757)" />
    <path
       style="fill:#ffccaa;fill-opacity:1;stroke:#ffccaa;stroke-width:1.33333337;stroke-linecap:round;stroke-linejoin:round;stroke-miterlimit:4;stroke-dasharray:none;stroke-dashoffset:0;stroke-opacity:1;paint-order:stroke fill markers"
       d="m 104.24384,156.48563 c -3.85817,-0.80757 -3.82329,-0.79564 -2.9181,-0.99883 0.82386,-0.18494 1.02655,-0.39267 0.84493,-0.86595 -0.10482,-0.27315 -0.30581,-0.25998 -1.30597,0.0856 -1.581052,0.54629 -2.167134,0.52571 -4.70054,-0.16505 -3.78729,-1.03264 -6.464,-2.86558 -9.291687,-6.36269 C 74.847867,133.30739 69.166489,97.108881 73.810307,64.954018 c 2.93897,-20.3501 9.649708,-35.926942 17.776265,-41.261945 0.94551,-0.620718 1.847544,-1.128577 2.004521,-1.128577 0.156977,0 0.468152,-0.195763 0.6915,-0.435028 0.261204,-0.27982 1.661387,-0.762855 3.92454,-1.35389 3.306057,-0.863393 8.876947,-2.07003 9.557067,-2.07003 0.16866,0 -0.50333,0.814753 -1.49329,1.810562 l -1.79995,1.810563 -0.91869,-0.533104 c -1.32761,-0.770389 -1.86075,-0.898473 -2.01936,-0.48514 -0.0932,0.242936 0.15307,0.490532 0.82436,0.828724 1.61554,0.813906 1.62421,0.681949 -0.22626,3.443803 C 95.07679,36.108441 90.344153,52.98427 88.5264,74.0918 c -0.474046,5.504563 -0.548516,21.10007 -0.125195,26.21815 1.171426,14.16289 3.087896,24.47498 6.391281,34.39003 3.061031,9.18764 6.770424,15.96798 11.263184,20.58776 1.00821,1.03672 1.72325,1.87902 1.58898,1.87178 -0.13428,-0.007 -1.66464,-0.31049 -3.40081,-0.67389 z M 76.869421,87.938614 c 0,-0.420365 -0.151332,-0.453994 -2.042973,-0.453994 -1.891641,0 -2.042972,0.03363 -2.042972,0.453994 0,0.420364 0.151331,0.453994 2.042972,0.453994 1.891641,0 2.042973,-0.03363 2.042973,-0.453994 z m 7.944892,0 c 0,-0.420365 -0.151331,-0.453994 -2.042972,-0.453994 -1.891641,0 -2.042973,0.03363 -2.042973,0.453994 0,0.420364 0.151332,0.453994 2.042973,0.453994 1.891641,0 2.042972,-0.03363 2.042972,-0.453994 z"
       id="path1165"
       inkscape:connector-curvature="0"
       transform="matrix(0.26458333,0,0,0.26458333,6.7424476,255.87757)" />
    <path
       style="fill:none;stroke:#0000ff;stroke-width:0.52899998;stroke-linecap:round;stroke-linejoin:miter;stroke-miterlimit:4;stroke-dasharray:none;stroke-opacity:1"
       d="m 14.119824,268.91535 c 25.767862,-13.29503 32.748639,-11.5752 43.807634,6.36174"
       id="path3071"
       inkscape:connector-curvature="0"
       sodipodi:nodetypes="cc" />
    <path
       sodipodi:nodetypes="cc"
       inkscape:connector-curvature="0"
       id="path71"
       d="m 14.119824,289.36557 c 25.767862,13.29503 32.748639,11.5752 43.807634,-6.36174"
       style="fill:none;stroke:#0000ff;stroke-width:0.52899998;stroke-linecap:round;stroke-linejoin:miter;stroke-miterlimit:4;stroke-dasharray:none;stroke-opacity:1" />
    <path
       style="fill:none;fill-opacity:1;stroke:#ff0000;stroke-width:0.35277778;stroke-linecap:butt;stroke-linejoin:round;stroke-miterlimit:4;stroke-dasharray:none;stroke-dashoffset:0;stroke-opacity:1;paint-order:stroke fill markers"
       d="m 58.943069,279.10263 a 1.5943674,4.0611544 0 0 1 -1.594368,4.06115 1.5943674,4.0611544 0 0 1 -1.594367,-4.06115 1.5943674,4.0611544 0 0 1 1.594367,-4.06115 1.5943674,4.0611544 0 0 1 1.594368,4.06115 z"
       id="ellipse77"
       inkscape:connector-curvature="0" />
    <path
       inkscape:connector-curvature="0"
       id="path1135"
       d="m 57.276922,279.14046 h 4.130483"
       style="fill:none;stroke:#000000;stroke-width:0.26458332;stroke-linecap:butt;stroke-linejoin:miter;stroke-miterlimit:4;stroke-dasharray:none;stroke-dashoffset:0;stroke-opacity:1"
       sodipodi:nodetypes="cc" />
    <path
       style="fill:#ff0000;fill-opacity:1;stroke:none;stroke-width:0.28430769;stroke-linecap:round;stroke-linejoin:round;stroke-miterlimit:4;stroke-dasharray:0.07107692, 0.07107692;stroke-dashoffset:0;stroke-opacity:1;paint-order:stroke fill markers"
       d="m 57.979327,279.15067 a 0.63062584,0.63062584 0 0 1 -0.630626,0.63062 0.63062584,0.63062584 0 0 1 -0.630625,-0.63062 0.63062584,0.63062584 0 0 1 0.630625,-0.63063 0.63062584,0.63062584 0 0 1 0.630626,0.63063 z"
       id="circle983"
       inkscape:connector-curvature="0" />
    <path
       sodipodi:nodetypes="cc"
       inkscape:connector-curvature="0"
       id="path89"
       d="m 10.147419,278.33559 -11.6791386,7.98844"
       style="fill:none;stroke:#000000;stroke-width:0.176;stroke-linecap:butt;stroke-linejoin:miter;stroke-miterlimit:4;stroke-dasharray:none;stroke-opacity:1;marker-end:url(#Arrow1Lend)" />
    <g
       aria-label="z"
       style="font-style:italic;font-variant:normal;font-weight:normal;font-stretch:normal;font-size:4.93888855px;line-height:4.93888855px;font-family:'GOST type B';-inkscape-font-specification:'GOST type B Italic';text-align:start;letter-spacing:0px;word-spacing:0px;text-anchor:start;fill:#000000;fill-opacity:1;stroke:none;stroke-width:0.26458332"
       id="text93"
       transform="matrix(0.85890449,0,0,0.85890449,-0.24153195,39.983916)">
      <path
         d="m 0.36539299,281.28145 -1.52652169,1.76286 h 1.03215052 q 0.06993544,0 0.1085205,0.053 0.03858507,0.0507 0.02652724,0.11576 -0.01205784,0.0579 -0.0651123,0.11334 -0.05305447,0.0555 -0.1374593,0.0555 H -1.5469794 q -0.1881022,0 -0.1615749,-0.13505 0.00965,-0.0506 0.072347,-0.12781 l 1.52652166,-1.76286 H -1.1418362 q -0.07717,0 -0.1157552,-0.0482 -0.033762,-0.0506 -0.019293,-0.12058 0.012058,-0.0603 0.067524,-0.11334 0.055466,-0.0555 0.1350477,-0.0555 h 1.35047732 q 0.1881022,0 0.16157497,0.13505 -0.009646,0.0506 -0.072347,0.12781 z"
         style="stroke-width:0.26458332"
         id="path95"
         inkscape:connector-curvature="0" />
    </g>
  </g>
</svg>
