<?xml version="1.0" encoding="UTF-8" standalone="no"?>
<!-- Created with Inkscape (http://www.inkscape.org/) -->

<svg
   xmlns:dc="http://purl.org/dc/elements/1.1/"
   xmlns:cc="http://creativecommons.org/ns#"
   xmlns:rdf="http://www.w3.org/1999/02/22-rdf-syntax-ns#"
   xmlns:svg="http://www.w3.org/2000/svg"
   xmlns="http://www.w3.org/2000/svg"
   xmlns:sodipodi="http://sodipodi.sourceforge.net/DTD/sodipodi-0.dtd"
   xmlns:inkscape="http://www.inkscape.org/namespaces/inkscape"
   width="192.97638"
   height="97.437012"
   viewBox="0 0 51.058333 25.78021"
   version="1.1"
   id="svg8"
   inkscape:version="0.92.4 (5da689c313, 2019-01-14)"
   sodipodi:docname="14-07.svg">
  <defs
     id="defs2" />
  <sodipodi:namedview
     id="base"
     pagecolor="#ffffff"
     bordercolor="#666666"
     borderopacity="1.0"
     inkscape:pageopacity="0.0"
     inkscape:pageshadow="2"
     inkscape:zoom="7.5125457"
     inkscape:cx="96.48819"
     inkscape:cy="48.718506"
     inkscape:document-units="mm"
     inkscape:current-layer="layer1"
     showgrid="false"
     fit-margin-left="2"
     units="px"
     fit-margin-top="2"
     fit-margin-bottom="2"
     fit-margin-right="2"
     inkscape:window-width="1920"
     inkscape:window-height="1009"
     inkscape:window-x="0"
     inkscape:window-y="0"
     inkscape:window-maximized="1" />
  <metadata
     id="metadata5">
    <rdf:RDF>
      <cc:Work
         rdf:about="">
        <dc:format>image/svg+xml</dc:format>
        <dc:type
           rdf:resource="http://purl.org/dc/dcmitype/StillImage" />
        <dc:title></dc:title>
      </cc:Work>
    </rdf:RDF>
  </metadata>
  <g
     inkscape:label="Layer 1"
     inkscape:groupmode="layer"
     id="layer1"
     transform="translate(273.45191,-41.625461)">
    <g
       aria-label=""
       transform="matrix(0.65933688,-0.19873872,0.26915492,1.4355461,0,0)"
       style="font-style:italic;font-variant:normal;font-weight:normal;font-stretch:normal;font-size:9.53253269px;line-height:9.53253269px;font-family:'GOST type B';-inkscape-font-specification:'GOST type B Italic';text-align:start;letter-spacing:0px;word-spacing:0px;text-anchor:start;fill:#000000;fill-opacity:1;stroke:none;stroke-width:0.51067138"
       id="text12">
      <path
         d="m -394.82304,-20.699847 q 0.59578,-2.564661 0.66094,-2.783425 0.27928,-0.865747 0.60975,-1.168294 0.33047,-0.3072 0.67026,-0.3072 0.23273,0 0.37236,0.158254 0.14429,0.153601 0.10706,0.339783 -0.0419,0.218764 -0.19549,0.353746 -0.14895,0.130328 -0.33048,0.130328 -0.16291,0 -0.31651,-0.167564 -0.0884,-0.09309 -0.16756,-0.09309 -0.0791,0 -0.14895,0.06982 -0.0652,0.06516 -0.0977,0.228074 -0.0419,0.195491 -0.0931,0.67491 -0.20946,1.908369 -0.44684,3.095281 -0.0652,0.311855 -0.62371,2.736879 -0.31186,1.373094 -0.79128,1.857168 -0.31185,0.311856 -0.68422,0.311856 -0.24203,0 -0.36305,-0.158255 -0.12102,-0.158255 -0.0745,-0.404947 0.0419,-0.209455 0.18619,-0.335128 0.14429,-0.125673 0.32582,-0.125673 0.18618,0 0.28858,0.148946 0.10705,0.148946 0.20014,0.148946 0.0791,0 0.1443,-0.06516 0.0652,-0.06516 0.0931,-0.218764 0.0419,-0.195492 0.0698,-0.558547 0.12102,-1.466185 0.6051,-3.867937 z"
         style="font-style:italic;font-variant:normal;font-weight:normal;font-stretch:normal;font-family:Symbol;-inkscape-font-specification:'Symbol Italic';stroke-width:0.51067138"
         id="path34" />
    </g>
    <g
       aria-label=""
       transform="matrix(0.68719942,-0.04448777,-0.0624523,1.4592247,0,0)"
       style="font-style:italic;font-variant:normal;font-weight:normal;font-stretch:normal;font-size:9.53253269px;line-height:9.53253269px;font-family:'GOST type B';-inkscape-font-specification:'GOST type B Italic';text-align:start;letter-spacing:0px;word-spacing:0px;text-anchor:start;fill:#000000;fill-opacity:1;stroke:none;stroke-width:0.51067138"
       id="text20">
      <path
         d="m -340.25215,22.99942 q 0.59578,-2.564661 0.66095,-2.783425 0.27927,-0.865748 0.60974,-1.168294 0.33048,-0.307201 0.67026,-0.307201 0.23273,0 0.37236,0.158255 0.1443,0.1536 0.10706,0.339783 -0.0419,0.218764 -0.19549,0.353746 -0.14895,0.130327 -0.33048,0.130327 -0.16291,0 -0.31651,-0.167564 -0.0884,-0.09309 -0.16756,-0.09309 -0.0791,0 -0.14895,0.06982 -0.0652,0.06516 -0.0977,0.228073 -0.0419,0.195491 -0.0931,0.674911 -0.20946,1.908368 -0.44684,3.09528 -0.0652,0.311855 -0.62371,2.73688 -0.31186,1.373094 -0.79128,1.857168 -0.31185,0.311855 -0.68422,0.311855 -0.24203,0 -0.36305,-0.158255 -0.12102,-0.158255 -0.0745,-0.404946 0.0419,-0.209455 0.18618,-0.335128 0.14429,-0.125673 0.32582,-0.125673 0.18618,0 0.28858,0.148945 0.10705,0.148946 0.20015,0.148946 0.0791,0 0.14429,-0.06516 0.0652,-0.06516 0.0931,-0.218764 0.0419,-0.195491 0.0698,-0.558547 0.12102,-1.466185 0.60509,-3.867936 z"
         style="font-style:italic;font-variant:normal;font-weight:normal;font-stretch:normal;font-family:Symbol;-inkscape-font-specification:'Symbol Italic';stroke-width:0.51067138"
         id="path37" />
    </g>
    <g
       aria-label="Русский
интеграл"
       style="font-style:italic;font-variant:normal;font-weight:normal;font-stretch:normal;font-size:3.51052117px;line-height:2.63289094px;font-family:'GOST type B';-inkscape-font-specification:'GOST type B Italic';text-align:center;letter-spacing:0px;word-spacing:0px;text-anchor:middle;fill:#000000;fill-opacity:1;stroke:none;stroke-width:0.43881515"
       id="text24">
      <path
         d="m -271.4622,61.60019 q 0.0948,0.01053 0.17904,0.03511 0.0842,0.02106 0.15797,0.04915 v 0.101805 h -0.96188 v -0.101805 q 0.0702,-0.0351 0.14393,-0.05266 0.0737,-0.01755 0.14393,-0.03159 v -2.081739 q -0.0807,-0.01404 -0.15095,-0.03511 -0.0702,-0.02457 -0.13691,-0.05266 v -0.101806 h 0.31594 q 0.14043,0 0.30542,-0.01404 0.16499,-0.01404 0.31595,-0.01404 0.17201,0 0.33701,0.03862 0.16499,0.03511 0.29137,0.122868 0.12989,0.08776 0.20712,0.235205 0.0807,0.143932 0.0807,0.361584 0,0.207121 -0.0807,0.354562 -0.0807,0.147442 -0.21765,0.242226 -0.1334,0.09479 -0.30542,0.140421 -0.17201,0.04213 -0.35456,0.04213 -0.0175,0 -0.0562,0 -0.0351,0 -0.0772,0 -0.0421,-0.0035 -0.0807,-0.007 -0.0386,-0.0035 -0.0562,-0.007 z m 0.23872,-2.116845 q -0.0843,0 -0.13691,0.0035 -0.0527,0.0035 -0.10181,0.01404 v 1.137409 q 0.0175,0.007 0.0491,0.01053 0.0351,0 0.0702,0.0035 0.0386,0.0035 0.0737,0.0035 0.0351,0 0.0562,0 0.12287,0 0.23169,-0.03159 0.10883,-0.03511 0.18957,-0.108826 0.0842,-0.07372 0.1334,-0.186058 0.0491,-0.112337 0.0491,-0.27031 0,-0.287863 -0.165,-0.431794 -0.16148,-0.143932 -0.44934,-0.143932 z"
         style="font-style:normal;font-variant:normal;font-weight:normal;font-stretch:normal;line-height:4.38815165px;font-family:'PT Serif';-inkscape-font-specification:'PT Serif';text-align:center;text-anchor:middle;stroke-width:0.43881515"
         id="path40" />
      <path
         d="m -269.94335,60.206513 q -0.0527,-0.01404 -0.0983,-0.03511 -0.0421,-0.02106 -0.0878,-0.04915 v -0.09127 h 0.7337 v 0.08776 q -0.0737,0.04915 -0.2001,0.08776 l 0.44935,1.039114 0.0667,0.217652 h 0.007 l 0.0527,-0.221163 0.3335,-1.035603 q -0.10532,-0.02106 -0.19308,-0.08425 v -0.09127 h 0.6003 v 0.09127 q -0.0737,0.04915 -0.2001,0.08425 l -0.54764,1.579734 q -0.0843,0.224674 -0.16149,0.361584 -0.0737,0.140421 -0.15095,0.221163 -0.0737,0.08074 -0.15446,0.115847 -0.0772,0.03862 -0.16851,0.05617 -0.0386,-0.0667 -0.0702,-0.147442 -0.0281,-0.08074 -0.0492,-0.154463 l 0.0456,-0.08425 h 0.36509 q 0.0211,-0.02808 0.0351,-0.05617 0.0175,-0.02457 0.0351,-0.06319 0.0176,-0.03862 0.0386,-0.09829 0.0211,-0.05968 0.0491,-0.150953 z"
         style="font-style:normal;font-variant:normal;font-weight:normal;font-stretch:normal;line-height:4.38815165px;font-family:'PT Serif';-inkscape-font-specification:'PT Serif';text-align:center;text-anchor:middle;stroke-width:0.43881515"
         id="path42" />
      <path
         d="m -266.85711,61.540511 q -0.0632,0.122868 -0.20712,0.207121 -0.14042,0.08074 -0.32999,0.08074 -0.20712,0 -0.36158,-0.06319 -0.15095,-0.0667 -0.25276,-0.186057 -0.1018,-0.122869 -0.15446,-0.291374 -0.0491,-0.172015 -0.0491,-0.379136 0,-0.445836 0.21765,-0.681041 0.21765,-0.238716 0.59328,-0.238716 0.17202,0 0.30542,0.03159 0.13691,0.02808 0.23169,0.07723 -0.0105,0.115847 -0.0386,0.259778 -0.0281,0.143932 -0.0702,0.238716 h -0.0948 l -0.14744,-0.417752 q -0.0246,-0.01755 -0.0562,-0.02457 -0.0316,-0.01053 -0.10532,-0.01053 -0.23871,0 -0.3686,0.175526 -0.12989,0.172016 -0.12989,0.586257 0,0.1334 0.0351,0.259779 0.0386,0.126379 0.11233,0.228184 0.0772,0.09829 0.18957,0.157973 0.11585,0.05968 0.2668,0.05968 0.12287,0 0.21414,-0.03511 0.0913,-0.0351 0.15446,-0.08425 z"
         style="font-style:normal;font-variant:normal;font-weight:normal;font-stretch:normal;line-height:4.38815165px;font-family:'PT Serif';-inkscape-font-specification:'PT Serif';text-align:center;text-anchor:middle;stroke-width:0.43881515"
         id="path44" />
      <path
         d="m -265.28012,61.540511 q -0.0632,0.122868 -0.20712,0.207121 -0.14042,0.08074 -0.32999,0.08074 -0.20712,0 -0.36158,-0.06319 -0.15095,-0.0667 -0.25276,-0.186057 -0.1018,-0.122869 -0.15446,-0.291374 -0.0491,-0.172015 -0.0491,-0.379136 0,-0.445836 0.21765,-0.681041 0.21766,-0.238716 0.59328,-0.238716 0.17202,0 0.30542,0.03159 0.13691,0.02808 0.23169,0.07723 -0.0105,0.115847 -0.0386,0.259778 -0.0281,0.143932 -0.0702,0.238716 h -0.0948 l -0.14744,-0.417752 q -0.0246,-0.01755 -0.0562,-0.02457 -0.0316,-0.01053 -0.10531,-0.01053 -0.23872,0 -0.36861,0.175526 -0.12989,0.172016 -0.12989,0.586257 0,0.1334 0.0351,0.259779 0.0386,0.126379 0.11233,0.228184 0.0772,0.09829 0.18957,0.157973 0.11585,0.05968 0.2668,0.05968 0.12287,0 0.21414,-0.03511 0.0913,-0.0351 0.15447,-0.08425 z"
         style="font-style:normal;font-variant:normal;font-weight:normal;font-stretch:normal;line-height:4.38815165px;font-family:'PT Serif';-inkscape-font-specification:'PT Serif';text-align:center;text-anchor:middle;stroke-width:0.43881515"
         id="path46" />
      <path
         d="m -263.99949,60.030987 h 0.67753 v 0.09127 q -0.0351,0.02808 -0.0948,0.04915 -0.0562,0.02106 -0.14042,0.04915 -0.11936,0.143931 -0.25276,0.291373 -0.1334,0.147442 -0.28084,0.294884 0.0772,0.08425 0.16148,0.186057 0.0878,0.101806 0.17553,0.210632 0.0878,0.108826 0.17552,0.214142 0.0878,0.105315 0.17202,0.196589 l 0.16499,0.08425 v 0.08776 h -0.41073 l -0.11233,-0.08074 q -0.15798,-0.189568 -0.28787,-0.379136 -0.12989,-0.189568 -0.26329,-0.372115 h -0.14042 v 0.659978 q 0.0702,0.01755 0.12638,0.03862 0.0597,0.01755 0.10181,0.04564 v 0.08776 h -0.77583 v -0.08776 q 0.0948,-0.05617 0.2317,-0.08425 v -1.407719 q -0.12287,-0.02457 -0.2317,-0.08425 v -0.09127 h 0.71966 v 0.09127 q -0.0351,0.02457 -0.0772,0.04564 -0.0386,0.02106 -0.0948,0.03862 v 0.656467 l 0.16149,-0.03511 q 0.14042,-0.161484 0.2668,-0.301905 0.12638,-0.140421 0.2352,-0.305415 -0.0597,-0.02457 -0.11234,-0.04564 -0.0491,-0.02457 -0.0948,-0.05266 z"
         style="font-style:normal;font-variant:normal;font-weight:normal;font-stretch:normal;line-height:4.38815165px;font-family:'PT Serif';-inkscape-font-specification:'PT Serif';text-align:center;text-anchor:middle;stroke-width:0.43881515"
         id="path48" />
      <path
         d="m -263.10425,60.030987 h 0.74423 v 0.09127 q -0.0386,0.02106 -0.0913,0.04213 -0.0491,0.02106 -0.11935,0.04213 v 0.961883 l -0.0386,0.326478 h 0.0175 l 0.13691,-0.263289 0.75126,-1.200598 h 0.47392 v 0.09127 q -0.11234,0.06319 -0.2317,0.08425 v 1.407719 q 0.0667,0.01755 0.12638,0.03862 0.0597,0.01755 0.10532,0.04564 v 0.08776 h -0.74423 v -0.08776 q 0.0983,-0.05617 0.21063,-0.08425 v -1.004009 l 0.0351,-0.277332 h -0.0175 l -0.1334,0.26329 -0.74423,1.190066 h -0.48094 v -0.08776 q 0.0597,-0.02808 0.11585,-0.04564 0.0562,-0.02106 0.11584,-0.03862 v -1.407719 q -0.13691,-0.02106 -0.23169,-0.08425 z"
         style="font-style:normal;font-variant:normal;font-weight:normal;font-stretch:normal;line-height:4.38815165px;font-family:'PT Serif';-inkscape-font-specification:'PT Serif';text-align:center;text-anchor:middle;stroke-width:0.43881515"
         id="path50" />
      <path
         d="m -260.95817,60.030987 h 0.74423 v 0.09127 q -0.0386,0.02106 -0.0913,0.04213 -0.0491,0.02106 -0.11936,0.04213 v 0.961883 l -0.0386,0.326478 h 0.0176 l 0.13691,-0.263289 0.75125,-1.200598 h 0.47392 v 0.09127 q -0.11234,0.06319 -0.2317,0.08425 v 1.407719 q 0.0667,0.01755 0.12638,0.03862 0.0597,0.01755 0.10532,0.04564 v 0.08776 h -0.74423 v -0.08776 q 0.0983,-0.05617 0.21063,-0.08425 v -1.004009 l 0.0351,-0.277332 h -0.0176 l -0.1334,0.26329 -0.74423,1.190066 h -0.48094 v -0.08776 q 0.0597,-0.02808 0.11585,-0.04564 0.0562,-0.02106 0.11584,-0.03862 v -1.407719 q -0.13691,-0.02106 -0.23169,-0.08425 z m 0.97241,-0.210632 q -0.17552,0 -0.28786,-0.03511 -0.11234,-0.03862 -0.17904,-0.09829 -0.0667,-0.05968 -0.0948,-0.136911 -0.0246,-0.08074 -0.0246,-0.161484 0.0562,-0.04564 0.12286,-0.0667 0.0667,-0.02106 0.14043,-0.02808 l 0.0878,0.04564 v 0.312436 q 0.0491,0.02106 0.11585,0.03159 0.0667,0.007 0.12286,0.007 0.0351,0 0.11234,-0.007 0.0772,-0.007 0.12638,-0.02106 v -0.322968 l 0.0878,-0.04564 q 0.0737,0.007 0.13691,0.0316 0.0667,0.02457 0.10883,0.06319 0,0.08074 -0.0281,0.161484 -0.0281,0.07723 -0.0948,0.136911 -0.0632,0.05968 -0.17553,0.09829 -0.10882,0.03511 -0.27733,0.03511 z"
         style="font-style:normal;font-variant:normal;font-weight:normal;font-stretch:normal;line-height:4.38815165px;font-family:'PT Serif';-inkscape-font-specification:'PT Serif';text-align:center;text-anchor:middle;stroke-width:0.43881515"
         id="path52" />
      <path
         d="m -272.92274,64.419138 h 0.74423 v 0.09127 q -0.0386,0.02106 -0.0913,0.04213 -0.0491,0.02106 -0.11936,0.04213 v 0.961883 l -0.0386,0.326478 h 0.0176 l 0.13691,-0.263289 0.75125,-1.200598 h 0.47392 v 0.09127 q -0.11234,0.06319 -0.2317,0.08425 v 1.407719 q 0.0667,0.01755 0.12638,0.03862 0.0597,0.01755 0.10532,0.04564 v 0.08776 h -0.74423 v -0.08776 q 0.0983,-0.05617 0.21063,-0.08425 v -1.004009 l 0.0351,-0.277331 h -0.0175 l -0.1334,0.263289 -0.74423,1.190067 h -0.48094 v -0.08776 q 0.0597,-0.02808 0.11585,-0.04564 0.0562,-0.02106 0.11584,-0.03862 v -1.407719 q -0.13691,-0.02106 -0.23169,-0.08425 z"
         style="font-style:normal;font-variant:normal;font-weight:normal;font-stretch:normal;line-height:4.38815165px;font-family:'PT Serif';-inkscape-font-specification:'PT Serif';text-align:center;text-anchor:middle;stroke-width:0.43881515"
         id="path54" />
      <path
         d="m -270.0219,66.174399 h -0.75476 v -0.08776 q 0.0491,-0.02808 0.10883,-0.04564 0.0597,-0.02106 0.12286,-0.03862 v -1.407719 q -0.0632,-0.01755 -0.12286,-0.03511 -0.0597,-0.02106 -0.10883,-0.04915 v -0.09127 h 0.75476 v 0.09127 q -0.0807,0.04915 -0.20712,0.08425 v 0.614341 h 0.77934 v -0.614341 q -0.12287,-0.02106 -0.21063,-0.08425 v -0.09127 h 0.75827 v 0.09127 q -0.0948,0.05968 -0.2317,0.08425 v 1.407719 q 0.0632,0.01404 0.12287,0.0316 0.0597,0.01755 0.10883,0.05266 v 0.08776 h -0.75827 v -0.08776 q 0.0878,-0.06319 0.21063,-0.08425 v -0.638915 h -0.77934 v 0.638915 q 0.0702,0.01404 0.11936,0.03511 0.0491,0.02106 0.0878,0.04915 z"
         style="font-style:normal;font-variant:normal;font-weight:normal;font-stretch:normal;line-height:4.38815165px;font-family:'PT Serif';-inkscape-font-specification:'PT Serif';text-align:center;text-anchor:middle;stroke-width:0.43881515"
         id="path56" />
      <path
         d="m -267.50721,66.174399 h -0.77934 v -0.08776 q 0.10883,-0.05617 0.2317,-0.08425 v -1.428782 h -0.32648 l -0.15447,0.421263 h -0.0913 q -0.0175,-0.150953 -0.0281,-0.294884 -0.0105,-0.147442 -0.014,-0.280842 h 1.54463 q -0.004,0.126379 -0.014,0.277331 -0.007,0.147442 -0.0281,0.298395 h -0.0913 l -0.15446,-0.421263 h -0.32648 v 1.428782 q 0.165,0.04213 0.2317,0.08425 z"
         style="font-style:normal;font-variant:normal;font-weight:normal;font-stretch:normal;line-height:4.38815165px;font-family:'PT Serif';-inkscape-font-specification:'PT Serif';text-align:center;text-anchor:middle;stroke-width:0.43881515"
         id="path58" />
      <path
         d="m -265.46711,65.928662 q -0.0281,0.05968 -0.0878,0.112337 -0.0597,0.05266 -0.13691,0.09127 -0.0772,0.03862 -0.16851,0.05968 -0.0913,0.02457 -0.18605,0.02457 -0.20712,0 -0.3651,-0.06319 -0.15797,-0.0667 -0.26329,-0.186058 -0.10531,-0.122868 -0.16148,-0.291373 -0.0527,-0.168505 -0.0527,-0.379137 0,-0.449346 0.20712,-0.684551 0.20712,-0.235205 0.58626,-0.235205 0.12287,0 0.24223,0.03511 0.11935,0.0316 0.21063,0.108826 0.0948,0.07723 0.15095,0.207121 0.0597,0.126379 0.0597,0.315947 0,0.05968 -0.007,0.122868 -0.004,0.05968 -0.0176,0.129889 h -1.09528 q 0,0.147442 0.0351,0.277332 0.0386,0.126378 0.11233,0.221162 0.0737,0.09479 0.18606,0.150953 0.11234,0.05266 0.26329,0.05266 0.12287,0 0.24925,-0.03511 0.12638,-0.03511 0.18957,-0.09127 z m -0.64242,-1.397187 q -0.2001,0 -0.30542,0.13691 -0.10531,0.1334 -0.12638,0.47392 h 0.77232 q 0.004,-0.03159 0.004,-0.05968 0.004,-0.03159 0.004,-0.05968 0,-0.224674 -0.0842,-0.358073 -0.0843,-0.1334 -0.26329,-0.1334 z"
         style="font-style:normal;font-variant:normal;font-weight:normal;font-stretch:normal;line-height:4.38815165px;font-family:'PT Serif';-inkscape-font-specification:'PT Serif';text-align:center;text-anchor:middle;stroke-width:0.43881515"
         id="path60" />
      <path
         d="m -263.81749,64.419138 q -0.004,0.13691 -0.014,0.284352 -0.007,0.147442 -0.0281,0.291374 h -0.0913 l -0.15446,-0.421263 h -0.47392 v 1.428782 q 0.2001,0.03862 0.31594,0.08425 v 0.08776 h -0.86359 v -0.08776 q 0.0597,-0.03511 0.11585,-0.05266 0.0562,-0.01755 0.11585,-0.0316 v -1.411229 q -0.12989,-0.02106 -0.2317,-0.08074 v -0.09127 z"
         style="font-style:normal;font-variant:normal;font-weight:normal;font-stretch:normal;line-height:4.38815165px;font-family:'PT Serif';-inkscape-font-specification:'PT Serif';text-align:center;text-anchor:middle;stroke-width:0.43881515"
         id="path62" />
      <path
         d="m -262.86038,66.876503 h -0.77934 v -0.08776 q 0.11936,-0.05617 0.2317,-0.08425 v -2.081739 l -0.2317,-0.02808 v -0.09127 q 0.11234,-0.04915 0.22819,-0.07723 0.11936,-0.03159 0.23169,-0.04915 h 0.0878 v 0.393178 h 0.004 q 0.0702,-0.179036 0.19658,-0.284352 0.12638,-0.108826 0.32999,-0.108826 0.31244,0 0.48446,0.207121 0.17201,0.20712 0.17201,0.67402 0,0.221163 -0.0597,0.400199 -0.0562,0.179037 -0.16499,0.301905 -0.10532,0.122868 -0.25978,0.189568 -0.15095,0.0667 -0.33701,0.0667 -0.12989,0 -0.20361,-0.01755 -0.0737,-0.01404 -0.16148,-0.05266 v 0.558172 q 0.0562,0.007 0.11233,0.02457 0.0562,0.02106 0.11936,0.05968 z m 0.18606,-2.281839 q -0.17202,0 -0.27382,0.108826 -0.10181,0.108827 -0.14393,0.298395 v 0.982946 q 0.0632,0.03862 0.14042,0.05968 0.0807,0.01755 0.20712,0.01755 0.11584,0 0.20712,-0.05968 0.0948,-0.05968 0.15797,-0.168505 0.0667,-0.108826 0.10181,-0.252757 0.0351,-0.147442 0.0351,-0.322968 0,-0.143932 -0.0246,-0.263289 -0.0211,-0.122869 -0.0737,-0.210632 -0.0491,-0.09127 -0.1334,-0.140421 -0.0808,-0.04915 -0.2001,-0.04915 z"
         style="font-style:normal;font-variant:normal;font-weight:normal;font-stretch:normal;line-height:4.38815165px;font-family:'PT Serif';-inkscape-font-specification:'PT Serif';text-align:center;text-anchor:middle;stroke-width:0.43881515"
         id="path64" />
      <path
         d="m -260.32085,65.71452 q 0,0.07723 0.004,0.1334 0.004,0.05617 0.007,0.119358 l 0.24223,0.03511 v 0.07372 q -0.0878,0.04564 -0.19659,0.08074 -0.10531,0.03511 -0.20361,0.05266 h -0.0878 q -0.0351,-0.08074 -0.0421,-0.175526 -0.007,-0.0983 -0.0105,-0.214142 h -0.0176 q -0.014,0.07021 -0.0562,0.143931 -0.0386,0.07021 -0.10532,0.126379 -0.0632,0.05617 -0.15095,0.09127 -0.0878,0.03511 -0.2001,0.03511 -0.21414,0 -0.35105,-0.129889 -0.1334,-0.12989 -0.1334,-0.340521 0,-0.161484 0.0632,-0.263289 0.0667,-0.105316 0.19308,-0.164994 0.12638,-0.05968 0.31243,-0.08425 0.18606,-0.02808 0.4318,-0.04213 0.014,-0.150953 0.007,-0.27031 -0.004,-0.122869 -0.0386,-0.207121 -0.0316,-0.08776 -0.0983,-0.1334 -0.0632,-0.04915 -0.16851,-0.04915 -0.0491,0 -0.11233,0.007 -0.0597,0.0035 -0.11936,0.02808 l -0.165,0.421263 h -0.0913 q -0.0351,-0.105316 -0.0632,-0.217653 -0.0246,-0.112336 -0.0316,-0.221163 0.1334,-0.08074 0.29488,-0.126378 0.165,-0.04564 0.3651,-0.04564 0.17903,0 0.28435,0.05266 0.10882,0.04915 0.16499,0.129889 0.0562,0.08074 0.0737,0.179037 0.0176,0.09829 0.0176,0.196589 0,0.210631 -0.0105,0.40722 -0.007,0.193079 -0.007,0.372115 z m -0.67753,0.284353 q 0.0878,0 0.15447,-0.03511 0.0667,-0.03511 0.11233,-0.08425 0.0456,-0.04915 0.0737,-0.09829 0.0281,-0.05266 0.0386,-0.08776 v -0.368604 q -0.20361,0 -0.3335,0.02106 -0.12989,0.02106 -0.20361,0.0667 -0.0737,0.04564 -0.10181,0.115847 -0.0281,0.0667 -0.0281,0.154463 0,0.150952 0.0772,0.235205 0.0772,0.08074 0.21063,0.08074 z"
         style="font-style:normal;font-variant:normal;font-weight:normal;font-stretch:normal;line-height:4.38815165px;font-family:'PT Serif';-inkscape-font-specification:'PT Serif';text-align:center;text-anchor:middle;stroke-width:0.43881515"
         id="path66" />
      <path
         d="m -259.62275,65.872494 q 0.0491,-0.08425 0.0878,-0.224673 0.0386,-0.140421 0.0632,-0.308926 0.0281,-0.168505 0.0421,-0.351052 0.014,-0.186058 0.014,-0.358074 -0.0702,-0.02106 -0.12989,-0.05266 -0.0562,-0.03159 -0.10531,-0.0667 v -0.09127 h 1.4358 v 0.09127 q -0.11233,0.06319 -0.23169,0.08425 v 1.407719 q 0.0737,0.01755 0.12989,0.03862 0.0562,0.02106 0.1018,0.04564 v 0.08776 h -0.75476 v -0.08776 q 0.0842,-0.05968 0.20712,-0.08425 v -1.428782 h -0.46339 q -0.004,0.186058 -0.0211,0.396689 -0.0176,0.207121 -0.0527,0.410731 -0.0351,0.2001 -0.0913,0.379136 -0.0562,0.175526 -0.13691,0.294884 -0.0667,0.101805 -0.14393,0.140421 -0.0772,0.04213 -0.14394,0.02808 -0.0526,-0.05968 -0.1018,-0.154463 -0.0456,-0.0983 -0.0527,-0.179036 l 0.0491,-0.08776 z"
         style="font-style:normal;font-variant:normal;font-weight:normal;font-stretch:normal;line-height:4.38815165px;font-family:'PT Serif';-inkscape-font-specification:'PT Serif';text-align:center;text-anchor:middle;stroke-width:0.43881515"
         id="path68" />
    </g>
    <g
       aria-label="Американский
интеграл"
       style="font-style:italic;font-variant:normal;font-weight:normal;font-stretch:normal;font-size:3.51052117px;line-height:2.63289094px;font-family:'GOST type B';-inkscape-font-specification:'GOST type B Italic';text-align:center;letter-spacing:0px;word-spacing:0px;text-anchor:middle;fill:#000000;fill-opacity:1;stroke:none;stroke-width:0.43881515"
       id="text32">
      <path
         d="m -246.54136,61.786247 h -0.77934 v -0.101805 q 0.12638,-0.05617 0.25276,-0.08425 l 0.88816,-2.313434 h 0.10181 l 0.88816,2.313434 q 0.0702,0.01404 0.13691,0.03159 0.0702,0.01755 0.12989,0.05266 v 0.101805 h -0.8987 v -0.101805 q 0.0702,-0.02808 0.14394,-0.04915 0.0737,-0.02106 0.14393,-0.03511 l -0.23872,-0.642426 h -0.83901 l -0.2317,0.642426 q 0.14744,0.02106 0.30191,0.08425 z m 0,-1.01103 h 0.70912 l -0.27733,-0.74423 -0.0667,-0.301905 h -0.007 l -0.0878,0.308926 z"
         style="font-style:normal;font-variant:normal;font-weight:normal;font-stretch:normal;line-height:4.38815165px;font-family:'PT Serif';-inkscape-font-specification:'PT Serif';text-align:center;text-anchor:middle;stroke-width:0.43881515"
         id="path71" />
      <path
         d="m -244.19425,61.786247 h -0.61785 v -0.08776 q 0.11585,-0.05617 0.23169,-0.08425 l 0.0527,-1.372614 q -0.0737,-0.02808 -0.12989,-0.05968 -0.0562,-0.0316 -0.1018,-0.05968 v -0.09127 h 0.68455 l 0.36158,1.025072 0.0667,0.242226 h 0.0105 l 0.0737,-0.245737 0.37563,-1.021561 h 0.66349 v 0.09127 q -0.0456,0.02808 -0.10181,0.04915 -0.0562,0.02106 -0.12989,0.03511 l 0.0702,1.407719 q 0.11585,0.02106 0.2317,0.08425 v 0.08776 h -0.74423 v -0.08776 q 0.0351,-0.01755 0.0842,-0.03862 0.0491,-0.02106 0.12638,-0.04564 l -0.0702,-1.421761 h -0.0281 l -0.57572,1.593776 h -0.0948 l -0.56871,-1.593776 h -0.0281 l -0.0527,1.421761 q 0.12638,0.03862 0.21063,0.08425 z"
         style="font-style:normal;font-variant:normal;font-weight:normal;font-stretch:normal;line-height:4.38815165px;font-family:'PT Serif';-inkscape-font-specification:'PT Serif';text-align:center;text-anchor:middle;stroke-width:0.43881515"
         id="path73" />
      <path
         d="m -240.7772,61.540511 q -0.0281,0.05968 -0.0878,0.112336 -0.0597,0.05266 -0.13691,0.09127 -0.0772,0.03862 -0.1685,0.05968 -0.0913,0.02457 -0.18606,0.02457 -0.20712,0 -0.3651,-0.06319 -0.15797,-0.0667 -0.26329,-0.186057 -0.10531,-0.122869 -0.16148,-0.291374 -0.0527,-0.168505 -0.0527,-0.379136 0,-0.449347 0.20712,-0.684552 0.20712,-0.235205 0.58626,-0.235205 0.12287,0 0.24223,0.03511 0.11935,0.03159 0.21063,0.108826 0.0948,0.07723 0.15095,0.207121 0.0597,0.126378 0.0597,0.315946 0,0.05968 -0.007,0.122869 -0.004,0.05968 -0.0176,0.129889 h -1.09528 q 0,0.147442 0.0351,0.277331 0.0386,0.126379 0.11233,0.221163 0.0737,0.09478 0.18606,0.150952 0.11234,0.05266 0.26329,0.05266 0.12287,0 0.24925,-0.03511 0.12638,-0.0351 0.18957,-0.09127 z m -0.64242,-1.397188 q -0.2001,0 -0.30542,0.136911 -0.10531,0.133399 -0.12638,0.47392 h 0.77232 q 0.004,-0.0316 0.004,-0.05968 0.004,-0.03159 0.004,-0.05968 0,-0.224673 -0.0842,-0.358073 -0.0843,-0.1334 -0.26329,-0.1334 z"
         style="font-style:normal;font-variant:normal;font-weight:normal;font-stretch:normal;line-height:4.38815165px;font-family:'PT Serif';-inkscape-font-specification:'PT Serif';text-align:center;text-anchor:middle;stroke-width:0.43881515"
         id="path75" />
      <path
         d="m -239.68575,62.488351 h -0.77934 v -0.08776 q 0.11936,-0.05617 0.2317,-0.08425 v -2.081739 l -0.2317,-0.02808 v -0.09127 q 0.11234,-0.04915 0.22818,-0.07723 0.11936,-0.03159 0.2317,-0.04915 h 0.0878 v 0.393179 h 0.004 q 0.0702,-0.179037 0.19659,-0.284352 0.12638,-0.108827 0.32999,-0.108827 0.31244,0 0.48445,0.207121 0.17202,0.207121 0.17202,0.67402 0,0.221163 -0.0597,0.4002 -0.0562,0.179036 -0.16499,0.301904 -0.10532,0.122869 -0.25978,0.189569 -0.15096,0.0667 -0.33701,0.0667 -0.12989,0 -0.20361,-0.01755 -0.0737,-0.01404 -0.16149,-0.05266 v 0.558173 q 0.0562,0.007 0.11234,0.02457 0.0562,0.02106 0.11936,0.05968 z m 0.18605,-2.281838 q -0.17201,0 -0.27382,0.108826 -0.1018,0.108826 -0.14393,0.298394 v 0.982946 q 0.0632,0.03862 0.14042,0.05968 0.0807,0.01755 0.20712,0.01755 0.11585,0 0.20712,-0.05968 0.0948,-0.05968 0.15798,-0.168505 0.0667,-0.108826 0.1018,-0.252758 0.0351,-0.147442 0.0351,-0.322968 0,-0.143931 -0.0246,-0.263289 -0.0211,-0.122868 -0.0737,-0.210631 -0.0491,-0.09127 -0.1334,-0.140421 -0.0807,-0.04915 -0.2001,-0.04915 z"
         style="font-style:normal;font-variant:normal;font-weight:normal;font-stretch:normal;line-height:4.38815165px;font-family:'PT Serif';-inkscape-font-specification:'PT Serif';text-align:center;text-anchor:middle;stroke-width:0.43881515"
         id="path77" />
      <path
         d="m -238.44862,60.030987 h 0.74423 v 0.09127 q -0.0386,0.02106 -0.0913,0.04213 -0.0491,0.02106 -0.11935,0.04213 v 0.961883 l -0.0386,0.326478 h 0.0175 l 0.13691,-0.263289 0.75125,-1.200598 h 0.47392 v 0.09127 q -0.11233,0.06319 -0.23169,0.08425 v 1.407719 q 0.0667,0.01755 0.12638,0.03862 0.0597,0.01755 0.10531,0.04564 v 0.08776 h -0.74423 v -0.08776 q 0.0983,-0.05617 0.21064,-0.08425 v -1.004009 l 0.0351,-0.277332 h -0.0175 l -0.1334,0.26329 -0.74423,1.190066 h -0.48094 v -0.08776 q 0.0597,-0.02808 0.11584,-0.04564 0.0562,-0.02106 0.11585,-0.03862 v -1.407719 q -0.13691,-0.02106 -0.23169,-0.08425 z"
         style="font-style:normal;font-variant:normal;font-weight:normal;font-stretch:normal;line-height:4.38815165px;font-family:'PT Serif';-inkscape-font-specification:'PT Serif';text-align:center;text-anchor:middle;stroke-width:0.43881515"
         id="path79" />
      <path
         d="m -235.29853,60.030987 h 0.67753 v 0.09127 q -0.0351,0.02808 -0.0948,0.04915 -0.0562,0.02106 -0.14042,0.04915 -0.11936,0.143931 -0.25276,0.291373 -0.1334,0.147442 -0.28084,0.294884 0.0772,0.08425 0.16149,0.186057 0.0878,0.101806 0.17552,0.210632 0.0878,0.108826 0.17553,0.214142 0.0878,0.105315 0.17201,0.196589 l 0.165,0.08425 v 0.08776 h -0.41073 l -0.11234,-0.08074 q -0.15797,-0.189568 -0.28786,-0.379136 -0.12989,-0.189568 -0.26329,-0.372115 h -0.14042 v 0.659978 q 0.0702,0.01755 0.12638,0.03862 0.0597,0.01755 0.1018,0.04564 v 0.08776 h -0.77582 v -0.08776 q 0.0948,-0.05617 0.23169,-0.08425 v -1.407719 q -0.12287,-0.02457 -0.23169,-0.08425 v -0.09127 h 0.71965 v 0.09127 q -0.0351,0.02457 -0.0772,0.04564 -0.0386,0.02106 -0.0948,0.03862 v 0.656467 l 0.16148,-0.03511 q 0.14042,-0.161484 0.2668,-0.301905 0.12638,-0.140421 0.23521,-0.305415 -0.0597,-0.02457 -0.11234,-0.04564 -0.0491,-0.02457 -0.0948,-0.05266 z"
         style="font-style:normal;font-variant:normal;font-weight:normal;font-stretch:normal;line-height:4.38815165px;font-family:'PT Serif';-inkscape-font-specification:'PT Serif';text-align:center;text-anchor:middle;stroke-width:0.43881515"
         id="path81" />
      <path
         d="m -233.10089,61.326369 q 0,0.07723 0.004,0.1334 0.004,0.05617 0.007,0.119358 l 0.24222,0.03511 v 0.07372 q -0.0878,0.04564 -0.19659,0.08074 -0.10531,0.03511 -0.20361,0.05266 h -0.0878 q -0.0351,-0.08074 -0.0421,-0.175526 -0.007,-0.09829 -0.0105,-0.214141 h -0.0175 q -0.014,0.07021 -0.0562,0.143931 -0.0386,0.07021 -0.10531,0.126379 -0.0632,0.05617 -0.15096,0.09127 -0.0878,0.03511 -0.20009,0.03511 -0.21415,0 -0.35106,-0.12989 -0.1334,-0.129889 -0.1334,-0.34052 0,-0.161484 0.0632,-0.263289 0.0667,-0.105316 0.19308,-0.164995 0.12638,-0.05968 0.31244,-0.08425 0.18606,-0.02808 0.43179,-0.04213 0.014,-0.150952 0.007,-0.27031 -0.004,-0.122868 -0.0386,-0.207121 -0.0316,-0.08776 -0.0983,-0.133399 -0.0632,-0.04915 -0.1685,-0.04915 -0.0491,0 -0.11234,0.007 -0.0597,0.0035 -0.11936,0.02809 l -0.16499,0.421262 h -0.0913 q -0.0351,-0.105316 -0.0632,-0.217652 -0.0246,-0.112337 -0.0316,-0.221163 0.1334,-0.08074 0.29488,-0.126379 0.165,-0.04564 0.3651,-0.04564 0.17904,0 0.28435,0.05266 0.10883,0.04915 0.165,0.12989 0.0562,0.08074 0.0737,0.179036 0.0175,0.0983 0.0175,0.196589 0,0.210632 -0.0105,0.407221 -0.007,0.193078 -0.007,0.372115 z m -0.67753,0.284352 q 0.0878,0 0.15446,-0.03511 0.0667,-0.0351 0.11234,-0.08425 0.0456,-0.04915 0.0737,-0.09829 0.0281,-0.05266 0.0386,-0.08776 v -0.368605 q -0.20361,0 -0.3335,0.02106 -0.12989,0.02106 -0.20361,0.0667 -0.0737,0.04564 -0.1018,0.115847 -0.0281,0.0667 -0.0281,0.154463 0,0.150953 0.0772,0.235205 0.0772,0.08074 0.21064,0.08074 z"
         style="font-style:normal;font-variant:normal;font-weight:normal;font-stretch:normal;line-height:4.38815165px;font-family:'PT Serif';-inkscape-font-specification:'PT Serif';text-align:center;text-anchor:middle;stroke-width:0.43881515"
         id="path83" />
      <path
         d="m -231.8727,61.786247 h -0.75477 v -0.08776 q 0.0491,-0.02808 0.10883,-0.04564 0.0597,-0.02106 0.12287,-0.03862 v -1.407719 q -0.0632,-0.01755 -0.12287,-0.03511 -0.0597,-0.02106 -0.10883,-0.04915 v -0.09127 h 0.75477 v 0.09127 q -0.0807,0.04915 -0.20713,0.08425 v 0.614341 h 0.77934 v -0.614341 q -0.12287,-0.02106 -0.21063,-0.08425 v -0.09127 h 0.75827 v 0.09127 q -0.0948,0.05968 -0.23169,0.08425 v 1.407719 q 0.0632,0.01404 0.12287,0.03159 0.0597,0.01755 0.10882,0.05266 v 0.08776 h -0.75827 v -0.08776 q 0.0878,-0.06319 0.21063,-0.08425 v -0.638915 h -0.77934 v 0.638915 q 0.0702,0.01404 0.11936,0.03511 0.0491,0.02106 0.0878,0.04915 z"
         style="font-style:normal;font-variant:normal;font-weight:normal;font-stretch:normal;line-height:4.38815165px;font-family:'PT Serif';-inkscape-font-specification:'PT Serif';text-align:center;text-anchor:middle;stroke-width:0.43881515"
         id="path85" />
      <path
         d="m -229.1193,61.540511 q -0.0632,0.122868 -0.20712,0.207121 -0.14042,0.08074 -0.32999,0.08074 -0.20712,0 -0.36159,-0.06319 -0.15095,-0.0667 -0.25275,-0.186057 -0.10181,-0.122869 -0.15447,-0.291374 -0.0491,-0.172015 -0.0491,-0.379136 0,-0.445836 0.21765,-0.681041 0.21765,-0.238716 0.59328,-0.238716 0.17201,0 0.30541,0.03159 0.13691,0.02808 0.2317,0.07723 -0.0105,0.115847 -0.0386,0.259778 -0.0281,0.143932 -0.0702,0.238716 h -0.0948 l -0.14745,-0.417752 q -0.0246,-0.01755 -0.0562,-0.02457 -0.0316,-0.01053 -0.10532,-0.01053 -0.23872,0 -0.36861,0.175526 -0.12988,0.172016 -0.12988,0.586257 0,0.1334 0.0351,0.259779 0.0386,0.126379 0.11234,0.228184 0.0772,0.09829 0.18957,0.157973 0.11584,0.05968 0.2668,0.05968 0.12286,0 0.21414,-0.03511 0.0913,-0.0351 0.15446,-0.08425 z"
         style="font-style:normal;font-variant:normal;font-weight:normal;font-stretch:normal;line-height:4.38815165px;font-family:'PT Serif';-inkscape-font-specification:'PT Serif';text-align:center;text-anchor:middle;stroke-width:0.43881515"
         id="path87" />
      <path
         d="m -227.83868,60.030987 h 0.67753 v 0.09127 q -0.0351,0.02808 -0.0948,0.04915 -0.0562,0.02106 -0.14042,0.04915 -0.11936,0.143931 -0.25276,0.291373 -0.1334,0.147442 -0.28084,0.294884 0.0772,0.08425 0.16148,0.186057 0.0878,0.101806 0.17553,0.210632 0.0878,0.108826 0.17553,0.214142 0.0878,0.105315 0.17201,0.196589 l 0.165,0.08425 v 0.08776 h -0.41073 l -0.11234,-0.08074 q -0.15797,-0.189568 -0.28786,-0.379136 -0.12989,-0.189568 -0.26329,-0.372115 h -0.14042 v 0.659978 q 0.0702,0.01755 0.12637,0.03862 0.0597,0.01755 0.10181,0.04564 v 0.08776 h -0.77583 v -0.08776 q 0.0948,-0.05617 0.2317,-0.08425 v -1.407719 q -0.12287,-0.02457 -0.2317,-0.08425 v -0.09127 h 0.71966 v 0.09127 q -0.0351,0.02457 -0.0772,0.04564 -0.0386,0.02106 -0.0948,0.03862 v 0.656467 l 0.16148,-0.03511 q 0.14042,-0.161484 0.2668,-0.301905 0.12638,-0.140421 0.2352,-0.305415 -0.0597,-0.02457 -0.11233,-0.04564 -0.0491,-0.02457 -0.0948,-0.05266 z"
         style="font-style:normal;font-variant:normal;font-weight:normal;font-stretch:normal;line-height:4.38815165px;font-family:'PT Serif';-inkscape-font-specification:'PT Serif';text-align:center;text-anchor:middle;stroke-width:0.43881515"
         id="path89" />
      <path
         d="m -226.94344,60.030987 h 0.74423 v 0.09127 q -0.0386,0.02106 -0.0913,0.04213 -0.0491,0.02106 -0.11936,0.04213 v 0.961883 l -0.0386,0.326478 h 0.0176 l 0.13691,-0.263289 0.75125,-1.200598 h 0.47392 v 0.09127 q -0.11234,0.06319 -0.23169,0.08425 v 1.407719 q 0.0667,0.01755 0.12637,0.03862 0.0597,0.01755 0.10532,0.04564 v 0.08776 h -0.74423 v -0.08776 q 0.0983,-0.05617 0.21063,-0.08425 v -1.004009 l 0.0351,-0.277332 h -0.0176 l -0.1334,0.26329 -0.74423,1.190066 h -0.48094 v -0.08776 q 0.0597,-0.02808 0.11585,-0.04564 0.0562,-0.02106 0.11585,-0.03862 v -1.407719 q -0.13691,-0.02106 -0.2317,-0.08425 z"
         style="font-style:normal;font-variant:normal;font-weight:normal;font-stretch:normal;line-height:4.38815165px;font-family:'PT Serif';-inkscape-font-specification:'PT Serif';text-align:center;text-anchor:middle;stroke-width:0.43881515"
         id="path91" />
      <path
         d="m -224.79736,60.030987 h 0.74423 v 0.09127 q -0.0386,0.02106 -0.0913,0.04213 -0.0491,0.02106 -0.11936,0.04213 v 0.961883 l -0.0386,0.326478 h 0.0176 l 0.13691,-0.263289 0.75125,-1.200598 h 0.47392 v 0.09127 q -0.11234,0.06319 -0.23169,0.08425 v 1.407719 q 0.0667,0.01755 0.12637,0.03862 0.0597,0.01755 0.10532,0.04564 v 0.08776 h -0.74423 v -0.08776 q 0.0983,-0.05617 0.21063,-0.08425 v -1.004009 l 0.0351,-0.277332 h -0.0176 l -0.1334,0.26329 -0.74423,1.190066 h -0.48094 v -0.08776 q 0.0597,-0.02808 0.11585,-0.04564 0.0562,-0.02106 0.11585,-0.03862 v -1.407719 q -0.13691,-0.02106 -0.2317,-0.08425 z m 0.97242,-0.210632 q -0.17553,0 -0.28787,-0.03511 -0.11233,-0.03862 -0.17903,-0.09829 -0.0667,-0.05968 -0.0948,-0.136911 -0.0246,-0.08074 -0.0246,-0.161484 0.0562,-0.04564 0.12287,-0.0667 0.0667,-0.02106 0.14042,-0.02808 l 0.0878,0.04564 v 0.312436 q 0.0491,0.02106 0.11585,0.03159 0.0667,0.007 0.12287,0.007 0.0351,0 0.11233,-0.007 0.0772,-0.007 0.12638,-0.02106 v -0.322968 l 0.0878,-0.04564 q 0.0737,0.007 0.13691,0.0316 0.0667,0.02457 0.10883,0.06319 0,0.08074 -0.0281,0.161484 -0.0281,0.07723 -0.0948,0.136911 -0.0632,0.05968 -0.17552,0.09829 -0.10883,0.03511 -0.27733,0.03511 z"
         style="font-style:normal;font-variant:normal;font-weight:normal;font-stretch:normal;line-height:4.38815165px;font-family:'PT Serif';-inkscape-font-specification:'PT Serif';text-align:center;text-anchor:middle;stroke-width:0.43881515"
         id="path93" />
      <path
         d="m -242.40824,64.419138 h 0.74423 v 0.09127 q -0.0386,0.02106 -0.0913,0.04213 -0.0491,0.02106 -0.11936,0.04213 v 0.961883 l -0.0386,0.326478 h 0.0175 l 0.13691,-0.263289 0.75125,-1.200598 h 0.47392 v 0.09127 q -0.11233,0.06319 -0.23169,0.08425 v 1.407719 q 0.0667,0.01755 0.12638,0.03862 0.0597,0.01755 0.10531,0.04564 v 0.08776 h -0.74423 v -0.08776 q 0.0983,-0.05617 0.21063,-0.08425 v -1.004009 l 0.0351,-0.277331 h -0.0175 l -0.1334,0.263289 -0.74423,1.190067 h -0.48094 v -0.08776 q 0.0597,-0.02808 0.11584,-0.04564 0.0562,-0.02106 0.11585,-0.03862 v -1.407719 q -0.13691,-0.02106 -0.23169,-0.08425 z"
         style="font-style:normal;font-variant:normal;font-weight:normal;font-stretch:normal;line-height:4.38815165px;font-family:'PT Serif';-inkscape-font-specification:'PT Serif';text-align:center;text-anchor:middle;stroke-width:0.43881515"
         id="path95" />
      <path
         d="m -239.5074,66.174399 h -0.75476 v -0.08776 q 0.0491,-0.02808 0.10882,-0.04564 0.0597,-0.02106 0.12287,-0.03862 v -1.407719 q -0.0632,-0.01755 -0.12287,-0.03511 -0.0597,-0.02106 -0.10882,-0.04915 v -0.09127 h 0.75476 v 0.09127 q -0.0807,0.04915 -0.20712,0.08425 v 0.614341 h 0.77933 v -0.614341 q -0.12287,-0.02106 -0.21063,-0.08425 v -0.09127 h 0.75827 v 0.09127 q -0.0948,0.05968 -0.23169,0.08425 v 1.407719 q 0.0632,0.01404 0.12287,0.0316 0.0597,0.01755 0.10882,0.05266 v 0.08776 h -0.75827 v -0.08776 q 0.0878,-0.06319 0.21063,-0.08425 v -0.638915 h -0.77933 v 0.638915 q 0.0702,0.01404 0.11935,0.03511 0.0491,0.02106 0.0878,0.04915 z"
         style="font-style:normal;font-variant:normal;font-weight:normal;font-stretch:normal;line-height:4.38815165px;font-family:'PT Serif';-inkscape-font-specification:'PT Serif';text-align:center;text-anchor:middle;stroke-width:0.43881515"
         id="path97" />
      <path
         d="m -236.99272,66.174399 h -0.77933 v -0.08776 q 0.10882,-0.05617 0.23169,-0.08425 v -1.428782 h -0.32648 l -0.15446,0.421263 h -0.0913 q -0.0176,-0.150953 -0.0281,-0.294884 -0.0105,-0.147442 -0.014,-0.280842 h 1.54463 q -0.004,0.126379 -0.014,0.277331 -0.007,0.147442 -0.0281,0.298395 h -0.0913 l -0.15446,-0.421263 h -0.32648 v 1.428782 q 0.16499,0.04213 0.23169,0.08425 z"
         style="font-style:normal;font-variant:normal;font-weight:normal;font-stretch:normal;line-height:4.38815165px;font-family:'PT Serif';-inkscape-font-specification:'PT Serif';text-align:center;text-anchor:middle;stroke-width:0.43881515"
         id="path99" />
      <path
         d="m -234.95261,65.928662 q -0.0281,0.05968 -0.0878,0.112337 -0.0597,0.05266 -0.13691,0.09127 -0.0772,0.03862 -0.16851,0.05968 -0.0913,0.02457 -0.18606,0.02457 -0.20712,0 -0.36509,-0.06319 -0.15797,-0.0667 -0.26329,-0.186058 -0.10532,-0.122868 -0.16148,-0.291373 -0.0527,-0.168505 -0.0527,-0.379137 0,-0.449346 0.20712,-0.684551 0.20712,-0.235205 0.58626,-0.235205 0.12286,0 0.24222,0.03511 0.11936,0.0316 0.21063,0.108826 0.0948,0.07723 0.15096,0.207121 0.0597,0.126379 0.0597,0.315947 0,0.05968 -0.007,0.122868 -0.004,0.05968 -0.0175,0.129889 h -1.09528 q 0,0.147442 0.0351,0.277332 0.0386,0.126378 0.11234,0.221162 0.0737,0.09479 0.18606,0.150953 0.11233,0.05266 0.26329,0.05266 0.12286,0 0.24924,-0.03511 0.12638,-0.03511 0.18957,-0.09127 z m -0.64243,-1.397187 q -0.2001,0 -0.30541,0.13691 -0.10532,0.1334 -0.12638,0.47392 h 0.77231 q 0.004,-0.03159 0.004,-0.05968 0.004,-0.03159 0.004,-0.05968 0,-0.224674 -0.0843,-0.358073 -0.0842,-0.1334 -0.26329,-0.1334 z"
         style="font-style:normal;font-variant:normal;font-weight:normal;font-stretch:normal;line-height:4.38815165px;font-family:'PT Serif';-inkscape-font-specification:'PT Serif';text-align:center;text-anchor:middle;stroke-width:0.43881515"
         id="path101" />
      <path
         d="m -233.303,64.419138 q -0.004,0.13691 -0.014,0.284352 -0.007,0.147442 -0.0281,0.291374 h -0.0913 l -0.15446,-0.421263 h -0.47392 v 1.428782 q 0.2001,0.03862 0.31595,0.08425 v 0.08776 h -0.86359 v -0.08776 q 0.0597,-0.03511 0.11585,-0.05266 0.0562,-0.01755 0.11584,-0.0316 v -1.411229 q -0.12988,-0.02106 -0.23169,-0.08074 v -0.09127 z"
         style="font-style:normal;font-variant:normal;font-weight:normal;font-stretch:normal;line-height:4.38815165px;font-family:'PT Serif';-inkscape-font-specification:'PT Serif';text-align:center;text-anchor:middle;stroke-width:0.43881515"
         id="path103" />
      <path
         d="m -232.34588,66.876503 h -0.77934 v -0.08776 q 0.11936,-0.05617 0.23169,-0.08425 v -2.081739 l -0.23169,-0.02808 v -0.09127 q 0.11234,-0.04915 0.22818,-0.07723 0.11936,-0.03159 0.2317,-0.04915 h 0.0878 v 0.393178 h 0.004 q 0.0702,-0.179036 0.19659,-0.284352 0.12638,-0.108826 0.32999,-0.108826 0.31244,0 0.48445,0.207121 0.17202,0.20712 0.17202,0.67402 0,0.221163 -0.0597,0.400199 -0.0562,0.179037 -0.165,0.301905 -0.10531,0.122868 -0.25977,0.189568 -0.15096,0.0667 -0.33701,0.0667 -0.12989,0 -0.20362,-0.01755 -0.0737,-0.01404 -0.16148,-0.05266 v 0.558172 q 0.0562,0.007 0.11234,0.02457 0.0562,0.02106 0.11936,0.05968 z m 0.18605,-2.281839 q -0.17201,0 -0.27382,0.108826 -0.1018,0.108827 -0.14393,0.298395 v 0.982946 q 0.0632,0.03862 0.14042,0.05968 0.0807,0.01755 0.20712,0.01755 0.11585,0 0.20712,-0.05968 0.0948,-0.05968 0.15798,-0.168505 0.0667,-0.108826 0.1018,-0.252757 0.0351,-0.147442 0.0351,-0.322968 0,-0.143932 -0.0246,-0.263289 -0.0211,-0.122869 -0.0737,-0.210632 -0.0491,-0.09127 -0.1334,-0.140421 -0.0807,-0.04915 -0.2001,-0.04915 z"
         style="font-style:normal;font-variant:normal;font-weight:normal;font-stretch:normal;line-height:4.38815165px;font-family:'PT Serif';-inkscape-font-specification:'PT Serif';text-align:center;text-anchor:middle;stroke-width:0.43881515"
         id="path105" />
      <path
         d="m -229.80635,65.71452 q 0,0.07723 0.004,0.1334 0.004,0.05617 0.007,0.119358 l 0.24223,0.03511 v 0.07372 q -0.0878,0.04564 -0.19659,0.08074 -0.10532,0.03511 -0.20361,0.05266 h -0.0878 q -0.0351,-0.08074 -0.0421,-0.175526 -0.007,-0.0983 -0.0105,-0.214142 h -0.0176 q -0.014,0.07021 -0.0562,0.143931 -0.0386,0.07021 -0.10531,0.126379 -0.0632,0.05617 -0.15095,0.09127 -0.0878,0.03511 -0.2001,0.03511 -0.21414,0 -0.35105,-0.129889 -0.1334,-0.12989 -0.1334,-0.340521 0,-0.161484 0.0632,-0.263289 0.0667,-0.105316 0.19308,-0.164994 0.12638,-0.05968 0.31244,-0.08425 0.18606,-0.02808 0.43179,-0.04213 0.014,-0.150953 0.007,-0.27031 -0.004,-0.122869 -0.0386,-0.207121 -0.0316,-0.08776 -0.0983,-0.1334 -0.0632,-0.04915 -0.1685,-0.04915 -0.0491,0 -0.11234,0.007 -0.0597,0.0035 -0.11935,0.02808 l -0.165,0.421263 h -0.0913 q -0.0351,-0.105316 -0.0632,-0.217653 -0.0246,-0.112336 -0.0316,-0.221163 0.1334,-0.08074 0.29489,-0.126378 0.16499,-0.04564 0.36509,-0.04564 0.17904,0 0.28435,0.05266 0.10883,0.04915 0.165,0.129889 0.0562,0.08074 0.0737,0.179037 0.0175,0.09829 0.0175,0.196589 0,0.210631 -0.0105,0.40722 -0.007,0.193079 -0.007,0.372115 z m -0.67753,0.284353 q 0.0878,0 0.15446,-0.03511 0.0667,-0.03511 0.11234,-0.08425 0.0456,-0.04915 0.0737,-0.09829 0.0281,-0.05266 0.0386,-0.08776 v -0.368604 q -0.20361,0 -0.3335,0.02106 -0.12988,0.02106 -0.20361,0.0667 -0.0737,0.04564 -0.1018,0.115847 -0.0281,0.0667 -0.0281,0.154463 0,0.150952 0.0772,0.235205 0.0772,0.08074 0.21063,0.08074 z"
         style="font-style:normal;font-variant:normal;font-weight:normal;font-stretch:normal;line-height:4.38815165px;font-family:'PT Serif';-inkscape-font-specification:'PT Serif';text-align:center;text-anchor:middle;stroke-width:0.43881515"
         id="path107" />
      <path
         d="m -229.10825,65.872494 q 0.0491,-0.08425 0.0878,-0.224673 0.0386,-0.140421 0.0632,-0.308926 0.0281,-0.168505 0.0421,-0.351052 0.014,-0.186058 0.014,-0.358074 -0.0702,-0.02106 -0.12989,-0.05266 -0.0562,-0.03159 -0.10532,-0.0667 v -0.09127 h 1.43581 v 0.09127 q -0.11234,0.06319 -0.2317,0.08425 v 1.407719 q 0.0737,0.01755 0.12989,0.03862 0.0562,0.02106 0.10181,0.04564 v 0.08776 h -0.75476 v -0.08776 q 0.0842,-0.05968 0.20712,-0.08425 v -1.428782 h -0.46339 q -0.004,0.186058 -0.0211,0.396689 -0.0175,0.207121 -0.0526,0.410731 -0.0351,0.2001 -0.0913,0.379136 -0.0562,0.175526 -0.13691,0.294884 -0.0667,0.101805 -0.14393,0.140421 -0.0772,0.04213 -0.14393,0.02808 -0.0527,-0.05968 -0.1018,-0.154463 -0.0456,-0.0983 -0.0527,-0.179036 l 0.0491,-0.08776 z"
         style="font-style:normal;font-variant:normal;font-weight:normal;font-stretch:normal;line-height:4.38815165px;font-family:'PT Serif';-inkscape-font-specification:'PT Serif';text-align:center;text-anchor:middle;stroke-width:0.43881515"
         id="path109" />
    </g>
  </g>
</svg>
