<?xml version="1.0" encoding="UTF-8" standalone="no"?>
<!-- Created with Inkscape (http://www.inkscape.org/) -->

<svg
   xmlns:dc="http://purl.org/dc/elements/1.1/"
   xmlns:cc="http://creativecommons.org/ns#"
   xmlns:rdf="http://www.w3.org/1999/02/22-rdf-syntax-ns#"
   xmlns:svg="http://www.w3.org/2000/svg"
   xmlns="http://www.w3.org/2000/svg"
   xmlns:sodipodi="http://sodipodi.sourceforge.net/DTD/sodipodi-0.dtd"
   xmlns:inkscape="http://www.inkscape.org/namespaces/inkscape"
   width="354.33069"
   height="177.16534"
   id="svg2"
   version="1.1"
   inkscape:version="0.48.3.1 r9886"
   sodipodi:docname="ptolemey.svg"
   inkscape:export-filename="/home/goldin/Documents/Математика/0-МЭ/Рабочий план/pictures/ptolemey.png"
   inkscape:export-xdpi="150"
   inkscape:export-ydpi="150">
  <defs
     id="defs4" />
  <sodipodi:namedview
     id="base"
     pagecolor="#ffffff"
     bordercolor="#666666"
     borderopacity="1.0"
     inkscape:pageopacity="0.0"
     inkscape:pageshadow="2"
     inkscape:zoom="2.9351113"
     inkscape:cx="177.16534"
     inkscape:cy="88.582672"
     inkscape:document-units="pt"
     inkscape:current-layer="layer1"
     showgrid="false"
     units="mm"
     inkscape:window-width="1280"
     inkscape:window-height="746"
     inkscape:window-x="-4"
     inkscape:window-y="-4"
     inkscape:window-maximized="1" />
  <metadata
     id="metadata7">
    <rdf:RDF>
      <cc:Work
         rdf:about="">
        <dc:format>image/svg+xml</dc:format>
        <dc:type
           rdf:resource="http://purl.org/dc/dcmitype/StillImage" />
        <dc:title></dc:title>
      </cc:Work>
    </rdf:RDF>
  </metadata>
  <g
     inkscape:label="Layer 1"
     inkscape:groupmode="layer"
     id="layer1"
     transform="translate(0,-875.19684)">
    <path
       sodipodi:type="arc"
       style="fill:none;stroke:#000000;stroke-width:0.625;stroke-linecap:round;stroke-linejoin:round;stroke-miterlimit:4;stroke-opacity:1;stroke-dasharray:none;stroke-dashoffset:0"
       id="path2985"
       sodipodi:cx="88.071617"
       sodipodi:cy="98.6334"
       sodipodi:rx="78.531944"
       sodipodi:ry="78.531944"
       d="m 166.60356,98.6334 c 0,43.372 -35.15995,78.53194 -78.531943,78.53194 -43.371995,0 -78.5319441,-35.15994 -78.5319441,-78.53194 0,-43.371995 35.1599491,-78.531944 78.5319441,-78.531944 43.371993,0 78.531943,35.159949 78.531943,78.531944 z"
       transform="translate(0.51105499,865.14611)" />
    <path
       style="fill:none;stroke:#000000;stroke-width:0.625;stroke-linecap:butt;stroke-linejoin:miter;stroke-opacity:1"
       d="m 18.038343,54.412624 12.284187,86.638246 99.14445,14.30951 7.83616,-128.104173 z"
       id="path3006"
       inkscape:connector-curvature="0"
       transform="translate(0,875.19684)"
       sodipodi:nodetypes="ccccc" />
    <text
       xml:space="preserve"
       style="font-size:16px;font-style:normal;font-variant:normal;font-weight:normal;font-stretch:normal;text-align:start;line-height:125%;letter-spacing:0px;word-spacing:0px;text-anchor:start;fill:#000000;fill-opacity:1;stroke:none;font-family:GOST type B;-inkscape-font-specification:GOST type B"
       x="141.05087"
       y="901.43097"
       id="text3008"
       sodipodi:linespacing="125%"><tspan
         sodipodi:role="line"
         id="tspan3010"
         x="141.05087"
         y="901.43097"
         style="font-size:14px;font-style:italic;-inkscape-font-specification:GOST type B Italic">A</tspan></text>
    <text
       xml:space="preserve"
       style="font-size:16px;font-style:normal;font-variant:normal;font-weight:normal;font-stretch:normal;text-align:start;line-height:125%;letter-spacing:0px;word-spacing:0px;text-anchor:start;fill:#000000;fill-opacity:1;stroke:none;font-family:GOST type B;-inkscape-font-specification:GOST type B"
       x="132.53331"
       y="1039.4155"
       id="text3012"
       sodipodi:linespacing="125%"><tspan
         sodipodi:role="line"
         id="tspan3014"
         x="132.53331"
         y="1039.4155"
         style="font-size:14px;font-style:italic;-inkscape-font-specification:GOST type B Italic">B</tspan></text>
    <text
       xml:space="preserve"
       style="font-size:14px;font-style:italic;font-variant:normal;font-weight:normal;font-stretch:normal;text-align:start;line-height:125%;letter-spacing:0px;word-spacing:0px;text-anchor:start;fill:#000000;fill-opacity:1;stroke:none;font-family:GOST type B;-inkscape-font-specification:Sans Italic"
       x="16.694427"
       y="1024.7653"
       id="text3016"
       sodipodi:linespacing="125%"><tspan
         sodipodi:role="line"
         id="tspan3018"
         x="16.694427"
         y="1024.7653">C</tspan></text>
    <text
       xml:space="preserve"
       style="font-size:14px;font-style:italic;font-variant:normal;font-weight:normal;font-stretch:normal;text-align:start;line-height:125%;letter-spacing:0px;word-spacing:0px;text-anchor:start;fill:#000000;fill-opacity:1;stroke:none;font-family:GOST type B;-inkscape-font-specification:Sans Italic"
       x="6.8140516"
       y="929.36853"
       id="text3020"
       sodipodi:linespacing="125%"><tspan
         sodipodi:role="line"
         id="tspan3022"
         x="6.8140516"
         y="929.36853">D</tspan></text>
    <path
       style="fill:none;stroke:#000000;stroke-width:0.625;stroke-linecap:butt;stroke-linejoin:miter;stroke-opacity:1"
       d="M 17.857658,54.512414 129.48765,155.39994"
       id="path3026"
       inkscape:connector-curvature="0"
       transform="translate(0,875.19684)"
       sodipodi:nodetypes="cc" />
    <path
       style="fill:none;stroke:#000000;stroke-width:0.625;stroke-linecap:butt;stroke-linejoin:miter;stroke-opacity:1"
       d="M 137.14312,27.374891 30.382758,141.0302"
       id="path3028"
       inkscape:connector-curvature="0"
       transform="translate(0,875.19684)"
       sodipodi:nodetypes="cc" />
    <path
       style="fill:none;stroke:#000080;stroke-width:0.625;stroke-linecap:butt;stroke-linejoin:miter;stroke-opacity:1"
       d="M 137.28465,27.261849 81.427918,112.09115"
       id="path3030"
       inkscape:connector-curvature="0"
       transform="translate(0,875.19684)"
       sodipodi:nodetypes="cc" />
    <text
       xml:space="preserve"
       style="font-size:14px;font-style:italic;font-variant:normal;font-weight:normal;font-stretch:normal;text-align:start;line-height:125%;letter-spacing:0px;word-spacing:0px;text-anchor:start;fill:#000080;fill-opacity:1;stroke:none;font-family:GOST type B;-inkscape-font-specification:Sans Italic"
       x="71.547546"
       y="997.50903"
       id="text3032"
       sodipodi:linespacing="125%"><tspan
         sodipodi:role="line"
         id="tspan3034"
         x="71.547546"
         y="997.50903">F</tspan></text>
    <path
       style="fill:#ffaaaa;fill-opacity:1;stroke:none"
       d="M 44.563898,77.987714 C 31.540542,66.192141 20.467659,56.123065 19.957491,55.611991 L 19.029914,54.682765 77.146482,41.45989 C 109.1106,34.187309 135.30458,28.284636 135.35534,28.34284 135.49249,28.500107 68.938098,99.257627 68.563564,99.352737 68.387104,99.39755 57.587254,89.783288 44.563898,77.987714 z"
       id="path3048"
       inkscape:connector-curvature="0"
       transform="translate(0,875.19684)" />
    <path
       style="fill:#ffaaaa;fill-opacity:1;stroke:none"
       d="M 30.503785,138.88025 C 29.094134,129.88608 18.953311,56.841657 19.094669,56.700299 c 0.152844,-0.152844 43.60354,38.78927 47.744661,42.790525 l 0.981519,0.948366 -18.57499,19.75356 c -17.931145,19.06885 -18.580783,19.7166 -18.742074,18.6875 z"
       id="path3050"
       inkscape:connector-curvature="0"
       transform="translate(0,875.19684)" />
    <path
       inkscape:connector-curvature="0"
       id="path3042"
       d="m 52.860328,991.63125 c 0,0 -7.55349,-6.427 -12.180347,-7.75002 -4.664094,-1.33367 -14.552396,0.14031 -14.552396,0.14031 l 4.438708,31.45126 z"
       style="fill:#000080;stroke:none"
       sodipodi:nodetypes="csccc" />
    <path
       transform="translate(170.52164,862.42049)"
       d="m 166.60356,98.6334 a 78.531944,78.531944 0 1 1 -157.0638871,0 78.531944,78.531944 0 1 1 157.0638871,0 z"
       sodipodi:ry="78.531944"
       sodipodi:rx="78.531944"
       sodipodi:cy="98.6334"
       sodipodi:cx="88.071617"
       id="path3054"
       style="fill:none;stroke:#000000;stroke-width:0.625;stroke-linecap:round;stroke-linejoin:round;stroke-miterlimit:4;stroke-opacity:1;stroke-dasharray:none;stroke-dashoffset:0"
       sodipodi:type="arc" />
    <path
       sodipodi:nodetypes="ccccc"
       inkscape:connector-curvature="0"
       id="path3056"
       d="m 188.04893,926.88384 12.28419,86.63826 99.14445,14.3095 7.83616,-128.10417 z"
       style="fill:none;stroke:#000000;stroke-width:0.625;stroke-linecap:butt;stroke-linejoin:miter;stroke-opacity:1" />
    <text
       sodipodi:linespacing="125%"
       id="text3058"
       y="898.70532"
       x="311.06146"
       style="font-size:16px;font-style:normal;font-variant:normal;font-weight:normal;font-stretch:normal;text-align:start;line-height:125%;letter-spacing:0px;word-spacing:0px;text-anchor:start;fill:#000000;fill-opacity:1;stroke:none;font-family:GOST type B;-inkscape-font-specification:GOST type B"
       xml:space="preserve"><tspan
         style="font-size:14px;font-style:italic;-inkscape-font-specification:GOST type B Italic"
         y="898.70532"
         x="311.06146"
         id="tspan3060"
         sodipodi:role="line">A</tspan></text>
    <text
       sodipodi:linespacing="125%"
       id="text3062"
       y="1036.6899"
       x="302.54391"
       style="font-size:16px;font-style:normal;font-variant:normal;font-weight:normal;font-stretch:normal;text-align:start;line-height:125%;letter-spacing:0px;word-spacing:0px;text-anchor:start;fill:#000000;fill-opacity:1;stroke:none;font-family:GOST type B;-inkscape-font-specification:GOST type B"
       xml:space="preserve"><tspan
         style="font-size:14px;font-style:italic;-inkscape-font-specification:GOST type B Italic"
         y="1036.6899"
         x="302.54391"
         id="tspan3064"
         sodipodi:role="line">B</tspan></text>
    <text
       sodipodi:linespacing="125%"
       id="text3066"
       y="1022.0396"
       x="186.70502"
       style="font-size:14px;font-style:italic;font-variant:normal;font-weight:normal;font-stretch:normal;text-align:start;line-height:125%;letter-spacing:0px;word-spacing:0px;text-anchor:start;fill:#000000;fill-opacity:1;stroke:none;font-family:GOST type B;-inkscape-font-specification:Sans Italic"
       xml:space="preserve"><tspan
         y="1022.0396"
         x="186.70502"
         id="tspan3068"
         sodipodi:role="line">C</tspan></text>
    <text
       sodipodi:linespacing="125%"
       id="text3070"
       y="926.64288"
       x="176.82465"
       style="font-size:14px;font-style:italic;font-variant:normal;font-weight:normal;font-stretch:normal;text-align:start;line-height:125%;letter-spacing:0px;word-spacing:0px;text-anchor:start;fill:#000000;fill-opacity:1;stroke:none;font-family:GOST type B;-inkscape-font-specification:Sans Italic"
       xml:space="preserve"><tspan
         y="926.64288"
         x="176.82465"
         id="tspan3072"
         sodipodi:role="line">D</tspan></text>
    <path
       sodipodi:nodetypes="cc"
       inkscape:connector-curvature="0"
       id="path3074"
       d="M 187.86825,926.98363 299.49824,1027.8712"
       style="fill:none;stroke:#000000;stroke-width:0.625;stroke-linecap:butt;stroke-linejoin:miter;stroke-opacity:1" />
    <path
       sodipodi:nodetypes="cc"
       inkscape:connector-curvature="0"
       id="path3076"
       d="M 307.15371,899.84611 200.39335,1013.5014"
       style="fill:none;stroke:#000000;stroke-width:0.625;stroke-linecap:butt;stroke-linejoin:miter;stroke-opacity:1" />
    <path
       sodipodi:nodetypes="cc"
       inkscape:connector-curvature="0"
       id="path3078"
       d="m 307.29524,899.73307 -55.85673,84.8293"
       style="fill:none;stroke:#000080;stroke-width:0.625;stroke-linecap:butt;stroke-linejoin:miter;stroke-opacity:1" />
    <path
       style="fill:#ffff00;fill-opacity:1;stroke:none"
       d="m 275.55233,130.37522 c -12.64859,-11.46355 -23.07409,-20.93141 -23.16778,-21.03968 -0.0937,-0.10827 12.01829,-18.717006 26.91551,-41.352741 22.59899,-34.338274 27.10229,-40.993344 27.18509,-40.174659 0.0898,0.888123 -6.77855,115.14192 -7.27354,120.99371 -0.11492,1.35856 -0.31085,2.45797 -0.4354,2.44314 -0.12455,-0.0148 -10.5753,-9.40622 -23.22388,-20.86977 z"
       id="path3098"
       inkscape:connector-curvature="0"
       transform="translate(0,875.19684)" />
    <path
       style="fill:#ffff00;fill-opacity:1;stroke:none"
       d="m 249.55273,144.97086 c -26.19882,-3.80314 -47.70088,-6.98146 -47.78235,-7.06293 -0.12025,-0.12025 31.02389,-33.5345 35.60587,-38.201202 l 1.28778,-1.311589 28.58005,25.800091 c 30.94714,27.93693 30.76936,27.77415 30.27701,27.72428 -0.18378,-0.0186 -21.76954,-3.14551 -47.96836,-6.94865 l 0,0 z m -5.86552,-25.81013 c 0.0768,-0.23423 0.31125,-1.30007 0.52111,-2.36854 l 0.38158,-1.94265 1.91137,-0.10156 c 2.64481,-0.14053 2.89213,-0.95332 0.29008,-0.95332 -1.04624,0 -1.90226,-0.13415 -1.90226,-0.29811 0,-0.16396 0.0944,-0.77011 0.20978,-1.34699 0.20127,-1.00635 0.28758,-1.05296 2.12939,-1.14987 1.4343,-0.0755 1.91962,-0.2302 1.91962,-0.61205 0,-0.3877 -0.49343,-0.53232 -2.04422,-0.59916 -1.12432,-0.0485 -2.23395,0.0361 -2.46585,0.18784 -0.36268,0.23735 -2.13363,7.82876 -2.13363,9.14609 0,0.58218 0.99428,0.61439 1.18303,0.0383 z"
       id="path3100"
       inkscape:connector-curvature="0"
       transform="translate(0,875.19684)" />
    <text
       sodipodi:linespacing="125%"
       id="text3080"
       y="994.78339"
       x="241.55814"
       style="font-size:14px;font-style:italic;font-variant:normal;font-weight:normal;font-stretch:normal;text-align:start;line-height:125%;letter-spacing:0px;word-spacing:0px;text-anchor:start;fill:#000080;fill-opacity:1;stroke:none;font-family:GOST type B;-inkscape-font-specification:Sans Italic"
       xml:space="preserve"><tspan
         y="994.78339"
         x="241.55814"
         id="tspan3082"
         sodipodi:role="line">F</tspan></text>
    <path
       inkscape:connector-curvature="0"
       id="path3088"
       d="m 233.80602,1017.7881 c 0,0 0.14775,-9.5864 -1.78531,-13.8043 -2.23263,-4.87155 -10.73103,-11.9705 -10.73103,-11.9705 l -20.09066,21.2019 z"
       style="fill:#ff0000;stroke:none"
       sodipodi:nodetypes="csccc" />
    <path
       style="fill:#0000ff;fill-opacity:1;stroke:none"
       d="m 213.57167,74.353123 -24.67372,-22.354456 1.86425,-0.423394 c 1.02533,-0.232866 27.209,-6.191586 58.18592,-13.2416 30.97692,-7.050013 56.36315,-12.771501 56.41383,-12.714417 0.13988,0.157523 -66.40811,70.907991 -66.78683,71.004392 -0.18135,0.04616 -11.4329,-9.975574 -25.00345,-22.270525 z"
       id="path3102"
       inkscape:connector-curvature="0"
       transform="translate(0,875.19684)" />
    <path
       sodipodi:nodetypes="csccc"
       inkscape:connector-curvature="0"
       id="path3084"
       d="m 208.81656,945.3415 c 0,0 6.67118,-6.31312 8.19843,-10.47605 1.61683,-4.4071 0.5521,-14.07216 0.5521,-14.07216 l -28.75455,6.46861 z"
       style="fill:#ff0000;stroke:none" />
    <path
       style="fill:#008000;fill-opacity:1;stroke:none"
       d="m 245.31541,103.02047 c -5.83721,-5.267192 -5.87268,-5.307854 -5.28089,-6.053465 1.25501,-1.581218 62.20439,-66.305554 62.3249,-66.185048 0.15149,0.151491 -50.7504,77.552993 -50.99698,77.546093 -0.0937,-0.003 -2.81485,-2.39103 -6.04703,-5.30758 z"
       id="path3104"
       inkscape:connector-curvature="0"
       transform="translate(0,875.19684)" />
    <path
       style="fill:#00ffff;fill-opacity:1;stroke:none"
       d="M 105.54174,133.10084 C 92.893154,121.63729 82.467655,112.16943 82.373962,112.06116 c -0.09369,-0.10827 12.018283,-18.717006 26.915508,-41.35274 22.59899,-34.338274 27.10229,-40.993344 27.18509,-40.17466 0.0898,0.888124 -6.77855,115.14192 -7.27354,120.99371 -0.11492,1.35856 -0.31085,2.45797 -0.4354,2.44315 -0.12455,-0.0148 -10.5753,-9.40623 -23.22388,-20.86978 z"
       id="path3106"
       inkscape:connector-curvature="0"
       transform="translate(0,875.19684)" />
    <path
       style="fill:#000080;stroke:none"
       d="m 130.8833,1000.4375 c 0,0 -9.03643,-0.51801 -13.13614,1.0601 -4.21127,1.621 -10.74106,8.2397 -10.74106,8.2397 l 22.09156,19.9307 z"
       id="path3040"
       inkscape:connector-curvature="0"
       inkscape:transform-center-x="-17.035129"
       inkscape:transform-center-y="-10.56178"
       sodipodi:nodetypes="csccc" />
    <path
       style="fill:#ff0000;stroke:none"
       d="m 103.06253,910.71508 c 0,0 0.31088,7.24893 1.94245,10.36101 1.63057,3.11015 7.41225,7.48631 7.41225,7.48631 l 23.56266,-25.40478 z"
       id="path3036"
       inkscape:connector-curvature="0"
       sodipodi:nodetypes="csccc" />
    <path
       inkscape:connector-curvature="0"
       id="path3038"
       d="m 119.33108,930.39066 c 0,0 4.22366,3.73599 6.844,4.50856 2.79553,0.82422 8.74315,-0.0794 8.74315,-0.0794 l 2.04422,-31.25947 z"
       style="fill:#ff0000;stroke:none"
       sodipodi:nodetypes="csccc" />
  </g>
</svg>
