<?xml version="1.0" encoding="UTF-8" standalone="no"?>
<!-- Created with Inkscape (http://www.inkscape.org/) -->

<svg
   xmlns:dc="http://purl.org/dc/elements/1.1/"
   xmlns:cc="http://creativecommons.org/ns#"
   xmlns:rdf="http://www.w3.org/1999/02/22-rdf-syntax-ns#"
   xmlns:svg="http://www.w3.org/2000/svg"
   xmlns="http://www.w3.org/2000/svg"
   xmlns:sodipodi="http://sodipodi.sourceforge.net/DTD/sodipodi-0.dtd"
   xmlns:inkscape="http://www.inkscape.org/namespaces/inkscape"
   width="144.03098"
   height="146.44568"
   id="svg2998"
   version="1.1"
   inkscape:version="0.92.4 (5da689c313, 2019-01-14)"
   sodipodi:docname="16-07.svg">
  <defs
     id="defs3000">
    <marker
       inkscape:isstock="true"
       style="overflow:visible"
       id="marker5011"
       refX="0"
       refY="0"
       orient="auto"
       inkscape:stockid="Arrow1Send">
      <path
         inkscape:connector-curvature="0"
         transform="matrix(-0.2,0,0,-0.2,-1.2,0)"
         style="fill:#ff00ff;fill-opacity:1;fill-rule:evenodd;stroke:#ff00ff;stroke-width:1.00000003pt;stroke-opacity:1"
         d="M 0,0 5,-5 -12.5,0 5,5 Z"
         id="path5009" />
    </marker>
    <marker
       inkscape:isstock="true"
       style="overflow:visible"
       id="marker4911"
       refX="0"
       refY="0"
       orient="auto"
       inkscape:stockid="Arrow1Send">
      <path
         inkscape:connector-curvature="0"
         transform="matrix(-0.2,0,0,-0.2,-1.2,0)"
         style="fill:#008000;fill-opacity:1;fill-rule:evenodd;stroke:#008000;stroke-width:1.00000003pt;stroke-opacity:1"
         d="M 0,0 5,-5 -12.5,0 5,5 Z"
         id="path4909" />
    </marker>
    <marker
       inkscape:stockid="Arrow1Mend"
       orient="auto"
       refY="0"
       refX="0"
       id="marker4686"
       style="overflow:visible"
       inkscape:isstock="true">
      <path
         id="path4684"
         d="M 0,0 5,-5 -12.5,0 5,5 Z"
         style="fill:#000000;fill-opacity:1;fill-rule:evenodd;stroke:#000000;stroke-width:1.00000003pt;stroke-opacity:1"
         transform="matrix(-0.4,0,0,-0.4,-4,0)"
         inkscape:connector-curvature="0" />
    </marker>
    <marker
       inkscape:isstock="true"
       style="overflow:visible"
       id="marker3631"
       refX="0"
       refY="0"
       orient="auto"
       inkscape:stockid="Arrow1Mend"
       inkscape:collect="always">
      <path
         inkscape:connector-curvature="0"
         transform="matrix(-0.4,0,0,-0.4,-4,0)"
         style="fill:#000000;fill-opacity:1;fill-rule:evenodd;stroke:#000000;stroke-width:1.00000003pt;stroke-opacity:1"
         d="M 0,0 5,-5 -12.5,0 5,5 Z"
         id="path3629" />
    </marker>
    <marker
       inkscape:stockid="Arrow1Mend"
       orient="auto"
       refY="0"
       refX="0"
       id="marker3067"
       style="overflow:visible"
       inkscape:isstock="true">
      <path
         id="path3065"
         d="M 0,0 5,-5 -12.5,0 5,5 Z"
         style="fill:#0000ff;fill-opacity:1;fill-rule:evenodd;stroke:#0000ff;stroke-width:1.00000003pt;stroke-opacity:1"
         transform="matrix(-0.4,0,0,-0.4,-4,0)"
         inkscape:connector-curvature="0" />
    </marker>
    <marker
       inkscape:stockid="Arrow1Mend"
       orient="auto"
       refY="0"
       refX="0"
       id="marker1573"
       style="overflow:visible"
       inkscape:isstock="true">
      <path
         inkscape:connector-curvature="0"
         id="path1571"
         d="M 0,0 5,-5 -12.5,0 5,5 Z"
         style="fill:#ff00ff;fill-opacity:1;fill-rule:evenodd;stroke:#ff00ff;stroke-width:1.00000003pt;stroke-opacity:1"
         transform="matrix(-0.4,0,0,-0.4,-4,0)" />
    </marker>
    <marker
       inkscape:isstock="true"
       style="overflow:visible"
       id="marker1335"
       refX="0"
       refY="0"
       orient="auto"
       inkscape:stockid="Arrow1Lend">
      <path
         inkscape:connector-curvature="0"
         transform="matrix(-0.8,0,0,-0.8,-10,0)"
         style="fill:#ff00ff;fill-opacity:1;fill-rule:evenodd;stroke:#ff00ff;stroke-width:1.00000003pt;stroke-opacity:1"
         d="M 0,0 5,-5 -12.5,0 5,5 Z"
         id="path1333" />
    </marker>
    <marker
       inkscape:isstock="true"
       style="overflow:visible"
       id="marker1339"
       refX="0"
       refY="0"
       orient="auto"
       inkscape:stockid="Arrow1Mstart">
      <path
         transform="matrix(0.4,0,0,0.4,4,0)"
         style="fill:#800080;fill-opacity:1;fill-rule:evenodd;stroke:#800080;stroke-width:1.00000003pt;stroke-opacity:1"
         d="M 0,0 5,-5 -12.5,0 5,5 Z"
         id="path1337"
         inkscape:connector-curvature="0" />
    </marker>
    <marker
       inkscape:isstock="true"
       style="overflow:visible"
       id="marker1005"
       refX="0"
       refY="0"
       orient="auto"
       inkscape:stockid="Arrow1Mend"
       inkscape:collect="always">
      <path
         inkscape:connector-curvature="0"
         transform="matrix(-0.4,0,0,-0.4,-4,0)"
         style="fill:#0000ff;fill-opacity:1;fill-rule:evenodd;stroke:#0000ff;stroke-width:1.00000003pt;stroke-opacity:1"
         d="M 0,0 5,-5 -12.5,0 5,5 Z"
         id="path1003" />
    </marker>
    <marker
       inkscape:stockid="Arrow1Send"
       orient="auto"
       refY="0"
       refX="0"
       id="Arrow1Send"
       style="overflow:visible"
       inkscape:isstock="true"
       inkscape:collect="always">
      <path
         id="path875"
         d="M 0,0 5,-5 -12.5,0 5,5 Z"
         style="fill:#0000ff;fill-opacity:1;fill-rule:evenodd;stroke:#0000ff;stroke-width:1.00000003pt;stroke-opacity:1"
         transform="matrix(-0.2,0,0,-0.2,-1.2,0)"
         inkscape:connector-curvature="0" />
    </marker>
    <marker
       inkscape:isstock="true"
       style="overflow:visible"
       id="marker1304"
       refX="0"
       refY="0"
       orient="auto"
       inkscape:stockid="Arrow1Mend">
      <path
         transform="matrix(-0.4,0,0,-0.4,-4,0)"
         style="fill:#008000;fill-opacity:1;fill-rule:evenodd;stroke:#008000;stroke-width:1.00000003pt;stroke-opacity:1"
         d="M 0,0 5,-5 -12.5,0 5,5 Z"
         id="path1302"
         inkscape:connector-curvature="0" />
    </marker>
    <marker
       inkscape:isstock="true"
       style="overflow:visible"
       id="marker1210"
       refX="0"
       refY="0"
       orient="auto"
       inkscape:stockid="Arrow1Mend"
       inkscape:collect="always">
      <path
         transform="matrix(-0.4,0,0,-0.4,-4,0)"
         style="fill:#ff00ff;fill-opacity:1;fill-rule:evenodd;stroke:#ff00ff;stroke-width:1.00000003pt;stroke-opacity:1"
         d="M 0,0 5,-5 -12.5,0 5,5 Z"
         id="path1208"
         inkscape:connector-curvature="0" />
    </marker>
    <marker
       inkscape:stockid="Arrow1Mend"
       orient="auto"
       refY="0"
       refX="0"
       id="Arrow1Mend"
       style="overflow:visible"
       inkscape:isstock="true"
       inkscape:collect="always">
      <path
         id="path869"
         d="M 0,0 5,-5 -12.5,0 5,5 Z"
         style="fill:#008000;fill-opacity:1;fill-rule:evenodd;stroke:#008000;stroke-width:1.00000003pt;stroke-opacity:1"
         transform="matrix(-0.4,0,0,-0.4,-4,0)"
         inkscape:connector-curvature="0" />
    </marker>
    <font
       horiz-adv-x="1024"
       id="font3030"
       inkscape:label="шрифт 1"
       horiz-origin-x="0"
       horiz-origin-y="0"
       vert-origin-x="45"
       vert-origin-y="90"
       vert-adv-y="90">
      <font-face
         units-per-em="1024"
         id="font-face3032"
         font-family="SVGFont 1" />
      <missing-glyph
         d="M0,0h1000v1024h-1000z"
         id="missing-glyph3034" />
    </font>
  </defs>
  <sodipodi:namedview
     id="base"
     pagecolor="#ffffff"
     bordercolor="#666666"
     borderopacity="1.0"
     inkscape:pageopacity="0.0"
     inkscape:pageshadow="2"
     inkscape:zoom="5.6992112"
     inkscape:cx="43.064706"
     inkscape:cy="91.381545"
     inkscape:document-units="mm"
     inkscape:current-layer="layer1"
     showgrid="false"
     units="mm"
     inkscape:window-width="1920"
     inkscape:window-height="1009"
     inkscape:window-x="0"
     inkscape:window-y="0"
     inkscape:window-maximized="1"
     inkscape:snap-global="false"
     fit-margin-left="2"
     fit-margin-top="2"
     fit-margin-right="2"
     fit-margin-bottom="2"
     inkscape:snap-bbox="true" />
  <metadata
     id="metadata3003">
    <rdf:RDF>
      <cc:Work
         rdf:about="">
        <dc:format>image/svg+xml</dc:format>
        <dc:type
           rdf:resource="http://purl.org/dc/dcmitype/StillImage" />
        <dc:title></dc:title>
      </cc:Work>
    </rdf:RDF>
  </metadata>
  <g
     inkscape:label="Layer 1"
     inkscape:groupmode="layer"
     id="layer1"
     transform="translate(-59.228974,-908.0274)">
    <g
       id="g4670"
       transform="rotate(-68.682786,117.85742,982.4791)">
      <path
         style="fill:none;stroke:#ffd5e5;stroke-width:2.66666675;stroke-linecap:butt;stroke-linejoin:miter;stroke-opacity:1"
         d="m 109.73342,985.2899 h 29.34641"
         id="path4635"
         inkscape:connector-curvature="0"
         sodipodi:nodetypes="cc" />
      <path
         sodipodi:nodetypes="cc"
         inkscape:connector-curvature="0"
         id="path4637"
         d="m 142.02452,985.2899 h 28.01563"
         style="fill:none;stroke:#ffd5e5;stroke-width:2.66666675;stroke-linecap:butt;stroke-linejoin:miter;stroke-opacity:1" />
      <path
         sodipodi:nodetypes="cc"
         inkscape:connector-curvature="0"
         id="path4631"
         d="m 109.56587,981.49862 h 8.36274"
         style="fill:none;stroke:#aaccff;stroke-width:2.66666675;stroke-linecap:butt;stroke-linejoin:miter;stroke-opacity:1" />
      <path
         style="fill:none;stroke:#aaccff;stroke-width:2.66666675;stroke-linecap:butt;stroke-linejoin:miter;stroke-opacity:1"
         d="m 120.3114,981.49862 h 8.37711"
         id="path4633"
         inkscape:connector-curvature="0"
         sodipodi:nodetypes="cc" />
      <path
         sodipodi:nodetypes="cc"
         inkscape:connector-curvature="0"
         id="path3615"
         d="m 108.87523,983.38557 h 62.26556"
         style="fill:none;stroke:#000000;stroke-width:0.667;stroke-linecap:butt;stroke-linejoin:miter;stroke-miterlimit:4;stroke-dasharray:2.66799998, 0.667;stroke-dashoffset:0;stroke-opacity:1" />
      <path
         sodipodi:nodetypes="cc"
         inkscape:connector-curvature="0"
         id="path1415"
         d="M 64.176064,997.86127 H 105.49757"
         style="fill:none;stroke:#000000;stroke-width:0.66666669;stroke-linecap:butt;stroke-linejoin:miter;stroke-miterlimit:4;stroke-dasharray:2.66666675, 2.66666675;stroke-dashoffset:0;stroke-opacity:1" />
      <path
         style="fill:none;stroke:#000000;stroke-width:0.66666669;stroke-linecap:butt;stroke-linejoin:miter;stroke-miterlimit:4;stroke-dasharray:2.66666675, 2.66666675;stroke-dashoffset:0;stroke-opacity:1"
         d="M 106.15556,1036.156 V 998.16834"
         id="path1561"
         inkscape:connector-curvature="0"
         sodipodi:nodetypes="cc" />
      <path
         inkscape:connector-curvature="0"
         id="path56"
         d="M 119.18367,921.27172 V 1043.9202"
         style="fill:none;stroke:#0000ff;stroke-width:0.5;stroke-linecap:butt;stroke-linejoin:miter;stroke-opacity:1" />
      <path
         inkscape:connector-curvature="0"
         id="path1297"
         d="m 64.08833,1036.3754 h 41.23378"
         style="fill:none;stroke:#ff00ff;stroke-width:0.66666669;stroke-linecap:butt;stroke-linejoin:miter;stroke-opacity:1;marker-end:url(#marker1210)" />
      <path
         sodipodi:nodetypes="cc"
         inkscape:connector-curvature="0"
         id="path1299"
         d="M 64.08833,1036.3754 V 998.91404"
         style="fill:#008000;stroke:#008000;stroke-width:0.667;stroke-linecap:butt;stroke-linejoin:miter;stroke-miterlimit:4;stroke-dasharray:none;stroke-opacity:1;marker-end:url(#Arrow1Mend)" />
      <path
         sodipodi:nodetypes="cc"
         style="fill:none;stroke:#ff00ff;stroke-width:0.66666669;stroke-linecap:butt;stroke-linejoin:miter;stroke-opacity:1;marker-end:url(#marker1573)"
         d="m 119.3689,1032.1643 h 19.99301"
         id="path1569"
         inkscape:connector-curvature="0" />
      <path
         style="fill:none;stroke:#ff0000;stroke-width:0.5;stroke-linecap:butt;stroke-linejoin:miter;stroke-opacity:1"
         d="m 140.59014,921.27172 0.0486,114.29928"
         id="path3033"
         inkscape:connector-curvature="0"
         sodipodi:nodetypes="cc" />
      <path
         style="opacity:1;fill:#0000ff;fill-opacity:1;stroke:#ff0000;stroke-width:0.66666669;stroke-linecap:square;stroke-linejoin:round;stroke-miterlimit:4;stroke-dasharray:2.66666675, 0.44444446;stroke-dashoffset:0;stroke-opacity:1;paint-order:markers fill stroke"
         d="m 110.32211,983.38556 a 1.7546288,1.6376536 0 0 1 -1.75463,1.63765 1.7546288,1.6376536 0 0 1 -1.75463,-1.63765 1.7546288,1.6376536 0 0 1 1.75463,-1.63765 1.7546288,1.6376536 0 0 1 1.75463,1.63765 z"
         id="ellipse3035" />
      <path
         inkscape:connector-curvature="0"
         id="path58"
         d="m 64.08833,1036.3754 40.35646,-37.19816"
         style="fill:none;stroke:#0000ff;stroke-width:1px;stroke-linecap:butt;stroke-linejoin:miter;stroke-opacity:1;marker-end:url(#marker1005)" />
      <path
         style="opacity:1;fill:#0000ff;fill-opacity:1;stroke:none;stroke-width:0.33333331;stroke-linecap:square;stroke-linejoin:round;stroke-miterlimit:4;stroke-dasharray:2.66666675, 0.44444446;stroke-dashoffset:0;stroke-opacity:1;paint-order:markers fill stroke"
         d="m 131.40531,983.38556 a 1.7546288,1.6376536 0 0 1 -1.75463,1.63765 1.7546288,1.6376536 0 0 1 -1.75463,-1.63765 1.7546288,1.6376536 0 0 1 1.75463,-1.63765 1.7546288,1.6376536 0 0 1 1.75463,1.63765 z"
         id="ellipse3055" />
      <path
         sodipodi:nodetypes="cc"
         style="fill:none;stroke:#0000ff;stroke-width:0.66666669;stroke-linecap:butt;stroke-linejoin:miter;stroke-opacity:1;marker-end:url(#marker3067)"
         d="m 129.88691,983.03469 39.43492,-36.82117"
         id="path3063"
         inkscape:connector-curvature="0" />
      <path
         style="fill:#008000;stroke:#008000;stroke-width:0.667;stroke-linecap:butt;stroke-linejoin:miter;stroke-miterlimit:4;stroke-dasharray:none;stroke-opacity:1;marker-end:url(#marker3631)"
         d="M 171.15442,983.76389 V 946.72141"
         id="path3627"
         inkscape:connector-curvature="0"
         sodipodi:nodetypes="cc" />
      <path
         style="opacity:1;fill:#0000ff;fill-opacity:1;stroke:#ff0000;stroke-width:0.66666669;stroke-linecap:square;stroke-linejoin:round;stroke-miterlimit:4;stroke-dasharray:2.66666675, 0.44444446;stroke-dashoffset:0;stroke-opacity:1;paint-order:markers fill stroke"
         d="m 172.98678,943.6756 a 1.7546288,1.6376536 0 0 1 -1.75463,1.63765 1.7546288,1.6376536 0 0 1 -1.75463,-1.63765 1.7546288,1.6376536 0 0 1 1.75463,-1.63766 1.7546288,1.6376536 0 0 1 1.75463,1.63766 z"
         id="ellipse4407" />
      <path
         style="opacity:1;fill:#ffffff;fill-opacity:1;stroke:#ff0000;stroke-width:0.66666669;stroke-linecap:square;stroke-linejoin:round;stroke-miterlimit:4;stroke-dasharray:2.66666675, 0.44444446;stroke-dashoffset:0;stroke-opacity:1;paint-order:markers fill stroke"
         d="m 172.98678,983.38556 a 1.7546288,1.6376536 0 0 1 -1.75463,1.63765 1.7546288,1.6376536 0 0 1 -1.75463,-1.63765 1.7546288,1.6376536 0 0 1 1.75463,-1.63765 1.7546288,1.6376536 0 0 1 1.75463,1.63765 z"
         id="ellipse3619" />
      <g
         aria-label="старая ось"
         transform="matrix(0,1,-1,-0.27574365,0,0)"
         style="font-style:normal;font-variant:normal;font-weight:normal;font-stretch:normal;font-size:10.66666698px;line-height:64px;font-family:'GOST type B';-inkscape-font-specification:'GOST type B';text-align:start;letter-spacing:0px;word-spacing:0px;text-anchor:start;fill:#0000ff;fill-opacity:1;stroke:none"
         id="text4641">
        <path
           d="m 889.99878,-122.21464 h -1.09375 q -0.58854,0 -1.02604,-0.42187 -0.43229,-0.42188 -0.43229,-1.03646 v -2.1875 q 0,-0.60417 0.42708,-1.03125 0.42708,-0.42708 1.03125,-0.42708 h 1.09375 q 0.15104,0 0.25521,0.11458 0.10937,0.10937 0.10937,0.25 0,0.125 -0.0937,0.24479 -0.0885,0.11979 -0.27083,0.11979 h -1.09375 q -0.30729,0 -0.52083,0.20834 -0.10417,0.10416 -0.15625,0.23958 -0.0521,0.13021 -0.0521,0.28125 v 2.1875 q 0,0.30729 0.20834,0.52083 0.10937,0.0937 0.23437,0.15625 0.15625,0.0521 0.28646,0.0521 h 1.09375 q 0.15104,0 0.25521,0.11458 0.10937,0.10937 0.10937,0.25 0,0.125 -0.0937,0.24479 -0.0885,0.11979 -0.27083,0.11979 z"
           style="font-size:10.66666698px;fill:#0000ff"
           id="path5180" />
        <path
           d="m 894.0092,-126.58964 h -1.45834 v 4.01042 q 0,0.17187 -0.10416,0.27604 -0.099,0.0885 -0.26042,0.0885 -0.14583,0 -0.25521,-0.0885 -0.10937,-0.0937 -0.10937,-0.27604 v -4.375 q 0,-0.36458 0.36458,-0.36458 h 3.28125 q 0.59375,0 1.02604,0.42708 0.43229,0.42187 0.43229,1.03125 v 3.28125 q 0,0.17187 -0.10416,0.27604 -0.099,0.0885 -0.26042,0.0885 -0.14583,0 -0.25521,-0.0885 -0.10937,-0.0937 -0.10937,-0.27604 v -3.28125 q 0,-0.30729 -0.20834,-0.51563 -0.20312,-0.21354 -0.52083,-0.21354 h -0.72917 v 4.01042 q 0,0.17187 -0.10416,0.27604 -0.099,0.0885 -0.26042,0.0885 -0.14583,0 -0.25521,-0.0885 -0.10937,-0.0937 -0.10937,-0.27604 z"
           style="font-size:10.66666698px;fill:#0000ff"
           id="path5182" />
        <path
           d="m 901.30086,-123.67297 v -2.91667 h -1.45833 q -0.30729,0 -0.52083,0.20834 -0.10417,0.10416 -0.15625,0.23958 -0.0521,0.13021 -0.0521,0.28125 v 2.1875 q 0,0.30729 0.20834,0.52083 0.10937,0.0937 0.23437,0.15625 0.15625,0.0521 0.28646,0.0521 h 0.72917 q 0.30208,0 0.51562,-0.20313 0.21354,-0.20312 0.21354,-0.52604 z m 0.35938,0.97917 q -0.17709,0.20312 -0.48438,0.34375 -0.30208,0.13541 -0.60416,0.13541 h -0.72917 q -0.58854,0 -1.02604,-0.42187 -0.43229,-0.42188 -0.43229,-1.03646 v -2.1875 q 0,-0.60417 0.42708,-1.03125 0.42708,-0.42708 1.03125,-0.42708 h 1.82292 q 0.36458,0 0.36458,0.36458 v 3.27604 q 0,0.21875 0.14062,0.44792 0.125,0.20312 0.36459,0.31771 0.22916,0.0937 0.22916,0.32812 0,0.16146 -0.10416,0.26563 -0.0937,0.10937 -0.26042,0.10937 -0.0781,0 -0.15104,-0.0365 -0.35938,-0.14062 -0.58854,-0.44791 z"
           style="font-size:10.66666698px;fill:#0000ff"
           id="path5184" />
        <path
           d="m 904.21753,-122.9438 h 1.45833 q 0.30209,0 0.51563,-0.20313 0.21354,-0.20312 0.21354,-0.52604 v -2.1875 q 0,-0.30729 -0.20833,-0.51563 -0.20313,-0.21354 -0.52084,-0.21354 h -1.45833 z m 0,0.72916 v 1.82292 q 0,0.15104 -0.11458,0.25521 -0.10938,0.10937 -0.25,0.10937 -0.125,0 -0.24479,-0.0937 -0.1198,-0.0885 -0.1198,-0.27083 v -6.5625 q 0,-0.36458 0.36459,-0.36458 h 1.82291 q 0.59375,0 1.02605,0.42708 0.43229,0.42187 0.43229,1.03125 v 2.1875 q 0,0.59896 -0.42709,1.03125 -0.42708,0.42708 -1.03125,0.42708 z"
           style="font-size:10.66666698px;fill:#0000ff"
           id="path5186" />
        <path
           d="m 911.5092,-123.67297 v -2.91667 h -1.45834 q -0.30729,0 -0.52083,0.20834 -0.10417,0.10416 -0.15625,0.23958 -0.0521,0.13021 -0.0521,0.28125 v 2.1875 q 0,0.30729 0.20833,0.52083 0.10937,0.0937 0.23437,0.15625 0.15625,0.0521 0.28646,0.0521 h 0.72917 q 0.30208,0 0.51563,-0.20313 0.21354,-0.20312 0.21354,-0.52604 z m 0.35937,0.97917 q -0.17708,0.20312 -0.48437,0.34375 -0.30209,0.13541 -0.60417,0.13541 h -0.72917 q -0.58854,0 -1.02604,-0.42187 -0.43229,-0.42188 -0.43229,-1.03646 v -2.1875 q 0,-0.60417 0.42708,-1.03125 0.42709,-0.42708 1.03125,-0.42708 h 1.82292 q 0.36458,0 0.36458,0.36458 v 3.27604 q 0,0.21875 0.14063,0.44792 0.125,0.20312 0.36458,0.31771 0.22917,0.0937 0.22917,0.32812 0,0.16146 -0.10417,0.26563 -0.0937,0.10937 -0.26041,0.10937 -0.0781,0 -0.15105,-0.0365 -0.35937,-0.14062 -0.58854,-0.44791 z"
           style="font-size:10.66666698px;fill:#0000ff"
           id="path5188" />
        <path
           d="m 916.61336,-125.1313 v -1.45834 h -1.45833 q -0.30729,0 -0.54167,0.21875 -0.1875,0.21354 -0.1875,0.51042 0,0.27604 0.1875,0.50521 0.19271,0.22396 0.54167,0.22396 z m -0.89583,0.72916 -1.34896,2.02604 q -0.0417,0.0677 -0.14062,0.13021 l -0.16146,0.0365 q -0.11459,0 -0.25521,-0.10937 -0.11979,-0.10938 -0.11979,-0.26042 0,-0.0937 0.0625,-0.20313 l 1.09375,-1.64062 q -0.53646,-0.0781 -0.84375,-0.50521 -0.30729,-0.42708 -0.30729,-0.93229 0,-0.58854 0.36458,-1 0.41146,-0.45833 1.09375,-0.45833 h 1.82292 q 0.36458,0 0.36458,0.36458 v 4.375 q 0,0.17187 -0.10417,0.27604 -0.099,0.0885 -0.26041,0.0885 -0.14584,0 -0.25521,-0.0885 -0.10938,-0.0937 -0.10938,-0.27604 v -1.82292 z"
           style="font-size:10.66666698px;fill:#0000ff"
           id="path5190" />
        <path
           d="m 926.8217,-123.8188 q 0,0.65104 -0.46875,1.1302 -0.46354,0.47396 -1.13542,0.47396 h -0.4375 q -0.65104,0 -1.13021,-0.46354 -0.47396,-0.46354 -0.47396,-1.14062 v -1.89584 q 0,-0.64062 0.46875,-1.11979 0.46875,-0.48437 1.13542,-0.48437 h 0.4375 q 0.65104,0 1.125,0.46875 0.47917,0.46354 0.47917,1.13541 z m -0.72917,0 v -1.89584 q 0,-0.35937 -0.25521,-0.61458 -0.25,-0.26042 -0.61979,-0.26042 h -0.4375 q -0.35937,0 -0.61979,0.25521 -0.25521,0.25521 -0.25521,0.61979 v 1.89584 q 0,0.35937 0.25521,0.61979 0.25521,0.25521 0.61979,0.25521 h 0.4375 q 0.35417,0 0.61458,-0.25 0.26042,-0.25 0.26042,-0.625 z"
           style="font-size:10.66666698px;fill:#0000ff"
           id="path5192" />
        <path
           d="m 930.83212,-122.21464 h -1.09375 q -0.58855,0 -1.02605,-0.42187 -0.43229,-0.42188 -0.43229,-1.03646 v -2.1875 q 0,-0.60417 0.42709,-1.03125 0.42708,-0.42708 1.03125,-0.42708 h 1.09375 q 0.15104,0 0.2552,0.11458 0.10938,0.10937 0.10938,0.25 0,0.125 -0.0937,0.24479 -0.0885,0.11979 -0.27083,0.11979 h -1.09375 q -0.3073,0 -0.52084,0.20834 -0.10416,0.10416 -0.15625,0.23958 -0.0521,0.13021 -0.0521,0.28125 v 2.1875 q 0,0.30729 0.20833,0.52083 0.10938,0.0937 0.23438,0.15625 0.15625,0.0521 0.28646,0.0521 h 1.09375 q 0.15104,0 0.2552,0.11458 0.10938,0.10937 0.10938,0.25 0,0.125 -0.0937,0.24479 -0.0885,0.11979 -0.27083,0.11979 z"
           style="font-size:10.66666698px;fill:#0000ff"
           id="path5194" />
        <path
           d="m 933.3842,-124.40214 v 1.45834 h 1.45833 q 0.33334,0 0.53125,-0.21875 0.19792,-0.22396 0.19792,-0.51042 0,-0.30729 -0.17708,-0.50521 -0.0886,-0.099 -0.22917,-0.16146 -0.14063,-0.0625 -0.32292,-0.0625 z m 0,-0.72916 h 1.45833 q 0.6875,0 1.09375,0.45312 0.36459,0.41146 0.36459,1.00521 0,0.57812 -0.35938,1 -0.41146,0.45833 -1.09896,0.45833 h -1.82291 q -0.36459,0 -0.36459,-0.36458 v -4.375 q 0,-0.14583 0.10938,-0.27083 0.10937,-0.0937 0.25521,-0.0937 0.14062,0 0.25,0.0937 0.11458,0.0885 0.11458,0.27083 z"
           style="font-size:10.66666698px;fill:#0000ff"
           id="path5196" />
      </g>
      <g
         aria-label="новая ось"
         transform="matrix(0,1,-1,-0.27574365,0,0)"
         style="font-style:normal;font-variant:normal;font-weight:normal;font-stretch:normal;font-size:10.66666698px;line-height:64px;font-family:'GOST type B';-inkscape-font-specification:'GOST type B';text-align:start;letter-spacing:0px;word-spacing:0px;text-anchor:start;fill:#ff0000;fill-opacity:1;stroke:none"
         id="text4645">
        <path
           d="m 884.73195,-145.16003 v -1.82292 q 0,-0.14583 0.10938,-0.27083 0.10937,-0.0937 0.25521,-0.0937 0.14062,0 0.25,0.0937 0.11458,0.0885 0.11458,0.27083 v 4.375 q 0,0.17188 -0.10417,0.27605 -0.0989,0.0885 -0.26041,0.0885 -0.14584,0 -0.25521,-0.0885 -0.10938,-0.0937 -0.10938,-0.27605 v -1.82291 h -2.1875 v 1.82291 q 0,0.17188 -0.10416,0.27605 -0.099,0.0885 -0.26042,0.0885 -0.14583,0 -0.25521,-0.0885 -0.10937,-0.0937 -0.10937,-0.27605 v -4.375 q 0,-0.14583 0.10937,-0.27083 0.10938,-0.0937 0.25521,-0.0937 0.14063,0 0.25,0.0937 0.11458,0.0885 0.11458,0.27083 v 1.82292 z"
           style="font-size:10.66666698px;fill:#ff0000"
           id="path5199" />
        <path
           d="m 890.56529,-143.84753 q 0,0.65104 -0.46875,1.13021 -0.46354,0.47396 -1.13542,0.47396 h -0.4375 q -0.65104,0 -1.13021,-0.46354 -0.47396,-0.46355 -0.47396,-1.14063 v -1.89583 q 0,-0.64063 0.46875,-1.11979 0.46875,-0.48438 1.13542,-0.48438 h 0.4375 q 0.65104,0 1.125,0.46875 0.47917,0.46354 0.47917,1.13542 z m -0.72917,0 v -1.89583 q 0,-0.35938 -0.25521,-0.61459 -0.25,-0.26041 -0.61979,-0.26041 h -0.4375 q -0.35937,0 -0.61979,0.25521 -0.25521,0.2552 -0.25521,0.61979 v 1.89583 q 0,0.35938 0.25521,0.61979 0.25521,0.25521 0.61979,0.25521 h 0.4375 q 0.35417,0 0.61458,-0.25 0.26042,-0.25 0.26042,-0.625 z"
           style="font-size:10.66666698px;fill:#ff0000"
           id="path5201" />
        <path
           d="m 894.94029,-143.7017 v -2.1875 q 0,-0.30729 -0.20834,-0.51562 -0.20312,-0.21354 -0.52083,-0.21354 h -0.72917 q -0.30729,0 -0.52083,0.20833 -0.10417,0.10417 -0.15625,0.23958 -0.0521,0.13021 -0.0521,0.28125 v 2.1875 q 0,0.3073 0.20833,0.52084 0.10938,0.0937 0.23438,0.15625 0.15625,0.0521 0.28645,0.0521 h 0.72917 q 0.30208,0 0.51563,-0.20312 0.21354,-0.20313 0.21354,-0.52605 z m -2.1875,-3.39062 0.29687,-0.19792 0.43229,-0.30208 q 0.20834,-0.16146 0.29688,-0.27083 0.14062,-0.17188 0.14062,-0.35938 0,-0.25 -0.17708,-0.42187 -0.17708,-0.15105 -0.40625,-0.15105 -0.23958,0 -0.41146,0.15105 -0.17187,0.14062 -0.17187,0.42187 z m 1.45833,-0.23438 q 0.69792,0 1.09375,0.41667 0.36458,0.39583 0.36458,1.02083 v 2.1875 q 0,0.59896 -0.42708,1.03125 -0.42708,0.42709 -1.03125,0.42709 h -0.72917 q -0.58854,0 -1.02604,-0.42188 -0.43229,-0.42187 -0.43229,-1.03646 v -4.52083 q 0,-0.60937 0.40625,-0.98437 0.38021,-0.33334 0.91146,-0.33334 0.50521,0 0.90625,0.34375 0.40104,0.34375 0.40104,0.96875 0,0.35417 -0.10417,0.53125 -0.0885,0.18229 -0.33333,0.36979 z"
           style="font-size:10.66666698px;fill:#ff0000"
           id="path5203" />
        <path
           d="m 900.04446,-143.7017 v -2.91666 h -1.45834 q -0.30729,0 -0.52083,0.20833 -0.10417,0.10417 -0.15625,0.23958 -0.0521,0.13021 -0.0521,0.28125 v 2.1875 q 0,0.3073 0.20834,0.52084 0.10937,0.0937 0.23437,0.15625 0.15625,0.0521 0.28646,0.0521 h 0.72917 q 0.30208,0 0.51562,-0.20312 0.21355,-0.20313 0.21355,-0.52605 z m 0.35937,0.97917 q -0.17708,0.20313 -0.48438,0.34375 -0.30208,0.13542 -0.60416,0.13542 h -0.72917 q -0.58854,0 -1.02604,-0.42188 -0.43229,-0.42187 -0.43229,-1.03646 v -2.1875 q 0,-0.60416 0.42708,-1.03125 0.42708,-0.42708 1.03125,-0.42708 h 1.82292 q 0.36458,0 0.36458,0.36458 v 3.27605 q 0,0.21875 0.14063,0.44791 0.125,0.20313 0.36458,0.31771 0.22917,0.0937 0.22917,0.32813 0,0.16145 -0.10417,0.26562 -0.0937,0.10938 -0.26042,0.10938 -0.0781,0 -0.15104,-0.0365 -0.35937,-0.14063 -0.58854,-0.44792 z"
           style="font-size:10.66666698px;fill:#ff0000"
           id="path5205" />
        <path
           d="m 905.14862,-145.16003 v -1.45833 h -1.45833 q -0.30729,0 -0.54167,0.21875 -0.1875,0.21354 -0.1875,0.51041 0,0.27605 0.1875,0.50521 0.19271,0.22396 0.54167,0.22396 z m -0.89583,0.72917 -1.34896,2.02604 q -0.0417,0.0677 -0.14062,0.13021 l -0.16146,0.0365 q -0.11459,0 -0.25521,-0.10938 -0.11979,-0.10937 -0.11979,-0.26042 0,-0.0937 0.0625,-0.20312 l 1.09375,-1.64063 q -0.53646,-0.0781 -0.84375,-0.5052 -0.30729,-0.42709 -0.30729,-0.9323 0,-0.58854 0.36458,-1 0.41146,-0.45833 1.09375,-0.45833 h 1.82292 q 0.36458,0 0.36458,0.36458 v 4.375 q 0,0.17188 -0.10417,0.27605 -0.099,0.0885 -0.26041,0.0885 -0.14584,0 -0.25521,-0.0885 -0.10938,-0.0937 -0.10938,-0.27605 v -1.82291 z"
           style="font-size:10.66666698px;fill:#ff0000"
           id="path5207" />
        <path
           d="m 915.35696,-143.84753 q 0,0.65104 -0.46875,1.13021 -0.46355,0.47396 -1.13542,0.47396 h -0.4375 q -0.65104,0 -1.13021,-0.46354 -0.47396,-0.46355 -0.47396,-1.14063 v -1.89583 q 0,-0.64063 0.46875,-1.11979 0.46875,-0.48438 1.13542,-0.48438 h 0.4375 q 0.65104,0 1.125,0.46875 0.47917,0.46354 0.47917,1.13542 z m -0.72917,0 v -1.89583 q 0,-0.35938 -0.25521,-0.61459 -0.25,-0.26041 -0.61979,-0.26041 h -0.4375 q -0.35938,0 -0.61979,0.25521 -0.25521,0.2552 -0.25521,0.61979 v 1.89583 q 0,0.35938 0.25521,0.61979 0.25521,0.25521 0.61979,0.25521 h 0.4375 q 0.35417,0 0.61458,-0.25 0.26042,-0.25 0.26042,-0.625 z"
           style="font-size:10.66666698px;fill:#ff0000"
           id="path5209" />
        <path
           d="m 919.36737,-142.24336 h -1.09375 q -0.58854,0 -1.02604,-0.42188 -0.43229,-0.42187 -0.43229,-1.03646 v -2.1875 q 0,-0.60416 0.42708,-1.03125 0.42708,-0.42708 1.03125,-0.42708 h 1.09375 q 0.15104,0 0.25521,0.11458 0.10937,0.10938 0.10937,0.25 0,0.125 -0.0937,0.2448 -0.0885,0.11979 -0.27083,0.11979 h -1.09375 q -0.30729,0 -0.52083,0.20833 -0.10417,0.10417 -0.15625,0.23958 -0.0521,0.13021 -0.0521,0.28125 v 2.1875 q 0,0.3073 0.20834,0.52084 0.10937,0.0937 0.23437,0.15625 0.15625,0.0521 0.28646,0.0521 h 1.09375 q 0.15104,0 0.25521,0.11458 0.10937,0.10938 0.10937,0.25 0,0.125 -0.0937,0.2448 -0.0885,0.11979 -0.27083,0.11979 z"
           style="font-size:10.66666698px;fill:#ff0000"
           id="path5211" />
        <path
           d="m 921.91945,-144.43086 v 1.45833 h 1.45834 q 0.33333,0 0.53125,-0.21875 0.19791,-0.22396 0.19791,-0.51042 0,-0.30729 -0.17708,-0.5052 -0.0885,-0.099 -0.22917,-0.16146 -0.14062,-0.0625 -0.32291,-0.0625 z m 0,-0.72917 h 1.45834 q 0.6875,0 1.09375,0.45313 0.36458,0.41145 0.36458,1.0052 0,0.57813 -0.35937,1 -0.41146,0.45834 -1.09896,0.45834 h -1.82292 q -0.36458,0 -0.36458,-0.36459 v -4.375 q 0,-0.14583 0.10937,-0.27083 0.10938,-0.0937 0.25521,-0.0937 0.14063,0 0.25,0.0937 0.11458,0.0885 0.11458,0.27083 z"
           style="font-size:10.66666698px;fill:#ff0000"
           id="path5213" />
      </g>
    </g>
    <g
       id="g4877"
       transform="translate(57.805636,14.409521)">
      <g
         aria-label="p"
         transform="skewX(-11.748824)"
         style="font-style:normal;font-variant:normal;font-weight:normal;font-stretch:normal;font-size:10.66666698px;line-height:64px;font-family:'GOST type B';-inkscape-font-specification:'GOST type B';text-align:start;letter-spacing:0px;word-spacing:0px;text-anchor:start;fill:#0000ff;fill-opacity:1;stroke:none"
         id="text4674">
        <path
           d="m 294.32212,1008.8423 h 1.82292 q 0.3776,0 0.64453,-0.2539 0.26693,-0.2539 0.26693,-0.6576 v -2.7344 q 0,-0.3841 -0.26042,-0.6445 -0.2539,-0.2669 -0.65104,-0.2669 h -1.82292 z m 0,0.9114 v 2.2787 q 0,0.1888 -0.14323,0.319 -0.13671,0.1367 -0.3125,0.1367 -0.15625,0 -0.30599,-0.1172 -0.14974,-0.1107 -0.14974,-0.3385 v -8.2032 q 0,-0.4557 0.45573,-0.4557 h 2.27865 q 0.74219,0 1.28255,0.5339 0.54037,0.5273 0.54037,1.289 v 2.7344 q 0,0.7487 -0.53386,1.2891 -0.53385,0.5338 -1.28906,0.5338 z"
           style="font-size:13.33333302px;fill:#0000ff"
           id="path5216" />
      </g>
      <path
         inkscape:connector-curvature="0"
         id="path4676"
         d="m 83.470494,1001.5201 h 5.613011"
         style="fill:none;stroke:#0000ff;stroke-width:0.667;stroke-linecap:butt;stroke-linejoin:miter;stroke-miterlimit:4;stroke-dasharray:none;stroke-opacity:1;marker-end:url(#Arrow1Send)" />
    </g>
    <g
       transform="translate(31.499883,-66.853475)"
       id="g4885">
      <g
         aria-label="p"
         transform="skewX(-11.748824)"
         style="font-style:normal;font-variant:normal;font-weight:normal;font-stretch:normal;font-size:10.66666698px;line-height:64px;font-family:'GOST type B';-inkscape-font-specification:'GOST type B';text-align:start;letter-spacing:0px;word-spacing:0px;text-anchor:start;fill:#0000ff;fill-opacity:1;stroke:none"
         id="text4881">
        <path
           d="m 294.32212,1008.8423 h 1.82292 q 0.3776,0 0.64453,-0.2539 0.26693,-0.2539 0.26693,-0.6576 v -2.7344 q 0,-0.3841 -0.26042,-0.6445 -0.2539,-0.2669 -0.65104,-0.2669 h -1.82292 z m 0,0.9114 v 2.2787 q 0,0.1888 -0.14323,0.319 -0.13671,0.1367 -0.3125,0.1367 -0.15625,0 -0.30599,-0.1172 -0.14974,-0.1107 -0.14974,-0.3385 v -8.2032 q 0,-0.4557 0.45573,-0.4557 h 2.27865 q 0.74219,0 1.28255,0.5339 0.54037,0.5273 0.54037,1.289 v 2.7344 q 0,0.7487 -0.53386,1.2891 -0.53385,0.5338 -1.28906,0.5338 z"
           style="font-size:13.33333302px;fill:#0000ff"
           id="path5219" />
      </g>
      <path
         style="fill:none;stroke:#0000ff;stroke-width:0.667;stroke-linecap:butt;stroke-linejoin:miter;stroke-miterlimit:4;stroke-dasharray:none;stroke-opacity:1;marker-end:url(#Arrow1Send)"
         d="m 83.470494,1001.5201 h 5.613011"
         id="path4883"
         inkscape:connector-curvature="0" />
    </g>
    <g
       id="g5122">
      <g
         aria-label="p"
         transform="skewX(-11.748824)"
         style="font-style:normal;font-variant:normal;font-weight:normal;font-stretch:normal;font-size:10.66666698px;line-height:64px;font-family:'GOST type B';-inkscape-font-specification:'GOST type B';text-align:start;letter-spacing:0px;word-spacing:0px;text-anchor:start;fill:#008000;fill-opacity:1;stroke:none"
         id="text4889">
        <path
           d="m 339.13984,1035.8183 h 1.82292 q 0.3776,0 0.64453,-0.2539 0.26693,-0.2539 0.26693,-0.6576 v -2.7344 q 0,-0.3841 -0.26042,-0.6445 -0.25391,-0.2669 -0.65104,-0.2669 h -1.82292 z m 0,0.9114 v 2.2787 q 0,0.1888 -0.14323,0.319 -0.13672,0.1367 -0.3125,0.1367 -0.15625,0 -0.30599,-0.1172 -0.14974,-0.1107 -0.14974,-0.3385 v -8.2031 q 0,-0.4558 0.45573,-0.4558 h 2.27865 q 0.74219,0 1.28255,0.5339 0.54036,0.5273 0.54036,1.289 v 2.7344 q 0,0.7487 -0.53385,1.2891 -0.53385,0.5338 -1.28906,0.5338 z"
           style="font-size:13.33333302px;fill:#008000"
           id="path5222" />
      </g>
      <path
         style="fill:none;stroke:#008000;stroke-width:0.667;stroke-linecap:butt;stroke-linejoin:miter;stroke-miterlimit:4;stroke-dasharray:none;stroke-opacity:1;marker-end:url(#marker4911)"
         d="m 122.6778,1028.4961 h 5.61301"
         id="path4891"
         inkscape:connector-curvature="0" />
      <g
         aria-label="тан"
         style="font-style:normal;font-variant:normal;font-weight:normal;font-stretch:normal;font-size:10.66666698px;line-height:64px;font-family:'GOST type B';-inkscape-font-specification:'GOST type B';text-align:start;letter-spacing:0px;word-spacing:0px;text-anchor:start;fill:#008000;fill-opacity:1;stroke:none"
         id="text5111">
        <path
           d="m 127.57562,1038.4072 h -1.27604 v 3.5091 q 0,0.1504 -0.0911,0.2416 -0.0866,0.078 -0.22786,0.078 -0.12761,0 -0.22331,-0.078 -0.0957,-0.082 -0.0957,-0.2416 v -3.8281 q 0,-0.319 0.31901,-0.319 h 2.87109 q 0.51953,0 0.89779,0.3737 0.37825,0.3691 0.37825,0.9023 v 2.8711 q 0,0.1504 -0.0911,0.2416 -0.0866,0.078 -0.22787,0.078 -0.1276,0 -0.2233,-0.078 -0.0957,-0.082 -0.0957,-0.2416 v -2.8711 q 0,-0.2688 -0.18229,-0.4511 -0.17773,-0.1869 -0.45573,-0.1869 h -0.63802 v 3.5091 q 0,0.1504 -0.0911,0.2416 -0.0866,0.078 -0.22786,0.078 -0.1276,0 -0.22331,-0.078 -0.0957,-0.082 -0.0957,-0.2416 z"
           style="font-size:9.33333302px;fill:#008000"
           id="path5225" />
        <path
           d="m 133.95583,1040.9593 v -2.5521 h -1.27604 q -0.26888,0 -0.45573,0.1823 -0.0911,0.091 -0.13672,0.2097 -0.0456,0.1139 -0.0456,0.246 v 1.9141 q 0,0.2689 0.18229,0.4557 0.0957,0.082 0.20508,0.1368 0.13671,0.045 0.25065,0.045 h 0.63802 q 0.26432,0 0.45117,-0.1777 0.18685,-0.1777 0.18685,-0.4603 z m 0.31445,0.8568 q -0.15495,0.1777 -0.42383,0.3008 -0.26432,0.1185 -0.52864,0.1185 h -0.63802 q -0.51498,0 -0.89779,-0.3692 -0.37826,-0.3691 -0.37826,-0.9069 v -1.9141 q 0,-0.5286 0.3737,-0.9023 0.3737,-0.3737 0.90235,-0.3737 h 1.59505 q 0.31901,0 0.31901,0.319 v 2.8666 q 0,0.1914 0.12305,0.3919 0.10937,0.1777 0.31901,0.278 0.20052,0.082 0.20052,0.2871 0,0.1413 -0.0911,0.2324 -0.082,0.096 -0.22786,0.096 -0.0684,0 -0.13216,-0.032 -0.31446,-0.123 -0.51498,-0.3919 z"
           style="font-size:9.33333302px;fill:#008000"
           id="path5227" />
        <path
           d="m 138.42197,1039.6833 v -1.5951 q 0,-0.1276 0.0957,-0.237 0.0957,-0.082 0.2233,-0.082 0.12305,0 0.21875,0.082 0.10026,0.077 0.10026,0.237 v 3.8281 q 0,0.1504 -0.0911,0.2416 -0.0866,0.078 -0.22787,0.078 -0.1276,0 -0.2233,-0.078 -0.0957,-0.082 -0.0957,-0.2416 v -1.595 h -1.91406 v 1.595 q 0,0.1504 -0.0911,0.2416 -0.0866,0.078 -0.22787,0.078 -0.1276,0 -0.22331,-0.078 -0.0957,-0.082 -0.0957,-0.2416 v -3.8281 q 0,-0.1276 0.0957,-0.237 0.0957,-0.082 0.22331,-0.082 0.12305,0 0.21875,0.082 0.10026,0.077 0.10026,0.237 v 1.5951 z"
           style="font-size:9.33333302px;fill:#008000"
           id="path5229" />
      </g>
    </g>
    <g
       id="g5129">
      <g
         aria-label="p"
         transform="skewX(-11.748824)"
         style="font-style:normal;font-variant:normal;font-weight:normal;font-stretch:normal;font-size:10.66666698px;line-height:64px;font-family:'GOST type B';-inkscape-font-specification:'GOST type B';text-align:start;letter-spacing:0px;word-spacing:0px;text-anchor:start;fill:#ff00ff;fill-opacity:1;stroke:none"
         id="text4897">
        <path
           d="m 378.08317,1032.1321 h 1.82292 q 0.3776,0 0.64453,-0.2539 0.26693,-0.2539 0.26693,-0.6575 v -2.7344 q 0,-0.3841 -0.26042,-0.6445 -0.25391,-0.267 -0.65104,-0.267 h -1.82292 z m 0,0.9115 v 2.2786 q 0,0.1888 -0.14323,0.319 -0.13672,0.1368 -0.3125,0.1368 -0.15625,0 -0.30599,-0.1172 -0.14974,-0.1107 -0.14974,-0.3386 v -8.2031 q 0,-0.4557 0.45573,-0.4557 h 2.27865 q 0.74218,0 1.28255,0.5338 0.54036,0.5274 0.54036,1.2891 v 2.7344 q 0,0.7487 -0.53385,1.289 -0.53385,0.5339 -1.28906,0.5339 z"
           style="font-size:13.33333302px;fill:#ff00ff"
           id="path5232" />
      </g>
      <path
         style="fill:none;stroke:#ff00ff;stroke-width:0.667;stroke-linecap:butt;stroke-linejoin:miter;stroke-miterlimit:4;stroke-dasharray:none;stroke-opacity:1;marker-end:url(#marker5011)"
         d="m 162.38775,1024.8099 h 5.61301"
         id="path4899"
         inkscape:connector-curvature="0" />
      <g
         aria-label="норм"
         style="font-style:normal;font-variant:normal;font-weight:normal;font-stretch:normal;font-size:10.66666698px;line-height:64px;font-family:'GOST type B';-inkscape-font-specification:'GOST type B';text-align:start;letter-spacing:0px;word-spacing:0px;text-anchor:start;fill:#ff00ff;fill-opacity:1;stroke:none"
         id="text5115">
        <path
           d="m 168.59381,1036.1648 v -1.595 q 0,-0.1276 0.0957,-0.237 0.0957,-0.082 0.22331,-0.082 0.12304,0 0.21875,0.082 0.10026,0.078 0.10026,0.237 v 3.8281 q 0,0.1504 -0.0911,0.2415 -0.0866,0.077 -0.22786,0.077 -0.12761,0 -0.22331,-0.077 -0.0957,-0.082 -0.0957,-0.2415 v -1.595 h -1.91407 v 1.595 q 0,0.1504 -0.0911,0.2415 -0.0866,0.077 -0.22787,0.077 -0.1276,0 -0.2233,-0.077 -0.0957,-0.082 -0.0957,-0.2415 v -3.8281 q 0,-0.1276 0.0957,-0.237 0.0957,-0.082 0.2233,-0.082 0.12305,0 0.21875,0.082 0.10026,0.078 0.10026,0.237 v 1.595 z"
           style="font-size:9.33333302px;fill:#ff00ff"
           id="path5235" />
        <path
           d="m 173.69797,1037.3133 q 0,0.5696 -0.41015,0.9889 -0.4056,0.4147 -0.99349,0.4147 h -0.38282 q -0.56966,0 -0.98893,-0.4056 -0.41471,-0.4056 -0.41471,-0.998 v -1.6589 q 0,-0.5605 0.41015,-0.9798 0.41016,-0.4238 0.99349,-0.4238 h 0.38282 q 0.56966,0 0.98437,0.4101 0.41927,0.4056 0.41927,0.9935 z m -0.63802,0 v -1.6589 q 0,-0.3144 -0.22331,-0.5377 -0.21875,-0.2279 -0.54231,-0.2279 h -0.38282 q -0.31445,0 -0.54231,0.2233 -0.22331,0.2233 -0.22331,0.5423 v 1.6589 q 0,0.3144 0.22331,0.5423 0.2233,0.2233 0.54231,0.2233 h 0.38282 q 0.30989,0 0.53776,-0.2188 0.22786,-0.2187 0.22786,-0.5468 z"
           style="font-size:9.33333302px;fill:#ff00ff"
           id="path5237" />
        <path
           d="m 175.61203,1038.0789 h 1.27605 q 0.26432,0 0.45117,-0.1777 0.18685,-0.1778 0.18685,-0.4603 v -1.9141 q 0,-0.2689 -0.18229,-0.4512 -0.17774,-0.1868 -0.45573,-0.1868 h -1.27605 z m 0,0.638 v 1.5951 q 0,0.1321 -0.10026,0.2233 -0.0957,0.096 -0.21875,0.096 -0.10937,0 -0.21419,-0.082 -0.10482,-0.077 -0.10482,-0.237 v -5.7422 q 0,-0.319 0.31901,-0.319 h 1.59506 q 0.51953,0 0.89778,0.3737 0.37826,0.3691 0.37826,0.9023 v 1.9141 q 0,0.5241 -0.3737,0.9023 -0.3737,0.3737 -0.90234,0.3737 z"
           style="font-size:9.33333302px;fill:#ff00ff"
           id="path5239" />
        <path
           d="m 183.26828,1038.3979 v -3.8281 q 0,-0.1778 -0.082,-0.2735 -0.082,-0.096 -0.20052,-0.096 -0.14127,0 -0.29622,0.1823 l -1.33529,1.8731 -1.33528,-1.8731 q -0.12761,-0.1823 -0.29623,-0.1823 -0.10937,0 -0.20508,0.1003 -0.0775,0.1003 -0.0775,0.2689 v 3.8281 q 0,0.1504 0.0911,0.2415 0.0866,0.077 0.22787,0.077 0.11393,0 0.21419,-0.082 0.10482,-0.087 0.10482,-0.237 v -2.8346 l 1.01628,1.4264 q 0.1276,0.1686 0.25976,0.1686 0.12305,0 0.25977,-0.1686 l 1.01627,-1.4264 v 2.8346 q 0,0.1504 0.0911,0.2415 0.0866,0.077 0.22786,0.077 0.11394,0 0.2142,-0.082 0.10481,-0.087 0.10481,-0.237 z"
           style="font-size:9.33333302px;fill:#ff00ff"
           id="path5241" />
      </g>
    </g>
    <g
       id="g5141"
       transform="translate(-3.1834985,-117.6219)">
      <g
         aria-label="p"
         transform="skewX(-11.748824)"
         style="font-style:normal;font-variant:normal;font-weight:normal;font-stretch:normal;font-size:10.66666698px;line-height:64px;font-family:'GOST type B';-inkscape-font-specification:'GOST type B';text-align:start;letter-spacing:0px;word-spacing:0px;text-anchor:start;fill:#008000;fill-opacity:1;stroke:none"
         id="text5133">
        <path
           d="m 339.13984,1035.8183 h 1.82292 q 0.3776,0 0.64453,-0.2539 0.26693,-0.2539 0.26693,-0.6576 v -2.7344 q 0,-0.3841 -0.26042,-0.6445 -0.25391,-0.2669 -0.65104,-0.2669 h -1.82292 z m 0,0.9114 v 2.2787 q 0,0.1888 -0.14323,0.319 -0.13672,0.1367 -0.3125,0.1367 -0.15625,0 -0.30599,-0.1172 -0.14974,-0.1107 -0.14974,-0.3385 v -8.2031 q 0,-0.4558 0.45573,-0.4558 h 2.27865 q 0.74219,0 1.28255,0.5339 0.54036,0.5273 0.54036,1.289 v 2.7344 q 0,0.7487 -0.53385,1.2891 -0.53385,0.5338 -1.28906,0.5338 z"
           style="font-size:13.33333302px;fill:#008000"
           id="path5244" />
      </g>
      <path
         inkscape:connector-curvature="0"
         id="path5135"
         d="m 122.6778,1028.4961 h 5.61301"
         style="fill:none;stroke:#008000;stroke-width:0.667;stroke-linecap:butt;stroke-linejoin:miter;stroke-miterlimit:4;stroke-dasharray:none;stroke-opacity:1;marker-end:url(#marker4911)" />
      <g
         aria-label="тан"
         style="font-style:normal;font-variant:normal;font-weight:normal;font-stretch:normal;font-size:10.66666698px;line-height:64px;font-family:'GOST type B';-inkscape-font-specification:'GOST type B';text-align:start;letter-spacing:0px;word-spacing:0px;text-anchor:start;fill:#008000;fill-opacity:1;stroke:none"
         id="text5139">
        <path
           d="m 127.57562,1038.4072 h -1.27604 v 3.5091 q 0,0.1504 -0.0911,0.2416 -0.0866,0.078 -0.22786,0.078 -0.12761,0 -0.22331,-0.078 -0.0957,-0.082 -0.0957,-0.2416 v -3.8281 q 0,-0.319 0.31901,-0.319 h 2.87109 q 0.51953,0 0.89779,0.3737 0.37825,0.3691 0.37825,0.9023 v 2.8711 q 0,0.1504 -0.0911,0.2416 -0.0866,0.078 -0.22787,0.078 -0.1276,0 -0.2233,-0.078 -0.0957,-0.082 -0.0957,-0.2416 v -2.8711 q 0,-0.2688 -0.18229,-0.4511 -0.17773,-0.1869 -0.45573,-0.1869 h -0.63802 v 3.5091 q 0,0.1504 -0.0911,0.2416 -0.0866,0.078 -0.22786,0.078 -0.1276,0 -0.22331,-0.078 -0.0957,-0.082 -0.0957,-0.2416 z"
           style="font-size:9.33333302px;fill:#008000"
           id="path5247" />
        <path
           d="m 133.95583,1040.9593 v -2.5521 h -1.27604 q -0.26888,0 -0.45573,0.1823 -0.0911,0.091 -0.13672,0.2097 -0.0456,0.1139 -0.0456,0.246 v 1.9141 q 0,0.2689 0.18229,0.4557 0.0957,0.082 0.20508,0.1368 0.13671,0.045 0.25065,0.045 h 0.63802 q 0.26432,0 0.45117,-0.1777 0.18685,-0.1777 0.18685,-0.4603 z m 0.31445,0.8568 q -0.15495,0.1777 -0.42383,0.3008 -0.26432,0.1185 -0.52864,0.1185 h -0.63802 q -0.51498,0 -0.89779,-0.3692 -0.37826,-0.3691 -0.37826,-0.9069 v -1.9141 q 0,-0.5286 0.3737,-0.9023 0.3737,-0.3737 0.90235,-0.3737 h 1.59505 q 0.31901,0 0.31901,0.319 v 2.8666 q 0,0.1914 0.12305,0.3919 0.10937,0.1777 0.31901,0.278 0.20052,0.082 0.20052,0.2871 0,0.1413 -0.0911,0.2324 -0.082,0.096 -0.22786,0.096 -0.0684,0 -0.13216,-0.032 -0.31446,-0.123 -0.51498,-0.3919 z"
           style="font-size:9.33333302px;fill:#008000"
           id="path5249" />
        <path
           d="m 138.42197,1039.6833 v -1.5951 q 0,-0.1276 0.0957,-0.237 0.0957,-0.082 0.2233,-0.082 0.12305,0 0.21875,0.082 0.10026,0.077 0.10026,0.237 v 3.8281 q 0,0.1504 -0.0911,0.2416 -0.0866,0.078 -0.22787,0.078 -0.1276,0 -0.2233,-0.078 -0.0957,-0.082 -0.0957,-0.2416 v -1.595 h -1.91406 v 1.595 q 0,0.1504 -0.0911,0.2416 -0.0866,0.078 -0.22787,0.078 -0.1276,0 -0.22331,-0.078 -0.0957,-0.082 -0.0957,-0.2416 v -3.8281 q 0,-0.1276 0.0957,-0.237 0.0957,-0.082 0.22331,-0.082 0.12305,0 0.21875,0.082 0.10026,0.077 0.10026,0.237 v 1.5951 z"
           style="font-size:9.33333302px;fill:#008000"
           id="path5251" />
      </g>
    </g>
    <g
       id="g5174"
       transform="translate(0.16755257,3.2672751)">
      <g
         aria-label="p"
         transform="skewX(-11.748824)"
         style="font-style:normal;font-variant:normal;font-weight:normal;font-stretch:normal;font-size:10.66666698px;line-height:64px;font-family:'GOST type B';-inkscape-font-specification:'GOST type B';text-align:start;letter-spacing:0px;word-spacing:0px;text-anchor:start;fill:#ff00ff;fill-opacity:1;stroke:none"
         id="text5145">
        <path
           d="m 384.04551,985.05766 h 1.82292 q 0.3776,0 0.64453,-0.25391 0.26693,-0.2539 0.26693,-0.65755 v -2.73438 q 0,-0.38411 -0.26042,-0.64453 -0.25391,-0.26692 -0.65104,-0.26692 h -1.82292 z m 0,0.91146 v 2.27864 q 0,0.1888 -0.14323,0.31901 -0.13672,0.13672 -0.3125,0.13672 -0.15625,0 -0.30599,-0.11719 -0.14974,-0.11067 -0.14974,-0.33854 v -8.20312 q 0,-0.45573 0.45573,-0.45573 h 2.27865 q 0.74219,0 1.28255,0.53385 0.54037,0.52735 0.54037,1.28906 v 2.73438 q 0,0.7487 -0.53386,1.28906 -0.53385,0.53386 -1.28906,0.53386 z"
           style="font-size:13.33333302px;fill:#ff00ff"
           id="path5254" />
      </g>
      <path
         inkscape:connector-curvature="0"
         id="path5147"
         d="m 178.14058,977.73545 h 5.61301"
         style="fill:none;stroke:#ff00ff;stroke-width:0.667;stroke-linecap:butt;stroke-linejoin:miter;stroke-miterlimit:4;stroke-dasharray:none;stroke-opacity:1;marker-end:url(#marker5011)" />
      <g
         aria-label="норм"
         style="font-style:normal;font-variant:normal;font-weight:normal;font-stretch:normal;font-size:10.66666698px;line-height:64px;font-family:'GOST type B';-inkscape-font-specification:'GOST type B';text-align:start;letter-spacing:0px;word-spacing:0px;text-anchor:start;fill:#ff00ff;fill-opacity:1;stroke:none"
         id="text5151">
        <path
           d="m 184.34663,989.09037 v -1.59505 q 0,-0.1276 0.0957,-0.23698 0.0957,-0.082 0.22331,-0.082 0.12305,0 0.21875,0.082 0.10026,0.0775 0.10026,0.23698 v 3.82813 q 0,0.15039 -0.0911,0.24153 -0.0866,0.0775 -0.22786,0.0775 -0.12761,0 -0.22331,-0.0775 -0.0957,-0.082 -0.0957,-0.24153 v -1.59506 h -1.91406 v 1.59506 q 0,0.15039 -0.0911,0.24153 -0.0866,0.0775 -0.22786,0.0775 -0.12761,0 -0.22331,-0.0775 -0.0957,-0.082 -0.0957,-0.24153 v -3.82813 q 0,-0.1276 0.0957,-0.23698 0.0957,-0.082 0.22331,-0.082 0.12304,0 0.21875,0.082 0.10026,0.0775 0.10026,0.23698 v 1.59505 z"
           style="font-size:9.33333302px;fill:#ff00ff"
           id="path5257" />
        <path
           d="m 189.4508,990.23881 q 0,0.56966 -0.41016,0.98893 -0.4056,0.41472 -0.99349,0.41472 h -0.38281 q -0.56966,0 -0.98894,-0.4056 -0.41471,-0.4056 -0.41471,-0.99805 v -1.65885 q 0,-0.56055 0.41016,-0.97982 0.41015,-0.42383 0.99349,-0.42383 h 0.38281 q 0.56966,0 0.98437,0.41016 0.41928,0.4056 0.41928,0.99349 z m -0.63803,0 v -1.65885 q 0,-0.31446 -0.2233,-0.53776 -0.21875,-0.22787 -0.54232,-0.22787 h -0.38281 q -0.31446,0 -0.54232,0.22331 -0.22331,0.22331 -0.22331,0.54232 v 1.65885 q 0,0.31445 0.22331,0.54232 0.22331,0.22331 0.54232,0.22331 h 0.38281 q 0.3099,0 0.53776,-0.21875 0.22786,-0.21875 0.22786,-0.54688 z"
           style="font-size:9.33333302px;fill:#ff00ff"
           id="path5259" />
        <path
           d="m 191.36486,991.00444 h 1.27604 q 0.26432,0 0.45117,-0.17774 0.18685,-0.17773 0.18685,-0.46029 v -1.91406 q 0,-0.26888 -0.18229,-0.45117 -0.17774,-0.18685 -0.45573,-0.18685 h -1.27604 z m 0,0.63802 v 1.59505 q 0,0.13216 -0.10026,0.22331 -0.0957,0.0957 -0.21875,0.0957 -0.10938,0 -0.2142,-0.082 -0.10481,-0.0775 -0.10481,-0.23698 v -5.74219 q 0,-0.31901 0.31901,-0.31901 h 1.59505 q 0.51953,0 0.89779,0.3737 0.37825,0.36914 0.37825,0.90234 v 1.91406 q 0,0.52409 -0.3737,0.90235 -0.3737,0.3737 -0.90234,0.3737 z"
           style="font-size:9.33333302px;fill:#ff00ff"
           id="path5261" />
        <path
           d="m 199.02111,991.32345 v -3.82813 q 0,-0.17773 -0.082,-0.27344 -0.082,-0.0957 -0.20053,-0.0957 -0.14127,0 -0.29622,0.18229 l -1.33529,1.87305 -1.33528,-1.87305 q -0.12761,-0.18229 -0.29623,-0.18229 -0.10937,0 -0.20507,0.10026 -0.0775,0.10026 -0.0775,0.26888 v 3.82813 q 0,0.15039 0.0911,0.24153 0.0866,0.0775 0.22786,0.0775 0.11393,0 0.2142,-0.082 0.10481,-0.0866 0.10481,-0.23697 v -2.83464 l 1.01628,1.42643 q 0.1276,0.16862 0.25976,0.16862 0.12305,0 0.25977,-0.16862 l 1.01628,-1.42643 v 2.83464 q 0,0.15039 0.0911,0.24153 0.0866,0.0775 0.22787,0.0775 0.11393,0 0.21419,-0.082 0.10482,-0.0866 0.10482,-0.23697 z"
           style="font-size:9.33333302px;fill:#ff00ff"
           id="path5263" />
      </g>
      <path
         inkscape:connector-curvature="0"
         id="path5155"
         d="m 177.21615,993.72893 c 0.58644,0 23.87625,0 23.87625,0"
         style="fill:none;stroke:#ff00ff;stroke-width:0.66666669;stroke-linecap:butt;stroke-linejoin:miter;stroke-opacity:1" />
      <g
         aria-label="2"
         style="font-style:normal;font-variant:normal;font-weight:normal;font-stretch:normal;font-size:10.66666698px;line-height:64px;font-family:'GOST type B';-inkscape-font-specification:'GOST type B';text-align:start;letter-spacing:0px;word-spacing:0px;text-anchor:start;fill:#ff00ff;fill-opacity:1;stroke:none"
         id="text5159">
        <path
           d="m 190.87083,998.6275 -2.35417,3.7552 h 2.26042 q 0.15104,0 0.25521,0.1146 0.10937,0.1094 0.10937,0.25 0,0.125 -0.0937,0.2448 -0.0885,0.1198 -0.27083,0.1198 h -2.91667 q -0.39583,0 -0.39583,-0.2917 0,-0.1146 0.0885,-0.2708 l 2.69271,-4.29169 q 0.13542,-0.28646 0.13542,-0.54687 0,-0.46875 -0.36459,-0.8125 -0.17187,-0.16146 -0.40104,-0.25521 -0.22917,-0.0937 -0.49479,-0.0937 -0.27604,0 -0.53125,0.14583 -0.25521,0.16146 -0.42188,0.41667 -0.0417,0.0677 -0.14062,0.13021 l -0.16146,0.0365 q -0.14062,0 -0.26042,-0.099 -0.11458,-0.10417 -0.11458,-0.25521 0,-0.0729 0.0625,-0.20834 0.25,-0.39062 0.67708,-0.64062 0.20834,-0.11979 0.42188,-0.1875 0.21354,-0.0677 0.41667,-0.0677 0.85416,0 1.4427,0.56771 0.59375,0.5625 0.59375,1.34375 0,0.44792 -0.23437,0.89583 z"
           style=""
           id="path5266" />
      </g>
    </g>
    <g
       aria-label="X"
       transform="skewX(-15.062919)"
       style="font-style:normal;font-variant:normal;font-weight:normal;font-stretch:normal;font-size:10.66666698px;line-height:64px;font-family:'GOST type B';-inkscape-font-specification:'GOST type B';text-align:start;letter-spacing:0px;word-spacing:0px;text-anchor:start;fill:#000000;fill-opacity:1;stroke:none"
       id="text5271">
      <path
         d="m 374.12558,995.57267 2.35026,-3.52864 q 0.0586,-0.0911 0.16276,-0.15625 l 0.0977,-0.0391 0.11067,-0.013 q 0.17579,0 0.33204,0.13672 0.14322,0.14323 0.14322,0.32552 0,0.11719 -0.0781,0.25391 l -2.5651,3.84766 2.5651,3.8477 0.0586,0.1367 0.0195,0.1237 q 0,0.1757 -0.14322,0.319 -0.13672,0.1367 -0.33855,0.1367 -0.21484,0 -0.36458,-0.2083 l -2.35026,-3.52868 -2.35026,3.52868 q -0.0521,0.085 -0.17578,0.1627 l -0.20182,0.046 q -0.14323,0 -0.31902,-0.1367 -0.14973,-0.1367 -0.14973,-0.3255 0,-0.1172 0.0781,-0.2539 l 2.5651,-3.8477 -2.5651,-3.84766 -0.0651,-0.13672 -0.013,-0.1237 q 0,-0.17578 0.13671,-0.3125 0.14323,-0.14323 0.34506,-0.14323 0.21484,0 0.36458,0.20834 z"
         style="font-size:13.33333302px"
         id="path5277" />
    </g>
    <g
       aria-label="X'"
       transform="skewX(-15.062919)"
       style="font-style:normal;font-variant:normal;font-weight:normal;font-stretch:normal;font-size:10.66666698px;line-height:64px;font-family:'GOST type B';-inkscape-font-specification:'GOST type B';text-align:start;letter-spacing:0px;word-spacing:0px;text-anchor:start;fill:#000000;fill-opacity:1;stroke:none"
       id="text5275">
      <path
         d="m 338.34619,916.08811 2.35026,-3.52864 q 0.0586,-0.0912 0.16276,-0.15625 l 0.0977,-0.0391 0.11068,-0.013 q 0.17578,0 0.33203,0.13671 0.14323,0.14323 0.14323,0.32553 0,0.11718 -0.0781,0.2539 l -2.5651,3.84766 2.5651,3.84765 0.0586,0.13672 0.0195,0.1237 q 0,0.17578 -0.14323,0.31901 -0.13672,0.13672 -0.33855,0.13672 -0.21484,0 -0.36458,-0.20833 l -2.35026,-3.52865 -2.35026,3.52865 q -0.0521,0.0846 -0.17578,0.16276 l -0.20182,0.0456 q -0.14323,0 -0.31901,-0.13672 -0.14974,-0.13672 -0.14974,-0.32552 0,-0.11719 0.0781,-0.25391 l 2.56511,-3.84765 -2.56511,-3.84766 -0.0651,-0.13672 -0.013,-0.1237 q 0,-0.17578 0.13672,-0.3125 0.14322,-0.14322 0.34505,-0.14322 0.21484,0 0.36458,0.20833 z"
         style="font-size:13.33333302px"
         id="path5280" />
      <path
         d="m 344.38135,912.92405 -0.45573,1.82292 q -0.0781,0.34505 -0.4362,0.34505 -0.20182,0 -0.33203,-0.13021 -0.14323,-0.1237 -0.14323,-0.3125 l 0.0195,-0.1237 0.45573,-1.82291 q 0.0781,-0.34505 0.4362,-0.34505 0.19531,0 0.32552,0.1302 0.14974,0.11719 0.14974,0.31901 z"
         style="font-size:13.33333302px"
         id="path5282" />
    </g>
  </g>
</svg>
