<?xml version="1.0" encoding="UTF-8" standalone="no"?>
<svg
   xmlns:dc="http://purl.org/dc/elements/1.1/"
   xmlns:cc="http://creativecommons.org/ns#"
   xmlns:rdf="http://www.w3.org/1999/02/22-rdf-syntax-ns#"
   xmlns:svg="http://www.w3.org/2000/svg"
   xmlns="http://www.w3.org/2000/svg"
   xmlns:sodipodi="http://sodipodi.sourceforge.net/DTD/sodipodi-0.dtd"
   xmlns:inkscape="http://www.inkscape.org/namespaces/inkscape"
   width="197.54875"
   height="211.05069"
   version="1.1"
   id="svg53"
   sodipodi:docname="17-05.svg"
   inkscape:version="0.92.4 (5da689c313, 2019-01-14)">
  <metadata
     id="metadata57">
    <rdf:RDF>
      <cc:Work
         rdf:about="">
        <dc:format>image/svg+xml</dc:format>
        <dc:type
           rdf:resource="http://purl.org/dc/dcmitype/StillImage" />
        <dc:title />
      </cc:Work>
    </rdf:RDF>
  </metadata>
  <sodipodi:namedview
     pagecolor="#ffffff"
     bordercolor="#666666"
     borderopacity="1"
     objecttolerance="10"
     gridtolerance="10"
     guidetolerance="10"
     inkscape:pageopacity="0"
     inkscape:pageshadow="2"
     inkscape:window-width="1920"
     inkscape:window-height="1009"
     id="namedview55"
     showgrid="false"
     inkscape:zoom="3.4683611"
     inkscape:cx="99.927658"
     inkscape:cy="105.52534"
     inkscape:window-x="0"
     inkscape:window-y="0"
     inkscape:window-maximized="1"
     inkscape:current-layer="svg53"
     units="px"
     fit-margin-top="2"
     fit-margin-left="2"
     fit-margin-right="2"
     fit-margin-bottom="2" />
  <defs
     id="defs5">
    <marker
       orient="auto"
       refY="0"
       refX="0"
       id="a"
       style="overflow:visible">
      <path
         d="M 0,0 5,-5 -12.5,0 5,5 Z"
         style="fill:#a02c2c;fill-opacity:1;fill-rule:evenodd;stroke:#a02c2c;stroke-width:1.00000003pt;stroke-opacity:1"
         transform="matrix(-0.4,0,0,-0.4,-4,0)"
         id="path2"
         inkscape:connector-curvature="0" />
    </marker>
  </defs>
  <path
     style="fill:none;stroke:#000000;stroke-width:0.66666669;stroke-linecap:butt;stroke-linejoin:miter;stroke-opacity:1"
     d="M 14.590415,122.72057 71.12843,194.74845 182.91364,104.3909 62.609003,15.324159 Z"
     id="path46"
     inkscape:connector-curvature="0" />
  <path
     style="fill:none;stroke:#000000;stroke-width:0.66666669;stroke-linecap:butt;stroke-linejoin:miter;stroke-miterlimit:4;stroke-dasharray:8, 8;stroke-dashoffset:0;stroke-opacity:1"
     d="M 14.590415,122.72057 182.91364,104.3909"
     id="path48"
     inkscape:connector-curvature="0" />
  <path
     style="fill:none;stroke:#000000;stroke-width:0.66666669;stroke-linecap:butt;stroke-linejoin:miter;stroke-opacity:1"
     d="M 62.609003,15.324159 71.12843,194.74845"
     id="path864"
     inkscape:connector-curvature="0" />
  <path
     style="fill:none;stroke:#0000ff;stroke-width:1;stroke-linecap:butt;stroke-linejoin:miter;stroke-miterlimit:4;stroke-dasharray:4, 4;stroke-dashoffset:0;stroke-opacity:1"
     d="m 82.487666,114.97564 36.917524,40.53182"
     id="path872"
     inkscape:connector-curvature="0" />
  <path
     inkscape:connector-curvature="0"
     id="path874"
     d="M 48.409958,99.743936 100.81735,135.6288"
     style="fill:none;stroke:#ff0000;stroke-width:1;stroke-linecap:butt;stroke-linejoin:miter;stroke-miterlimit:4;stroke-dasharray:2.66799998, 2.66799998;stroke-dashoffset:0;stroke-opacity:1"
     sodipodi:nodetypes="cc" />
  <path
     style="fill:none;stroke:#008000;stroke-width:0.66666669;stroke-linecap:butt;stroke-linejoin:miter;stroke-opacity:1"
     d="M 62.609003,15.324159 38.857873,153.70031"
     id="path876"
     inkscape:connector-curvature="0" />
  <path
     style="fill:none;stroke:#008000;stroke-width:0.66666669;stroke-linecap:butt;stroke-linejoin:miter;stroke-opacity:1"
     d="M 68.030456,124.26956 32.403762,81.672423"
     id="path878"
     inkscape:connector-curvature="0" />
  <path
     style="fill:none;stroke:#008000;stroke-width:0.66666669;stroke-linecap:butt;stroke-linejoin:miter;stroke-opacity:1"
     d="m 68.030456,124.26956 51.374734,31.2379"
     id="path880"
     inkscape:connector-curvature="0" />
  <path
     inkscape:connector-curvature="0"
     id="path882"
     d="M 32.403762,81.672423 82.487666,114.97564"
     style="fill:none;stroke:#008000;stroke-width:0.667;stroke-linecap:butt;stroke-linejoin:miter;stroke-miterlimit:4;stroke-dasharray:2.66799998, 2.66799998;stroke-dashoffset:0;stroke-opacity:1"
     sodipodi:nodetypes="cc" />
  <path
     style="opacity:1;fill:#ffeeaa;fill-opacity:1;stroke:none;stroke-width:0.17219569;stroke-linecap:round;stroke-linejoin:bevel;stroke-miterlimit:4;stroke-dasharray:none;stroke-dashoffset:0;stroke-opacity:1;paint-order:stroke markers fill"
     d="m 56.198757,109.40901 c -4.111132,-4.91537 -6.241892,-7.65374 -5.995223,-7.70481 0.740246,-0.15328 0.732753,-0.89515 -0.01524,-1.5087 -0.395924,-0.324757 -0.905997,-0.654535 -1.133496,-0.732837 -0.427222,-0.147044 -0.409831,-0.355255 0.414766,-4.965829 l 0.148889,-0.832487 8.344236,5.56211 8.344235,5.562113 0.162886,1.72449 c 0.22767,2.41035 0.206312,5.00658 -0.03993,4.85439 -0.113571,-0.0702 -0.343048,0.091 -0.509949,0.35829 -0.255256,0.40873 -0.201955,0.56576 0.335575,0.98858 0.564715,0.4442 0.639031,0.70099 0.639031,2.20811 0,1.44709 -0.06844,1.70747 -0.451788,1.71872 -0.248483,0.007 -1.220006,0.0988 -2.158938,0.20335 l -1.707151,0.19009 z m 7.804625,0.71162 c 0.05299,-0.27516 -0.305538,-0.69203 -0.977798,-1.13691 -0.991217,-0.65595 -1.089979,-0.67393 -1.492263,-0.27165 -0.402285,0.40229 -0.397177,0.45498 0.07719,0.79619 0.27939,0.20096 0.74033,0.54706 1.024311,0.7691 0.634139,0.49583 1.25662,0.42455 1.368563,-0.15673 z m -4.342966,-3.14098 c -0.0051,-0.26689 -1.825173,-1.711 -2.15651,-1.711 -0.07881,0 -0.26405,0.22564 -0.411643,0.50142 -0.229746,0.42929 -0.110348,0.61132 0.829951,1.26536 1.073608,0.74676 1.752986,0.72496 1.738202,-0.0558 z m -4.523879,-2.67766 c 0.119788,-0.31217 -0.04996,-0.63293 -0.553249,-1.04542 -1.304761,-1.06939 -1.577882,-1.14865 -1.897877,-0.55073 -0.159456,0.29794 -0.251464,0.57195 -0.204463,0.60889 0.497642,0.39116 2.180681,1.43759 2.312164,1.43759 0.09384,0 0.24838,-0.20265 0.343425,-0.45033 z"
     id="path886"
     inkscape:connector-curvature="0" />
  <path
     style="opacity:1;fill:#ffeeaa;fill-opacity:1;stroke:none;stroke-width:0.17219569;stroke-linecap:round;stroke-linejoin:bevel;stroke-miterlimit:4;stroke-dasharray:none;stroke-dashoffset:0;stroke-opacity:1;paint-order:stroke markers fill"
     d="m 41.490158,91.819278 c -3.346709,-4.013129 -6.039302,-7.342222 -5.98354,-7.397985 0.05576,-0.05576 3.076421,1.884215 6.712574,4.311062 5.830966,3.891711 6.596032,4.480416 6.482771,4.988378 -0.07063,0.316762 -0.301673,1.608855 -0.51343,2.871319 -0.211758,1.262463 -0.436411,2.346786 -0.499231,2.409606 -0.06282,0.06282 -2.852435,-3.169251 -6.199144,-7.18238 z"
     id="path888"
     inkscape:connector-curvature="0" />
  <path
     style="opacity:1;fill:#ffeeaa;fill-opacity:1;stroke:none;stroke-width:0.25816447;stroke-linecap:round;stroke-linejoin:bevel;stroke-miterlimit:4;stroke-dasharray:none;stroke-dashoffset:0;stroke-opacity:1;paint-order:stroke markers fill"
     d="m 91.807402,138.19797 -23.492965,-14.29653 -0.223226,-3.13387 c -0.122774,-1.72363 -0.157556,-3.19954 -0.07729,-3.2798 0.08026,-0.0803 0.68081,-0.20623 1.33455,-0.27991 0.898492,-0.10127 1.153664,-0.22507 1.045411,-0.50717 -0.07877,-0.20526 -0.143208,-0.39357 -0.143208,-0.41848 0,-0.0249 -0.508015,-0.005 -1.128921,0.0445 l -1.12892,0.0898 -0.176921,-1.1798 c -0.148471,-0.99008 -0.09018,-1.27291 0.362497,-1.7588 0.539258,-0.57883 0.539264,-0.57912 0.02094,-0.97344 -0.45297,-0.34461 -0.540614,-0.81236 -0.693687,-3.70213 l -0.175209,-3.30769 7.189042,4.72699 c 3.953973,2.59984 7.021633,4.74915 6.817022,4.77624 -0.204612,0.0271 -1.040021,0.12285 -1.856466,0.2128 -1.089393,0.12003 -1.484446,0.26872 -1.484446,0.55872 0,0.33183 0.365525,0.38057 2.280448,0.30413 l 2.280447,-0.091 7.385457,8.10134 c 6.430173,7.05346 7.337343,8.14946 7.013473,8.47333 -0.590327,0.59032 -0.443545,0.9324 0.718866,1.67532 0.735178,0.46986 1.184469,0.61403 1.387776,0.4453 0.252273,-0.20937 7.525548,7.53855 16.197098,17.25411 0.28515,0.31948 0.41107,0.57676 0.27982,0.57174 -0.13124,-0.005 -10.81045,-6.44256 -23.731587,-14.30565 z m 2.917259,-6.64818 c 0.170388,-0.17038 0.309797,-0.38729 0.309797,-0.48202 0,-0.34184 -2.119837,-1.56598 -2.475477,-1.42951 -0.632991,0.24291 -0.3975,0.83787 0.603785,1.52547 1.139088,0.78223 1.160446,0.78751 1.561895,0.38606 z m -4.320833,-3.19509 c 0.216341,-0.26068 0.244776,-0.46944 0.07912,-0.58087 -2.063149,-1.38779 -2.677092,-1.54473 -2.677092,-0.68435 0,0.3264 1.684952,1.67214 2.093634,1.67214 0.09164,0 0.318597,-0.18312 0.504341,-0.40692 z m -4.447586,-2.99202 c 0.284485,-0.37327 0.168062,-0.53993 -0.881724,-1.2622 -1.059991,-0.72929 -1.23838,-0.78052 -1.443243,-0.41445 -0.128565,0.22973 -0.238767,0.49245 -0.244894,0.58383 -0.01015,0.15139 2.176292,1.70319 2.222263,1.57722 0.01091,-0.0299 0.167328,-0.24787 0.347598,-0.4844 z m -4.362269,-3.0254 c 0.219084,-0.40936 0.09853,-0.59367 -0.759875,-1.16174 -1.173318,-0.77646 -1.371747,-0.81098 -1.786843,-0.31082 -0.244494,0.29459 -0.0899,0.51483 0.807424,1.15023 1.320531,0.93507 1.403168,0.95039 1.739294,0.32233 z m -4.356532,-3.01834 c 0.369057,-0.44469 0.45203,-0.35071 -1.278845,-1.44839 -0.837703,-0.53124 -0.889892,-0.53507 -1.216002,-0.0891 -0.301421,0.41221 -0.23022,0.54923 0.617103,1.18751 1.121714,0.84497 1.420679,0.90069 1.877744,0.34996 z m -4.471114,-2.93949 c 0.282822,-0.45287 0.191107,-0.59279 -0.864715,-1.31921 -1.112236,-0.76524 -1.5009,-0.78048 -1.697042,-0.0665 -0.07076,0.25757 1.730831,1.86426 2.113857,1.88517 0.07234,0.004 0.273892,-0.22079 0.4479,-0.49942 z"
     id="path892"
     inkscape:connector-curvature="0" />
  <path
     style="opacity:1;fill:#ffeeaa;fill-opacity:1;stroke:none;stroke-width:0.25816447;stroke-linecap:round;stroke-linejoin:bevel;stroke-miterlimit:4;stroke-dasharray:none;stroke-dashoffset:0;stroke-opacity:1;paint-order:stroke markers fill"
     d="m 65.232834,120.22398 c -0.959235,-1.14595 -1.670811,-2.15679 -1.58128,-2.24632 0.323974,-0.32397 3.108885,-0.50348 3.303567,-0.21293 0.183715,0.27418 0.286772,4.54278 0.109676,4.54278 -0.04835,0 -0.872729,-0.93759 -1.831963,-2.08353 z"
     id="path894"
     inkscape:connector-curvature="0" />
  <path
     style="opacity:1;fill:#ff0000;fill-opacity:1;stroke:none;stroke-width:0.45391542;stroke-linecap:round;stroke-linejoin:bevel;stroke-miterlimit:4;stroke-dasharray:1.81566172, 1.81566172;stroke-dashoffset:0;stroke-opacity:1;paint-order:stroke markers fill"
     d="m 49.700778,100.29253 a 1.678069,1.8394217 0 0 1 -1.678069,1.83942 1.678069,1.8394217 0 0 1 -1.678069,-1.83942 1.678069,1.8394217 0 0 1 1.678069,-1.839426 1.678069,1.8394217 0 0 1 1.678069,1.839426 z"
     id="circle898" />
  <path
     style="opacity:1;fill:#0000ff;fill-opacity:1;stroke:none;stroke-width:0.45391542;stroke-linecap:round;stroke-linejoin:bevel;stroke-miterlimit:4;stroke-dasharray:1.81566172, 1.81566172;stroke-dashoffset:0;stroke-opacity:1;paint-order:stroke markers fill"
     d="m 99.964536,133.18367 a 1.678069,1.8394217 0 0 1 -1.678066,1.83942 1.678069,1.8394217 0 0 1 -1.678069,-1.83942 1.678069,1.8394217 0 0 1 1.678069,-1.83942 1.678069,1.8394217 0 0 1 1.678066,1.83942 z"
     id="ellipse900"
     inkscape:connector-curvature="0" />
  <g
     aria-label="S"
     style="font-style:italic;font-variant:normal;font-weight:normal;font-stretch:normal;font-size:16px;line-height:14.66666698px;font-family:'GOST type B';-inkscape-font-specification:'GOST type B Italic';text-align:start;letter-spacing:0px;word-spacing:0px;text-anchor:start;fill:#000000;fill-opacity:1;stroke:none"
     id="text904">
    <path
       d="m 62.85664,2.921875 q 0.101562,0.070312 0.132812,0.203125 0.04687,0.1015625 0.01563,0.234375 -0.03906,0.1875 -0.242187,0.3828125 -0.203125,0.1875 -0.414063,0.1875 -0.171875,0 -0.3125,-0.109375 -0.898437,-0.75 -2.15625,-0.75 -0.789062,0 -1.539062,0.34375 Q 58.01289,3.578125 57.747265,3.859375 L 57.567577,4.125 q -0.07031,0.1171875 -0.109375,0.3046875 -0.07813,0.3828125 0.195313,0.609375 l 3.453125,3 Q 61.528515,8.375 61.716015,9 q 0.1875,0.6171875 0.0625,1.257813 -0.140625,0.679687 -0.539063,1.25 -0.398437,0.570312 -1.0625,0.890625 -0.554687,0.242187 -1.234375,0.453125 -0.609375,0.140625 -1.125,0.140625 -0.757812,0 -1.414062,-0.242188 -0.375,-0.125 -0.640625,-0.28125 -0.257813,-0.164062 -0.648438,-0.460937 -0.21875,-0.164063 -0.164062,-0.445313 0.04687,-0.234375 0.234375,-0.398437 0.1875,-0.171875 0.414062,-0.171875 0.140625,0 0.28125,0.09375 0.515625,0.375 1.046875,0.59375 0.539063,0.210937 1.132813,0.210937 0.828125,0 1.820312,-0.460937 0.28125,-0.140625 0.515625,-0.460938 0.117188,-0.164062 0.195313,-0.335937 0.07813,-0.171875 0.117187,-0.351563 0.07031,-0.3671875 -0.0078,-0.765625 Q 60.60664,9.2265625 60.317577,8.9375 l -3.460937,-3 Q 56.567577,5.703125 56.442577,5.2890625 56.32539,4.8671875 56.411327,4.421875 q 0.117188,-0.5859375 0.5,-1.1015625 Q 57.29414,2.8046875 58.028515,2.453125 59.01289,2 60.098827,2 q 0.78125,0 1.484375,0.234375 0.710938,0.234375 1.273438,0.6875 z"
       style=""
       id="path944" />
  </g>
  <g
     aria-label="A"
     style="font-style:italic;font-variant:normal;font-weight:normal;font-stretch:normal;font-size:16px;line-height:14.66666698px;font-family:'GOST type B';-inkscape-font-specification:'GOST type B Italic';text-align:start;letter-spacing:0px;word-spacing:0px;text-anchor:start;fill:#000000;fill-opacity:1;stroke:none"
     id="text908">
    <path
       d="M 4.1515625,124.8366 2.89375,127.19598 q -0.1015625,0.17187 -0.2578125,0.28125 -0.125,0.0703 -0.3203125,0.0937 -0.21875,0 -0.3515625,-0.15625 Q 1.815625,127.2741 1.8625,127.03973 l 0.078125,-0.19532 5.2578125,-9.84375 q 0.2578125,-0.46875 0.609375,-0.46875 0.3515625,0 0.421875,0.46875 l 1.3046875,9.84375 v 0.19532 q -0.046875,0.21093 -0.2578125,0.38281 -0.203125,0.14844 -0.4140625,0.14844 -0.109375,0 -0.234375,-0.0547 -0.125,-0.0547 -0.1875,-0.32031 L 8.1203125,124.8366 Z m 3.828125,-1.11719 -0.6484375,-4.82031 -2.578125,4.82031 z"
       style=""
       id="path947" />
  </g>
  <g
     aria-label="B"
     style="font-style:italic;font-variant:normal;font-weight:normal;font-stretch:normal;font-size:16px;line-height:14.66666698px;font-family:'GOST type B';-inkscape-font-specification:'GOST type B Italic';text-align:start;letter-spacing:0px;word-spacing:0px;text-anchor:start;fill:#000000;fill-opacity:1;stroke:none"
     id="text912">
    <path
       d="m 74.174187,202.75381 q 0.414062,0.28125 0.601562,0.78907 0.1875,0.50781 0.07031,1.07812 l -0.4375,2.1875 q -0.179688,0.89844 -0.953125,1.54688 -0.765625,0.64062 -1.671875,0.64062 h -3.828125 q -0.546875,0 -0.4375,-0.54687 l 1.96875,-9.84375 q 0.109375,-0.54688 0.65625,-0.54688 h 3.28125 q 0.914062,0 1.421875,0.64063 0.507812,0.64062 0.328125,1.54687 l -0.21875,1.09375 q -0.07813,0.375 -0.265625,0.72656 -0.1875,0.35157 -0.515625,0.6875 z m -4.578125,0.76563 -0.875,4.38281 h 3.28125 q 0.453125,0 0.835937,-0.30469 0.382813,-0.30468 0.476563,-0.78906 l 0.4375,-2.1875 q 0.09375,-0.46094 -0.15625,-0.77344 -0.242188,-0.32031 -0.71875,-0.32031 z m 2.953125,-1.08594 q 0.453125,0 0.835937,-0.30469 0.382813,-0.30468 0.476563,-0.78906 l 0.21875,-1.09375 q 0.09375,-0.46094 -0.15625,-0.77344 -0.242188,-0.32031 -0.71875,-0.32031 h -2.734375 l -0.65625,3.28906 z"
       style=""
       id="path950" />
  </g>
  <g
     aria-label="C"
     style="font-style:italic;font-variant:normal;font-weight:normal;font-stretch:normal;font-size:16px;line-height:14.66666698px;font-family:'GOST type B';-inkscape-font-specification:'GOST type B Italic';text-align:start;letter-spacing:0px;word-spacing:0px;text-anchor:start;fill:#000000;fill-opacity:1;stroke:none"
     id="text916">
    <path
       d="m 192.08313,108.9587 h -2.73438 q -0.89062,0 -1.41406,-0.63281 -0.51562,-0.64063 -0.33594,-1.55469 l 1.3125,-6.5625 q 0.17969,-0.91406 0.94532,-1.546873 0.76562,-0.640625 1.67968,-0.640625 h 2.73438 q 0.22656,0 0.35156,0.171875 0.125,0.164063 0.0859,0.375 -0.0391,0.1875 -0.21094,0.367188 -0.17187,0.179687 -0.44531,0.179687 h -2.73438 q -0.46093,0 -0.84375,0.3125 -0.1875,0.15625 -0.30468,0.359375 -0.11719,0.195313 -0.16407,0.421873 l -1.3125,6.5625 q -0.0937,0.46094 0.15625,0.78125 0.13282,0.14063 0.30469,0.23438 0.21875,0.0781 0.41406,0.0781 h 2.73438 q 0.22656,0 0.35156,0.17188 0.125,0.16406 0.0859,0.375 -0.0391,0.1875 -0.21094,0.36718 -0.17187,0.17969 -0.44531,0.17969 z"
       style=""
       id="path953" />
  </g>
  <g
     aria-label="P"
     style="font-style:italic;font-variant:normal;font-weight:normal;font-stretch:normal;font-size:16px;line-height:14.66666698px;font-family:'GOST type B';-inkscape-font-specification:'GOST type B Italic';text-align:start;letter-spacing:0px;word-spacing:0px;text-anchor:start;fill:#000000;fill-opacity:1;stroke:none"
     id="text920"
     transform="translate(-4.6131298,-5.189771)">
    <path
       d="m 107.56644,129.77713 h 3.28125 q 0.45312,0 0.83593,-0.30469 0.38282,-0.30468 0.47657,-0.78906 l 0.4375,-2.1875 q 0.0937,-0.46094 -0.15625,-0.77344 -0.24219,-0.32031 -0.71875,-0.32031 h -3.28125 z m -0.21875,1.09375 -0.76563,3.82813 q -0.0547,0.25781 -0.24219,0.41406 -0.17187,0.13281 -0.41406,0.13281 -0.21875,0 -0.35937,-0.13281 -0.13282,-0.14063 -0.0781,-0.41406 l 1.96875,-9.84375 q 0.10938,-0.54688 0.65625,-0.54688 h 3.82813 q 0.91406,0 1.42187,0.64063 0.50781,0.64062 0.32813,1.54687 l -0.4375,2.1875 q -0.17969,0.89844 -0.95313,1.54688 -0.76562,0.64062 -1.67187,0.64062 z"
       id="path956"
       inkscape:connector-curvature="0" />
  </g>
  <g
     aria-label="Q"
     style="font-style:italic;font-variant:normal;font-weight:normal;font-stretch:normal;font-size:16px;line-height:14.66666698px;font-family:'GOST type B';-inkscape-font-specification:'GOST type B Italic';text-align:start;letter-spacing:0px;word-spacing:0px;text-anchor:start;fill:#000000;fill-opacity:1;stroke:none"
     id="text924">
    <path
       d="m 40.203766,108.03474 -1.304688,-1.01562 q -0.21875,-0.16406 -0.164062,-0.4375 0.03125,-0.15625 0.242187,-0.38281 0.203125,-0.17969 0.421875,-0.17969 0.117188,0 0.289063,0.10156 l 1.15625,0.89844 1.289062,-6.44531 q 0.09375,-0.46094 -0.15625,-0.773441 -0.242187,-0.320312 -0.71875,-0.320312 h -2.1875 q -0.460937,0 -0.84375,0.3125 -0.1875,0.15625 -0.304687,0.359373 -0.117188,0.19531 -0.164063,0.42188 l -1.3125,6.5625 q -0.09375,0.46093 0.15625,0.78125 0.132813,0.14062 0.304688,0.23437 0.21875,0.0781 0.414062,0.0781 h 2.1875 q 0.171875,0 0.335938,-0.0469 0.164062,-0.0469 0.359375,-0.14844 z m 1.53125,-0.32812 0.789062,0.625 q 0.21875,0.16406 0.164063,0.4375 -0.03906,0.20312 -0.226563,0.38281 -0.203125,0.17188 -0.429687,0.17188 -0.140625,0 -0.289063,-0.10157 l -0.726562,-0.55468 q -0.742188,0.65625 -1.726563,0.65625 h -2.1875 q -0.890625,0 -1.414062,-0.63282 -0.515625,-0.64062 -0.335938,-1.55468 l 1.3125,-6.5625 q 0.179688,-0.914066 0.945313,-1.546878 0.765625,-0.640625 1.679687,-0.640625 h 2.1875 q 0.914063,0 1.421875,0.640625 0.507813,0.640625 0.328125,1.546878 l -1.3125,6.5625 -0.03125,0.14843 q -0.02344,0.10938 -0.04687,0.16407 z"
       style=""
       id="path959" />
  </g>
  <g
     aria-label="M"
     style="font-style:italic;font-variant:normal;font-weight:normal;font-stretch:normal;font-size:16px;line-height:14.66666698px;font-family:'GOST type B';-inkscape-font-specification:'GOST type B Italic';text-align:start;letter-spacing:0px;word-spacing:0px;text-anchor:start;fill:#000000;fill-opacity:1;stroke:none"
     id="text928">
    <path
       d="m 29.544556,81.029358 q -0.05469,0.257812 -0.234375,0.414062 -0.179688,0.132813 -0.421875,0.132813 -0.1875,0 -0.34375,-0.132813 -0.148438,-0.140625 -0.09375,-0.414062 l 1.5625,-7.804688 -3.015625,3.78125 q -0.273438,0.351563 -0.546875,0.351563 -0.234375,0 -0.398438,-0.351563 l -1.515625,-3.78125 -1.5625,7.804688 q -0.05469,0.257812 -0.242187,0.414062 -0.171875,0.132813 -0.414063,0.132813 -0.21875,0 -0.359375,-0.132813 -0.132812,-0.140625 -0.07813,-0.414062 l 1.960938,-9.789063 q 0.0625,-0.3125 0.25,-0.46875 0.171875,-0.164062 0.375,-0.164062 0.148437,0 0.25,0.07813 0.101562,0.07813 0.195312,0.273437 l 1.882813,4.6875 3.75,-4.6875 q 0.257812,-0.351562 0.59375,-0.351562 0.1875,0 0.3125,0.171875 0.109375,0.179687 0.05469,0.460937 z"
       style=""
       id="path962" />
  </g>
  <g
     aria-label="L"
     style="font-style:italic;font-variant:normal;font-weight:normal;font-stretch:normal;font-size:16px;line-height:14.66666698px;font-family:'GOST type B';-inkscape-font-specification:'GOST type B Italic';text-align:start;letter-spacing:0px;word-spacing:0px;text-anchor:start;fill:#000000;fill-opacity:1;stroke:none"
     id="text932">
    <path
       d="m 61.37746,136.34117 h -4.375 q -0.546875,0 -0.4375,-0.54687 l 1.96875,-9.84375 q 0.04687,-0.21875 0.242188,-0.40625 0.195312,-0.14063 0.414062,-0.14063 0.210938,0 0.351563,0.14063 0.140625,0.13281 0.08594,0.40625 l -1.859375,9.29687 h 3.828125 q 0.226563,0 0.351563,0.17188 0.125,0.16406 0.08594,0.375 -0.03906,0.1875 -0.210937,0.36718 -0.171875,0.17969 -0.445313,0.17969 z"
       style=""
       id="path965" />
  </g>
  <g
     aria-label="N"
     style="font-style:italic;font-variant:normal;font-weight:normal;font-stretch:normal;font-size:16px;line-height:14.66666698px;font-family:'GOST type B';-inkscape-font-specification:'GOST type B Italic';text-align:start;letter-spacing:0px;word-spacing:0px;text-anchor:start;fill:#000000;fill-opacity:1;stroke:none"
     id="text936">
    <path
       d="m 89.779732,109.81755 q -0.04687,0.25781 -0.234375,0.4375 l -0.1875,0.125 q -0.09375,0.0469 -0.203125,0.0469 -0.328125,0 -0.453125,-0.34375 l -2.859375,-7.875 -1.53125,7.66406 q -0.05469,0.25781 -0.242188,0.41406 -0.171875,0.13281 -0.414062,0.13281 -0.21875,0 -0.359375,-0.13281 -0.132813,-0.14062 -0.07813,-0.41406 l 1.960937,-9.78906 q 0.05469,-0.289067 0.242188,-0.445317 0.171875,-0.15625 0.390625,-0.15625 0.3125,0 0.445312,0.34375 l 2.859375,7.867187 1.53125,-7.66406 q 0.04687,-0.218752 0.242188,-0.406252 0.195312,-0.140625 0.414062,-0.140625 0.203125,0 0.359375,0.132813 0.132813,0.140625 0.07813,0.414064 z"
       style=""
       id="path968" />
  </g>
  <g
     aria-label="K"
     style="font-style:italic;font-variant:normal;font-weight:normal;font-stretch:normal;font-size:16px;line-height:14.66666698px;font-family:'GOST type B';-inkscape-font-specification:'GOST type B Italic';text-align:start;letter-spacing:0px;word-spacing:0px;text-anchor:start;fill:#000000;fill-opacity:1;stroke:none"
     id="text940">
    <path
       d="m 123.04906,161.90172 5.51563,-4.57031 q 0.19531,-0.16407 0.40625,-0.16407 0.20312,0 0.34375,0.17188 0.14062,0.16406 0.10156,0.39062 -0.0312,0.14063 -0.24219,0.36719 l -3.90625,3.25 2.17188,5.94531 0.0156,0.28907 q -0.0391,0.21093 -0.25,0.36718 -0.19531,0.16407 -0.42968,0.16407 -0.26563,0 -0.40625,-0.28907 l -2.0625,-5.71093 -1.55469,1.28125 -0.83594,4.16406 q -0.0547,0.25781 -0.24219,0.41406 -0.17187,0.13281 -0.41406,0.13281 -0.21875,0 -0.35937,-0.13281 -0.13282,-0.14062 -0.0781,-0.41406 l 1.96875,-9.84375 q 0.0391,-0.21094 0.24219,-0.36719 0.20312,-0.16406 0.41406,-0.16406 0.21094,0 0.35156,0.125 0.14063,0.14062 0.0859,0.40625 z"
       style=""
       id="path971" />
  </g>
  <path
     style="fill:none;stroke:#008000;stroke-width:0.667;stroke-linecap:butt;stroke-linejoin:miter;stroke-opacity:1;stroke-miterlimit:4;stroke-dasharray:2.66799998,2.66799998;stroke-dashoffset:0"
     d="M 38.857873,153.70031 182.91364,104.3909"
     id="path43"
     inkscape:connector-curvature="0" />
  <g
     aria-label="R"
     style="font-style:italic;font-variant:normal;font-weight:normal;font-stretch:normal;font-size:16px;line-height:14.66666698px;font-family:'GOST type B';-inkscape-font-specification:'GOST type B Italic';text-align:start;letter-spacing:0px;word-spacing:0px;text-anchor:start;fill:#000000;fill-opacity:1;stroke:none"
     id="text858">
    <path
       d="m 27.500177,156.27911 h 3.28125 q 0.453125,0 0.835938,-0.30468 0.382812,-0.30469 0.476562,-0.78907 l 0.4375,-2.1875 q 0.09375,-0.46093 -0.15625,-0.77343 -0.242187,-0.32032 -0.71875,-0.32032 h -3.28125 z m 2.953125,1.09375 1.507813,3.53125 0.0078,0.125 0.01563,0.17969 q -0.04687,0.21094 -0.25,0.38281 -0.210937,0.15625 -0.429687,0.15625 -0.125,0 -0.21875,-0.0469 -0.09375,-0.0469 -0.171875,-0.20313 l -1.75,-4.125 h -1.882813 l -0.765625,3.82813 q -0.05469,0.25781 -0.242187,0.41406 -0.171875,0.13281 -0.414063,0.13281 -0.21875,0 -0.359375,-0.13281 -0.132812,-0.14062 -0.07813,-0.41406 l 1.96875,-9.84375 q 0.109375,-0.54688 0.65625,-0.54688 h 3.828125 q 0.914063,0 1.421875,0.64063 0.507813,0.64062 0.328125,1.54687 l -0.4375,2.1875 q -0.179687,0.89844 -0.953125,1.54688 -0.765625,0.64062 -1.671875,0.64062 z"
       style=""
       id="path866" />
  </g>
  <path
     style="fill:none;stroke:#000000;stroke-width:1.33333333;stroke-linecap:butt;stroke-linejoin:miter;stroke-opacity:1"
     d="M 14.590415,122.72057 71.12843,194.74845"
     id="path47"
     inkscape:connector-curvature="0" />
  <path
     inkscape:connector-curvature="0"
     id="path49"
     d="M 62.609003,15.324159 182.91364,104.3909"
     style="fill:none;stroke:#000000;stroke-width:1.33333337;stroke-linecap:butt;stroke-linejoin:miter;stroke-opacity:1"
     sodipodi:nodetypes="cc" />
</svg>
