<?xml version="1.0" encoding="UTF-8" standalone="no"?>
<svg
   xmlns:dc="http://purl.org/dc/elements/1.1/"
   xmlns:cc="http://creativecommons.org/ns#"
   xmlns:rdf="http://www.w3.org/1999/02/22-rdf-syntax-ns#"
   xmlns:svg="http://www.w3.org/2000/svg"
   xmlns="http://www.w3.org/2000/svg"
   xmlns:sodipodi="http://sodipodi.sourceforge.net/DTD/sodipodi-0.dtd"
   xmlns:inkscape="http://www.inkscape.org/namespaces/inkscape"
   width="237.922"
   height="141.609"
   version="1.1"
   id="svg53"
   sodipodi:docname="17-04.svg"
   inkscape:version="0.92.4 (5da689c313, 2019-01-14)">
  <metadata
     id="metadata57">
    <rdf:RDF>
      <cc:Work
         rdf:about="">
        <dc:format>image/svg+xml</dc:format>
        <dc:type
           rdf:resource="http://purl.org/dc/dcmitype/StillImage" />
      </cc:Work>
    </rdf:RDF>
  </metadata>
  <sodipodi:namedview
     pagecolor="#ffffff"
     bordercolor="#666666"
     borderopacity="1"
     objecttolerance="10"
     gridtolerance="10"
     guidetolerance="10"
     inkscape:pageopacity="0"
     inkscape:pageshadow="2"
     inkscape:window-width="1920"
     inkscape:window-height="1009"
     id="namedview55"
     showgrid="false"
     inkscape:zoom="4.7137458"
     inkscape:cx="65.403274"
     inkscape:cy="81.184366"
     inkscape:window-x="0"
     inkscape:window-y="0"
     inkscape:window-maximized="1"
     inkscape:current-layer="svg53" />
  <defs
     id="defs5">
    <marker
       orient="auto"
       refY="0"
       refX="0"
       id="a"
       style="overflow:visible">
      <path
         d="m0 0 5-5-17.5 5L5 5z"
         style="fill:#a02c2c;fill-opacity:1;fill-rule:evenodd;stroke:#a02c2c;stroke-width:1.00000003pt;stroke-opacity:1"
         transform="matrix(-.4 0 0 -.4 -4 0)"
         id="path2" />
    </marker>
  </defs>
  <path
     style="opacity:1;fill:#ffd5d5;fill-opacity:.63529412;stroke:red;stroke-width:1.5;stroke-linecap:round;stroke-linejoin:bevel;stroke-miterlimit:4;stroke-dasharray:none;stroke-dashoffset:0;stroke-opacity:1;paint-order:markers fill stroke"
     d="M194.63 1016.383a83.313 32.595 0 0 1-83.312 32.595 83.313 32.595 0 0 1-83.312-32.595 83.313 32.595 0 0 1 83.312-32.596 83.313 32.595 0 0 1 83.313 32.596z"
     transform="translate(21.2 -923.049)"
     id="path7" />
  <path
     transform="matrix(.95784 .2873 -.1381 .99042 21.2 -923.049)"
     style="opacity:1;fill:#fea;fill-opacity:.63529412;stroke:none;stroke-width:1.79127741;stroke-linecap:round;stroke-linejoin:bevel;stroke-miterlimit:4;stroke-dasharray:none;stroke-dashoffset:0;stroke-opacity:1;paint-order:markers fill stroke"
     d="M187.29 895.414h130.7v59.28h-130.7z"
     id="path9" />
  <path
     style="fill:none;stroke:#00f;stroke-width:1px;stroke-linecap:butt;stroke-linejoin:miter;stroke-opacity:1"
     d="m28.006 932.219 186.571 56.433"
     transform="translate(21.2 -923.049)"
     id="path11" />
  <path
     d="m46.736 996.193 126.246 42.082"
     style="fill:none;stroke:purple;stroke-width:1px;stroke-linecap:butt;stroke-linejoin:miter;stroke-opacity:1"
     transform="translate(21.2 -923.049)"
     id="path13" />
  <path
     d="m44.372 930.518.875-4.375h-2.188q-.46 0-.843.312-.188.156-.305.36-.117.195-.164.421l-.656 3.282q-.094.46.156.78.133.142.304.235.22.078.415.078h1.093q.453 0 .836-.304.383-.305.477-.79zm.242 1.468q-.32.305-.82.516-.5.203-.953.203h-1.094q-.883 0-1.414-.633-.524-.632-.336-1.554l.656-3.282q.18-.906.945-1.546.774-.641 1.68-.641h2.734q.547 0 .438.547l-.984 4.914q-.063.328.078.672.125.304.453.476.312.14.242.493-.047.242-.234.398-.172.164-.422.164-.117 0-.219-.055-.492-.21-.75-.672z"
     transform="translate(21.2 -923.049)"
     aria-label="a"
     style="font-style:italic;font-variant:normal;font-weight:400;font-stretch:normal;font-size:16px;line-height:14.66666698px;font-family:'GOST type B';-inkscape-font-specification:'GOST type B Italic';text-align:start;letter-spacing:0;word-spacing:0;text-anchor:start;fill:#00f;fill-opacity:1;stroke:none"
     id="path15" />
  <g
     style="font-style:normal;font-variant:normal;font-weight:400;font-stretch:normal;font-size:13.33333302px;line-height:14.66666698px;font-family:Arial;-inkscape-font-specification:Arial;text-align:start;letter-spacing:0;word-spacing:0;text-anchor:start;fill:red;fill-opacity:1;stroke:none"
     id="g19">
    <path
       d="M459.387 1018.789h1.438q-.547 1.718-1.008 4.148.547 3.016 1.008 4.148h-1.399q-.336-.78-.507-1.515-.649 1.703-2.711 1.703-1.563 0-2.516-1.172-.953-1.172-.953-3.18 0-2.062.953-3.187.961-1.133 2.54-1.133.976 0 1.593.398.617.391 1.148 1.196.055-.274.414-1.406zm-2.922.976q-1.007 0-1.593.813-.586.812-.586 2.343 0 1.493.554 2.344.555.852 1.547.852.97 0 1.618-.836.648-.844.648-2.422 0-1.531-.61-2.313-.601-.78-1.578-.78z"
       style="font-size:16px"
       transform="matrix(1 0 -.40392 1 21.2 -923.049)"
       aria-label="α"
       id="path17" />
  </g>
  <g
     style="font-style:normal;font-variant:normal;font-weight:400;font-stretch:normal;font-size:13.33333302px;line-height:14.66666698px;font-family:Arial;-inkscape-font-specification:Arial;text-align:start;letter-spacing:0;word-spacing:0;text-anchor:start;fill:#a05a2c;fill-opacity:1;stroke:none"
     id="g23">
    <path
       d="M292.065 967.651v4.235h-1.398v-11.04q0-1.32.351-2.062.36-.75 1.227-1.234.867-.493 1.93-.493 1.57 0 2.375.907.812.898.812 1.968 0 1.047-.656 1.688-.648.64-1.492.789 1.36.133 2.094.977.742.843.742 2.078 0 1.328-.875 2.382-.867 1.047-2.516 1.047-1.687 0-2.594-1.242zm1.243-5.695q1.437 0 2.093-.5.656-.5.656-1.445 0-.766-.562-1.282-.555-.515-1.39-.515-.727 0-1.266.383-.531.382-.656.851-.118.469-.118 1.64v3.15q0 1.343.188 1.976.187.633.805 1.14.617.508 1.421.508.977 0 1.54-.664.57-.672.57-1.656 0-.813-.422-1.453-.414-.649-1.031-.875-.61-.235-1.625-.235h-.204z"
       style="font-size:16px"
       transform="matrix(1 0 -.23623 1 21.2 -923.049)"
       aria-label="β"
       id="path21" />
  </g>
  <g
     style="font-style:normal;font-variant:normal;font-weight:400;font-stretch:normal;font-size:13.33333302px;line-height:14.66666698px;font-family:Arial;-inkscape-font-specification:Arial;text-align:start;letter-spacing:0;word-spacing:0;text-anchor:start;fill:purple;fill-opacity:1;stroke:none"
     id="g27">
    <path
       d="M352.27 971.598h1.438q-.547 1.72-1.008 4.149.547 3.015 1.008 4.148h-1.399q-.336-.781-.507-1.515-.649 1.703-2.711 1.703-1.563 0-2.516-1.172-.953-1.172-.953-3.18 0-2.062.953-3.187.96-1.133 2.539-1.133.977 0 1.594.398.617.391 1.148 1.196.055-.274.414-1.407zm-2.922.977q-1.007 0-1.593.812-.586.813-.586 2.344 0 1.492.554 2.344.555.852 1.547.852.969 0 1.617-.836.649-.844.649-2.422 0-1.532-.61-2.313-.601-.781-1.578-.781z"
       style="font-size:16px;fill:purple"
       transform="rotate(17.792 2888.543 1095.001) skewX(-21.995)"
       aria-label="α"
       id="path25" />
  </g>
  <g
     style="font-style:normal;font-variant:normal;font-weight:400;font-stretch:normal;font-size:13.33333302px;line-height:14.66666698px;font-family:Arial;-inkscape-font-specification:Arial;text-align:start;letter-spacing:0;word-spacing:0;text-anchor:start;fill:purple;fill-opacity:1;stroke:none"
     id="g31">
    <path
       d="M210.076 982.005v4.234h-1.399v-11.04q0-1.32.352-2.062.36-.75 1.227-1.234.867-.492 1.93-.492 1.57 0 2.374.906.813.899.813 1.969 0 1.047-.657 1.687-.648.641-1.492.79 1.36.132 2.094.976.742.844.742 2.078 0 1.328-.875 2.383-.867 1.047-2.515 1.047-1.688 0-2.594-1.242zm1.242-5.696q1.438 0 2.094-.5.656-.5.656-1.445 0-.766-.562-1.281-.555-.516-1.391-.516-.727 0-1.266.383-.531.383-.656.852-.117.468-.117 1.64v3.149q0 1.343.187 1.976.188.633.805 1.14.617.509 1.422.509.976 0 1.539-.664.57-.672.57-1.657 0-.812-.422-1.453-.414-.648-1.03-.875-.61-.234-1.626-.234h-.203z"
       style="font-size:16px;fill:purple"
       transform="rotate(17.792 2888.543 1095.001) skewX(-13.291)"
       aria-label="β"
       id="path29" />
  </g>
  <g
     style="font-style:normal;font-variant:normal;font-weight:400;font-stretch:normal;font-size:15.15824127px;line-height:16.67406654px;font-family:Arial;-inkscape-font-specification:Arial;text-align:start;letter-spacing:0;word-spacing:0;text-anchor:start;fill:purple;fill-opacity:1;stroke:purple;stroke-width:.5"
     id="g35">
    <path
       d="M-30.656 862.781h-.688v-1.984q0-.71-.17-1.472-.17-.77-.496-1.266-.467-.718-1.11-1.2-.637-.48-1.34-.71-.696-.237-1.436-.237-1.887 0-3.308 1.436-1.237 1.236-1.237 3.427v2.006h-.71v-2.19q0-1.089.377-2.051.385-.97 1.088-1.695.704-.725 1.65-1.177.956-.451 2.147-.451 1.259 0 2.295.54 1.036.533 1.687 1.288.66.755.955 1.695.296.932.296 1.85z"
       style="fill:purple;stroke:purple;stroke-width:.5"
       transform="matrix(.83754 .26878 -.34739 1.0825 472.747 -830.262)"
       aria-label=""
       id="path33" />
  </g>
  <g
     aria-label="Канат"
     style="font-style:italic;font-variant:normal;font-weight:400;font-stretch:normal;font-size:13.33333302px;line-height:14.66666698px;font-family:'GOST type B';-inkscape-font-specification:'GOST type B Italic';text-align:start;letter-spacing:0;word-spacing:0;text-anchor:start;fill:#00f;fill-opacity:1;stroke:none"
     id="g39">
    <path
       d="m203.576 45.317 5.556-2.182q.197-.079.364-.024.161.053.228.225.068.167-.022.336-.061.103-.287.228l-3.938 1.556.171 5.272-.062.233q-.086.156-.294.225-.197.08-.383.018-.21-.069-.246-.334l-.146-5.058-1.565.61-1.745 3.078q-.11.19-.3.265-.17.06-.362-.003-.173-.057-.25-.198-.069-.146.046-.348l4.12-7.28q.087-.158.288-.228.204-.077.37-.022.167.054.246.19.075.148-.037.344zM211.418 51.419l1.831-3.236-1.731-.57q-.365-.12-.75.028-.189.075-.334.205-.144.125-.24.292l-1.374 2.426q-.194.341-.08.66.07.145.18.264.154.12.308.17l.866.285q.359.118.741-.024.383-.141.583-.5zm-.19 1.225q-.334.158-.784.195-.449.03-.808-.087l-.865-.285q-.7-.23-.955-.869-.25-.637.139-1.318l1.373-2.427q.378-.67 1.151-.978.78-.306 1.497-.07l2.164.711q.433.143.204.547l-2.058 3.634q-.135.244-.113.552.02.274.234.496.211.192.064.452-.1.18-.29.255-.178.085-.376.02-.093-.03-.159-.1-.335-.296-.419-.728zM218.395 51.794l1.144-2.023q.094-.16.298-.258.191-.06.364-.004.167.055.242.203.077.142-.038.344l-2.747 4.854q-.11.19-.3.264-.17.06-.362-.002-.173-.057-.25-.2-.068-.145.046-.347l1.145-2.022-2.598-.855-1.144 2.023q-.11.19-.3.264-.17.06-.362-.002-.173-.057-.25-.199-.069-.146.046-.348l2.747-4.853q.094-.161.297-.259.192-.06.365-.004.167.055.241.203.077.142-.037.344l-1.145 2.023zM223.54 55.404l1.831-3.235-1.731-.57q-.365-.12-.75.028-.189.075-.334.205-.144.124-.24.292l-1.374 2.426q-.194.34-.08.66.07.145.18.264.154.119.308.17l.866.285q.359.117.741-.024.383-.142.583-.5zm-.19 1.226q-.334.158-.784.195-.449.03-.808-.088l-.866-.284q-.698-.23-.954-.87-.25-.636.138-1.317l1.374-2.427q.378-.67 1.151-.979.78-.306 1.497-.07l2.164.712q.433.142.204.547l-2.058 3.634q-.135.243-.113.552.02.274.234.495.211.193.064.453-.1.18-.29.254-.178.086-.376.02-.093-.03-.159-.1-.335-.295-.419-.727zM230.567 53.877l-1.732-.57-2.518 4.45q-.11.19-.3.264-.17.06-.362-.002-.174-.057-.25-.2-.069-.145.046-.347l2.747-4.854q.229-.404.662-.262l3.896 1.281q.705.232.947.874.25.637-.13 1.314l-2.061 3.64q-.11.19-.3.264-.17.06-.362-.002-.173-.057-.25-.199-.069-.146.046-.348l2.06-3.64q.194-.34.078-.653-.108-.317-.486-.44l-.866-.285-2.518 4.449q-.11.19-.3.264-.17.06-.362-.002-.173-.057-.25-.199-.068-.146.046-.348z"
       id="path37" />
  </g>
  <g
     aria-label="Арена цирка"
     style="font-style:italic;font-variant:normal;font-weight:400;font-stretch:normal;font-size:13.33333302px;line-height:14.66666698px;font-family:'GOST type B';-inkscape-font-specification:'GOST type B Italic';text-align:start;letter-spacing:0;word-spacing:0;text-anchor:start;fill:red;fill-opacity:1;stroke:none"
     id="g43">
    <path
       d="m161.143 134.59-1.048 1.966q-.085.143-.215.234-.104.06-.267.078-.182 0-.293-.13-.123-.117-.084-.312l.065-.163 4.381-8.203q.215-.39.508-.39.293 0 .352.39l1.087 8.203v.163q-.04.175-.215.319-.17.123-.345.123-.091 0-.195-.046-.104-.046-.156-.266l-.267-1.967zm3.19-.931-.54-4.017-2.148 4.017zM168.39 135.964h1.822q.378 0 .697-.254.319-.254.397-.658l.547-2.734q.078-.384-.13-.645-.202-.267-.6-.267h-1.822zm-.183.911-.456 2.279q-.039.189-.208.319-.163.136-.339.136-.156 0-.286-.117-.124-.11-.078-.338l1.64-8.203q.092-.456.547-.456h2.279q.742 0 1.172.534.436.527.286 1.289l-.547 2.734q-.15.749-.794 1.29-.638.533-1.393.533zM175.316 133.23h2.735l.182-.912q.078-.384-.13-.645-.202-.267-.6-.267h-.91q-.385 0-.704.26-.156.131-.254.3-.097.163-.136.352zm-.182.91-.182.912q-.078.384.13.651.11.117.254.196.182.065.345.065h2.279q.188 0 .293.143.104.137.071.312-.032.157-.176.306-.143.15-.37.15h-2.28q-.741 0-1.178-.527-.43-.534-.28-1.296l.547-2.734q.15-.736.781-1.276.639-.547 1.407-.547h.911q.742 0 1.172.534.436.527.287 1.289l-.274 1.367q-.091.456-.547.456zM184.431 133.23l.456-2.28q.039-.182.202-.338.162-.117.345-.117.175 0 .293.117.117.11.071.339l-1.094 5.468q-.045.215-.201.345-.144.111-.345.111-.183 0-.3-.11-.11-.118-.065-.346l.456-2.278h-2.735l-.455 2.278q-.046.215-.202.345-.143.111-.345.111-.183 0-.3-.11-.11-.118-.065-.346l1.094-5.468q.039-.183.202-.339.162-.117.345-.117.176 0 .293.117.117.11.071.339l-.455 2.278zM190.447 135.052l.729-3.646h-1.823q-.384 0-.703.26-.156.131-.254.3-.098.163-.137.352l-.547 2.734q-.078.384.13.651.111.117.254.196.183.065.345.065h.912q.377 0 .696-.254.32-.254.398-.658zm.201 1.224q-.266.254-.683.43-.417.17-.794.17h-.912q-.736 0-1.178-.528-.436-.528-.28-1.296l.547-2.734q.15-.755.787-1.29.645-.533 1.4-.533h2.279q.456 0 .364.456l-.82 4.095q-.052.273.065.56.104.253.378.397.26.117.202.41-.04.202-.196.332-.143.137-.351.137-.098 0-.183-.046-.41-.176-.625-.56zM202.113 135.964l1.003-5.013q.039-.183.202-.339.162-.117.345-.117.176 0 .293.117.117.11.071.339l-1.002 5.013h.455q.456 0 .365.455l-.163.82q-.039.19-.208.32-.163.136-.339.136-.156 0-.286-.117-.124-.11-.078-.338l.071-.365h-2.734q-.742 0-1.178-.527-.43-.534-.28-1.296l.82-4.101q.04-.183.202-.339.163-.117.345-.117.176 0 .293.117.117.11.072.339l-.82 4.101q-.079.384.13.651.11.117.253.196.183.065.345.065zM210.225 136.42q-.09.455-.547.455H207.4q-.736 0-1.179-.527-.436-.528-.28-1.296l.82-4.101q.04-.183.203-.339.162-.117.345-.117.175 0 .293.117.117.11.071.339l-.82 4.101q-.078.384.13.651.11.117.254.196.182.065.345.065h1.823l1.003-5.013q.039-.183.201-.339.163-.117.345-.117.176 0 .293.117.118.11.072.339zM213.05 135.964h1.824q.377 0 .696-.254.32-.254.397-.658l.547-2.734q.078-.384-.13-.645-.202-.267-.599-.267h-1.823zm-.181.911-.456 2.279q-.04.189-.209.319-.162.136-.338.136-.156 0-.287-.117-.123-.11-.078-.338l1.641-8.203q.091-.456.547-.456h2.278q.743 0 1.172.534.437.527.287 1.289l-.547 2.734q-.15.749-.794 1.29-.638.533-1.394.533zM220.779 133.893l-1.237 1.068-.293 1.458q-.046.215-.202.345-.143.111-.345.111-.182 0-.3-.11-.11-.118-.065-.346l1.094-5.468q.04-.183.202-.339.163-.117.345-.117.176 0 .293.117.117.11.071.339l-.54 2.688 3.503-3.033q.143-.137.319-.137.143 0 .293.137.104.136.065.345-.04.188-.222.345l-2.213 1.927 1.295 2.903q.066.19.04.313-.033.189-.209.319-.17.137-.351.137-.183 0-.287-.183zM228.728 135.052l.729-3.646h-1.823q-.384 0-.703.26-.156.131-.254.3-.098.163-.137.352l-.546 2.734q-.079.384.13.651.11.117.254.196.182.065.345.065h.911q.378 0 .697-.254.319-.254.397-.658zm.202 1.224q-.267.254-.684.43-.417.17-.794.17h-.912q-.735 0-1.178-.528-.436-.528-.28-1.296l.547-2.734q.15-.755.788-1.29.644-.533 1.4-.533h2.278q.456 0 .365.456l-.82 4.095q-.053.273.064.56.105.253.378.397.26.117.202.41-.04.202-.195.332-.144.137-.352.137-.098 0-.182-.046-.41-.176-.625-.56z"
       id="path41" />
  </g>
  <path
     style="fill:#a02c2c;stroke:#a02c2c;stroke-width:1px;stroke-linecap:butt;stroke-linejoin:miter;stroke-opacity:1;marker-end:url(#a)"
     d="m42.114 977.95 15.325 3.405"
     transform="translate(21.2 -923.049)"
     id="path49" />
  <path
     style="fill:#8a0;stroke:green;stroke-width:.00522183"
     d="M94.926 953.96c.03.01.098.19.151.398.142.567 1.145 2.833 1.583 3.577.421.716 1.192 1.801 1.531 2.155.122.127.305.359.41.513.104.16.198.287.212.292.025.009.298.362.494.637.059.082.388.449.734.816.79.843.993 1.115 1.077 1.44.038.14.12.424.184.63.189.606.216.716.378 1.411.086.364.276.997.42 1.398.146.401.318.912.383 1.135.134.464.716 1.703.94 1.994.612.8.92 1.443 1.323 2.752.355 1.147.427 1.628.356 2.4-.013.101-.039.42-.056.702-.023.28-.085.718-.147.968-.334 1.433.046 2.866 1.023 3.887.445.463.689.634 1.475 1.026.215.11.465.249.555.309.16.112.872.461 2.29 1.134.765.357.956.503 1.046.796.041.148.017.261-.226.973-.85 2.518-.977 4.098-.383 4.826l.182.22 1.33.47c1.176.415 2.045.67 2.706.806.115.02.546.101.962.178.416.077.872.167 1.012.195.393.08 1.037.138 1.34.113.33-.02.45.045.735.44.12.16.326.377.46.47.229.165.268.179.547.19.17.005.407-.021.533-.065.127-.043.253-.07.277-.061.079.028.167.292.242.735.104.625.235.988.446 1.235.101.12.292.41.42.638.467.821.792 1.043 1.19.814.17-.1.516-.17 1.354-.265.348-.042.551-.208.622-.515.02-.104.1-.247.167-.329a.631.631 0 0 0 .158-.315c.043-.262-.005-.761-.09-.914a3.235 3.235 0 0 1-.163-.474 7.428 7.428 0 0 0-.266-.76c-.226-.547-.408-1.094-.377-1.133.017-.016.22-.105.457-.192.486-.181.702-.381.618-.583-.042-.098-.033-.123.062-.188.06-.045.152-.13.208-.192.078-.095.082-.137.016-.278-.095-.2-.305-.28-.856-.322-.22-.018-.549-.046-.723-.07a14.06 14.06 0 0 0-.703-.052c-.36-.017-.742-.065-1.482-.197a5.188 5.188 0 0 1-.634-.165 2.243 2.243 0 0 0-.54-.12c-.263-.007-1.272-.317-3.466-1.068-1.32-.45-1.656-.58-1.668-.64-.02-.085.013-.146.391-.676.145-.203.292-.411.323-.467.034-.049.277-.45.537-.884.267-.437.498-.803.513-.814.017-.017.152-.285.302-.597.338-.711.51-.899.756-.811.354.127.555.37 1.252 1.54.371.62.472.757.758.98.182.143.443.298.586.349.383.137 1.08.125 1.756-.027.705-.158 1.034-.163 1.292-.015a.827.827 0 0 1 .237.173c.02.04.154.1.295.14.305.075.672-.005.92-.204.16-.12.228-.202.4-.45.016-.029.129-.22.246-.44.246-.439.423-.641.55-.624.048.006.137.1.199.204a.539.539 0 0 0 .334.275c.318.12.382.003.13-.253-.333-.34-.304-.391.38-.69l.593-.265.435-.566c.588-.776.787-1.132 1.056-1.885.2-.544.247-.738.287-1.206.066-.68.199-1.021.485-1.246.107-.084.25-.221.318-.302.53-.626.588-.683 1.058-1.003a.654.654 0 0 0 .267-.36c.079-.22.073-.267-.12-.752-.201-.538-.224-.768-.097-1.016.108-.194.049-.726-.105-1.008-.27-.485-.673-.756-1.203-.807-.317-.03-.454-.157-.705-.651-.326-.638-.505-.774-1.532-1.158-.641-.24-.774-.271-.914-.238-.212.052-.46-.076-.668-.35-.233-.294-.469-.472-.778-.583-.29-.103-.494-.093-.744.034-.094.044-.189.077-.213.068-.025-.01-.166.03-.31.089-.274.118-.243.124-.815-.186-.218-.117-.719-.113-1.024.011-.283.11-.532.342-.611.563-.062.172-.08.177-.539.235-.841.104-.992.183-1.288.687-.249.416-.25.62.002 1.066.224.396.336.78.282.932a.494.494 0 0 1-.144.187c-.086.07-.17.289-.485 1.28-.408 1.28-.56 1.785-.66 2.232-.06.261-.084.297-.25.392-.197.113-.421.105-.973-.026-.388-.094-1.753-.743-2.12-1.006-.163-.115-.414-.298-.562-.396-.48-.332-.693-.513-1.407-1.184-.387-.36-.744-.694-.79-.738-.863-.796-1.747-1.705-1.997-2.044-.783-1.068-1.102-2.38-.929-3.826.029-.25.085-.64.123-.87.038-.231.076-.478.086-.552.01-.074.08-.41.157-.749.38-1.622.442-2.525.248-3.704-.134-.819-.276-1.09-.992-1.896-.632-.714-1.129-1.03-1.896-1.194-.411-.09-.47-.112-.69-.302-.132-.113-.508-.552-.822-.975-.877-1.162-1.019-1.34-1.547-1.895-.922-.973-1.39-1.4-2.267-2.097l-.884-.693.264.022c.497.04 1.83.139 2.101.158.15.015.599.047.998.08.399.03.842.062.984.068.327.017.77.175 1.53.559.887.438 1.149.62 1.677 1.142.594.59 1.076.9 1.437.93.388.033.631-.013.944-.173.404-.216.463-.29 1.155-1.4.102-.164.228-.346.284-.41 1.51-1.595 2.097-1.783 2.219-1.846.323-.162 1.006-.705 1.112-.878a.386.386 0 0 0 .048-.304c-.035-.151-.03-.166.198-.384.145-.143.43-.318.757-.473.478-.223.524-.256.59-.443a.957.957 0 0 1 .157-.282c.163-.147.371-.666.349-.868-.023-.17-.012-.199.083-.264.186-.134.182-.246-.005-.668-.21-.485-.233-.604-.149-.84.083-.232-.06-.56-.329-.756-.152-.115-.216-.138-.43-.131-.351.007-.523.162-.73.631-.205.465-.406.687-1.118 1.22l-1.908 1.414-.172.138c-.218.177-.673.348-.985.37-.136.006-.498.01-.807.005-1.612-.033-2.367-.125-2.564-.318-.136-.131-.387-.221-.543-.188-.071.013-.282.076-.48.133-.321.107-.399.107-.835.023-.263-.055-.773-.148-1.131-.216a92.45 92.45 0 0 1-2.129-.405c-.301-.058-.694-.138-.882-.171-.531-.096-1.648-.368-2.448-.598-.404-.111-.914-.25-1.141-.297a83.553 83.553 0 0 1-.97-.236c-1.337-.339-2.457-.573-2.798-.579-.766-.013-1.43.2-1.778.568-.17.183-.23.301-.393.758-.159.46-.192.614-.196.984-.01.568.023.818.166 1.274.066.2.092.376.06.387.317 1.161.14.665.507 1.734z"
     transform="translate(21.2 -923.049)"
     id="path51" />
  <g
     aria-label="Водяная
плоскость"
     style="font-style:italic;font-variant:normal;font-weight:normal;font-stretch:normal;font-size:13.33333302px;line-height:10.66666698px;font-family:'GOST type B';-inkscape-font-specification:'GOST type B Italic';text-align:end;letter-spacing:0px;word-spacing:0px;text-anchor:end;fill:#aa4400;fill-opacity:1;stroke:none"
     id="text48">
    <path
       d="m 21.221734,45.821039 q 0.345052,0.234375 0.501302,0.657552 0.15625,0.423177 0.05859,0.898437 l -0.364583,1.822917 q -0.14974,0.748698 -0.794271,1.289062 -0.638021,0.533854 -1.393229,0.533854 h -3.190105 q -0.455729,0 -0.364583,-0.455729 l 1.640625,-8.203124 q 0.09115,-0.45573 0.546875,-0.45573 h 2.734375 q 0.761719,0 1.184896,0.533855 0.423177,0.533854 0.273437,1.289062 l -0.182291,0.911458 q -0.0651,0.3125 -0.221354,0.605469 -0.15625,0.292969 -0.429688,0.572917 z m -3.815104,0.638021 -0.729167,3.652343 h 2.734375 q 0.377604,0 0.696615,-0.253906 0.31901,-0.253906 0.397135,-0.657552 l 0.364584,-1.822917 Q 20.948297,46.992914 20.739963,46.732497 20.53814,46.46557 20.141005,46.46557 Z m 2.460937,-0.904948 q 0.377605,0 0.696615,-0.253907 0.31901,-0.253906 0.397135,-0.657552 l 0.182292,-0.911458 q 0.07813,-0.384115 -0.130208,-0.644531 -0.201823,-0.266927 -0.598959,-0.266927 h -2.278645 l -0.546875,2.740885 z"
       style=""
       id="path52" />
    <path
       d="m 27.836317,49.017653 q -0.16276,0.813802 -0.865885,1.412761 -0.703125,0.592447 -1.542969,0.592447 h -0.546875 q -0.813802,0 -1.295573,-0.579427 -0.47526,-0.579427 -0.305989,-1.425781 l 0.46875,-2.369791 q 0.16276,-0.800782 0.865885,-1.39974 0.709635,-0.605469 1.542969,-0.605469 h 0.546875 q 0.813802,0 1.289062,0.585938 0.481771,0.579427 0.3125,1.419271 z m -0.911458,0 0.46875,-2.369791 q 0.09115,-0.449219 -0.162761,-0.76823 -0.247395,-0.32552 -0.709635,-0.32552 h -0.546875 q -0.449219,0 -0.839844,0.31901 -0.384114,0.31901 -0.47526,0.77474 l -0.46875,2.369791 q -0.09115,0.449219 0.16276,0.77474 0.253907,0.31901 0.709636,0.31901 h 0.546875 q 0.442708,0 0.826823,-0.3125 0.390625,-0.3125 0.488281,-0.78125 z"
       style=""
       id="path54" />
    <path
       d="m 33.995172,45.554112 h -1.822917 q -0.384115,0 -0.703125,0.260416 -0.15625,0.130209 -0.253906,0.299479 -0.09766,0.162761 -0.136719,0.351563 l -0.546875,2.734375 q -0.07813,0.384114 0.130208,0.651042 0.110677,0.117187 0.253907,0.195312 0.182291,0.0651 0.345052,0.0651 h 0.911458 q 0.377604,0 0.696614,-0.253906 0.319011,-0.253906 0.397136,-0.657552 z m 0.182291,-0.911459 0.182292,-0.911458 q 0.07813,-0.384115 -0.130208,-0.644531 -0.201823,-0.266927 -0.598959,-0.266927 h -1.822916 q -0.208334,0 -0.3125,-0.123698 -0.09115,-0.14974 -0.05208,-0.332031 0.03255,-0.15625 0.175782,-0.30599 0.143229,-0.14974 0.371093,-0.14974 h 1.822917 q 0.761719,0 1.184896,0.533855 0.423177,0.533854 0.273437,1.289062 l -1.09375,5.46875 q -0.149739,0.748698 -0.794271,1.289062 -0.63802,0.533854 -1.393229,0.533854 h -0.911458 q -0.735677,0 -1.178385,-0.527343 -0.436198,-0.527344 -0.279948,-1.295573 l 0.546875,-2.734375 q 0.149739,-0.755208 0.78776,-1.289063 0.644531,-0.533854 1.39974,-0.533854 z"
       style=""
       id="path56" />
    <path
       d="m 40.010795,47.377028 0.364584,-1.822916 h -1.822917 q -0.384115,0 -0.729167,0.273437 -0.292968,0.266927 -0.364583,0.638021 -0.07162,0.345052 0.110677,0.63151 0.182292,0.279948 0.61849,0.279948 z m -1.302083,0.911459 -2.19401,2.532552 q -0.06511,0.08463 -0.208334,0.16276 l -0.208333,0.04557 q -0.143229,0 -0.292969,-0.136719 -0.123698,-0.136719 -0.08463,-0.325521 0.02604,-0.117187 0.130208,-0.253906 l 1.777344,-2.050781 q -0.651042,-0.09766 -0.93099,-0.631511 -0.273437,-0.533854 -0.149739,-1.165364 0.149739,-0.735677 0.703125,-1.25 0.63151,-0.572917 1.484375,-0.572917 h 2.278645 q 0.45573,0 0.364584,0.455729 l -1.09375,5.46875 q -0.04557,0.214844 -0.201823,0.345052 -0.143229,0.110677 -0.345052,0.110677 -0.182292,0 -0.299479,-0.110677 -0.110677,-0.117187 -0.06511,-0.345052 l 0.45573,-2.278645 z"
       style=""
       id="path58" />
    <path
       d="m 46.391004,47.377028 0.455729,-2.278646 q 0.03906,-0.182291 0.201823,-0.338541 0.162761,-0.117188 0.345052,-0.117188 0.175782,0 0.292969,0.117188 0.117188,0.110677 0.07162,0.338541 l -1.09375,5.46875 q -0.04557,0.214844 -0.201823,0.345052 -0.143229,0.110677 -0.345052,0.110677 -0.182292,0 -0.299479,-0.110677 -0.110677,-0.117187 -0.06511,-0.345052 l 0.45573,-2.278645 h -2.734375 l -0.45573,2.278645 q -0.04557,0.214844 -0.201822,0.345052 -0.14323,0.110677 -0.345052,0.110677 -0.182292,0 -0.29948,-0.110677 -0.110677,-0.117187 -0.0651,-0.345052 l 1.09375,-5.46875 q 0.03906,-0.182291 0.201823,-0.338541 0.16276,-0.117188 0.345052,-0.117188 0.175781,0 0.292969,0.117188 0.117187,0.110677 0.07161,0.338541 l -0.455729,2.278646 z"
       style=""
       id="path60" />
    <path
       d="m 52.40663,49.199945 0.729167,-3.645833 H 51.31288 q -0.384115,0 -0.703125,0.260416 -0.15625,0.130209 -0.253906,0.299479 -0.09766,0.162761 -0.136719,0.351563 l -0.546875,2.734375 q -0.07813,0.384114 0.130208,0.651042 0.110677,0.117187 0.253907,0.195312 0.182291,0.0651 0.345052,0.0651 h 0.911458 q 0.377604,0 0.696614,-0.253906 0.319011,-0.253906 0.397136,-0.657552 z m 0.201823,1.223958 q -0.266927,0.253906 -0.683594,0.429688 -0.416667,0.16927 -0.794271,0.16927 H 50.21913 q -0.735677,0 -1.178385,-0.527343 -0.436198,-0.527344 -0.279948,-1.295573 l 0.546875,-2.734375 q 0.149739,-0.755208 0.78776,-1.289063 0.644531,-0.533854 1.39974,-0.533854 h 2.278645 q 0.45573,0 0.364584,0.455729 l -0.820313,4.095052 q -0.05208,0.273438 0.0651,0.559896 0.104167,0.253907 0.377605,0.397136 0.260416,0.117187 0.201822,0.410156 -0.03906,0.201823 -0.195312,0.332031 -0.143229,0.136719 -0.351563,0.136719 -0.09766,0 -0.182291,-0.04557 -0.410156,-0.175781 -0.625,-0.559896 z"
       style=""
       id="path62" />
    <path
       d="m 59.15142,47.377028 0.364584,-1.822916 h -1.822917 q -0.384115,0 -0.729167,0.273437 -0.292968,0.266927 -0.364583,0.638021 -0.07162,0.345052 0.110677,0.63151 0.182292,0.279948 0.61849,0.279948 z m -1.302083,0.911459 -2.19401,2.532552 q -0.06511,0.08463 -0.208334,0.16276 l -0.208333,0.04557 q -0.143229,0 -0.292969,-0.136719 -0.123698,-0.136719 -0.08463,-0.325521 0.02604,-0.117187 0.130208,-0.253906 l 1.777344,-2.050781 q -0.651042,-0.09766 -0.93099,-0.631511 -0.273437,-0.533854 -0.149739,-1.165364 0.149739,-0.735677 0.703125,-1.25 0.63151,-0.572917 1.484375,-0.572917 h 2.278645 q 0.45573,0 0.364584,0.455729 l -1.09375,5.46875 q -0.04557,0.214844 -0.201823,0.345052 -0.143229,0.110677 -0.345052,0.110677 -0.182292,0 -0.299479,-0.110677 -0.110677,-0.117187 -0.06511,-0.345052 l 0.45573,-2.278645 z"
       style=""
       id="path64" />
    <path
       d="m 8.3831927,61.2338 q -0.045573,0.214843 -0.2018229,0.345052 -0.1432292,0.110677 -0.3450521,0.110677 -0.1822917,0 -0.2994792,-0.110677 Q 7.4261614,61.461664 7.4717344,61.2338 L 8.2920468,57.132237 Q 8.3701718,56.748123 8.1618385,56.487706 7.9600156,56.220779 7.5628802,56.220779 H 5.7399636 L 4.7373594,61.2338 q -0.045573,0.214843 -0.2018229,0.345052 -0.1432292,0.110677 -0.3450521,0.110677 -0.1822916,0 -0.2994791,-0.110677 Q 3.7803282,61.461664 3.8259011,61.2338 l 1.09375,-5.46875 q 0.091146,-0.455729 0.546875,-0.455729 h 2.2786457 q 0.7291667,0 1.171875,0.527343 0.4427083,0.520834 0.2864583,1.295573 z"
       style=""
       id="path66" />
    <path
       d="m 14.763401,61.2338 q -0.04557,0.214843 -0.201823,0.345052 -0.143229,0.110677 -0.345052,0.110677 -0.182292,0 -0.299479,-0.110677 -0.110678,-0.117188 -0.06511,-0.345052 l 1.002605,-5.013021 h -1.048178 l -2.734374,5.15625 q -0.08464,0.149739 -0.221355,0.240885 -0.03255,0.01953 -0.260416,0.07162 -0.182292,0 -0.292969,-0.130208 -0.123698,-0.117188 -0.09115,-0.30599 l 0.0651,-0.16276 2.897136,-5.46875 q 0.16276,-0.3125 0.494791,-0.3125 h 1.829427 q 0.455729,0 0.364584,0.455729 z"
       style=""
       id="path68" />
    <path
       d="m 21.456109,59.684321 q -0.162761,0.813802 -0.865886,1.41276 -0.703125,0.592448 -1.542968,0.592448 H 18.50038 q -0.813802,0 -1.295573,-0.579427 -0.475261,-0.579427 -0.30599,-1.425781 l 0.46875,-2.369792 q 0.162761,-0.800781 0.865886,-1.39974 0.709635,-0.605468 1.542968,-0.605468 h 0.546875 q 0.813802,0 1.289063,0.585937 0.481771,0.579427 0.3125,1.419271 z m -0.911459,0 0.46875,-2.369792 Q 21.104546,56.86531 20.85064,56.5463 20.603244,56.220779 20.141005,56.220779 H 19.59413 q -0.449219,0 -0.839844,0.31901 -0.384115,0.319011 -0.475261,0.77474 l -0.46875,2.369792 q -0.09115,0.449218 0.162761,0.774739 0.253906,0.319011 0.709635,0.319011 h 0.546875 q 0.442709,0 0.826823,-0.3125 0.390625,-0.3125 0.488281,-0.78125 z"
       style=""
       id="path70" />
    <path
       d="m 26.065484,61.689529 h -1.367187 q -0.735677,0 -1.178385,-0.527344 -0.436198,-0.527344 -0.279948,-1.295573 l 0.546875,-2.734375 q 0.149739,-0.755208 0.78776,-1.289062 0.644531,-0.533854 1.39974,-0.533854 h 1.367187 q 0.188802,0 0.292969,0.143229 0.104166,0.136719 0.07161,0.3125 -0.03255,0.15625 -0.175781,0.305989 -0.143229,0.14974 -0.371094,0.14974 h -1.367187 q -0.384115,0 -0.703125,0.260417 -0.15625,0.130208 -0.253906,0.299479 -0.09766,0.16276 -0.136719,0.351562 l -0.546875,2.734375 q -0.07813,0.384115 0.130208,0.651042 0.110677,0.117187 0.253906,0.195312 0.182292,0.0651 0.345053,0.0651 h 1.367187 q 0.188802,0 0.292969,0.143229 0.104166,0.136718 0.07161,0.3125 -0.03255,0.15625 -0.175781,0.305989 -0.143229,0.14974 -0.371094,0.14974 z"
       style=""
       id="path72" />
    <path
       d="m 30.785536,58.707758 -1.236979,1.067708 -0.292968,1.458334 q -0.04557,0.214843 -0.201823,0.345052 -0.143229,0.110677 -0.345052,0.110677 -0.182292,0 -0.29948,-0.110677 -0.110677,-0.117188 -0.0651,-0.345052 l 1.09375,-5.46875 q 0.03906,-0.182292 0.201823,-0.338542 0.162761,-0.117187 0.345052,-0.117187 0.175781,0 0.292969,0.117187 0.117187,0.110677 0.07162,0.338542 l -0.540365,2.688802 3.502604,-3.033854 q 0.143229,-0.136719 0.31901,-0.136719 0.14323,0 0.292969,0.136719 0.104167,0.136718 0.0651,0.345052 -0.03906,0.188802 -0.221354,0.345052 l -2.213541,1.927083 1.295572,2.903646 q 0.0651,0.188802 0.03906,0.3125 -0.03255,0.188802 -0.208333,0.31901 -0.169271,0.136719 -0.351563,0.136719 -0.182291,0 -0.286458,-0.182292 z"
       style=""
       id="path74" />
    <path
       d="m 39.685275,59.684321 q -0.162761,0.813802 -0.865886,1.41276 -0.703125,0.592448 -1.542968,0.592448 h -0.546875 q -0.813802,0 -1.295573,-0.579427 -0.475261,-0.579427 -0.30599,-1.425781 l 0.46875,-2.369792 q 0.162761,-0.800781 0.865886,-1.39974 0.709635,-0.605468 1.542968,-0.605468 h 0.546875 q 0.813802,0 1.289063,0.585937 0.481771,0.579427 0.3125,1.419271 z m -0.911459,0 0.46875,-2.369792 Q 39.333712,56.86531 39.079806,56.5463 38.83241,56.220779 38.370171,56.220779 h -0.546875 q -0.449219,0 -0.839844,0.31901 -0.384115,0.319011 -0.475261,0.77474 l -0.46875,2.369792 q -0.09114,0.449218 0.162761,0.774739 0.253906,0.319011 0.709635,0.319011 h 0.546875 q 0.442709,0 0.826823,-0.3125 0.390625,-0.3125 0.488281,-0.78125 z"
       style=""
       id="path76" />
    <path
       d="m 44.294648,61.689529 h -1.367187 q -0.735677,0 -1.178385,-0.527344 -0.436198,-0.527344 -0.279948,-1.295573 l 0.546875,-2.734375 q 0.149739,-0.755208 0.78776,-1.289062 0.644531,-0.533854 1.39974,-0.533854 h 1.367187 q 0.188802,0 0.292969,0.143229 0.104167,0.136719 0.07161,0.3125 -0.03255,0.15625 -0.175781,0.305989 -0.143229,0.14974 -0.371094,0.14974 h -1.367187 q -0.384115,0 -0.703125,0.260417 -0.15625,0.130208 -0.253906,0.299479 -0.09766,0.16276 -0.136719,0.351562 l -0.546875,2.734375 q -0.07813,0.384115 0.130208,0.651042 0.110677,0.117187 0.253907,0.195312 0.182291,0.0651 0.345052,0.0651 h 1.367187 q 0.188802,0 0.292969,0.143229 0.104167,0.136718 0.07161,0.3125 -0.03255,0.15625 -0.175781,0.305989 -0.143229,0.14974 -0.371094,0.14974 z"
       style=""
       id="path78" />
    <path
       d="M 50.401419,56.220779 H 48.578503 L 47.575899,61.2338 q -0.04557,0.214843 -0.201823,0.345052 -0.14323,0.110677 -0.345052,0.110677 -0.182292,0 -0.29948,-0.110677 -0.110677,-0.117188 -0.0651,-0.345052 l 1.09375,-5.46875 q 0.09115,-0.455729 0.546875,-0.455729 h 4.101563 q 0.742187,0 1.171875,0.533854 0.436197,0.527344 0.286458,1.289062 L 53.044648,61.2338 q -0.04557,0.214843 -0.201823,0.345052 -0.143229,0.110677 -0.345052,0.110677 -0.182291,0 -0.299479,-0.110677 -0.110677,-0.117188 -0.0651,-0.345052 l 0.820313,-4.101563 q 0.07813,-0.384114 -0.130209,-0.644531 -0.201823,-0.266927 -0.598958,-0.266927 H 51.312878 L 50.310273,61.2338 q -0.04557,0.214843 -0.201822,0.345052 -0.14323,0.110677 -0.345053,0.110677 -0.182291,0 -0.299479,-0.110677 -0.110677,-0.117188 -0.0651,-0.345052 z"
       style=""
       id="path80" />
    <path
       d="m 56.234753,58.955154 -0.364584,1.822917 h 1.822917 q 0.416667,0 0.716146,-0.273438 0.305989,-0.279948 0.377604,-0.638021 0.07813,-0.384114 -0.09766,-0.63151 -0.08464,-0.123698 -0.247396,-0.201823 -0.15625,-0.07813 -0.384115,-0.07813 z m 0.182291,-0.911458 h 1.822917 q 0.859375,0 1.25651,0.566406 0.351563,0.514323 0.201823,1.25651 -0.143229,0.722656 -0.696614,1.25 -0.631511,0.572917 -1.490886,0.572917 h -2.278645 q -0.45573,0 -0.364584,-0.455729 l 1.09375,-5.46875 q 0.03906,-0.182292 0.201823,-0.338542 0.162761,-0.117187 0.345052,-0.117187 0.175781,0 0.292969,0.117187 0.117187,0.110677 0.07162,0.338542 z"
       style=""
       id="path82" />
  </g>
</svg>
