<?xml version="1.0" encoding="UTF-8" standalone="no"?>
<!-- Created with Inkscape (http://www.inkscape.org/) -->

<svg
   xmlns:dc="http://purl.org/dc/elements/1.1/"
   xmlns:cc="http://creativecommons.org/ns#"
   xmlns:rdf="http://www.w3.org/1999/02/22-rdf-syntax-ns#"
   xmlns:svg="http://www.w3.org/2000/svg"
   xmlns="http://www.w3.org/2000/svg"
   xmlns:sodipodi="http://sodipodi.sourceforge.net/DTD/sodipodi-0.dtd"
   xmlns:inkscape="http://www.inkscape.org/namespaces/inkscape"
   width="21.696005mm"
   height="26.836622mm"
   id="svg2"
   version="1.1"
   inkscape:version="0.92.4 (5da689c313, 2019-01-14)"
   sodipodi:docname="19-06.svg"
   inkscape:export-filename="/home/goldin/Documents/Математика/Рабочий план/i/18-03.png"
   inkscape:export-xdpi="600"
   inkscape:export-ydpi="600">
  <defs
     id="defs4">
    <marker
       inkscape:isstock="true"
       style="overflow:visible"
       id="marker1034"
       refX="0"
       refY="0"
       orient="auto"
       inkscape:stockid="Arrow1Mend">
      <path
         inkscape:connector-curvature="0"
         transform="matrix(-0.4,0,0,-0.4,-4,0)"
         style="fill:#0000ff;fill-opacity:1;fill-rule:evenodd;stroke:#0000ff;stroke-width:1.00000003pt;stroke-opacity:1"
         d="M 0,0 5,-5 -12.5,0 5,5 Z"
         id="path1032" />
    </marker>
    <marker
       inkscape:isstock="true"
       style="overflow:visible"
       id="marker964"
       refX="0"
       refY="0"
       orient="auto"
       inkscape:stockid="DotS">
      <path
         inkscape:connector-curvature="0"
         transform="matrix(0.2,0,0,0.2,1.48,0.2)"
         style="fill:#0000ff;fill-opacity:1;fill-rule:evenodd;stroke:#0000ff;stroke-width:1.00000003pt;stroke-opacity:1"
         d="m -2.5,-1 c 0,2.76 -2.24,5 -5,5 -2.76,0 -5,-2.24 -5,-5 0,-2.76 2.24,-5 5,-5 2.76,0 5,2.24 5,5 z"
         id="path962" />
    </marker>
    <marker
       inkscape:isstock="true"
       style="overflow:visible"
       id="marker1139"
       refX="0"
       refY="0"
       orient="auto"
       inkscape:stockid="Arrow1Mend">
      <path
         inkscape:connector-curvature="0"
         transform="matrix(-0.4,0,0,-0.4,-4,0)"
         style="fill:#0000ff;fill-opacity:1;fill-rule:evenodd;stroke:#0000ff;stroke-width:1.00000003pt;stroke-opacity:1"
         d="M 0,0 5,-5 -12.5,0 5,5 Z"
         id="path1137" />
    </marker>
    <marker
       inkscape:isstock="true"
       style="overflow:visible"
       id="marker1081"
       refX="0"
       refY="0"
       orient="auto"
       inkscape:stockid="DotS">
      <path
         inkscape:connector-curvature="0"
         transform="matrix(0.2,0,0,0.2,1.48,0.2)"
         style="fill:#0000ff;fill-opacity:1;fill-rule:evenodd;stroke:#0000ff;stroke-width:1.00000003pt;stroke-opacity:1"
         d="m -2.5,-1 c 0,2.76 -2.24,5 -5,5 -2.76,0 -5,-2.24 -5,-5 0,-2.76 2.24,-5 5,-5 2.76,0 5,2.24 5,5 z"
         id="path1079" />
    </marker>
    <marker
       inkscape:isstock="true"
       style="overflow:visible"
       id="marker945"
       refX="0"
       refY="0"
       orient="auto"
       inkscape:stockid="Arrow1Mend">
      <path
         inkscape:connector-curvature="0"
         transform="matrix(-0.4,0,0,-0.4,-4,0)"
         style="fill:#800080;fill-opacity:1;fill-rule:evenodd;stroke:#800080;stroke-width:1.00000003pt;stroke-opacity:1"
         d="M 0,0 5,-5 -12.5,0 5,5 Z"
         id="path943" />
    </marker>
    <marker
       inkscape:isstock="true"
       style="overflow:visible"
       id="marker899"
       refX="0"
       refY="0"
       orient="auto"
       inkscape:stockid="DotS">
      <path
         inkscape:connector-curvature="0"
         transform="matrix(0.2,0,0,0.2,1.48,0.2)"
         style="fill:#800080;fill-opacity:1;fill-rule:evenodd;stroke:#800080;stroke-width:1.00000003pt;stroke-opacity:1"
         d="m -2.5,-1 c 0,2.76 -2.24,5 -5,5 -2.76,0 -5,-2.24 -5,-5 0,-2.76 2.24,-5 5,-5 2.76,0 5,2.24 5,5 z"
         id="path897" />
    </marker>
    <marker
       inkscape:stockid="Arrow1Mend"
       orient="auto"
       refY="0"
       refX="0"
       id="marker1194"
       style="overflow:visible"
       inkscape:isstock="true"
       inkscape:collect="always">
      <path
         id="path870"
         d="M 0,0 5,-5 -12.5,0 5,5 Z"
         style="fill:#0000ff;fill-opacity:1;fill-rule:evenodd;stroke:#0000ff;stroke-width:1.00000003pt;stroke-opacity:1"
         transform="matrix(-0.4,0,0,-0.4,-4,0)"
         inkscape:connector-curvature="0" />
    </marker>
    <marker
       inkscape:stockid="DotM"
       orient="auto"
       refY="0"
       refX="0"
       id="DotM"
       style="overflow:visible"
       inkscape:isstock="true">
      <path
         id="path925"
         d="m -2.5,-1 c 0,2.76 -2.24,5 -5,5 -2.76,0 -5,-2.24 -5,-5 0,-2.76 2.24,-5 5,-5 2.76,0 5,2.24 5,5 z"
         style="fill:#0000ff;fill-opacity:1;fill-rule:evenodd;stroke:#0000ff;stroke-width:1.00000003pt;stroke-opacity:1"
         transform="matrix(0.4,0,0,0.4,2.96,0.4)"
         inkscape:connector-curvature="0" />
    </marker>
    <marker
       inkscape:stockid="Arrow1Lend"
       orient="auto"
       refY="0"
       refX="0"
       id="Arrow1Lend"
       style="overflow:visible">
      <path
         id="path3786"
         d="M 0,0 5,-5 -12.5,0 5,5 Z"
         style="fill-rule:evenodd;stroke:#000000;stroke-width:1.00000003pt"
         transform="matrix(-0.8,0,0,-0.8,-10,0)"
         inkscape:connector-curvature="0" />
    </marker>
    <marker
       inkscape:stockid="Arrow1Mend"
       orient="auto"
       refY="0"
       refX="0"
       id="Arrow1Mend"
       style="overflow:visible">
      <path
         id="path3792"
         d="M 0,0 5,-5 -12.5,0 5,5 Z"
         style="fill-rule:evenodd;stroke:#000000;stroke-width:1.00000003pt"
         transform="matrix(-0.4,0,0,-0.4,-4,0)"
         inkscape:connector-curvature="0" />
    </marker>
  </defs>
  <sodipodi:namedview
     id="base"
     pagecolor="#ffffff"
     bordercolor="#666666"
     borderopacity="1.0"
     inkscape:pageopacity="0.0"
     inkscape:pageshadow="2"
     inkscape:zoom="6.4131174"
     inkscape:cx="27.648636"
     inkscape:cy="54.396967"
     inkscape:document-units="pt"
     inkscape:current-layer="layer1"
     showgrid="false"
     units="mm"
     inkscape:window-width="1920"
     inkscape:window-height="1009"
     inkscape:window-x="0"
     inkscape:window-y="0"
     inkscape:window-maximized="1"
     fit-margin-top="1"
     fit-margin-left="1"
     fit-margin-right="1"
     fit-margin-bottom="1"
     inkscape:snap-global="false" />
  <metadata
     id="metadata7">
    <rdf:RDF>
      <cc:Work
         rdf:about="">
        <dc:format>image/svg+xml</dc:format>
        <dc:type
           rdf:resource="http://purl.org/dc/dcmitype/StillImage" />
        <dc:title />
      </cc:Work>
    </rdf:RDF>
  </metadata>
  <g
     inkscape:label="Layer 1"
     inkscape:groupmode="layer"
     id="layer1"
     transform="translate(-5.9581913,-961.62748)">
    <path
       style="fill:none;stroke:#0000ff;stroke-width:1px;stroke-linecap:butt;stroke-linejoin:miter;stroke-opacity:1;marker-start:;marker-end:url(#marker1139)"
       d="M 9.7694825,1037.8938 66.443766,1009.387"
       id="path42"
       inkscape:connector-curvature="0"
       sodipodi:nodetypes="cc" />
    <path
       sodipodi:nodetypes="cc"
       inkscape:connector-curvature="0"
       id="path35"
       d="m 9.925413,1029.4736 72.326725,15.6397"
       style="fill:none;stroke:#0000ff;stroke-width:1px;stroke-linecap:butt;stroke-linejoin:miter;stroke-opacity:1;marker-start:;marker-end:url(#marker1194)" />
    <path
       style="fill:none;stroke:#0000ff;stroke-width:1px;stroke-linecap:butt;stroke-linejoin:miter;stroke-opacity:1;marker-start:;marker-end:url(#marker1034)"
       d="M 21.464263,1051.9276 21.135567,975.18928"
       id="path37"
       inkscape:connector-curvature="0"
       sodipodi:nodetypes="cc" />
    <g
       transform="matrix(-0.04158507,0,0,-0.04158507,48.425108,982.01197)"
       id="XMLID_23_">
      <g
         id="g28">
        <path
           inkscape:connector-curvature="0"
           style="fill:#e0c732"
           d="m 360.765,46.411 h -85.17 c 12.98,-8.97 27.62,-13.79 42.59,-13.79 14.97,0 29.61,4.82 42.58,13.79 z"
           id="path2" />
        <path
           inkscape:connector-curvature="0"
           style="fill:#e0c732"
           d="m 141.325,46.411 h -85.17 c 12.98,-8.97 27.62,-13.79 42.59,-13.79 14.96,0 29.61,4.82 42.58,13.79 z"
           id="path4" />
        <path
           style="fill:#6dcc93"
           d="M 57.845001,350.66101 H 139.645 v 33.64 H 57.845001 Z"
           id="rect6" />
        <path
           style="fill:#6dcc93"
           d="m 277.285,350.66101 h 81.80001 v 33.64 H 277.285 Z"
           id="rect8" />
        <path
           style="fill:#2e7249"
           d="m 288.47501,323.60101 h 59.41 v 12.06 h -59.41 z"
           id="rect10" />
        <path
           style="fill:#2e7249"
           d="M 69.035004,323.60101 H 128.445 v 12.06 H 69.035004 Z"
           id="rect12" />
        <path
           inkscape:connector-curvature="0"
           style="fill:#4d4d4d"
           d="m 416.675,53.911 v 89.05 c 0,4.15 -3.36,7.5 -7.5,7.5 h -13.18 l -19.31,72.09 v 93.55 c 0,4.14 -3.36,7.5 -7.5,7.5 h -6.3 v 12.06 h 3.7 c 4.14,0 7.5,3.36 7.5,7.5 v 48.64 c 0,4.14 -3.36,7.5 -7.5,7.5 h -96.8 c -4.14,0 -7.5,-3.36 -7.5,-7.5 v -48.64 c 0,-4.14 3.36,-7.5 7.5,-7.5 h 3.69 v -12.06 h -130.03 v 12.06 h 3.7 c 4.14,0 7.5,3.36 7.5,7.5 v 48.64 c 0,4.14 -3.36,7.5 -7.5,7.5 h -96.8 c -4.15,0 -7.5,-3.36 -7.5,-7.5 v -48.64 c 0,-4.14 3.35,-7.5 7.5,-7.5 h 3.69 v -12.06 h -6.3 c -4.14,0 -7.5,-3.36 -7.5,-7.5 v -93.55 l -19.3,-72.09 H 7.755 c -4.15,0 -7.5,-3.35 -7.5,-7.5 v -89.05 c 0,-4.14 3.35,-7.5 7.5,-7.5 h 25.14 c 18.47,-18.59 41.74,-28.79 65.85,-28.79 24.11,0 47.37,10.2 65.85,28.79 h 25.14 c 4.14,0 7.5,3.36 7.5,7.5 v 89.05 c 0,4.15 -3.36,7.5 -7.5,7.5 h -13.18 l -17.04,63.6 h 16.51 c 13.35,0 25.18,6.59 32.44,16.68 7.25,-10.09 19.08,-16.68 32.43,-16.68 h 16.51 l -17.03,-63.6 h -13.18 c -4.15,0 -7.5,-3.35 -7.5,-7.5 v -89.05 c 0,-4.14 3.35,-7.5 7.5,-7.5 h 25.14 c 18.48,-18.59 41.74,-28.79 65.85,-28.79 24.11,0 47.37,10.2 65.85,28.79 h 25.14 c 4.14,0 7.5,3.36 7.5,7.5 z m -15,81.55 v -74.05 h -166.98 v 74.05 z m -38.25,78.6 17.04,-63.6 h -124.56 l 17.03,63.6 z m -1.74,94.54 v -79.54 h -120.79 c -13.74,0 -24.92,11.18 -24.93,24.92 0,0 0,0.01 0,0.02 v 54.6 z m -86.09,-262.19 h 85.17 c -12.97,-8.97 -27.61,-13.79 -42.58,-13.79 -14.97,0 -29.61,4.82 -42.59,13.79 z m 83.49,337.89 v -33.64 h -81.8 v 33.64 z m -11.2,-48.64 v -12.06 h -59.41 v 12.06 z m -146.92,-27.06 v -54.6 c 0,-13.75 -11.19,-24.94 -24.94,-24.94 H 55.235 v 79.54 z m -18.73,-173.14 V 61.411 H 15.255 v 74.05 z m -38.25,78.6 17.04,-63.6 H 36.455 l 17.04,63.6 z M 56.155,46.411 h 85.17 c -12.97,-8.97 -27.62,-13.79 -42.58,-13.79 -14.97,0 -29.61,4.82 -42.59,13.79 z m 83.49,337.89 v -33.64 h -81.8 v 33.64 z m -11.2,-48.64 v -12.06 h -59.41 v 12.06 z"
           id="path14" />
        <path
           style="fill:#6dcc93"
           d="M 234.69501,61.410999 H 401.675 V 135.461 H 234.69501 Z"
           id="rect16" />
        <path
           style="fill:#368753"
           d="m 380.465,150.461 -17.04,63.6 h -90.49 l -17.03,-63.6 z"
           id="polygon18" />
        <path
           inkscape:connector-curvature="0"
           style="fill:#6dcc93"
           d="m 361.685,229.061 v 79.54 h -145.72 v -54.6 c 0,-0.01 0,-0.02 0,-0.02 0.01,-13.74 11.19,-24.92 24.93,-24.92 z"
           id="path20" />
        <path
           inkscape:connector-curvature="0"
           style="fill:#6dcc93"
           d="m 200.965,254.001 v 54.6 H 55.235 v -79.54 h 120.79 c 13.75,0 24.94,11.19 24.94,24.94 z"
           id="path22" />
        <path
           style="fill:#6dcc93"
           d="m 15.255,61.410999 h 166.98 V 135.461 H 15.255 Z"
           id="rect24" />
        <path
           style="fill:#368753"
           d="m 161.025,150.461 -17.04,63.6 h -90.49 l -17.04,-63.6 z"
           id="polygon26" />
      </g>
      <g
         id="g30" />
    </g>
    <g
       transform="matrix(-0.04158507,0,0,-0.04158507,4.2968407,1038.6125)"
       id="g33" />
    <g
       transform="matrix(-0.04158507,0,0,-0.04158507,4.2968407,1038.6125)"
       id="g35" />
    <g
       transform="matrix(-0.04158507,0,0,-0.04158507,4.2968407,1038.6125)"
       id="g37" />
    <g
       transform="matrix(-0.04158507,0,0,-0.04158507,4.2968407,1038.6125)"
       id="g39" />
    <g
       transform="matrix(-0.04158507,0,0,-0.04158507,4.2968407,1038.6125)"
       id="g41" />
    <g
       transform="matrix(-0.04158507,0,0,-0.04158507,4.2968407,1038.6125)"
       id="g43" />
    <g
       transform="matrix(-0.04158507,0,0,-0.04158507,4.2968407,1038.6125)"
       id="g45" />
    <g
       transform="matrix(-0.04158507,0,0,-0.04158507,4.2968407,1038.6125)"
       id="g47" />
    <g
       transform="matrix(-0.04158507,0,0,-0.04158507,4.2968407,1038.6125)"
       id="g49" />
    <g
       transform="matrix(-0.04158507,0,0,-0.04158507,4.2968407,1038.6125)"
       id="g51" />
    <g
       transform="matrix(-0.04158507,0,0,-0.04158507,4.2968407,1038.6125)"
       id="g53" />
    <g
       transform="matrix(-0.04158507,0,0,-0.04158507,4.2968407,1038.6125)"
       id="g55" />
    <g
       transform="matrix(-0.04158507,0,0,-0.04158507,4.2968407,1038.6125)"
       id="g57" />
    <g
       transform="matrix(-0.04158507,0,0,-0.04158507,4.2968407,1038.6125)"
       id="g59" />
    <g
       transform="matrix(-0.04158507,0,0,-0.04158507,4.2968407,1038.6125)"
       id="g61" />
    <path
       inkscape:connector-curvature="0"
       id="path125"
       d="m 40.210938,1018.9551 c 3.292315,0.1927 6.501439,1.0516 9.173828,2.5527 2.672388,1.5011 4.531718,3.4978 5.416015,5.707 0.884297,2.2093 0.771454,4.6296 -0.447265,6.8711 -2.437439,4.483 -8.657744,7.3477 -15.578125,7.3477 v -0.8555 c 6.681172,0 12.611605,-2.8292 14.826171,-6.9023 1.107284,-2.0366 1.198637,-4.1532 0.402344,-6.1426 -0.796293,-1.9894 -2.501754,-3.8541 -5.039062,-5.2793 -5.074617,-2.8505 -12.362819,-3.2829 -18.123047,-1.0566 l -0.308594,-0.7989 c 3.009531,-1.1631 6.385419,-1.636 9.677735,-1.4433 z"
       style="color:#000000;font-style:normal;font-variant:normal;font-weight:normal;font-stretch:normal;font-size:medium;line-height:normal;font-family:sans-serif;font-variant-ligatures:normal;font-variant-position:normal;font-variant-caps:normal;font-variant-numeric:normal;font-variant-alternates:normal;font-feature-settings:normal;text-indent:0;text-align:start;text-decoration:none;text-decoration-line:none;text-decoration-style:solid;text-decoration-color:#000000;letter-spacing:normal;word-spacing:normal;text-transform:none;writing-mode:lr-tb;direction:ltr;text-orientation:mixed;dominant-baseline:auto;baseline-shift:baseline;text-anchor:start;white-space:normal;shape-padding:0;clip-rule:nonzero;display:inline;overflow:visible;visibility:visible;opacity:1;isolation:auto;mix-blend-mode:normal;color-interpolation:sRGB;color-interpolation-filters:linearRGB;solid-color:#000000;solid-opacity:1;vector-effect:none;fill:#ff0000;fill-opacity:1;fill-rule:nonzero;stroke:none;stroke-width:0.85699999;stroke-linecap:butt;stroke-linejoin:round;stroke-miterlimit:4;stroke-dasharray:none;stroke-dashoffset:0;stroke-opacity:1;paint-order:normal;color-rendering:auto;image-rendering:auto;shape-rendering:auto;text-rendering:auto;enable-background:accumulate" />
    <path
       id="path992"
       d="m 33.027891,1020.0554 2.069954,1.2614 -6.234025,-0.2505 5.425353,-3.0808 z"
       style="fill:#ff0000;fill-rule:evenodd;stroke:#ff0000;stroke-width:0.34280001pt"
       inkscape:connector-curvature="0" />
    <g
       style="font-style:normal;font-variant:normal;font-weight:normal;font-stretch:normal;font-size:16px;line-height:18.66666603px;font-family:'GOST type B';-inkscape-font-specification:'GOST type B';text-align:start;letter-spacing:0px;word-spacing:0px;text-anchor:start;fill:#000000;fill-opacity:1;stroke:none"
       id="text1002" />
    <g
       style="font-style:normal;font-variant:normal;font-weight:normal;font-stretch:normal;font-size:16px;line-height:18.66666603px;font-family:'GOST type B';-inkscape-font-specification:'GOST type B';text-align:start;letter-spacing:0px;word-spacing:0px;text-anchor:start;fill:#000000;fill-opacity:1;stroke:none"
       id="text1006" />
    <g
       style="font-style:normal;font-variant:normal;font-weight:normal;font-stretch:normal;font-size:16px;line-height:18.66666603px;font-family:'GOST type B';-inkscape-font-specification:'GOST type B';text-align:start;letter-spacing:0px;word-spacing:0px;text-anchor:start;fill:#000000;fill-opacity:1;stroke:none"
       id="text1010" />
    <g
       style="font-style:normal;font-variant:normal;font-weight:normal;font-stretch:normal;font-size:16px;line-height:18.66666603px;font-family:'GOST type B';-inkscape-font-specification:'GOST type B';text-align:start;letter-spacing:0px;word-spacing:0px;text-anchor:start;fill:#000000;fill-opacity:1;stroke:none"
       id="text1014" />
    <g
       aria-label="O"
       transform="matrix(1,0,-0.17107793,1,56.914598,33.992829)"
       style="font-style:normal;font-variant:normal;font-weight:normal;font-stretch:normal;font-size:16px;line-height:18.66666603px;font-family:'GOST type B';-inkscape-font-specification:'GOST type B';text-align:start;letter-spacing:0px;word-spacing:0px;text-anchor:start;fill:#0000ff;fill-opacity:1;stroke:none"
       id="text89">
      <path
         d="m 134.68443,1011.7516 q 0,0.8984 -0.64062,1.5469 -0.64063,0.6406 -1.54688,0.6406 h -2.1875 q -0.89062,0 -1.53906,-0.6328 -0.64844,-0.6407 -0.64844,-1.5547 v -6.5625 q 0,-0.9141 0.63282,-1.5469 0.64062,-0.6406 1.55468,-0.6406 h 2.1875 q 0.91407,0 1.54688,0.6406 0.64062,0.6406 0.64062,1.5469 z m -1.09375,0 v -6.5625 q 0,-0.461 -0.3125,-0.7735 -0.30468,-0.3203 -0.78125,-0.3203 h -2.1875 q -0.46093,0 -0.78125,0.3125 -0.15625,0.1563 -0.23437,0.3594 -0.0781,0.1953 -0.0781,0.4219 v 6.5625 q 0,0.4609 0.3125,0.7812 0.16407,0.1407 0.35157,0.2344 0.23437,0.078 0.42968,0.078 h 2.1875 q 0.45313,0 0.77344,-0.3047 0.32031,-0.3046 0.32031,-0.789 z"
         id="path112"
         inkscape:connector-curvature="0" />
    </g>
    <g
       aria-label="y"
       transform="matrix(1,0,-0.17107793,1,109.15128,-13.410015)"
       style="font-style:normal;font-variant:normal;font-weight:normal;font-stretch:normal;font-size:16px;line-height:18.66666603px;font-family:'GOST type B';-inkscape-font-specification:'GOST type B';text-align:start;letter-spacing:0px;word-spacing:0px;text-anchor:start;fill:#0000ff;fill-opacity:1;stroke:none"
       id="text93">
      <path
         d="m 136.03183,1032.752 -2.11719,-6.8907 -0.0312,-0.1875 q 0,-0.2109 0.17188,-0.3828 0.17187,-0.1484 0.39062,-0.1484 0.36719,0 0.51563,0.3906 l 1.64062,5.3672 1.6875,-5.3672 q 0.13281,-0.3906 0.51563,-0.3906 0.24218,0 0.39843,0.1484 0.16407,0.1406 0.16407,0.3828 l -0.0312,0.1875 -2.84375,9.0703 q -0.11719,0.4844 -0.53907,0.8204 -0.42187,0.3359 -0.96875,0.3359 h -0.54687 q -0.20313,0 -0.40625,-0.1641 -0.14063,-0.164 -0.14063,-0.3828 0,-0.2187 0.13282,-0.3828 0.14062,-0.1641 0.41406,-0.1641 h 0.53906 q 0.17188,0 0.28125,-0.1093 0.11719,-0.086 0.1875,-0.2657 z"
         id="path109"
         inkscape:connector-curvature="0" />
    </g>
    <g
       aria-label="x"
       transform="matrix(1,0,-0.17107793,1,100.10732,44.284235)"
       style="font-style:normal;font-variant:normal;font-weight:normal;font-stretch:normal;font-size:16px;line-height:18.66666603px;font-family:'GOST type B';-inkscape-font-specification:'GOST type B';text-align:start;letter-spacing:0px;word-spacing:0px;text-anchor:start;fill:#0000ff;fill-opacity:1;stroke:none"
       id="text97">
      <path
         d="m 151.34196,1008.3957 1.98438,2.9766 0.0781,0.164 0.0156,0.1485 q 0,0.2109 -0.17188,0.3828 l -0.0859,0.07 -0.11719,0.055 -0.20313,0.031 q -0.22656,0 -0.4375,-0.2422 l -1.72656,-2.5937 -1.72656,2.5937 q -0.16406,0.25 -0.45313,0.25 -0.17187,0 -0.38281,-0.164 -0.17969,-0.1641 -0.17969,-0.3907 0,-0.1406 0.0937,-0.3046 l 1.98438,-2.9766 -1.98438,-2.9766 -0.0781,-0.164 -0.0156,-0.1485 q 0,-0.2109 0.16407,-0.375 0.16406,-0.164 0.41406,-0.164 0.22656,0 0.4375,0.2422 l 1.72656,2.5937 1.72656,-2.5937 q 0.16407,-0.25 0.45313,-0.25 0.16406,0 0.39062,0.164 0.17188,0.1719 0.17188,0.3906 0,0.1407 -0.0937,0.3047 z"
         id="path106"
         inkscape:connector-curvature="0" />
    </g>
    <g
       aria-label="z"
       transform="matrix(1,0,-0.17107793,1,30.250499,-54.263781)"
       style="font-style:normal;font-variant:normal;font-weight:normal;font-stretch:normal;font-size:16px;line-height:18.66666603px;font-family:'GOST type B';-inkscape-font-specification:'GOST type B';text-align:start;letter-spacing:0px;word-spacing:0px;text-anchor:start;fill:#0000ff;fill-opacity:1;stroke:none"
       id="text101">
      <path
         d="m 162.13495,1028.6527 -3.80469,5.7109 h 3.34375 q 0.22656,0 0.38281,0.1719 0.16407,0.1641 0.16407,0.375 0,0.1875 -0.14063,0.3672 -0.13281,0.1797 -0.40625,0.1797 h -4.375 q -0.60937,0 -0.60937,-0.4375 0,-0.1641 0.14843,-0.4141 l 3.80469,-5.7109 h -3.34375 q -0.25,0 -0.40625,-0.1563 -0.14062,-0.164 -0.14062,-0.3906 0,-0.1953 0.14062,-0.3672 0.14844,-0.1797 0.40625,-0.1797 h 4.375 q 0.60938,0 0.60938,0.4375 0,0.1641 -0.14844,0.4141 z"
         id="path103"
         inkscape:connector-curvature="0" />
    </g>
  </g>
</svg>
