<?xml version="1.0" encoding="UTF-8" standalone="no"?>
<!-- Created with Inkscape (http://www.inkscape.org/) -->

<svg
   xmlns:dc="http://purl.org/dc/elements/1.1/"
   xmlns:cc="http://creativecommons.org/ns#"
   xmlns:rdf="http://www.w3.org/1999/02/22-rdf-syntax-ns#"
   xmlns:svg="http://www.w3.org/2000/svg"
   xmlns="http://www.w3.org/2000/svg"
   xmlns:sodipodi="http://sodipodi.sourceforge.net/DTD/sodipodi-0.dtd"
   xmlns:inkscape="http://www.inkscape.org/namespaces/inkscape"
   width="38.05862mm"
   height="24.957933mm"
   id="svg2"
   version="1.1"
   inkscape:version="0.92.4 (5da689c313, 2019-01-14)"
   sodipodi:docname="19-01.svg"
   inkscape:export-filename="/home/goldin/Documents/Математика/Рабочий план/i/18-03.png"
   inkscape:export-xdpi="600"
   inkscape:export-ydpi="600">
  <defs
     id="defs4">
    <marker
       inkscape:stockid="Arrow1Mend"
       orient="auto"
       refY="0"
       refX="0"
       id="marker1194"
       style="overflow:visible"
       inkscape:isstock="true">
      <path
         id="path870"
         d="M 0,0 5,-5 -12.5,0 5,5 Z"
         style="fill:#0000ff;fill-opacity:1;fill-rule:evenodd;stroke:#0000ff;stroke-width:1.00000003pt;stroke-opacity:1"
         transform="matrix(-0.4,0,0,-0.4,-4,0)"
         inkscape:connector-curvature="0" />
    </marker>
    <marker
       inkscape:stockid="DotS"
       orient="auto"
       refY="0"
       refX="0"
       id="DotS"
       style="overflow:visible"
       inkscape:isstock="true">
      <path
         id="path928"
         d="m -2.5,-1 c 0,2.76 -2.24,5 -5,5 -2.76,0 -5,-2.24 -5,-5 0,-2.76 2.24,-5 5,-5 2.76,0 5,2.24 5,5 z"
         style="fill:#0000ff;fill-opacity:1;fill-rule:evenodd;stroke:#0000ff;stroke-width:1.00000003pt;stroke-opacity:1"
         transform="matrix(0.2,0,0,0.2,1.48,0.2)"
         inkscape:connector-curvature="0" />
    </marker>
    <marker
       inkscape:stockid="DotM"
       orient="auto"
       refY="0"
       refX="0"
       id="DotM"
       style="overflow:visible"
       inkscape:isstock="true">
      <path
         id="path925"
         d="m -2.5,-1 c 0,2.76 -2.24,5 -5,5 -2.76,0 -5,-2.24 -5,-5 0,-2.76 2.24,-5 5,-5 2.76,0 5,2.24 5,5 z"
         style="fill:#0000ff;fill-opacity:1;fill-rule:evenodd;stroke:#0000ff;stroke-width:1.00000003pt;stroke-opacity:1"
         transform="matrix(0.4,0,0,0.4,2.96,0.4)"
         inkscape:connector-curvature="0" />
    </marker>
    <marker
       inkscape:stockid="Arrow1Lend"
       orient="auto"
       refY="0"
       refX="0"
       id="Arrow1Lend"
       style="overflow:visible">
      <path
         id="path3786"
         d="M 0,0 5,-5 -12.5,0 5,5 Z"
         style="fill-rule:evenodd;stroke:#000000;stroke-width:1.00000003pt"
         transform="matrix(-0.8,0,0,-0.8,-10,0)"
         inkscape:connector-curvature="0" />
    </marker>
    <marker
       inkscape:stockid="Arrow1Mend"
       orient="auto"
       refY="0"
       refX="0"
       id="Arrow1Mend"
       style="overflow:visible">
      <path
         id="path3792"
         d="M 0,0 5,-5 -12.5,0 5,5 Z"
         style="fill-rule:evenodd;stroke:#000000;stroke-width:1.00000003pt"
         transform="matrix(-0.4,0,0,-0.4,-4,0)"
         inkscape:connector-curvature="0" />
    </marker>
  </defs>
  <sodipodi:namedview
     id="base"
     pagecolor="#ffffff"
     bordercolor="#666666"
     borderopacity="1.0"
     inkscape:pageopacity="0.0"
     inkscape:pageshadow="2"
     inkscape:zoom="4.891852"
     inkscape:cx="47.800455"
     inkscape:cy="40.158793"
     inkscape:document-units="pt"
     inkscape:current-layer="layer1"
     showgrid="false"
     units="mm"
     inkscape:window-width="1920"
     inkscape:window-height="1009"
     inkscape:window-x="0"
     inkscape:window-y="0"
     inkscape:window-maximized="1"
     fit-margin-top="1"
     fit-margin-left="1"
     fit-margin-right="1"
     fit-margin-bottom="1" />
  <metadata
     id="metadata7">
    <rdf:RDF>
      <cc:Work
         rdf:about="">
        <dc:format>image/svg+xml</dc:format>
        <dc:type
           rdf:resource="http://purl.org/dc/dcmitype/StillImage" />
        <dc:title></dc:title>
      </cc:Work>
    </rdf:RDF>
  </metadata>
  <g
     inkscape:label="Layer 1"
     inkscape:groupmode="layer"
     id="layer1"
     transform="translate(-5.7579934,-945.04213)">
    <path
       style="fill:none;stroke:#0000ff;stroke-width:1px;stroke-linecap:butt;stroke-linejoin:miter;stroke-opacity:1;marker-start:url(#DotS);marker-end:url(#marker1194)"
       d="M 21.464263,1032.1244 96.691396,963.64318"
       id="path42"
       inkscape:connector-curvature="0" />
    <path
       style="fill:#0000ff;fill-opacity:1;stroke:none;stroke-width:1.06238997;stroke-linecap:butt;stroke-linejoin:round;stroke-miterlimit:4;stroke-dasharray:none;stroke-dashoffset:0;stroke-opacity:1;paint-order:stroke fill markers"
       d="m 136.14516,998.80371 a 1.84,1.839794 0 0 1 -1.84,1.83979 1.84,1.839794 0 0 1 -1.84,-1.83979 1.84,1.839794 0 0 1 1.84,-1.83979 1.84,1.839794 0 0 1 1.84,1.83979 z"
       id="path1244" />
    <g
       aria-label="A"
       transform="skewX(-14.534079)"
       style="font-style:normal;font-variant:normal;font-weight:normal;font-stretch:normal;font-size:16px;line-height:18.66666603px;font-family:'GOST type B';-inkscape-font-specification:'GOST type B';text-align:start;letter-spacing:0px;word-spacing:0px;text-anchor:start;fill:#000000;fill-opacity:1;stroke:none"
       id="text1248">
      <path
         d="m 279.86859,1032.8574 -0.78906,2.3594 q -0.0625,0.1719 -0.20313,0.2812 -0.10937,0.07 -0.29687,0.094 -0.21875,0 -0.38281,-0.1563 -0.17969,-0.1406 -0.17969,-0.375 l 0.0391,-0.1953 3.28906,-9.8437 q 0.16407,-0.4688 0.51563,-0.4688 0.35156,0 0.51562,0.4688 l 3.27344,9.8437 0.0391,0.1953 q 0,0.211 -0.17968,0.3829 -0.17188,0.1484 -0.38282,0.1484 -0.10937,0 -0.25,-0.055 -0.13281,-0.055 -0.25,-0.3203 l -0.78906,-2.3594 z m 3.60156,-1.1172 -1.60937,-4.8203 -1.61719,4.8203 z"
         style=""
         id="path1297" />
    </g>
    <g
       aria-label="B"
       transform="skewX(-14.534079)"
       style="font-style:normal;font-variant:normal;font-weight:normal;font-stretch:normal;font-size:16px;line-height:18.66666603px;font-family:'GOST type B';-inkscape-font-specification:'GOST type B';text-align:start;letter-spacing:0px;word-spacing:0px;text-anchor:start;fill:#000000;fill-opacity:1;stroke:none"
       id="text1256">
      <path
         d="m 342.91949,953.51697 q 0.46875,0.28125 0.75782,0.78906 0.28906,0.50781 0.28906,1.07813 v 2.1875 q 0,0.89843 -0.64063,1.54687 -0.64062,0.64063 -1.54687,0.64063 h -3.82813 q -0.54687,0 -0.54687,-0.54688 v -9.84375 q 0,-0.54687 0.54687,-0.54687 h 3.28125 q 0.91407,0 1.54688,0.64062 0.64062,0.64063 0.64062,1.54688 v 1.09375 q 0,0.375 -0.11718,0.72656 -0.11719,0.35156 -0.38282,0.6875 z m -4.42187,0.76562 v 4.38282 h 3.28125 q 0.45312,0 0.77344,-0.30469 0.32031,-0.30469 0.32031,-0.78906 v -2.1875 q 0,-0.46094 -0.3125,-0.77344 -0.30469,-0.32031 -0.78125,-0.32031 z m 2.73437,-1.08593 q 0.45313,0 0.77344,-0.30469 0.32031,-0.30469 0.32031,-0.78906 v -1.09375 q 0,-0.46094 -0.3125,-0.77344 -0.30468,-0.32031 -0.78125,-0.32031 h -2.73437 v 3.28906 z"
         style=""
         id="path1300" />
    </g>
    <g
       id="g1282"
       transform="translate(-49.470017,-29.641126)">
      <g
         aria-label="AB"
         transform="skewX(-14.534079)"
         style="font-style:normal;font-variant:normal;font-weight:normal;font-stretch:normal;font-size:16px;line-height:18.66666603px;font-family:'GOST type B';-inkscape-font-specification:'GOST type B';text-align:start;letter-spacing:0px;word-spacing:0px;text-anchor:start;fill:#000000;fill-opacity:1;stroke:none"
         id="text1260">
        <path
           d="m 358.23785,1018.9567 -0.78906,2.3594 q -0.0625,0.1719 -0.20312,0.2813 -0.10938,0.07 -0.29688,0.094 -0.21875,0 -0.38281,-0.1562 -0.17969,-0.1407 -0.17969,-0.375 l 0.0391,-0.1954 3.28907,-9.8437 q 0.16406,-0.4688 0.51562,-0.4688 0.35156,0 0.51563,0.4688 l 3.27343,9.8437 0.0391,0.1954 q 0,0.2109 -0.17969,0.3828 -0.17188,0.1484 -0.38281,0.1484 -0.10938,0 -0.25,-0.055 -0.13282,-0.055 -0.25,-0.3203 l -0.78907,-2.3594 z m 3.60157,-1.1172 -1.60938,-4.8203 -1.61719,4.8203 z"
           style=""
           id="path1303" />
        <path
           d="m 371.68317,1015.4567 q 0.46875,0.2813 0.75781,0.7891 0.28906,0.5078 0.28906,1.0781 v 2.1875 q 0,0.8985 -0.64062,1.5469 -0.64063,0.6406 -1.54688,0.6406 h -3.82812 q -0.54688,0 -0.54688,-0.5469 v -9.8437 q 0,-0.5469 0.54688,-0.5469 h 3.28125 q 0.91406,0 1.54687,0.6406 0.64063,0.6407 0.64063,1.5469 v 1.0938 q 0,0.375 -0.11719,0.7265 -0.11719,0.3516 -0.38281,0.6875 z m -4.42188,0.7657 v 4.3828 h 3.28125 q 0.45313,0 0.77344,-0.3047 0.32031,-0.3047 0.32031,-0.7891 v -2.1875 q 0,-0.4609 -0.3125,-0.7734 -0.30469,-0.3203 -0.78125,-0.3203 z m 2.73438,-1.086 q 0.45312,0 0.77343,-0.3047 0.32032,-0.3047 0.32032,-0.789 v -1.0938 q 0,-0.4609 -0.3125,-0.7734 -0.30469,-0.3203 -0.78125,-0.3203 h -2.73438 v 3.289 z"
           style=""
           id="path1305" />
      </g>
      <path
         inkscape:connector-curvature="0"
         id="path1266"
         d="M 94.033916,1008.2071 H 111.00091"
         style="fill:none;stroke:#000000;stroke-width:0.66666669;stroke-linecap:butt;stroke-linejoin:miter;stroke-opacity:1" />
    </g>
    <g
       id="g1277"
       transform="translate(-11.652028,34.956086)">
      <g
         aria-label="AA"
         transform="skewX(-14.534079)"
         style="font-style:normal;font-variant:normal;font-weight:normal;font-stretch:normal;font-size:16px;line-height:18.66666603px;font-family:'GOST type B';-inkscape-font-specification:'GOST type B';text-align:start;letter-spacing:0px;word-spacing:0px;text-anchor:start;fill:#000000;fill-opacity:1;stroke:none"
         id="text1264">
        <path
           d="m 390.17328,985.22717 -0.78906,2.35938 q -0.0625,0.17187 -0.20313,0.28125 -0.10937,0.0703 -0.29687,0.0937 -0.21875,0 -0.38282,-0.15625 -0.17968,-0.14063 -0.17968,-0.375 l 0.0391,-0.19531 3.28906,-9.84375 q 0.16406,-0.46875 0.51563,-0.46875 0.35156,0 0.51562,0.46875 l 3.27344,9.84375 0.0391,0.19531 q 0,0.21094 -0.17969,0.38281 -0.17187,0.14844 -0.38281,0.14844 -0.10937,0 -0.25,-0.0547 -0.13281,-0.0547 -0.25,-0.32031 l -0.78906,-2.35938 z m 3.60156,-1.11718 -1.60937,-4.82032 -1.61719,4.82032 z"
           style=""
           id="path1308" />
        <path
           d="m 400.01703,985.22717 -0.78906,2.35938 q -0.0625,0.17187 -0.20313,0.28125 -0.10937,0.0703 -0.29687,0.0937 -0.21875,0 -0.38282,-0.15625 -0.17968,-0.14063 -0.17968,-0.375 l 0.0391,-0.19531 3.28906,-9.84375 q 0.16406,-0.46875 0.51563,-0.46875 0.35156,0 0.51562,0.46875 l 3.27344,9.84375 0.0391,0.19531 q 0,0.21094 -0.17969,0.38281 -0.17187,0.14844 -0.38281,0.14844 -0.10937,0 -0.25,-0.0547 -0.13281,-0.0547 -0.25,-0.32031 l -0.78906,-2.35938 z m 3.60156,-1.11718 -1.60937,-4.82032 -1.61719,4.82032 z"
           style=""
           id="path1310" />
      </g>
      <path
         style="fill:none;stroke:#000000;stroke-width:0.66666669;stroke-linecap:butt;stroke-linejoin:miter;stroke-opacity:1"
         d="m 134.50939,974.68196 h 16.96699"
         id="path1268"
         inkscape:connector-curvature="0" />
    </g>
    <g
       aria-label="A"
       transform="skewX(-14.534079)"
       style="font-style:normal;font-variant:normal;font-weight:normal;font-stretch:normal;font-size:16px;line-height:18.66666603px;font-family:'GOST type B';-inkscape-font-specification:'GOST type B';text-align:start;letter-spacing:0px;word-spacing:0px;text-anchor:start;fill:#000000;fill-opacity:1;stroke:none"
       id="text1272">
      <path
         d="m 388.39401,991.76868 -0.78906,2.35937 q -0.0625,0.17188 -0.20313,0.28125 -0.10937,0.0703 -0.29687,0.0937 -0.21875,0 -0.38281,-0.15625 -0.17969,-0.14062 -0.17969,-0.375 l 0.0391,-0.19531 3.28906,-9.84375 q 0.16407,-0.46875 0.51563,-0.46875 0.35156,0 0.51562,0.46875 l 3.27344,9.84375 0.0391,0.19531 q 0,0.21094 -0.17968,0.38281 -0.17188,0.14844 -0.38282,0.14844 -0.10937,0 -0.25,-0.0547 -0.13281,-0.0547 -0.25,-0.32031 l -0.78906,-2.35937 z m 3.60156,-1.11719 -1.60937,-4.82031 -1.61719,4.82031 z"
         style=""
         id="path1313" />
    </g>
  </g>
</svg>
