<?xml version="1.0" encoding="UTF-8" standalone="no"?>
<!-- Created with Inkscape (http://www.inkscape.org/) -->

<svg
   xmlns:dc="http://purl.org/dc/elements/1.1/"
   xmlns:cc="http://creativecommons.org/ns#"
   xmlns:rdf="http://www.w3.org/1999/02/22-rdf-syntax-ns#"
   xmlns:svg="http://www.w3.org/2000/svg"
   xmlns="http://www.w3.org/2000/svg"
   xmlns:sodipodi="http://sodipodi.sourceforge.net/DTD/sodipodi-0.dtd"
   xmlns:inkscape="http://www.inkscape.org/namespaces/inkscape"
   width="36.847424mm"
   height="30.199821mm"
   id="svg2"
   version="1.1"
   inkscape:version="0.92.4 (5da689c313, 2019-01-14)"
   sodipodi:docname="19-04.svg"
   inkscape:export-filename="/home/goldin/Documents/Математика/Рабочий план/i/18-03.png"
   inkscape:export-xdpi="600"
   inkscape:export-ydpi="600">
  <defs
     id="defs4">
    <marker
       inkscape:isstock="true"
       style="overflow:visible"
       id="marker1139"
       refX="0"
       refY="0"
       orient="auto"
       inkscape:stockid="Arrow1Mend">
      <path
         inkscape:connector-curvature="0"
         transform="matrix(-0.4,0,0,-0.4,-4,0)"
         style="fill:#0000ff;fill-opacity:1;fill-rule:evenodd;stroke:#0000ff;stroke-width:1.00000003pt;stroke-opacity:1"
         d="M 0,0 5,-5 -12.5,0 5,5 Z"
         id="path1137" />
    </marker>
    <marker
       inkscape:isstock="true"
       style="overflow:visible"
       id="marker1081"
       refX="0"
       refY="0"
       orient="auto"
       inkscape:stockid="DotS">
      <path
         inkscape:connector-curvature="0"
         transform="matrix(0.2,0,0,0.2,1.48,0.2)"
         style="fill:#0000ff;fill-opacity:1;fill-rule:evenodd;stroke:#0000ff;stroke-width:1.00000003pt;stroke-opacity:1"
         d="m -2.5,-1 c 0,2.76 -2.24,5 -5,5 -2.76,0 -5,-2.24 -5,-5 0,-2.76 2.24,-5 5,-5 2.76,0 5,2.24 5,5 z"
         id="path1079" />
    </marker>
    <marker
       inkscape:isstock="true"
       style="overflow:visible"
       id="marker945"
       refX="0"
       refY="0"
       orient="auto"
       inkscape:stockid="Arrow1Mend">
      <path
         inkscape:connector-curvature="0"
         transform="matrix(-0.4,0,0,-0.4,-4,0)"
         style="fill:#800080;fill-opacity:1;fill-rule:evenodd;stroke:#800080;stroke-width:1.00000003pt;stroke-opacity:1"
         d="M 0,0 5,-5 -12.5,0 5,5 Z"
         id="path943" />
    </marker>
    <marker
       inkscape:isstock="true"
       style="overflow:visible"
       id="marker899"
       refX="0"
       refY="0"
       orient="auto"
       inkscape:stockid="DotS">
      <path
         inkscape:connector-curvature="0"
         transform="matrix(0.2,0,0,0.2,1.48,0.2)"
         style="fill:#800080;fill-opacity:1;fill-rule:evenodd;stroke:#800080;stroke-width:1.00000003pt;stroke-opacity:1"
         d="m -2.5,-1 c 0,2.76 -2.24,5 -5,5 -2.76,0 -5,-2.24 -5,-5 0,-2.76 2.24,-5 5,-5 2.76,0 5,2.24 5,5 z"
         id="path897" />
    </marker>
    <marker
       inkscape:stockid="Arrow1Mend"
       orient="auto"
       refY="0"
       refX="0"
       id="marker1194"
       style="overflow:visible"
       inkscape:isstock="true"
       inkscape:collect="always">
      <path
         id="path870"
         d="M 0,0 5,-5 -12.5,0 5,5 Z"
         style="fill:#0000ff;fill-opacity:1;fill-rule:evenodd;stroke:#0000ff;stroke-width:1.00000003pt;stroke-opacity:1"
         transform="matrix(-0.4,0,0,-0.4,-4,0)"
         inkscape:connector-curvature="0" />
    </marker>
    <marker
       inkscape:stockid="DotS"
       orient="auto"
       refY="0"
       refX="0"
       id="DotS"
       style="overflow:visible"
       inkscape:isstock="true"
       inkscape:collect="always">
      <path
         id="path928"
         d="m -2.5,-1 c 0,2.76 -2.24,5 -5,5 -2.76,0 -5,-2.24 -5,-5 0,-2.76 2.24,-5 5,-5 2.76,0 5,2.24 5,5 z"
         style="fill:#0000ff;fill-opacity:1;fill-rule:evenodd;stroke:#0000ff;stroke-width:1.00000003pt;stroke-opacity:1"
         transform="matrix(0.2,0,0,0.2,1.48,0.2)"
         inkscape:connector-curvature="0" />
    </marker>
    <marker
       inkscape:stockid="DotM"
       orient="auto"
       refY="0"
       refX="0"
       id="DotM"
       style="overflow:visible"
       inkscape:isstock="true">
      <path
         id="path925"
         d="m -2.5,-1 c 0,2.76 -2.24,5 -5,5 -2.76,0 -5,-2.24 -5,-5 0,-2.76 2.24,-5 5,-5 2.76,0 5,2.24 5,5 z"
         style="fill:#0000ff;fill-opacity:1;fill-rule:evenodd;stroke:#0000ff;stroke-width:1.00000003pt;stroke-opacity:1"
         transform="matrix(0.4,0,0,0.4,2.96,0.4)"
         inkscape:connector-curvature="0" />
    </marker>
    <marker
       inkscape:stockid="Arrow1Lend"
       orient="auto"
       refY="0"
       refX="0"
       id="Arrow1Lend"
       style="overflow:visible">
      <path
         id="path3786"
         d="M 0,0 5,-5 -12.5,0 5,5 Z"
         style="fill-rule:evenodd;stroke:#000000;stroke-width:1.00000003pt"
         transform="matrix(-0.8,0,0,-0.8,-10,0)"
         inkscape:connector-curvature="0" />
    </marker>
    <marker
       inkscape:stockid="Arrow1Mend"
       orient="auto"
       refY="0"
       refX="0"
       id="Arrow1Mend"
       style="overflow:visible">
      <path
         id="path3792"
         d="M 0,0 5,-5 -12.5,0 5,5 Z"
         style="fill-rule:evenodd;stroke:#000000;stroke-width:1.00000003pt"
         transform="matrix(-0.4,0,0,-0.4,-4,0)"
         inkscape:connector-curvature="0" />
    </marker>
  </defs>
  <sodipodi:namedview
     id="base"
     pagecolor="#ffffff"
     bordercolor="#666666"
     borderopacity="1.0"
     inkscape:pageopacity="0.0"
     inkscape:pageshadow="2"
     inkscape:zoom="6.4131174"
     inkscape:cx="69.944787"
     inkscape:cy="57.070529"
     inkscape:document-units="pt"
     inkscape:current-layer="layer1"
     showgrid="false"
     units="mm"
     inkscape:window-width="1920"
     inkscape:window-height="1009"
     inkscape:window-x="0"
     inkscape:window-y="0"
     inkscape:window-maximized="1"
     fit-margin-top="1"
     fit-margin-left="1"
     fit-margin-right="1"
     fit-margin-bottom="1"
     inkscape:snap-global="false" />
  <metadata
     id="metadata7">
    <rdf:RDF>
      <cc:Work
         rdf:about="">
        <dc:format>image/svg+xml</dc:format>
        <dc:type
           rdf:resource="http://purl.org/dc/dcmitype/StillImage" />
        <dc:title />
      </cc:Work>
    </rdf:RDF>
  </metadata>
  <g
     inkscape:label="Layer 1"
     inkscape:groupmode="layer"
     id="layer1"
     transform="translate(0.00617548,-951.12195)">
    <path
       style="fill:#fff6d5;stroke:#ffd42a;stroke-width:0.33333334;stroke-linecap:butt;stroke-linejoin:miter;stroke-opacity:1"
       d="m 128.24607,996.85838 c -6.61609,-8.72854 -18.59677,-9.34192 -28.631398,-8.96206 -13.113531,-0.48185 -25.234039,5.20939 -37.735983,8.23471 -16.800831,4.68157 -33.60856,10.24647 -48.599513,19.31977 -4.9090352,2.6463 -9.6403087,6.9907 -9.3241943,13.0529 -0.1268936,9.8937 7.7995313,17.6632 16.3184643,21.4126 20.788602,9.2193 44.030166,12.9071 66.664529,10.8442 14.373085,-2.0356 28.234235,-7.9266 39.686355,-16.8248 9.38177,-8.8912 10.72071,-23.5794 6.14481,-35.1906 -1.25709,-4.0525 -2.85714,-7.9879 -4.52307,-11.88672 z"
       id="path1240"
       inkscape:connector-curvature="0" />
    <path
       style="fill:none;stroke:#0000ff;stroke-width:1px;stroke-linecap:butt;stroke-linejoin:miter;stroke-opacity:1;marker-start:url(#marker1081);marker-end:url(#marker1139)"
       d="M 21.464263,1032.1244 102.61962,990.83125"
       id="path42"
       inkscape:connector-curvature="0"
       sodipodi:nodetypes="cc" />
    <path
       sodipodi:nodetypes="cc"
       inkscape:connector-curvature="0"
       id="path35"
       d="m 21.464263,1032.1244 72.638586,15.016"
       style="fill:none;stroke:#0000ff;stroke-width:1px;stroke-linecap:butt;stroke-linejoin:miter;stroke-opacity:1;marker-start:url(#DotS);marker-end:url(#marker1194)" />
    <path
       style="fill:none;stroke:#0000ff;stroke-width:1px;stroke-linecap:butt;stroke-linejoin:miter;stroke-opacity:1;marker-start:url(#DotS);marker-end:url(#marker1194)"
       d="M 21.464263,1032.1244 4.9188046,975.18928"
       id="path37"
       inkscape:connector-curvature="0"
       sodipodi:nodetypes="cc" />
    <path
       id="path48"
       d="m 21.812201,1031.2082 c 0.516038,0.196 0.775794,0.7739 0.579813,1.2899 -0.195981,0.5161 -0.773852,0.7758 -1.28989,0.5798 -0.516038,-0.1959 -0.775795,-0.7738 -0.579814,-1.2898 0.195982,-0.5161 0.773852,-0.7758 1.289891,-0.5799 z"
       style="fill:#0000ff;fill-opacity:1;fill-rule:evenodd;stroke:#0000ff;stroke-width:0.20000001pt;stroke-opacity:1"
       inkscape:connector-curvature="0" />
    <g
       id="g57">
      <path
         style="color:#000000;font-style:normal;font-variant:normal;font-weight:normal;font-stretch:normal;font-size:medium;line-height:normal;font-family:sans-serif;font-variant-ligatures:normal;font-variant-position:normal;font-variant-caps:normal;font-variant-numeric:normal;font-variant-alternates:normal;font-feature-settings:normal;text-indent:0;text-align:start;text-decoration:none;text-decoration-line:none;text-decoration-style:solid;text-decoration-color:#000000;letter-spacing:normal;word-spacing:normal;text-transform:none;writing-mode:lr-tb;direction:ltr;text-orientation:mixed;dominant-baseline:auto;baseline-shift:baseline;text-anchor:start;white-space:normal;shape-padding:0;clip-rule:nonzero;display:inline;overflow:visible;visibility:visible;opacity:1;isolation:auto;mix-blend-mode:normal;color-interpolation:sRGB;color-interpolation-filters:linearRGB;solid-color:#000000;solid-opacity:1;vector-effect:none;fill:#ff0000;fill-opacity:1;fill-rule:nonzero;stroke:none;stroke-width:1px;stroke-linecap:butt;stroke-linejoin:miter;stroke-miterlimit:4;stroke-dasharray:none;stroke-dashoffset:0;stroke-opacity:1;color-rendering:auto;image-rendering:auto;shape-rendering:auto;text-rendering:auto;enable-background:accumulate"
         d="m 49.488281,956.92383 -28.492187,75.02347 0.935547,0.3554 28.492187,-75.0234 z"
         id="path39"
         inkscape:connector-curvature="0" />
      <path
         inkscape:connector-curvature="0"
         style="fill:#ff0000;fill-opacity:1;fill-rule:evenodd;stroke:#ff0000;stroke-width:0.40000002pt;stroke-opacity:1"
         d="m 48.536451,960.8406 1.159627,2.57978 0.615564,-7.25404 -4.354971,5.83388 z"
         id="path50" />
    </g>
    <path
       sodipodi:nodetypes="cc"
       inkscape:connector-curvature="0"
       id="path21"
       d="M 71.956387,1026.605 51.322498,956.79134"
       style="fill:none;stroke:#800080;stroke-width:1;stroke-linecap:butt;stroke-linejoin:miter;stroke-miterlimit:4;stroke-dasharray:none;stroke-dashoffset:0;stroke-opacity:1;marker-start:url(#marker899);marker-end:url(#marker945)" />
    <path
       id="path31"
       d="m 22.438682,1032.02 c 0.05883,0.5488 -0.338877,1.042 -0.887733,1.1008 -0.548856,0.059 -1.042049,-0.3388 -1.100877,-0.8877 -0.05883,-0.5489 0.338877,-1.042 0.887733,-1.1009 0.548856,-0.059 1.042049,0.3389 1.100877,0.8878 z"
       style="fill:#0000ff;fill-opacity:1;fill-rule:evenodd;stroke:#0000ff;stroke-width:0.20000001pt;stroke-opacity:1"
       inkscape:connector-curvature="0" />
    <g
       id="g40">
      <path
         style="color:#000000;font-style:normal;font-variant:normal;font-weight:normal;font-stretch:normal;font-size:medium;line-height:normal;font-family:sans-serif;font-variant-ligatures:normal;font-variant-position:normal;font-variant-caps:normal;font-variant-numeric:normal;font-variant-alternates:normal;font-feature-settings:normal;text-indent:0;text-align:start;text-decoration:none;text-decoration-line:none;text-decoration-style:solid;text-decoration-color:#000000;letter-spacing:normal;word-spacing:normal;text-transform:none;writing-mode:lr-tb;direction:ltr;text-orientation:mixed;dominant-baseline:auto;baseline-shift:baseline;text-anchor:start;white-space:normal;shape-padding:0;clip-rule:nonzero;display:inline;overflow:visible;visibility:visible;opacity:1;isolation:auto;mix-blend-mode:normal;color-interpolation:sRGB;color-interpolation-filters:linearRGB;solid-color:#000000;solid-opacity:1;vector-effect:none;fill:#008000;fill-opacity:1;fill-rule:nonzero;stroke:none;stroke-width:1px;stroke-linecap:butt;stroke-linejoin:miter;stroke-miterlimit:4;stroke-dasharray:none;stroke-dashoffset:0;stroke-opacity:1;color-rendering:auto;image-rendering:auto;shape-rendering:auto;text-rendering:auto;enable-background:accumulate"
         d="m 69.091797,1026.5176 -47.681641,5.1094 0.107422,0.9941 47.681641,-5.1094 z"
         id="path23"
         inkscape:connector-curvature="0" />
      <path
         inkscape:connector-curvature="0"
         style="fill:#008000;fill-opacity:1;fill-rule:evenodd;stroke:#008000;stroke-width:0.40000002pt;stroke-opacity:1"
         d="m 65.168371,1027.4401 -1.775466,2.2017 6.746991,-2.7346 -7.173279,-1.2426 z"
         id="path33" />
    </g>
    <g
       aria-label="a"
       transform="skewX(-13.246197)"
       style="font-style:normal;font-variant:normal;font-weight:normal;font-stretch:normal;font-size:16px;line-height:18.66666603px;font-family:'GOST type B';-inkscape-font-specification:'GOST type B';text-align:start;letter-spacing:0px;word-spacing:0px;text-anchor:start;fill:#0000ff;fill-opacity:1;stroke:none"
       id="text1045">
      <path
         d="m 325.67914,1009.9578 v -4.375 h -2.1875 q -0.46094,0 -0.78125,0.3125 -0.15625,0.1563 -0.23438,0.3594 -0.0781,0.1953 -0.0781,0.4219 v 3.2812 q 0,0.461 0.3125,0.7813 0.16406,0.1406 0.35156,0.2343 0.23438,0.078 0.42969,0.078 h 1.09375 q 0.45312,0 0.77344,-0.3047 0.32031,-0.3047 0.32031,-0.7891 z m 0.53906,1.4688 q -0.26562,0.3047 -0.72656,0.5156 -0.45313,0.2031 -0.90625,0.2031 h -1.09375 q -0.88281,0 -1.53906,-0.6328 -0.64844,-0.6328 -0.64844,-1.5547 v -3.2812 q 0,-0.9063 0.64062,-1.5469 0.64063,-0.6406 1.54688,-0.6406 h 2.73437 q 0.54688,0 0.54688,0.5468 v 4.9141 q 0,0.3281 0.21094,0.6719 0.1875,0.3047 0.54687,0.4765 0.34375,0.1407 0.34375,0.4922 0,0.2422 -0.15625,0.3985 -0.14062,0.164 -0.39062,0.164 -0.11719,0 -0.22657,-0.055 -0.53906,-0.2109 -0.88281,-0.6718 z"
         id="path1213"
         inkscape:connector-curvature="0" />
    </g>
    <g
       aria-label="b"
       transform="skewX(-13.246197)"
       style="font-style:normal;font-variant:normal;font-weight:normal;font-stretch:normal;font-size:16px;line-height:18.66666603px;font-family:'GOST type B';-inkscape-font-specification:'GOST type B';text-align:start;letter-spacing:0px;word-spacing:0px;text-anchor:start;fill:#0000ff;fill-opacity:1;stroke:none"
       id="text1049">
      <path
         d="m 297.22641,1047.7395 v 5.4688 h 2.1875 q 0.45312,0 0.77344,-0.3047 0.32031,-0.3047 0.32031,-0.7891 v -3.2812 q 0,-0.461 -0.3125,-0.7735 -0.30469,-0.3203 -0.78125,-0.3203 z m 0,-1.0937 h 2.1875 q 0.89062,0 1.53906,0.6406 0.64844,0.6328 0.64844,1.5469 v 3.2812 q 0,0.8984 -0.64063,1.5469 -0.64062,0.6406 -1.54687,0.6406 h -2.73438 q -0.54687,0 -0.54687,-0.5469 v -9.8437 q 0,-0.2188 0.16406,-0.4063 0.16406,-0.1406 0.38281,-0.1406 0.21094,0 0.375,0.1406 0.17188,0.1328 0.17188,0.4063 z"
         id="path1216"
         inkscape:connector-curvature="0"
         style="fill:#0000ff" />
    </g>
    <g
       aria-label="c"
       transform="skewX(-13.246197)"
       style="font-style:normal;font-variant:normal;font-weight:normal;font-stretch:normal;font-size:16px;line-height:18.66666603px;font-family:'GOST type B';-inkscape-font-specification:'GOST type B';text-align:start;letter-spacing:0px;word-spacing:0px;text-anchor:start;fill:#0000ff;fill-opacity:1;stroke:none"
       id="text1053">
      <path
         d="m 246.742,1013.2119 h -1.64062 q -0.88281,0 -1.53906,-0.6328 -0.64844,-0.6328 -0.64844,-1.5547 v -3.2812 q 0,-0.9063 0.64062,-1.5469 0.64063,-0.6406 1.54688,-0.6406 h 1.64062 q 0.22657,0 0.38282,0.1718 0.16406,0.1641 0.16406,0.375 0,0.1875 -0.14063,0.3672 -0.13281,0.1797 -0.40625,0.1797 h -1.64062 q -0.46094,0 -0.78125,0.3125 -0.15625,0.1563 -0.23438,0.3594 -0.0781,0.1953 -0.0781,0.4219 v 3.2812 q 0,0.461 0.3125,0.7813 0.16406,0.1406 0.35156,0.2343 0.23438,0.078 0.42969,0.078 h 1.64062 q 0.22657,0 0.38282,0.1718 0.16406,0.1641 0.16406,0.375 0,0.1875 -0.14063,0.3672 -0.13281,0.1797 -0.40625,0.1797 z"
         id="path1219"
         inkscape:connector-curvature="0" />
    </g>
    <g
       aria-label="p"
       transform="skewX(-13.246197)"
       style="font-style:normal;font-variant:normal;font-weight:normal;font-stretch:normal;font-size:16px;line-height:18.66666603px;font-family:'GOST type B';-inkscape-font-specification:'GOST type B';text-align:start;letter-spacing:0px;word-spacing:0px;text-anchor:start;fill:#ff0000;fill-opacity:1;stroke:none"
       id="text1057">
      <path
         d="m 262.60727,989.30908 h 2.1875 q 0.45312,0 0.77344,-0.30469 0.32031,-0.30468 0.32031,-0.78906 v -3.28125 q 0,-0.46094 -0.3125,-0.77344 -0.30469,-0.32031 -0.78125,-0.32031 h -2.1875 z m 0,1.09375 v 2.73438 q 0,0.22656 -0.17188,0.38281 -0.16406,0.16406 -0.375,0.16406 -0.1875,0 -0.36718,-0.14062 -0.17969,-0.13282 -0.17969,-0.40625 v -9.84375 q 0,-0.54688 0.54687,-0.54688 h 2.73438 q 0.89062,0 1.53906,0.64063 0.64844,0.63281 0.64844,1.54687 v 3.28125 q 0,0.89844 -0.64063,1.54688 -0.64062,0.64062 -1.54687,0.64062 z"
         id="path1222"
         inkscape:connector-curvature="0" />
    </g>
    <g
       aria-label="s"
       transform="matrix(1,0,-0.23539869,1,-2.7499749,-6.5130985)"
       style="font-style:normal;font-variant:normal;font-weight:normal;font-stretch:normal;font-size:16px;line-height:18.66666603px;font-family:'GOST type B';-inkscape-font-specification:'GOST type B';text-align:start;letter-spacing:0px;word-spacing:0px;text-anchor:start;fill:#800080;fill-opacity:1;stroke:none"
       id="text1065">
      <path
         d="m 304.10089,986.44086 q -0.53125,-0.24219 -1.16406,-0.40625 -0.63281,-0.17188 -1.17188,-0.17188 -1.23437,0 -2.14843,0.625 -0.22657,0.13281 -0.4375,0.52344 -0.15625,0.33594 -0.15625,0.67969 0,0.22656 0.0234,0.36718 0.0312,0.14063 0.13282,0.32813 0.14062,0.32812 0.4375,0.52344 l 3.5,2.29687 q 0.17968,0.11719 0.17968,0.375 0,0.25 -0.17968,0.35938 -0.71875,0.45312 -1.53125,0.45312 -0.89844,0 -1.73438,-0.47656 l -0.13281,-0.0469 -0.14844,-0.0234 q -0.21094,0 -0.38281,0.17187 l -0.0703,0.0859 -0.0547,0.11719 -0.0312,0.20312 q 0,0.28125 0.29687,0.46094 1.08594,0.60156 2.26563,0.60156 1.20312,0 2.13281,-0.625 0.30469,-0.1875 0.47656,-0.54687 0.17969,-0.35938 0.17969,-0.72657 0,-0.32812 -0.16406,-0.67187 -0.16406,-0.35156 -0.5,-0.61719 l -3.49219,-2.29687 q -0.15625,-0.0937 -0.15625,-0.30469 0,-0.1875 0.15625,-0.32031 0.625,-0.42188 1.53125,-0.42188 0.88281,0 1.85938,0.46875 l 0.26562,0.0625 q 0.17188,0 0.34375,-0.16406 0.17969,-0.17188 0.17969,-0.39844 0,-0.28125 -0.30469,-0.48437 z"
         style="fill:#800080"
         id="path1230"
         inkscape:connector-curvature="0" />
    </g>
    <path
       style="fill:#ff0000;stroke:#0000ff;stroke-width:0.75;stroke-linecap:butt;stroke-linejoin:miter;stroke-opacity:1"
       d="M 5.2208801,1003.6609 H 11.299772"
       id="path1067"
       inkscape:connector-curvature="0" />
    <path
       inkscape:connector-curvature="0"
       id="path1069"
       d="m 29.391712,980.64795 h 6.078892"
       style="fill:none;stroke:#ff0000;stroke-width:0.75;stroke-linecap:butt;stroke-linejoin:miter;stroke-opacity:1" />
    <path
       style="fill:none;stroke:#800080;stroke-width:0.75;stroke-linecap:butt;stroke-linejoin:miter;stroke-opacity:1"
       d="m 63.549295,977.46377 h 6.078892"
       id="path1071"
       inkscape:connector-curvature="0" />
    <path
       inkscape:connector-curvature="0"
       id="path1073"
       d="m 84.825417,1002.3583 h 6.078892"
       style="fill:none;stroke:#0000ff;stroke-width:0.75;stroke-linecap:butt;stroke-linejoin:miter;stroke-opacity:1" />
    <path
       style="fill:none;stroke:#0000ff;stroke-width:0.75;stroke-linecap:butt;stroke-linejoin:miter;stroke-opacity:1"
       d="m 49.509949,1041.7263 h 6.078892"
       id="path1075"
       inkscape:connector-curvature="0" />
    <g
       id="g1238"
       transform="translate(23.012948,7.6709827)">
      <path
         d="m 52.663246,1025.52 h 2.1875 q 0.45312,0 0.845156,-0.3047 0.392046,-0.3047 0.506049,-0.789 l 0.772414,-3.2813 q 0.108495,-0.4609 -0.130442,-0.7734 -0.229292,-0.3203 -0.705852,-0.3203 h -2.1875 z m -0.257479,1.0938 -0.643651,2.7343 q -0.05334,0.2266 -0.262014,0.3829 -0.202665,0.164 -0.413605,0.164 -0.1875,0 -0.334093,-0.1406 -0.148419,-0.1328 -0.08404,-0.4063 l 2.317194,-9.8437 q 0.12874,-0.5469 0.67561,-0.5469 h 2.73438 q 0.89062,0 1.388263,0.6406 0.499457,0.6329 0.284302,1.5469 l -0.772414,3.2813 q -0.211482,0.8984 -1.004744,1.5468 -0.79144,0.6407 -1.69769,0.6407 z"
         style="font-style:normal;font-variant:normal;font-weight:normal;font-stretch:normal;font-size:16px;line-height:18.66666603px;font-family:'GOST type B';-inkscape-font-specification:'GOST type B';text-align:start;letter-spacing:0px;word-spacing:0px;text-anchor:start;fill:#008000;fill-opacity:1;stroke:none"
         id="path1225"
         inkscape:connector-curvature="0" />
      <path
         d="m 60.438467,1016.356 -1.061815,2.1875 q -0.191155,0.414 -0.620885,0.414 -0.24219,0 -0.361671,-0.1562 -0.136923,-0.1485 -0.0836,-0.375 l 0.05836,-0.1485 1.061815,-2.1875 q 0.191155,-0.414 0.620885,-0.414 0.23438,0 0.353861,0.1562 0.146593,0.1406 0.08958,0.3828 z"
         style="font-style:normal;font-variant:normal;font-weight:normal;font-stretch:normal;font-size:16px;line-height:18.66666603px;font-family:'GOST type B';-inkscape-font-specification:'GOST type B';text-align:start;letter-spacing:0px;word-spacing:0px;text-anchor:start;fill:#008000;fill-opacity:1;stroke:none"
         id="path1227"
         inkscape:connector-curvature="0" />
      <path
         sodipodi:nodetypes="cc"
         style="fill:none;stroke:#008000;stroke-width:0.75;stroke-linecap:butt;stroke-linejoin:miter;stroke-opacity:1"
         d="M 51.536246,1013.9371 H 61.812468"
         id="path1077"
         inkscape:connector-curvature="0" />
    </g>
    <g
       aria-label="α"
       style="font-style:normal;font-variant:normal;font-weight:normal;font-stretch:normal;font-size:16px;line-height:18.66666603px;font-family:'GOST type B';-inkscape-font-specification:'GOST type B';text-align:start;letter-spacing:0px;word-spacing:0px;text-anchor:start;fill:#000000;fill-opacity:1;stroke:none"
       id="text59">
      <path
         d="m 119.18495,1036.8676 -0.34375,-1.8047 q -0.35156,-1.8516 -1.74219,-1.8516 -1.04687,0 -1.52343,0.8594 -0.60157,1.0781 -0.60157,2.5 0,1.7187 0.58594,2.539 0.59375,0.836 1.53906,0.836 1.04688,0 1.60938,-1.6641 z m 0.80469,-2.3907 0.77344,-2.289 h 1.28125 l -1.60157,4.7422 0.3125,1.7109 q 0.0703,0.3828 0.34375,0.7031 0.32032,0.375 0.57032,0.375 h 0.6875 v 1.2188 h -0.85938 q -0.73437,0 -1.39062,-0.6563 -0.32032,-0.3281 -0.45313,-1.0156 -0.35937,0.8672 -1.09375,1.5469 -0.34375,0.3203 -1.46094,0.3203 -1.83593,0 -2.72656,-1.1875 -0.91406,-1.2266 -0.91406,-3.375 0,-2.2969 0.99219,-3.375 1.10156,-1.2031 2.64843,-1.2031 2.42969,0 2.89063,2.4843 z"
         style=""
         id="path61" />
    </g>
  </g>
</svg>
