<?xml version="1.0" encoding="UTF-8" standalone="no"?>
<!-- Created with Inkscape (http://www.inkscape.org/) -->

<svg
   xmlns:dc="http://purl.org/dc/elements/1.1/"
   xmlns:cc="http://creativecommons.org/ns#"
   xmlns:rdf="http://www.w3.org/1999/02/22-rdf-syntax-ns#"
   xmlns:svg="http://www.w3.org/2000/svg"
   xmlns="http://www.w3.org/2000/svg"
   xmlns:sodipodi="http://sodipodi.sourceforge.net/DTD/sodipodi-0.dtd"
   xmlns:inkscape="http://www.inkscape.org/namespaces/inkscape"
   width="29.912077mm"
   height="21.629265mm"
   id="svg2"
   version="1.1"
   inkscape:version="0.92.4 (5da689c313, 2019-01-14)"
   sodipodi:docname="19-12.svg"
   inkscape:export-filename="/home/goldin/Documents/Математика/Рабочий план/i/18-03.png"
   inkscape:export-xdpi="600"
   inkscape:export-ydpi="600">
  <defs
     id="defs4">
    <marker
       inkscape:isstock="true"
       style="overflow:visible"
       id="marker1224"
       refX="0"
       refY="0"
       orient="auto"
       inkscape:stockid="Arrow1Mend">
      <path
         inkscape:connector-curvature="0"
         transform="matrix(-0.4,0,0,-0.4,-4,0)"
         style="fill:#000000;fill-opacity:1;fill-rule:evenodd;stroke:#000000;stroke-width:1.00000003pt;stroke-opacity:1"
         d="M 0,0 5,-5 -12.5,0 5,5 Z"
         id="path1222" />
    </marker>
    <marker
       inkscape:stockid="Arrow1Mend"
       orient="auto"
       refY="0"
       refX="0"
       id="marker5208"
       style="overflow:visible"
       inkscape:isstock="true"
       inkscape:collect="always">
      <path
         id="path5206"
         d="M 0,0 5,-5 -12.5,0 5,5 Z"
         style="fill:#000000;fill-opacity:1;fill-rule:evenodd;stroke:#000000;stroke-width:1.00000003pt;stroke-opacity:1"
         transform="matrix(-0.4,0,0,-0.4,-4,0)"
         inkscape:connector-curvature="0" />
    </marker>
    <marker
       inkscape:isstock="true"
       style="overflow:visible"
       id="marker5096"
       refX="0"
       refY="0"
       orient="auto"
       inkscape:stockid="DotS">
      <path
         inkscape:connector-curvature="0"
         transform="matrix(0.2,0,0,0.2,1.48,0.2)"
         style="fill:#000080;fill-opacity:1;fill-rule:evenodd;stroke:#000080;stroke-width:1.00000003pt;stroke-opacity:1"
         d="m -2.5,-1 c 0,2.76 -2.24,5 -5,5 -2.76,0 -5,-2.24 -5,-5 0,-2.76 2.24,-5 5,-5 2.76,0 5,2.24 5,5 z"
         id="path5094" />
    </marker>
    <marker
       inkscape:stockid="Arrow1Mend"
       orient="auto"
       refY="0"
       refX="0"
       id="marker2568"
       style="overflow:visible"
       inkscape:isstock="true">
      <path
         id="path2566"
         d="M 0,0 5,-5 -12.5,0 5,5 Z"
         style="fill:#ff0000;fill-opacity:1;fill-rule:evenodd;stroke:#000000;stroke-width:1.00000003pt;stroke-opacity:1"
         transform="matrix(-0.4,0,0,-0.4,-4,0)"
         inkscape:connector-curvature="0" />
    </marker>
    <marker
       inkscape:stockid="Arrow1Send"
       orient="auto"
       refY="0"
       refX="0"
       id="Arrow1Send"
       style="overflow:visible"
       inkscape:isstock="true">
      <path
         id="path1671"
         d="M 0,0 5,-5 -12.5,0 5,5 Z"
         style="fill:#ff0000;fill-opacity:1;fill-rule:evenodd;stroke:#ff0000;stroke-width:1.00000003pt;stroke-opacity:1"
         transform="matrix(-0.2,0,0,-0.2,-1.2,0)"
         inkscape:connector-curvature="0" />
    </marker>
    <marker
       inkscape:stockid="Arrow2Sstart"
       orient="auto"
       refY="0"
       refX="0"
       id="Arrow2Sstart"
       style="overflow:visible"
       inkscape:isstock="true">
      <path
         id="path1686"
         style="fill:#ff0000;fill-opacity:1;fill-rule:evenodd;stroke:#ff0000;stroke-width:0.625;stroke-linejoin:round;stroke-opacity:1"
         d="M 8.7185878,4.0337352 -2.2072895,0.01601326 8.7185884,-4.0017078 c -1.7454984,2.3720609 -1.7354408,5.6174519 -6e-7,8.035443 z"
         transform="matrix(0.3,0,0,0.3,-0.69,0)"
         inkscape:connector-curvature="0" />
    </marker>
    <marker
       inkscape:isstock="true"
       style="overflow:visible"
       id="marker934"
       refX="0"
       refY="0"
       orient="auto"
       inkscape:stockid="DotS">
      <path
         inkscape:connector-curvature="0"
         transform="matrix(0.2,0,0,0.2,1.48,0.2)"
         style="fill:#0000ff;fill-opacity:1;fill-rule:evenodd;stroke:#0000ff;stroke-width:1.00000003pt;stroke-opacity:1"
         d="m -2.5,-1 c 0,2.76 -2.24,5 -5,5 -2.76,0 -5,-2.24 -5,-5 0,-2.76 2.24,-5 5,-5 2.76,0 5,2.24 5,5 z"
         id="path932" />
    </marker>
    <marker
       inkscape:isstock="true"
       style="overflow:visible"
       id="marker1139"
       refX="0"
       refY="0"
       orient="auto"
       inkscape:stockid="Arrow1Mend">
      <path
         inkscape:connector-curvature="0"
         transform="matrix(-0.4,0,0,-0.4,-4,0)"
         style="fill:#0000ff;fill-opacity:1;fill-rule:evenodd;stroke:#0000ff;stroke-width:1.00000003pt;stroke-opacity:1"
         d="M 0,0 5,-5 -12.5,0 5,5 Z"
         id="path1137" />
    </marker>
    <marker
       inkscape:isstock="true"
       style="overflow:visible"
       id="marker1081"
       refX="0"
       refY="0"
       orient="auto"
       inkscape:stockid="DotS">
      <path
         inkscape:connector-curvature="0"
         transform="matrix(0.2,0,0,0.2,1.48,0.2)"
         style="fill:#0000ff;fill-opacity:1;fill-rule:evenodd;stroke:#0000ff;stroke-width:1.00000003pt;stroke-opacity:1"
         d="m -2.5,-1 c 0,2.76 -2.24,5 -5,5 -2.76,0 -5,-2.24 -5,-5 0,-2.76 2.24,-5 5,-5 2.76,0 5,2.24 5,5 z"
         id="path1079" />
    </marker>
    <marker
       inkscape:isstock="true"
       style="overflow:visible"
       id="marker945"
       refX="0"
       refY="0"
       orient="auto"
       inkscape:stockid="Arrow1Mend">
      <path
         inkscape:connector-curvature="0"
         transform="matrix(-0.4,0,0,-0.4,-4,0)"
         style="fill:#800080;fill-opacity:1;fill-rule:evenodd;stroke:#800080;stroke-width:1.00000003pt;stroke-opacity:1"
         d="M 0,0 5,-5 -12.5,0 5,5 Z"
         id="path943" />
    </marker>
    <marker
       inkscape:stockid="DotM"
       orient="auto"
       refY="0"
       refX="0"
       id="DotM"
       style="overflow:visible"
       inkscape:isstock="true">
      <path
         id="path925"
         d="m -2.5,-1 c 0,2.76 -2.24,5 -5,5 -2.76,0 -5,-2.24 -5,-5 0,-2.76 2.24,-5 5,-5 2.76,0 5,2.24 5,5 z"
         style="fill:#ff0000;fill-opacity:1;fill-rule:evenodd;stroke:#ff0000;stroke-width:1.00000003pt;stroke-opacity:1"
         transform="matrix(0.4,0,0,0.4,2.96,0.4)"
         inkscape:connector-curvature="0" />
    </marker>
    <marker
       inkscape:stockid="Arrow1Lend"
       orient="auto"
       refY="0"
       refX="0"
       id="Arrow1Lend"
       style="overflow:visible">
      <path
         id="path3786"
         d="M 0,0 5,-5 -12.5,0 5,5 Z"
         style="fill-rule:evenodd;stroke:#000000;stroke-width:1.00000003pt"
         transform="matrix(-0.8,0,0,-0.8,-10,0)"
         inkscape:connector-curvature="0" />
    </marker>
    <marker
       inkscape:stockid="Arrow1Mend"
       orient="auto"
       refY="0"
       refX="0"
       id="Arrow1Mend"
       style="overflow:visible">
      <path
         id="path3792"
         d="M 0,0 5,-5 -12.5,0 5,5 Z"
         style="fill-rule:evenodd;stroke:#000000;stroke-width:1.00000003pt"
         transform="matrix(-0.4,0,0,-0.4,-4,0)"
         inkscape:connector-curvature="0" />
    </marker>
  </defs>
  <sodipodi:namedview
     id="base"
     pagecolor="#ffffff"
     bordercolor="#666666"
     borderopacity="1.0"
     inkscape:pageopacity="0.0"
     inkscape:pageshadow="2"
     inkscape:zoom="8.9543034"
     inkscape:cx="56.750116"
     inkscape:cy="40.874201"
     inkscape:document-units="pt"
     inkscape:current-layer="layer1"
     showgrid="false"
     units="mm"
     inkscape:window-width="1920"
     inkscape:window-height="1009"
     inkscape:window-x="0"
     inkscape:window-y="0"
     inkscape:window-maximized="1"
     fit-margin-top="1"
     fit-margin-left="1"
     fit-margin-right="1"
     fit-margin-bottom="1"
     inkscape:snap-global="false" />
  <metadata
     id="metadata7">
    <rdf:RDF>
      <cc:Work
         rdf:about="">
        <dc:format>image/svg+xml</dc:format>
        <dc:type
           rdf:resource="http://purl.org/dc/dcmitype/StillImage" />
        <dc:title />
      </cc:Work>
    </rdf:RDF>
  </metadata>
  <g
     inkscape:label="Layer 1"
     inkscape:groupmode="layer"
     id="layer1"
     transform="translate(25.040856,-968.03487)">
    <path
       sodipodi:nodetypes="cc"
       inkscape:connector-curvature="0"
       id="path35"
       d="m -21.260668,1032.1244 102.265363,0.2026"
       style="fill:#000000;stroke:#000000;stroke-width:0.667;stroke-linecap:butt;stroke-linejoin:miter;stroke-opacity:1;stroke-miterlimit:4;stroke-dasharray:none;marker-end:url(#marker1224)" />
    <path
       style="fill:#000000;stroke:#000000;stroke-width:0.667;stroke-linecap:butt;stroke-linejoin:miter;stroke-opacity:1;stroke-miterlimit:4;stroke-dasharray:none;marker-end:url(#marker5208)"
       d="M 64.003791,1046.0022 63.675095,975.18928"
       id="path37"
       inkscape:connector-curvature="0"
       sodipodi:nodetypes="cc" />
    <g
       transform="matrix(-0.04158507,0,0,-0.04158507,4.2968407,1038.6125)"
       id="g33" />
    <g
       transform="matrix(-0.04158507,0,0,-0.04158507,4.2968407,1038.6125)"
       id="g35" />
    <g
       transform="matrix(-0.04158507,0,0,-0.04158507,4.2968407,1038.6125)"
       id="g37" />
    <g
       transform="matrix(-0.04158507,0,0,-0.04158507,4.2968407,1038.6125)"
       id="g39" />
    <g
       transform="matrix(-0.04158507,0,0,-0.04158507,4.2968407,1038.6125)"
       id="g41" />
    <g
       transform="matrix(-0.04158507,0,0,-0.04158507,4.2968407,1038.6125)"
       id="g43" />
    <g
       transform="matrix(-0.04158507,0,0,-0.04158507,4.2968407,1038.6125)"
       id="g45" />
    <g
       transform="matrix(-0.04158507,0,0,-0.04158507,4.2968407,1038.6125)"
       id="g47" />
    <g
       transform="matrix(-0.04158507,0,0,-0.04158507,4.2968407,1038.6125)"
       id="g49" />
    <g
       transform="matrix(-0.04158507,0,0,-0.04158507,4.2968407,1038.6125)"
       id="g51" />
    <g
       transform="matrix(-0.04158507,0,0,-0.04158507,4.2968407,1038.6125)"
       id="g53" />
    <g
       transform="matrix(-0.04158507,0,0,-0.04158507,4.2968407,1038.6125)"
       id="g55" />
    <g
       transform="matrix(-0.04158507,0,0,-0.04158507,4.2968407,1038.6125)"
       id="g57" />
    <g
       transform="matrix(-0.04158507,0,0,-0.04158507,4.2968407,1038.6125)"
       id="g59" />
    <g
       transform="matrix(-0.04158507,0,0,-0.04158507,4.2968407,1038.6125)"
       id="g61" />
    <g
       style="font-style:normal;font-variant:normal;font-weight:normal;font-stretch:normal;font-size:16px;line-height:18.66666603px;font-family:'GOST type B';-inkscape-font-specification:'GOST type B';text-align:start;letter-spacing:0px;word-spacing:0px;text-anchor:start;fill:#000000;fill-opacity:1;stroke:none"
       id="text1002" />
    <g
       style="font-style:normal;font-variant:normal;font-weight:normal;font-stretch:normal;font-size:16px;line-height:18.66666603px;font-family:'GOST type B';-inkscape-font-specification:'GOST type B';text-align:start;letter-spacing:0px;word-spacing:0px;text-anchor:start;fill:#000000;fill-opacity:1;stroke:none"
       id="text1006" />
    <g
       style="font-style:normal;font-variant:normal;font-weight:normal;font-stretch:normal;font-size:16px;line-height:18.66666603px;font-family:'GOST type B';-inkscape-font-specification:'GOST type B';text-align:start;letter-spacing:0px;word-spacing:0px;text-anchor:start;fill:#000000;fill-opacity:1;stroke:none"
       id="text1010" />
    <g
       style="font-style:normal;font-variant:normal;font-weight:normal;font-stretch:normal;font-size:16px;line-height:18.66666603px;font-family:'GOST type B';-inkscape-font-specification:'GOST type B';text-align:start;letter-spacing:0px;word-spacing:0px;text-anchor:start;fill:#000000;fill-opacity:1;stroke:none"
       id="text1014" />
    <g
       aria-label="O"
       transform="matrix(0.69626242,0,-0.11911513,0.69626242,86.737682,336.45908)"
       style="font-style:normal;font-variant:normal;font-weight:normal;font-stretch:normal;font-size:16px;line-height:18.66666603px;font-family:'GOST type B';-inkscape-font-specification:'GOST type B';text-align:start;letter-spacing:0px;word-spacing:0px;text-anchor:start;fill:#000000;fill-opacity:1;stroke:none"
       id="text89">
      <path
         d="m 134.68443,1011.7516 q 0,0.8984 -0.64062,1.5469 -0.64063,0.6406 -1.54688,0.6406 h -2.1875 q -0.89062,0 -1.53906,-0.6328 -0.64844,-0.6407 -0.64844,-1.5547 v -6.5625 q 0,-0.9141 0.63282,-1.5469 0.64062,-0.6406 1.55468,-0.6406 h 2.1875 q 0.91407,0 1.54688,0.6406 0.64062,0.6406 0.64062,1.5469 z m -1.09375,0 v -6.5625 q 0,-0.461 -0.3125,-0.7735 -0.30468,-0.3203 -0.78125,-0.3203 h -2.1875 q -0.46093,0 -0.78125,0.3125 -0.15625,0.1563 -0.23437,0.3594 -0.0781,0.1953 -0.0781,0.4219 v 6.5625 q 0,0.4609 0.3125,0.7812 0.16407,0.1407 0.35157,0.2344 0.23437,0.078 0.42968,0.078 h 2.1875 q 0.45313,0 0.77344,-0.3047 0.32031,-0.3046 0.32031,-0.789 z"
         id="path112"
         inkscape:connector-curvature="0"
         style="fill:#000000" />
    </g>
    <g
       aria-label="y"
       transform="matrix(1,0,-0.17107793,1,110.05085,-54.556659)"
       style="font-style:normal;font-variant:normal;font-weight:normal;font-stretch:normal;font-size:16px;line-height:18.66666603px;font-family:'GOST type B';-inkscape-font-specification:'GOST type B';text-align:start;letter-spacing:0px;word-spacing:0px;text-anchor:start;fill:#000000;fill-opacity:1;stroke:none"
       id="text93">
      <path
         d="m 136.03183,1032.752 -2.11719,-6.8907 -0.0312,-0.1875 q 0,-0.2109 0.17188,-0.3828 0.17187,-0.1484 0.39062,-0.1484 0.36719,0 0.51563,0.3906 l 1.64062,5.3672 1.6875,-5.3672 q 0.13281,-0.3906 0.51563,-0.3906 0.24218,0 0.39843,0.1484 0.16407,0.1406 0.16407,0.3828 l -0.0312,0.1875 -2.84375,9.0703 q -0.11719,0.4844 -0.53907,0.8204 -0.42187,0.3359 -0.96875,0.3359 h -0.54687 q -0.20313,0 -0.40625,-0.1641 -0.14063,-0.164 -0.14063,-0.3828 0,-0.2187 0.13282,-0.3828 0.14062,-0.1641 0.41406,-0.1641 h 0.53906 q 0.17188,0 0.28125,-0.1093 0.11719,-0.086 0.1875,-0.2657 z"
         id="path109"
         inkscape:connector-curvature="0"
         style="fill:#000000" />
    </g>
    <g
       aria-label="x"
       transform="matrix(1,0,-0.17107793,1,102.75814,30.406429)"
       style="font-style:normal;font-variant:normal;font-weight:normal;font-stretch:normal;font-size:16px;line-height:18.66666603px;font-family:'GOST type B';-inkscape-font-specification:'GOST type B';text-align:start;letter-spacing:0px;word-spacing:0px;text-anchor:start;fill:#000000;fill-opacity:1;stroke:none"
       id="text97">
      <path
         d="m 151.34196,1008.3957 1.98438,2.9766 0.0781,0.164 0.0156,0.1485 q 0,0.2109 -0.17188,0.3828 l -0.0859,0.07 -0.11719,0.055 -0.20313,0.031 q -0.22656,0 -0.4375,-0.2422 l -1.72656,-2.5937 -1.72656,2.5937 q -0.16406,0.25 -0.45313,0.25 -0.17187,0 -0.38281,-0.164 -0.17969,-0.1641 -0.17969,-0.3907 0,-0.1406 0.0937,-0.3046 l 1.98438,-2.9766 -1.98438,-2.9766 -0.0781,-0.164 -0.0156,-0.1485 q 0,-0.2109 0.16407,-0.375 0.16406,-0.164 0.41406,-0.164 0.22656,0 0.4375,0.2422 l 1.72656,2.5937 1.72656,-2.5937 q 0.16407,-0.25 0.45313,-0.25 0.16406,0 0.39062,0.164 0.17188,0.1719 0.17188,0.3906 0,0.1407 -0.0937,0.3047 z"
         id="path106"
         inkscape:connector-curvature="0"
         style="fill:#000000" />
    </g>
    <path
       style="fill:none;stroke:#ff0000;stroke-width:0.75;stroke-linecap:butt;stroke-linejoin:miter;stroke-opacity:1"
       d="M -19.775377,1041.6079 79.298764,981.33204"
       id="path102"
       inkscape:connector-curvature="0" />
    <path
       style="fill:#ff0000;fill-opacity:1;stroke:#ff0000;stroke-width:0.75;stroke-linecap:butt;stroke-linejoin:round;stroke-miterlimit:4;stroke-dasharray:none;stroke-dashoffset:0;stroke-opacity:1;paint-order:stroke fill markers"
       d="m -3.1475495,1032.0469 a 1.2470871,1.2470871 0 0 1 -1.2470871,1.2471 1.2470871,1.2470871 0 0 1 -1.2470872,-1.2471 1.2470871,1.2470871 0 0 1 1.2470872,-1.2471 1.2470871,1.2470871 0 0 1 1.2470871,1.2471 z"
       id="path104" />
    <path
       style="fill:#ff0000;fill-opacity:1;stroke:#ff0000;stroke-width:0.75;stroke-linecap:butt;stroke-linejoin:round;stroke-miterlimit:4;stroke-dasharray:none;stroke-dashoffset:0;stroke-opacity:1;paint-order:stroke fill markers"
       d="m 65.026548,990.89301 a 1.2470871,1.2470871 0 0 1 -1.247087,1.24708 1.2470871,1.2470871 0 0 1 -1.247087,-1.24708 1.2470871,1.2470871 0 0 1 1.247087,-1.24709 1.2470871,1.2470871 0 0 1 1.247087,1.24709 z"
       id="circle106" />
    <g
       aria-label="a"
       transform="skewX(-17.774635)"
       style="font-style:normal;font-variant:normal;font-weight:normal;font-stretch:normal;font-size:16px;line-height:18.66666603px;font-family:'GOST type B';-inkscape-font-specification:'GOST type B';text-align:start;letter-spacing:0px;word-spacing:0px;text-anchor:start;fill:#ff0000;fill-opacity:1;stroke:none"
       id="text110">
      <path
         d="m 331.01069,1039.9196 v -3.6458 h -1.82292 q -0.38411,0 -0.65104,0.2604 -0.13021,0.1302 -0.19531,0.2995 -0.0651,0.1628 -0.0651,0.3516 v 2.7343 q 0,0.3842 0.26041,0.6511 0.13672,0.1172 0.29297,0.1953 0.19531,0.065 0.35807,0.065 h 0.91146 q 0.37761,0 0.64453,-0.2539 0.26693,-0.2539 0.26693,-0.6576 z m 0.44922,1.224 q -0.22135,0.2539 -0.60547,0.4297 -0.3776,0.1693 -0.75521,0.1693 h -0.91146 q -0.73567,0 -1.28255,-0.5274 -0.54036,-0.5273 -0.54036,-1.2956 v -2.7343 q 0,-0.7552 0.53385,-1.2891 0.53386,-0.5339 1.28906,-0.5339 h 2.27865 q 0.45573,0 0.45573,0.4558 v 4.095 q 0,0.2735 0.17578,0.5599 0.15625,0.2539 0.45573,0.3972 0.28646,0.1171 0.28646,0.4101 0,0.2018 -0.13021,0.332 -0.11719,0.1368 -0.32552,0.1368 -0.0977,0 -0.1888,-0.046 -0.44922,-0.1758 -0.73568,-0.5599 z"
         style="font-size:13.33333302px;fill:#ff0000"
         id="path122" />
    </g>
    <g
       aria-label="b"
       transform="skewX(-17.774635)"
       style="font-style:normal;font-variant:normal;font-weight:normal;font-stretch:normal;font-size:16px;line-height:18.66666603px;font-family:'GOST type B';-inkscape-font-specification:'GOST type B';text-align:start;letter-spacing:0px;word-spacing:0px;text-anchor:start;fill:#ff0000;fill-opacity:1;stroke:none"
       id="text114">
      <path
         d="m 373.30229,985.12518 v 4.55729 h 1.82291 q 0.37761,0 0.64453,-0.2539 0.26693,-0.25391 0.26693,-0.65755 v -2.73438 q 0,-0.38411 -0.26041,-0.64453 -0.25391,-0.26693 -0.65105,-0.26693 z m 0,-0.91146 h 1.82291 q 0.74219,0 1.28256,0.53386 0.54036,0.52734 0.54036,1.28906 v 2.73438 q 0,0.74869 -0.53385,1.28906 -0.53386,0.53385 -1.28907,0.53385 h -2.27864 q -0.45573,0 -0.45573,-0.45573 v -8.20312 q 0,-0.18229 0.13672,-0.33854 0.13672,-0.11719 0.31901,-0.11719 0.17578,0 0.3125,0.11719 0.14323,0.11067 0.14323,0.33854 z"
         style="font-size:13.33333302px;fill:#ff0000"
         id="path125" />
    </g>
  </g>
</svg>
