<?xml version="1.0" encoding="UTF-8" standalone="no"?>
<!-- Created with Inkscape (http://www.inkscape.org/) -->

<svg
   xmlns:dc="http://purl.org/dc/elements/1.1/"
   xmlns:cc="http://creativecommons.org/ns#"
   xmlns:rdf="http://www.w3.org/1999/02/22-rdf-syntax-ns#"
   xmlns:svg="http://www.w3.org/2000/svg"
   xmlns="http://www.w3.org/2000/svg"
   xmlns:sodipodi="http://sodipodi.sourceforge.net/DTD/sodipodi-0.dtd"
   xmlns:inkscape="http://www.inkscape.org/namespaces/inkscape"
   width="424.83939"
   height="472.57544"
   viewBox="0 0 112.40542 125.03558"
   version="1.1"
   id="svg8"
   inkscape:version="0.92.4 (5da689c313, 2019-01-14)"
   sodipodi:docname="22-01.svg">
  <defs
     id="defs2" />
  <sodipodi:namedview
     id="base"
     pagecolor="#ffffff"
     bordercolor="#666666"
     borderopacity="1.0"
     inkscape:pageopacity="0.0"
     inkscape:pageshadow="2"
     inkscape:zoom="1.548959"
     inkscape:cx="213.71088"
     inkscape:cy="236.28772"
     inkscape:document-units="mm"
     inkscape:current-layer="layer1"
     showgrid="false"
     inkscape:window-width="1920"
     inkscape:window-height="1009"
     inkscape:window-x="0"
     inkscape:window-y="0"
     inkscape:window-maximized="1"
     inkscape:snap-global="false"
     units="px"
     fit-margin-top="2"
     fit-margin-left="2"
     fit-margin-bottom="2"
     fit-margin-right="2" />
  <metadata
     id="metadata5">
    <rdf:RDF>
      <cc:Work
         rdf:about="">
        <dc:format>image/svg+xml</dc:format>
        <dc:type
           rdf:resource="http://purl.org/dc/dcmitype/StillImage" />
        <dc:title />
      </cc:Work>
    </rdf:RDF>
  </metadata>
  <g
     inkscape:label="Layer 1"
     inkscape:groupmode="layer"
     id="layer1"
     transform="translate(-0.32748303,-104.87719)">
    <path
       style="fill:#fff6d5;fill-opacity:1;stroke:none;stroke-width:1.45993865;stroke-linecap:round;stroke-linejoin:round;stroke-miterlimit:4;stroke-dasharray:none;stroke-dashoffset:0;stroke-opacity:1;paint-order:markers stroke fill"
       d="m 217.23242,63.619141 c -0.18198,0.492076 69.53742,345.813929 70.39063,348.646479 0.2809,0.93251 0.88084,1.23017 1.97656,0.97657 0.86576,-0.20037 19.02004,-4.24525 40.3418,-8.98828 l 38.76562,-8.625 -3.35156,-7.34375 C 363.51179,384.24593 329.47224,309.4279 289.71289,222.02148 249.95353,134.61507 217.33813,63.333282 217.23242,63.619141 Z m 139.75,337.660159 c -0.37623,-0.37624 -67.12614,14.5207 -67.85937,15.14453 -0.3247,0.27627 -0.0185,3.48281 0.67968,7.125 1.00257,5.22992 1.58751,6.77601 2.78125,7.35547 0.83133,0.40354 1.89308,0.756 2.35938,0.7832 1.03859,0.0605 62.4213,-30.02596 62.03906,-30.4082 z"
       transform="matrix(0.26458333,0,0,0.26458333,0,97)"
       id="path897"
       inkscape:connector-curvature="0" />
    <path
       style="fill:none;stroke:#0000ff;stroke-width:0.35277778;stroke-linecap:butt;stroke-linejoin:miter;stroke-opacity:1"
       d="m 93.508109,204.26469 1.835386,3.67077 4.364548,-2.19936"
       id="path885"
       inkscape:connector-curvature="0"
       sodipodi:nodetypes="ccc" />
    <path
       style="fill:none;stroke:#ff0000;stroke-width:0.35277778;stroke-linecap:butt;stroke-linejoin:miter;stroke-opacity:1"
       d="m 56.147541,218.653 h -3.449455 v 3.65438"
       id="path887"
       inkscape:connector-curvature="0" />
    <path
       style="fill:none;stroke:#0000ff;stroke-width:0.5291667;stroke-linecap:butt;stroke-linejoin:miter;stroke-opacity:1"
       d="M 56.284153,222.42535 97.951675,201.9463"
       id="path33"
       inkscape:connector-curvature="0" />
    <path
       style="fill:none;stroke:#008000;stroke-width:0.5291667;stroke-linecap:butt;stroke-linejoin:miter;stroke-opacity:1"
       d="M 6.2865084,222.40984 97.951675,201.9463"
       id="path35"
       inkscape:connector-curvature="0" />
    <path
       style="fill:none;stroke:#008000;stroke-width:0.5291667;stroke-linecap:butt;stroke-linejoin:miter;stroke-opacity:1"
       d="M 56.284153,110.11476 76.989632,212.37902"
       id="path37"
       inkscape:connector-curvature="0"
       sodipodi:nodetypes="cc" />
    <g
       aria-label="A"
       style="font-style:italic;font-variant:normal;font-weight:normal;font-stretch:normal;font-size:6.3499999px;line-height:4.93888855px;font-family:'GOST type B';-inkscape-font-specification:'GOST type B Italic';text-align:start;letter-spacing:0px;word-spacing:0px;text-anchor:start;fill:#000000;fill-opacity:1;stroke:none;stroke-width:0.26458332"
       id="text41">
      <path
         d="m 51.256,108.70228 -0.499194,0.93638 q -0.04031,0.0682 -0.102319,0.11162 -0.04961,0.0279 -0.127124,0.0372 -0.08682,0 -0.139527,-0.062 -0.05891,-0.0558 -0.04031,-0.14883 l 0.03101,-0.0775 2.086694,-3.90673 q 0.102319,-0.18604 0.241846,-0.18604 0.139526,0 0.167431,0.18604 l 0.517798,3.90673 v 0.0775 q -0.0186,0.0837 -0.102319,0.15193 -0.08062,0.0589 -0.164331,0.0589 -0.04341,0 -0.09302,-0.0217 -0.04961,-0.0217 -0.07441,-0.12712 l -0.127124,-0.93638 z m 1.519288,-0.44338 -0.257349,-1.91306 -1.023193,1.91306 z"
         style="stroke-width:0.26458332"
         id="path954" />
    </g>
    <g
       aria-label="B"
       style="font-style:italic;font-variant:normal;font-weight:normal;font-stretch:normal;font-size:6.3499999px;line-height:4.93888855px;font-family:'GOST type B';-inkscape-font-specification:'GOST type B Italic';text-align:start;letter-spacing:0px;word-spacing:0px;text-anchor:start;fill:#000000;fill-opacity:1;stroke:none;stroke-width:0.26458332"
       id="text45">
      <path
         d="m 3.5055836,222.45957 q 0.164331,0.11162 0.2387451,0.31316 0.074414,0.20153 0.027905,0.42788 l -0.1736328,0.86816 q -0.071314,0.35657 -0.3782715,0.61392 -0.3038574,0.25425 -0.6635254,0.25425 H 1.0375172 q -0.217041,0 -0.1736328,-0.21705 l 0.7813476,-3.90673 q 0.043408,-0.21704 0.2604493,-0.21704 h 1.302246 q 0.3627686,0 0.5643067,0.25424 0.201538,0.25425 0.1302246,0.61392 l -0.086816,0.43408 q -0.031006,0.14883 -0.10542,0.28836 -0.074414,0.13952 -0.2046386,0.27285 z m -1.8169434,0.30385 -0.3472656,1.73943 h 1.3022461 q 0.179834,0 0.3317627,-0.12092 0.1519287,-0.12092 0.1891357,-0.31316 l 0.1736328,-0.86816 q 0.037207,-0.18294 -0.062012,-0.30696 -0.096118,-0.12712 -0.2852539,-0.12712 z m 1.1720215,-0.43098 q 0.179834,0 0.3317627,-0.12092 0.1519287,-0.12092 0.1891357,-0.31316 l 0.086816,-0.43408 q 0.037207,-0.18294 -0.062012,-0.30696 -0.096118,-0.12712 -0.2852539,-0.12712 h -1.085205 l -0.2604492,1.30534 z"
         style="stroke-width:0.26458332"
         id="path957" />
    </g>
    <g
       aria-label="C"
       style="font-style:italic;font-variant:normal;font-weight:normal;font-stretch:normal;font-size:6.3499999px;line-height:4.93888855px;font-family:'GOST type B';-inkscape-font-specification:'GOST type B Italic';text-align:start;letter-spacing:0px;word-spacing:0px;text-anchor:start;fill:#000000;fill-opacity:1;stroke:none;stroke-width:0.26458332"
       id="text49">
      <path
         d="m 111.15825,225.13013 h -1.08521 q -0.35346,0 -0.5612,-0.25115 -0.20464,-0.25425 -0.13333,-0.61702 l 0.5209,-2.60449 q 0.0713,-0.36277 0.37517,-0.61392 0.30386,-0.25424 0.66663,-0.25424 h 1.0852 q 0.0899,0 0.13953,0.0682 0.0496,0.0651 0.0341,0.14883 -0.0155,0.0744 -0.0837,0.14573 -0.0682,0.0713 -0.17673,0.0713 h -1.08521 q -0.18293,0 -0.33486,0.12402 -0.0744,0.062 -0.12092,0.14263 -0.0465,0.0775 -0.0651,0.16743 l -0.5209,2.60449 q -0.0372,0.18294 0.062,0.31006 0.0527,0.0558 0.12092,0.093 0.0868,0.031 0.16433,0.031 h 1.08521 q 0.0899,0 0.13952,0.0682 0.0496,0.0651 0.0341,0.14883 -0.0155,0.0744 -0.0837,0.14572 -0.0682,0.0713 -0.17673,0.0713 z"
         style="stroke-width:0.26458332"
         id="path960" />
    </g>
    <g
       aria-label="H"
       style="font-style:italic;font-variant:normal;font-weight:normal;font-stretch:normal;font-size:6.3499999px;line-height:4.93888855px;font-family:'GOST type B';-inkscape-font-specification:'GOST type B Italic';text-align:start;letter-spacing:0px;word-spacing:0px;text-anchor:start;fill:#000000;fill-opacity:1;stroke:none;stroke-width:0.26458332"
       id="text53">
      <path
         d="m 56.834592,226.58282 0.306958,-1.52858 q 0.0155,-0.0868 0.09302,-0.15193 0.08061,-0.0651 0.167432,-0.0651 0.08371,0 0.139526,0.0558 0.05581,0.0527 0.03411,0.16123 l -0.781347,3.90673 q -0.0186,0.093 -0.10232,0.16434 -0.08992,0.0589 -0.164331,0.0589 -0.08062,0 -0.139526,-0.0527 -0.05271,-0.0527 -0.03101,-0.16123 l 0.390674,-1.95337 h -1.736328 l -0.390674,1.95337 q -0.0217,0.10232 -0.09612,0.16433 -0.06821,0.0527 -0.164331,0.0527 -0.08682,0 -0.142627,-0.0527 -0.05271,-0.0558 -0.03101,-0.16433 l 0.781348,-3.90674 q 0.0186,-0.0868 0.09612,-0.16123 0.07751,-0.0558 0.164331,-0.0558 0.08372,0 0.139526,0.0558 0.05581,0.0527 0.03411,0.16123 l -0.303858,1.51928 z"
         style="stroke-width:0.26458332"
         id="path963" />
    </g>
    <g
       aria-label="E"
       style="font-style:italic;font-variant:normal;font-weight:normal;font-stretch:normal;font-size:6.3499999px;line-height:4.93888855px;font-family:'GOST type B';-inkscape-font-specification:'GOST type B Italic';text-align:start;letter-spacing:0px;word-spacing:0px;text-anchor:start;fill:#000000;fill-opacity:1;stroke:none;stroke-width:0.26458332"
       id="text57">
      <path
         d="m 101.27273,199.9214 h 1.08831 q 0.0899,0 0.13952,0.0682 0.0496,0.0651 0.0341,0.14883 -0.0155,0.0775 -0.0837,0.14883 -0.0682,0.0682 -0.17673,0.0682 h -1.08831 l -0.34726,1.73633 h 1.52239 q 0.0899,0 0.13952,0.0682 0.0496,0.0651 0.0341,0.14882 -0.0155,0.0775 -0.0837,0.14883 -0.0682,0.0682 -0.17673,0.0682 h -1.73943 q -0.21704,0 -0.17673,-0.20463 l 0.78444,-3.91915 q 0.0434,-0.21704 0.26045,-0.21704 h 1.73943 q 0.0899,0 0.13953,0.0682 0.0496,0.0651 0.0341,0.14882 -0.0155,0.0775 -0.0837,0.14883 -0.0682,0.0682 -0.17673,0.0682 h -1.52239 z"
         style="stroke-width:0.26458332"
         id="path966" />
    </g>
    <g
       aria-label="O"
       style="font-style:italic;font-variant:normal;font-weight:normal;font-stretch:normal;font-size:6.3499999px;line-height:4.93888855px;font-family:'GOST type B';-inkscape-font-specification:'GOST type B Italic';text-align:start;letter-spacing:0px;word-spacing:0px;text-anchor:start;fill:#000000;fill-opacity:1;stroke:none;stroke-width:0.26458332"
       id="text61">
      <path
         d="m 80.491634,217.59663 q -0.07131,0.35657 -0.378272,0.61392 -0.303857,0.25425 -0.663525,0.25425 h -0.868164 q -0.353467,0 -0.561206,-0.25115 -0.204639,-0.25425 -0.133326,-0.61702 l 0.520899,-2.60449 q 0.07131,-0.36277 0.375171,-0.61391 0.303857,-0.25425 0.666626,-0.25425 h 0.868164 q 0.362768,0 0.564306,0.25425 0.201538,0.25424 0.130225,0.61391 z m -0.434082,0 0.520898,-2.60449 q 0.03721,-0.18293 -0.06201,-0.30696 -0.09612,-0.12712 -0.285254,-0.12712 H 79.36302 q -0.182934,0 -0.334863,0.12402 -0.07441,0.062 -0.120923,0.14263 -0.04651,0.0775 -0.06511,0.16743 l -0.520899,2.60449 q -0.03721,0.18294 0.06201,0.31006 0.05271,0.0558 0.120923,0.093 0.08682,0.031 0.164331,0.031 h 0.868164 q 0.179834,0 0.331763,-0.12093 0.151929,-0.12092 0.189136,-0.31316 z"
         style="stroke-width:0.26458332"
         id="path969" />
    </g>
    <g
       aria-label="K"
       style="font-style:italic;font-variant:normal;font-weight:normal;font-stretch:normal;font-size:6.3499999px;line-height:4.93888855px;font-family:'GOST type B';-inkscape-font-specification:'GOST type B Italic';text-align:start;letter-spacing:0px;word-spacing:0px;text-anchor:start;fill:#000000;fill-opacity:1;stroke:none;stroke-width:0.26458332"
       id="text65">
      <path
         d="m 29.954543,226.91864 2.189014,-1.81384 q 0.07751,-0.0651 0.16123,-0.0651 0.08062,0 0.136426,0.0682 0.05581,0.0651 0.04031,0.15503 -0.0124,0.0558 -0.09612,0.14573 l -1.550293,1.28984 0.861963,2.35955 0.0062,0.11472 q -0.0155,0.0837 -0.09922,0.14573 -0.07751,0.0651 -0.170533,0.0651 -0.10542,0 -0.16123,-0.11472 l -0.818555,-2.26653 -0.617016,0.5085 -0.331763,1.65261 q -0.0217,0.10232 -0.09612,0.16433 -0.06821,0.0527 -0.164331,0.0527 -0.08682,0 -0.142627,-0.0527 -0.05271,-0.0558 -0.03101,-0.16433 l 0.781348,-3.90674 q 0.0155,-0.0837 0.09612,-0.14573 0.08061,-0.0651 0.164331,-0.0651 0.08372,0 0.139526,0.0496 0.05581,0.0558 0.03411,0.16123 z"
         style="stroke-width:0.26458332"
         id="path972" />
    </g>
    <path
       inkscape:connector-curvature="0"
       id="path877"
       d="m 76.989632,212.37902 -45.305067,9.65993"
       style="fill:none;stroke:#800080;stroke-width:0.52899998;stroke-linecap:butt;stroke-linejoin:miter;stroke-miterlimit:4;stroke-dasharray:2.1159999, 2.1159999;stroke-dashoffset:0;stroke-opacity:1"
       sodipodi:nodetypes="cc" />
    <path
       style="fill:#0000ff;fill-opacity:1;stroke:none;stroke-width:0.52899998;stroke-linecap:round;stroke-linejoin:round;stroke-miterlimit:4;stroke-dasharray:2.11599987, 2.11599987;stroke-dashoffset:0;stroke-opacity:1;paint-order:markers stroke fill"
       d="m 78.342025,212.37901 a 1.4489893,1.4489893 0 0 1 -1.448989,1.44899 1.4489893,1.4489893 0 0 1 -1.448989,-1.44899 1.4489893,1.4489893 0 0 1 1.448989,-1.44899 1.4489893,1.4489893 0 0 1 1.448989,1.44899 z"
       id="circle881" />
    <path
       style="fill:#fff6d5;fill-opacity:1;stroke:none;stroke-width:1.45993865;stroke-linecap:round;stroke-linejoin:round;stroke-miterlimit:4;stroke-dasharray:none;stroke-dashoffset:0;stroke-opacity:1;paint-order:markers stroke fill"
       d="m 126.50415,448.71394 c -0.005,-0.30121 18.97067,-86.93352 42.16901,-192.51625 L 210.85196,64.229083 211.03595,247.373 c 0.10119,100.72917 0.10119,183.22012 0,183.31325 -0.32767,0.30152 -82.49846,18.57534 -83.52665,18.57534 -0.54745,0 -0.99977,-0.24644 -1.00515,-0.54765 z"
       id="path891"
       inkscape:connector-curvature="0"
       transform="matrix(0.26458333,0,0,0.26458333,0,97)" />
    <path
       style="fill:#fff6d5;fill-opacity:1;stroke:none;stroke-width:1.45993865;stroke-linecap:round;stroke-linejoin:round;stroke-miterlimit:4;stroke-dasharray:none;stroke-dashoffset:0;stroke-opacity:1;paint-order:markers stroke fill"
       d="m 123.22509,470.6955 c -1.21332,-1.85177 -1.19257,-2.26848 0.49693,-9.97852 l 1.76312,-8.04604 41.58811,-9.33825 c 22.87346,-5.13604 42.16314,-9.35334 42.86596,-9.37177 1.15003,-0.0302 1.27785,0.87121 1.27785,9.01107 v 9.04458 l -3.2859,0.49275 c -2.60768,0.39105 -3.2859,0.78782 -3.2859,1.92232 0,1.44858 0.57361,1.4691 5.29395,0.18937 1.01457,-0.27506 1.27785,0.11504 1.27785,1.89337 v 2.2398 h -6.5718 -6.57179 v 6.9369 6.93689 l -35.59722,-0.0819 c -28.5412,-0.0657 -34.83003,-0.24663 -31.72679,-0.91275 2.12873,-0.45695 3.87847,-1.08547 3.88831,-1.39671 0.0572,-1.81016 -0.64808,-2.01165 -4.30007,-1.22843 -2.99671,0.64267 -3.82376,1.12283 -3.82376,2.21994 0,2.01548 -1.8115,1.72213 -3.28885,-0.53258 z m 23.69849,-2.50923 c 3.27034,-0.70137 4.48915,-1.81468 3.29449,-3.00934 -0.50374,-0.50374 -7.07362,0.84499 -7.90472,1.62276 -0.56415,0.52795 -0.0814,2.17728 0.63722,2.17728 0.15734,0 1.94519,-0.35582 3.97301,-0.7907 z m 18.47347,-4.06979 c 0.30121,-0.1854 0.54765,-0.84715 0.54765,-1.47056 0,-0.90926 -0.54164,-1.03747 -2.73825,-0.64817 -4.42712,0.78461 -5.29394,1.17186 -5.29394,2.36504 0,0.93294 0.60233,1.03886 3.46844,0.6099 1.90765,-0.28551 3.71489,-0.67081 4.0161,-0.85621 z m 13.87379,-2.83801 c 1.54253,-0.27953 2.73825,-0.9202 2.73825,-1.46716 0,-1.5379 -0.83709,-1.67923 -4.92885,-0.83215 -3.01031,0.62319 -3.83355,1.09327 -3.83355,2.18898 0,1.0771 0.37473,1.3054 1.64295,1.00095 0.90362,-0.21692 2.87516,-0.6177 4.3812,-0.89062 z m 15.33418,-3.29288 c 1.55892,-0.43293 2.73825,-1.2174 2.73825,-1.82143 0,-1.27072 -1.21443,-1.3278 -5.46702,-0.25699 -2.24677,0.56574 -3.07675,1.10669 -2.80092,1.8255 0.46651,1.21569 1.83716,1.27839 5.52969,0.25292 z"
       id="path893"
       inkscape:connector-curvature="0"
       transform="matrix(0.26458333,0,0,0.26458333,0,97)" />
    <path
       style="fill:#fff6d5;fill-opacity:1;stroke:none;stroke-width:1.45993865;stroke-linecap:round;stroke-linejoin:round;stroke-miterlimit:4;stroke-dasharray:none;stroke-dashoffset:0;stroke-opacity:1;paint-order:markers stroke fill"
       d="m 200.26407,466.78637 v -5.84159 h 5.47649 5.4765 v 3.31024 c 0,2.80346 -0.38753,3.69777 -2.53136,5.84159 -2.05153,2.05153 -3.08962,2.53136 -5.47649,2.53136 h -2.94514 z"
       id="path895"
       inkscape:connector-curvature="0"
       transform="matrix(0.26458333,0,0,0.26458333,0,97)" />
    <path
       style="fill:none;stroke:#800080;stroke-width:0.35277778;stroke-linecap:butt;stroke-linejoin:miter;stroke-opacity:1"
       d="m 49.043716,144.40437 c 0,0 2.293564,1.32394 3.572853,1.45786 1.18956,0.12453 3.530972,-0.63818 3.530972,-0.63818"
       id="path902"
       inkscape:connector-curvature="0"
       sodipodi:nodetypes="csc" />
    <path
       sodipodi:nodetypes="csc"
       inkscape:connector-curvature="0"
       id="path904"
       d="m 63.250742,143.34677 c 0,0 2.635927,0.25523 3.855817,-0.15267 1.134328,-0.37929 2.949654,-2.04318 2.949654,-2.04318"
       style="fill:none;stroke:#800080;stroke-width:0.35277778;stroke-linecap:butt;stroke-linejoin:miter;stroke-opacity:1" />
    <path
       sodipodi:nodetypes="czc"
       inkscape:connector-curvature="0"
       id="path908"
       d="m 56.269085,138.38397 c 0,0 4.350195,0.62849 6.336136,0.14375 1.985946,-0.48473 5.197823,-2.84962 5.197823,-2.84962"
       style="fill:none;stroke:#ff00ff;stroke-width:0.35277778;stroke-linecap:butt;stroke-linejoin:miter;stroke-opacity:1" />
    <path
       sodipodi:nodetypes="csc"
       inkscape:connector-curvature="0"
       id="path910"
       d="m 41.286088,144.30179 c 0,0 1.935463,1.80755 3.151492,2.22683 1.130736,0.38986 3.583888,0.17543 3.583888,0.17543"
       style="fill:none;stroke:#0000ff;stroke-width:0.70555556;stroke-linecap:butt;stroke-linejoin:miter;stroke-opacity:1" />
    <path
       style="fill:none;stroke:#0000ff;stroke-width:0.70555556;stroke-linecap:butt;stroke-linejoin:miter;stroke-opacity:1"
       d="m 56.475427,147.86506 c 0,0 2.521743,0.80874 3.80041,0.66899 1.188977,-0.12996 3.31603,-1.37076 3.31603,-1.37076"
       id="path912"
       inkscape:connector-curvature="0"
       sodipodi:nodetypes="csc" />
    <g
       id="g920">
      <path
         sodipodi:nodetypes="czc"
         inkscape:connector-curvature="0"
         id="path906"
         d="m 44.580571,136.45199 c 0,0 3.775077,2.25122 5.794865,2.56648 2.019789,0.31527 5.893649,-0.6345 5.893649,-0.6345"
         style="fill:none;stroke:#ff0000;stroke-width:0.35277778;stroke-linecap:butt;stroke-linejoin:miter;stroke-opacity:1" />
      <path
         style="fill:none;stroke:#ff0000;stroke-width:0.35277778;stroke-linecap:butt;stroke-linejoin:miter;stroke-opacity:1"
         d="m 44.387372,137.41798 c 0,0 3.775077,2.25122 5.794865,2.56648 2.019789,0.31527 5.893649,-0.6345 5.893649,-0.6345"
         id="path914"
         inkscape:connector-curvature="0"
         sodipodi:nodetypes="czc" />
    </g>
    <path
       style="fill:none;stroke:#ff00ff;stroke-width:0.35277778;stroke-linecap:butt;stroke-linejoin:miter;stroke-opacity:1"
       d="m 56.075886,139.34996 c 0,0 4.350195,0.62849 6.336136,0.14375 1.985946,-0.48473 5.729119,-2.94622 5.729119,-2.94622"
       id="path916"
       inkscape:connector-curvature="0"
       sodipodi:nodetypes="czc" />
    <g
       id="g926"
       transform="matrix(1.4954706,-0.1959569,0.22565821,0.96728723,-50.503805,29.549416)"
       style="stroke:#008000">
      <path
         style="fill:none;stroke:#008000;stroke-width:0.35277778;stroke-linecap:butt;stroke-linejoin:miter;stroke-opacity:1"
         d="m 44.580571,136.45199 c 0,0 3.775077,2.25122 5.794865,2.56648 2.019789,0.31527 5.893649,-0.6345 5.893649,-0.6345"
         id="path922"
         inkscape:connector-curvature="0"
         sodipodi:nodetypes="czc" />
      <path
         sodipodi:nodetypes="czc"
         inkscape:connector-curvature="0"
         id="path924"
         d="m 44.387372,137.41798 c 0,0 3.775077,2.25122 5.794865,2.56648 2.019789,0.31527 5.893649,-0.6345 5.893649,-0.6345"
         style="fill:none;stroke:#008000;stroke-width:0.35277778;stroke-linecap:butt;stroke-linejoin:miter;stroke-opacity:1" />
    </g>
    <path
       style="fill:none;stroke:#800080;stroke-width:0.52899997;stroke-linecap:butt;stroke-linejoin:miter;stroke-miterlimit:4;stroke-dasharray:2.1159999,2.1159999;stroke-dashoffset:0;stroke-opacity:1"
       d="M 56.284153,110.11476 31.684565,222.03895"
       id="path67"
       inkscape:connector-curvature="0" />
    <path
       style="fill:none;stroke:#6c5353;stroke-width:0.35277778;stroke-linecap:butt;stroke-linejoin:miter;stroke-opacity:1"
       d="m 67.667106,214.12895 c 0,0 0.414898,-5.18164 1.764774,-7.13374 1.349877,-1.95211 5.773037,-3.98428 5.773037,-3.98428"
       id="path928"
       inkscape:connector-curvature="0"
       sodipodi:nodetypes="czc" />
    <path
       style="fill:none;stroke:#ff0000;stroke-width:0.5291667;stroke-linecap:butt;stroke-linejoin:miter;stroke-opacity:1"
       d="M 56.284153,110.11476 V 222.42535"
       id="path31"
       inkscape:connector-curvature="0" />
    <path
       style="fill:none;stroke:#000000;stroke-width:0.5291667;stroke-linecap:butt;stroke-linejoin:miter;stroke-opacity:1"
       d="M 56.284153,110.11476 6.2865085,222.40984 H 107.37705 Z"
       id="path10"
       inkscape:connector-curvature="0"
       sodipodi:nodetypes="cccc" />
    <path
       style="fill:#800080;fill-opacity:1;stroke:none;stroke-width:0.52899998;stroke-linecap:round;stroke-linejoin:round;stroke-miterlimit:4;stroke-dasharray:2.11599987, 2.11599987;stroke-dashoffset:0;stroke-opacity:1;paint-order:markers stroke fill"
       d="m 32.843761,222.42534 a 1.4489893,1.4489893 0 0 1 -1.448989,1.44899 1.4489893,1.4489893 0 0 1 -1.44899,-1.44899 1.4489893,1.4489893 0 0 1 1.44899,-1.44899 1.4489893,1.4489893 0 0 1 1.448989,1.44899 z"
       id="path879" />
    <path
       style="fill:#000000;fill-opacity:1;stroke:none;stroke-width:0.52899998;stroke-linecap:round;stroke-linejoin:round;stroke-miterlimit:4;stroke-dasharray:2.11599987, 2.11599987;stroke-dashoffset:0;stroke-opacity:1;paint-order:markers stroke fill"
       d="m 57.669776,222.42534 a 1.4489893,1.4489893 0 0 1 -1.448989,1.44899 1.4489893,1.4489893 0 0 1 -1.448989,-1.44899 1.4489893,1.4489893 0 0 1 1.448989,-1.44899 1.4489893,1.4489893 0 0 1 1.448989,1.44899 z"
       id="circle883" />
    <g
       id="g936">
      <path
         inkscape:connector-curvature="0"
         id="path930"
         d="m 64.959015,216.67213 1.297815,2.2541"
         style="fill:none;stroke:#0000ff;stroke-width:0.35277778;stroke-linecap:butt;stroke-linejoin:miter;stroke-opacity:1" />
      <path
         style="fill:none;stroke:#0000ff;stroke-width:0.35277778;stroke-linecap:butt;stroke-linejoin:miter;stroke-opacity:1"
         d="m 65.642075,216.26229 1.297815,2.2541"
         id="path932"
         inkscape:connector-curvature="0" />
    </g>
    <g
       id="g942"
       transform="translate(19.808743,-9.6311476)">
      <path
         style="fill:none;stroke:#0000ff;stroke-width:0.35277778;stroke-linecap:butt;stroke-linejoin:miter;stroke-opacity:1"
         d="m 64.959015,216.67213 1.297815,2.2541"
         id="path938"
         inkscape:connector-curvature="0" />
      <path
         inkscape:connector-curvature="0"
         id="path940"
         d="m 65.642075,216.26229 1.297815,2.2541"
         style="fill:none;stroke:#0000ff;stroke-width:0.35277778;stroke-linecap:butt;stroke-linejoin:miter;stroke-opacity:1" />
    </g>
    <path
       inkscape:connector-curvature="0"
       id="path944"
       d="m 46.484947,221.15343 0.01793,2.60096"
       style="fill:none;stroke:#000000;stroke-width:0.35277778;stroke-linecap:butt;stroke-linejoin:miter;stroke-opacity:1" />
    <path
       style="fill:none;stroke:#000000;stroke-width:0.35277778;stroke-linecap:butt;stroke-linejoin:miter;stroke-opacity:1"
       d="m 20.870193,221.15343 0.01793,2.60096"
       id="path952"
       inkscape:connector-curvature="0" />
  </g>
</svg>
