<svg xmlns="http://www.w3.org/2000/svg" width="382.958" height="206.618" viewBox="0 0 101.324 54.668"><g style="opacity:1;fill:none;fill-opacity:1;stroke:red;stroke-width:4;stroke-linecap:round;stroke-linejoin:round;stroke-miterlimit:4;stroke-dasharray:none;stroke-dashoffset:0;stroke-opacity:1;paint-order:stroke markers fill"><path style="fill:none;stroke:red;stroke-width:.36816838;stroke-linecap:butt;stroke-linejoin:miter;stroke-opacity:1" d="M32.357 85.593 2.043 97.668" transform="matrix(-.87747 -.3779 .30512 -.91495 68.192 125.68)"/><path style="fill:#f4eed7;stroke:#786721;stroke-width:.23059613;stroke-linecap:butt;stroke-linejoin:miter;stroke-opacity:1" d="M89.552 78.691c28.651-29.801-21.968-38.798-40.72-16.813C28.888 85.26 59.402 92.69 73.94 86.686c4.81-1.987 13.473-5.77 15.612-7.995z" transform="matrix(-.87747 -.3779 .30512 -.91495 68.192 125.68)"/><path style="fill:#e9ddaf;stroke:none;stroke-width:.17294711px;stroke-linecap:butt;stroke-linejoin:miter;stroke-opacity:1" d="m83.115 70.732-13.39 10.916-11.127.97-2.894-15.124 11.679-9.054 13.292-1.36z" transform="matrix(-.87747 -.3779 .30512 -.91495 68.192 125.68)"/><path style="fill:none;stroke:#a00;stroke-width:.46119225;stroke-linecap:butt;stroke-linejoin:miter;stroke-opacity:1" d="m71.89 81.258-13.292 1.36" transform="matrix(-.87747 -.3779 .30512 -.91495 68.192 125.68)"/><path style="fill:none;stroke:#a00;stroke-width:.34589422;stroke-linecap:butt;stroke-linejoin:miter;stroke-opacity:1" d="m83.115 70.732-11.679 9.054" transform="matrix(-.87747 -.3779 .30512 -.91495 68.192 125.68)"/><path transform="matrix(-.70926 .59522 -.77495 -.59212 68.192 125.68)" style="opacity:1;fill:none;fill-opacity:1;stroke:#000;stroke-width:.2421954;stroke-linecap:butt;stroke-linejoin:bevel;stroke-miterlimit:4;stroke-dasharray:.9687816,.9687816;stroke-dashoffset:0;stroke-opacity:1;paint-order:normal" d="M-80.144 107.21h17.11v16.871h-17.11z"/><path transform="matrix(-.70926 .59522 -.77495 -.59212 68.192 125.68)" style="opacity:1;fill:none;fill-opacity:1;stroke:#000;stroke-width:.24178456;stroke-linecap:round;stroke-linejoin:round;stroke-miterlimit:4;stroke-dasharray:none;stroke-dashoffset:0;stroke-opacity:1;paint-order:stroke markers fill" d="M-68.938 99.525h17.11v16.871h-17.11z"/><path d="m63.098 95.46-1.743-11.544M79.447 99.626l-1.744-11.544M88.155 84.899l-1.743-11.544" style="fill:none;stroke:#000;stroke-width:.23687546;stroke-linecap:butt;stroke-linejoin:miter;stroke-opacity:1" transform="matrix(-.87747 -.3779 .30512 -.91495 68.192 125.68)"/><path d="m71.806 80.733-1.743-11.544" style="fill:none;stroke:#000;stroke-width:.23687546;stroke-linecap:butt;stroke-linejoin:miter;stroke-miterlimit:4;stroke-dasharray:.94750181,.94750181;stroke-dashoffset:0;stroke-opacity:1" transform="matrix(-.87747 -.3779 .30512 -.91495 68.192 125.68)"/><path style="fill:none;stroke:#000;stroke-width:.23059613;stroke-linecap:butt;stroke-linejoin:miter;stroke-opacity:1" d="m88.155 84.899-8.708 14.727-16.349-4.166" transform="matrix(-.87747 -.3779 .30512 -.91495 68.192 125.68)"/><path style="opacity:1;fill:#de8787;fill-opacity:1;stroke:none;stroke-width:.08459838;stroke-linecap:butt;stroke-linejoin:bevel;stroke-miterlimit:4;stroke-dasharray:.3383935,.3383935;stroke-dashoffset:0;stroke-opacity:1;paint-order:normal" d="M78.245 71.42c4.351 1.105 7.916 2.022 7.921 2.037.006.016-1.236 2.132-2.76 4.703l-2.771 4.675-.467-.126c-.386-.104-.479-.108-.53-.02-.035.057-.057.125-.049.149.009.024.213.091.455.15l.439.105-1.425 2.41-1.426 2.412-.271-.072c-.15-.04-3.601-.919-7.671-1.954-4.07-1.034-7.558-1.924-7.753-1.976l-.354-.096 4.21-7.12c3.239-5.478 4.25-7.141 4.376-7.203.138-.068 1.478.252 8.076 1.927zm-8.082-.582c.078.508.1.563.23.558.06-.003.115-.017.123-.033.027-.055-.114-.937-.154-.968-.023-.017-.09-.011-.15.014-.087.035-.097.12-.05.43zm.285 1.898c.032.165.063.363.07.44.01.117.038.13.157.082.13-.054.138-.097.087-.448-.074-.514-.097-.57-.228-.544-.142.028-.156.104-.086.47zm.28 1.854c.093.565.111.605.247.549.074-.03.111-.1.1-.187-.031-.273-.1-.79-.108-.811-.006-.018-.136-.008-.27.02-.02.005-.007.198.031.43zm.248 1.6c.084.72.105.805.194.82.05.007.12.002.157-.012.077-.031-.047-.903-.138-.97-.106-.079-.23.016-.213.162zm.33 2.217c.065.381.095.464.174.477.15.024.184-.008.167-.158-.1-.849-.121-.904-.312-.825-.086.036-.092.128-.028.506zm.24 1.558c.058.485.106.802.124.807.01.004.081 0 .157-.008.125-.014.13-.05.067-.437-.093-.566-.11-.606-.247-.55-.074.031-.111.1-.1.188zm.559.827c-.129.115-.081.148.398.274.317.084.48.095.552.037.156-.126.104-.169-.36-.297-.457-.126-.465-.126-.59-.014zm-1.03.883c-.233.38-.24.408-.117.466.148.07.148.07.48-.494.151-.258.176-.347.107-.384-.143-.075-.207-.019-.47.412zm2.865-.363c-.032.084.06.132.455.234.465.121.498.12.569-.009.071-.13.053-.143-.387-.258-.5-.13-.576-.126-.637.033zm-3.827 1.99c-.131.221-.246.414-.256.428-.032.045.19.137.257.106.036-.016.167-.213.29-.438.195-.352.211-.416.117-.466-.06-.031-.122-.052-.139-.045-.017.007-.138.194-.27.415zm5.727-1.53c-.051.135.04.177.673.309.247.052.283.045.336-.065.054-.11.01-.138-.413-.259-.26-.074-.49-.129-.51-.122-.022.008-.06.07-.086.138zm-6.75 3.267c-.186.34-.207.417-.118.434.174.032.214-.007.453-.442.187-.341.208-.419.119-.436-.173-.033-.213.006-.453.444zm8.626-2.764c-.032.082.054.129.407.224.428.116.67.085.613-.079-.029-.082-.803-.315-.913-.274-.037.014-.086.072-.107.129z" transform="matrix(-.87747 -.3779 .30512 -.91495 68.192 125.68)"/><path style="opacity:1;fill:#faa;fill-opacity:1;stroke:none;stroke-width:.08459838;stroke-linecap:butt;stroke-linejoin:bevel;stroke-miterlimit:4;stroke-dasharray:.3383935,.3383935;stroke-dashoffset:0;stroke-opacity:1;paint-order:normal" d="M69.561 86.156c4.383 1.115 7.983 2.064 8.001 2.11.042.11 1.7 11.094 1.681 11.134-.008.017-.16-.011-.337-.061-.177-.05-1.187-.312-2.245-.58a2407.996 2407.996 0 0 1-8.769-2.231c-3.687-.935-4.478-1.142-4.51-1.176-.018-.02.056-.184.165-.363.173-.286.183-.33.08-.372-.122-.05-.18-.01-.355.245-.107.156-.109.156-.122.003-.007-.086-.37-2.511-.808-5.39-.437-2.88-.785-5.26-.772-5.29.012-.03 3.608.857 7.991 1.971zm-1.534.674c-.139.238-.14.257-.015.309.125.052.149.03.394-.37.144-.233.255-.442.248-.464-.008-.022-.068-.045-.134-.052-.127-.013-.192.063-.493.577zm-.892 1.52c-.19.31-.23.42-.162.455.143.076.224.007.477-.414.191-.316.222-.41.147-.449-.143-.075-.191-.033-.462.408zm-.994 1.68c-.242.44-.244.449-.09.462.143.012.182-.029.409-.425.23-.404.24-.442.12-.472a.516.516 0 0 0-.162-.023c-.017.006-.141.212-.277.459zm-1.001 1.686c-.186.34-.208.418-.119.434.178.033.224-.011.457-.443.184-.34.204-.417.115-.434-.173-.034-.213.005-.453.443zm-.934 1.582c-.269.443-.279.485-.124.532.128.038.16.002.462-.525.153-.266.165-.324.077-.37-.058-.031-.122-.05-.143-.04-.02.008-.143.19-.272.403z" transform="matrix(-.87747 -.3779 .30512 -.91495 68.192 125.68)"/><path style="opacity:1;fill:#ffd5d5;fill-opacity:1;stroke:none;stroke-width:.08459838;stroke-linecap:butt;stroke-linejoin:bevel;stroke-miterlimit:4;stroke-dasharray:.3383935,.3383935;stroke-dashoffset:0;stroke-opacity:1;paint-order:normal" d="M86.334 73.913c.033.095 1.636 10.726 1.622 10.755-.007.013-.167-.017-.358-.065-.24-.061-.378-.062-.45-.004-.16.128-.103.177.336.286.223.055.4.126.392.156-.012.05-1.011 1.747-6.34 10.761-1.085 1.836-1.983 3.335-1.995 3.33-.057-.023-1.678-11.032-1.636-11.111a4787.79 4787.79 0 0 1 8.324-14.06c.062-.09.086-.101.105-.048zm-4.9 9.382c.02.055.886.29.96.26.028-.013.07-.07.092-.129.059-.155-.857-.407-.982-.27-.047.051-.078.114-.07.14zm1.903.414c-.034.09.049.132.454.233.384.096.508.103.553.028.09-.152.052-.181-.403-.304-.467-.126-.542-.12-.604.043zm1.901.457c-.051.134.04.176.674.308.247.051.282.045.335-.066.054-.11.01-.137-.412-.256-.26-.074-.49-.128-.511-.122-.021.006-.06.067-.086.136z" transform="matrix(-.87747 -.3779 .30512 -.91495 68.192 125.68)"/><path style="opacity:1;fill:#000;fill-opacity:0;stroke:none;stroke-width:.04117788;stroke-linecap:butt;stroke-linejoin:bevel;stroke-miterlimit:4;stroke-dasharray:.08459838,.08459838;stroke-dashoffset:0;stroke-opacity:1;paint-order:normal" d="M74.52 81.312c.245.063.448.119.453.125.005.006-.014.052-.043.1l-.052.09-.44-.112c-.243-.06-.45-.114-.46-.118-.013-.005-.002-.04.032-.1a.628.628 0 0 1 .06-.096c.003-.001.207.049.45.111zM69.492 84.622c.046.012.087.023.09.025.023.009-.03.112-.222.437-.12.202-.227.371-.239.376a.298.298 0 0 1-.107-.015c-.078-.02-.086-.027-.078-.057.01-.037.45-.782.464-.786a.541.541 0 0 1 .092.02z" transform="matrix(-.87747 -.3779 .30512 -.91495 68.192 125.68)"/><path transform="matrix(.9275 0 0 .9883 68.192 125.68)" style="opacity:1;fill:#000;fill-opacity:1;stroke:none;stroke-width:.4615677;stroke-linecap:butt;stroke-linejoin:bevel;stroke-miterlimit:4;stroke-dasharray:.94827308,.94827308;stroke-dashoffset:0;stroke-opacity:1;paint-order:normal" d="M-42.887-91.01a.67.629 0 0 1-.67.63.67.629 0 0 1-.67-.63.67.629 0 0 1 .67-.628.67.629 0 0 1 .67.628z"/><path d="m86.344 73.383-5.669-16.302M61.446 84.009l-5.742-16.515M63.048 95.415l-4.45-12.797" style="fill:none;stroke:#00f;stroke-width:.17294711;stroke-linecap:butt;stroke-linejoin:miter;stroke-opacity:1" transform="matrix(-.87747 -.3779 .30512 -.91495 68.192 125.68)"/><path style="fill:none;stroke:#00f;stroke-width:.17321944;stroke-linecap:butt;stroke-linejoin:miter;stroke-miterlimit:4;stroke-dasharray:.51965835,.51965835;stroke-dashoffset:0;stroke-opacity:1" d="m88.007 84.863-4.903-14.1" transform="matrix(-.87747 -.3779 .30512 -.91495 68.192 125.68)"/><path transform="matrix(.9275 0 0 .9883 68.192 125.68)" style="opacity:1;fill:#000;fill-opacity:1;stroke:none;stroke-width:.4615677;stroke-linecap:butt;stroke-linejoin:bevel;stroke-miterlimit:4;stroke-dasharray:.94827308,.94827308;stroke-dashoffset:0;stroke-opacity:1;paint-order:normal" d="M-41.768-122.35a.67.629 0 0 1-.67.628.67.629 0 0 1-.67-.629.67.629 0 0 1 .67-.628.67.629 0 0 1 .67.628z"/><path d="m83.771 72.682-.667-1.92" style="fill:none;stroke:#00f;stroke-width:.17294711;stroke-linecap:butt;stroke-linejoin:miter;stroke-opacity:1" transform="matrix(-.87747 -.3779 .30512 -.91495 68.192 125.68)"/><path style="fill:none;stroke:red;stroke-width:.46119225;stroke-linecap:butt;stroke-linejoin:miter;stroke-opacity:1" d="m86.412 73.355-24.83 10.462" transform="matrix(-.87747 -.3779 .30512 -.91495 68.192 125.68)"/><path transform="matrix(.9275 0 0 .9883 68.192 125.68)" style="opacity:1;fill:red;fill-opacity:1;stroke:none;stroke-width:.4615677;stroke-linecap:butt;stroke-linejoin:bevel;stroke-miterlimit:4;stroke-dasharray:.94827308,.94827308;stroke-dashoffset:0;stroke-opacity:1;paint-order:normal" d="M-56.948-100.982a.67.629 0 0 1-.67.629.67.629 0 0 1-.67-.629.67.629 0 0 1 .67-.629.67.629 0 0 1 .67.63zM-29.876-101.146a.67.629 0 0 1-.67.628.67.629 0 0 1-.67-.628.67.629 0 0 1 .67-.63.67.629 0 0 1 .67.63z"/><path style="fill:none;stroke:#a00;stroke-width:.34589422;stroke-linecap:butt;stroke-linejoin:miter;stroke-opacity:1" d="m83.115 70.732-2.44-13.651-13.292 1.36-11.68 9.053 2.895 15.124" transform="matrix(-.87747 -.3779 .30512 -.91495 68.192 125.68)"/><path transform="matrix(.9275 0 0 .9883 68.192 125.68)" style="opacity:1;fill:#a00;fill-opacity:1;stroke:none;stroke-width:.4615677;stroke-linecap:butt;stroke-linejoin:bevel;stroke-miterlimit:4;stroke-dasharray:.94827308,.94827308;stroke-dashoffset:0;stroke-opacity:1;paint-order:normal" d="M-54.711-97.233a.67.629 0 0 1-.67.629.67.629 0 0 1-.67-.629.67.629 0 0 1 .67-.629.67.629 0 0 1 .67.63zM-43.845-79.95a.67.629 0 0 1-.67.628.67.629 0 0 1-.67-.628.67.629 0 0 1 .67-.63.67.629 0 0 1 .67.63zM-27.587-98.995a.67.629 0 0 1-.67.629.67.629 0 0 1-.67-.629.67.629 0 0 1 .67-.629.67.629 0 0 1 .67.63z"/><path transform="matrix(.263 -.02882 .02882 .263 -20.42 -88.11)" style="opacity:1;fill:#f4eed7;fill-opacity:0;stroke:#a00;stroke-width:1.3341732;stroke-linecap:butt;stroke-linejoin:bevel;stroke-miterlimit:4;stroke-dasharray:none;stroke-dashoffset:0;stroke-opacity:1;paint-order:normal" d="m387.237 512.6-60.848 25.797-52.764-39.797 8.083-65.594 60.847-25.797 52.764 39.797z"/><path transform="matrix(.9275 0 0 .9883 68.192 125.68)" style="opacity:1;fill:#a00;fill-opacity:1;stroke:none;stroke-width:.4615677;stroke-linecap:butt;stroke-linejoin:bevel;stroke-miterlimit:4;stroke-dasharray:.94827308,.94827308;stroke-dashoffset:0;stroke-opacity:1;paint-order:normal" d="M-1.761-91.533a.67.629 0 0 1-.67.629.67.629 0 0 1-.67-.63.67.629 0 0 1 .67-.628.67.629 0 0 1 .67.629zM30.766-91.114a.67.629 0 0 1-.67.629.67.629 0 0 1-.67-.63.67.629 0 0 1 .67-.628.67.629 0 0 1 .67.629zM14.949-117.75a.67.629 0 0 1-.67.63.67.629 0 0 1-.67-.63.67.629 0 0 1 .67-.628.67.629 0 0 1 .67.628zM14.566-82.794a.67.629 0 0 1-.67.629.67.629 0 0 1-.67-.63.67.629 0 0 1 .67-.628.67.629 0 0 1 .67.629zM-1.442-109.19a.67.629 0 0 1-.67.629.67.629 0 0 1-.67-.63.67.629 0 0 1 .67-.628.67.629 0 0 1 .67.629zM30.958-109.07a.67.629 0 0 1-.67.628.67.629 0 0 1-.67-.629.67.629 0 0 1 .67-.628.67.629 0 0 1 .67.628z"/><path d="M80.675 57.08 55.704 67.495" style="fill:none;stroke:red;stroke-width:.2761263;stroke-linecap:butt;stroke-linejoin:miter;stroke-opacity:1" transform="matrix(-.87747 -.3779 .30512 -.91495 68.192 125.68)"/><path transform="matrix(.9275 0 0 .9883 68.192 125.68)" style="opacity:1;fill:#a00;fill-opacity:1;stroke:none;stroke-width:.4615677;stroke-linecap:butt;stroke-linejoin:bevel;stroke-miterlimit:4;stroke-dasharray:.94827308,.94827308;stroke-dashoffset:0;stroke-opacity:1;paint-order:normal" d="M-56.828-83.774a.67.629 0 0 1-.67.628.67.629 0 0 1-.67-.628.67.629 0 0 1 .67-.63.67.629 0 0 1 .67.63zM-29.824-83.812a.67.629 0 0 1-.67.629.67.629 0 0 1-.67-.629.67.629 0 0 1 .67-.629.67.629 0 0 1 .67.63z"/><path style="fill:none;stroke:#00f;stroke-width:.17294711;stroke-linecap:butt;stroke-linejoin:miter;stroke-opacity:1" d="M77.632 87.915 67.382 58.44" transform="matrix(-.87747 -.3779 .30512 -.91495 68.192 125.68)"/><g style="font-style:normal;font-variant:normal;font-weight:400;font-stretch:normal;font-size:4.41802073px;line-height:3.68168378px;font-family:'GOST type B';-inkscape-font-specification:'GOST type B';text-align:start;letter-spacing:0;word-spacing:0;text-anchor:start;fill:#000;fill-opacity:1;stroke:none;stroke-width:1.10450518"><path d="m-62.648-91.33-.218.65q-.017.048-.056.079-.03.019-.082.025-.06 0-.106-.043-.05-.038-.05-.103l.011-.054.908-2.718q.046-.13.143-.13.097 0 .142.13l.904 2.718.01.054q0 .058-.049.106-.047.04-.105.04-.03 0-.07-.015-.036-.015-.069-.088l-.217-.652zm.994-.309-.444-1.331-.447 1.331z" style="stroke-width:1.10450518" transform="matrix(.9582 0 -.21956 .9582 68.192 125.68)" aria-label="A"/></g><g style="font-style:normal;font-variant:normal;font-weight:400;font-stretch:normal;font-size:4.41802073px;line-height:3.68168378px;font-family:'GOST type B';-inkscape-font-specification:'GOST type B';text-align:start;letter-spacing:0;word-spacing:0;text-anchor:start;fill:#000;fill-opacity:1;stroke:none;stroke-width:1.10450518"><path d="M-81.27-104.376q.13.077.21.218.08.14.08.297v.604q0 .248-.177.427-.177.177-.427.177h-1.057q-.151 0-.151-.15v-2.719q0-.15.15-.15h.907q.252 0 .427.176.177.177.177.427v.302q0 .104-.033.2-.032.098-.105.19zm-1.22.211v1.21h.906q.125 0 .213-.084.089-.084.089-.218v-.604q0-.127-.087-.213-.084-.089-.215-.089zm.755-.3q.125 0 .213-.084.089-.084.089-.218v-.302q0-.127-.087-.213-.084-.089-.215-.089h-.755v.908z" style="stroke-width:1.10450518" transform="matrix(.9582 0 -.21956 .9582 68.192 125.68)" aria-label="B"/></g><g style="font-style:normal;font-variant:normal;font-weight:400;font-stretch:normal;font-size:4.41802073px;line-height:3.68168378px;font-family:'GOST type B';-inkscape-font-specification:'GOST type B';text-align:start;letter-spacing:0;word-spacing:0;text-anchor:start;fill:#000;fill-opacity:1;stroke:none;stroke-width:1.10450518"><path d="M-67.153-114.952h-.755q-.246 0-.425-.174-.18-.177-.18-.43v-1.812q0-.252.175-.427.177-.177.43-.177h.755q.062 0 .106.048.045.045.045.103 0 .052-.039.102-.037.05-.112.05h-.755q-.128 0-.216.086-.043.043-.065.099-.021.054-.021.116v1.812q0 .128.086.216.045.039.097.065.065.021.119.021h.755q.062 0 .106.048.045.045.045.103 0 .052-.039.102-.037.05-.112.05z" style="stroke-width:1.10450518" transform="matrix(.9582 0 -.21956 .9582 68.192 125.68)" aria-label="C"/></g><g style="font-style:normal;font-variant:normal;font-weight:400;font-stretch:normal;font-size:4.41802073px;line-height:3.68168378px;font-family:'GOST type B';-inkscape-font-specification:'GOST type B';text-align:start;letter-spacing:0;word-spacing:0;text-anchor:start;fill:#000;fill-opacity:1;stroke:none;stroke-width:1.10450518"><path d="M-54.3-107.252q0 .249-.177.428-.177.176-.428.176h-1.057q-.15 0-.15-.15v-2.719q0-.15.15-.15h1.057q.253 0 .428.176.177.177.177.427zm-.303 0v-1.812q0-.127-.086-.213-.084-.089-.216-.089h-.906v2.416h.906q.126 0 .214-.084t.088-.218z" style="stroke-width:1.10450518" transform="matrix(.9582 0 -.21956 .9582 68.192 125.68)" aria-label="D"/></g><g style="font-style:normal;font-variant:normal;font-weight:400;font-stretch:normal;font-size:4.41802073px;line-height:3.68168378px;font-family:'GOST type B';-inkscape-font-specification:'GOST type B';text-align:start;letter-spacing:0;word-spacing:0;text-anchor:start;fill:#000;fill-opacity:1;stroke:none;stroke-width:1.10450518"><path d="M-100.212-116.336q.13.077.209.218.08.14.08.297v.604q0 .248-.177.428-.177.176-.427.176h-1.057q-.151 0-.151-.15v-2.719q0-.15.15-.15h.907q.252 0 .427.176.177.177.177.427v.302q0 .104-.033.2-.032.098-.105.19zm-1.221.211v1.21h.906q.125 0 .213-.084.089-.084.089-.218v-.604q0-.127-.087-.213-.084-.089-.215-.089zm.755-.3q.125 0 .213-.084.089-.084.089-.218v-.302q0-.127-.087-.213-.084-.089-.215-.089h-.755v.909z" style="stroke-width:1.10450518" transform="matrix(.9582 0 -.21956 .9582 85.17 124.024)" aria-label="B"/></g><g style="font-style:normal;font-variant:normal;font-weight:400;font-stretch:normal;font-size:3.68168402px;line-height:3.68168378px;font-family:'GOST type B';-inkscape-font-specification:'GOST type B';text-align:start;letter-spacing:0;word-spacing:0;text-anchor:start;fill:#000;fill-opacity:1;stroke:none;stroke-width:1.10450518"><path d="M-72.498-113.429q0 .06-.036.095-.034.031-.09.031-.05 0-.088-.03-.037-.033-.037-.096v-1.963l-.29.29q-.038.037-.086.037-.045 0-.088-.037-.04-.04-.04-.09 0-.043.038-.087l.503-.503q.026-.025.053-.04.026-.016.059-.016.03 0 .072.038.03.04.03.106z" style="font-size:3.68168402px;stroke-width:1.10450518" transform="matrix(.9582 0 0 .9582 85.17 124.024)" aria-label="1"/></g><g style="font-style:normal;font-variant:normal;font-weight:400;font-stretch:normal;font-size:4.41802073px;line-height:3.68168378px;font-family:'GOST type B';-inkscape-font-specification:'GOST type B';text-align:start;letter-spacing:0;word-spacing:0;text-anchor:start;fill:#000;fill-opacity:1;stroke:none;stroke-width:1.10450518"><path d="M-100.76-109.81h-.755q-.246 0-.425-.175-.18-.177-.18-.43v-1.812q0-.252.176-.427.176-.177.429-.177h.755q.062 0 .106.048.045.045.045.103 0 .052-.039.102-.037.05-.112.05h-.755q-.127 0-.216.086-.043.043-.065.099-.021.054-.021.116v1.812q0 .128.086.216.045.039.097.065.065.021.119.021h.755q.063 0 .106.048.045.045.045.103 0 .052-.039.102-.037.05-.112.05z" style="stroke-width:1.10450518" transform="matrix(.9582 0 -.21956 .9582 101.97 108.643)" aria-label="C"/></g><g style="font-style:normal;font-variant:normal;font-weight:400;font-stretch:normal;font-size:3.68168402px;line-height:3.68168378px;font-family:'GOST type B';-inkscape-font-specification:'GOST type B';text-align:start;letter-spacing:0;word-spacing:0;text-anchor:start;fill:#000;fill-opacity:1;stroke:none;stroke-width:1.10450518"><path d="M-74.244-108.714q0 .06-.036.095-.034.03-.09.03-.05 0-.088-.03-.038-.032-.038-.095v-1.963l-.289.29q-.038.037-.086.037-.045 0-.088-.038-.04-.04-.04-.09 0-.043.038-.086l.503-.503q.025-.026.052-.04.027-.016.06-.016.03 0 .072.038.03.04.03.106z" style="font-size:3.68168402px;stroke-width:1.10450518" transform="matrix(.9582 0 0 .9582 101.97 108.643)" aria-label="1"/></g><g style="font-style:normal;font-variant:normal;font-weight:400;font-stretch:normal;font-size:4.41802073px;line-height:3.68168378px;font-family:'GOST type B';-inkscape-font-specification:'GOST type B';text-align:start;letter-spacing:0;word-spacing:0;text-anchor:start;fill:#000;fill-opacity:1;stroke:none;stroke-width:1.10450518"><path d="M-100.074-104.827q0 .248-.177.427-.177.177-.427.177h-1.057q-.151 0-.151-.151v-2.718q0-.151.15-.151h1.058q.252 0 .427.177.177.177.177.427zm-.302 0v-1.812q0-.127-.087-.214-.084-.088-.215-.088h-.906v2.416h.906q.125 0 .213-.084.089-.084.089-.218z" style="stroke-width:1.10450518" transform="matrix(.9582 0 -.21956 .9582 117.468 114.855)" aria-label="D"/></g><g style="font-style:normal;font-variant:normal;font-weight:400;font-stretch:normal;font-size:3.68168402px;line-height:3.68168378px;font-family:'GOST type B';-inkscape-font-specification:'GOST type B';text-align:start;letter-spacing:0;word-spacing:0;text-anchor:start;fill:#000;fill-opacity:1;stroke:none;stroke-width:1.10450518"><path d="M-74.855-103.127q0 .06-.036.096-.034.03-.09.03-.05 0-.088-.03-.038-.033-.038-.096v-1.963l-.29.29q-.037.038-.085.038-.045 0-.088-.038-.04-.04-.04-.09 0-.043.038-.086l.503-.504q.025-.025.052-.04.027-.015.06-.015.03 0 .071.037.031.04.031.106z" style="font-size:3.68168402px;stroke-width:1.10450518" transform="matrix(.9582 0 0 .9582 117.468 114.855)" aria-label="1"/></g><g style="font-style:normal;font-variant:normal;font-weight:400;font-stretch:normal;font-size:4.41802073px;line-height:3.68168378px;font-family:'GOST type B';-inkscape-font-specification:'GOST type B';text-align:start;letter-spacing:0;word-spacing:0;text-anchor:start;fill:#000;fill-opacity:1;stroke:none;stroke-width:1.10450518"><path d="M-101.532-89.707q.13.077.21.217.08.14.08.298v.604q0 .248-.177.427-.177.177-.428.177h-1.057q-.15 0-.15-.15v-2.719q0-.151.15-.151h.906q.253 0 .428.177.176.177.176.427v.302q0 .104-.032.2-.032.098-.106.19zm-1.22.21v1.211h.905q.126 0 .214-.084t.088-.218v-.604q0-.127-.086-.213-.084-.089-.216-.089zm.754-.299q.126 0 .214-.084t.088-.218v-.302q0-.127-.086-.214-.084-.088-.216-.088h-.755v.908z" style="stroke-width:1.10450518" transform="matrix(.9582 0 -.21956 .9582 140.834 121.657)" aria-label="B"/></g><g aria-label="'" style="font-style:normal;font-variant:normal;font-weight:400;font-stretch:normal;font-size:4.41802073px;line-height:3.68168378px;font-family:'GOST type B';-inkscape-font-specification:'GOST type B';text-align:start;letter-spacing:0;word-spacing:0;text-anchor:start;fill:#000;fill-opacity:1;stroke:none;stroke-width:1.10450518"><path d="m-79.28-97.452-.283 1.106c-.017.077-.065.115-.144.115a.149.149 0 0 1-.11-.043.131.131 0 0 1-.048-.104l.007-.041.282-1.106c.017-.076.065-.114.144-.114.043 0 .08.014.108.043.033.026.05.06.05.106z" style="stroke-width:1.10450518" transform="matrix(.9582 0 0 .9582 140.374 127.22)"/><path style="stroke-width:1.10450518" d="m-79.28-97.452-.283 1.106c-.017.077-.065.115-.144.115a.149.149 0 0 1-.11-.043.131.131 0 0 1-.048-.104l.007-.041.282-1.106c.017-.076.065-.114.144-.114.043 0 .08.014.108.043.033.026.05.06.05.106z" transform="matrix(.9582 0 0 .9582 140.374 127.22)"/></g><g style="font-style:normal;font-variant:normal;font-weight:400;font-stretch:normal;font-size:4.41802073px;line-height:3.68168378px;font-family:'GOST type B';-inkscape-font-specification:'GOST type B';text-align:start;letter-spacing:0;word-spacing:0;text-anchor:start;fill:#000;fill-opacity:1;stroke:none;stroke-width:1.10450518"><path d="m-96.344-95.29-.217.652q-.018.048-.056.078-.03.02-.082.026-.06 0-.106-.043-.05-.039-.05-.104l.011-.054.908-2.718q.046-.13.143-.13.097 0 .142.13l.904 2.718.01.054q0 .059-.049.106-.047.041-.106.041-.03 0-.069-.015-.036-.015-.069-.089l-.218-.651zm.995-.308-.444-1.33-.447 1.33z" style="stroke-width:1.10450518" transform="matrix(.9582 0 -.21956 .9582 152.37 98.291)" aria-label="A"/></g><g style="font-style:normal;font-variant:normal;font-weight:400;font-stretch:normal;font-size:3.68168402px;line-height:3.68168378px;font-family:'GOST type B';-inkscape-font-specification:'GOST type B';text-align:start;letter-spacing:0;word-spacing:0;text-anchor:start;fill:#000;fill-opacity:1;stroke:none;stroke-width:1.10450518"><path d="M-71.887-93.348q0 .06-.035.095-.035.03-.09.03-.05 0-.088-.03-.038-.032-.038-.095v-1.963l-.29.29q-.037.037-.086.037-.045 0-.088-.038-.04-.04-.04-.09 0-.043.038-.086l.504-.503q.025-.025.052-.04.027-.016.059-.016.03 0 .072.038.03.04.03.106z" style="font-size:3.68168402px;stroke-width:1.10450518" transform="matrix(.9582 0 0 .9582 152.37 98.291)" aria-label="1"/></g><g style="font-style:normal;font-variant:normal;font-weight:400;font-stretch:normal;font-size:4.41802073px;line-height:3.68168378px;font-family:'GOST type B';-inkscape-font-specification:'GOST type B';text-align:start;letter-spacing:0;word-spacing:0;text-anchor:start;fill:#000;fill-opacity:1;stroke:none;stroke-width:1.10450518" aria-label="'"><path style="stroke-width:1.10450518" d="m-79.28-97.452-.283 1.106c-.017.077-.065.115-.144.115a.149.149 0 0 1-.11-.043.131.131 0 0 1-.048-.104l.007-.041.282-1.106c.017-.076.065-.114.144-.114.043 0 .08.014.108.043.033.026.05.06.05.106z" transform="matrix(.9582 0 0 .9582 159.104 97.664)"/><path d="m-79.28-97.452-.283 1.106c-.017.077-.065.115-.144.115a.149.149 0 0 1-.11-.043.131.131 0 0 1-.048-.104l.007-.041.282-1.106c.017-.076.065-.114.144-.114.043 0 .08.014.108.043.033.026.05.06.05.106z" style="stroke-width:1.10450518" transform="matrix(.9582 0 0 .9582 159.104 97.664)"/></g><g style="font-style:normal;font-variant:normal;font-weight:400;font-stretch:normal;font-size:4.41802073px;line-height:3.68168378px;font-family:'GOST type B';-inkscape-font-specification:'GOST type B';text-align:start;letter-spacing:0;word-spacing:0;text-anchor:start;fill:#000;fill-opacity:1;stroke:none;stroke-width:1.10450518"><path d="M-94.64-90.493q.13.077.21.218.08.14.08.297v.604q0 .248-.178.428-.176.176-.427.176h-1.057q-.15 0-.15-.15v-2.719q0-.15.15-.15h.906q.253 0 .427.176.177.177.177.427v.302q0 .104-.032.2-.032.098-.106.19zm-1.22.211v1.21h.905q.125 0 .214-.084.088-.084.088-.218v-.604q0-.127-.086-.213-.084-.089-.216-.089zm.754-.3q.125 0 .214-.084.088-.084.088-.218v-.302q0-.127-.086-.213-.084-.089-.216-.089h-.755v.908z" style="stroke-width:1.10450518" transform="matrix(.9582 0 -.21956 .9582 134.623 103.615)" aria-label="B"/></g><g style="font-style:normal;font-variant:normal;font-weight:400;font-stretch:normal;font-size:3.68168402px;line-height:3.68168378px;font-family:'GOST type B';-inkscape-font-specification:'GOST type B';text-align:start;letter-spacing:0;word-spacing:0;text-anchor:start;fill:#000;fill-opacity:1;stroke:none;stroke-width:1.10450518"><path d="M-72.847-87.586q0 .06-.036.095-.034.031-.09.031-.05 0-.088-.03-.038-.033-.038-.096v-1.963l-.289.29q-.038.037-.086.037-.045 0-.088-.037-.04-.04-.04-.09 0-.044.038-.087l.503-.503q.025-.025.052-.04.027-.016.06-.016.03 0 .072.038.03.04.03.106z" style="font-size:3.68168402px;stroke-width:1.10450518" transform="matrix(.9582 0 0 .9582 134.623 103.615)" aria-label="1"/></g><g aria-label="'" style="font-style:normal;font-variant:normal;font-weight:400;font-stretch:normal;font-size:4.41802073px;line-height:3.68168378px;font-family:'GOST type B';-inkscape-font-specification:'GOST type B';text-align:start;letter-spacing:0;word-spacing:0;text-anchor:start;fill:#000;fill-opacity:1;stroke:none;stroke-width:1.10450518"><path d="m-79.28-97.452-.283 1.106c-.017.077-.065.115-.144.115a.149.149 0 0 1-.11-.043.131.131 0 0 1-.048-.104l.007-.041.282-1.106c.017-.076.065-.114.144-.114.043 0 .08.014.108.043.033.026.05.06.05.106z" style="stroke-width:1.10450518" transform="matrix(.9582 0 0 .9582 140.94 108.55)"/><path style="stroke-width:1.10450518" d="m-79.28-97.452-.283 1.106c-.017.077-.065.115-.144.115a.149.149 0 0 1-.11-.043.131.131 0 0 1-.048-.104l.007-.041.282-1.106c.017-.076.065-.114.144-.114.043 0 .08.014.108.043.033.026.05.06.05.106z" transform="matrix(.9582 0 0 .9582 140.94 108.55)"/></g><g style="font-style:normal;font-variant:normal;font-weight:400;font-stretch:normal;font-size:4.41802073px;line-height:3.68168378px;font-family:'GOST type B';-inkscape-font-specification:'GOST type B';text-align:start;letter-spacing:0;word-spacing:0;text-anchor:start;fill:#000;fill-opacity:1;stroke:none;stroke-width:1.10450518"><path d="M-102.08-83.182h-.755q-.245 0-.425-.175-.179-.177-.179-.429v-1.812q0-.252.175-.427.177-.177.43-.177h.754q.063 0 .106.047.045.046.045.104 0 .052-.038.101-.037.05-.113.05h-.755q-.127 0-.215.086-.043.043-.065.1-.022.053-.022.116v1.812q0 .127.087.216.045.039.097.064.065.022.118.022h.756q.062 0 .105.048.046.045.046.103 0 .052-.04.101-.036.05-.111.05z" style="stroke-width:1.10450518" transform="matrix(.9582 0 -.21956 .9582 160.474 127.928)" aria-label="C"/></g><g style="font-style:normal;font-variant:normal;font-weight:400;font-stretch:normal;font-size:4.41802073px;line-height:3.68168378px;font-family:'GOST type B';-inkscape-font-specification:'GOST type B';text-align:start;letter-spacing:0;word-spacing:0;text-anchor:start;fill:#000;fill-opacity:1;stroke:none;stroke-width:1.10450518" aria-label="'"><path style="stroke-width:1.10450518" d="m-79.28-97.452-.283 1.106c-.017.077-.065.115-.144.115a.149.149 0 0 1-.11-.043.131.131 0 0 1-.048-.104l.007-.041.282-1.106c.017-.076.065-.114.144-.114.043 0 .08.014.108.043.033.026.05.06.05.106z" transform="matrix(.9582 0 0 .9582 158.633 138.301)"/><path d="m-79.28-97.452-.283 1.106c-.017.077-.065.115-.144.115a.149.149 0 0 1-.11-.043.131.131 0 0 1-.048-.104l.007-.041.282-1.106c.017-.076.065-.114.144-.114.043 0 .08.014.108.043.033.026.05.06.05.106z" style="stroke-width:1.10450518" transform="matrix(.9582 0 0 .9582 158.633 138.301)"/></g><g style="font-style:normal;font-variant:normal;font-weight:400;font-stretch:normal;font-size:4.41802073px;line-height:3.68168378px;font-family:'GOST type B';-inkscape-font-specification:'GOST type B';text-align:start;letter-spacing:0;word-spacing:0;text-anchor:start;fill:#000;fill-opacity:1;stroke:none;stroke-width:1.10450518"><path d="M-101.394-78.198q0 .248-.177.427-.177.177-.427.177h-1.057q-.15 0-.15-.151v-2.718q0-.151.15-.151h1.057q.253 0 .427.177.177.176.177.427zm-.302 0v-1.812q0-.128-.086-.214-.084-.088-.216-.088h-.906v2.416h.906q.125 0 .214-.084.088-.085.088-.218z" style="stroke-width:1.10450518" transform="matrix(.9582 0 -.21956 .9582 179.049 111.779)" aria-label="D"/></g><g style="font-style:normal;font-variant:normal;font-weight:400;font-stretch:normal;font-size:4.41802073px;line-height:3.68168378px;font-family:'GOST type B';-inkscape-font-specification:'GOST type B';text-align:start;letter-spacing:0;word-spacing:0;text-anchor:start;fill:#000;fill-opacity:1;stroke:none;stroke-width:1.10450518" aria-label="'"><path style="stroke-width:1.10450518" d="m-79.28-97.452-.283 1.106c-.017.077-.065.115-.144.115a.149.149 0 0 1-.11-.043.131.131 0 0 1-.048-.104l.007-.041.282-1.106c.017-.076.065-.114.144-.114.043 0 .08.014.108.043.033.026.05.06.05.106z" transform="matrix(.9582 0 0 .9582 176.33 127.464)"/><path d="m-79.28-97.452-.283 1.106c-.017.077-.065.115-.144.115a.149.149 0 0 1-.11-.043.131.131 0 0 1-.048-.104l.007-.041.282-1.106c.017-.076.065-.114.144-.114.043 0 .08.014.108.043.033.026.05.06.05.106z" style="stroke-width:1.10450518" transform="matrix(.9582 0 0 .9582 176.33 127.464)"/></g><g><g style="font-style:normal;font-variant:normal;font-weight:400;font-stretch:normal;font-size:4.41802073px;line-height:3.68168378px;font-family:'GOST type B';-inkscape-font-specification:'GOST type B';text-align:start;letter-spacing:0;word-spacing:0;text-anchor:start;fill:#000;fill-opacity:1;stroke:none;stroke-width:1.10450518"><path d="M-94.502-78.984q0 .248-.177.427-.177.177-.427.177h-1.057q-.151 0-.151-.151v-2.718q0-.151.151-.151h1.057q.252 0 .427.177.177.177.177.427zm-.302 0v-1.812q0-.127-.086-.214-.084-.088-.216-.088h-.906v2.416h.906q.125 0 .214-.084.088-.084.088-.218z" style="stroke-width:1.10450518" transform="matrix(.9582 0 -.21956 .9582 172.719 94.091)" aria-label="D"/></g><g style="font-style:normal;font-variant:normal;font-weight:400;font-stretch:normal;font-size:3.68168402px;line-height:3.68168378px;font-family:'GOST type B';-inkscape-font-specification:'GOST type B';text-align:start;letter-spacing:0;word-spacing:0;text-anchor:start;fill:#000;fill-opacity:1;stroke:none;stroke-width:1.10450518"><path d="M-75.204-77.284q0 .06-.036.096-.034.03-.09.03-.05 0-.088-.03-.038-.033-.038-.096v-1.963l-.29.29q-.037.038-.086.038-.045 0-.088-.038-.04-.04-.04-.09 0-.043.038-.086l.504-.504q.025-.025.052-.04.027-.015.06-.015.03 0 .071.037.03.04.03.106z" style="font-size:3.68168402px;stroke-width:1.10450518" transform="matrix(.9582 0 0 .9582 172.719 94.091)" aria-label="1"/></g><g aria-label="'" style="font-style:normal;font-variant:normal;font-weight:400;font-stretch:normal;font-size:4.41802073px;line-height:3.68168378px;font-family:'GOST type B';-inkscape-font-specification:'GOST type B';text-align:start;letter-spacing:0;word-spacing:0;text-anchor:start;fill:#000;fill-opacity:1;stroke:none;stroke-width:1.10450518"><path d="m-79.28-97.452-.283 1.106c-.017.077-.065.115-.144.115a.149.149 0 0 1-.11-.043.131.131 0 0 1-.048-.104l.007-.041.282-1.106c.017-.076.065-.114.144-.114.043 0 .08.014.108.043.033.026.05.06.05.106z" style="stroke-width:1.10450518" transform="matrix(.9582 0 0 .9582 176.755 109.087)"/><path style="stroke-width:1.10450518" d="m-79.28-97.452-.283 1.106c-.017.077-.065.115-.144.115a.149.149 0 0 1-.11-.043.131.131 0 0 1-.048-.104l.007-.041.282-1.106c.017-.076.065-.114.144-.114.043 0 .08.014.108.043.033.026.05.06.05.106z" transform="matrix(.9582 0 0 .9582 176.755 109.087)"/></g></g><g><g style="font-style:normal;font-variant:normal;font-weight:400;font-stretch:normal;font-size:4.41802073px;line-height:3.68168378px;font-family:'GOST type B';-inkscape-font-specification:'GOST type B';text-align:start;letter-spacing:0;word-spacing:0;text-anchor:start;fill:#000;fill-opacity:1;stroke:none;stroke-width:1.10450518"><path d="M-101.532-89.707q.13.077.21.217.08.14.08.298v.604q0 .248-.177.427-.177.177-.428.177h-1.057q-.15 0-.15-.15v-2.719q0-.151.15-.151h.906q.253 0 .428.177.176.177.176.427v.302q0 .104-.032.2-.032.098-.106.19zm-1.22.21v1.211h.905q.126 0 .214-.084t.088-.218v-.604q0-.127-.086-.213-.084-.089-.216-.089zm.754-.299q.126 0 .214-.084t.088-.218v-.302q0-.127-.086-.214-.084-.088-.216-.088h-.755v.908z" style="stroke-width:1.10450518" transform="matrix(.9582 0 -.21956 .9582 90.257 128.874)" aria-label="B"/></g><g style="font-style:normal;font-variant:normal;font-weight:400;font-stretch:normal;font-size:4.41802073px;line-height:3.68168378px;font-family:'GOST type B';-inkscape-font-specification:'GOST type B';text-align:start;letter-spacing:0;word-spacing:0;text-anchor:start;fill:#000;fill-opacity:1;stroke:none;stroke-width:1.10450518" aria-label="'"><path style="stroke-width:1.10450518" d="m-79.28-97.452-.283 1.106c-.017.077-.065.115-.144.115a.149.149 0 0 1-.11-.043.131.131 0 0 1-.048-.104l.007-.041.282-1.106c.017-.076.065-.114.144-.114.043 0 .08.014.108.043.033.026.05.06.05.106z" transform="matrix(.9582 0 0 .9582 89.797 134.438)"/><path d="m-79.28-97.452-.283 1.106c-.017.077-.065.115-.144.115a.149.149 0 0 1-.11-.043.131.131 0 0 1-.048-.104l.007-.041.282-1.106c.017-.076.065-.114.144-.114.043 0 .08.014.108.043.033.026.05.06.05.106z" style="stroke-width:1.10450518" transform="matrix(.9582 0 0 .9582 89.797 134.438)"/></g></g><g><g style="font-style:normal;font-variant:normal;font-weight:400;font-stretch:normal;font-size:4.41802073px;line-height:3.68168378px;font-family:'GOST type B';-inkscape-font-specification:'GOST type B';text-align:start;letter-spacing:0;word-spacing:0;text-anchor:start;fill:#000;fill-opacity:1;stroke:none;stroke-width:1.10450518"><path d="M-94.64-90.493q.13.077.21.218.08.14.08.297v.604q0 .248-.178.428-.176.176-.427.176h-1.057q-.15 0-.15-.15v-2.719q0-.15.15-.15h.906q.253 0 .427.176.177.177.177.427v.302q0 .104-.032.2-.032.098-.106.19zm-1.22.211v1.21h.905q.125 0 .214-.084.088-.084.088-.218v-.604q0-.127-.086-.213-.084-.089-.216-.089zm.754-.3q.125 0 .214-.084.088-.084.088-.218v-.302q0-.127-.086-.213-.084-.089-.216-.089h-.755v.908z" style="stroke-width:1.10450518" transform="matrix(.9582 0 -.21956 .9582 89.725 118.877)" aria-label="B"/></g><g style="font-style:normal;font-variant:normal;font-weight:400;font-stretch:normal;font-size:3.68168402px;line-height:3.68168378px;font-family:'GOST type B';-inkscape-font-specification:'GOST type B';text-align:start;letter-spacing:0;word-spacing:0;text-anchor:start;fill:#000;fill-opacity:1;stroke:none;stroke-width:1.10450518"><path d="M-72.847-87.586q0 .06-.036.095-.034.031-.09.031-.05 0-.088-.03-.038-.033-.038-.096v-1.963l-.289.29q-.038.037-.086.037-.045 0-.088-.037-.04-.04-.04-.09 0-.044.038-.087l.503-.503q.025-.025.052-.04.027-.016.06-.016.03 0 .072.038.03.04.03.106z" style="font-size:3.68168402px;stroke-width:1.10450518" transform="matrix(.9582 0 0 .9582 89.725 118.877)" aria-label="1"/></g><g style="font-style:normal;font-variant:normal;font-weight:400;font-stretch:normal;font-size:4.41802073px;line-height:3.68168378px;font-family:'GOST type B';-inkscape-font-specification:'GOST type B';text-align:start;letter-spacing:0;word-spacing:0;text-anchor:start;fill:#000;fill-opacity:1;stroke:none;stroke-width:1.10450518" aria-label="'"><path style="stroke-width:1.10450518" d="m-79.28-97.452-.283 1.106c-.017.077-.065.115-.144.115a.149.149 0 0 1-.11-.043.131.131 0 0 1-.048-.104l.007-.041.282-1.106c.017-.076.065-.114.144-.114.043 0 .08.014.108.043.033.026.05.06.05.106z" transform="matrix(.9582 0 0 .9582 96.04 123.813)"/><path d="m-79.28-97.452-.283 1.106c-.017.077-.065.115-.144.115a.149.149 0 0 1-.11-.043.131.131 0 0 1-.048-.104l.007-.041.282-1.106c.017-.076.065-.114.144-.114.043 0 .08.014.108.043.033.026.05.06.05.106z" style="stroke-width:1.10450518" transform="matrix(.9582 0 0 .9582 96.04 123.813)"/></g></g><g><g style="font-style:normal;font-variant:normal;font-weight:400;font-stretch:normal;font-size:4.41802073px;line-height:3.68168378px;font-family:'GOST type B';-inkscape-font-specification:'GOST type B';text-align:start;letter-spacing:0;word-spacing:0;text-anchor:start;fill:#000;fill-opacity:1;stroke:none;stroke-width:1.10450518"><path d="M-102.08-83.182h-.755q-.245 0-.425-.175-.179-.177-.179-.429v-1.812q0-.252.175-.427.177-.177.43-.177h.754q.063 0 .106.047.045.046.045.104 0 .052-.038.101-.037.05-.113.05h-.755q-.127 0-.215.086-.043.043-.065.1-.022.053-.022.116v1.812q0 .127.087.216.045.039.097.064.065.022.118.022h.756q.062 0 .105.048.046.045.046.103 0 .052-.04.101-.036.05-.111.05z" style="stroke-width:1.10450518" transform="matrix(.9582 0 -.21956 .9582 106.229 130.826)" aria-label="C"/></g><g aria-label="'" style="font-style:normal;font-variant:normal;font-weight:400;font-stretch:normal;font-size:4.41802073px;line-height:3.68168378px;font-family:'GOST type B';-inkscape-font-specification:'GOST type B';text-align:start;letter-spacing:0;word-spacing:0;text-anchor:start;fill:#000;fill-opacity:1;stroke:none;stroke-width:1.10450518"><path d="m-79.28-97.452-.283 1.106c-.017.077-.065.115-.144.115a.149.149 0 0 1-.11-.043.131.131 0 0 1-.048-.104l.007-.041.282-1.106c.017-.076.065-.114.144-.114.043 0 .08.014.108.043.033.026.05.06.05.106z" style="stroke-width:1.10450518" transform="matrix(.9582 0 0 .9582 104.388 141.2)"/><path style="stroke-width:1.10450518" d="m-79.28-97.452-.283 1.106c-.017.077-.065.115-.144.115a.149.149 0 0 1-.11-.043.131.131 0 0 1-.048-.104l.007-.041.282-1.106c.017-.076.065-.114.144-.114.043 0 .08.014.108.043.033.026.05.06.05.106z" transform="matrix(.9582 0 0 .9582 104.388 141.2)"/></g></g><g><g style="font-style:normal;font-variant:normal;font-weight:400;font-stretch:normal;font-size:4.41802073px;line-height:3.68168378px;font-family:'GOST type B';-inkscape-font-specification:'GOST type B';text-align:start;letter-spacing:0;word-spacing:0;text-anchor:start;fill:#000;fill-opacity:1;stroke:none;stroke-width:1.10450518"><path d="M-101.394-78.198q0 .248-.177.427-.177.177-.427.177h-1.057q-.15 0-.15-.151v-2.718q0-.151.15-.151h1.057q.253 0 .427.177.177.176.177.427zm-.302 0v-1.812q0-.128-.086-.214-.084-.088-.216-.088h-.906v2.416h.906q.125 0 .214-.084.088-.085.088-.218z" style="stroke-width:1.10450518" transform="matrix(.9582 0 -.21956 .9582 122.792 119.173)" aria-label="D"/></g><g aria-label="'" style="font-style:normal;font-variant:normal;font-weight:400;font-stretch:normal;font-size:4.41802073px;line-height:3.68168378px;font-family:'GOST type B';-inkscape-font-specification:'GOST type B';text-align:start;letter-spacing:0;word-spacing:0;text-anchor:start;fill:#000;fill-opacity:1;stroke:none;stroke-width:1.10450518"><path d="m-79.28-97.452-.283 1.106c-.017.077-.065.115-.144.115a.149.149 0 0 1-.11-.043.131.131 0 0 1-.048-.104l.007-.041.282-1.106c.017-.076.065-.114.144-.114.043 0 .08.014.108.043.033.026.05.06.05.106z" style="stroke-width:1.10450518" transform="matrix(.9582 0 0 .9582 120.073 134.859)"/><path style="stroke-width:1.10450518" d="m-79.28-97.452-.283 1.106c-.017.077-.065.115-.144.115a.149.149 0 0 1-.11-.043.131.131 0 0 1-.048-.104l.007-.041.282-1.106c.017-.076.065-.114.144-.114.043 0 .08.014.108.043.033.026.05.06.05.106z" transform="matrix(.9582 0 0 .9582 120.073 134.859)"/></g></g><g><g style="font-style:normal;font-variant:normal;font-weight:400;font-stretch:normal;font-size:4.41802073px;line-height:3.68168378px;font-family:'GOST type B';-inkscape-font-specification:'GOST type B';text-align:start;letter-spacing:0;word-spacing:0;text-anchor:start;fill:#000;fill-opacity:1;stroke:none;stroke-width:1.10450518"><path d="M-94.502-78.984q0 .248-.177.427-.177.177-.427.177h-1.057q-.151 0-.151-.151v-2.718q0-.151.151-.151h1.057q.252 0 .427.177.177.177.177.427zm-.302 0v-1.812q0-.127-.086-.214-.084-.088-.216-.088h-.906v2.416h.906q.125 0 .214-.084.088-.084.088-.218z" style="stroke-width:1.10450518" transform="matrix(.9582 0 -.21956 .9582 118.06 104.62)" aria-label="D"/></g><g style="font-style:normal;font-variant:normal;font-weight:400;font-stretch:normal;font-size:3.68168402px;line-height:3.68168378px;font-family:'GOST type B';-inkscape-font-specification:'GOST type B';text-align:start;letter-spacing:0;word-spacing:0;text-anchor:start;fill:#000;fill-opacity:1;stroke:none;stroke-width:1.10450518"><path d="M-75.204-77.284q0 .06-.036.096-.034.03-.09.03-.05 0-.088-.03-.038-.033-.038-.096v-1.963l-.29.29q-.037.038-.086.038-.045 0-.088-.038-.04-.04-.04-.09 0-.043.038-.086l.504-.504q.025-.025.052-.04.027-.015.06-.015.03 0 .071.037.03.04.03.106z" style="font-size:3.68168402px;stroke-width:1.10450518" transform="matrix(.9582 0 0 .9582 118.06 104.62)" aria-label="1"/></g><g style="font-style:normal;font-variant:normal;font-weight:400;font-stretch:normal;font-size:4.41802073px;line-height:3.68168378px;font-family:'GOST type B';-inkscape-font-specification:'GOST type B';text-align:start;letter-spacing:0;word-spacing:0;text-anchor:start;fill:#000;fill-opacity:1;stroke:none;stroke-width:1.10450518" aria-label="'"><path style="stroke-width:1.10450518" d="m-79.28-97.452-.283 1.106c-.017.077-.065.115-.144.115a.149.149 0 0 1-.11-.043.131.131 0 0 1-.048-.104l.007-.041.282-1.106c.017-.076.065-.114.144-.114.043 0 .08.014.108.043.033.026.05.06.05.106z" transform="matrix(.9582 0 0 .9582 122.096 119.616)"/><path d="m-79.28-97.452-.283 1.106c-.017.077-.065.115-.144.115a.149.149 0 0 1-.11-.043.131.131 0 0 1-.048-.104l.007-.041.282-1.106c.017-.076.065-.114.144-.114.043 0 .08.014.108.043.033.026.05.06.05.106z" style="stroke-width:1.10450518" transform="matrix(.9582 0 0 .9582 122.096 119.616)"/></g></g><g aria-label="a" style="font-style:normal;font-variant:normal;font-weight:400;font-stretch:normal;font-size:4.41802073px;line-height:3.68168378px;font-family:'GOST type B';-inkscape-font-specification:'GOST type B';text-align:start;letter-spacing:0;word-spacing:0;text-anchor:start;fill:#000;fill-opacity:1;stroke:none;stroke-width:1.10450518"><path d="M-15.249-87.227v-1.208h-.604q-.127 0-.215.087-.044.043-.065.099-.022.054-.022.116v.906q0 .128.087.216.045.039.097.065.064.021.118.021h.302q.125 0 .214-.084.088-.084.088-.218zm.15.406q-.074.084-.201.142-.126.057-.25.057h-.303q-.244 0-.425-.175-.179-.175-.179-.43v-.906q0-.25.177-.427t.427-.177h.755q.151 0 .151.151v1.357q0 .09.059.186.051.084.15.131.095.04.095.136 0 .067-.043.11-.039.046-.108.046-.032 0-.062-.015-.149-.059-.244-.186z" style="stroke-width:1.10450518" transform="matrix(.9582 0 -.21956 .9582 68.192 125.68)"/></g><g><g style="font-style:normal;font-variant:normal;font-weight:400;font-stretch:normal;font-size:4.41802073px;line-height:3.68168378px;font-family:'GOST type B';-inkscape-font-specification:'GOST type B';text-align:start;letter-spacing:0;word-spacing:0;text-anchor:start;fill:#000;fill-opacity:1;stroke:none;stroke-width:1.10450518"><path d="m-44.37-118.754.548.822.022.045.004.041q0 .059-.047.106l-.024.02-.032.015-.057.009q-.062 0-.12-.067l-.477-.717-.477.717q-.045.069-.125.069-.047 0-.106-.046-.05-.045-.05-.108 0-.038.027-.084l.548-.822-.548-.821-.022-.046-.004-.04q0-.059.045-.104.045-.046.114-.046.063 0 .121.067l.477.717.477-.717q.045-.069.125-.069.045 0 .108.046.047.047.047.107 0 .04-.026.085z" style="stroke-width:1.10450518" transform="matrix(.9582 0 -.21956 .9582 95.283 146.75)" aria-label="x"/></g><g style="font-style:normal;font-variant:normal;font-weight:400;font-stretch:normal;font-size:4.41802073px;line-height:3.68168378px;font-family:'GOST type B';-inkscape-font-specification:'GOST type B';text-align:start;letter-spacing:0;word-spacing:0;text-anchor:start;fill:#000;fill-opacity:1;stroke:none;stroke-width:1.10450518"><path d="m-11.956-119.52-.975 1.556h.936q.063 0 .106.048.045.045.045.103 0 .052-.038.102-.037.05-.113.05h-1.208q-.164 0-.164-.122 0-.047.037-.112l1.115-1.777q.057-.119.057-.227 0-.194-.151-.336-.072-.067-.167-.106-.095-.039-.205-.039-.114 0-.22.06-.105.067-.174.173-.018.028-.059.054l-.066.015q-.059 0-.108-.04-.048-.044-.048-.107 0-.03.026-.086.104-.162.28-.265.087-.05.175-.078.089-.028.173-.028.354 0 .597.235.246.233.246.557 0 .185-.097.37z" style="stroke-width:1.10450518" transform="matrix(.9582 0 0 .9582 95.283 146.75)" aria-label="2"/></g><path d="m53.04 103.757-1.527-2.227.281 4.098-2.447 1.01" style="fill:none;stroke:#000;stroke-width:.27656114;stroke-linecap:round;stroke-linejoin:bevel;stroke-miterlimit:4;stroke-dasharray:none;stroke-opacity:1" transform="matrix(-.87747 -.3779 .30512 -.91495 95.283 146.75)"/></g><g aria-label="a" style="font-style:normal;font-variant:normal;font-weight:400;font-stretch:normal;font-size:4.41802073px;line-height:3.68168378px;font-family:'GOST type B';-inkscape-font-specification:'GOST type B';text-align:start;letter-spacing:0;word-spacing:0;text-anchor:start;fill:#000;fill-opacity:1;stroke:none;stroke-width:1.10450518"><path d="M-68.731-81.849v-1.208h-.604q-.127 0-.216.087-.043.043-.064.099-.022.054-.022.116v.906q0 .128.086.216.046.039.097.065.065.021.119.021h.302q.125 0 .214-.084.088-.084.088-.218zm.149.406q-.073.084-.2.142-.126.056-.251.056h-.302q-.244 0-.425-.174-.179-.175-.179-.43v-.906q0-.25.177-.427t.427-.177h.755q.151 0 .151.151v1.357q0 .09.058.186.052.084.151.131.095.04.095.136 0 .067-.043.11-.039.046-.108.046-.032 0-.062-.016-.15-.058-.244-.185z" style="stroke-width:1.10450518" transform="matrix(.9582 0 -.21956 .9582 68.192 125.68)"/></g><g aria-label="x" style="font-style:normal;font-variant:normal;font-weight:400;font-stretch:normal;font-size:4.41802073px;line-height:3.68168378px;font-family:'GOST type B';-inkscape-font-specification:'GOST type B';text-align:start;letter-spacing:0;word-spacing:0;text-anchor:start;fill:#000;fill-opacity:1;stroke:none;stroke-width:1.10450518"><path d="m-60.01-122.64.547.822.022.045.004.04q0 .059-.048.107l-.023.019-.033.015-.056.01q-.062-.001-.12-.068l-.477-.716-.477.716q-.045.07-.125.07-.048 0-.106-.046-.05-.045-.05-.108 0-.039.026-.084l.548-.822-.548-.822-.021-.045-.005-.041q0-.058.046-.104.045-.045.114-.045.063 0 .12.067l.478.716.476-.716q.046-.07.126-.07.045 0 .107.046.048.048.048.108 0 .039-.026.084z" style="stroke-width:1.10450518" transform="matrix(.9582 0 -.21956 .9582 68.192 125.68)"/></g></g></svg>