<?xml version="1.0" encoding="UTF-8" standalone="no"?>
<!-- Created with Inkscape (http://www.inkscape.org/) -->

<svg
   xmlns:dc="http://purl.org/dc/elements/1.1/"
   xmlns:cc="http://creativecommons.org/ns#"
   xmlns:rdf="http://www.w3.org/1999/02/22-rdf-syntax-ns#"
   xmlns:svg="http://www.w3.org/2000/svg"
   xmlns="http://www.w3.org/2000/svg"
   xmlns:sodipodi="http://sodipodi.sourceforge.net/DTD/sodipodi-0.dtd"
   xmlns:inkscape="http://www.inkscape.org/namespaces/inkscape"
   width="177.16534"
   height="177.16534"
   id="svg2"
   version="1.1"
   inkscape:version="0.92.4 (5da689c313, 2019-01-14)"
   sodipodi:docname="d1805.svg">
  <sodipodi:namedview
     id="base"
     pagecolor="#ffffff"
     bordercolor="#666666"
     borderopacity="1.0"
     inkscape:pageopacity="0.0"
     inkscape:pageshadow="2"
     inkscape:zoom="8.3017484"
     inkscape:cx="88.838776"
     inkscape:cy="66.933644"
     inkscape:document-units="px"
     inkscape:current-layer="layer1"
     showgrid="false"
     units="mm"
     inkscape:window-width="1920"
     inkscape:window-height="1009"
     inkscape:window-x="0"
     inkscape:window-y="0"
     inkscape:window-maximized="1"
     showguides="true"
     inkscape:guide-bbox="true" />
  <defs
     id="defs4" />
  <metadata
     id="metadata7">
    <rdf:RDF>
      <cc:Work
         rdf:about="">
        <dc:format>image/svg+xml</dc:format>
        <dc:type
           rdf:resource="http://purl.org/dc/dcmitype/StillImage" />
        <dc:title />
      </cc:Work>
    </rdf:RDF>
  </metadata>
  <g
     transform="translate(0,-875.19684)"
     id="layer1"
     inkscape:groupmode="layer"
     inkscape:label="Layer 1">
    <path
       style="fill:none;stroke:#000000;stroke-width:0.3125;stroke-linecap:butt;stroke-linejoin:miter;stroke-opacity:1"
       d="M 29.981827,156.04178 174.78043,107.32131"
       id="path3863"
       inkscape:connector-curvature="0"
       transform="translate(0,875.19684)" />
    <path
       style="fill:#0000ff;stroke:none;fill-opacity:0.2106825"
       d="M 2.895972,30.833584 30.237354,155.01968 88.071618,68.566395 z"
       id="path3861"
       inkscape:connector-curvature="0"
       transform="translate(0,875.19684)"
       sodipodi:nodetypes="cccc" />
    <path
       style="fill:none;stroke:#0000ff;stroke-width:0.31200001;stroke-linecap:butt;stroke-linejoin:miter;stroke-miterlimit:4;stroke-opacity:1;stroke-dasharray:1.248, 1.248;stroke-dashoffset:0"
       d="M 2.5423858,905.86007 88.058735,943.67806"
       id="path3853"
       inkscape:connector-curvature="0" />
    <path
       inkscape:connector-curvature="0"
       id="path3855"
       d="m 88.307453,943.92434 87.390217,38.75492"
       style="fill:none;stroke:#000000;stroke-width:0.3125;stroke-linecap:butt;stroke-linejoin:miter;stroke-opacity:1"
       sodipodi:nodetypes="cc" />
    <path
       style="fill:none;stroke:#000000;stroke-width:0.625;stroke-linecap:butt;stroke-linejoin:miter;stroke-opacity:1"
       d="M 2.8830883,982.29791 30.479998,1031.6998 88.740139,981.95721"
       id="path3063"
       inkscape:connector-curvature="0" />
    <path
       inkscape:connector-curvature="0"
       id="path3065"
       d="M 2.8830883,905.29913 30.479998,954.701 88.559454,905.07889"
       style="fill:none;stroke:#000000;stroke-width:0.625;stroke-linecap:butt;stroke-linejoin:miter;stroke-opacity:1"
       sodipodi:nodetypes="ccc" />
    <path
       style="fill:none;stroke:#000000;stroke-width:0.625;stroke-linecap:butt;stroke-linejoin:miter;stroke-opacity:1"
       d="M 2.8830882,905.54003 88.540559,905.09954"
       id="path3067"
       inkscape:connector-curvature="0"
       sodipodi:nodetypes="cc" />
    <path
       inkscape:connector-curvature="0"
       id="path3069"
       d="m 2.8830883,982.51815 85.1756457,-0.6814"
       style="fill:none;stroke:#000000;stroke-width:0.625;stroke-linecap:butt;stroke-linejoin:miter;stroke-miterlimit:4;stroke-opacity:1;stroke-dasharray:2.5, 2.5;stroke-dashoffset:0" />
    <path
       style="fill:none;stroke:#000000;stroke-width:0.625;stroke-linecap:butt;stroke-linejoin:miter;stroke-opacity:1"
       d="m 2.8830884,905.54003 0,77.33949"
       id="path3839"
       inkscape:connector-curvature="0" />
    <path
       inkscape:connector-curvature="0"
       id="path3841"
       d="m 88.399437,905.17867 0,77.33948"
       style="fill:none;stroke:#000000;stroke-width:0.625;stroke-linecap:butt;stroke-linejoin:miter;stroke-opacity:1" />
    <path
       style="fill:none;stroke:#000000;stroke-width:0.625;stroke-linecap:butt;stroke-linejoin:miter;stroke-opacity:1"
       d="m 30.380208,954.52209 0,77.33951"
       id="path3843"
       inkscape:connector-curvature="0" />
    <path
       transform="translate(69.530309,849.32056)"
       style="fill:#0000ff;fill-opacity:1;stroke:none"
       d="m -64.733495,56.215927 a 2.0442154,2.0442154 0 0 1 -2.044215,2.044216 2.0442154,2.0442154 0 0 1 -2.044215,-2.044216 2.0442154,2.0442154 0 0 1 2.044215,-2.044215 2.0442154,2.0442154 0 0 1 2.044215,2.044215 z"
       id="path3845" />
    <path
       transform="translate(97.123669,974.63711)"
       style="fill:#0000ff;fill-opacity:1;stroke:none"
       d="m -64.733495,56.215927 a 2.0442154,2.0442154 0 0 1 -2.044215,2.044216 2.0442154,2.0442154 0 0 1 -2.044215,-2.044216 2.0442154,2.0442154 0 0 1 2.044215,-2.044215 2.0442154,2.0442154 0 0 1 2.044215,2.044215 z"
       id="path3847" />
    <path
       transform="translate(155.17715,887.63248)"
       style="fill:#0000ff;fill-opacity:1;stroke:none"
       d="m -64.733495,56.215927 a 2.0442154,2.0442154 0 0 1 -2.044215,2.044216 2.0442154,2.0442154 0 0 1 -2.044215,-2.044216 2.0442154,2.0442154 0 0 1 2.044215,-2.044215 2.0442154,2.0442154 0 0 1 2.044215,2.044215 z"
       id="path3849" />
    <path
       style="fill:none;stroke:#000000;stroke-width:0.3125;stroke-linecap:butt;stroke-linejoin:miter;stroke-opacity:1"
       d="m 88.399437,981.83675 c 79.724403,0 87.901273,0.6814 87.901273,0.6814"
       id="path3851"
       inkscape:connector-curvature="0"
       sodipodi:nodetypes="cc" />
    <path
       style="fill:none;stroke:#0000ff;stroke-width:0.3125;stroke-linecap:butt;stroke-linejoin:miter;stroke-opacity:1"
       d="M 2.5423858,905.55893 30.139295,1030.5968 88.399437,943.67806"
       id="path3857"
       inkscape:connector-curvature="0"
       sodipodi:nodetypes="ccc" />
    <path
       transform="matrix(0.58752103,0,0,0.58752103,214.09739,949.40567)"
       style="fill:#000000;fill-opacity:1;stroke:none"
       d="m -64.733495,56.215927 a 2.0442154,2.0442154 0 0 1 -2.044215,2.044216 2.0442154,2.0442154 0 0 1 -2.044215,-2.044216 2.0442154,2.0442154 0 0 1 2.044215,-2.044215 2.0442154,2.0442154 0 0 1 2.044215,2.044215 z"
       id="path3859" />
    <g
       aria-label="A"
       style="font-style:italic;font-variant:normal;font-weight:normal;font-stretch:normal;line-height:0%;font-family:'GOST type B';-inkscape-font-specification:'Sans Italic';text-align:center;letter-spacing:0px;word-spacing:0px;text-anchor:middle;fill:#000000;fill-opacity:1;stroke:none"
       id="text3865">
      <path
         d="m 5.0218062,898.18079 -1.0219726,1.91699 q -0.08252,0.13965 -0.2094727,0.22851 -0.1015625,0.0571 -0.2602539,0.0762 -0.1777344,0 -0.2856445,-0.12696 -0.1206055,-0.11426 -0.08252,-0.30468 l 0.063477,-0.1587 4.2719727,-7.99804 q 0.2094726,-0.38086 0.4951172,-0.38086 0.2856445,0 0.3427734,0.38086 l 1.0600586,7.99804 v 0.1587 q -0.038086,0.17138 -0.2094727,0.31103 -0.165039,0.12061 -0.3364257,0.12061 -0.088867,0 -0.1904297,-0.0444 -0.1015625,-0.0444 -0.1523438,-0.26025 l -0.2602539,-1.91699 z m 3.1103516,-0.90772 -0.5268555,-3.9165 -2.0947265,3.9165 z"
         style="font-size:13px;line-height:1"
         id="path63" />
    </g>
    <g
       aria-label="B"
       style="font-style:italic;font-variant:normal;font-weight:normal;font-stretch:normal;line-height:0%;font-family:'GOST type B';-inkscape-font-specification:'Sans Italic';text-align:center;letter-spacing:0px;word-spacing:0px;text-anchor:middle;fill:#000000;fill-opacity:1;stroke:none"
       id="text3869">
      <path
         d="m 94.480049,897.72198 q 0.336426,0.22852 0.48877,0.64112 0.152343,0.4126 0.05713,0.87597 l -0.355469,1.77735 q -0.145996,0.72998 -0.774414,1.25683 -0.622071,0.52051 -1.358399,0.52051 h -3.110351 q -0.444336,0 -0.355469,-0.44433 l 1.599609,-7.99805 q 0.08887,-0.44434 0.533204,-0.44434 h 2.666015 q 0.742676,0 1.155274,0.52051 0.412597,0.52051 0.266601,1.25684 l -0.177734,0.88867 q -0.06348,0.30469 -0.215821,0.59033 -0.152343,0.28565 -0.418945,0.55859 z m -3.719726,0.62208 -0.710938,3.56103 h 2.666016 q 0.368164,0 0.679199,-0.24756 0.311035,-0.24756 0.387207,-0.64111 l 0.355469,-1.77735 q 0.07617,-0.37451 -0.126953,-0.62841 -0.196778,-0.26026 -0.583985,-0.26026 z m 2.399414,-0.88233 q 0.368164,0 0.679199,-0.24756 0.311035,-0.24756 0.387207,-0.64111 l 0.177734,-0.88867 q 0.07617,-0.37451 -0.126953,-0.62842 -0.196777,-0.26025 -0.583984,-0.26025 h -2.22168 l -0.533203,2.67236 z"
         style="font-size:13px;line-height:1"
         id="path66" />
    </g>
    <g
       aria-label="C1"
       style="font-style:italic;font-variant:normal;font-weight:normal;font-stretch:normal;line-height:0%;font-family:'GOST type B';-inkscape-font-specification:'Sans Italic';text-align:center;letter-spacing:0px;word-spacing:0px;text-anchor:middle;fill:#000000;fill-opacity:1;stroke:none"
       id="text3873">
      <path
         d="m 28.952248,1044.526 h -2.221679 q -0.723633,0 -1.148926,-0.5142 -0.418946,-0.5205 -0.272949,-1.2631 l 1.066406,-5.3321 q 0.145996,-0.7426 0.768066,-1.2568 0.622071,-0.5205 1.364746,-0.5205 h 2.22168 q 0.184082,0 0.285645,0.1396 0.101562,0.1333 0.06982,0.3047 -0.03174,0.1524 -0.171387,0.2984 -0.139648,0.146 -0.361816,0.146 h -2.22168 q -0.374512,0 -0.685547,0.2539 -0.152344,0.1269 -0.247559,0.292 -0.09521,0.1586 -0.1333,0.3427 l -1.066407,5.3321 q -0.07617,0.3745 0.126954,0.6347 0.10791,0.1143 0.247558,0.1905 0.177735,0.063 0.336426,0.063 h 2.22168 q 0.184082,0 0.285644,0.1397 0.101563,0.1333 0.06982,0.3047 -0.03174,0.1523 -0.171386,0.2983 -0.139649,0.146 -0.361817,0.146 z"
         style="font-size:13px;line-height:1"
         id="path69" />
      <path
         d="m 32.6536,1046.8372 q -0.02888,0.1361 -0.127907,0.2187 -0.09077,0.07 -0.21868,0.07 -0.115529,0 -0.189798,-0.07 -0.07014,-0.074 -0.04126,-0.2187 l 0.899476,-4.5057 -0.796325,0.6643 q -0.103151,0.087 -0.214554,0.087 -0.103151,0 -0.185671,-0.087 -0.07014,-0.091 -0.04951,-0.2063 0.02063,-0.099 0.127907,-0.198 l 1.386348,-1.1553 q 0.07014,-0.058 0.136159,-0.091 0.07014,-0.037 0.144411,-0.037 0.07014,0 0.148538,0.087 0.04951,0.091 0.02063,0.2435 z"
         style="font-size:65.00091553%;baseline-shift:sub"
         id="path71" />
    </g>
    <g
       aria-label="C"
       style="font-style:italic;font-variant:normal;font-weight:normal;font-stretch:normal;line-height:0%;font-family:'GOST type B';-inkscape-font-specification:'Sans Italic';text-align:center;letter-spacing:0px;word-spacing:0px;text-anchor:middle;fill:#000000;fill-opacity:1;stroke:none"
       id="text3877">
      <path
         d="m 37.891819,963.43878 h -2.22168 q -0.723632,0 -1.148925,-0.51416 -0.418946,-0.52051 -0.27295,-1.26318 l 1.066407,-5.33203 q 0.145996,-0.74268 0.768066,-1.25684 0.62207,-0.52051 1.364746,-0.52051 h 2.22168 q 0.184082,0 0.285644,0.13965 0.101563,0.1333 0.06982,0.30469 -0.03174,0.15234 -0.171387,0.29834 -0.139649,0.14599 -0.361817,0.14599 h -2.221679 q -0.374512,0 -0.685547,0.25391 -0.152344,0.12695 -0.247559,0.29199 -0.09522,0.15869 -0.133301,0.34278 l -1.066406,5.33203 q -0.07617,0.37451 0.126953,0.63476 0.10791,0.11426 0.247559,0.19043 0.177734,0.0635 0.336426,0.0635 h 2.221679 q 0.184082,0 0.285645,0.13965 0.101562,0.1333 0.06982,0.30469 -0.03174,0.15234 -0.171387,0.29834 -0.139648,0.14599 -0.361816,0.14599 z"
         style="font-size:13px;line-height:1"
         id="path74" />
    </g>
    <g
       aria-label="A1"
       style="font-style:italic;font-variant:normal;font-weight:normal;font-stretch:normal;line-height:0%;font-family:'GOST type B';-inkscape-font-specification:'Sans Italic';text-align:center;letter-spacing:0px;word-spacing:0px;text-anchor:middle;fill:#000000;fill-opacity:1;stroke:none"
       id="text3881">
      <path
         d="m 6.6440179,975.52032 -1.0219727,1.917 q -0.082519,0.13965 -0.2094727,0.22851 -0.1015625,0.0571 -0.2602539,0.0762 -0.1777343,0 -0.2856445,-0.12695 -0.1206055,-0.11426 -0.08252,-0.30469 l 0.063477,-0.15869 4.2719727,-7.99804 q 0.2094727,-0.38086 0.4951172,-0.38086 0.2856445,0 0.3427734,0.38086 l 1.0600586,7.99804 v 0.15869 q -0.03809,0.17139 -0.209473,0.31104 -0.165039,0.1206 -0.336425,0.1206 -0.08887,0 -0.19043,-0.0444 -0.101563,-0.0444 -0.152344,-0.26025 l -0.2602538,-1.917 z m 3.1103515,-0.90771 -0.5268554,-3.9165 -2.0947266,3.9165 z"
         style="font-size:13px;line-height:1"
         id="path77" />
      <path
         d="m 14.122225,980.05953 q -0.02888,0.13616 -0.127907,0.21868 -0.09077,0.0701 -0.21868,0.0701 -0.115529,0 -0.189797,-0.0701 -0.07014,-0.0743 -0.04126,-0.21868 l 0.899476,-4.50563 -0.796325,0.66429 q -0.103151,0.0866 -0.214554,0.0866 -0.103151,0 -0.185671,-0.0866 -0.07014,-0.0908 -0.04951,-0.2063 0.02063,-0.099 0.127907,-0.19805 l 1.386348,-1.15529 q 0.07014,-0.0578 0.136159,-0.0908 0.07014,-0.0371 0.144411,-0.0371 0.07014,0 0.148538,0.0867 0.04951,0.0908 0.02063,0.24344 z"
         style="font-size:65.00091553%;baseline-shift:sub"
         id="path79" />
    </g>
    <g
       aria-label="B1"
       style="font-style:italic;font-variant:normal;font-weight:normal;font-stretch:normal;line-height:0%;font-family:'GOST type B';-inkscape-font-specification:'Sans Italic';text-align:center;letter-spacing:0px;word-spacing:0px;text-anchor:middle;fill:#000000;fill-opacity:1;stroke:none"
       id="text3885">
      <path
         d="m 96.442965,973.01727 q 0.336426,0.22852 0.48877,0.64112 0.152343,0.41259 0.05713,0.87597 l -0.355469,1.77735 q -0.145996,0.72998 -0.774414,1.25683 -0.62207,0.52051 -1.358399,0.52051 h -3.110351 q -0.444336,0 -0.355469,-0.44434 l 1.599609,-7.99804 q 0.08887,-0.44434 0.533204,-0.44434 h 2.666015 q 0.742676,0 1.155274,0.52051 0.412597,0.52051 0.266601,1.25684 l -0.177734,0.88867 q -0.06348,0.30468 -0.21582,0.59033 -0.152344,0.28564 -0.418946,0.55859 z m -3.719726,0.62207 -0.710938,3.56104 h 2.666016 q 0.368164,0 0.679199,-0.24756 0.311035,-0.24756 0.387207,-0.64111 l 0.355469,-1.77735 q 0.07617,-0.37451 -0.126953,-0.62842 -0.196778,-0.26025 -0.583985,-0.26025 z m 2.399414,-0.88232 q 0.368164,0 0.679199,-0.24756 0.311035,-0.24756 0.387207,-0.64111 l 0.177734,-0.88867 q 0.07617,-0.37452 -0.126953,-0.62842 -0.196777,-0.26026 -0.583984,-0.26026 h -2.22168 l -0.533203,2.67237 z"
         style="font-size:13px;line-height:1"
         id="path82" />
      <path
         d="m 99.534942,980.40023 q -0.02888,0.13616 -0.127907,0.21868 -0.09077,0.0701 -0.21868,0.0701 -0.115529,0 -0.189798,-0.0701 -0.07014,-0.0743 -0.04126,-0.21868 l 0.899476,-4.50563 -0.796325,0.66429 q -0.103151,0.0866 -0.214554,0.0866 -0.103151,0 -0.185671,-0.0866 -0.07014,-0.0908 -0.04951,-0.2063 0.02063,-0.099 0.127907,-0.19805 l 1.386343,-1.15529 q 0.0701,-0.0578 0.13616,-0.0908 0.0701,-0.0371 0.14442,-0.0371 0.0701,0 0.14853,0.0866 0.0495,0.0908 0.0206,0.24343 z"
         style="font-size:65.00091553%;baseline-shift:sub"
         id="path84" />
    </g>
    <g
       aria-label="Q"
       transform="translate(0,875.19684)"
       style="font-style:italic;font-variant:normal;font-weight:normal;font-stretch:normal;line-height:0%;font-family:'GOST type B';-inkscape-font-specification:'Sans Italic';text-align:center;letter-spacing:0px;word-spacing:0px;text-anchor:middle;fill:#000000;fill-opacity:1;stroke:none"
       id="text3895">
      <path
         d="m 97.605843,60.960506 -1.060059,-0.825195 q -0.177734,-0.133301 -0.133301,-0.355469 0.02539,-0.126953 0.196778,-0.311035 0.165039,-0.145996 0.342773,-0.145996 0.09521,0 0.234863,0.08252 l 0.939453,0.72998 1.047364,-5.236816 q 0.07617,-0.374512 -0.126953,-0.628418 -0.196778,-0.260254 -0.583985,-0.260254 h -1.777344 q -0.374511,0 -0.685546,0.253906 -0.152344,0.126953 -0.247559,0.291992 -0.09521,0.158692 -0.133301,0.342774 l -1.066406,5.332031 q -0.07617,0.374512 0.126953,0.634766 0.10791,0.114257 0.247559,0.190429 0.177734,0.06348 0.336425,0.06348 h 1.777344 q 0.139649,0 0.272949,-0.03809 0.133301,-0.03809 0.291993,-0.120606 z m 1.24414,-0.266601 0.641113,0.507812 q 0.177735,0.133301 0.133301,0.355469 -0.03174,0.165039 -0.184082,0.311035 -0.165039,0.139649 -0.349121,0.139649 -0.114258,0 -0.234863,-0.08252 l -0.590332,-0.450683 q -0.603028,0.533203 -1.402832,0.533203 h -1.777344 q -0.723633,0 -1.148926,-0.51416 -0.418945,-0.520508 -0.272949,-1.263184 l 1.066406,-5.332031 q 0.145996,-0.742676 0.768067,-1.256836 0.62207,-0.520508 1.364746,-0.520508 h 1.777344 q 0.742675,0 1.155273,0.520508 0.412596,0.520508 0.266606,1.256836 l -1.066411,5.332031 -0.02539,0.120605 q -0.01904,0.08887 -0.03809,0.133301 z"
         style="font-size:13px;line-height:1"
         id="path87" />
    </g>
    <g
       aria-label="K"
       style="font-style:italic;font-variant:normal;font-weight:normal;font-stretch:normal;line-height:0%;font-family:'GOST type B';-inkscape-font-specification:'Sans Italic';text-align:center;letter-spacing:0px;word-spacing:0px;text-anchor:middle;fill:#000000;fill-opacity:1;stroke:none"
       id="text3899">
      <path
         d="m 170.26463,990.7655 4.48145,-3.71338 q 0.15869,-0.1333 0.33008,-0.1333 0.16504,0 0.27929,0.13965 0.11426,0.1333 0.0825,0.31738 -0.0254,0.11426 -0.19677,0.29834 l -3.17383,2.64063 1.76465,4.83057 0.0127,0.23486 q -0.0317,0.17139 -0.20312,0.29834 -0.1587,0.1333 -0.34912,0.1333 -0.21583,0 -0.33008,-0.23486 l -1.67578,-4.64014 -1.26319,1.04102 -0.6792,3.3833 q -0.0444,0.20947 -0.19677,0.33642 -0.13965,0.10791 -0.33643,0.10791 -0.17773,0 -0.29199,-0.10791 -0.10791,-0.11426 -0.0635,-0.33642 l 1.59961,-7.99805 q 0.0317,-0.17139 0.19678,-0.29834 0.16504,-0.1333 0.33642,-0.1333 0.17139,0 0.28565,0.10156 0.11426,0.11426 0.0698,0.33008 z"
         style="font-size:13px;line-height:1"
         id="path90" />
    </g>
    <g
       aria-label=" "
       style="font-style:italic;font-variant:normal;font-weight:normal;font-stretch:normal;line-height:0%;font-family:'GOST type B';-inkscape-font-specification:'Sans Italic';text-align:center;letter-spacing:0px;word-spacing:0px;text-anchor:middle;fill:#000000;fill-opacity:1;stroke:none"
       id="text3903" />
    <path
       style="fill:none;stroke:#ff0000;stroke-width:0.31250000000000000;stroke-linecap:butt;stroke-linejoin:miter;stroke-opacity:1"
       d="m 83.355935,111.63698 c 0,0 5.453644,0.26436 7.891455,-0.75542 2.004119,-0.83835 4.997396,-4.1833 4.997396,-4.1833"
       id="path3032"
       inkscape:connector-curvature="0"
       transform="translate(0,875.19684)"
       sodipodi:nodetypes="csc" />
    <g
       aria-label="120o"
       style="font-style:italic;font-variant:normal;font-weight:normal;font-stretch:normal;line-height:0%;font-family:'GOST type B';-inkscape-font-specification:'GOST type B Italic';text-align:center;letter-spacing:0px;word-spacing:0px;text-anchor:middle;fill:#ff0000;fill-opacity:1;stroke:none"
       id="text3034">
      <path
         d="m 87.255991,996.74878 q -0.04443,0.20947 -0.196777,0.33643 -0.139649,0.10791 -0.336426,0.10791 -0.177734,0 -0.291992,-0.10791 -0.10791,-0.11426 -0.06348,-0.33643 l 1.383789,-6.93164 -1.225097,1.02197 q -0.158692,0.1333 -0.330078,0.1333 -0.158692,0 -0.285645,-0.1333 -0.10791,-0.13965 -0.07617,-0.31738 0.03174,-0.15235 0.196777,-0.30469 l 2.132813,-1.77734 q 0.10791,-0.0889 0.209473,-0.13965 0.10791,-0.0571 0.222168,-0.0571 0.10791,0 0.228515,0.1333 0.07617,0.13965 0.03174,0.37451 z"
         style="font-style:italic;font-size:13px;line-height:1.25;-inkscape-font-specification:'GOST type B Italic';fill:#ff0000"
         id="path94" />
      <path
         d="m 94.149546,991.72778 -3.783203,4.57666 h 2.754882 q 0.184083,0 0.285645,0.13965 0.101563,0.1333 0.06982,0.30469 -0.03174,0.15234 -0.171386,0.29834 -0.139649,0.146 -0.361817,0.146 h -3.554687 q -0.482422,0 -0.412598,-0.35547 0.03174,-0.13965 0.177734,-0.33008 l 4.322754,-5.23047 q 0.234864,-0.34912 0.29834,-0.6665 0.114258,-0.57129 -0.241211,-0.99024 -0.171387,-0.19678 -0.43164,-0.31103 -0.253907,-0.11426 -0.577637,-0.11426 -0.336426,0 -0.685547,0.17773 -0.349121,0.19678 -0.615723,0.50782 -0.06348,0.0825 -0.203125,0.15869 l -0.203125,0.0444 q -0.171386,0 -0.291992,-0.12061 -0.114258,-0.12695 -0.07617,-0.31103 0.0127,-0.0889 0.126953,-0.25391 0.399903,-0.47607 0.977539,-0.78076 0.285645,-0.14599 0.558594,-0.22851 0.279297,-0.0825 0.526856,-0.0825 1.041015,0 1.625,0.69189 0.583984,0.68555 0.393554,1.6377 -0.114258,0.54589 -0.507812,1.09179 z"
         style="font-style:italic;font-size:13px;line-height:1.25;-inkscape-font-specification:'GOST type B Italic';fill:#ff0000"
         id="path96" />
      <path
         d="m 100.00208,995.23804 q -0.158687,0.79345 -0.844233,1.37744 -0.685547,0.57764 -1.504395,0.57764 h -0.533203 q -0.793457,0 -1.263184,-0.56495 -0.463379,-0.56494 -0.29834,-1.39013 l 0.990235,-4.97657 q 0.158691,-0.78076 0.844238,-1.36474 0.691895,-0.59033 1.504395,-0.59033 h 0.533203 q 0.793454,0 1.256834,0.57129 0.46973,0.56494 0.30469,1.38378 z m -0.888667,0 0.990237,-4.97657 q 0.0889,-0.43798 -0.158694,-0.74902 -0.241211,-0.31738 -0.691895,-0.31738 h -0.533203 q -0.437988,0 -0.818847,0.31103 -0.374512,0.31104 -0.463379,0.75537 l -0.990235,4.97657 q -0.08887,0.43799 0.158692,0.75537 0.247558,0.31103 0.691894,0.31103 h 0.533203 q 0.431641,0 0.806153,-0.30468 0.380859,-0.30469 0.476074,-0.76172 z"
         style="font-style:italic;font-size:13px;line-height:1.25;-inkscape-font-specification:'GOST type B Italic';fill:#ff0000"
         id="path98" />
      <path
         d="m 104.21889,990.7223 q -0.10316,0.51575 -0.54877,0.89535 -0.44561,0.37547 -0.97787,0.37547 h -0.34658 q -0.51576,0 -0.82109,-0.36722 -0.3012,-0.36722 -0.19392,-0.9036 l 0.29708,-1.50188 q 0.10315,-0.5075 0.54876,-0.8871 0.44974,-0.38372 0.97787,-0.38372 h 0.34659 q 0.51575,0 0.81695,0.37134 0.30533,0.36722 0.19805,0.89948 z m -0.57765,0 0.29707,-1.50188 q 0.0578,-0.2847 -0.10315,-0.48687 -0.15679,-0.2063 -0.44973,-0.2063 h -0.34659 q -0.2847,0 -0.53226,0.20217 -0.24344,0.20218 -0.3012,0.491 l -0.29707,1.50188 q -0.0578,0.28469 0.10315,0.49099 0.16091,0.20218 0.44973,0.20218 h 0.34659 q 0.28057,0 0.52401,-0.19805 0.24756,-0.19805 0.30945,-0.49512 z"
         style="font-style:italic;font-size:65.00091553%;-inkscape-font-specification:'GOST type B Italic';baseline-shift:super;fill:#ff0000"
         id="path100" />
    </g>
    <path
       style="fill:none;stroke:#ff0000;stroke-width:0.3125;stroke-linecap:butt;stroke-linejoin:miter;stroke-opacity:1"
       d="m 46.49623,143.07614 c 0,0 2.736602,0.92931 3.496558,2.04546 0.732237,1.07543 0.598964,3.85691 0.598964,3.85691"
       id="path3040"
       inkscape:connector-curvature="0"
       transform="translate(0,875.19684)"
       sodipodi:nodetypes="csc" />
    <g
       aria-label="30o"
       style="font-style:italic;font-variant:normal;font-weight:normal;font-stretch:normal;line-height:0%;font-family:'GOST type B';-inkscape-font-specification:'GOST type B Italic';text-align:center;letter-spacing:0px;word-spacing:0px;text-anchor:middle;fill:#ff0000;fill-opacity:1;stroke:none"
       id="text3042">
      <path
         d="m 55.567236,1026.3083 h -1.777344 q -0.203125,0 -0.304687,-0.1269 -0.08887,-0.1333 -0.05078,-0.3174 0.03174,-0.1587 0.177734,-0.2983 0.145996,-0.146 0.355469,-0.146 h 1.777343 q 1.041016,0 1.523438,0.6792 0.431641,0.6347 0.253906,1.5298 -0.10791,0.5395 -0.412597,0.9902 -0.29834,0.4507 -0.8125,0.8125 0.311035,0.292 0.463378,0.7617 0.158692,0.4634 0.05078,0.9966 l -0.177735,0.8887 q -0.184082,0.9077 -0.971191,1.5678 -0.780762,0.6538 -1.694824,0.6538 h -1.777344 q -0.203125,0 -0.304688,-0.1206 -0.08887,-0.146 -0.05078,-0.3237 0.03174,-0.1523 0.171387,-0.2983 0.139648,-0.146 0.361816,-0.146 h 1.777344 q 0.552246,0 1.015625,-0.3872 0.469727,-0.3936 0.583984,-0.9458 l 0.177735,-0.8887 q 0.10791,-0.5459 -0.196778,-0.9395 -0.304687,-0.3935 -0.869628,-0.3935 h -0.888672 q -0.203125,0 -0.304688,-0.1206 -0.08887,-0.146 -0.05078,-0.3237 0.03174,-0.1524 0.171387,-0.2984 0.139648,-0.146 0.361816,-0.146 h 0.888672 q 0.590332,0 1.053711,-0.4253 0.399902,-0.3808 0.51416,-0.9331 0.10791,-0.5395 -0.133301,-0.895 -0.272949,-0.4063 -0.901367,-0.4063 z"
         style="font-style:italic;font-size:13px;line-height:1.25;-inkscape-font-specification:'GOST type B Italic';fill:#ff0000"
         id="path103" />
      <path
         d="m 62.847998,1032.3386 q -0.158692,0.7935 -0.844238,1.3775 -0.685547,0.5776 -1.504395,0.5776 h -0.533203 q -0.793457,0 -1.263184,-0.5649 -0.463379,-0.565 -0.29834,-1.3902 l 0.990235,-4.9765 q 0.158691,-0.7808 0.844238,-1.3648 0.691895,-0.5903 1.504395,-0.5903 h 0.533203 q 0.793457,0 1.256836,0.5713 0.469726,0.5649 0.304687,1.3838 z m -0.888672,0 0.990234,-4.9765 q 0.08887,-0.438 -0.158691,-0.7491 -0.241211,-0.3173 -0.691895,-0.3173 h -0.533203 q -0.437988,0 -0.818847,0.311 -0.374512,0.311 -0.463379,0.7554 l -0.990235,4.9765 q -0.08887,0.438 0.158692,0.7554 0.247558,0.311 0.691894,0.311 h 0.533203 q 0.431641,0 0.806153,-0.3047 0.380859,-0.3046 0.476074,-0.7617 z"
         style="font-style:italic;font-size:13px;line-height:1.25;-inkscape-font-specification:'GOST type B Italic';fill:#ff0000"
         id="path105" />
      <path
         d="m 67.064798,1027.8229 q -0.103151,0.5157 -0.548762,0.8953 -0.445612,0.3755 -0.977871,0.3755 h -0.346586 q -0.515755,0 -0.821081,-0.3672 -0.301201,-0.3672 -0.193924,-0.9036 l 0.297074,-1.5019 q 0.103151,-0.5075 0.548763,-0.8871 0.449738,-0.3837 0.97787,-0.3837 h 0.346587 q 0.515755,0 0.816955,0.3713 0.305327,0.3672 0.19805,0.8995 z m -0.577645,0 0.297075,-1.5019 q 0.05776,-0.2847 -0.103151,-0.4869 -0.156789,-0.2063 -0.449738,-0.2063 h -0.346587 q -0.284696,0 -0.532258,0.2022 -0.243436,0.2022 -0.301201,0.491 l -0.297074,1.5019 q -0.05777,0.2847 0.103151,0.491 0.160915,0.2022 0.449737,0.2022 h 0.346587 q 0.280571,0 0.524007,-0.1981 0.247562,-0.198 0.309452,-0.4951 z"
         style="font-style:italic;font-size:65.00091553%;-inkscape-font-specification:'GOST type B Italic';baseline-shift:super;fill:#ff0000"
         id="path107" />
    </g>
    <g
       id="g3052"
       style="stroke:#0000ff">
      <path
         transform="translate(0,875.19684)"
         inkscape:connector-curvature="0"
         id="path3048"
         d="m 121.78158,104.77096 0,3.85461"
         style="fill:none;stroke:#0000ff;stroke-width:0.62500000000000000;stroke-linecap:butt;stroke-linejoin:miter;stroke-opacity:1" />
      <path
         style="fill:none;stroke:#0000ff;stroke-width:0.62500000000000000;stroke-linecap:butt;stroke-linejoin:miter;stroke-opacity:1"
         d="m 123.1066,979.9678 0,3.85461"
         id="path3050"
         inkscape:connector-curvature="0" />
    </g>
    <g
       id="g3056"
       transform="matrix(0.76785904,-0.64061884,0.64061884,0.76785904,-659.49947,328.06025)"
       style="stroke:#0000ff">
      <path
         style="fill:none;stroke:#0000ff;stroke-width:0.62500000000000000;stroke-linecap:butt;stroke-linejoin:miter;stroke-opacity:1"
         d="m 121.78158,104.77096 0,3.85461"
         id="path3058"
         inkscape:connector-curvature="0"
         transform="translate(0,875.19684)" />
      <path
         inkscape:connector-curvature="0"
         id="path3060"
         d="m 123.1066,979.9678 0,3.85461"
         style="fill:none;stroke:#0000ff;stroke-width:0.62500000000000000;stroke-linecap:butt;stroke-linejoin:miter;stroke-opacity:1" />
    </g>
  </g>
</svg>
