<?xml version="1.0" encoding="UTF-8" standalone="no"?>
<!-- Created with Inkscape (http://www.inkscape.org/) -->

<svg
   xmlns:dc="http://purl.org/dc/elements/1.1/"
   xmlns:cc="http://creativecommons.org/ns#"
   xmlns:rdf="http://www.w3.org/1999/02/22-rdf-syntax-ns#"
   xmlns:svg="http://www.w3.org/2000/svg"
   xmlns="http://www.w3.org/2000/svg"
   xmlns:sodipodi="http://sodipodi.sourceforge.net/DTD/sodipodi-0.dtd"
   xmlns:inkscape="http://www.inkscape.org/namespaces/inkscape"
   width="177.16534"
   height="177.16534"
   id="svg2"
   version="1.1"
   inkscape:version="0.48.3.1 r9886"
   sodipodi:docname="d1801.svg">
  <sodipodi:namedview
     id="base"
     pagecolor="#ffffff"
     bordercolor="#666666"
     borderopacity="1.0"
     inkscape:pageopacity="0.0"
     inkscape:pageshadow="2"
     inkscape:zoom="2.9351113"
     inkscape:cx="88.582672"
     inkscape:cy="88.582672"
     inkscape:document-units="px"
     inkscape:current-layer="layer1"
     showgrid="false"
     units="mm"
     inkscape:window-width="1280"
     inkscape:window-height="746"
     inkscape:window-x="-4"
     inkscape:window-y="-4"
     inkscape:window-maximized="1" />
  <defs
     id="defs4" />
  <metadata
     id="metadata7">
    <rdf:RDF>
      <cc:Work
         rdf:about="">
        <dc:format>image/svg+xml</dc:format>
        <dc:type
           rdf:resource="http://purl.org/dc/dcmitype/StillImage" />
        <dc:title />
      </cc:Work>
    </rdf:RDF>
  </metadata>
  <g
     transform="translate(0,-875.19684)"
     id="layer1"
     inkscape:groupmode="layer"
     inkscape:label="Layer 1">
    <path
       style="fill:#ffd5d5;stroke:#000000;stroke-width:0.62500000000000000;stroke-linecap:butt;stroke-linejoin:miter;stroke-opacity:1;stroke-miterlimit:4;stroke-dasharray:1.87500000000000000, 1.87500000000000000;stroke-dashoffset:0"
       d="M 31.68534,44.63204 146.50211,14.990915 146.84281,105.9585 32.707448,138.32525 z"
       id="path3044"
       inkscape:connector-curvature="0"
       transform="translate(0,875.19684)" />
    <path
       style="fill:none;stroke:#000000;stroke-width:0.62500000000000000;stroke-linecap:butt;stroke-linejoin:miter;stroke-opacity:1"
       d="m 31.675893,44.692269 49.812252,29.159297 0.03956,91.748784 -48.809039,-27.09442 z"
       id="path3046"
       inkscape:connector-curvature="0"
       transform="translate(0,875.19684)"
       sodipodi:nodetypes="ccccc" />
    <path
       style="fill:#afdde9;stroke:#000000;stroke-width:0.62500000000000000;stroke-linecap:butt;stroke-linejoin:miter;stroke-opacity:1;fill-opacity:0.37091987999999998"
       d="m 146.50211,15.416794 -65.074193,58.174965 0,91.989701 65.414893,-59.45261 z"
       id="path3048"
       inkscape:connector-curvature="0"
       transform="translate(0,875.19684)"
       sodipodi:nodetypes="ccccc" />
    <path
       style="fill:none;stroke:#0000ff;stroke-width:0.9375;stroke-linecap:butt;stroke-linejoin:miter;stroke-opacity:1"
       d="M 15.09245,48.928913 146.56234,14.97202"
       id="path3818"
       inkscape:connector-curvature="0"
       transform="translate(0,875.19684)"
       sodipodi:nodetypes="cc" />
    <path
       style="fill:none;stroke:#ff0000;stroke-width:1px;stroke-linecap:butt;stroke-linejoin:miter;stroke-opacity:1"
       d="M 146.60545,6.9345083 146.94261,130.06926"
       id="path3820"
       inkscape:connector-curvature="0"
       transform="translate(0,875.19684)"
       sodipodi:nodetypes="cc" />
    <path
       style="fill:none;stroke:#008000;stroke-width:1px;stroke-linecap:butt;stroke-linejoin:miter;stroke-opacity:1"
       d="M 146.52278,15.211159 78.020892,173.75832"
       id="path3822"
       inkscape:connector-curvature="0"
       transform="translate(0,875.19684)"
       sodipodi:nodetypes="cc" />
    <path
       sodipodi:type="arc"
       style="fill:#0000ff;fill-opacity:1;stroke:none"
       id="path3824"
       sodipodi:cx="155.11794"
       sodipodi:cy="21.143991"
       sodipodi:rx="0.93353832"
       sodipodi:ry="0.93353832"
       d="m 156.05147,21.143991 a 0.93353832,0.93353832 0 1 1 -1.86707,0 0.93353832,0.93353832 0 1 1 1.86707,0 z"
       transform="matrix(2.032258,0,0,2.032258,-168.85483,847.52864)" />
    <path
       style="fill:none;stroke:#0000ff;stroke-width:0.3125;stroke-linecap:butt;stroke-linejoin:miter;stroke-opacity:1"
       d="m 134.54997,18.162693 c 0,0 0.4308,2.025979 0.97632,2.880527 0.51165,0.801488 2.06521,1.967849 2.06521,1.967849"
       id="path3826"
       inkscape:connector-curvature="0"
       transform="translate(0,875.19684)"
       sodipodi:nodetypes="cac" />
    <path
       sodipodi:nodetypes="cac"
       inkscape:connector-curvature="0"
       id="path3828"
       d="m 141.22952,902.89232 c 0,0 1.36984,0.93662 2.15893,1.12777 0.90432,0.21907 2.79136,-0.0169 2.79136,-0.0169"
       style="fill:none;stroke:#008000;stroke-width:0.3125;stroke-linecap:butt;stroke-linejoin:miter;stroke-opacity:1" />
    <path
       style="fill:none;stroke:#008000;stroke-width:0.3125;stroke-linecap:butt;stroke-linejoin:miter;stroke-opacity:1"
       d="m 140.65307,904.59458 c 0,0 1.75644,1.02979 2.73538,1.23789 0.91013,0.19347 2.79136,-0.0169 2.79136,-0.0169"
       id="path3830"
       inkscape:connector-curvature="0"
       sodipodi:nodetypes="cac" />
    <path
       style="fill:none;stroke:#000000;stroke-width:0.3125;stroke-linecap:butt;stroke-linejoin:miter;stroke-opacity:1"
       d="M 32.018599,45.171615 81.107883,164.96028"
       id="path3832"
       inkscape:connector-curvature="0"
       transform="translate(0,875.19684)"
       sodipodi:nodetypes="cc" />
    <path
       inkscape:connector-curvature="0"
       id="path3839"
       style="font-size:13px;font-style:italic;font-variant:normal;font-weight:normal;font-stretch:normal;text-align:center;line-height:100%;letter-spacing:0px;word-spacing:0px;text-anchor:middle;fill:#000000;fill-opacity:1;stroke:none;font-family:GOST type B;-inkscape-font-specification:Sans Italic"
       d="m 125.66253,901.87154 0.006,-1.46631 c 0.004,-0.99869 -0.37028,-1.50016 -1.12353,-1.50439 -0.56283,-0.004 -1.01986,0.22852 -1.3711,0.69824 -0.4401,0.57976 -0.73421,1.25684 -0.88232,2.03125 -0.18197,0.93099 -0.1587,1.61865 0.0698,2.06299 0.23698,0.4528 0.61149,0.6792 1.12353,0.6792 0.56706,0 1.08968,-0.45069 1.56787,-1.35205 l 0.60938,-1.14893 m -0.92041,-3.96094 c 1.32031,-0.0212 1.972,0.6517 1.95508,2.01856 -10e-6,0 0.33007,-0.61995 0.99023,-1.85987 l 1.04102,0 -2.0503,3.85303 -0.019,1.39014 c 0,0.20736 0.0571,0.39779 0.17139,0.57129 0.13118,0.20312 0.26448,0.30469 0.3999,0.30468 l 0.56495,0 -0.19043,0.99024 -0.70459,0 c -0.3978,0 -0.74057,-0.17774 -1.02832,-0.5332 -0.13543,-0.17774 -0.20525,-0.4528 -0.20948,-0.8252 -0.27507,0.4528 -0.64958,0.87175 -1.12353,1.25684 -0.22429,0.17773 -0.639,0.26448 -1.24414,0.26025 -0.99024,-0.008 -1.66521,-0.33008 -2.02491,-0.96484 -0.36816,-0.66016 -0.43798,-1.57422 -0.20947,-2.74219 0.24544,-1.25683 0.68978,-2.17089 1.33301,-2.74219 0.72363,-0.63899 1.50651,-0.96484 2.34863,-0.97754" />
    <path
       inkscape:connector-curvature="0"
       id="path3841"
       style="font-size:13px;font-style:italic;font-variant:normal;font-weight:normal;font-stretch:normal;text-align:center;line-height:100%;letter-spacing:0px;word-spacing:0px;text-anchor:middle;fill:#000000;fill-opacity:1;stroke:none;font-family:GOST type B;-inkscape-font-specification:Sans Italic"
       d="m 138.53238,921.0944 -0.60937,3.14209 -1.17432,0 1.89795,-9.76904 c 0.37663,-1.92968 1.46631,-2.89452 3.26904,-2.89453 1.82812,1e-5 2.58772,0.81462 2.27881,2.44384 -0.21159,1.15952 -0.72999,1.95086 -1.55517,2.37403 1.10871,0.38086 1.55516,1.13623 1.33935,2.26611 -0.38087,2.01009 -1.59538,3.01302 -3.64355,3.00879 -0.89714,-0.004 -1.49805,-0.19466 -1.80274,-0.57129 m 0.29834,-1.52344 c 0.32585,0.73633 0.9056,1.10238 1.73926,1.09815 1.21874,0 1.95719,-0.66439 2.21533,-1.99317 0.23274,-1.19335 -0.64112,-1.74348 -2.62158,-1.65039 l 0.20947,-1.0791 c 1.5319,0.0254 2.43115,-0.65169 2.69776,-2.03125 0.18196,-0.93098 -0.22218,-1.39436 -1.21241,-1.39014 -1.10872,10e-6 -1.79004,0.66017 -2.04394,1.98047 l -0.98389,5.06543" />
    <text
       xml:space="preserve"
       style="font-size:13px;font-style:italic;font-variant:normal;font-weight:normal;font-stretch:normal;text-align:center;line-height:100%;letter-spacing:0px;word-spacing:0px;text-anchor:middle;fill:#000000;fill-opacity:1;stroke:none;font-family:GOST type B;-inkscape-font-specification:Sans Italic"
       x="152.97546"
       y="984.90308"
       id="text3845"
       sodipodi:linespacing="100%"><tspan
         sodipodi:role="line"
         id="tspan3847"
         x="152.97546"
         y="984.90308">A</tspan></text>
    <text
       xml:space="preserve"
       style="font-size:13px;font-style:italic;font-variant:normal;font-weight:normal;font-stretch:normal;text-align:center;line-height:100%;letter-spacing:0px;word-spacing:0px;text-anchor:middle;fill:#000000;fill-opacity:1;stroke:none;font-family:GOST type B;-inkscape-font-specification:Sans Italic"
       x="87.560562"
       y="1049.6366"
       id="text3849"
       sodipodi:linespacing="100%"><tspan
         sodipodi:role="line"
         id="tspan3851"
         x="87.560562"
         y="1049.6366">B</tspan></text>
    <text
       xml:space="preserve"
       style="font-size:13px;font-style:italic;font-variant:normal;font-weight:normal;font-stretch:normal;text-align:center;line-height:100%;letter-spacing:0px;word-spacing:0px;text-anchor:middle;fill:#000000;fill-opacity:1;stroke:none;font-family:GOST type B;-inkscape-font-specification:Sans Italic"
       x="26.234098"
       y="1023.4025"
       id="text3853"
       sodipodi:linespacing="100%"><tspan
         sodipodi:role="line"
         id="tspan3855"
         x="26.234098"
         y="1023.4025">C</tspan></text>
    <text
       xml:space="preserve"
       style="font-size:13px;font-style:italic;font-variant:normal;font-weight:normal;font-stretch:normal;text-align:center;line-height:100%;letter-spacing:0px;word-spacing:0px;text-anchor:middle;fill:#000000;fill-opacity:1;stroke:none;font-family:GOST type B;-inkscape-font-specification:Sans Italic"
       x="156.38249"
       y="891.20984"
       id="text3857"
       sodipodi:linespacing="100%"><tspan
         sodipodi:role="line"
         id="tspan3859"
         x="156.38249"
         y="891.20984">A<tspan
   style="font-size:65.00091553%;baseline-shift:sub"
   id="tspan3861">1</tspan></tspan></text>
    <text
       xml:space="preserve"
       style="font-size:13px;font-style:italic;font-variant:normal;font-weight:normal;font-stretch:normal;text-align:center;line-height:100%;letter-spacing:0px;word-spacing:0px;text-anchor:middle;fill:#000000;fill-opacity:1;stroke:none;font-family:GOST type B;-inkscape-font-specification:Sans Italic"
       x="88.241966"
       y="956.62476"
       id="text3863"
       sodipodi:linespacing="100%"><tspan
         sodipodi:role="line"
         id="tspan3865"
         x="88.241966"
         y="956.62476">B<tspan
   style="font-size:65.00091553%;baseline-shift:sub"
   id="tspan3867">1</tspan></tspan></text>
    <text
       xml:space="preserve"
       style="font-size:13px;font-style:italic;font-variant:normal;font-weight:normal;font-stretch:normal;text-align:center;line-height:100%;letter-spacing:0px;word-spacing:0px;text-anchor:middle;fill:#000000;fill-opacity:1;stroke:none;font-family:GOST type B;-inkscape-font-specification:Sans Italic"
       x="28.619017"
       y="913.01483"
       id="text3869"
       sodipodi:linespacing="100%"><tspan
         sodipodi:role="line"
         id="tspan3871"
         x="28.619017"
         y="913.01483">C<tspan
   style="font-size:65.00091553%;baseline-shift:sub"
   id="tspan3873">1</tspan></tspan></text>
    <path
       style="fill:none;stroke:#000000;stroke-width:0.3125;stroke-linecap:butt;stroke-linejoin:miter;stroke-opacity:1"
       d="m 39.991576,42.494917 6.384197,3.49324 -8.431958,2.288674"
       id="path3875"
       inkscape:connector-curvature="0"
       transform="translate(0,875.19684)" />
    <path
       inkscape:connector-curvature="0"
       id="path3877"
       d="m 40.834772,1011.2865 6.384197,3.4932 -8.431958,2.2887"
       style="fill:none;stroke:#000000;stroke-width:0.3125;stroke-linecap:butt;stroke-linejoin:miter;stroke-opacity:1" />
    <text
       xml:space="preserve"
       style="font-size:13px;font-style:italic;font-variant:normal;font-weight:normal;font-stretch:normal;text-align:center;line-height:100%;letter-spacing:0px;word-spacing:0px;text-anchor:middle;fill:#ff0000;fill-opacity:1;stroke:none;font-family:GOST type B;-inkscape-font-specification:Sans Italic"
       x="-943.55676"
       y="158.05275"
       id="text3879"
       sodipodi:linespacing="100%"
       transform="matrix(0,-1,1,0,0,0)"><tspan
         sodipodi:role="line"
         id="tspan3881"
         x="-943.55676"
         y="158.05275">ребро</tspan></text>
  </g>
</svg>
