<?xml version="1.0" encoding="UTF-8" standalone="no"?>
<!-- Created with Inkscape (http://www.inkscape.org/) -->

<svg
   xmlns:dc="http://purl.org/dc/elements/1.1/"
   xmlns:cc="http://creativecommons.org/ns#"
   xmlns:rdf="http://www.w3.org/1999/02/22-rdf-syntax-ns#"
   xmlns:svg="http://www.w3.org/2000/svg"
   xmlns="http://www.w3.org/2000/svg"
   xmlns:sodipodi="http://sodipodi.sourceforge.net/DTD/sodipodi-0.dtd"
   xmlns:inkscape="http://www.inkscape.org/namespaces/inkscape"
   width="122.15555mm"
   height="105.72835mm"
   viewBox="0 0 122.15555 105.72835"
   version="1.1"
   id="svg8"
   inkscape:version="0.92.4 (5da689c313, 2019-01-14)"
   sodipodi:docname="g881.svg">
  <defs
     id="defs2" />
  <sodipodi:namedview
     id="base"
     pagecolor="#ffffff"
     bordercolor="#666666"
     borderopacity="1.0"
     inkscape:pageopacity="0.0"
     inkscape:pageshadow="2"
     inkscape:zoom="1.1194395"
     inkscape:cx="363.36414"
     inkscape:cy="99.749369"
     inkscape:document-units="mm"
     inkscape:current-layer="layer1"
     showgrid="false"
     inkscape:window-width="1920"
     inkscape:window-height="1009"
     inkscape:window-x="0"
     inkscape:window-y="0"
     inkscape:window-maximized="1"
     inkscape:snap-global="true"
     fit-margin-top="1"
     fit-margin-left="1"
     fit-margin-right="1"
     fit-margin-bottom="1" />
  <metadata
     id="metadata5">
    <rdf:RDF>
      <cc:Work
         rdf:about="">
        <dc:format>image/svg+xml</dc:format>
        <dc:type
           rdf:resource="http://purl.org/dc/dcmitype/StillImage" />
        <dc:title></dc:title>
      </cc:Work>
    </rdf:RDF>
  </metadata>
  <g
     inkscape:label="Layer 1"
     inkscape:groupmode="layer"
     id="layer1"
     transform="translate(-39.444518,-89.114337)">
    <path
       style="fill:none;stroke:#000000;stroke-width:0.35277778;stroke-linecap:butt;stroke-linejoin:miter;stroke-opacity:1"
       d="m 40.618507,133.5085 9.671738,58.03043 71.448885,2.09119"
       id="path10"
       inkscape:connector-curvature="0" />
    <path
       inkscape:connector-curvature="0"
       id="path12"
       d="m 79.30546,90.290647 9.671734,58.030433 71.448886,2.09118"
       style="fill:none;stroke:#000000;stroke-width:0.35277778;stroke-linecap:butt;stroke-linejoin:miter;stroke-miterlimit:4;stroke-dasharray:1.17232167, 1.17232167;stroke-dashoffset:0;stroke-opacity:1" />
    <path
       style="fill:none;stroke:#000000;stroke-width:0.35277778;stroke-linecap:butt;stroke-linejoin:miter;stroke-opacity:1"
       d="M 40.618508,133.5085 79.305459,90.290647"
       id="path822"
       inkscape:connector-curvature="0" />
    <path
       style="fill:none;stroke:#000000;stroke-width:0.35277778;stroke-linecap:butt;stroke-linejoin:miter;stroke-miterlimit:4;stroke-dasharray:1.17047838, 1.17047838;stroke-dashoffset:0;stroke-opacity:1"
       d="M 50.290243,191.53893 88.977194,148.32108"
       id="path824"
       inkscape:connector-curvature="0" />
    <path
       inkscape:connector-curvature="0"
       id="path826"
       d="m 121.73913,193.63012 38.68694,-43.21786"
       style="fill:none;stroke:#000000;stroke-width:0.35277778;stroke-linecap:butt;stroke-linejoin:miter;stroke-opacity:1" />
    <path
       inkscape:connector-curvature="0"
       id="path828"
       d="m 112.06739,135.59969 9.67174,58.03043"
       style="fill:none;stroke:#000000;stroke-width:0.35277778;stroke-linecap:butt;stroke-linejoin:miter;stroke-opacity:1"
       sodipodi:nodetypes="cc" />
    <path
       inkscape:connector-curvature="0"
       id="path830"
       d="M 112.06739,135.59969 150.75434,92.381833"
       style="fill:none;stroke:#000000;stroke-width:0.35277778;stroke-linecap:butt;stroke-linejoin:miter;stroke-opacity:1" />
    <path
       sodipodi:nodetypes="cc"
       style="fill:none;stroke:#000000;stroke-width:0.35277778;stroke-linecap:butt;stroke-linejoin:miter;stroke-opacity:1"
       d="m 150.75435,92.381836 9.67173,58.030424"
       id="path832"
       inkscape:connector-curvature="0" />
    <path
       inkscape:connector-curvature="0"
       id="path834"
       d="m 79.305465,90.29065 71.448885,2.091186"
       style="fill:none;stroke:#ff0000;stroke-width:0.35277778;stroke-linecap:butt;stroke-linejoin:miter;stroke-opacity:1"
       sodipodi:nodetypes="cc" />
    <path
       sodipodi:nodetypes="cc"
       style="fill:none;stroke:#000000;stroke-width:0.35277778;stroke-linecap:butt;stroke-linejoin:miter;stroke-opacity:1"
       d="m 40.618508,133.5085 71.448882,2.09119"
       id="path836"
       inkscape:connector-curvature="0" />
    <path
       id="path861"
       style="fill:#ffe6d5;stroke:#0000ff;stroke-width:0.5291667;stroke-linecap:butt;stroke-linejoin:miter;stroke-opacity:1"
       d="M 40.618507,133.5085 150.75434,92.381831 M 121.73913,193.63012 150.75435,92.381836 M 40.618507,133.5085 121.73913,193.63012"
       inkscape:connector-curvature="0" />
    <path
       style="fill:none;stroke:#0000ff;stroke-width:0.5291667;stroke-linecap:butt;stroke-linejoin:miter;stroke-miterlimit:4;stroke-dasharray:1.5874999, 1.5874999;stroke-dashoffset:0;stroke-opacity:1"
       d="m 40.618507,133.5085 48.358687,14.81258"
       id="path863"
       inkscape:connector-curvature="0" />
    <path
       style="fill:none;stroke:#0000ff;stroke-width:0.5291667;stroke-linecap:butt;stroke-linejoin:miter;stroke-miterlimit:4;stroke-dasharray:1.5874999, 1.5874999;stroke-dashoffset:0;stroke-opacity:1"
       d="M 150.75434,92.381831 88.977194,148.32108"
       id="path865"
       inkscape:connector-curvature="0" />
    <path
       style="fill:none;stroke:#0000ff;stroke-width:0.5291667;stroke-linecap:butt;stroke-linejoin:miter;stroke-miterlimit:4;stroke-dasharray:2.11666673, 2.11666673;stroke-dashoffset:0;stroke-opacity:1"
       d="m 88.977194,148.32108 32.761936,45.30904"
       id="path867"
       inkscape:connector-curvature="0" />
    <path
       sodipodi:nodetypes="cc"
       style="fill:none;stroke:#ff0000;stroke-width:0.35277778;stroke-linecap:butt;stroke-linejoin:miter;stroke-miterlimit:4;stroke-dasharray:2.82222231, 1.41111115;stroke-dashoffset:0;stroke-opacity:1"
       d="m 64.178847,140.87028 71.448883,2.09118"
       id="path869"
       inkscape:connector-curvature="0" />
    <path
       style="fill:#ff0000;fill-opacity:1;stroke:none;stroke-width:0.35277778;stroke-linecap:round;stroke-miterlimit:4;stroke-dasharray:2.82222227, 1.41111113;stroke-dashoffset:0;paint-order:stroke fill markers"
       d="m 65.942601,141.00674 a 1.1817671,1.1817671 0 0 1 -1.181767,1.18177 1.1817671,1.1817671 0 0 1 -1.181767,-1.18177 1.1817671,1.1817671 0 0 1 1.181767,-1.18176 1.1817671,1.1817671 0 0 1 1.181767,1.18176 z"
       id="path871"
       inkscape:connector-curvature="0" />
    <path
       style="fill:#ff0000;fill-opacity:1;stroke:none;stroke-width:0.35277778;stroke-linecap:round;stroke-miterlimit:4;stroke-dasharray:2.82222227, 1.41111113;stroke-dashoffset:0;paint-order:stroke fill markers"
       d="m 137.32132,143.13393 a 1.1817671,1.1817671 0 0 1 -1.18176,1.18176 1.1817671,1.1817671 0 0 1 -1.18177,-1.18176 1.1817671,1.1817671 0 0 1 1.18177,-1.18177 1.1817671,1.1817671 0 0 1 1.18176,1.18177 z"
       id="circle873"
       inkscape:connector-curvature="0" />
    <path
       style="fill:none;stroke:#008000;stroke-width:0.35277778;stroke-linecap:butt;stroke-linejoin:miter;stroke-opacity:1"
       d="M 79.305459,90.290646 112.06739,135.59969"
       id="path875"
       inkscape:connector-curvature="0" />
    <path
       style="fill:#f4e3d7;fill-opacity:0.52822577;stroke:none;stroke-width:1.19107234;stroke-linecap:round;stroke-miterlimit:4;stroke-dasharray:9.52857848, 4.76428924;stroke-dashoffset:0;paint-order:stroke fill markers"
       d="M 309.56956,618.48544 C 228.01465,558.05421 160.91272,508.24496 160.45415,507.79821 c -0.45856,-0.44675 -0.57741,-1.06861 -0.2641,-1.38192 1.05983,-1.05983 166.29722,4.20695 167.02911,5.32389 0.50247,0.76682 0.83749,0.76531 1.33996,-0.006 0.49737,-0.76353 6.07814,-0.83251 21.66262,-0.26776 11.54596,0.4184 24.51004,0.78072 28.80906,0.80516 6.33264,0.036 7.81642,0.2988 7.81642,1.3844 0,1.6274 1.90999,1.75255 3.43732,0.22522 0.82969,-0.82968 5.04419,-1.0353 16.48147,-0.80412 8.45169,0.17084 15.48069,0.41795 15.61997,0.54913 0.31151,0.29337 3.75247,20.14149 3.7607,21.69239 0.004,0.73175 -1.40532,1.11663 -4.08839,1.11663 -5.54412,0 -4.84996,2.136 0.81425,2.50554 2.29535,0.14974 4.17336,0.45833 4.17336,0.68574 0,0.22741 7.04536,42.67141 15.65636,94.32 8.61099,51.64859 15.54219,94.0207 15.40264,94.16024 -0.13953,0.13953 -66.98044,-49.19004 -148.53534,-109.62128 z m 144.52158,104.10647 c 0.98295,-0.98296 -3.89982,-7.4089 -5.23915,-6.89496 -1.69794,0.65157 -1.62011,0.9917 1.01863,4.45127 2.26007,2.9631 3.17269,3.49151 4.22052,2.44369 z m -11.04811,-16.83177 c -2.10155,-3.08567 -4.38417,-4.19885 -4.38417,-2.13804 0,0.56776 1.05136,2.41071 2.33636,4.09543 1.62092,2.12514 2.6215,2.77798 3.26753,2.13194 0.64604,-0.64604 0.27254,-1.89826 -1.21972,-4.08933 z m -7.71128,-9.07405 c 0.64245,-0.64246 -3.7266,-7.49587 -4.77862,-7.49587 -1.84639,0 -1.60829,2.05308 0.5692,4.90792 2.3836,3.12507 3.18165,3.6157 4.20942,2.58795 z m -11.04811,-16.83177 c -2.10154,-3.08567 -4.38417,-4.19885 -4.38417,-2.13805 0,0.56777 1.05136,2.41072 2.33636,4.09544 1.62092,2.12514 2.6215,2.77798 3.26753,2.13194 0.64604,-0.64604 0.27254,-1.89826 -1.21972,-4.08933 z m -7.71128,-9.07405 c 0.64245,-0.64246 -3.7266,-7.49587 -4.77862,-7.49587 -1.84639,0 -1.60829,2.05308 0.5692,4.90792 2.3836,3.12506 3.18165,3.6157 4.20942,2.58795 z m -11.04811,-16.83178 c -2.10154,-3.08566 -4.38417,-4.19885 -4.38417,-2.13804 0,0.56777 1.05136,2.41072 2.33636,4.09544 1.62093,2.12514 2.6215,2.77797 3.26754,2.13194 0.64603,-0.64604 0.27253,-1.89827 -1.21973,-4.08934 z m -7.71128,-9.07405 c 0.64246,-0.64245 -3.7266,-7.49586 -4.77861,-7.49586 -1.8464,0 -1.6083,2.05308 0.56919,4.90792 2.38361,3.12506 3.18166,3.6157 4.20942,2.58794 z m -11.04811,-16.83177 c -2.10154,-3.08567 -4.38417,-4.19885 -4.38417,-2.13804 0,0.56777 1.05136,2.41072 2.33636,4.09543 1.62093,2.12515 2.6215,2.77798 3.26754,2.13195 0.64604,-0.64604 0.27254,-1.89827 -1.21973,-4.08934 z m -7.60559,-9.26999 c 0.51621,-0.83526 -3.83044,-7.29992 -4.90826,-7.29992 -1.82331,0 -1.57345,2.06734 0.59315,4.90792 2.40854,3.15775 3.4761,3.74953 4.31511,2.392 z m -11.03103,-16.61423 c -1.89316,-3.0632 -4.50693,-4.31567 -4.50693,-2.15964 0,0.56776 1.05135,2.41071 2.33635,4.09543 3.17051,4.15674 4.95332,2.56678 2.17058,-1.93579 z m -69.26653,2.1624 c 1.87549,-2.07241 1.07734,-3.51215 -1.16443,-2.10045 -1.66126,1.04614 -2.5956,3.89253 -1.27774,3.89253 0.45119,0 1.55017,-0.80644 2.44217,-1.79208 z m 5.62286,-6.42632 c 1.2506,-1.2506 1.42832,-3.39455 0.2814,-3.39455 -0.43481,0 -1.44905,1.00496 -2.25385,2.23326 -1.12082,1.71058 -1.18668,2.23326 -0.2814,2.23326 0.65004,0 1.66427,-0.48239 2.25385,-1.07197 z m 55.91531,-5.02768 c 0.51621,-0.83525 -3.83044,-7.29992 -4.90826,-7.29992 -1.8233,0 -1.57345,2.06735 0.59316,4.90792 2.40853,3.15776 3.47609,3.74954 4.3151,2.392 z m -49.92522,-1.94557 c 0.892,-0.98565 1.35875,-2.05515 1.03724,-2.37667 -0.65143,-0.65142 -4.16876,2.22901 -4.16876,3.4139 0,1.30411 1.44612,0.82512 3.13152,-1.03723 z m 6.09894,-6.59191 c 0.76791,-1.17198 1.14825,-2.37882 0.84521,-2.68187 -0.75974,-0.75974 -3.82254,2.13375 -3.82254,3.61123 0,1.86798 1.43869,1.4189 2.97733,-0.92936 z m 32.79525,-8.07674 c -1.08501,-1.75558 -2.54293,-3.19196 -3.23983,-3.19196 -1.88525,0 -1.54635,1.5397 1.10361,5.01399 3.15818,4.14058 4.90206,2.65319 2.13622,-1.82203 z m -26.52023,1.09409 c 0.5266,-0.83624 0.67265,-1.80525 0.32455,-2.15335 -0.70701,-0.70701 -4.21707,2.14883 -4.21707,3.43108 0,1.31786 2.84638,0.38352 3.89252,-1.27773 z m 5.49213,-6.07813 c 1.87549,-2.0724 1.07734,-3.51214 -1.16443,-2.10044 -1.66126,1.04613 -2.59561,3.89252 -1.27774,3.89252 0.45119,0 1.55017,-0.80643 2.44217,-1.79208 z m 13.32971,-4.35605 c 0.26796,-0.43357 -0.31354,-1.80628 -1.29221,-3.05046 -1.29385,-1.64486 -1.47335,-2.37558 -0.65781,-2.67781 0.82529,-0.30583 0.70861,-0.84851 -0.44167,-2.05413 -1.45856,-1.52871 -1.66295,-1.53882 -3.05091,-0.15086 -1.38796,1.38796 -1.32726,1.72994 0.90598,5.10459 2.37279,3.58553 3.59707,4.34889 4.53662,2.82867 z m -6.63489,-4.26332 c 0,-0.66082 -0.23705,-1.2015 -0.52679,-1.2015 -0.97541,0 -3.77912,4.00369 -3.32185,4.74357 0.60274,0.97525 3.84864,-2.01209 3.84864,-3.54207 z m 75.93086,0.13846 c 0,-0.89331 -0.89331,-1.33996 -2.67991,-1.33996 -2.56124,0 -3.365,0.80376 -2.08438,2.08438 1.16936,1.16935 4.76429,0.60764 4.76429,-0.74442 z m 8.93304,0.50685 c 0,-1.0856 -3.2952,-2.12407 -4.45853,-1.4051 -1.76806,1.09273 -0.8578,2.2382 1.77862,2.2382 1.47395,0 2.67991,-0.3749 2.67991,-0.8331 z m 8.93304,-0.0602 c 0,-0.49132 -1.20596,-0.89331 -2.67991,-0.89331 -1.47395,0 -2.67991,0.40199 -2.67991,0.89331 0,0.49132 1.20596,0.8933 2.67991,0.8933 1.47395,0 2.67991,-0.40198 2.67991,-0.8933 z M 376.12756,561.395 c 0,-0.46232 -1.20596,-0.84058 -2.67991,-0.84058 -3.11847,0 -3.62479,1.50662 -0.66998,1.99361 2.32863,0.38379 3.34989,0.0323 3.34989,-1.15303 z m 8.09529,0.49937 c 0,-0.49132 -1.01747,-1.0205 -2.26104,-1.17596 -1.61143,-0.20146 -2.26103,0.1364 -2.26103,1.17596 0,1.03956 0.6496,1.37742 2.26103,1.17597 1.24357,-0.15547 2.26104,-0.68465 2.26104,-1.17597 z m 8.87749,0.44665 c 0,-0.49131 -1.00496,-0.8933 -2.23326,-0.8933 -1.22829,0 -2.23326,0.40199 -2.23326,0.8933 0,0.49132 1.00497,0.89331 2.23326,0.89331 1.2283,0 2.23326,-0.40199 2.23326,-0.89331 z m 8.93305,0 c 0,-0.49131 -1.20596,-0.8933 -2.67992,-0.8933 -1.47395,0 -2.67991,0.40199 -2.67991,0.8933 0,0.49132 1.20596,0.89331 2.67991,0.89331 1.47396,0 2.67992,-0.40199 2.67992,-0.89331 z m -52.70495,-1.33995 c 0,-0.89331 -0.89331,-1.33996 -2.67991,-1.33996 -1.78661,0 -2.67992,0.44665 -2.67992,1.33996 0,0.8933 0.89331,1.33995 2.67992,1.33995 1.7866,0 2.67991,-0.44665 2.67991,-1.33995 z m 8.71526,0.22332 c -0.56925,-1.73361 -5.14204,-1.98497 -5.14204,-0.28266 0,0.96764 0.84966,1.39929 2.75435,1.39929 1.8035,0 2.62778,-0.38548 2.38769,-1.11663 z m 9.15082,0.22333 c 0,-0.49132 -1.20596,-0.8933 -2.67991,-0.8933 -1.47395,0 -2.67991,0.40198 -2.67991,0.8933 0,0.49132 1.20596,0.8933 2.67991,0.8933 1.47395,0 2.67991,-0.40198 2.67991,-0.8933 z m -35.43539,-2.1648 c 0.4361,-1.13647 -3.29434,-3.19503 -5.7899,-3.19503 -1.82702,0 -0.53353,2.61375 1.69658,3.42826 3.35712,1.22612 3.53724,1.21586 4.09332,-0.23323 z m -11.61296,-3.57322 c 0.43611,-1.13647 -3.29433,-3.19502 -5.78989,-3.19502 -1.82703,0 -0.53353,2.61375 1.69658,3.42825 3.35711,1.22612 3.53724,1.21586 4.09331,-0.23323 z m 15.8497,-0.76077 c -0.0369,-0.3562 -0.067,-1.45162 -0.067,-2.43425 0,-0.98264 -0.40199,-1.78661 -0.89331,-1.78661 -0.49132,0 -0.8933,1.23946 -0.8933,2.75435 0,1.56733 0.41386,2.61641 0.9603,2.43426 0.52817,-0.17606 0.93015,-0.61154 0.8933,-0.96775 z m 10.56412,-1.89336 c 1.27282,-1.35486 1.66034,-2.35482 1.05705,-2.72767 -1.162,-0.71816 -5.36797,2.19894 -5.40697,3.75006 -0.0454,1.80701 2.18413,1.28299 4.34992,-1.02239 z m -37.66881,-1.16516 c 0.36259,-1.08774 -4.90515,-3.18795 -6.11717,-2.43888 -1.45197,0.89737 -0.81467,2.01224 1.66589,2.91426 2.80858,1.0213 3.99462,0.89464 4.45128,-0.47538 z m -11.37439,-3.30821 c 0,-1.35361 -5.0585,-3.50562 -6.35574,-2.70389 -1.4515,0.89708 -0.81498,2.01209 1.6659,2.91818 3.49186,1.27534 4.68984,1.2206 4.68984,-0.21429 z m 37.51878,-2.69424 c 0,-1.9371 -0.99139,-4.09293 -1.88218,-4.09293 -0.92311,0 -1.08772,3.87876 -0.20219,4.76429 1.00791,1.00792 2.08437,0.6612 2.08437,-0.67136 z m 20.45746,-0.87213 c 1.27283,-1.35486 1.66034,-2.35482 1.05705,-2.72767 -1.162,-0.71816 -5.36796,2.19894 -5.40697,3.75006 -0.0454,1.80702 2.18413,1.28299 4.34992,-1.02239 z m -69.58919,-0.007 c 0,-1.80017 -5.45862,-3.59809 -6.4001,-2.10802 -0.47557,0.75269 0.0984,1.48502 1.72728,2.20367 3.26885,1.44222 4.67282,1.41348 4.67282,-0.0957 z m -11.61295,-3.57322 c 0,-0.68891 -1.26595,-1.69388 -2.81322,-2.23326 -3.53787,-1.23331 -3.43991,-1.24436 -3.43991,0.38805 0,0.75281 0.90447,1.7323 2.00993,2.17664 2.9449,1.18371 4.2432,1.0823 4.2432,-0.33143 z m -11.61296,-3.57321 c 0,-0.68892 -1.26595,-1.69388 -2.81321,-2.23326 -3.53787,-1.23331 -3.43992,-1.24436 -3.43992,0.38805 0,0.7528 0.90447,1.73229 2.00994,2.17663 2.9449,1.18371 4.24319,1.0823 4.24319,-0.33142 z m 101.74271,-0.63823 c 1.11624,-1.03993 1.69453,-2.16589 1.28507,-2.50212 -1.07778,-0.88505 -11.91075,-0.0674 -11.91075,0.89904 0,0.44768 0.98912,0.81396 2.19804,0.81396 1.20892,0 2.71637,0.58769 3.34989,1.30598 1.58855,1.80112 2.7125,1.68671 5.07775,-0.51686 z m -31.17168,-1.78661 c 0,-2.45128 -0.24028,-2.71971 -2.00993,-2.24546 -1.10547,0.29625 -3.51739,0.54413 -5.35983,0.55084 -4.85823,0.0177 -4.10891,1.46795 1.11663,2.16114 2.45659,0.32588 4.46652,0.98065 4.46652,1.45504 0,0.4744 0.40199,0.86254 0.89331,0.86254 0.49132,0 0.8933,-1.25284 0.8933,-2.7841 z m 64.31791,1.44414 c 0,-1.05364 -1.24071,-1.33995 -5.80648,-1.33995 -3.19356,0 -5.80648,0.37251 -5.80648,0.8278 0,1.09771 2.21209,1.62253 7.36976,1.74849 3.22225,0.0787 4.2432,-0.21878 4.2432,-1.23634 z m 16.07947,0.44666 c 0,-0.50392 -2.53102,-0.89331 -5.80648,-0.89331 -3.27545,0 -5.80647,0.38939 -5.80647,0.89331 0,0.50391 2.53102,0.8933 5.80647,0.8933 3.27546,0 5.80648,-0.38939 5.80648,-0.8933 z m -163.55909,-1.95234 c 4.08151,-2.17859 4.67271,-3.40749 1.63926,-3.40749 -1.11011,0 -2.52047,-0.80397 -3.13414,-1.78661 -1.14156,-1.82793 -5.89449,-2.53173 -6.83378,-1.01191 -0.26433,0.42769 -2.07592,0.34839 -4.04444,-0.17704 -1.96111,-0.52345 -3.85301,-0.66437 -4.20423,-0.31315 -1.08799,1.08799 1.23328,2.64157 4.10031,2.74425 2.12516,0.0761 2.73147,0.50407 2.73306,1.92908 0.005,4.27739 3.97574,5.10178 9.74396,2.02287 z m 131.40014,1.05903 c 0,-0.50391 -2.53103,-0.8933 -5.80648,-0.8933 -3.27545,0 -5.80647,0.38939 -5.80647,0.8933 0,0.50392 2.53102,0.89331 5.80647,0.89331 3.27545,0 5.80648,-0.38939 5.80648,-0.89331 z m -32.15895,-0.81063 c 0,-0.80011 -9.63057,-1.84678 -10.95755,-1.19088 -0.3765,0.18609 -0.45328,0.71257 -0.1706,1.16993 0.66288,1.07258 11.12815,1.09228 11.12815,0.0209 z m -48.00602,-1.42263 c -0.28275,-1.17893 -10.95206,-1.70561 -10.95206,-0.54064 0,0.48651 1.70845,1.04519 3.79654,1.2415 5.43874,0.51132 7.40016,0.3192 7.15552,-0.70086 z m 15.84707,0.44665 c 0,-0.49131 -1.50745,-0.89879 -3.34989,-0.9055 -1.84244,-0.007 -4.25437,-0.25459 -5.35983,-0.55084 -1.47764,-0.39599 -2.00993,-0.15619 -2.00993,0.9055 0,1.16953 1.01921,1.44415 5.35982,1.44415 2.97768,0 5.35983,-0.39703 5.35983,-0.89331 z m -47.56803,-1.56328 c 0.27231,-0.81788 -1.20164,-1.11663 -5.50913,-1.11663 -6.7556,0 -7.98035,1.51916 -1.63773,2.03142 5.86747,0.47388 6.72086,0.36464 7.14686,-0.91479 z m 16.30238,0.66998 c 0,-0.49132 -1.10546,-0.89773 -2.45659,-0.90314 -1.35112,-0.005 -3.96403,-0.25899 -5.80647,-0.56353 -2.72794,-0.4509 -3.34989,-0.28322 -3.34989,0.90314 0,1.19749 1.03365,1.45683 5.80647,1.45683 3.27545,0 5.80648,-0.38939 5.80648,-0.8933 z m 87.45528,-4.81893 c 1.34578,-1.43252 1.67928,-2.34311 1.00973,-2.75691 -1.3165,-0.81365 -5.38772,1.88898 -5.38772,3.57656 0,1.98433 2.11595,1.58817 4.37799,-0.81965 z m -41.35454,-1.06061 c -0.29823,-0.77716 -0.54223,-2.00684 -0.54223,-2.73263 0,-0.72579 -0.40198,-1.07118 -0.8933,-0.76752 -1.50197,0.92827 -1.06219,4.91317 0.54223,4.91317 0.942,0 1.24911,-0.48578 0.8933,-1.41302 z m -103.27221,-0.74926 c 0,-1.60545 -5.19333,-2.82806 -6.49285,-1.52854 -0.67972,0.67972 -0.33111,1.20639 1.20492,1.82036 3.17203,1.26788 5.28793,1.15111 5.28793,-0.29182 z m -11.61295,-3.57322 c 0,-1.60545 -5.19334,-2.82805 -6.49285,-1.52854 -0.67972,0.67972 -0.33111,1.2064 1.20492,1.82036 3.17202,1.26788 5.28793,1.15111 5.28793,-0.29182 z m 165.17274,-2.65665 c 1.34578,-1.43252 1.67929,-2.34311 1.00974,-2.75691 -1.31651,-0.81365 -5.38773,1.88898 -5.38773,3.57657 0,1.98432 2.11595,1.58816 4.37799,-0.81966 z m -176.7857,-0.88336 c 0,-1.14842 -2.5369,-2.29685 -5.1365,-2.32525 -1.70739,-0.0186 -1.32825,2.48141 0.44665,2.94524 3.0868,0.80667 4.68985,0.59474 4.68985,-0.61999 z m 125.06259,-1.44414 c 0,-1.73468 -1.52615,-3.23815 -2.39998,-2.36432 -0.27197,0.27198 -0.23344,1.53463 0.0857,2.8059 0.63876,2.54518 2.31431,2.22548 2.31431,-0.44158 z m -136.88504,-3.18718 c -0.20209,-0.20209 -1.64458,-0.62286 -3.20553,-0.93505 -2.1661,-0.43322 -2.8381,-0.2545 -2.8381,0.75477 0,1.82321 5.69159,3.48232 6.10877,1.78072 0.16626,-0.67816 0.13695,-1.39835 -0.0651,-1.60044 z m -11.21733,-3.1877 c -0.34803,-0.32083 -1.93924,-0.85862 -3.53602,-1.19507 -2.21072,-0.46583 -2.90324,-0.30602 -2.90324,0.66996 0,1.62828 5.53938,3.39334 6.43926,2.0518 0.34803,-0.51885 0.34803,-1.20585 0,-1.52669 z m -11.61295,-3.57321 c -0.34803,-0.32084 -1.93924,-0.85862 -3.53602,-1.19508 -2.21073,-0.46582 -2.90324,-0.30601 -2.90324,0.66997 0,1.62828 5.53938,3.39334 6.43926,2.05179 0.34802,-0.51884 0.34802,-1.20585 0,-1.52668 z"
       id="path886"
       inkscape:connector-curvature="0"
       transform="scale(0.26458333)" />
    <path
       style="fill:#f4e3d7;fill-opacity:0.52822577;stroke:none;stroke-width:1.19107234;stroke-linecap:round;stroke-miterlimit:4;stroke-dasharray:9.52857848, 4.76428924;stroke-dashoffset:0;paint-order:stroke fill markers"
       d="m 409.10538,511.06547 c -0.20472,-0.19648 -11.02486,-0.59321 -24.04477,-0.88164 -38.03628,-0.84262 -56.27817,-1.64044 -56.27817,-2.46135 0,-1.01843 -2.44851,-0.98832 -2.8288,0.0348 -0.2988,0.80389 -162.81323,-3.55686 -163.63236,-4.39075 -0.34649,-0.35274 194.95961,-73.56143 198.31325,-74.3359 0.56821,-0.13122 11.49609,14.23295 24.28418,31.92038 23.19243,32.07782 23.24673,32.1636 21.52284,34.00313 -3.183,3.39651 -1.40664,5.565 2.01906,2.46479 0.98048,-0.88733 1.94817,-1.16032 2.3749,-0.66998 1.55624,1.78823 9.95726,13.78021 9.95726,14.21341 0,0.5361 -11.13388,0.63433 -11.68739,0.10312 z m -8.88051,-6.31925 c 1.85207,-1.97143 1.91349,-2.27237 0.5691,-2.78826 -1.6802,-0.64475 -5.01371,1.8796 -5.01371,3.7967 0,1.89837 2.17807,1.40419 4.44461,-1.00844 z m -72.666,-3.37321 c -0.29625,-1.10546 -0.54413,-2.31142 -0.55084,-2.67991 -0.007,-0.36849 -0.41418,-0.66998 -0.9055,-0.66998 -0.49132,0 -0.89331,1.20596 -0.89331,2.67991 0,1.87254 0.43508,2.67992 1.44415,2.67992 1.06169,0 1.3015,-0.53229 0.9055,-2.00994 z m -1.45634,-9.10365 c 0,-2.38327 -1.32865,-3.74968 -2.2292,-2.29255 -0.72594,1.1746 0.30355,4.47309 1.39609,4.47309 0.45821,0 0.83311,-0.98124 0.83311,-2.18054 z m -1.56797,-8.98576 c -0.23481,-1.22829 -0.92729,-2.23326 -1.53886,-2.23326 -0.70437,0 -0.95546,0.81856 -0.68502,2.23326 0.2348,1.2283 0.92728,2.23326 1.53886,2.23326 0.70437,0 0.95546,-0.81856 0.68502,-2.23326 z m -1.11194,-7.07337 c 0,-1.9371 -0.99139,-4.09293 -1.88219,-4.09293 -0.9231,0 -1.08772,3.87876 -0.20219,4.76429 1.00792,1.00792 2.08438,0.6612 2.08438,-0.67136 z m -1.78661,-10.34606 c 0,-1.78661 -0.44665,-2.67991 -1.33996,-2.67991 -1.47773,0 -1.56909,0.39392 -0.77691,3.34989 0.77633,2.89688 2.11687,2.47261 2.11687,-0.66998 z m -1.24438,-7.66615 c -0.29823,-0.77716 -0.54223,-1.98312 -0.54223,-2.67991 0,-0.69679 -0.40199,-1.26689 -0.8933,-1.26689 -0.49132,0 -0.89331,1.20596 -0.89331,2.67991 0,1.8659 0.43603,2.67991 1.43553,2.67991 0.94201,0 1.24912,-0.48578 0.89331,-1.41302 z m -1.44921,-9.0833 c -0.007,-0.85981 -0.38789,-2.155 -0.84525,-2.87821 -0.71236,-1.12641 -0.9162,-1.0944 -1.42185,0.22333 -0.70312,1.83228 0.0658,4.21816 1.35944,4.21816 0.50674,0 0.91518,-0.70348 0.90766,-1.56328 z"
       id="path888"
       inkscape:connector-curvature="0"
       transform="scale(0.26458333)" />
    <path
       style="fill:#f4e3d7;fill-opacity:0.5241935;stroke:none;stroke-width:1.19107234;stroke-linecap:round;stroke-miterlimit:4;stroke-dasharray:9.52857848, 4.76428924;stroke-dashoffset:0;paint-order:stroke fill markers"
       d="M 408.89737,490.30283 C 400.7683,479.07249 387.27584,460.43735 378.91412,448.89139 366.0857,431.17777 363.9505,427.7873 365.24434,427.18525 c 4.12975,-1.92163 198.97339,-74.46214 199.2905,-74.19607 0.75665,0.63488 -2.81282,3.75414 -3.84344,3.35865 -1.45084,-0.55674 -5.35919,3.71155 -4.56912,4.98991 0.34526,0.55865 -0.0757,1.79295 -0.93531,2.74289 -1.22517,1.35379 -1.83448,1.5019 -2.8186,0.68516 -1.91343,-1.58801 -6.40027,3.05128 -4.80732,4.97067 0.94413,1.13761 -8.27231,11.84582 -59.82273,69.50557 -33.51634,37.48844 -61.64126,68.90752 -62.49982,69.82019 -1.5028,1.5975 -2.11227,0.89784 -16.34113,-18.75939 z m 8.94235,-1.59392 c 2.24143,-1.9386 2.33761,-2.23337 0.90985,-2.78826 -1.77037,-0.68802 -5.10323,1.76402 -5.10323,3.75453 0,1.78366 1.38211,1.46519 4.19338,-0.96627 z m 8.11411,-7.26257 c 2.18049,-1.52727 2.67336,-3.96922 0.80114,-3.96922 -1.53333,0 -5.27098,3.96667 -4.48153,4.75613 0.8844,0.88439 1.47437,0.75825 3.68039,-0.78691 z m 8.71659,-8.09182 c 2.35551,-1.54339 2.97216,-3.91713 1.01759,-3.91713 -1.53332,0 -5.27097,3.96666 -4.48152,4.75612 0.8302,0.8302 0.96699,0.79707 3.46393,-0.83899 z m 8.93304,-8.03974 c 2.35551,-1.54339 2.97216,-3.91713 1.01759,-3.91713 -1.53332,0 -5.27097,3.96666 -4.48152,4.75612 0.8302,0.8302 0.96699,0.79707 3.46393,-0.83899 z m 9.22132,-8.41127 c 1.35611,-1.1298 1.9035,-2.28332 1.53688,-3.2387 -0.49032,-1.27777 -0.93359,-1.13499 -3.19117,1.02791 -1.44197,1.3815 -2.41133,2.85228 -2.15415,3.26841 0.68758,1.11252 1.46157,0.89758 3.80844,-1.05762 z m 8.93304,-8.03974 c 1.35611,-1.1298 1.9035,-2.28331 1.53689,-3.23869 -0.49033,-1.27778 -0.9336,-1.135 -3.19118,1.0279 -1.44196,1.3815 -2.41133,2.85228 -2.15415,3.26841 0.68758,1.11252 1.46157,0.89758 3.80844,-1.05762 z m 8.99786,-8.39264 c 3.01288,-3.20705 1.38594,-4.8327 -1.79071,-1.78929 -1.40258,1.34376 -2.33973,2.78368 -2.08255,3.19981 0.7617,1.23245 1.71723,0.88448 3.87326,-1.41052 z m 8.93304,-8.03974 c 3.01288,-3.20705 1.38594,-4.8327 -1.79071,-1.78929 -1.40258,1.34377 -2.33973,2.78368 -2.08255,3.19982 0.7617,1.23244 1.71723,0.88447 3.87326,-1.41053 z m 8.93305,-8.03974 c 3.01287,-3.20705 1.38593,-4.8327 -1.79071,-1.78929 -1.40259,1.34377 -2.33974,2.78369 -2.08255,3.19982 0.76169,1.23244 1.71722,0.88447 3.87326,-1.41053 z m 9.00628,-8.11769 c 2.92789,-3.11661 1.19822,-4.54441 -2.07276,-1.71101 -1.37957,1.19502 -2.26031,2.57401 -1.95721,3.06442 0.85289,1.38002 1.74282,1.08115 4.02997,-1.35341 z m 8.93304,-8.03974 c 1.29949,-1.38324 1.78792,-2.55788 1.27235,-3.05989 -1.10897,-1.0798 -6.17844,2.99573 -5.36449,4.31271 0.91726,1.48416 1.76459,1.22474 4.09214,-1.25282 z m 8.93304,-8.03974 c 1.29949,-1.38324 1.78793,-2.55788 1.27235,-3.05989 -1.10897,-1.0798 -6.17844,2.99573 -5.36449,4.31271 0.91726,1.48416 1.76459,1.22474 4.09214,-1.25282 z m 8.93305,-8.03974 c 1.34336,-1.42995 1.79866,-2.55558 1.254,-3.10024 -1.15924,-1.15924 -6.23937,2.90779 -5.37636,4.30418 0.9486,1.53486 1.77656,1.29306 4.12236,-1.20394 z m 8.93304,-8.03974 c 1.34337,-1.42995 1.79867,-2.55557 1.254,-3.10024 -1.15924,-1.15924 -6.23937,2.90779 -5.37636,4.30418 0.9486,1.53486 1.77656,1.29306 4.12236,-1.20394 z m 8.93304,-8.03973 c 1.47745,-1.57268 1.82731,-2.52695 1.1681,-3.18615 -1.23204,-1.23204 -6.21054,2.90136 -5.28951,4.39162 0.94762,1.53327 1.77617,1.29092 4.12141,-1.20547 z"
       id="path890"
       inkscape:connector-curvature="0"
       transform="scale(0.26458333)" />
    <path
       style="fill:#f4e3d7;fill-opacity:0.52822577;stroke:none;stroke-width:1.19107234;stroke-linecap:round;stroke-miterlimit:4;stroke-dasharray:9.52857848, 4.76428924;stroke-dashoffset:0;paint-order:stroke fill markers"
       d="m 459.74612,722.52968 c -0.28713,-1.38625 -6.15852,-36.48836 -13.04752,-78.00467 -6.88901,-41.51631 -12.76108,-76.62153 -13.04905,-78.0116 -0.46285,-2.23427 -0.29006,-2.49329 1.48985,-2.23326 1.10739,0.16177 2.17513,-0.17935 2.37275,-0.75805 0.20625,-0.60395 -0.69924,-1.17478 -2.12555,-1.33996 -2.42519,-0.28085 -2.52241,-0.51303 -4.04811,-9.66746 -0.85978,-5.15883 -1.74252,-10.78665 -1.96165,-12.50626 -0.21913,-1.71961 -1.23255,-7.74942 -2.25206,-13.39956 -1.0195,-5.65015 -1.8563,-11.18231 -1.85956,-12.29368 -0.004,-1.42057 20.88616,-25.35829 70.34178,-80.60295 38.69124,-43.22025 70.43186,-78.28877 70.5347,-77.93005 0.10286,0.35872 -11.38559,40.9806 -25.52987,90.27083 -23.36153,81.41066 -25.91494,89.71699 -27.87943,90.69274 -2.4754,1.22952 -3.24325,4.42865 -1.73803,7.24119 0.838,1.56582 0.5428,3.57163 -1.58113,10.74337 -2.14839,7.25436 -2.99025,8.95959 -4.74731,9.61593 -2.01043,0.75098 -2.04143,0.86745 -0.52811,1.98386 1.5138,1.11675 0.29517,5.77038 -20.86183,79.66583 -12.35825,43.16389 -22.59065,78.60905 -22.73868,78.76701 -0.14802,0.15796 -0.50406,-0.84701 -0.79119,-2.23326 z m 39.65743,-157.06209 c 0,-0.83375 -0.84368,-1.33996 -2.23327,-1.33996 -2.33613,0 -3.03817,1.31294 -1.11663,2.0883 2.12749,0.85845 3.3499,0.58538 3.3499,-0.74834 z m -25.90583,-0.89331 c 0,-0.8933 -0.8933,-1.33995 -2.67991,-1.33995 -1.78661,0 -2.67991,0.44665 -2.67991,1.33995 0,0.89331 0.8933,1.33996 2.67991,1.33996 1.78661,0 2.67991,-0.44665 2.67991,-1.33996 z m 8.93305,0.44666 c 0,-0.49132 -0.57011,-0.89331 -1.2669,-0.89331 -0.69679,0 -1.90275,-0.24399 -2.67991,-0.54222 -0.92724,-0.35582 -1.41302,-0.0487 -1.41302,0.8933 0,0.9995 0.81401,1.43553 2.67991,1.43553 1.47395,0 2.67992,-0.40199 2.67992,-0.8933 z m 8.03973,0 c 0,-0.49132 -1.00496,-0.89331 -2.23326,-0.89331 -1.22829,0 -2.23326,0.40199 -2.23326,0.89331 0,0.49131 1.00497,0.8933 2.23326,0.8933 1.2283,0 2.23326,-0.40199 2.23326,-0.8933 z m -43.7719,-1.33996 c 0,-0.8933 -0.89331,-1.33996 -2.67992,-1.33996 -1.7866,0 -2.67991,0.44666 -2.67991,1.33996 0,0.8933 0.89331,1.33996 2.67991,1.33996 1.78661,0 2.67992,-0.44666 2.67992,-1.33996 z m 8.93304,0.44665 c 0,-0.49131 -1.20596,-0.8933 -2.67991,-0.8933 -1.47396,0 -2.67992,0.40199 -2.67992,0.8933 0,0.49132 1.20596,0.89331 2.67992,0.89331 1.47395,0 2.67991,-0.40199 2.67991,-0.89331 z m 8.93304,0 c 0,-0.49131 -1.20596,-0.8933 -2.67991,-0.8933 -1.47395,0 -2.67991,0.40199 -2.67991,0.8933 0,0.49132 1.20596,0.89331 2.67991,0.89331 1.47395,0 2.67991,-0.40199 2.67991,-0.89331 z m 28.36628,-24.34254 c -0.22201,-0.673 -2.38097,-1.22306 -5.43427,-1.38453 -4.09524,-0.21657 -5.06592,-0.003 -5.06592,1.11663 0,1.09878 1.12157,1.38453 5.43426,1.38453 3.94833,0 5.33355,-0.30533 5.06593,-1.11663 z m 16.29893,0.22333 c 0,-0.49629 -2.38214,-0.89331 -5.35982,-0.89331 -2.97768,0 -5.35983,0.39702 -5.35983,0.89331 0,0.49628 2.38215,0.8933 5.35983,0.8933 2.97768,0 5.35982,-0.39702 5.35982,-0.8933 z m -47.56491,-1.11663 c -0.42398,-1.28415 -11.39317,-2.11359 -11.39317,-0.86149 0,1.5816 1.29824,1.97812 6.47646,1.97812 3.82939,0 5.18382,-0.3076 4.91671,-1.11663 z m 15.40596,0.22332 c 0,-0.49628 -2.38214,-0.8933 -5.35983,-0.8933 -2.97768,0 -5.35982,0.39702 -5.35982,0.8933 0,0.49629 2.38214,0.89331 5.35982,0.89331 2.97769,0 5.35983,-0.39702 5.35983,-0.89331 z m -31.26565,-0.8933 c 0,-0.50391 -2.53103,-0.8933 -5.80647,-0.8933 -3.27545,0 -5.80648,0.38939 -5.80648,0.8933 0,0.50391 2.53103,0.8933 5.80648,0.8933 3.27544,0 5.80647,-0.38939 5.80647,-0.8933 z"
       id="path892"
       inkscape:connector-curvature="0"
       transform="scale(0.26458333)" />
  </g>
</svg>
