<?xml version="1.0" encoding="UTF-8" standalone="no"?>
<!-- Created with Inkscape (http://www.inkscape.org/) -->

<svg
   xmlns:dc="http://purl.org/dc/elements/1.1/"
   xmlns:cc="http://creativecommons.org/ns#"
   xmlns:rdf="http://www.w3.org/1999/02/22-rdf-syntax-ns#"
   xmlns:svg="http://www.w3.org/2000/svg"
   xmlns="http://www.w3.org/2000/svg"
   xmlns:sodipodi="http://sodipodi.sourceforge.net/DTD/sodipodi-0.dtd"
   xmlns:inkscape="http://www.inkscape.org/namespaces/inkscape"
   width="326.117"
   height="327.77133"
   viewBox="0 0 86.285122 86.722834"
   version="1.1"
   id="svg8"
   inkscape:version="0.92.4 (5da689c313, 2019-01-14)"
   sodipodi:docname="17-00.svg">
  <defs
     id="defs2" />
  <sodipodi:namedview
     id="base"
     pagecolor="#ffffff"
     bordercolor="#666666"
     borderopacity="1.0"
     inkscape:pageopacity="0.0"
     inkscape:pageshadow="2"
     inkscape:zoom="2.2332643"
     inkscape:cx="163.0585"
     inkscape:cy="163.88567"
     inkscape:document-units="mm"
     inkscape:current-layer="layer1"
     showgrid="false"
     inkscape:window-width="1920"
     inkscape:window-height="1009"
     inkscape:window-x="0"
     inkscape:window-y="0"
     inkscape:window-maximized="1"
     inkscape:snap-global="false"
     units="px"
     fit-margin-top="2"
     fit-margin-left="2"
     fit-margin-right="2"
     fit-margin-bottom="2">
    <inkscape:grid
       type="xygrid"
       id="grid10"
       originx="-49.436393"
       originy="-166.15966" />
  </sodipodi:namedview>
  <metadata
     id="metadata5">
    <rdf:RDF>
      <cc:Work
         rdf:about="">
        <dc:format>image/svg+xml</dc:format>
        <dc:type
           rdf:resource="http://purl.org/dc/dcmitype/StillImage" />
        <dc:title />
      </cc:Work>
    </rdf:RDF>
  </metadata>
  <g
     inkscape:label="Layer 1"
     inkscape:groupmode="layer"
     id="layer1"
     transform="translate(-49.436395,-44.117507)">
    <g
       aria-label="H"
       style="font-style:italic;font-variant:normal;font-weight:normal;font-stretch:normal;font-size:4.23333311px;line-height:3.88055563px;font-family:'GOST type B';-inkscape-font-specification:'GOST type B Italic';text-align:start;letter-spacing:0px;word-spacing:0px;text-anchor:start;fill:#0000ff;fill-opacity:1;stroke:none;stroke-width:0.26458332"
       id="text992">
      <path
         d="m 93.598929,112.19319 0.204638,-1.01906 q 0.01034,-0.0579 0.06201,-0.10128 0.05374,-0.0434 0.111621,-0.0434 0.05581,0 0.09302,0.0372 0.03721,0.0351 0.02274,0.10748 l -0.520898,2.60449 q -0.0124,0.062 -0.06821,0.10956 -0.05994,0.0393 -0.109554,0.0393 -0.05374,0 -0.09302,-0.0351 -0.03514,-0.0351 -0.02067,-0.10748 l 0.260449,-1.30225 h -1.157552 l -0.260449,1.30225 q -0.01447,0.0682 -0.06408,0.10955 -0.04547,0.0351 -0.109554,0.0351 -0.05788,0 -0.09508,-0.0351 -0.03514,-0.0372 -0.02067,-0.10955 l 0.520898,-2.6045 q 0.0124,-0.0579 0.06408,-0.10748 0.05168,-0.0372 0.109554,-0.0372 0.05581,0 0.09302,0.0372 0.03721,0.0351 0.02274,0.10748 l -0.202571,1.01286 z"
         style="fill:#0000ff;stroke-width:0.26458332"
         id="path998" />
    </g>
    <path
       style="fill:#ffaaaa;fill-opacity:0.50196078;stroke:none;stroke-width:0.08819444;stroke-linecap:butt;stroke-linejoin:miter;stroke-opacity:1"
       d="m 86.799919,60.292368 2.513092,-1.308251 10.853479,11.259222 23.38064,33.879101 -15.32539,10.01335 -15.356659,-38.611774 z"
       id="path920"
       inkscape:connector-curvature="0"
       sodipodi:nodetypes="ccccccc" />
    <path
       style="fill:none;stroke:#000000;stroke-width:0.26458332;stroke-linecap:butt;stroke-linejoin:miter;stroke-opacity:1"
       d="m 53.282738,109.86068 23.736256,15.82415 h 31.648346 l 23.73625,-15.82415"
       id="path12"
       inkscape:connector-curvature="0" />
    <path
       inkscape:connector-curvature="0"
       id="path14"
       d="M 53.282744,109.86062 77.019,94.036471 h 31.64834 l 23.73625,15.824149"
       style="fill:none;stroke:#000000;stroke-width:0.26499999;stroke-linecap:butt;stroke-linejoin:miter;stroke-miterlimit:4;stroke-dasharray:2.1199999, 2.1199999;stroke-dashoffset:0;stroke-opacity:1" />
    <path
       style="fill:none;stroke:#000000;stroke-width:0.26458332px;stroke-linecap:butt;stroke-linejoin:miter;stroke-opacity:1"
       d="M 92.812498,48.891393 53.282743,109.86062"
       id="path829"
       inkscape:connector-curvature="0" />
    <path
       inkscape:connector-curvature="0"
       id="path831"
       d="M 92.812498,48.891393 77.018994,125.68483"
       style="fill:none;stroke:#000000;stroke-width:0.26458332px;stroke-linecap:butt;stroke-linejoin:miter;stroke-opacity:1"
       sodipodi:nodetypes="cc" />
    <path
       sodipodi:nodetypes="cc"
       style="fill:none;stroke:#000000;stroke-width:0.26458332px;stroke-linecap:butt;stroke-linejoin:miter;stroke-opacity:1"
       d="M 92.812498,48.891393 108.66734,125.68483"
       id="path833"
       inkscape:connector-curvature="0" />
    <path
       inkscape:connector-curvature="0"
       id="path835"
       d="M 92.812498,48.891393 132.40359,109.86062"
       style="fill:none;stroke:#000000;stroke-width:0.26458332px;stroke-linecap:butt;stroke-linejoin:miter;stroke-opacity:1"
       sodipodi:nodetypes="cc" />
    <path
       sodipodi:nodetypes="cc"
       style="fill:none;stroke:#000000;stroke-width:0.26499999;stroke-linecap:butt;stroke-linejoin:miter;stroke-miterlimit:4;stroke-dasharray:1.58999992, 1.58999992;stroke-dashoffset:0;stroke-opacity:1"
       d="M 92.812498,48.891393 108.66734,94.036471"
       id="path837"
       inkscape:connector-curvature="0" />
    <path
       inkscape:connector-curvature="0"
       id="path839"
       d="M 92.812498,48.891393 77.019,94.036471"
       style="fill:none;stroke:#000000;stroke-width:0.26499999;stroke-linecap:butt;stroke-linejoin:miter;stroke-miterlimit:4;stroke-dasharray:1.58999992, 1.58999992;stroke-dashoffset:0;stroke-opacity:1"
       sodipodi:nodetypes="cc" />
    <path
       style="fill:none;stroke:#0000ff;stroke-width:0.26499999;stroke-linecap:butt;stroke-linejoin:miter;stroke-miterlimit:4;stroke-dasharray:1.05999995, 1.05999995;stroke-dashoffset:0;stroke-opacity:1"
       d="M 92.812496,48.891393 V 110.05635"
       id="path860"
       inkscape:connector-curvature="0" />
    <path
       style="fill:none;stroke:#008000;stroke-width:0.1763889;stroke-linecap:butt;stroke-linejoin:miter;stroke-miterlimit:4;stroke-dasharray:1.05833337, 1.05833337;stroke-dashoffset:0;stroke-opacity:1"
       d="m 65.222336,101.93742 55.180324,15.82377"
       id="path874"
       inkscape:connector-curvature="0"
       sodipodi:nodetypes="cc" />
    <path
       style="fill:none;stroke:#008000;stroke-width:0.176;stroke-linecap:butt;stroke-linejoin:miter;stroke-miterlimit:4;stroke-dasharray:1.05599998, 1.05599998;stroke-dashoffset:0;stroke-opacity:1"
       d="M 65.222336,101.93742 92.812496,48.891393 120.40266,117.76119"
       id="path878"
       inkscape:connector-curvature="0" />
    <path
       style="opacity:1;fill:#eeffaa;fill-opacity:0.50196078;stroke:none;stroke-width:0.25558281;stroke-linecap:round;stroke-linejoin:bevel;stroke-miterlimit:4;stroke-dasharray:1.53591172, 1.53591172;stroke-dashoffset:0;stroke-opacity:1;paint-order:stroke markers fill"
       d="m 276.61155,393.3911 c -28.03617,-8.07405 -28.3692,-8.18145 -28.32834,-9.13625 0.038,-0.88804 99.39003,-192.44238 100.26339,-193.31149 0.25781,-0.25655 0.3113,-0.0663 0.1617,0.57506 -0.12296,0.52714 -7.46914,36.23845 -16.32486,79.35847 -8.85572,43.12001 -16.37545,79.65078 -16.71052,81.17949 l -0.60922,2.77946 h -1.87839 c -1.4141,0 -1.87839,0.14214 -1.87839,0.57506 0,0.42597 0.44727,0.57506 1.72518,0.57506 0.94885,0 1.72519,0.14369 1.72519,0.31931 0,0.17562 -2.07022,10.37587 -4.60049,22.66722 -2.53027,12.29135 -4.60049,22.41251 -4.60049,22.49145 0,0.25975 -0.34421,0.16375 -28.94476,-8.07284 z m -18.01482,-15.41867 c 3.24738,-2.16109 3.61447,-2.55029 2.85062,-3.02238 -0.58642,-0.36243 -7.21711,4.09572 -6.98629,4.69724 0.29862,0.77819 0.68425,0.62201 4.13567,-1.67486 z m 13.29159,-8.8559 c 1.85317,-1.21242 3.3721,-2.33921 3.37541,-2.50397 0.0191,-0.95367 -1.4553,-0.45678 -4.33891,1.46222 -2.1631,1.43951 -3.19871,2.35606 -3.06268,2.71055 0.11304,0.29458 0.30706,0.5356 0.43115,0.5356 0.1241,0 1.74186,-0.99198 3.59503,-2.2044 z m 13.16123,-8.77931 c 3.00743,-2.00141 3.63691,-2.69136 3.01911,-3.30915 -0.27584,-0.27584 -7.0483,4.1965 -7.0483,4.6545 0,0.31183 0.39853,0.82075 0.64272,0.82075 0.0724,0 1.59626,-0.97475 3.38647,-2.1661 z m 18.58989,-4.92632 c 0,-0.47631 -0.72416,-0.57506 -4.21712,-0.57506 -3.49297,0 -4.21712,0.0987 -4.21712,0.57506 0,0.47631 0.72415,0.57506 4.21712,0.57506 3.49296,0 4.21712,-0.0987 4.21712,-0.57506 z m -11.88461,-0.19169 c 0,-0.21085 -0.25877,-0.38337 -0.57506,-0.38337 -0.31628,0 -0.57506,0.17252 -0.57506,0.38337 0,0.21086 0.25878,0.38338 0.57506,0.38338 0.31629,0 0.57506,-0.17252 0.57506,-0.38338 z m 3.15968,-8.59023 c 0.55057,-1.56178 0.89871,-2.94193 0.77366,-3.06699 -0.63779,-0.63778 -1.1916,0.0132 -2.00806,2.3604 -0.49508,1.42327 -0.97674,2.80342 -1.07035,3.06699 -0.0981,0.27621 0.14199,0.47922 0.56676,0.47922 0.5706,0 0.96293,-0.641 1.73799,-2.83962 z m 3.89668,-11.22764 c 0.75855,-2.25611 0.88009,-3.01835 0.51706,-3.24272 -0.26102,-0.16132 -0.58406,-0.1711 -0.71787,-0.0217 -0.50408,0.56266 -1.91792,5.44552 -1.6856,5.82141 0.51971,0.84092 0.93175,0.28242 1.88641,-2.55695 z m 3.91604,-11.06575 c 1.01853,-2.65911 1.11891,-3.62006 0.37816,-3.62006 -0.56988,0 -0.68067,0.2092 -1.8004,3.39951 -0.39721,1.13173 -0.62246,2.21908 -0.50055,2.41632 0.45189,0.73119 1.07361,0.0212 1.92279,-2.19577 z m 4.1007,-11.83523 c 0.83632,-2.48741 0.88229,-2.8768 0.36314,-3.07601 -0.7316,-0.28074 -0.60639,-0.46643 -1.53858,2.28189 -0.42911,1.26513 -0.90353,2.60215 -1.05427,2.97115 -0.20743,0.50777 -0.0861,0.6709 0.49905,0.6709 0.61993,0 0.96286,-0.5643 1.73066,-2.84793 z m 3.91974,-11.15441 c 1.05595,-2.89523 1.06422,-3.52531 0.0411,-3.13271 -0.64569,0.24777 -2.3353,5.04896 -1.97944,5.62475 0.51036,0.82579 0.92055,0.29841 1.93829,-2.49204 z m 3.93416,-11.23171 c 0.98401,-3.05526 1.02577,-3.51901 0.31686,-3.51901 -0.30687,0 -0.94462,1.18101 -1.5335,2.83979 -1.19844,3.37584 -1.19059,3.2942 -0.31686,3.2942 0.51625,0 0.90453,-0.66212 1.5335,-2.61498 z m 3.9987,-11.45718 c 0.79198,-2.22991 0.93322,-3.02149 0.57826,-3.24086 -0.68065,-0.42066 -0.93514,-0.0308 -1.97439,3.02473 -0.88158,2.59196 -0.86186,2.98738 0.15651,3.13831 0.10542,0.0156 0.66325,-1.29936 1.23962,-2.92218 z m 3.99656,-11.40106 c 1.0652,-3.15886 1.08401,-3.37352 0.2815,-3.21211 -0.35769,0.0719 -1.00117,1.14896 -1.5335,2.56671 -1.08454,2.88845 -1.14288,3.59977 -0.28149,3.4318 0.40372,-0.0787 0.96332,-1.09552 1.53349,-2.7864 z m 3.93331,-11.26215 c 0.82374,-2.32302 0.8503,-3.51893 0.0782,-3.51893 -0.19842,0 -0.807,1.32724 -1.35241,2.94941 -0.75855,2.25611 -0.88009,3.01835 -0.51707,3.24272 0.63241,0.39085 0.78618,0.16137 1.79132,-2.6732 z m 3.89007,-11.09057 c 0.46975,-1.42327 0.93358,-2.80342 1.03071,-3.06699 0.10137,-0.27506 -0.1276,-0.47922 -0.53746,-0.47922 -0.54036,0 -0.96269,0.69126 -1.73606,2.84155 -0.5621,1.56286 -0.92055,2.94301 -0.79655,3.067 0.66459,0.66459 1.27287,-0.04 2.03936,-2.36234 z m 4.07887,-11.73683 c 0.68006,-1.89256 0.82878,-2.74858 0.52953,-3.04783 -0.59494,-0.59494 -0.95852,-0.0623 -1.89937,2.78282 -0.98047,2.96484 -0.99446,3.18006 -0.19641,3.02066 0.37527,-0.075 0.99441,-1.16428 1.56625,-2.75565 z m 4.10352,-11.641 c 0.84198,-2.47554 0.87049,-2.75554 0.29244,-2.87213 -0.87244,-0.17596 -3.04504,5.41542 -2.28642,5.88428 0.70177,0.43371 0.94899,0.0602 1.99398,-3.01215 z m 3.7927,-10.91587 c 0.54129,-1.51865 0.89912,-2.8988 0.79517,-3.067 -0.52923,-0.85632 -1.22709,-0.0446 -1.98516,2.30916 -0.98366,3.05417 -1.02569,3.51901 -0.3182,3.51901 0.30349,0 0.93817,-1.16196 1.50819,-2.76117 z m 4.12415,-11.70212 c 0.75122,-2.23906 0.74943,-3.17192 -0.006,-3.17192 -0.17702,0 -0.79932,1.30912 -1.38289,2.90916 -0.87692,2.40437 -0.96858,2.96629 -0.52823,3.23844 0.66884,0.41336 0.9011,0.0529 1.91721,-2.97568 z"
       id="path880"
       inkscape:connector-curvature="0"
       transform="scale(0.26458333)" />
    <path
       style="opacity:1;fill:#eeffaa;fill-opacity:0.50196078;stroke:none;stroke-width:0.25558281;stroke-linecap:round;stroke-linejoin:bevel;stroke-miterlimit:4;stroke-dasharray:1.53591172, 1.53591172;stroke-dashoffset:0;stroke-opacity:1;paint-order:stroke markers fill"
       d="m 376.38469,422.01768 c -19.84148,-5.73768 -23.28998,-6.83861 -23.28998,-7.43531 0,-0.38522 -0.34504,-0.91588 -0.76675,-1.17925 -0.60886,-0.38024 -0.76675,-0.89404 -0.76675,-2.49518 0,-1.74356 -0.10114,-2.01634 -0.74762,-2.01634 -0.63939,0 -0.76425,0.31336 -0.86259,2.16472 -0.0801,1.50807 -0.30785,2.28575 -0.75082,2.5637 -0.48488,0.30426 -5.49127,-0.99501 -21.08558,-5.47215 -11.24736,-3.22912 -20.63756,-5.97859 -20.86712,-6.10991 -0.28249,-0.16161 1.10735,-7.61083 4.30048,-23.04955 2.59483,-12.54592 4.72348,-22.85389 4.73034,-22.90661 0.007,-0.0527 0.78882,-0.0958 1.73767,-0.0958 1.27791,0 1.72518,-0.14909 1.72518,-0.57506 0,-0.41532 -0.42597,-0.57506 -1.53349,-0.57506 -0.84343,0 -1.53863,-0.12939 -1.54489,-0.28753 -0.006,-0.15814 7.45516,-36.63974 16.58093,-81.07021 12.93959,-62.99868 16.61764,-80.32144 16.7073,-78.68756 0.0967,1.76252 0.23063,2.09512 0.84346,2.09512 0.61194,0 0.74688,-0.33228 0.84346,-2.07702 0.089,-1.60772 5.56505,24.33202 24.23515,114.80042 13.26609,64.2826 24.19747,117.40407 24.29193,118.04772 0.0945,0.64366 0.0228,1.15352 -0.15928,1.13304 -0.18208,-0.0205 -10.81154,-3.06794 -23.62103,-6.77214 z M 351.4845,403.04142 c 0.10451,-2.00034 0.0434,-2.20068 -0.67091,-2.20068 -0.70599,0 -0.78588,0.23669 -0.78588,2.32836 0,2.01054 0.0916,2.31093 0.67091,2.20068 0.52922,-0.10072 0.69518,-0.59242 0.78588,-2.32836 z m 0,-7.85545 c -0.0862,-1.65278 -0.25888,-2.2044 -0.69004,-2.2044 -0.43116,0 -0.60383,0.55162 -0.69003,2.2044 -0.10537,2.02025 -0.0477,2.20441 0.69003,2.20441 0.73776,0 0.79541,-0.18416 0.69004,-2.20441 z m 0.0767,-7.95501 c 0,-1.85298 -0.0929,-2.10856 -0.76675,-2.10856 -0.67381,0 -0.76675,0.25558 -0.76675,2.10856 0,1.85297 0.0929,2.10856 0.76675,2.10856 0.67381,0 0.76675,-0.25559 0.76675,-2.10856 z m 0,-8.05086 c 0,-1.85297 -0.0929,-2.10856 -0.76675,-2.10856 -0.67381,0 -0.76675,0.25559 -0.76675,2.10856 0,1.85297 0.0929,2.10856 0.76675,2.10856 0.67381,0 0.76675,-0.25559 0.76675,-2.10856 z m 0,-8.05086 c 0,-1.85297 -0.0929,-2.10856 -0.76675,-2.10856 -0.67381,0 -0.76675,0.25559 -0.76675,2.10856 0,1.85298 0.0929,2.10856 0.76675,2.10856 0.67381,0 0.76675,-0.25558 0.76675,-2.10856 z m 0,-8.05086 c 0,-1.85297 -0.0929,-2.10855 -0.76675,-2.10855 -0.67381,0 -0.76675,0.25558 -0.76675,2.10855 0,1.85298 0.0929,2.10856 0.76675,2.10856 0.67381,0 0.76675,-0.25558 0.76675,-2.10856 z m 0,-8.05085 c 0,-1.85298 -0.0929,-2.10856 -0.76675,-2.10856 -0.56228,0 -0.76675,0.25558 -0.76675,0.95843 0,0.94716 -0.0383,0.95844 -3.25868,0.95844 -2.64102,0 -3.25868,0.109 -3.25868,0.57506 0,0.46606 0.61766,0.57506 3.25868,0.57506 2.64103,0 3.25868,0.109 3.25868,0.57506 0,0.31948 0.34078,0.57506 0.76675,0.57506 0.67381,0 0.76675,-0.25558 0.76675,-2.10855 z m -15.71834,0.38337 c 0,-0.47631 -0.72415,-0.57506 -4.21712,-0.57506 -3.49296,0 -4.21711,0.0987 -4.21711,0.57506 0,0.47631 0.72415,0.57506 4.21711,0.57506 3.49297,0 4.21712,-0.0987 4.21712,-0.57506 z m 31.82006,0 c 0,-0.47631 -0.72415,-0.57506 -4.21712,-0.57506 -3.49296,0 -4.21711,0.0987 -4.21711,0.57506 0,0.47631 0.72415,0.57506 4.21711,0.57506 3.49297,0 4.21712,-0.0987 4.21712,-0.57506 z m 16.10172,0 c 0,-0.47631 -0.72416,-0.57506 -4.21712,-0.57506 -3.49297,0 -4.21712,0.0987 -4.21712,0.57506 0,0.47631 0.72415,0.57506 4.21712,0.57506 3.49296,0 4.21712,-0.0987 4.21712,-0.57506 z m -32.20344,-8.43423 c 0,-1.85298 -0.0929,-2.10856 -0.76675,-2.10856 -0.67381,0 -0.76675,0.25558 -0.76675,2.10856 0,1.85297 0.0929,2.10856 0.76675,2.10856 0.67381,0 0.76675,-0.25559 0.76675,-2.10856 z m 0,-8.05086 c 0,-1.85298 -0.0929,-2.10856 -0.76675,-2.10856 -0.67381,0 -0.76675,0.25558 -0.76675,2.10856 0,1.85297 0.0929,2.10856 0.76675,2.10856 0.67381,0 0.76675,-0.25559 0.76675,-2.10856 z m -0.0767,-7.9853 c 0.10437,-1.97357 0.0425,-2.17412 -0.67091,-2.17412 -0.69402,0 -0.78588,0.23899 -0.78588,2.04466 0,1.12457 0.11861,2.16327 0.26357,2.30824 0.64282,0.64281 1.08689,-0.16805 1.19322,-2.17878 z m 0,-8.0243 c 0.10451,-2.00034 0.0434,-2.20068 -0.67091,-2.20068 -0.70599,0 -0.78588,0.23669 -0.78588,2.32836 0,2.01054 0.0916,2.31093 0.67091,2.20068 0.52922,-0.10072 0.69518,-0.59242 0.78588,-2.32836 z m 0,-7.85545 c -0.0862,-1.65278 -0.25888,-2.2044 -0.69004,-2.2044 -0.43116,0 -0.60383,0.55162 -0.69003,2.2044 -0.10537,2.02025 -0.0477,2.20441 0.69003,2.20441 0.73776,0 0.79541,-0.18416 0.69004,-2.20441 z m 0.0767,-7.95501 c 0,-1.85298 -0.0929,-2.10856 -0.76675,-2.10856 -0.67381,0 -0.76675,0.25558 -0.76675,2.10856 0,1.85297 0.0929,2.10856 0.76675,2.10856 0.67381,0 0.76675,-0.25559 0.76675,-2.10856 z m 0,-8.05086 c 0,-1.85297 -0.0929,-2.10856 -0.76675,-2.10856 -0.67381,0 -0.76675,0.25559 -0.76675,2.10856 0,1.85297 0.0929,2.10856 0.76675,2.10856 0.67381,0 0.76675,-0.25559 0.76675,-2.10856 z m 0,-8.05086 c 0,-1.85297 -0.0929,-2.10856 -0.76675,-2.10856 -0.67381,0 -0.76675,0.25559 -0.76675,2.10856 0,1.85298 0.0929,2.10856 0.76675,2.10856 0.67381,0 0.76675,-0.25558 0.76675,-2.10856 z m 0,-8.05086 c 0,-1.85297 -0.0929,-2.10855 -0.76675,-2.10855 -0.67381,0 -0.76675,0.25558 -0.76675,2.10855 0,1.85298 0.0929,2.10856 0.76675,2.10856 0.67381,0 0.76675,-0.25558 0.76675,-2.10856 z m 0,-8.05085 c 0,-1.85298 -0.0929,-2.10856 -0.76675,-2.10856 -0.67381,0 -0.76675,0.25558 -0.76675,2.10856 0,1.85297 0.0929,2.10855 0.76675,2.10855 0.67381,0 0.76675,-0.25558 0.76675,-2.10855 z m 0,-8.05086 c 0,-1.85298 -0.0929,-2.10856 -0.76675,-2.10856 -0.67381,0 -0.76675,0.25558 -0.76675,2.10856 0,1.85297 0.0929,2.10856 0.76675,2.10856 0.67381,0 0.76675,-0.25559 0.76675,-2.10856 z m 0,-8.05086 c 0,-1.85298 -0.0929,-2.10856 -0.76675,-2.10856 -0.67381,0 -0.76675,0.25558 -0.76675,2.10856 0,1.85297 0.0929,2.10856 0.76675,2.10856 0.67381,0 0.76675,-0.25559 0.76675,-2.10856 z m -0.0767,-7.9853 c 0.10437,-1.97357 0.0425,-2.17412 -0.67091,-2.17412 -0.69402,0 -0.78588,0.23899 -0.78588,2.04466 0,1.12457 0.11861,2.16327 0.26357,2.30824 0.64282,0.64281 1.08689,-0.16805 1.19322,-2.17878 z m 0,-8.0243 c 0.10451,-2.00034 0.0434,-2.20068 -0.67091,-2.20068 -0.70599,0 -0.78588,0.23669 -0.78588,2.32836 0,2.01054 0.0916,2.31093 0.67091,2.20068 0.52922,-0.10072 0.69518,-0.59242 0.78588,-2.32836 z m 0,-7.85545 c -0.0862,-1.65278 -0.25888,-2.2044 -0.69004,-2.2044 -0.43116,0 -0.60383,0.55162 -0.69003,2.2044 -0.10537,2.02025 -0.0477,2.20441 0.69003,2.20441 0.73776,0 0.79541,-0.18416 0.69004,-2.20441 z m 0,-8.05085 c -0.0862,-1.65279 -0.25888,-2.20441 -0.69004,-2.20441 -0.43116,0 -0.60383,0.55162 -0.69003,2.20441 -0.10537,2.02024 -0.0477,2.2044 0.69003,2.2044 0.73776,0 0.79541,-0.18416 0.69004,-2.2044 z m 0.0767,-7.95502 c 0,-1.85297 -0.0929,-2.10856 -0.76675,-2.10856 -0.67381,0 -0.76675,0.25559 -0.76675,2.10856 0,1.85298 0.0929,2.10856 0.76675,2.10856 0.67381,0 0.76675,-0.25558 0.76675,-2.10856 z m 0,-8.05086 c 0,-1.85297 -0.0929,-2.10856 -0.76675,-2.10856 -0.67381,0 -0.76675,0.25559 -0.76675,2.10856 0,1.85298 0.0929,2.10856 0.76675,2.10856 0.67381,0 0.76675,-0.25558 0.76675,-2.10856 z m 0,-8.05086 c 0,-1.85297 -0.0929,-2.10855 -0.76675,-2.10855 -0.67381,0 -0.76675,0.25558 -0.76675,2.10855 0,1.85298 0.0929,2.10856 0.76675,2.10856 0.67381,0 0.76675,-0.25558 0.76675,-2.10856 z"
       id="path882"
       inkscape:connector-curvature="0"
       transform="scale(0.26458333)" />
    <path
       style="opacity:1;fill:#eeffaa;fill-opacity:0.50196078;stroke:none;stroke-width:0.25558281;stroke-linecap:round;stroke-linejoin:bevel;stroke-miterlimit:4;stroke-dasharray:1.53591172, 1.53591172;stroke-dashoffset:0;stroke-opacity:1;paint-order:stroke markers fill"
       d="M 427.66099,436.70966 401.97492,429.30677 378.13213,313.95881 C 365.0186,250.51743 354.2889,198.26581 354.28834,197.8441 c -5.5e-4,-0.42171 0.43817,0.39194 0.97493,1.80811 0.53676,1.41617 1.14065,2.53754 1.34198,2.49193 0.60057,-0.13605 2.33767,4.42986 1.93571,5.08797 -0.23126,0.37863 -0.03,1.51743 0.59871,3.3873 0.7644,2.2735 1.07742,2.78281 1.6227,2.64022 0.53183,-0.13908 0.89024,0.36383 1.68427,2.36331 0.94727,2.38536 0.96811,2.56976 0.34232,3.02891 -0.69849,0.5125 -0.63717,0.81742 1.07584,5.35022 0.47599,1.25952 1.56934,0.72778 1.24954,-0.60771 -0.13359,-0.55787 -0.1521,-0.92805 -0.0411,-0.82262 0.32377,0.3076 55.96866,139.29714 56.02203,139.93158 0.0266,0.31629 0.16083,0.66132 0.29826,0.76675 0.18319,0.14053 24.08282,59.57279 31.79697,79.07093 0.39626,1.00157 0.59359,1.8099 0.43853,1.79629 -0.15507,-0.0136 -11.84067,-3.35604 -25.96801,-7.42763 z m -12.5573,-78.70561 c 0.0781,-0.23425 -0.85998,-1.08606 -2.08459,-1.89291 -1.85216,-1.2203 -2.50056,-1.44716 -3.85591,-1.3491 -2.15538,0.15594 -2.31645,1.22392 -0.1846,1.22392 1.02092,0 2.005,0.38705 3.35453,1.31936 1.92636,1.33081 2.51075,1.4782 2.77057,0.69873 z m -15.23733,-2.59315 c 0,-0.47631 -0.72415,-0.57506 -4.21711,-0.57506 -3.49297,0 -4.21712,0.0987 -4.21712,0.57506 0,0.47631 0.72415,0.57506 4.21712,0.57506 3.49296,0 4.21711,-0.0987 4.21711,-0.57506 z m 9.19462,-6.42152 c -0.0161,-1.21548 -1.87742,-5.47392 -2.44199,-5.58703 -0.34025,-0.0682 -0.61864,0.0342 -0.61864,0.22751 0,0.28863 0.97796,3.34076 1.7173,5.35952 0.0965,0.26357 0.4397,0.47922 0.7626,0.47922 0.3229,0 0.58423,-0.21565 0.58073,-0.47922 z m -3.82738,-11.23186 c 0,-0.18169 -1.98785,-5.71066 -2.09871,-5.83732 -0.0505,-0.0577 -0.36144,-0.002 -0.69102,0.12508 -0.53664,0.20593 -0.52657,0.43711 0.0964,2.21343 1.33086,3.79491 1.49109,4.08798 2.10602,3.85201 0.32303,-0.12396 0.58733,-0.2829 0.58733,-0.3532 z m -4.40914,-11.29082 c 0.13012,-0.21056 -0.15243,-1.59071 -0.6279,-3.06699 -0.64778,-2.0113 -1.03779,-2.68418 -1.55578,-2.68418 -0.87373,0 -0.88158,-0.0816 0.31686,3.2942 0.97492,2.74618 1.36818,3.26377 1.86682,2.45697 z m -3.64172,-11.47985 c 0,-0.75162 -2.01969,-5.77254 -2.32203,-5.77254 -0.7174,0 -0.76451,0.89534 -0.14671,2.78807 0.35978,1.10226 0.80972,2.30601 0.99987,2.67501 0.3616,0.7017 1.46887,0.93498 1.46887,0.30946 z m -4.4757,-10.97547 c 0.48664,-0.18674 0.42958,-0.63929 -0.38666,-3.067 -0.76781,-2.28362 -1.11073,-2.84792 -1.73066,-2.84792 -0.57886,0 -0.70839,0.16857 -0.5155,0.6709 0.14169,0.369 0.63399,1.74914 1.09402,3.06699 0.46002,1.31785 0.86599,2.39609 0.90217,2.39609 0.0362,0 0.32265,-0.0986 0.63663,-0.21906 z M 389.12552,292.25 c -0.0161,-1.21549 -1.87742,-5.47392 -2.44199,-5.58704 -0.34025,-0.0682 -0.61864,0.0342 -0.61864,0.22752 0,0.28863 0.97797,3.34076 1.7173,5.35952 0.0965,0.26357 0.4397,0.47922 0.7626,0.47922 0.3229,0 0.58423,-0.21565 0.58073,-0.47922 z m -3.93453,-11.5507 c -0.0832,-0.23636 -0.55629,-1.59424 -1.05137,-3.01752 -0.49508,-1.42328 -1.04617,-2.58778 -1.22465,-2.58778 -0.67831,0 -0.75428,1.23946 -0.17125,2.79392 0.33313,0.88819 0.77986,2.08601 0.99272,2.66184 0.27034,0.73128 0.57077,0.97645 0.9964,0.81312 0.33515,-0.12861 0.54132,-0.42722 0.45815,-0.66358 z m -4.10996,-11.04118 c 0,-0.24861 -0.379,-1.62876 -0.84221,-3.06699 -0.65202,-2.02446 -1.00758,-2.61498 -1.57452,-2.61498 -0.42445,0 -0.65806,0.20146 -0.55569,0.47922 0.0971,0.26357 0.56095,1.64372 1.0307,3.06699 0.52054,1.57714 1.06649,2.58778 1.39791,2.58778 0.29909,0 0.54381,-0.20341 0.54381,-0.45202 z m -3.83375,-11.41065 c 0,-0.75162 -2.01969,-5.77255 -2.32203,-5.77255 -0.7174,0 -0.76451,0.89534 -0.14671,2.78808 0.35978,1.10226 0.80972,2.30601 0.99987,2.67501 0.3616,0.7017 1.46887,0.93498 1.46887,0.30946 z m -4.12511,-10.9762 c 0.12088,-0.12089 -0.21099,-1.50104 -0.7375,-3.067 -0.76758,-2.28297 -1.11049,-2.8472 -1.73041,-2.8472 -0.57886,0 -0.70839,0.16858 -0.5155,0.67091 0.14169,0.36899 0.634,1.74914 1.09402,3.06699 0.76086,2.17967 1.28373,2.78195 1.88939,2.1763 z m -3.92574,-11.82239 c 0,-0.67818 -1.55071,-4.89131 -1.98099,-5.38218 -0.20075,-0.22901 -0.46316,-0.22031 -0.7069,0.0234 -0.34271,0.34271 0.027,1.84032 1.33819,5.42049 0.24089,0.65774 1.3497,0.60703 1.3497,-0.0617 z"
       id="path884"
       inkscape:connector-curvature="0"
       transform="scale(0.26458333)" />
    <path
       style="opacity:1;fill:#0000ff;fill-opacity:1;stroke:none;stroke-width:0.26499999;stroke-linecap:round;stroke-linejoin:bevel;stroke-miterlimit:4;stroke-dasharray:2.11999987, 2.11999987;stroke-dashoffset:0;stroke-opacity:1;paint-order:stroke markers fill"
       d="m 93.416962,109.86055 a 0.57379979,0.57379979 0 0 1 -0.573799,0.5738 0.57379979,0.57379979 0 0 1 -0.5738,-0.5738 0.57379979,0.57379979 0 0 1 0.5738,-0.5738 0.57379979,0.57379979 0 0 1 0.573799,0.5738 z"
       id="path821" />
    <path
       inkscape:connector-curvature="0"
       id="path888"
       d="M 86.799919,60.292369 108.22174,114.13579"
       style="fill:none;stroke:#008000;stroke-width:0.26458332;stroke-linecap:butt;stroke-linejoin:miter;stroke-miterlimit:4;stroke-dasharray:1.40799997, 1.40799997000000010;stroke-dashoffset:0;stroke-opacity:1"
       sodipodi:nodetypes="cc" />
    <path
       inkscape:connector-curvature="0"
       id="path896"
       d="M 91.621624,125.53268 123.4837,104.01141"
       style="fill:none;stroke:#ff0000;stroke-width:0.26499999;stroke-linecap:butt;stroke-linejoin:miter;stroke-miterlimit:4;stroke-dasharray:1.58999992, 1.58999992;stroke-dashoffset:0;stroke-opacity:1"
       sodipodi:nodetypes="cc" />
    <path
       style="opacity:1;fill:#ff0000;fill-opacity:1;stroke:none;stroke-width:0.26499999;stroke-linecap:round;stroke-linejoin:bevel;stroke-miterlimit:4;stroke-dasharray:2.11999987, 2.11999987;stroke-dashoffset:0;stroke-opacity:1;paint-order:stroke markers fill"
       d="m 92.10537,125.73417 a 0.57379979,0.57379979 0 0 1 -0.5738,0.5738 0.57379979,0.57379979 0 0 1 -0.573799,-0.5738 0.57379979,0.57379979 0 0 1 0.573799,-0.5738 0.57379979,0.57379979 0 0 1 0.5738,0.5738 z"
       id="circle898" />
    <path
       style="opacity:1;fill:#ff0000;fill-opacity:1;stroke:none;stroke-width:0.26499999;stroke-linecap:round;stroke-linejoin:bevel;stroke-miterlimit:4;stroke-dasharray:2.11999987, 2.11999987;stroke-dashoffset:0;stroke-opacity:1;paint-order:stroke markers fill"
       d="m 124.07699,103.9597 a 0.57379979,0.57379979 0 0 1 -0.5738,0.5738 0.57379979,0.57379979 0 0 1 -0.5738,-0.5738 0.57379979,0.57379979 0 0 1 0.5738,-0.5738 0.57379979,0.57379979 0 0 1 0.5738,0.5738 z"
       id="circle900" />
    <path
       sodipodi:nodetypes="cc"
       style="fill:none;stroke:#ff0000;stroke-width:0.26499999;stroke-linecap:butt;stroke-linejoin:miter;stroke-miterlimit:4;stroke-dasharray:1.58999992, 1.58999992;stroke-dashoffset:0;stroke-opacity:1"
       d="M 86.499185,79.532171 100.25521,70.284463"
       id="path902"
       inkscape:connector-curvature="0" />
    <path
       style="opacity:1;fill:#ff0000;fill-opacity:1;stroke:none;stroke-width:0.26499999;stroke-linecap:round;stroke-linejoin:bevel;stroke-miterlimit:4;stroke-dasharray:2.11999987, 2.11999987;stroke-dashoffset:0;stroke-opacity:1;paint-order:stroke markers fill"
       d="m 100.7273,70.249542 a 0.57379979,0.57379979 0 0 1 -0.5738,0.5738 0.57379979,0.57379979 0 0 1 -0.573796,-0.5738 0.57379979,0.57379979 0 0 1 0.573796,-0.5738 0.57379979,0.57379979 0 0 1 0.5738,0.5738 z"
       id="circle904" />
    <path
       style="opacity:1;fill:#ff0000;fill-opacity:1;stroke:none;stroke-width:0.26499999;stroke-linecap:round;stroke-linejoin:bevel;stroke-miterlimit:4;stroke-dasharray:2.11999987, 2.11999987;stroke-dashoffset:0;stroke-opacity:1;paint-order:stroke markers fill"
       d="m 87.135087,79.429359 a 0.57379979,0.57379979 0 0 1 -0.5738,0.5738 0.57379979,0.57379979 0 0 1 -0.5738,-0.5738 0.57379979,0.57379979 0 0 1 0.5738,-0.573799 0.57379979,0.57379979 0 0 1 0.5738,0.573799 z"
       id="circle906" />
    <path
       inkscape:connector-curvature="0"
       id="path908"
       d="m 84.369062,62.136166 4.981947,-3.364511"
       style="fill:none;stroke:#ff0000;stroke-width:0.26499999;stroke-linecap:butt;stroke-linejoin:miter;stroke-miterlimit:4;stroke-dasharray:1.58999992, 1.58999992;stroke-dashoffset:0;stroke-opacity:1"
       sodipodi:nodetypes="cc" />
    <path
       style="opacity:1;fill:#ff0000;fill-opacity:1;stroke:none;stroke-width:0.26499999;stroke-linecap:round;stroke-linejoin:bevel;stroke-miterlimit:4;stroke-dasharray:2.11999987, 2.11999987;stroke-dashoffset:0;stroke-opacity:1;paint-order:stroke markers fill"
       d="m 89.86683,59.045269 a 0.57379979,0.57379979 0 0 1 -0.5738,0.5738 0.57379979,0.57379979 0 0 1 -0.5738,-0.5738 0.57379979,0.57379979 0 0 1 0.5738,-0.5738 0.57379979,0.57379979 0 0 1 0.5738,0.5738 z"
       id="circle910" />
    <path
       style="fill:none;stroke:#ff0000;stroke-width:0.26458332px;stroke-linecap:butt;stroke-linejoin:miter;stroke-opacity:1"
       d="m 84.190572,62.027151 2.332992,17.396002 5.021003,46.355537"
       id="path914"
       inkscape:connector-curvature="0" />
    <path
       style="fill:none;stroke:#ff0000;stroke-width:0.26499999;stroke-linecap:butt;stroke-linejoin:miter;stroke-miterlimit:4;stroke-dasharray:1.58999992, 1.58999992;stroke-dashoffset:0;stroke-opacity:1"
       d="m 89.313011,58.984117 10.853479,11.259222 23.38064,33.879101"
       id="path916"
       inkscape:connector-curvature="0" />
    <path
       style="fill:#ffaaaa;fill-opacity:0.50196078;stroke:none;stroke-width:0.08819444;stroke-linecap:butt;stroke-linejoin:miter;stroke-opacity:1"
       d="M 84.190572,62.027151 86.799919,60.292368 108.22174,114.13579 91.621622,125.53268 86.499183,79.532169 Z"
       id="path918"
       inkscape:connector-curvature="0" />
    <g
       aria-label="S"
       style="font-style:italic;font-variant:normal;font-weight:normal;font-stretch:normal;font-size:4.23333311px;line-height:3.88055563px;font-family:'GOST type B';-inkscape-font-specification:'GOST type B Italic';text-align:start;letter-spacing:0px;word-spacing:0px;text-anchor:start;fill:#000000;fill-opacity:1;stroke:none;stroke-width:0.26458332"
       id="text924">
      <path
         d="m 92.265659,44.890587 q 0.02687,0.0186 0.03514,0.05374 0.0124,0.02687 0.0041,0.06201 -0.01034,0.04961 -0.06408,0.101286 -0.05374,0.04961 -0.109554,0.04961 -0.04547,0 -0.08268,-0.02894 -0.237712,-0.198437 -0.570508,-0.198437 -0.208773,0 -0.40721,0.09095 -0.08682,0.04341 -0.157096,0.117823 l -0.04754,0.07028 q -0.0186,0.03101 -0.02894,0.08062 -0.02067,0.101286 0.05168,0.16123 l 0.913639,0.79375 q 0.111621,0.08888 0.161231,0.254248 0.04961,0.163298 0.01654,0.332796 -0.03721,0.179834 -0.142627,0.33073 -0.10542,0.150895 -0.28112,0.235644 -0.146761,0.06408 -0.326595,0.119889 -0.16123,0.03721 -0.297656,0.03721 -0.200504,0 -0.374137,-0.06408 -0.09922,-0.03307 -0.169499,-0.07441 -0.06821,-0.04341 -0.171566,-0.121957 -0.05788,-0.04341 -0.04341,-0.117822 0.0124,-0.06201 0.06201,-0.10542 0.04961,-0.04547 0.109554,-0.04547 0.03721,0 0.07441,0.0248 0.136426,0.09922 0.276986,0.157097 0.142626,0.05581 0.299723,0.05581 0.219108,0 0.481624,-0.121956 0.07441,-0.03721 0.136426,-0.121956 0.03101,-0.04341 0.05168,-0.08888 0.02067,-0.04547 0.03101,-0.09302 0.0186,-0.09715 -0.0021,-0.202572 -0.02481,-0.07648 -0.101286,-0.152962 l -0.915706,-0.79375 q -0.07648,-0.06201 -0.109554,-0.171566 -0.03101,-0.111621 -0.0083,-0.229443 0.03101,-0.15503 0.132291,-0.291455 0.101286,-0.136426 0.29559,-0.229444 0.260449,-0.119889 0.54777,-0.119889 0.206705,0 0.392741,0.06201 0.188102,0.06201 0.33693,0.181901 z"
         style="stroke-width:0.26458332"
         id="path1007" />
    </g>
    <g
       aria-label="A"
       style="font-style:italic;font-variant:normal;font-weight:normal;font-stretch:normal;font-size:4.23333311px;line-height:3.88055563px;font-family:'GOST type B';-inkscape-font-specification:'GOST type B Italic';text-align:start;letter-spacing:0px;word-spacing:0px;text-anchor:start;fill:#000000;fill-opacity:1;stroke:none;stroke-width:0.26458332"
       id="text928">
      <path
         d="m 50.574186,111.22404 -0.332797,0.62425 q -0.02687,0.0455 -0.06821,0.0744 -0.03307,0.0186 -0.08475,0.0248 -0.05788,0 -0.09302,-0.0413 -0.03927,-0.0372 -0.02687,-0.0992 l 0.02067,-0.0517 1.39113,-2.60449 q 0.06821,-0.12402 0.16123,-0.12402 0.09302,0 0.111621,0.12402 l 0.345199,2.60449 v 0.0517 q -0.0124,0.0558 -0.06821,0.10129 -0.05374,0.0393 -0.109554,0.0393 -0.02894,0 -0.06201,-0.0145 -0.03307,-0.0145 -0.04961,-0.0847 l -0.08475,-0.62425 z m 1.012858,-0.29559 -0.171566,-1.27537 -0.682129,1.27537 z"
         style="stroke-width:0.26458332"
         id="path1010" />
    </g>
    <g
       aria-label="B"
       style="font-style:italic;font-variant:normal;font-weight:normal;font-stretch:normal;font-size:4.23333311px;line-height:3.88055563px;font-family:'GOST type B';-inkscape-font-specification:'GOST type B Italic';text-align:start;letter-spacing:0px;word-spacing:0px;text-anchor:start;fill:#000000;fill-opacity:1;stroke:none;stroke-width:0.26458332"
       id="text932">
      <path
         d="m 76.673423,128.08579 q 0.109554,0.0744 0.159164,0.20877 0.04961,0.13436 0.0186,0.28525 l -0.115755,0.57878 q -0.04754,0.23771 -0.252181,0.40928 -0.202572,0.1695 -0.44235,0.1695 h -1.012858 q -0.144694,0 -0.115756,-0.1447 l 0.520899,-2.60449 q 0.02894,-0.14469 0.173633,-0.14469 h 0.868164 q 0.241845,0 0.376204,0.16949 0.134359,0.1695 0.08682,0.40928 l -0.05788,0.28939 q -0.02067,0.0992 -0.07028,0.19224 -0.04961,0.093 -0.136426,0.1819 z m -1.211295,0.20257 -0.231511,1.15962 h 0.868164 q 0.11989,0 0.221175,-0.0806 0.101286,-0.0806 0.126091,-0.20877 l 0.115755,-0.57878 q 0.02481,-0.12195 -0.04134,-0.20463 -0.06408,-0.0848 -0.190169,-0.0848 z m 0.781347,-0.28732 q 0.11989,0 0.221175,-0.0806 0.101286,-0.0806 0.126091,-0.20877 l 0.05788,-0.28939 q 0.02481,-0.12195 -0.04134,-0.20464 -0.06408,-0.0847 -0.190169,-0.0847 h -0.72347 l -0.173633,0.87023 z"
         style="stroke-width:0.26458332"
         id="path1013" />
    </g>
    <g
       aria-label="Y"
       style="font-style:italic;font-variant:normal;font-weight:normal;font-stretch:normal;font-size:4.23333311px;line-height:3.88055563px;font-family:'GOST type B';-inkscape-font-specification:'GOST type B Italic';text-align:start;letter-spacing:0px;word-spacing:0px;text-anchor:start;fill:#ff0000;fill-opacity:1;stroke:none;stroke-width:0.26458332"
       id="text936">
      <path
         d="m 91.404517,128.86217 -0.591178,-1.2051 q -0.02894,-0.0434 -0.0186,-0.0951 0.01033,-0.0517 0.06201,-0.0992 0.05374,-0.0475 0.115755,-0.0475 0.05581,0 0.09715,0.0517 l 0.535368,1.11621 0.981852,-1.11621 q 0.05581,-0.0517 0.115755,-0.0517 0.05581,0 0.09715,0.0434 0.03721,0.0455 0.0248,0.10336 -0.0083,0.0413 -0.05581,0.0951 l -1.07487,1.2051 -0.260449,1.30431 q -0.01447,0.0682 -0.06408,0.10955 -0.04547,0.0351 -0.109554,0.0351 -0.05788,0 -0.09508,-0.0351 -0.03514,-0.0372 -0.02067,-0.10955 z"
         style="fill:#ff0000;stroke-width:0.26458332"
         id="path1016" />
    </g>
    <g
       aria-label="C"
       style="font-style:italic;font-variant:normal;font-weight:normal;font-stretch:normal;font-size:4.23333311px;line-height:3.88055563px;font-family:'GOST type B';-inkscape-font-specification:'GOST type B Italic';text-align:start;letter-spacing:0px;word-spacing:0px;text-anchor:start;fill:#000000;fill-opacity:1;stroke:none;stroke-width:0.26458332"
       id="text940">
      <path
         d="m 109.03563,129.88083 h -0.72347 q -0.23564,0 -0.37413,-0.16743 -0.13643,-0.1695 -0.0889,-0.41135 l 0.34727,-1.73633 q 0.0475,-0.24184 0.25011,-0.40927 0.20257,-0.1695 0.44442,-0.1695 h 0.72347 q 0.0599,0 0.093,0.0455 0.0331,0.0434 0.0227,0.0992 -0.0103,0.0496 -0.0558,0.0971 -0.0455,0.0476 -0.11782,0.0476 h -0.72347 q -0.12195,0 -0.22324,0.0827 -0.0496,0.0413 -0.0806,0.0951 -0.031,0.0517 -0.0434,0.11162 l -0.34727,1.73633 q -0.0248,0.12196 0.0413,0.20671 0.0351,0.0372 0.0806,0.062 0.0579,0.0207 0.10955,0.0207 h 0.72347 q 0.06,0 0.093,0.0455 0.0331,0.0434 0.0227,0.0992 -0.0103,0.0496 -0.0558,0.0972 -0.0455,0.0475 -0.11783,0.0475 z"
         style="stroke-width:0.26458332"
         id="path1019" />
    </g>
    <g
       aria-label="N"
       style="font-style:italic;font-variant:normal;font-weight:normal;font-stretch:normal;font-size:4.23333311px;line-height:3.88055563px;font-family:'GOST type B';-inkscape-font-specification:'GOST type B Italic';text-align:start;letter-spacing:0px;word-spacing:0px;text-anchor:start;fill:#008000;fill-opacity:1;stroke:none;stroke-width:0.26458332"
       id="text944">
      <path
         d="m 122.5526,121.11466 q -0.0124,0.0682 -0.062,0.11576 l -0.0496,0.0331 q -0.0248,0.0124 -0.0537,0.0124 -0.0868,0 -0.11989,-0.091 l -0.75654,-2.08359 -0.40515,2.02778 q -0.0145,0.0682 -0.0641,0.10956 -0.0455,0.0351 -0.10955,0.0351 -0.0579,0 -0.0951,-0.0351 -0.0351,-0.0372 -0.0207,-0.10956 l 0.51884,-2.59002 q 0.0145,-0.0765 0.0641,-0.11782 0.0455,-0.0413 0.10336,-0.0413 0.0827,0 0.11782,0.091 l 0.75654,2.08152 0.40515,-2.02778 q 0.0124,-0.0579 0.0641,-0.10749 0.0517,-0.0372 0.10956,-0.0372 0.0537,0 0.0951,0.0351 0.0351,0.0372 0.0207,0.10955 z"
         style="fill:#008000;stroke-width:0.26458332"
         id="path1022" />
    </g>
    <g
       aria-label="D"
       style="font-style:italic;font-variant:normal;font-weight:normal;font-stretch:normal;font-size:4.23333311px;line-height:3.88055563px;font-family:'GOST type B';-inkscape-font-specification:'GOST type B Italic';text-align:start;letter-spacing:0px;word-spacing:0px;text-anchor:start;fill:#000000;fill-opacity:1;stroke:none;stroke-width:0.26458332"
       id="text948">
      <path
         d="m 134.83266,111.22735 q -0.0475,0.23772 -0.25218,0.40928 -0.20257,0.1695 -0.44235,0.1695 h -1.01286 q -0.14469,0 -0.11575,-0.14469 l 0.5209,-2.6045 q 0.0289,-0.14469 0.17363,-0.14469 h 1.01286 q 0.24184,0 0.3762,0.1695 0.13436,0.1695 0.0868,0.40928 z m -0.28938,0 0.34726,-1.73632 q 0.0248,-0.12196 -0.0413,-0.20464 -0.0641,-0.0847 -0.19017,-0.0847 h -0.86816 l -0.46302,2.3151 h 0.86816 q 0.11989,0 0.22118,-0.0806 0.10128,-0.0806 0.12609,-0.20878 z"
         style="stroke-width:0.26458332"
         id="path1025" />
    </g>
    <g
       aria-label="E"
       style="font-style:italic;font-variant:normal;font-weight:normal;font-stretch:normal;font-size:4.23333311px;line-height:3.88055563px;font-family:'GOST type B';-inkscape-font-specification:'GOST type B Italic';text-align:start;letter-spacing:0px;word-spacing:0px;text-anchor:start;fill:#000000;fill-opacity:1;stroke:none;stroke-width:0.26458332"
       id="text952">
      <path
         d="m 107.39643,96.376152 h 0.72554 q 0.0599,0 0.093,0.04547 0.0331,0.04341 0.0227,0.09922 -0.0103,0.05168 -0.0558,0.09922 -0.0455,0.04547 -0.11782,0.04547 h -0.72554 l -0.23151,1.157552 h 1.01493 q 0.0599,0 0.093,0.04547 0.0331,0.04341 0.0227,0.09922 -0.0103,0.05168 -0.0558,0.09922 -0.0455,0.04548 -0.11782,0.04548 h -1.15962 q -0.14469,0 -0.11782,-0.136426 l 0.52297,-2.61276 q 0.0289,-0.144694 0.17363,-0.144694 h 1.15962 q 0.0599,0 0.093,0.04548 0.0331,0.04341 0.0227,0.09922 -0.0103,0.05168 -0.0558,0.09922 -0.0455,0.04547 -0.11782,0.04547 h -1.01493 z"
         style="stroke-width:0.26458332"
         id="path1028" />
    </g>
    <g
       aria-label="F"
       style="font-style:italic;font-variant:normal;font-weight:normal;font-stretch:normal;font-size:4.23333311px;line-height:3.88055563px;font-family:'GOST type B';-inkscape-font-specification:'GOST type B Italic';text-align:start;letter-spacing:0px;word-spacing:0px;text-anchor:start;fill:#000000;fill-opacity:1;stroke:none;stroke-width:0.26458332"
       id="text956">
      <path
         d="m 77.219689,95.968346 h 1.012858 q 0.06821,0 0.09922,0.03927 0.02894,0.04341 0.01654,0.10542 -0.01034,0.04961 -0.05581,0.09715 -0.04547,0.04754 -0.117822,0.04754 h -1.012858 l -0.260449,1.304313 q -0.01447,0.06821 -0.06408,0.109554 -0.04547,0.03514 -0.109554,0.03514 -0.05788,0 -0.09508,-0.03514 -0.03514,-0.03721 -0.02067,-0.109554 l 0.520898,-2.604492 q 0.02894,-0.144694 0.173633,-0.144694 h 1.157552 q 0.05994,0 0.09302,0.04548 0.03307,0.04341 0.02274,0.09922 -0.01033,0.04961 -0.05581,0.09715 -0.04547,0.04754 -0.117822,0.04754 h -1.012858 z"
         style="stroke-width:0.26458332"
         id="path1031" />
    </g>
    <g
       aria-label="M"
       style="font-style:italic;font-variant:normal;font-weight:normal;font-stretch:normal;font-size:4.23333311px;line-height:3.88055563px;font-family:'GOST type B';-inkscape-font-specification:'GOST type B Italic';text-align:start;letter-spacing:0px;word-spacing:0px;text-anchor:start;fill:#008000;fill-opacity:1;stroke:none;stroke-width:0.26458332"
       id="text960">
      <path
         d="m 64.54037,101.26441 q -0.01447,0.0682 -0.06201,0.10955 -0.04754,0.0351 -0.111621,0.0351 -0.04961,0 -0.09095,-0.0351 -0.03927,-0.0372 -0.0248,-0.10955 l 0.413411,-2.064991 -0.797884,1.000451 q -0.07235,0.093 -0.144694,0.093 -0.06201,0 -0.10542,-0.093 l -0.401009,-1.000451 -0.413412,2.064991 q -0.01447,0.0682 -0.06408,0.10955 -0.04548,0.0351 -0.109554,0.0351 -0.05788,0 -0.09509,-0.0351 -0.03514,-0.0372 -0.02067,-0.10955 l 0.518832,-2.590023 q 0.01654,-0.08268 0.06615,-0.124024 0.04548,-0.04341 0.09922,-0.04341 0.03927,0 0.06615,0.02067 0.02687,0.02067 0.05168,0.07235 l 0.49816,1.240234 0.992188,-1.240234 q 0.06821,-0.09302 0.157096,-0.09302 0.04961,0 0.08268,0.04547 0.02894,0.04754 0.01447,0.121957 z"
         style="fill:#008000;stroke-width:0.26458332"
         id="path1034" />
    </g>
    <g
       aria-label="Z"
       style="font-style:italic;font-variant:normal;font-weight:normal;font-stretch:normal;font-size:4.23333311px;line-height:3.88055563px;font-family:'GOST type B';-inkscape-font-specification:'GOST type B Italic';text-align:start;letter-spacing:0px;word-spacing:0px;text-anchor:start;fill:#ff0000;fill-opacity:1;stroke:none;stroke-width:0.26458332"
       id="text964">
      <path
         d="m 124.63365,105.73277 -2.06085,2.37918 h 1.46348 q 0.0682,0 0.0971,0.0455 0.0289,0.0455 0.0186,0.0992 -0.0103,0.0496 -0.0558,0.0971 -0.0455,0.0476 -0.11782,0.0476 h -1.73633 q -0.16123,0 -0.13849,-0.11576 0.008,-0.0434 0.062,-0.10955 l 2.06085,-2.37919 h -1.46347 q -0.0661,0 -0.0992,-0.0393 -0.0289,-0.0475 -0.0165,-0.10542 0.0103,-0.0496 0.0558,-0.0971 0.0455,-0.0475 0.11783,-0.0475 h 1.73632 q 0.16123,0 0.1385,0.11575 -0.008,0.0434 -0.062,0.10956 z"
         style="fill:#ff0000;stroke-width:0.26458332"
         id="path1037" />
    </g>
    <g
       aria-label="X"
       style="font-style:italic;font-variant:normal;font-weight:normal;font-stretch:normal;font-size:4.23333311px;line-height:3.88055563px;font-family:'GOST type B';-inkscape-font-specification:'GOST type B Italic';text-align:start;letter-spacing:0px;word-spacing:0px;text-anchor:start;fill:#ff0000;fill-opacity:1;stroke:none;stroke-width:0.26458332"
       id="text968">
      <path
         d="m 84.333855,79.406015 0.971516,-1.120345 q 0.02481,-0.02894 0.06201,-0.04961 l 0.03307,-0.0124 0.03514,-0.0041 q 0.05581,0 0.09715,0.04341 0.03721,0.04547 0.0248,0.103353 -0.0083,0.03721 -0.04134,0.08061 l -1.058333,1.221631 0.570508,1.221631 0.01033,0.04341 -0.0021,0.03927 q -0.0124,0.05581 -0.06615,0.101286 -0.05168,0.04341 -0.115755,0.04341 -0.06821,0 -0.103353,-0.06615 l -0.520898,-1.120345 -0.971517,1.120345 q -0.02067,0.02687 -0.06615,0.05168 l -0.06615,0.01447 q -0.04547,0 -0.09302,-0.04341 -0.03927,-0.04341 -0.02687,-0.103353 0.0083,-0.03721 0.04134,-0.08061 l 1.058333,-1.221631 -0.570507,-1.221631 -0.0124,-0.04341 0.0041,-0.03927 q 0.0124,-0.05581 0.06408,-0.09922 0.05374,-0.04547 0.117822,-0.04547 0.06821,0 0.103353,0.06615 z"
         style="fill:#ff0000;stroke-width:0.26458332"
         id="path1040" />
    </g>
    <g
       aria-label="W"
       style="font-style:italic;font-variant:normal;font-weight:normal;font-stretch:normal;font-size:4.23333311px;line-height:3.88055563px;font-family:'GOST type B';-inkscape-font-specification:'GOST type B Italic';text-align:start;letter-spacing:0px;word-spacing:0px;text-anchor:start;fill:#ff0000;fill-opacity:1;stroke:none;stroke-width:0.26458332"
       id="text972">
      <path
         d="m 104.48355,68.154485 -1.09967,2.602425 q -0.0165,0.04961 -0.0641,0.08268 -0.0455,0.03307 -0.0971,0.03307 -0.0992,0 -0.11989,-0.09715 l -0.19844,-1.219564 -0.68626,1.219564 q -0.0207,0.03307 -0.0703,0.07235 -0.0393,0.02481 -0.0847,0.02481 -0.11162,0 -0.11989,-0.115755 l -0.0579,-2.602425 0.006,-0.03927 q 0.008,-0.04754 0.06,-0.09302 0.0537,-0.04547 0.11369,-0.04547 0.0475,0 0.0744,0.0248 0.0289,0.02481 0.0434,0.08888 l 0.0475,2.116666 0.63252,-1.122412 q 0.0662,-0.117822 0.15916,-0.117822 0.0868,0 0.11369,0.117822 l 0.1819,1.122412 0.89504,-2.116666 q 0.0475,-0.113688 0.15916,-0.113688 0.062,0 0.0951,0.04134 0.0393,0.03721 0.0269,0.101286 z"
         style="fill:#ff0000;stroke-width:0.26458332"
         id="path1043" />
    </g>
    <g
       aria-label="V"
       style="font-style:italic;font-variant:normal;font-weight:normal;font-stretch:normal;font-size:4.23333311px;line-height:3.88055563px;font-family:'GOST type B';-inkscape-font-specification:'GOST type B Italic';text-align:start;letter-spacing:0px;word-spacing:0px;text-anchor:start;fill:#ff0000;fill-opacity:1;stroke:#edffc6;stroke-width:0.70599997;stroke-linecap:round;stroke-miterlimit:4;stroke-dasharray:none;stroke-opacity:1;paint-order:stroke markers fill"
       id="text976">
      <path
         d="m 93.702348,57.315469 -1.382861,2.573486 q -0.02894,0.05374 -0.06821,0.09095 -0.03101,0.0186 -0.09302,0.03514 -0.08682,0 -0.111621,-0.126091 l -0.353466,-2.573486 0.0041,-0.05374 q 0.0083,-0.04754 0.05994,-0.09302 0.05374,-0.04548 0.113689,-0.04548 l 0.03721,0.0021 0.03721,0.0124 q 0.02687,0.0186 0.03927,0.08475 l 0.299723,2.166276 1.163753,-2.166276 q 0.02894,-0.04341 0.07028,-0.07028 0.04341,-0.02894 0.08268,-0.02894 0.05581,0 0.09715,0.03721 0.03514,0.04134 0.02481,0.101286 z"
         style="fill:#ff0000;stroke:#edffc6;stroke-width:0.70599997;stroke-linecap:round;stroke-miterlimit:4;stroke-dasharray:none;stroke-opacity:1;paint-order:stroke markers fill"
         id="path1046" />
    </g>
    <g
       aria-label="U"
       style="font-style:italic;font-variant:normal;font-weight:normal;font-stretch:normal;font-size:4.23333311px;line-height:3.88055563px;font-family:'GOST type B';-inkscape-font-specification:'GOST type B Italic';text-align:start;letter-spacing:0px;word-spacing:0px;text-anchor:start;fill:#ff0000;fill-opacity:1;stroke:none;stroke-width:0.26458332"
       id="text980">
      <path
         d="m 82.448303,62.684236 q -0.04754,0.237711 -0.252181,0.409277 -0.202572,0.169499 -0.442351,0.169499 h -0.578776 q -0.235644,0 -0.374137,-0.167432 -0.136426,-0.169498 -0.08888,-0.411344 l 0.434082,-2.17041 q 0.0124,-0.05788 0.06408,-0.107487 0.05168,-0.03721 0.109554,-0.03721 0.05581,0 0.09302,0.03721 0.03721,0.03514 0.02274,0.107487 l -0.434082,2.17041 q -0.02481,0.121956 0.04134,0.206706 0.03514,0.03721 0.08061,0.06201 0.05788,0.02067 0.109554,0.02067 h 0.578776 q 0.119889,0 0.221175,-0.08062 0.101286,-0.08062 0.126091,-0.208773 l 0.434082,-2.17041 q 0.0124,-0.05788 0.06408,-0.107487 0.05168,-0.03721 0.109554,-0.03721 0.05581,0 0.09302,0.03721 0.03721,0.03514 0.02274,0.107487 z"
         style="fill:#ff0000;stroke-width:0.26458332"
         id="path1049" />
    </g>
    <g
       aria-label="P"
       style="font-style:italic;font-variant:normal;font-weight:normal;font-stretch:normal;font-size:4.23333311px;line-height:3.88055563px;font-family:'GOST type B';-inkscape-font-specification:'GOST type B Italic';text-align:start;letter-spacing:0px;word-spacing:0px;text-anchor:start;fill:#008000;fill-opacity:1;stroke:none;stroke-width:0.26458332"
       id="text984">
      <path
         d="m 84.87735,57.910848 h 0.868164 q 0.119889,0 0.221175,-0.08062 0.101286,-0.08062 0.12609,-0.208773 l 0.115756,-0.578776 q 0.0248,-0.121956 -0.04134,-0.204639 -0.06408,-0.08475 -0.190169,-0.08475 H 85.10886 Z m -0.05788,0.289388 -0.202571,1.012858 q -0.01447,0.06821 -0.06408,0.109554 -0.04548,0.03514 -0.109554,0.03514 -0.05788,0 -0.09508,-0.03514 -0.03514,-0.03721 -0.02067,-0.109554 l 0.520898,-2.604492 q 0.02894,-0.144694 0.173633,-0.144694 h 1.012858 q 0.241846,0 0.376204,0.169499 0.134359,0.169498 0.08682,0.409277 l -0.115756,0.578776 q -0.04754,0.237712 -0.252181,0.409277 -0.202571,0.169499 -0.44235,0.169499 z"
         style="fill:#008000;stroke-width:0.26458332"
         id="path1052" />
    </g>
    <path
       style="opacity:1;fill:#008000;fill-opacity:1;stroke:none;stroke-width:0.26499999;stroke-linecap:round;stroke-linejoin:bevel;stroke-miterlimit:4;stroke-dasharray:2.11999987, 2.11999987;stroke-dashoffset:0;stroke-opacity:1;paint-order:stroke markers fill"
       d="m 87.483117,60.414635 a 0.57379979,0.57379979 0 0 1 -0.5738,0.573799 0.57379979,0.57379979 0 0 1 -0.5738,-0.573799 0.57379979,0.57379979 0 0 1 0.5738,-0.5738 0.57379979,0.57379979 0 0 1 0.5738,0.5738 z"
       id="circle892" />
    <path
       style="opacity:1;fill:#ff0000;fill-opacity:1;stroke:none;stroke-width:0.26499999;stroke-linecap:round;stroke-linejoin:bevel;stroke-miterlimit:4;stroke-dasharray:2.11999987, 2.11999987;stroke-dashoffset:0;stroke-opacity:1;paint-order:stroke markers fill"
       d="m 84.795106,62.088303 a 0.57379979,0.57379979 0 0 1 -0.5738,0.573799 0.57379979,0.57379979 0 0 1 -0.5738,-0.573799 0.57379979,0.57379979 0 0 1 0.5738,-0.5738 0.57379979,0.57379979 0 0 1 0.5738,0.5738 z"
       id="circle912" />
    <g
       aria-label="Q"
       style="font-style:italic;font-variant:normal;font-weight:normal;font-stretch:normal;font-size:4.23333311px;line-height:3.88055563px;font-family:'GOST type B';-inkscape-font-specification:'GOST type B Italic';text-align:start;letter-spacing:0px;word-spacing:0px;text-anchor:start;fill:#008000;fill-opacity:1;stroke:none;stroke-width:0.26458332"
       id="text988">
      <path
         d="m 109.28148,117.74727 -0.3452,-0.26872 q -0.0579,-0.0434 -0.0434,-0.11575 0.008,-0.0413 0.0641,-0.10129 0.0537,-0.0475 0.11163,-0.0475 0.031,0 0.0765,0.0269 l 0.30592,0.23771 0.34107,-1.70532 q 0.0248,-0.12196 -0.0414,-0.20464 -0.0641,-0.0847 -0.19016,-0.0847 h -0.57878 q -0.12196,0 -0.22324,0.0827 -0.0496,0.0413 -0.0806,0.0951 -0.031,0.0517 -0.0434,0.11162 l -0.34726,1.73633 q -0.0248,0.12195 0.0413,0.2067 0.0351,0.0372 0.0806,0.062 0.0579,0.0207 0.10956,0.0207 h 0.57877 q 0.0455,0 0.0889,-0.0124 0.0434,-0.0124 0.0951,-0.0393 z m 0.40515,-0.0868 0.20877,0.16537 q 0.0579,0.0434 0.0434,0.11575 -0.0103,0.0538 -0.06,0.10129 -0.0537,0.0455 -0.11369,0.0455 -0.0372,0 -0.0765,-0.0269 l -0.19223,-0.14676 q -0.19637,0.17363 -0.45682,0.17363 h -0.57878 q -0.23564,0 -0.37414,-0.16743 -0.13642,-0.1695 -0.0889,-0.41134 l 0.34727,-1.73633 q 0.0475,-0.24185 0.25011,-0.40928 0.20257,-0.1695 0.44442,-0.1695 h 0.57877 q 0.24185,0 0.37621,0.1695 0.13436,0.1695 0.0868,0.40928 l -0.34726,1.73633 -0.008,0.0393 q -0.006,0.0289 -0.0124,0.0434 z"
         style="fill:#008000;stroke-width:0.26458332"
         id="path1057" />
    </g>
    <path
       style="opacity:1;fill:#008000;fill-opacity:1;stroke:none;stroke-width:0.26499999;stroke-linecap:round;stroke-linejoin:bevel;stroke-miterlimit:4;stroke-dasharray:2.11999987, 2.11999987;stroke-dashoffset:0;stroke-opacity:1;paint-order:stroke markers fill"
       d="m 108.76611,114.23578 a 0.57379979,0.57379979 0 0 1 -0.5738,0.5738 0.57379979,0.57379979 0 0 1 -0.5738,-0.5738 0.57379979,0.57379979 0 0 1 0.5738,-0.5738 0.57379979,0.57379979 0 0 1 0.5738,0.5738 z"
       id="circle890" />
    <g
       aria-label="K"
       style="font-style:italic;font-variant:normal;font-weight:normal;font-stretch:normal;font-size:4.23333311px;line-height:3.88055563px;font-family:'GOST type B';-inkscape-font-specification:'GOST type B Italic';text-align:start;letter-spacing:0px;word-spacing:0px;text-anchor:start;fill:#0000ff;fill-opacity:1;stroke:none;stroke-width:0.26458332"
       id="text996">
      <path
         d="m 95.009344,75.72116 1.459342,-1.209228 q 0.05168,-0.04341 0.107487,-0.04341 0.05374,0 0.09095,0.04547 0.03721,0.04341 0.02687,0.103353 -0.0083,0.03721 -0.06408,0.09715 l -1.033529,0.859895 0.574642,1.573031 0.0041,0.07648 q -0.01033,0.05581 -0.06615,0.09715 -0.05168,0.04341 -0.113688,0.04341 -0.07028,0 -0.107487,-0.07648 l -0.545703,-1.511019 -0.411344,0.338997 -0.221175,1.101742 q -0.01447,0.06821 -0.06408,0.109554 -0.04548,0.03514 -0.109554,0.03514 -0.05788,0 -0.09508,-0.03514 -0.03514,-0.03721 -0.02067,-0.109554 l 0.520898,-2.604492 q 0.01033,-0.05581 0.06408,-0.09715 0.05374,-0.04341 0.109554,-0.04341 0.05581,0 0.09302,0.03307 0.03721,0.03721 0.02274,0.107487 z"
         style="fill:#0000ff;stroke-width:0.26458332"
         id="path1061" />
    </g>
    <path
       style="opacity:1;fill:#0000ff;fill-opacity:1;stroke:none;stroke-width:0.26499999;stroke-linecap:round;stroke-linejoin:bevel;stroke-miterlimit:4;stroke-dasharray:2.11999987, 2.11999987;stroke-dashoffset:0;stroke-opacity:1;paint-order:stroke markers fill"
       d="m 93.366311,75.376213 a 0.57379979,0.57379979 0 0 1 -0.5738,0.5738 0.57379979,0.57379979 0 0 1 -0.5738,-0.5738 0.57379979,0.57379979 0 0 1 0.5738,-0.5738 0.57379979,0.57379979 0 0 1 0.5738,0.5738 z"
       id="circle894" />
  </g>
</svg>
